/* XPM */
static char *_4f884c40f7042dadcad99b02cc61c1cx1d0NukTENqIv1bG[] = {
/* columns rows colors chars-per-pixel */
"60 60 183 2 ",
"   c #66160E",
".  c #69160E",
"X  c #661710",
"o  c #6C1B12",
"O  c #731B11",
"+  c #7A1E13",
"@  c #662400",
"#  c #692602",
"$  c #6D2905",
"%  c #6C2D0C",
"&  c #702C07",
"*  c #732E09",
"=  c #76310B",
"-  c #7A340D",
";  c #6E251A",
":  c #6D2A1C",
">  c #772513",
",  c #7D2214",
"<  c #7D2E15",
"1  c #73261A",
"2  c #7A2519",
"3  c #742C1D",
"4  c #782C1E",
"5  c #6D3114",
"6  c #6E3518",
"7  c #6E391D",
"8  c #713315",
"9  c #7D3711",
"0  c #7F3912",
"q  c #72361B",
"w  c #753A1C",
"e  c #743221",
"r  c #743C24",
"t  c #7A3C25",
"y  c #763F2A",
"u  c #7B4027",
"i  c #77412D",
"p  c #7A432E",
"a  c #7E4A2B",
"s  c #7E4631",
"d  c #774A37",
"f  c #7D4936",
"g  c #774E3A",
"h  c #7F503E",
"j  c #7E5343",
"k  c #7E594C",
"l  c #7F5F52",
"z  c #822116",
"x  c #842519",
"c  c #8B2619",
"v  c #82281B",
"b  c #8D2B1B",
"n  c #912A1B",
"m  c #843B14",
"M  c #8A3B17",
"N  c #81351E",
"B  c #8F371A",
"V  c #863F18",
"C  c #893D1A",
"Z  c #913719",
"A  c #94391B",
"S  c #993F1A",
"D  c #823222",
"F  c #8B3423",
"G  c #863826",
"H  c #893826",
"J  c #843C28",
"K  c #8D421A",
"L  c #92461D",
"P  c #95491E",
"I  c #9A4B1F",
"U  c #915010",
"Y  c #9B5015",
"T  c #9C521F",
"R  c #A66615",
"E  c #B46919",
"W  c #B77717",
"Q  c #834426",
"!  c #8B4624",
"~  c #8C4A24",
"^  c #82452B",
"/  c #854A2D",
"(  c #8C4D2B",
")  c #954523",
"_  c #944B23",
"`  c #9A4D24",
"'  c #904928",
"]  c #8B522E",
"[  c #8A582A",
"{  c #975023",
"}  c #9D5124",
"|  c #965129",
" . c #9E5128",
".. c #985B29",
"X. c #804731",
"o. c #814832",
"O. c #894E31",
"+. c #804E3B",
"@. c #8E5232",
"#. c #82503D",
"$. c #935531",
"%. c #965832",
"&. c #9D5D32",
"*. c #A15623",
"=. c #A55926",
"-. c #A2542A",
";. c #A3562D",
":. c #A6582F",
">. c #A75B32",
",. c #A85B31",
"<. c #AA5D33",
"1. c #A45F39",
"2. c #9C6F27",
"3. c #93622A",
"4. c #9D682D",
"5. c #9B6331",
"6. c #A4622E",
"7. c #AB672F",
"8. c #AF6A2F",
"9. c #B56029",
"0. c #B56E2F",
"q. c #A17626",
"w. c #A57A26",
"e. c #BB732F",
"r. c #A56231",
"t. c #AA6433",
"y. c #AE6A33",
"u. c #AE6239",
"i. c #B36236",
"p. c #B56E31",
"a. c #B2653C",
"s. c #B4683F",
"d. c #BA7231",
"f. c #C2782F",
"g. c #C07632",
"h. c #C57A31",
"j. c #CA7D31",
"k. c #825442",
"l. c #825645",
"z. c #8C5844",
"x. c #835A4A",
"c. c #805B4D",
"v. c #865D4E",
"b. c #815F51",
"n. c #845F51",
"m. c #836154",
"M. c #B66940",
"N. c #B96D44",
"B. c #BC7047",
"V. c #BE7249",
"C. c #BF734A",
"Z. c #C2764D",
"A. c #C3784F",
"S. c #B89126",
"D. c #DCB518",
"F. c #CD8022",
"G. c #CC8F2D",
"H. c #D0902D",
"J. c #CF8131",
"K. c #D38432",
"L. c #DC8B32",
"P. c #E18F31",
"I. c #E59231",
"U. c #EA9532",
"Y. c #ED9A31",
"T. c #F49C32",
"R. c #E8A624",
"E. c #F3A32F",
"W. c #FCAC2E",
"Q. c #FCBF27",
"!. c #FCB42B",
"~. c #FCBA29",
"^. c #F5A130",
"/. c #FDA332",
"(. c #FCA930",
"). c #EED318",
"_. c #F5DE1A",
"`. c #FDDC1E",
"'. c #FCE41B",
"]. c #FEEB1A",
"[. c #FCC426",
"{. c #FDCD23",
"}. c #FCD320",
/* pixels */
"o.o.o.o.X.s o.o.o.o.o.o.o.o.o.o.o.o.o.o.o.o.o.o.f +.s p X.o.o.o.o.o.o.X.s p p p s o.X.s X.o.o.o.o.o.X.o.o.o.o.o.o.s p s ",
"o.o.X.p p i p s o.o.o.o.o.o.o.o.o.o.o.o.o.o.o.o.v.#.p i i p s s X.X.o.o.o.o.o.s s p i i p o.o.o.o.o.o.o.o.o.o.o.s i p p ",
"o.o.o.p p o.o.s i p p X.o.o.o.o.o.o.o.o.o.o.o.X.n.#.o.s s g i i i i i p p p i i i i i i i s o.o.o.o.o.o.o.o.o.o.X.s o.o.",
"s o.o.s s o.o.o.o.o.X.X.o.o.o.o.o.s p p h f p p b.k.o.o.k.l.i i i i i i i i i i i i i i s o.o.o.o.o.o.o.o.o.o.o.o.o.o.o.",
"s p i i p s o.o.o.o.o.o.o.o.o.o.o.i p s x.+.i i k k s X.k.v.O.O.o.s i i i i i i s s o.o.o.o.o.o.o.o.o.o.o.o.o.o.o.o.o.o.",
"i i i i i p o.o.o.o.o.o.o.o.o.o.o.s o.o.x.l.p p j l s p f m.f X.o.o.o.i i i p O.o.s s X.X.s p p s X.o.o.X.s s o.o.o.o.o.",
"i i i i p s O.o.o.o.o.o.o.o.o.o.o.o.o.o.#.m.o.o.o.m.c.s p c.j p X.o.o.i i i o.o.s i i i i i p s s s s s s s s p s s s s ",
"p s o.o.o.o.o.o.o.o.o.o.o.o.o.o.o.o.o.o.o.n.x.o.o.l.m.f p j j s s p s i i i s o.o.s p s s o.o.o.o.o.s s p i i i i i i i ",
"o.X.s s o.s p p p s o.o.X.s s o.o.o.o.o.o.k.b.y r 6 g 6 # 7 5 @ @ # * 9 6 q r p p i p p s X.o.X.p p i i i i i i i i i p ",
"o.p i i i i i s s s s s s s s s p s s s t r d # - K @.% @ 7 @ @ m * $  .K = ` _ 0 6 p p p p p s s s p p i i i p p s X.o.",
"o.X.p s s o.o.o.o.o.X.s p p i i i r 6 @ @ 5 8 ` -.` w @ K 1.>._ - L K * u.- - a.V._ # t X.o.o.o.o.o.o.o.o.o.o.o.o.o.o.o.",
"z.o.o.o.o.o.o.o.s p i i i i i y 5 @ $ ` P $ m  .Z.>.9 & # _ u.Z.a.m m * L m @ m _ ;.m 5 p p s o.o.o.o.o.o.o.o.o.o.o.o.o.",
"X.o.o.o.o.X.p p X.s i i i i q @ @ @ # m K - $ ` M.Z.A.a.m # K -.V.:.m # m ` -.` K * @ % p s p p p s X.o.o.o.o.o.o.o.o.o.",
"p p p p o.o.X.s o.o.o.s s 8 = m @ @ - V K L 9 # 0 K ` M._ m - K ` - 9 -.i.i.<.;.9 @ @ 8 s o.o.o.s s s o.o.o.o.o.o.s s X.",
"i i i i p p p p o.o.o.o.q = ,.;.$ - :.N.Z.A.,.* & m $ - L - ` K - K -.<.-. . . .` - % r s o.o.o.o.o.o.o.o.o.o.o.s i i p ",
"o.s p i i i p s s o.o.u @ * L $ @ @ $ L _  .-.L # -.;.= = $ ` m K _ `  . .` ! Q p i i i i o.o.o.o.o.o.o.o.X.p p i i i i ",
"o.o.o.o.o.o.o.o.o.o.o.% @ @ @ - K _ = $ & $ - m $ V V.>.m @ $ m L -  . ._ p i i i i i i i s o.o.o.o.o.o.o.X.o.o.o.s p i ",
"o.o.o.o.o.o.o.o.o.o.p @ m # K <.V.a. .- -.;.m m = $  .N. .$ m K $ `  .! i i i i i s X.o.o.o.o.o.o.o.o.o.o.o.o.o.o.o.o.o.",
"o.o.o.o.o.o.o.o.o.o.u @ ` m - K u.V.V.K V N.B.-. .= 9  .L 9 m @ K  .! i i i p o.O.o.o.o.o.s s p X.o.o.o.o.o.o.o.o.o.o.o.",
"o.o.o.o.o.o.o.o.o.o.^ * L a.$ @ $ - m K * ` Z.a. .K $ m K m @ *  ._ o.i i i o.o.s i i p p p s s o.o.o.o.o.o.o.o.o.o.o.o.",
"X.o.o.o.o.o.o.o.o.o.^ ` m u.B.u.<.s.u.m @ $ ` -.` & - K * @ @ P _ p s i i i s o.o.p p p s o.o.o.o.o.s p p o.o.o.o.o.o.o.",
"s s o.o.o.o.o.o.X.X.o.`  ._ ` ,.,.,.;.L - @ * m 9 m * @ @ @ m _ p a p p p p p p p p s o.o.o.o.o.o.p i p s p p s X.o.o.o.",
"o.o.o.o.o.o.o.s p i p ^ `  .` K m * # $ $ $ * $ @ @ @ @ @ = Q i [ w.i p s o.o.o.s p p p p p p X.o.o.p X.o.o.s s s s o.o.",
"o.o.o.o.o.o.o.s p s o.o.o.( K K m - @ @ @ @ @ @ @ @ # q y i i i 3.w.i p X.o.o.o.o.o.o.X.s o.o.X.s p p s o.o.o.o.o.o.o.o.",
"o.o.o.o.o.o.o.o.o.o.o.o.o.o.o.p w 8 % % % % 8 w t p o.p i i i p ] ] p i i p p p p p s s s p p i i i i p o.o.o.o.o.o.o.o.",
"o.o.o.o.o.o.o.o.o.o.o.o.o.o.o.o.o.o.X.s o.o.o.o.X.o.s i i i p X.o.o.3.s i i i i i i i i i i i i i i i i o.o.o.o.o.o.o.o.",
"o.o.o.o.o.o.o.o.o.o.o.o.o.s p p p p i i i p p p i i i i i i i p o.o.S.o.o.@./ i i i i i i i i i p s s o.O.o.o.o.o.o.o.o.",
"p p p p p s o.o.o.o.o.s p i i i i i i i i i i i i i i i i i i / 6.p ..o.X.&.y.O.o.p i i i i o.o.o.o.o.o.o.s s o.o.o.o.o.",
"o.o.o.s p p i p p p p i i i i i i i i i i i i i i i p i i p i ( e.p 6.p i 0.t.o.o.o.i i i o.o.s p p p p i i i p p s p p ",
"s p i i i i i i i i i p p p p p X.o.X.s s p p p p p 3./ p p p p O.o.d.J.o.h.&.X.o.s i i i o.o.X.p i p p s o.o.o.o.o.o.o.",
"i i i i i i i i p i p s X.s p i i p p s s s s X.X.X.s p p i i p O.t.p./.g.p.$.o.o.s p p i s o.o.X.X.o.o.o.o.o.X.s p p i ",
"p p p p s s s p o.o.s p X.o.X.s i i i i i i i i i i p i i ] j.T.T.y.H./.T.r.%.&.o.o.o.o.X.o.o.o.o.o.o.o.o.o.s p i i i i ",
"s s s s o.s p s o.s i p s o.o.o.o.s i i i i i i i i q.a / I.j.G.5.%.T././.J.o.j.O.o.o.o.o.o.o.o.o.o.o.o.o.o.o.o.o.o.s p ",
"s s s p p i i i s p i i i p s o.o.o.O.O.o.s i i i i 2.O.t.%.o.4.y.U././.W.Y.@.I.&.o.o.o.o.o.o.o.o.X.s s s s p p p p p s ",
"i i i i i i i i i o.p p i i i p p p p o.o.o.p i i p O.o.o.$.d.I./././././.E.r.T.g.p o.o.o.o.o.o.s p i i i i i i i i i i ",
"i i i i i i p s o.o.o.o.o.s s s s s s s o.o.p i i s $.d.L.^./.(././././.!.Y.d./.L.o.p p p s s p i i i i i i i i i i i i ",
"i i i s o.o.o.o.o.o.o.o.o.o.o.o.o.o.o.o.o.o.p i p d.Y././.W././././././.Q.I.Y.W.L.p i i i i i i i i p i p p p i p p p i ",
"i p o.o.s p s s p p i p p s s s p p o.o.o.o.o.O.K././././././././.~././.!.T.~.!.J.p i i i i p i i i i i p p s s o.o.o.o.",
"i s o.o.p i i i p s o.o.o.o.o.o.o.s p p / o.s d./././././././././././././.W.}.(.&.p i i p p s s s s s o.o.o.o.o.o.o.o.o.",
"i p o.o.o.s s X.o.o.o.o.X.s p p i i i i p f.( U./././.~./.}./././.!./././.[.!.e.p i i i p s o.o.o.o.o.o.o.o.o.o.o.o.o.o.",
"s s X.o.o.o.s p o.o.X.p i i i i i i i i i P.K././.[.`.~.{.`.W././.}./././.~.K.o.s p p o.o.p i p s X.o.o.o.o.o.o.o.o.o.o.",
"p p s s o.o.s s o.o.o.o.s s p p p p p p / /././.[.}.(.W.~.Q.}./.~.].W././.Y.$.o.X.s X.o.o.o.o.o.X.o.o.o.o.o.o.s p s p p ",
"o.o.X.s p i i p s o.o.o.o.o.o.o.o.o.o.o.] /././.[././.(.{.'.~.(.`.].~././.K.$.] i i p X.o.o.o.o.o.o.o.o.o.o.s i p s s s ",
"p p i i i i i i p o.o.o.o.o.o.o.o.o.o.o.%./././.W./.!.`.'.~.W.}.].].~././.p.0.8.i i i p o.o.o.o.o.o.o.o.o.o.o.s o.o.o.o.",
"i i i i i i i p s O.s p s o.o.o.o.o.o.o.O././././.W.'.'.W.~.`.].].].W.~./.h.U.h.i p p o.O.o.o.o.o.o.o.o.o.o.o.o.o.o.o.o.",
"i i i p s o.o.X.s i i i i i p X.o.o.o.o.p I./././.[.].{.[.'.].].].{.W.Q./.T./.7.i i i p s o.o.o.o.o.o.o.o.o.o.o.o.o.o.o.",
"i i o.o.X.s X.X.o.o.s p i i i i s X.o.o.s 6././.W.}.].`.].].].].`.W././././.U.@.p i i i i p X.X.o.o.X.s s o.o.o.o.o.o.s ",
"i s o.o.s o.o.o.o.o.o.o.o.X.o.o.o.o.o.o.o.o.d./.Q.'.].].].].].'.~.[./.W./.E.t.o.o.o.X.o.o.o.o.o.o.X.s p p s s p s o.s i ",
"i p o.o.o.o.o.o.o.o.o.o.o.o.o.o.o.X.X.X.p t J 9.W.'.].].].].].'.`.`.[.[.T.t.o.o.o.o.o.o.o.o.o.o.o.o.o.o.s i i p X.o.o.s ",
"f s o.o.o.o.o.o.o.o.o.o.o.o.o.o._ I n n n n n x S R.'.].].].].].].'.'.F.< 1 3 3 3 4 N _ o.o.o.o.o.o.o.o.o.p p X.o.o.o.o.",
"o.o.o.X.s p s o.o.o.o.o.o.o.o.o.} { , + + O + z x , W ).'.].].'._.D.Y   o 1 D G H F ) | o.o.o.o.o.o.o.o.o.s o.o.o.o.s o.",
"o.o.o.i i p p p s s o.o.o.o.o.o.{ P , z c c c O . O + O } E R U < + O , , + O o 3 Q / o.o.o.o.o.o.o.o.o.o.o.o.o.o.s i X.",
"s o.o.s p o.o.o.s p p s o.o.o.o.{ T M + z + o 1 O + c   H , z o z O + O + b c b L T T o.o.o.o.o.o.o.o.o.o.o.o.o.o.s i o.",
"o.s s p s o.o.o.o.o.o.o.o.o.o.X.} } P , o 3 D 2 v c + ; b z c X b + 2 x O O b B } T { o.o.o.s p p p p p p s o.o.o.o.p o.",
"p i i i i s o.o.o.o.o.o.o.o.o.o.{ } V : ! b 2 D x c . e n z c . v c ; G b L ! ) T { / o.o.o.p p s o.o.o.o.X.o.o.o.o.p o.",
"i i i i i i O.o.o.o.o.o.X.s o.o.( _ p i } C t I L >   t A M Z > 2 b > X.' { / o./ / o.o.o.o.o.o.o.o.o.o.o.o.o.o.o.o.X.s ",
"i i i s s o.o.o.o.o.o.s i i p X.o.o.o.o./ ^ p ~ } P e ~ =.=.=.T V ` *.( o.o.o.o.o.o.o.o.o.o.o.o.o.o.o.o.o.o.o.o.o.X.o.o.",
"o.o.o.o.o.o.o.X.X.o.o.s i i i i p s o.o.o.o.O.o.p p i Q } =.*.*.T ( ( o.X.X.o.o.o.o.o.o.o.o.o.o.o.o.o.X.s s s p p i i p ",
"o.p p p s p p i i p s s p p p i i i p i p s o.o.s i i i O.( ( ( ^ p p p i i p s s s p p X.o.o.o.o.o.s p i i i i i i i i ",
"o.p i i p p s o.o.o.o.o.o.s p p p p p p p p p s s i i p o.o.s i i p p s X.o.o.o.o.o.X.s p p p p p p i i i i i i i i i i "
};
