/* XPM */
static char *_e7463adb6ec42dbe54b3b9967ea2146JKtTu7O4RjL3VfLN[] = {
/* columns rows colors chars-per-pixel */
"60 60 184 2 ",
"   c #66150E",
".  c #6C170F",
"X  c #66180F",
"o  c #6F180F",
"O  c #671911",
"+  c #6C1A11",
"@  c #731B11",
"#  c #7B1E14",
"$  c #662400",
"%  c #692702",
"&  c #6C2905",
"*  c #6B2C0B",
"=  c #702C07",
"-  c #732E09",
";  c #75310C",
":  c #7A340E",
">  c #6C2F11",
",  c #6D251A",
"<  c #6F2B1D",
"1  c #742114",
"2  c #7C2214",
"3  c #742419",
"4  c #782518",
"5  c #7A2B1C",
"6  c #6D3114",
"7  c #6E3519",
"8  c #6E381B",
"9  c #713214",
"0  c #7E3710",
"q  c #7F3913",
"w  c #73361A",
"e  c #7A3B1D",
"r  c #763121",
"t  c #7A3222",
"y  c #743C24",
"u  c #7B3C25",
"i  c #773F2A",
"p  c #7A3B29",
"a  c #7B4027",
"s  c #77412D",
"d  c #7A432E",
"f  c #7E4A2B",
"g  c #7E4631",
"h  c #764834",
"j  c #7D4834",
"k  c #764D39",
"l  c #7C4D3B",
"z  c #7E513F",
"x  c #7D5443",
"c  c #7D594B",
"v  c #7F5F53",
"b  c #832216",
"n  c #832717",
"m  c #8B2519",
"M  c #85281B",
"N  c #8E2A1C",
"B  c #912A1C",
"V  c #833316",
"C  c #893217",
"Z  c #833B14",
"A  c #883F17",
"S  c #8F341A",
"D  c #8A3E19",
"F  c #91321A",
"G  c #943D1F",
"H  c #863524",
"J  c #8A3222",
"K  c #853A27",
"L  c #893D26",
"P  c #85401A",
"I  c #8C411A",
"U  c #92461D",
"Y  c #94481F",
"T  c #9A491F",
"R  c #9C531E",
"E  c #A84D1D",
"W  c #B77D18",
"Q  c #834223",
"!  c #8C4524",
"~  c #8B4A24",
"^  c #81452B",
"/  c #8F4528",
"(  c #844A2D",
")  c #8A4C2B",
"_  c #944B21",
"`  c #9A4D24",
"'  c #934E29",
"]  c #84512B",
"[  c #8C512E",
"{  c #8F5F2A",
"}  c #965126",
"|  c #9E5125",
" . c #93542E",
".. c #9C5229",
"X. c #915B2E",
"o. c #9A5A2E",
"O. c #804731",
"+. c #814832",
"@. c #894E32",
"#. c #824D39",
"$. c #8E5231",
"%. c #81513F",
"&. c #925533",
"*. c #975933",
"=. c #9B5B32",
"-. c #A15624",
";. c #A55927",
":. c #A1542A",
">. c #A5592F",
",. c #A45C2F",
"<. c #A9592E",
"1. c #A95C33",
"2. c #AA5D33",
"3. c #AE5E32",
"4. c #AB5E34",
"5. c #9C6B27",
"6. c #936429",
"7. c #9B6C2A",
"8. c #A5622E",
"9. c #AA662F",
"0. c #BE6722",
"q. c #BF672A",
"w. c #B36C2F",
"e. c #BB732F",
"r. c #A46131",
"t. c #AB6333",
"y. c #AE6932",
"u. c #B36235",
"i. c #B36C33",
"p. c #B1643B",
"a. c #B2663C",
"s. c #B4683F",
"d. c #B77030",
"f. c #BC7331",
"g. c #C17731",
"h. c #C57A31",
"j. c #CA7D31",
"k. c #835442",
"l. c #835847",
"z. c #8C5844",
"x. c #815C4E",
"c. c #825E51",
"v. c #845E50",
"b. c #836154",
"n. c #856255",
"m. c #B66A40",
"M. c #B96D44",
"N. c #BB7046",
"B. c #BE7349",
"V. c #C1754C",
"C. c #C3784F",
"Z. c #C67B52",
"A. c #BB8C14",
"S. c #AC8224",
"D. c #B18628",
"F. c #C08E16",
"G. c #C3831A",
"H. c #E7BF1B",
"J. c #CE8030",
"K. c #D48531",
"L. c #DB8A31",
"P. c #EA902E",
"I. c #F1992E",
"U. c #E18E31",
"Y. c #E59232",
"T. c #EB9632",
"R. c #EF9932",
"E. c #F39B32",
"W. c #F89F32",
"Q. c #F5A92D",
"!. c #FCAC2E",
"~. c #FCBE27",
"^. c #FCB32C",
"/. c #FCBB29",
"(. c #FCA333",
"). c #FDA830",
"_. c #FCD51F",
"`. c #FDDD1D",
"'. c #FDE41B",
"]. c #FEEB1A",
"[. c #FCC326",
"{. c #FDCA24",
"}. c #FCC028",
"|. c #FDD421",
/* pixels */
"+.+.+.+.O.g +.+.+.+.+.+.+.+.+.+.+.+.+.+.+.+.+.+.j %.g d O.+.+.+.+.+.+.O.g d d d g +.O.g O.+.+.+.+.+.O.+.+.+.+.+.+.g d g ",
"+.+.O.d d s d g +.+.+.+.+.+.+.+.+.+.+.+.+.+.+.+.l.k.d s s d g g O.O.+.+.+.+.+.g g d s s d +.+.+.+.+.+.+.+.+.+.+.g s d d ",
"+.+.+.d d +.+.g s d d O.+.+.+.+.+.+.+.+.+.+.+.O.v.k.+.g d l s s s s s d d d s s s s s s s g +.+.+.+.+.+.+.+.+.+.O.g +.+.",
"g +.+.g g +.+.+.+.+.O.O.+.+.+.+.+.g d d x g d d c.l.+.+.#.c.s s s s s s s s s s s s s s j +.#.+.+.+.+.+.+.+.+.+.+.+.+.+.",
"g d s s d g +.+.+.+.+.+.+.+.+.+.+.s d g c.j s s c c g O.#.n.#.#.#.g s s s s s s g g +.+.+.+.+.+.+.+.+.+.+.+.+.+.+.+.+.+.",
"s s s s s d #.+.+.+.+.+.+.+.+.+.+.g +.+.b.%.d d x v h d g c.z O.+.+.+.s s s d #.+.g g O.O.g d d g O.+.+.O.g g +.+.+.+.+.",
"s s s s d g #.+.+.+.+.+.+.+.+.+.+.+.+.+.l.x.+.+.#.b.x.g d x x.d O.+.+.s s s +.+.g s s s s s d g g g g g g g g d g g g g ",
"d g +.+.+.+.+.+.+.+.+.+.+.+.+.+.+.+.+.+.#.n.k.+.+.l.n.l d l b.g g d g s s s g +.+.g d g g +.+.+.+.+.g g d s s s s s s s ",
"#.O.g g +.g d d d g +.+.O.g g +.+.+.+.+.+.x.x.s s d c h 7 7 k > 6 6 6 w w y y d d s d d g O.+.O.d d s s s s s s s s s d ",
"+.d s s s s s g g g g g g g g g d g g g g l x > * ; ( 7 $ * 8 $ % % $ A _ % : A q w y d d d d g g g d d s s s d d g O.+.",
"+.O.d g g +.+.+.+.+.O.g d d s s s s y 6 & 7 8 A ` | ~ * - Q P 0 : _ A & ` ..& U p.2.: * d +.+.+.+.+.+.+.+.+.+.+.+.+.+.+.",
"z.+.+.+.+.+.+.+.g d s s s s s s 7 & & 0 - 6 A | s.| ; $ - :.B.Z.s.A A _ - 2.Z & 2.M.2.: * d g +.+.+.+.+.+.+.+.+.+.+.+.+.",
"O.+.+.+.+.O.d d O.g s s s s y & $ $ 0 | | : : | C.V.s.` : & U >.V.m._ : % Z Z Z A A A ; & g d d d g O.+.+.+.+.+.+.+.+.+.",
"d d d d +.+.O.g +.+.+.g g 6 $ % $ $ $ & : : $ Z ..t.a.B.>.= - U :.4.A - I <.3.3.<.I & $ * +.+.+.g g g +.+.+.+.+.+.g g O.",
"s s s s d d d d +.+.+.+.6 Z >.A $ Z :.m.s.2.U $ $ - Z Y >.= ` - ` : Z :.u.3.:.:.| A $ $ 9 +.+.+.+.+.+.+.+.+.+.+.g s s d ",
"+.g d s s s d g g +.+.w $ ` >.: $ : U 2.p.M.2.q & ` Z % A - ` ` Z I | 3.:.| | | ` _ e 7 i +.+.+.+.+.+.+.+.O.d d s s s s ",
"+.+.+.+.+.+.+.+.+.+.d $ $ Z & $ & = & : Z U ` ` % Y m._ % & Z Z Z _ Z | | ` ! a s s s s s g #.+.+.+.+.+.+.O.+.+.+.g d s ",
"+.+.+.+.+.+.+.+.+.+.9 $ $ $ 0 _ :.` - Z 0 & $ = % ; p.B.` - $ : _ = _ | ` ^ s s s j O.+.#.#.+.+.+.+.+.+.+.+.+.+.+.+.+.+.",
"+.+.+.+.+.+.+.+.+.+.* Z Z 0 | M.Z.m.` : :.p...Y A $ I p.:.: : U % I | ` a s d +.#.+.+.+.+.g g d O.+.+.+.+.+.+.+.+.+.+.+.",
"+.+.+.+.+.+.+.+.+.+.& A ` & ; I 4.m.a.A A m.C.>.| Z & | Y : I $ - | _ a s s +.+.g s s d d d g g +.+.+.+.+.+.+.+.+.+.+.+.",
"O.+.+.+.+.+.+.+.+.+.I : s...& & = : : q & _ M.a.| U $ A I A $ $ Y ` ^ s s s g +.+.d d d g +.+.+.+.+.g d d +.+.+.+.+.+.+.",
"g g +.+.+.+.+.+.O.O.` Y _ M.V.M.M.N.p.A % & ` | _ & : I : $ $ Z ` d d d d d d d d d g +.+.+.+.+.+.d s d j d d g O.+.+.+.",
"+.+.+.+.+.+.+.g d s ( | ` U ` :.:._ U I & $ & 0 : Z = $ $ $ - ` ^ s s d g +.+.+.g d d d d d d O.+.+.d O.+.+.g g g g +.+.",
"+.+.+.+.+.+.+.g d g +.' | | ` A 0 = & & & % % $ $ $ $ $ $ * Q S.d d s d O.+.+.+.+.+.+.O.g +.+.O.g d d g +.+.+.+.+.+.+.+.",
"+.+.+.+.+.+.+.+.+.+.+.+.^ ! I A q = $ $ $ $ $ $ $ $ * 6 y s s { +.g d s s d d d d d g g g d d s s s s d +.+.+.+.+.+.+.+.",
"+.+.+.+.+.+.+.+.+.+.+.+.+.+.O.u w 9 * * * * 9 w u 5.[ s s s d O.+.+.O.g s s s s s s s s s s s s s s s s +.+.+.+.+.+.+.+.",
"+.+.+.+.+.+.+.+.+.+.+.+.+.g d d d d s s s d d d s s s s d d d d +.@.+.+.&.g d s s s s s s s s s d g g +.#.+.+.+.+.+.+.+.",
"d d d d d g +.+.+.+.+.g d s s s s s s s s s s s s s 7.d ) 8.6.6.[ 9.g +.r.@.#.#.#.d s s s s +.#.#.+.+.+.+.g g +.+.+.+.+.",
"+.+.+.g d d s d d d d s s s s s s s s s s s s s s d f s w.h.] ( w.e.s d L.^ g +.+.+.s s s +.+.g d d d d s s s d d g d d ",
"g d s s s s s s s s s d d d d d O.+.O.g g d d d d e.s d K.9.d  .R.i.+.t.L.X.g O.+.g s s s +.+.O.d s d d g +.+.#.+.+.+.+.",
"s s s s s s s s d s d g O.g d s s d d g g g g O.+.E.@.( K.d o.T.(.r.X.h.h.D.+.+.+.g d d s g +.+.O.O.+.+.+.+.+.O.g d d s ",
"d d d d g g g d +.#.g d O.+.O.g s s s s s s d d d (.J.^ ( 9.E.^.Q.i.&.i.*.7.+.@.+.+.+.+.O.+.+.+.+.+.+.+.+.+.g d s s s s ",
"g g g g +.g d g +.g s d g +.+.+.+.g s s d s o.9.d (.(.j. .E.(.(.R.i.i.@.@.+.+.=.+.+.+.+.+.+.+.+.+.+.+.+.+.+.+.+.+.+.g d ",
"g g g d d s s s g d s s s d g +.+.+.#.#.*.g ( 9.s L.(.(.T.(.(.(.(.f.j.=.r.+.+.@.+.+.+.+.+.+.+.+.+.O.g g g g d d d d d g ",
"s s s s s s s s s #.d d s s s d d d d +.i.=.,.d s h.(.(.(.!.(.(.(.w.) U.=.g g g d d +.+.+.+.+.+.g d s s s s s s s s s s ",
"s s s s s s d g +.#.+.+.+.g g g g g g g f.f.g.w.s g.(.(.(.(.(.(.(.K.y.(.=.g $.+.+.g d d d g g d s s s s s s s s s s s s ",
"s s s g +.+.+.+.+.+.+.+.+.+.+.+.+.+.+.+.f.h.f.(.U.L.(.(.(.(.(.).).Y.U.(.y.$.f.d s s s s s s s s s s d s d d d s d d d s ",
"s d #.+.g d g g d d s d d g g g d d +.+.f.g.&.W.(.(.(.(.(.(.(./.^.E.E.(.j.w.[ s s s s s s s d s s s s s d d g g +.+.+.+.",
"s j +.+.d s s s d g +.+.+.+.+.+.+.g d d r.t.g j.(.(.[.).(.).^./.^.(.(.(.E. .[ d d d s s d d g g g g g +.+.+.+.+.+.+.+.+.",
"s d +.+.+.g g O.+.+.+.+.O.g d d s s s s d [ 8.9.(.(.[.}.~.[./.(.(.(.(.(.(.8.T.) s s s s d g +.+.+.+.+.+.+.+.+.+.+.+.+.+.",
"g g O.+.+.+.g d +.+.O.d s s s s s s s s s w.g.f.(.(.^.^.`._./.(./.^.).(.(.L.(.f.g d d +.+.d s d g O.+.+.+.+.+.+.+.+.+.+.",
"d d g g +.+.g g +.+.+.+.g g d d d d d d d K.W.(.(.(.!./.'.].[./.{.^.!.(.(.W.(.K.O.g O.+.+.+.+.+.O.+.+.+.+.+.+.g d g d d ",
"+.+.O.g d s s d g +.+.+.+.+.+.+.+.+.+.+.s K.(.(.(.^.^._.].].'.`.|.!.[.(.(.(.(.K.s s d O.+.+.+.+.+.+.+.+.+.+.g s d g g g ",
"d d s s s s s s d #.+.+.+.+.+.+.+.+.+.+.g h.(.(.(./.^.'.].].].].'.[.|.(.(.(.(.j.s s s d #.+.+.+.+.+.+.+.+.+.+.g +.+.+.+.",
"s s s s s s s d g #.g d g +.+.+.+.+.+.+.g 9.(.(.(.!.!._.].].].].]._.'.!.(.(.(.d.s d d +.#.+.+.+.+.+.+.+.+.+.+.+.+.+.+.+.",
"s s s d g +.+.O.g s s s s s d O.+.+.+.+.d ( T.(.(.{.`.`.].].].].].].]./.(.(.(.[ s s s d g +.+.+.+.+.+.+.+.+.+.+.+.+.+.+.",
"s s +.#.O.g O.O.+.+.g d s s s s g O.+.+.g d 9.(.(.{.].].].].].].].].].[.(.(.L.O.d s s s s d O.O.+.+.O.g g +.+.+.+.+.+.g ",
"s j +.+.g +.+.+.+.+.+.+.+.O.+.+.+.+.O.d p p K q.(./.].].].].].].].].].^.(.E.&.+.+.+.O.+.+.+.+.+.+.O.g d d g g d g +.g s ",
"s d +.+.+.+.+.+.+.+.+.+.+.+.+.( } G B N N N N b E I.`.].].].].].].].`.).P.D < r r t 5 _ ( +.+.+.+.+.+.+.g s s d O.+.+.g ",
"j g +.+.+.+.+.+.+.+.+.+.+.+.+.' -.D # # @ @ # m b n 0.H.].].].].].'.Q.0.1 4 t K H J F -.( +.+.+.+.+.+.+.+.d d O.+.+.+.+.",
"+.+.+.O.g d g +.+.+.+.+.+.+.+.) R V # m m N m @ . @ # 1 ` G.F.A.W E 2 b # # @ X , u ) @.+.+.+.+.+.+.+.+.+.g +.+.+.+.g +.",
"+.+.+.s s d d d g g +.+.+.+.+.) | R 1 # b @ + 5 @ # N O J 2 # + b + # o # B N B S R R ) +.+.+.+.+.+.+.+.+.+.+.+.+.g s O.",
"g +.+.g d +.#.+.j d d g +.+.+.) | R F # + r J 1 M m @ < N # m O N 2 2 m @ + N n | R R ) +.+.+.+.+.+.+.+.+.+.+.+.+.g s +.",
"+.g g d g +.+.+.+.+.+.+.+.+.+.) | R 3 r L m 4 J b N   t N b m   n N 3 H m D ! L R | _ +.+.+.g d d d d d d g +.+.+.+.d +.",
"d s s s s g +.+.+.+.+.+.+.+.+.( _ ~ i ( -.5 Q T S @ O K F C S @ 4 N @ d / | ) +.) ) +.+.+.+.d d g +.+.+.+.O.+.+.+.+.d +.",
"s s s s s s #.+.+.+.+.+.O.g +.+.+.g d d ~ a a } -.I < _ -.-.-.Y V U | ' +.@.+.+.+.+.+.+.+.+.+.+.+.+.+.+.+.+.+.+.+.+.O.g ",
"s s s g g +.#.+.+.+.+.g s s d O.+.+.+.+.g d s d ^ a s ~ -.;.-.-.R ' } @.+.+.+.+.+.+.+.+.+.+.+.+.+.+.+.+.+.+.+.+.+.O.+.#.",
"+.#.#.+.+.+.+.O.O.+.+.g s s s s d g +.+.#.#.#.+.s s s d ^  ...} ) +.+.+.O.O.+.+.+.+.+.+.+.+.+.+.+.+.+.O.g g g d d s s d ",
"+.d d d g d d s s d g g d d d s s s d s d g +.+.g s s s #.+.g d d d d d s s d g g g d d O.+.+.+.+.+.g d s s s s s s s s ",
"+.d s s d d g +.+.#.+.+.+.g d d d d d d d d d g g s s d +.+.g s s d d g O.+.+.+.+.+.O.g d d d d d d s s s s s s s s s s "
};
