/* XPM */
static char *_5f0f04edfdb4066bbc2050fe0a223e5tcO6QVkBUIw1NYtA[] = {
/* columns rows colors chars-per-pixel */
"60 60 188 2 ",
"   c #65150E",
".  c #6B160F",
"X  c #6E180F",
"o  c #70180F",
"O  c #6A1C13",
"+  c #731B11",
"@  c #7B1E13",
"#  c #662400",
"$  c #692602",
"%  c #6D2905",
"&  c #6B2D0D",
"*  c #712C07",
"=  c #732E09",
"-  c #6A300F",
";  c #76310B",
":  c #7B340E",
">  c #6D2015",
",  c #6D2F11",
"<  c #6D2418",
"1  c #742112",
"2  c #7C2216",
"3  c #7D2C14",
"4  c #752519",
"5  c #7A2619",
"6  c #752E1F",
"7  c #7D2C1D",
"8  c #6E3114",
"9  c #6F3419",
"0  c #6F381A",
"q  c #733313",
"w  c #7E3511",
"e  c #7E3812",
"r  c #72361B",
"t  c #74391D",
"y  c #7A3C18",
"u  c #743021",
"i  c #7C3422",
"p  c #733D24",
"a  c #793D24",
"s  c #753E28",
"d  c #7D3D29",
"f  c #7D4026",
"g  c #77412D",
"h  c #7A432E",
"j  c #7E4631",
"k  c #754B36",
"l  c #7E4935",
"z  c #7C4D3B",
"x  c #7D5241",
"c  c #7F5F53",
"v  c #842317",
"b  c #852C17",
"n  c #882917",
"m  c #842518",
"M  c #8B2619",
"N  c #852A1C",
"B  c #8B2A1A",
"V  c #91291B",
"C  c #843616",
"Z  c #833B14",
"A  c #8A3F16",
"S  c #8C351E",
"D  c #863F18",
"F  c #893F18",
"G  c #91351D",
"H  c #822F20",
"J  c #853323",
"K  c #8D3322",
"L  c #8A3C27",
"P  c #893F28",
"I  c #8D431B",
"U  c #92451D",
"Y  c #94491F",
"T  c #9B4C1F",
"R  c #97501F",
"E  c #9D531F",
"W  c #A26015",
"Q  c #844324",
"!  c #8B4525",
"~  c #8E4C26",
"^  c #83452A",
"/  c #844A2D",
"(  c #8A4B2B",
")  c #944B21",
"_  c #9B4D24",
"`  c #934F29",
"'  c #8E522D",
"]  c #8D5B2A",
"[  c #965125",
"{  c #9E5125",
"}  c #92532D",
"|  c #9F522A",
" . c #9A5B2E",
".. c #804731",
"X. c #814832",
"o. c #894D31",
"O. c #824E3A",
"+. c #8C5232",
"@. c #82503C",
"#. c #925531",
"$. c #9C5A31",
"%. c #AE4C22",
"&. c #A15524",
"*. c #A45826",
"=. c #A15329",
"-. c #A2562D",
";. c #A5582E",
":. c #AA5A2F",
">. c #A25D30",
",. c #A95D33",
"<. c #AF5F33",
"1. c #AA5E34",
"2. c #B05F33",
"3. c #92612C",
"4. c #9A6631",
"5. c #A4622F",
"6. c #AB672F",
"7. c #AF692F",
"8. c #B36D2F",
"9. c #A77A2A",
"0. c #B7702F",
"q. c #BA712F",
"w. c #A46132",
"e. c #AB6334",
"r. c #AE6037",
"t. c #AF6931",
"y. c #AE6139",
"u. c #B46336",
"i. c #B36D31",
"p. c #B2663C",
"a. c #B5693F",
"s. c #BE7431",
"d. c #C37021",
"f. c #C1772F",
"g. c #D27D2A",
"h. c #C17631",
"j. c #C57A30",
"k. c #C97C31",
"l. c #825443",
"z. c #895845",
"x. c #82594A",
"c. c #815D4F",
"v. c #845D4E",
"b. c #815F51",
"n. c #846255",
"m. c #B76A41",
"M. c #B96E45",
"N. c #BC7047",
"B. c #BE7249",
"V. c #C0744B",
"C. c #C1764D",
"Z. c #C47950",
"A. c #BA8815",
"S. c #AB8224",
"D. c #B08824",
"F. c #BB9228",
"G. c #C89C1A",
"H. c #DFBF16",
"J. c #DFBC1B",
"K. c #DC9A2B",
"L. c #CF8132",
"P. c #D58632",
"I. c #D88731",
"U. c #DB8931",
"Y. c #E39032",
"T. c #EA9532",
"R. c #F39C32",
"E. c #F89F32",
"W. c #EDA02E",
"Q. c #F1A32A",
"!. c #FCA72F",
"~. c #FCAB2F",
"^. c #FCBE27",
"/. c #FCB52B",
"(. c #FCBA29",
"). c #F7A330",
"_. c #FDA333",
"`. c #FCA930",
"'. c #E1C317",
"]. c #F2D719",
"[. c #FCD61F",
"{. c #F1D918",
"}. c #FDDD1E",
"|. c #FDE41B",
" X c #FEEB1A",
".X c #FCC326",
"XX c #FDCB24",
"oX c #FDD420",
/* pixels */
"X.X.X.X...j X.X.X.X.X.X.X.X.X.X.X.X.X.X.X.X.X.X.j l.j h ..X.X.X.X.X.X...j h h h j X...j ..X.X.X.X.X...X.X.X.X.X.X.j h j ",
"X.X...h h g h j X.X.X.X.X.X.X.X.X.X.X.X.X.X.X.X.z.l.h g g h j j ....X.X.X.X.X.j j h g g h X.X.X.X.X.X.X.X.X.X.X.j g h h ",
"X.X.X.h h X.X.j g h h ..X.X.X.X.X.X.X.X.X.X.X...v.l.X.j h x g g g g g h h h g g g g g g g j X.X.X.X.X.X.X.X.X.X...j X.X.",
"j X.X.j j X.X.X.X.X.....X.X.X.X.X.j h h z z h h x.x.X.X.O.c.g g g g g g g g g g g g g g j X.X.X.X.X.X.X.X.X.X.X.X.X.X.X.",
"j h g g h j X.X.X.X.X.X.X.X.X.X.X.g h j x.O.g g x b.j ..O.n.O.o.X.j g g g g g g j j X.X.X.X.X.X.X.X.X.X.X.X.X.X.X.X.X.X.",
"g g g g g h X.X.X.X.X.X.X.X.X.X.X.j X.X.x.x.h h z c z h h c.x ..X.X.X.g g g h o.X.j j ....j h h j ..X.X...j j X.X.X.X.X.",
"g g g g h j o.X.X.X.X.X.X.X.X.X.X.X.X.X.O.n.O.X.X.b.b.j h x c.h ..X.X.g g g X.X.j g g g g g h j j j j j j j j h j j j j ",
"h j X.X.X.X.X.X.X.X.X.X.X.X.X.X.X.X.X.X.X.v.v.X.X.@.n.x h l b.j j h j g g g j X.X.j h j j X.X.X.X.X.j j h g g g g g g g ",
"X...j j X.j h h h j X.X...j j X.X.X.X.X.X.l.n.g p r k p % & p # # # $ e q 8 t s g g h h j ..X...h h g g g g g g g g g h ",
"X.h g g g g g j j j j j j j j j h j j j a p k # : I } 0 # & - # ; : # D -.% U _ I q r h h h h j j j h h g g g h h j ..X.",
"X...h j j X.X.X.X.X...j h h g g g s 8 # # & r Y =.{ y & e $.1.-.Z D ) * ) -.% I C.a.Z & h X.X.X.X.X.X.X.X.X.X.X.X.X.X.X.",
"z.X.X.X.X.X.X.X.j h g g g g g s , # % ) ) * e { V.r.D = # D r.N.B._ : D ; ) * * I | =.% t h j X.X.X.X.X.X.X.X.X.X.X.X.X.",
"..X.X.X.X...h h ..j g g g g 9 # # # $ Z I e $ ) p.C.Z.m.U # : _ a.m._ % ; I =.=.) D % # r j h h h j ..X.X.X.X.X.X.X.X.X.",
"h h h h X.X...j X.X.X.j h , : e # $ : D I U Z # : I ) r.r.; F : { I * Y 2.u.<.:.=.$ # # a X.X.X.j j j X.X.X.X.X.X.j j ..",
"g g g g h h h h X.X.X.X.8 e 1.| % : ;.M.V.Z.1.: $ A * * ) * { F I : _ <.:.{ { { { ) % & h X.X.X.X.X.X.X.X.X.X.X.j g g h ",
"X.j h g g g h j j X.X.t # : U % # # % U ) { -._ $ ) 1.Z % * U U : _ U =.{ { ) ^ f h g g g X.X.X.X.X.X.X.X...h h g g g g ",
"X.X.X.X.X.X.X.X.X.X...$ # # # : I ) ; % * % ; Z * e m.a.I $ % = _ : ) { _ Q g g g g g g g j X.X.X.X.X.X.X...X.X.X.j h g ",
"X.X.X.X.X.X.X.X.X.X.a $ A $ U r.B.p.{ : =.>.A Z : # Y M.=.e * Y % I { _ f g g g g j ..X.X.X.X.X.X.X.X.X.X.X.X.X.X.X.X.X.",
"X.X.X.X.X.X.X.X.X.X.t % { : : U y.B.B.I D m.B.;.{ Z * { _ = U % = { _ f g g h X.o.X.X.X.X.j j h ..X.X.X.X.X.X.X.X.X.X.X.",
"X.X.X.X.X.X.X.X.X.X.! % | ,.% # % : D I * ) B.M.{ ) # F A I $ # Y _ ^ g g g X.X.j g g h h h j j X.X.X.X.X.X.X.X.X.X.X.X.",
"..X.X.X.X.X.X.X.X.X.( ) D m.M.1.r.a.y.D $ $ _ =._ : * I : # # Z _ ^ j g g g j X.X.h h h j X.X.X.X.X.j h h X.X.X.X.X.X.X.",
"j j X.X.X.X.X.X.....X._ _ U { ,.,.,.-.U : # % D Z Z : # # # * _ ^ g h h h h h h h h j X.X.X.X.X.X.h g h j h h j ..X.X.X.",
"X.X.X.X.X.X.X.j h g h / _ { _ I Z * $ % % % * % # # # # # % Q g g g g h j X.X.X.j h h h h h h ..X.X.h ..X.X.j j j j X.X.",
"X.X.X.X.X.X.X.j h j X.X.X.( I I Z : # # # # # # # # % y p g g g h h g h ..X.X.X.X.X.X...j X.X...j h h j X.X.X.X.X.X.X.X.",
"X.X.X.X.X.X.X.X.X.X.X.X.X.X.X.f t q & & & & q r a ^ o.h g g g h ..j h g g h h h h h j j j h h g g g g h X.X.X.X.X.X.X.X.",
"X.X.X.X.X.X.X.X.X.X.X.X.X.X.X.X.X.X...j X.X.X.X.X.9.j g g g h ..X.X...j g g g g g g g g g g g g g g g g X.X.X.X.X.X.X.X.",
"X.X.X.X.X.X.X.X.X.X.X.X.X.j h h h h g g g 5./ h h S.g ' h g g h j X.X.X.X.j h g g g g g g g g g h j j X.o.X.X.X.X.X.X.X.",
"h h h h h j X.X.X.X.X.j h g g g g g g g g j.( g g / h 8.} g g g g h j X...X.X.o.X.h g g g g X.X.X.X.X.X.X.j j X.X.X.X.X.",
"X.X.X.j h h g h h h h g g g g g g g g g g q.6.g  .8.h 5.h h g h h 3.g g g h j X.X.X.g g g X.X.j h h h h g g g h h j h h ",
"j h g g g g g g g g g h h h h h ..X...j j >.i. .R.5./ h h h h h X.+.X.......j ..X.j g g g X.X...h g h h j X.X.X.X.X.X.X.",
"g g g g g g g g h g h j ..j h g g h h j #.>.$.T.).e.j.s.6./ g g j X.X.X.X.X.X.X.X.j h h g j X.X.....X.X.X.X.X...j h h g ",
"h h h h j j j h X.X.j h ..X...j g g g h 7.h f._._.K./ j.R.).k.h g 4.X.X.X.X.X.X.X.X.X.X...X.X.X.X.X.X.X.X.X.j h g g g g ",
"j j j j X.j h j X.j g h j X.X.X.X.j g 5.f.h E.!._.E.6.] D.' j.i.X.F.X.X.X.X.X.X.X.X.X.X.X.X.X.X.X.X.X.X.X.X.X.X.X.X.j h ",
"j j j h h g g g j h g g g h j X.X.X.o.P.I.#.!._._._.).P.w.+.X.#.X.3.X.X.X.X.X.X.X.X.X.X.X.X.X.X.X...j j j j h h h h h j ",
"g g g g g g g g g X.h h g g g h h h / R.E.w.~._._._._._.~.T.k.w.( h g h j j j j h h X.X.X.X.X.X.j h g g g g g g g g g g ",
"g g g g g g h j X.X.X.X.X.j j j j j +.E._.h._.(._._._._._._.!._.T.h.#.X.X.j j X.X.j h h h j j h g g g g g g g g g g g g ",
"g g g j X.X.X.X.X.X.X.X.X.X.X.X.X.X.#.E.(.R.T.(._._.~._._._._._._._.R.i.X.j j h g g g g g g g g g g h g h h h g h h h g ",
"g h X.X.j h j j h h g h h j j j h h X.Y..X^.).`._._.!._._._._._._._._.).8.g g g g g g g g g h g g g g g h h j j X.X.X.X.",
"g j X.X.h g g g h j X.X.X.X.X.X.X.j h  .).[.!._._._._._._._./._._._._._.E./ / } h h g g h h j j j j j X.X.X.X.X.X.X.X.X.",
"g h X.X.X.j j ..X.X.X.X...j h h g g g g 6.~..X_._._..X_._._.}.(..X.X!._._.8.I.( g g g g h j X.X.X.X.X.X.X.X.X.X.X.X.X.X.",
"j j ..X.X.X.j h X.X...h g g g g g g g g g j./._._.~.}.`._.^..X}.(.^.|.(._.R.).e.j h h X.X.h g h j ..X.X.X.X.X.X.X.X.X.X.",
"h h j j X.X.j j X.X.X.X.j j h h h h h h / / E._._.(. X.X_.XX[.~._._.~.}._._._.s...j ..X.X.X.X.X...X.X.X.X.X.X.j h j h h ",
"X.X...j h g g h j X.X.X.X.X.X.X.X.X.X.X.0./ I._._..X X|.(.`.oX|..X_._./.!._._.j.g g h ..X.X.X.X.X.X.X.X.X.X.j g h j j j ",
"h h g g g g g g h X.X.X.X.X.X.X.X.X.X.X.Y.i.L._.!./. X X|..X!.XX XoX_._.!._._.h.g g g h X.X.X.X.X.X.X.X.X.X.X.j X.X.X.X.",
"g g g g g g g h j o.j h j X.X.X.X.X.X.X.Y.R.U._.^.~.|. X X XoX~.XX X.X_._._._.8.g h h X.o.X.X.X.X.X.X.X.X.X.X.X.X.X.X.X.",
"g g g h j X.X...j g g g g g h ..X.X.X.X.s._.)._./.`.^. X X X X|.XX X}.!._._.R./ g g g h j X.X.X.X.X.X.X.X.X.X.X.X.X.X.X.",
"g g X.X...j ....X.X.j h g g g g j ..X.X.o.T._._._._.!.XX X X X X|. X}..X_.).i.j h g g g g h ....X.X...j j X.X.X.X.X.X.j ",
"g j X.X.j X.X.X.X.X.X.X.X...X.X.X.X.X.X.X.$.W._.(.~.oX.X}. X X X X X XXXE.t.X.X.X.X...X.X.X.X.X.X...j h h j j h j X.j g ",
"g h X.X.X.X.X.X.X.X.X.X.X.X.X.X.^ h h ....j ( g.XXoX}.|. X X X X X X|.Q.%.B N H J L P ( X.X.X.X.X.X.X.X.j g g h ..X.X.j ",
"l j X.X.X.X.X.X.X.X.X.X.X.X.X./ { B v 2 2 5 4 + A H. X X X X X X X|.d.n + @ @ M V V U &.~ ..X.X.X.X.X.X.X.h h ..X.X.X.X.",
"X.X.X...j h j X.X.X.X.X.X.X.X.X.` P ^ h u <     + m W G.'.{.].J.A.A @ o m M v @ + . w { ` X.X...X.X.X.X.X.j X.X.X.X.j X.",
"X.X.X.g g h h h j j X.X.X.X.X.X./ ) F 1 @ M V M + + @ + X + M K O M X + O + v v 2 v U E ( X.X.X.X.X.X.X.X.X.X.X.X.j g ..",
"j X.X.j h X.X.X.j h h j X.X.X.X.( E E T M M v X @ v + B O v @ K < 2 v 2 5 7 O + v b E E ~ X.X.X.X.X.X.X.X.X.X.X.X.j g X.",
"X.j j h j X.X.X.X.X.X.X.X.X.X.j h R E { S S 1 v N 4 v n   M v V 6 . M v 7 m J i > 3 E { ~ X.j h h h h h h j X.X.X.X.h X.",
"h g g g g j X.X.X.X.X.X.X.X.X.X.h h ) ) f ~ { S d O V 7 . B m B i   @ B G i m _ ( a Y E ( X.h h j X.X.X.X...X.X.X.X.h X.",
"g g g g g g o.X.X.X.X.X...j X.X.X.j h h g h ( f f I G 5 C T T T ! < 3 _ { ( d { / X./ / X.X.X.X.X.X.X.X.X.X.X.X.X.X...j ",
"g g g j j X.X.X.X.X.X.j g g h ..X.X.X.X.j h g g ( { [ Y &.&.*.*.[ h ~ ` ( X.X.X.X.X.X.X.X.X.X.X.X.X.X.X.X.X.X.X.X...X.X.",
"X.X.X.X.X.X.X.....X.X.j g g g g h j X.X.X.X.o.X.h g g ) { *.&.[ / X.X.X.....X.X.X.X.X.X.X.X.X.X.X.X.X...j j j h h g g h ",
"X.h h h j h h g g h j j h h h g g g h g h j X.X.j g g g o.X.j h h h h h g g h j j j h h ..X.X.X.X.X.j h g g g g g g g g ",
"X.h g g h h j X.X.X.X.X.X.j h h h h h h h h h j j g g h X.X.j g g h h j ..X.X.X.X.X...j h h h h h h g g g g g g g g g g "
};
