/* XPM */
static char *_3721bb89da740ba953b8c1d305fe5e9lhuqw3C64xmihH1B[] = {
/* columns rows colors chars-per-pixel */
"60 60 174 2 ",
"   c #66150D",
".  c #6C160F",
"X  c #6B190F",
"o  c #671910",
"O  c #6B1C12",
"+  c #741C12",
"@  c #7B1E14",
"#  c #662400",
"$  c #692602",
"%  c #6D2905",
"&  c #6C2C0C",
"*  c #712C07",
"=  c #722E09",
"-  c #76300B",
";  c #7A340D",
":  c #6E2F10",
">  c #6D2318",
",  c #6E291C",
"<  c #742214",
"1  c #7D2115",
"2  c #752619",
"3  c #7D2619",
"4  c #72281B",
"5  c #6D3114",
"6  c #6E3619",
"7  c #6E391C",
"8  c #713415",
"9  c #7D3712",
"0  c #7F3812",
"q  c #72361A",
"w  c #753A1C",
"e  c #763424",
"r  c #7C3323",
"t  c #753C25",
"y  c #7A3C24",
"u  c #763F2B",
"i  c #7C4027",
"p  c #77412D",
"a  c #7A432E",
"s  c #7D492B",
"d  c #7E4631",
"f  c #7D4935",
"g  c #774B38",
"h  c #764E3A",
"j  c #7F503E",
"k  c #7E5342",
"l  c #7E5A4B",
"z  c #7F5F52",
"x  c #832216",
"c  c #862A15",
"v  c #8B2619",
"b  c #86291B",
"n  c #8C2C1C",
"m  c #91291B",
"M  c #843B14",
"N  c #883F17",
"B  c #87321B",
"V  c #8B331A",
"C  c #863F18",
"Z  c #8B3919",
"A  c #93341B",
"S  c #963C1C",
"D  c #843423",
"F  c #8A3121",
"G  c #843E2A",
"H  c #8C421A",
"J  c #924813",
"K  c #92451D",
"L  c #9C431C",
"P  c #93491E",
"I  c #994B1E",
"U  c #9D531E",
"Y  c #824227",
"T  c #8D4622",
"R  c #8D4C26",
"E  c #82442A",
"W  c #84492E",
"Q  c #894D2D",
"!  c #904025",
"~  c #944B23",
"^  c #9B4D24",
"/  c #924E2A",
"(  c #83512B",
")  c #8C532F",
"_  c #8E5C2D",
"`  c #975022",
"'  c #9E5125",
"]  c #93542D",
"[  c #9E5D2E",
"{  c #804731",
"}  c #814832",
"|  c #8A4E32",
" . c #804E3C",
".. c #8E5231",
"X. c #82513E",
"o. c #935531",
"O. c #9B5B31",
"+. c #A84A24",
"@. c #A15724",
"#. c #A35825",
"$. c #A05329",
"%. c #A3552A",
"&. c #A2552B",
"*. c #A5572D",
"=. c #A45B2D",
"-. c #A45C32",
";. c #A85B31",
":. c #AB5D33",
">. c #A45E39",
",. c #976929",
"<. c #A4622F",
"1. c #A9612E",
"2. c #AF6A2F",
"3. c #BF6C22",
"4. c #BD742F",
"5. c #A56232",
"6. c #AB6334",
"7. c #AE6930",
"8. c #AE6239",
"9. c #AF6339",
"0. c #B36236",
"q. c #B16B32",
"w. c #B2663C",
"e. c #B4683F",
"r. c #BD7431",
"t. c #C06B20",
"y. c #C3782F",
"u. c #D77E29",
"i. c #C17732",
"p. c #CA7E30",
"a. c #825443",
"s. c #825543",
"d. c #835847",
"f. c #8C5844",
"g. c #835A4A",
"h. c #805B4D",
"j. c #865D4E",
"k. c #825F52",
"l. c #845F51",
"z. c #826154",
"x. c #846255",
"c. c #B56940",
"v. c #B96C43",
"b. c #BB7047",
"n. c #BE7349",
"m. c #C1764D",
"M. c #C3784F",
"N. c #BC881B",
"B. c #D8AC19",
"V. c #DBB118",
"C. c #E8BA1D",
"Z. c #D19620",
"A. c #CF8131",
"S. c #D38431",
"D. c #DB8A31",
"F. c #EB992A",
"G. c #E28F31",
"H. c #E59232",
"J. c #E99432",
"K. c #EF9932",
"L. c #F39C32",
"P. c #F89F32",
"I. c #FCAD2E",
"U. c #FCB42B",
"Y. c #FCBB29",
"T. c #FCA332",
"R. c #FCA930",
"E. c #FCD61F",
"W. c #FDDB1E",
"Q. c #FDE41B",
"!. c #FEEB1A",
"~. c #FCC426",
"^. c #FCCC23",
"/. c #FDD520",
/* pixels */
"} } } } { d } } } } } } } } } } } } } } } } } } f  .d a { } } } } } } { d a a a d } { d { } } } } } { } } } } } } d a d ",
"} } { a a p a d } } } } } } } } } } } } } } } } j.X.a p p a d d { { } } } } } d d a p p a } } } } } } } } } } } d p a a ",
"} } } a a } } d p a a { } } } } } } } } } } } { l.X.} d d h p p p p p a a a p p p p p p p d } } } } } } } } } } { d } } ",
"d } } d d } } } } } { { } } } } } d a a j f a a k.s.} } s.s.p p p p p p p p p p p p p p d } } } } } } } } } } } } } } } ",
"d a p p a d } } } } } } } } } } } p a d g. .p p l l d { s.j.| | } d p p p p p p d d } } } } } } } } } } } } } } } } } } ",
"p p p p p a } } } } } } } } } } } d } } g.d.a a k z d a f z.f { } } } p p p a | } d d { { d a a d { } } { d d } } } } } ",
"p p p p a d | } } } } } } } } } } } } } X.x. .} } z.h.a a h.k a { } } p p p } } d p p p p p a d d d d d d d d a d d d d ",
"a d } } } } } } } } } } } } } } } } } } } l.g.} } s.x.f a k k d d a d p p p d } } d a d d } } } } } d d a p p p p p p p ",
"} { d d } d a a a d } } { d d } } } } } } s.k.u t 6 h 6 $ 7 5 # # $ = 9 6 q t i a p a a d { } { a a p p p p p p p p p a ",
"} a p p p p p d d d d d d d d d a d d d y t g $ ; H ..& # 7 # # 9 = % ^ H - ^ ~ 0 6 i a a a a d d d a a p p p a a d { } ",
"} { a d d } } } } } { d a a p p p t 6 # # 5 8 ~ $.^ w # H >.-.~ ; K H = 9.; ; w.n.~ $ y { } } } } } } } } } } } } } } } ",
"f.} } } } } } } d a p p p p p u 5 # % ~ P & M ' m.;.9 * $ ~ 9.m.w.M M = H N # M ~ %.M : a a d } } } } } } } } } } } } } ",
"{ } } } } { a a { d p p p p q # # # $ M H ; % ~ c.m.M.w.M $ H %.n.*.N $ M ^ %.^ K = $ & a d a a a d { } } } } } } } } } ",
"a a a a } } { d } } } d d q - M # # ; C H K 0 $ 0 H ^ c.~ M ; H ^ ; 0 %.0.0.:.*.9 # # 8 d } } } d d d } } } } } } d d { ",
"p p p p a a a a } } } } q - ;.*.* ; *.v.m.M.;.= % M % ; K ; ^ H ; H %.:.%.' ' ' ^ ; & t d } } } } } } } } } } } d p p a ",
"} d a p p p a d d } } i # = P % # # % K ~ ' %.P $ $.*.; - % ^ M H ~ ^ ' ' ^ T Y a p p p p } } } } } } } } { a a p p p p ",
"} } } } } } } } } } } & # # # ; H ~ ; % * % ; M % M n.:.M # % M K ; ' ' ~ i p p p p p p p d } } } } } } } { } } } d a p ",
"} } } } } } } } } } a # M $ H :.n.w.' ; $.%.M M ; % ' b.' % M H % ^ ' T p p p p p d { } } } } } } } } } } } } } } } } } ",
"} } } } } } } } } } i # ^ M ; H 9.n.n.H N v.b.%.' - 0 ' K ; M # H ' T p p p a } | } } } } d d a { } } } } } } } } } } } ",
"} } } } } } } } } } E - H w.% # % ; M H = ^ m.w.' H % M H M # = ' ~ } p p p } } d p p a a a d d } } } } } } } } } } } } ",
"{ } } } } } } } } } E ^ M 9.b.9.:.e.9.M # % ^ $.^ * - H = # # P ~ a d p p p d } } a a a d } } } } } d a a } } } } } } } ",
"d d } } } } } } { { } ~ ' ~ ^ ;.;.;.%.P ; # = M 9 M = # # # M ~ i p a a a a a a a a d } } } } } } a p a d a a d { } } } ",
"} } } } } } } d a p a E ^ ' ^ H M = $ % % % = % # # # # # = E p p p p a d } } } d a a a a a a { } } a { } } d d d d } } ",
"} } } } } } } d a d } } } Q T H M ; # # # # # # # # $ q t p p p a a p a { } } } } } } { d } } { d a a d } } } } } } } } ",
"} } } } } } } } } } } } } } } a w 8 & & & & 8 w y a } a p p p a { d a p p a a a a a d d d a a p p p p a } } } } } } } } ",
"} } } } } } } } } } } } } } } } } } { d } } } } ) ) d p p p Q | } } { d p p p p p p p p p p p p p p p p } } } } } } } } ",
"} } } } } } } } } } } } } d a a a a p p p a a a p p p p p a 4.] d } } } } d a p p p p p p p p p a d d } | } } } } } } } ",
"a a a a a d } } } } } d a p p p p p p p p p p p p p a p a Q 4.W p a d } { } } | } a p p p p } } } } } } } d d } } } } } ",
"} } } d a a p a a a a p p p p p p p p p p p p p s a ( a S.a a a a p p p p a d } } } p p p } } d a a a a p p p a a d a a ",
"d a p p p p p p p p p a a a a a { } { d d a a a ,._ a A.P.a a a } } } { { { d { } d p p p } } { a p a a d } } } } } } } ",
"p p p p p p p p a p a d { d a p p a a d d d d { _ ) i.T.P.p p W | } } } } } } } } d a a p d } } { { } } } } } { d a a p ",
"a a a a d d d a } } d a { } { d p p p p p p p p p [ P.T.T.] a y.Q | } O.} } } } } } } } { } } } } } } } } } d a p p p p ",
"d d d d } d a d } d p a d } } } } d p p p p p p a D.T.T.T.p.) L.O.} o.i.} } } } } } } } } } } } } } } } } } } } } } d a ",
"d d d a a p p p d a p p p a d } } } | | } d p p ] T.Y.T.T.T.i.T.q.} ..K.} } } } } } } } } } } } } { d d d d a a a a a d ",
"p p p p p p p p p } a a p p p a a a a } } } a a [ T.Y.T.T.T.T.T.H.W p L.O.d d d a a } } } } } } d a p p p p p p p p p p ",
"p p p p p p a d } } } } } d d d d d d d } } a Q <.T.T.T.T.T.T.T.T.r.} i.r.{ } } } d a a a d d a p p p p p p p p p p p p ",
"p p p d } } } } } } } } } } } } } } } } } } r.a a p.T.^.T.T.T.T.T.T.q.| q.o.O.a p p p p p p p p p p a p a a a p a a a p ",
"p a } } d a d d a a p a a d d d a a } } } -.L.....] S.T.T.I.T.T.Y.T.T.6.a p p p p p p p p p a p p p p p a a d d } } } } ",
"p d } } a p p p a d } } } } } } } d a a a o.T.7.[ J.S.T.T./.U.I.Y.U.T.P.] a Q W a a p p a a d d d d d } } } } } } } } } ",
"p a } } } d d { } } } } { d a a p p p p a a p.p.) P.T.T.I.~.I.U.~.~.T.T.D.2.D.W p p p p a d } } } } } } } } } } } } } } ",
"d d { } } } d a } } { a p p p p p p p p =.p Q 7.5.T.T.T.~.T.T./.~.Y.R.T.T.P.A.d d a a } } a p a d { } } } } } } } } } } ",
"a a d d } } d d } } } } d d a a a a a a J.[ a 6.L.I.T.I.~.I./.Q.U.T.~.T.T.T.S.} { d { } } } } } { } } } } } } d a d a a ",
"} } { d a p p a d } } } } } } } } } } | L.P.7.P.U.Y.T.R.U.Q.!./.T.U.~.T.T.T.H.W p p a { } } } } } } } } } } d p a d d d ",
"a a p p p p p p a } } } } } } } } } } } L.T.T.T./.Y.I.T.^.!.!.Y.T.T.T.T.T.T.K.Q p p p a } } } } } } } } } } } d } } } } ",
"p p p p p p p a d | d a d } } } } } } } S.T.T.I.Q.E.~.T.E.!.!.^.U.I.T.Y.T.T.J.W p a a } | } } } } } } } } } } } } } } } ",
"p p p a d } } { d p p p p p a { } } } } <.T.T.I.!.!.Y.I./.!.!.Q.Q.U.T.^.R.T.A.a p p p a d } } } } } } } } } } } } } } } ",
"p p } } { d { { } } d a p p p p d { } } } G.T.R.Q.!.Y.^.E.!.!.!.!.^.U.Q.T.K.O.d a p p p p a { { } } { d d } } } } } } d ",
"p d } } d } } } } } } } } { } } } } } } } O.P.T.^.!.^./.!.!.!.!.!.Q.Q./.L.5.} } } } { } } } } } } { d a a d d a d } d p ",
"p a } } } } } } } } } } } } } } W a d { { { 1.L.I.W.Q./.!.!.!.!.!.!.Q.F.+.D r r G E W } } } } } } } } } d p p a { } } d ",
"f d } } } } } } } } } } } } } } ' B 3 3 2 2 2 S u.I.W.!.!.!.!.!.Q.C.t.c @ x v n m A ' ~ } } } } } } } } } a a { } } } } ",
"} } } { d a d } } } } } } } } } ] ! G G r 4 O   1 L 3.Z.B.V.B.N.J c + x v x @ + + < ' ` } } } } } } } } } d } } } } d } ",
"} } } p p a a a d d } } } } } } } R H < + x v v + + + +   x n r + @ + O O x v x x V U R } } } } } } } } } } } } } d p { ",
"d } } d a } } } d a a d } } } } W U U I v v x . @ 1 + n   v x D O v 1 2 D > + x x I U ~ } } } } } } } } } } } } } d p } ",
"} d d a d } } } } } } } } } } d a ` U ' V n X x b + v 3   m x F O x x n 2 F e O < U ' ` } } d a a a a a a d } } } } a } ",
"a p p p p d } } } } } } } } } } a s ~ ` Y ~ ' B y + m 2 + m x n , . v c D 3 S / e P U ~ } } a a d } } } } { } } } } a } ",
"p p p p p p | } } } } } { d } } } d a p p a R E y Z n < Z L P L y o Z ' ` i ~ / } W R } } } } } } } } } } } } } } } { d ",
"p p p d d } } } } } } d p p a { } } } } d a p p R @.~ P #.#.#.#.R Y ` ] W } W } } } } } } } } } } } } } } } } } } { } } ",
"} } } } } } } { { } } d p p p p a a } } } } | } a E E ` @.#.#.~ } } } } { { } } } } } } } } } } } } } { d d d a a p p a ",
"} a a a d a a p p a d d a a a p p p a p a d } } d p p a | } a a a a a a p p a d d d a a { } } } } } d a p p p p p p p p ",
"} a p p a a d } } } } } } d a a a a a a a a a d d p p a } } d p p a a d { } } } } } { d a a a a a a p p p p p p p p p p "
};
