/* XPM */
static char *_fddcc410b894fd1cba74c8f8654b3b4EZRZvDOKUxkPUgUr[] = {
/* columns rows colors chars-per-pixel */
"60 60 181 2 ",
"   c #64140E",
".  c #6C170F",
"X  c #6D180F",
"o  c #671810",
"O  c #6C1B12",
"+  c #741B12",
"@  c #7C1E14",
"#  c #662400",
"$  c #692703",
"%  c #6D2A05",
"&  c #6B2C0C",
"*  c #702C07",
"=  c #732E09",
"-  c #76310C",
";  c #7A340E",
":  c #6B2914",
">  c #6F281B",
",  c #772217",
"<  c #7B2316",
"1  c #7B2915",
"2  c #77261A",
"3  c #762D1E",
"4  c #7D2A1D",
"5  c #6D3114",
"6  c #6E3519",
"7  c #6E3B1E",
"8  c #743414",
"9  c #7D3610",
"0  c #7E3813",
"q  c #72351A",
"w  c #73381C",
"e  c #7F3C1F",
"r  c #6F3E24",
"t  c #753C24",
"y  c #7A3A27",
"u  c #7A3C24",
"i  c #763E29",
"p  c #77412D",
"a  c #7A432E",
"s  c #7E492D",
"d  c #774330",
"f  c #7E4631",
"g  c #7D4936",
"h  c #7D4C3A",
"j  c #77513E",
"k  c #7E513E",
"l  c #7D5646",
"z  c #7E5D51",
"x  c #832216",
"c  c #882517",
"v  c #872817",
"b  c #862519",
"n  c #8B2619",
"m  c #822B1D",
"M  c #8C2A1A",
"N  c #912A1B",
"B  c #843615",
"V  c #833B14",
"C  c #883F17",
"Z  c #8C311A",
"A  c #863F18",
"S  c #8B3F18",
"D  c #90321A",
"F  c #923A1C",
"G  c #843524",
"H  c #8B3422",
"J  c #8F3820",
"K  c #873E2A",
"L  c #933F20",
"P  c #8D431B",
"I  c #91451D",
"U  c #9B411B",
"Y  c #94491E",
"T  c #9B4D1E",
"R  c #9C531F",
"E  c #AD561F",
"W  c #B9651F",
"Q  c #BA7F1E",
"!  c #844325",
"~  c #8A4624",
"^  c #8D4B26",
"/  c #83442B",
"(  c #8A4629",
")  c #844A2D",
"_  c #8A4B2C",
"`  c #914727",
"'  c #934B22",
"]  c #9B4E24",
"[  c #85532A",
"{  c #8F522E",
"}  c #8D582F",
"|  c #955024",
" . c #9E5124",
".. c #93552D",
"X. c #9E5229",
"o. c #935F2D",
"O. c #9B5B2E",
"+. c #804731",
"@. c #814832",
"#. c #8A4D31",
"$. c #824D39",
"%. c #8C5133",
"&. c #82513E",
"*. c #935532",
"=. c #9A5A31",
"-. c #AF4D23",
";. c #A15725",
":. c #A55927",
">. c #A25429",
",. c #A2552B",
"<. c #A3562D",
"1. c #A6582D",
"2. c #A35D2C",
"3. c #A8592E",
"4. c #A45C31",
"5. c #AA5D33",
"6. c #916228",
"7. c #A3612E",
"8. c #A9652E",
"9. c #AE692F",
"0. c #BE7124",
"q. c #B7702F",
"w. c #B9712F",
"e. c #A66236",
"r. c #AA6334",
"t. c #AE6931",
"y. c #AF6238",
"u. c #B36235",
"i. c #B46D32",
"p. c #B0643A",
"a. c #B5683F",
"s. c #BF7530",
"d. c #C1772F",
"f. c #C17732",
"g. c #C57930",
"h. c #CA7E31",
"j. c #815442",
"k. c #835645",
"l. c #8C5844",
"z. c #825848",
"x. c #835C4D",
"c. c #815E51",
"v. c #865F50",
"b. c #836153",
"n. c #B56940",
"m. c #B86D43",
"M. c #B96D44",
"N. c #BB7047",
"B. c #BE7249",
"V. c #C2764D",
"C. c #C3784E",
"Z. c #C47950",
"A. c #BF8917",
"S. c #B08528",
"D. c #C79617",
"F. c #CF961A",
"G. c #D7822C",
"H. c #CD8030",
"J. c #D48431",
"K. c #DC8B31",
"L. c #F0982F",
"P. c #E08E31",
"I. c #E79332",
"U. c #EF9832",
"Y. c #F49C32",
"T. c #F89F32",
"R. c #EDA428",
"E. c #FCAC2F",
"W. c #FCB32C",
"Q. c #FCBA29",
"!. c #F5A330",
"~. c #FDA333",
"^. c #FCA930",
"/. c #EEC01F",
"(. c #FCD61F",
"). c #FDDD1E",
"_. c #FDE31C",
"`. c #FEEB1A",
"'. c #FCC326",
"]. c #FCCC23",
"[. c #FDD321",
/* pixels */
"@.@.@.@.+.f @.@.@.@.@.@.@.@.@.@.@.@.@.@.@.@.@.@.h h f a +.@.@.@.@.@.@.+.f a a a f @.+.f +.@.@.@.@.@.+.@.@.@.@.@.@.f a f ",
"@.@.+.a a p a f @.@.@.@.@.@.@.@.@.@.@.@.@.@.@.@.v.$.a p p a f f +.+.@.@.@.@.@.f f a p p a @.@.@.@.@.@.@.@.@.@.@.f p a a ",
"@.@.@.a a @.@.f p a a +.@.@.@.@.@.@.@.@.@.@.@.@.b.$.@.f g g p p p p p a a a p p p p p p p f @.@.@.@.@.@.@.@.@.@.+.f @.@.",
"f @.@.f f @.@.@.@.@.+.+.@.@.@.@.@.f a a j.f a a b.&.@.@.k.j.p p p p p p p p p p p p p p f @.@.@.@.@.@.@.@.@.@.@.@.@.@.@.",
"f a p p a f @.@.@.@.@.@.@.@.@.@.@.p a f c.g p p z l f +.k.x.$.$.@.f p p p p p p f f @.@.@.@.@.@.@.@.@.@.@.@.@.@.@.@.@.@.",
"p p p p p a @.@.@.@.@.@.@.@.@.@.@.f @.@.x.j.a a l z d a h c.f +.@.@.@.p p p a $.@.f f +.+.f a a f +.@.@.+.f f @.@.@.@.@.",
"p p p p a f $.@.@.@.@.@.@.@.@.@.@.@.@.@.j.b.@.@.$.b.z.a f c.k a +.@.@.p p p @.@.f p p p p p a f f f f f f f f a f f f f ",
"a f @.@.@.@.@.@.@.@.@.@.@.@.@.@.@.@.@.@.@.b.k.@.@.z.b.f a l k f f a f p p p f +.@.f a f f @.@.@.@.@.f f a p p p p p p p ",
"@.+.f f @.f a a a f @.@.+.f f @.@.@.@.@.@.z.x.i w 6 j 5 $ r & # # $ - 8 6 q t a a p a a f +.@.+.a a p p p p p p p p p a ",
"@.a p p p p p f f f f f f f f f a f f a t p p $ 9 P %.# # 7 # $ V % * >.V 9 ] ' 0 6 a a a a a f f f a a p p p a a f +.@.",
"@.+.a f f @.@.@.@.@.+.f a a p p p t 5 # # 6 8 ] >.] q # I e.4.' ; Y C ; y.= V m.N.P % a +.@.@.@.@.@.@.@.@.@.@.@.@.@.@.@.",
"l.@.@.@.@.@.@.@.f a p p p p p i & # = ] I % P >.V.<.9 % % X.p.Z.y.V C % ' V $ C ] >.; q a a f @.@.@.@.@.@.@.@.@.@.@.@.@.",
"+.@.@.@.@.+.a a +.f p p p p 6 # # # $ C P ; % ] m.V.V.y.; $ I <.V.>.V % C ] >.] P * # 6 a f a a a f +.@.@.@.@.@.@.@.@.@.",
"a a a a @.@.+.f @.@.@.f f 5 ; 9 # $ ; A P P ; $ V P X.m.P C = Y ] = V 3.u.u.5.>.- # # q f @.@.@.f f f @.@.@.@.@.@.f f +.",
"p p p p a a a a @.@.@.@.8 9 5.X.$ 0 5.M.V.V.<.% = V $ V P V ] P - I 1.5.>.X.X.X.] = & i f @.@.@.@.@.@.@.@.@.@.@.f p p a ",
"@.f a p p p a f f @.@.u # ; I $ # # * I ' >.>.P % 1.>.= - = ] 9 Y I X.X.X.] ( ! a p p p p @.@.@.@.@.@.@.@.+.a a p p p p ",
"@.@.@.@.@.@.@.@.@.@.@.& # # # 9 P ' = * * % ; C # I V.1.9 # % P P V X.X.~ a p p p p p p p f @.@.@.@.@.@.@.+.@.@.@.f a p ",
"@.@.@.@.@.@.@.@.@.@.a # C $ I y.B.p.] 9 <.X.C V = * <.m.] # C V * ] X.! p p p p p f +.@.@.@.@.@.@.@.@.@.@.@.@.@.@.@.@.@.",
"@.@.@.@.@.@.@.@.@.@.u $ X.; ; I p.B.m.C I B.M.>.] % C X.C V V # I X.~ p p p a @.$.@.@.@.@.f f a +.@.@.@.@.@.@.@.@.@.@.@.",
"@.@.@.@.@.@.@.@.@.@.! * ] 5.$ # * ; C P = X.C.y.X.V = C P ; # ; X.^ @.p p p @.@.f p p a a a f f @.@.@.@.@.@.@.@.@.@.@.@.",
"+.@.@.@.@.@.@.@.@.@.( ] C a.M.5.y.n.5.9 # = X.X.' % ; P % # $ ] ` a f p p p f @.@.a a a f @.@.@.@.@.f a a @.@.@.@.@.@.@.",
"f f @.@.@.@.@.@.+.+.@.] ] Y X.5.5.4.<.I = # - C 9 V * # # # P ` a p a a a a a a a a f @.@.@.@.@.@.a p a f a a f +.@.@.@.",
"@.@.@.@.@.@.@.f a p a ) ] X.] P V % % % % % * $ # # # # # 8 / 6.p p p a f @.@.@.f a a a a a a +.@.@.a +.@.@.f f f f @.@.",
"@.@.@.@.@.@.@.f a f @.@.@._ P P V ; # # # # # # # # & w i p p p a a p a +.@.@.@.@.@.@.+.f @.@.+.f a a f @.@.@.@.@.@.@.@.",
"@.@.@.@.@.@.@.@.@.@.@.@.@.@.@.a w 8 & & & & 8 w u a @.a a p p a +.f a p p a a a a a f f f a a p p p p a @.@.@.@.@.@.@.@.",
"@.@.@.@.@.@.@.@.@.@.@.@.@.@.@.@.@.@.+.f @.@.@.@.+.@.f p ..) a +.@.@.o.f p p p p p p p p p p p p p p p p @.@.@.@.@.@.@.@.",
"@.@.@.@.@.@.@.@.@.@.@.@.@.f a a a a p p p a a a p p p p 8.7.a a f @.@.@.@.f a p p p p p p p p p a f f @.$.@.@.@.@.@.@.@.",
"a a a a a f @.@.@.@.@.f a p p p p p p p p p p p p p p p ..O.{ a p s f @.+.@.@.$.@.a p p p p @.@.@.@.@.@.@.f f @.@.@.@.@.",
"@.@.@.f a a p a a a a p p p p p p p p p p p p p p p p p a a O.g.a ) [ a p a f @.@.@.p p p @.@.f a a a a p p p a a f a a ",
"f a p p p p p p p p p a a a a a +.@.+.f f a a a a a p p a a O.~.f.@.S.#.+.+.f +.@.f p p p @.@.+.a p a a f @.@.@.@.@.@.@.",
"p p p p p p p p a p a f +.f a p p a a f f f f +.@.+.f O.a p O.~.~.t.} @.@.@.@.@.@.f a a p f @.@.+.+.@.@.@.@.@.+.f a a p ",
"a a a a f f f a @.@.f a +.@.+.f p p p p p p p p O.p p 7.w.p g.~.~.T.%.@.@.@.@.@.@.@.@.@.+.@.@.@.@.@.@.@.@.@.f a p p p p ",
"f f f f @.f a f @.f p a f @.@.@.@.f p p p p p a h.a p q.I._ U.~.~.^.h.@.@.@.@.@.@.@.@.@.@.@.@.@.@.@.@.@.@.@.@.@.@.@.f a ",
"f f f a a p p p f a p p p a f @.@.@.$.$.@.f a O.J.a a K.Y.J.~.~.~.'.Y.@.@.@.@.@.@.@.@.@.@.@.@.@.@.+.f f f f a a a a a f ",
"p p p p p p p p p @.a a p p p a a a a @.@.@.a g.s.a r.~.~.~.~.~.~.W.Y._ @.f +.f a a @.@.@.@.@.@.f a p p p p p p p p p p ",
"p p p p p p a f @.@.@.@.@.f f f f f f f @.%.a J.{ %.U.~.~.~.~.^.^.~.I.*.#.@.f @.@.f a a a f f a p p p p p p p p p p p p ",
"p p p f @.@.@.@.@.@.@.@.@.@.@.@.@.@.@.@.@.r.a 7.) P.~.E.~.~.~.W.W.Y.4.@.*.g.f a p p p p p p p p p p a p a a a p a a a p ",
"p a @.@.f a f f a a p a a f f f a a @.@.@.@.@.#.K.~.W.W.~.^.E.~.~.7.t.@.9.I.) p p p p p p p a p p p p p a a f f @.@.@.@.",
"p f @.@.a p p p a f @.@.@.@.@.@.@.f a a =.*.f g.~.~.].W.~.'.'.~.T.K.Y.a J.P.a a a a p p a a f f f f f @.@.@.@.@.@.@.@.@.",
"p a @.@.@.f f +.@.@.@.@.+.f a a p p p p _ U.w.Y.~.~.).'.^.W.W.E.~.~.K.) P.O.p a p p p p a f @.@.@.@.@.@.@.@.@.@.@.@.@.@.",
"f f +.@.@.@.f a @.@.+.a p p p p p p p p a U.~.~.~.E.].'.].~.~.'.~.~.Y.*.t.@.#.r.f a a @.@.a p a f +.@.@.@.@.@.@.@.@.@.@.",
"a a f f @.@.f f @.@.@.@.f f a a a a a a ) T.~.~.E.'.~.Q.`.[.E.].~.~.W.Y...) h.h.@.f +.@.@.@.@.@.+.@.@.@.@.@.@.f a f a a ",
"@.@.+.f a p p a f @.@.@.@.@.@.@.@.@.@.@...~.~.~.~.'.~.~._.`.).W.~.~.].E.U.J.~.H.a p a +.@.@.@.@.@.@.@.@.@.@.f p a f f f ",
"a a p p p p p p a @.@.@.@.@.@.@.@.@.@.@.r.~.~.~.~.~.~.~.].`.`.W.E.E.[.'.~.~.~.d.p p p a @.@.@.@.@.@.@.@.@.@.@.f @.@.@.@.",
"p p p p p p p a f $.f a f @.@.@.@.@.@.@.=.~.~.W.E.~.'.W._.`.`.'.~.(._.).~.~.~.O.p a a @.$.@.@.@.@.@.@.@.@.@.@.@.@.@.@.@.",
"p p p a f @.@.+.f p p p p p a +.@.@.@.@.a I.~.Q.Q.~.[._.`.`.`.'.^.[.`._.~.~.I.) p p p a f @.@.@.@.@.@.@.@.@.@.@.@.@.@.@.",
"p p @.@.+.f +.+.@.@.f a p p p p f +.@.@.f 2.Y.Q.).W._.`.`.`.`.).Q.[.`.[.~.~.i.f a p p p p a +.+.@.@.+.f f @.@.@.@.@.@.f ",
"p f @.@.f @.@.@.@.@.@.@.@.+.@.@.@.@.@.@.@.@.r.!.)._.`.`.`.`.`.`.'._.`.W.~.J.#.@.@.@.+.@.@.@.@.@.@.+.f a a f f a f @.f p ",
"p a @.@.@.@.@.@.@.@.@.@.@.@.@.@.) ( K G m m M -.R._.`.`.`.`.`.`.).`.].~.G._ f +.f a y ) @.@.@.@.@.@.@.@.f p p a +.@.@.f ",
"g f @.@.@.@.@.@.@.@.@.@.@.@.@.@. . .N N n x @ + v W /.`.`.`.`.`.`.'.L.E < 2 2 < x c I | @.@.@.@.@.@.@.@.@.a a +.@.@.@.@.",
"@.@.@.+.f a f @.@.@.@.@.@.@.@.@.R Y . O + x n n + + + B Q F.D.A.0.U c +   o > t a K ` _ @.@.@.@.@.@.@.@.@.f @.@.@.@.f @.",
"@.@.@.p p a a a f f @.@.@.@.@.@.' T v x x c + o + X n . H n + X O @ X @ M M x @ 1 Y ^ @.@.@.@.@.@.@.@.@.@.@.@.@.@.f p +.",
"f @.@.f a @.@.@.f a a f @.@.@.@. . .S x @ O 3 4 , x x O H @ x O M + c @ O c n D  .R R @.@.@.@.@.@.@.@.@.@.@.@.@.@.f p @.",
"@.f f a f @.@.@.@.@.@.@.@.@.@.+.R  .S O 3 G b 4 c n X 3 N x c   M x 2 c x 1 H I R R ^ @.@.@.f a a a a a a f @.@.@.@.a @.",
"a p p p p f @.@.@.@.@.@.@.@.@.@.' R e i X.Z 3 J M @   y M v M . m N O / L  ._ _ | ^ @.@.@.@.a a f @.@.@.@.+.@.@.@.@.a @.",
"p p p p p p $.@.@.@.@.@.+.f @.@.) ) a p | ! a  . .B : ~ ] ] T B 1 F P #._ _ @.@.@.@.@.@.@.@.@.@.@.@.@.@.@.@.@.@.@.@.+.f ",
"p p p f f @.@.@.@.@.@.f p p a +.@.@.@.@.f a p a ^ ^ i ' :.:.;.;.Y X. .#.@.@.@.@.@.@.@.@.@.@.@.@.@.@.@.@.@.@.@.@.@.+.@.@.",
"@.@.@.@.@.@.@.+.+.@.@.f p p p p a f @.@.@.@.$.@.p p a a ^ ;.;. .' @.@.@.+.+.@.@.@.@.@.@.@.@.@.@.@.@.@.+.f f f a a p p a ",
"@.a a a f a a p p a f f a a a p p p a p a f @.@.f p a p $.@.f a a a a a p p a f f f a a +.@.@.@.@.@.f a p p p p p p p p ",
"@.a p p a a f @.@.@.@.@.@.f a a a a a a a a a f f p p a @.@.f p p a a f +.@.@.@.@.@.+.f a a a a a a p p p p p p p p p p "
};
