/* XPM */
static char *_7f6f49a3394428ec20134fa65e0abb73glT13g04MdNSLQ4[] = {
/* columns rows colors chars-per-pixel */
"60 60 188 2 ",
"   c #66140E",
".  c #6C170F",
"X  c #6B1E15",
"o  c #721B12",
"O  c #7B1E13",
"+  c #662400",
"@  c #692703",
"#  c #6D2A05",
"$  c #6C2C0C",
"%  c #712C07",
"&  c #732E09",
"*  c #76310B",
"=  c #7B340E",
"-  c #6C2216",
";  c #6F271B",
":  c #7C2315",
">  c #772814",
",  c #75261A",
"<  c #7C2619",
"1  c #7D2B1D",
"2  c #6D3112",
"3  c #6F3418",
"4  c #6E3A1F",
"5  c #713315",
"6  c #7D3711",
"7  c #7E3812",
"8  c #73361B",
"9  c #73381C",
"0  c #6E3C20",
"q  c #763625",
"w  c #7B3321",
"e  c #733B22",
"r  c #7B3C25",
"t  c #763F29",
"y  c #7C3D2A",
"u  c #77412D",
"i  c #7A432E",
"p  c #7E492C",
"a  c #754630",
"s  c #7E4631",
"d  c #7D4834",
"f  c #7B4C3A",
"g  c #77513E",
"h  c #7E5443",
"j  c #7E584A",
"k  c #7F5E51",
"l  c #842316",
"z  c #882617",
"x  c #832519",
"c  c #8C2619",
"v  c #862B1B",
"b  c #8B2A1A",
"n  c #91291B",
"m  c #833416",
"M  c #843B14",
"N  c #883E17",
"B  c #87371D",
"V  c #8D351B",
"C  c #893F18",
"Z  c #95381F",
"A  c #842F20",
"S  c #853021",
"D  c #8A3423",
"F  c #813E26",
"G  c #8A3924",
"H  c #874019",
"J  c #8D431A",
"K  c #92461E",
"L  c #9C461A",
"P  c #954B1E",
"I  c #994A1D",
"U  c #995114",
"Y  c #9C531F",
"T  c #A9561D",
"R  c #844427",
"E  c #8B4424",
"W  c #8C4B26",
"Q  c #82472F",
"!  c #884028",
"~  c #83492D",
"^  c #8B4C2B",
"/  c #944B23",
"(  c #9A4D23",
")  c #914D2A",
"_  c #84522B",
"`  c #8C532E",
"'  c #8E5B2D",
"]  c #965024",
"[  c #9E5124",
"{  c #92542E",
"}  c #9E5229",
"|  c #945A2E",
" . c #9D5D2E",
".. c #804731",
"X. c #814832",
"o. c #894D32",
"O. c #824D39",
"+. c #8B5232",
"@. c #82503D",
"#. c #935431",
"$. c #9C5C32",
"%. c #B04F20",
"&. c #A15623",
"*. c #A35825",
"=. c #A15329",
"-. c #A3552B",
";. c #A5582F",
":. c #A8592E",
">. c #A75B32",
",. c #AA5D33",
"<. c #94632C",
"1. c #99672D",
"2. c #9B6E29",
"3. c #A4622F",
"4. c #AF6A2F",
"5. c #BF6A25",
"6. c #B46E2F",
"7. c #A57B26",
"8. c #A57629",
"9. c #B7702F",
"0. c #A36132",
"q. c #AC6334",
"w. c #A5603A",
"e. c #AE6239",
"r. c #B26134",
"t. c #B56E31",
"y. c #B1643A",
"u. c #B4683F",
"i. c #B77032",
"p. c #BC7430",
"a. c #C1772F",
"s. c #D47729",
"d. c #C07632",
"f. c #C57A31",
"g. c #CC7F31",
"h. c #815443",
"j. c #825645",
"k. c #8C5844",
"l. c #825849",
"z. c #835C4E",
"x. c #845E50",
"c. c #866153",
"v. c #826154",
"b. c #856355",
"n. c #B66B41",
"m. c #B96D44",
"M. c #BE7249",
"N. c #C0754C",
"B. c #C2764D",
"V. c #C3784F",
"C. c #C47950",
"Z. c #AC8425",
"A. c #BD9824",
"S. c #CA951A",
"D. c #E1BB1A",
"F. c #C19B25",
"G. c #CE8030",
"H. c #D38432",
"J. c #D88732",
"K. c #DD8B31",
"L. c #E29626",
"P. c #E28F31",
"I. c #E59132",
"U. c #EA9532",
"Y. c #EE9832",
"T. c #F59D32",
"R. c #F89F32",
"E. c #C4A222",
"W. c #D8BA20",
"Q. c #E7A424",
"!. c #F8A72E",
"~. c #FCAD2E",
"^. c #FCB42C",
"/. c #FCBB29",
"(. c #FDA332",
"). c #FCA930",
"_. c #E1C41E",
"`. c #E7C819",
"'. c #EBC919",
"]. c #ECD31D",
"[. c #FCD71F",
"{. c #FDDD1D",
"}. c #FDE31B",
"|. c #FEEB1A",
" X c #FCC426",
".X c #FDCC23",
"XX c #FCC028",
"oX c #FDD321",
/* pixels */
"X.X.X.X...s X.X.X.X.X.X.X.X.X.X.X.X.X.X.X.X.X.X.f d s i ..X.X.X.X.X.X...s i i i s X...s ..X.X.X.X.X...X.X.X.X.X.X.s i s ",
"X.X...i i u i s X.X.X.X.X.X.X.X.X.X.X.X.X.X.X.X.c.O.i u u i s s ....X.X.X.X.X.s s i u u i X.X.X.X.X.X.X.X.X.X.X.s u i i ",
"X.X.X.i i X.X.s u i i ..X.X.X.X.X.X.X.X.X.X.X.X.b.O.X.s d f u u u u u i i i u u u u u u u s X.X.X.X.X.X.X.X.X.X...s X.X.",
"s X.X.s s X.X.X.X.X.....X.X.X.X.X.s i i j.i i a v.@.X.X.j.h.u u u u u u u u u u u u u u a X.X.X.X.X.X.X.X.X.X.X.X.X.X.X.",
"s i u u i s X.X.X.X.X.X.X.X.X.X.X.u i s v.s u u k h s ..j.z.O.O.X.s u u u u u u s s X.X.X.X.X.X.X.X.X.X.X.X.X.X.X.X.X.X.",
"u u u u u i X.X.X.X.X.X.X.X.X.X.X.s X.X.b.@.i i j k u i f v.d ..X.X.X.u u u i O.X.s s ....s i i s ..X.X...s s X.X.X.X.X.",
"u u u u i s O.X.X.X.X.X.X.X.X.X.X.X.X.X.l.x.X.X.O.v.l.i i z.h i ..X.X.u u u X.X.s u u u u u i s s s s s s s s i s s s s ",
"i s X.X.X.X.X.X.X.X.X.X.X.X.X.X.X.X.X.X.O.b.h.X.X.l.b.d i h h s s i s u u u s X.X.s i s s X.X.X.X.X.s s i u u u u u u u ",
"X...s s X.s i i i s X.X...s s X.X.X.X.X.X.z.j t 9 3 g 2 @ 4 2 + + @ $ 7 2 3 e t i u i i s ..X...i i u u u u u u u u u i ",
"X.i u u u u u s s s s s s s s s i s s i e a e @ M J +.@ + 4 + + 6 & @ / / # ( ( M 5 e i i i i s s s i i u u u i i s ..X.",
"X...i s s X.X.X.X.X...s i i u u u e $ + + 0 6 ( =.( 8 + J w.>.( = J J # ,.M & ;.V.;.% 5 ..X.X.X.X.X.X.X.X.X.X.X.X.X.X.X.",
"k.X.X.X.X.X.X.X.s i u u u u u e # + 6 ( J @ K ;.N.-.6 # # ( y.N.u.M M = M K + = / -.K + i i s X.X.X.X.X.X.X.X.X.X.X.X.X.",
"..X.X.X.X...i i ..s u u u t $ + + + % J J & & [ m.N.N.e.= @ J =.M.>.J @ 7 / =.[ P = @ + i s i i i s ..X.X.X.X.X.X.X.X.X.",
"i i i i X.X...s X.X.X.s u $ M & + # M H K J * # M J } m.J M * J ( = = =.r.r.,.:.J + + + s X.X.X.s s s X.X.X.X.X.X.s s ..",
"u u u u i i i i X.X.X.i @ K y.J + J e.m.V.N.[ @ * M @ 6 K = ( J = J =.r.-.[ [ [ [ N @ 8 s X.X.X.X.X.X.X.X.X.X.X.s u u i ",
"X.s i u u u i s s X.X.$ + K M + + + = K ( =.=.N # ;.=.& * # [ M J / ( [ [ ( W R i u u u u X.X.X.X.X.X.X.X...i i u u u u ",
"X.X.X.X.X.X.X.X.X.X.r + + + @ M K K @ & # % = N + K N.;.M + @ M K * ( [ / i u u u u u u u s X.X.X.X.X.X.X...X.X.X.s i u ",
"X.X.X.X.X.X.X.X.X.X.5 * = & ( m.M.,.J M ;.( M M & % -.m.[ @ M J # ( [ / t u u u u a ..X.X.X.X.X.X.X.X.X.X.X.X.X.X.X.X.X.",
"X.X.X.X.X.X.X.X.X.X.$ M ( # M ( n.N.e.= ( N.n.[ ( # M [ J 7 M + M [ / u u u i X.O.X.X.X.X.s s i ..X.X.X.X.X.X.X.X.X.X.X.",
"X.X.X.X.X.X.X.X.X.X.M * e.J + + * 6 M C & ;.C.,.[ M & M J 6 + & [ / ..u u u X.X.s u u i i i s s X.X.X.X.X.X.X.X.X.X.X.X.",
"..X.X.X.X.X.X.X.X.X./ J / M.u.,.e.n.} * + * =.[ / # = J % + + P ( i s u u u s X.X.i i i s X.X.X.X.X.s i i X.X.X.X.X.X.X.",
"s s X.X.X.X.X.X.....^ [ ( K ;.>.>.>.} K # + * M 6 M % + + + M ( u u i i i i i i i i s X.X.X.X.X.X.i u i a i i s ..X.X.X.",
"X.X.X.X.X.X.X.s i u i ) [ [ ( N = @ # # # % % @ + + + + + * W u u u u i s X.X.X.s i i i i i i ..X.X.i ..X.X.s s s s X.X.",
"X.X.X.X.X.X.X.s i s X.X.~ W J J 7 & + + + + + + + + # 8 t u Z.u i i i i ..X.X.X.X.X.X...s X.X...s i i s X.X.X.X.X.X.X.X.",
"X.X.X.X.X.X.X.X.X.X.X.X.X.X...r 8 2 $ $ $ $ 5 9 r Q o.i u u 7.i ..X.Z.u u i i i i i s s s i i u u u u i X.X.X.X.X.X.X.X.",
"X.X.X.X.X.X.X.X.X.X.X.X.X.X.X.X.X.X...s X.X.X.X.<.+.H.^ u u i ..X.<._.X.u u u u u u u u u u u u u u u u X.X.X.X.X.X.X.X.",
"X.X.X.X.X.X.X.X.X.X.X.X.X.s i i i i u u u i i i _ i U.H.i u u i X.F.W.X.X.s i u u u u u u u u u i s s X.O.X.X.X.X.X.X.X.",
"i i i i i s X.X.X.X.X.s i u u u u u u u u u u i u 3.(.T.i _ p Q  .E.2.X...X.X.O.X.i u u u u X.X.X.X.X.X.X.s s X.X.X.X.X.",
"X.X.X.s i i u i i i i u u u u u u u u u u u  .^ ^ U.T.4.u 7.i ~ a.2.u u u i s X.X.X.u u u X.X.s i i i i u u u i i s i i ",
"s i u u u u u u u u u i i i i i ..X...s s ` P.` 3.(.3.i i i i ^ H.X.X.......s ..X.s u u u X.X...i u i i s X.X.X.X.X.X.X.",
"u u u u u u u u i u i s ..s i u u i i s s f.(.$.o.K.#.i i u u i o.1.+.#.X.X.X.X.X.s i i u s X.X.....X.X.X.X.X...s i i u ",
"i i i i s s s i X.X.s i ..X...s u u u u i P.(.K.` Q  .i u u <.<.u +.$.f.X.X.X.X.X.X.X.X...X.X.X.X.X.X.X.X.X.s i u u u u ",
"s s s s X.s i s X.s u i s X.X.X.X.s u u i P.(.(.T.K.9. .i ~ ` +.X.X.d.q.X.X.0.X.X.X.X.X.X.X.X.X.X.X.X.X.X.X.X.X.X.X.s i ",
"s s s i i u u u s i u u u i s X.X.X.O.O.X.H.(.).).(.(.(.T.H.$.0.i.X.q.#.X.X.$.X.X.X.X.X.X.X.X.X.X...s s s s i i i i i s ",
"u u u u u u u u u X.i i u u u i i i i ` | 0.(.(.(.(.(.(.(.(.~.p.p.H.~ i s X.s s i i X.X.X.X.X.X.s i u u u u u u u u u u ",
"u u u u u u i s X.X.X.X.X.s s s s s s ' F.X.H.(.).(.(.(.(.(.(.(.p.Y.H.o.<.8.s X.X.s i i i s s i u u u u u u u u u u u u ",
"u u u s X.X.X.X.X.X.X.X.X.X.X.X.X.X.X.<._.+.#.Y.^.).(.(.(.(.(.(.T.I.(.t.A.1.s i u u u u u u u u u u i u i i i u i i i u ",
"u i X.X.s i s s i i u i i s s s i i X.<.].| o.f./.~.(.(.(.(.(.(.).(.(.I.7.Q ` u u u u u u u i u u u u u i i s s X.X.X.X.",
"u a X.X.i i u u i s X.X.X.X.X.X.X.s i ' _.` t.K.XX^.(.(.(.(.^.).(.~.(.(. .Q g.i i i u u i i s s s s s X.X.X.X.X.X.X.X.X.",
"u i X.X.X.s s ..X.X.X.X...s i i u u u p A.i 6.(.oX^.).).(.(.^. X(.(.(.(.6.| T.| u u u u i s X.X.X.X.X.X.X.X.X.X.X.X.X.X.",
"s s ..X.X.X.s i X.X...i u u u u u u u u _ ~ I.~.}.).)..X X).).}.).(.(.(.H.t.(.f.s i i X.X.i u i s ..X.X.X.X.X.X.X.X.X.X.",
"i i s s X.X.s s X.X.X.X.s s i i i i i i Q g.(./.oX).(. X|.oX).}.~./.).(.U.H.(.J.X.s ..X.X.X.X.X...X.X.X.X.X.X.s i s i i ",
"X.X...s i u u i s X.X.X.X.X.X.X.X.X.X.X.3.(.(./.^.(.).{.|.}.).[.).).).(.(.R.(.P.i u i ..X.X.X.X.X.X.X.X.X.X.s u i s s s ",
"i i u u u u u u i X.X.X.X.X.X.X.X.X.X.X.f.(.(.^.~.(./.|.|.{.).^.(.^.^.(.(.(.(.K.i u u i X.X.X.X.X.X.X.X.X.X.X.s X.X.X.X.",
"u u u u u u u i s O.s i s X.X.X.X.X.X.X.t.(.(.).).(.oX|.|..X(.).)..X/.(.(.(.(.G.i i i X.O.X.X.X.X.X.X.X.X.X.X.X.X.X.X.X.",
"u u u i s X.X...s u u u u u i ..X.X.X.X.{ T.(.(.(.(.}.|.|.oX(.).^.^.~.(.).).(. .u u u i s X.X.X.X.X.X.X.X.X.X.X.X.X.X.X.",
"u u X.X...s ....X.X.s i u u u u s ..X.X.s f.(.(.). X}.|.|.}.~.^.^. X).(.).).J.X.i u u u u i ....X.X...s s X.X.X.X.X.X.s ",
"u a X.X.s X.X.X.X.X.X.X.X...X.X.X.X.X.....o.K.(.(.{.|.|.|.|.[.}.XXoX{.).(.P.+.X.X.X...X.X.X.X.X.X...s i i s s i s X.s u ",
"u i X.X.X.X.X.X.X.X.X.X.X.X.X.X.W E D D v v Z s.(..X|.|.|.|.|.|.|.{.}.!.5.F y i i i y R ~ X.X.X.X.X.X.X.s u u i ..X.X.s ",
"d s X.X.X.X.X.X.X.X.X.X.X.X.X.^ [ I c c l O O O %.L.}.|.|.|.|.|.|.{.Q.L o , < < < x b &.^ X.X.X.X.X.X.X.X.i i ..X.X.X.X.",
"X.X.X...s i s X.X.X.X.X.X.X.X.^ Y N . o : l c l o O U S._.'.`.D.S.T x O . . X ; q y ! ^ X.X.X.X.X.X.X.X.X.s X.X.X.X.s X.",
"X.X.X.u u i i i s s X.X.X.X.X.~ Y I l O l l o X o o c   G z l . O o O o l n c l : J Y ^ X.X.X.X.X.X.X.X.X.X.X.X.X.s u ..",
"s X.X.s i X.X.X.a i i s X.X.X.^ Y Y V l o - w < < l l X D O c   b O : l o O c x I Y [ W X.X.X.X.X.X.X.X.X.X.X.X.X.s u X.",
"X.s s i s X.X.X.X.X.X.X.X.X.X.^ [ [ m - w A x 1 z c . ; n l n   < c o S l : B V [ Y Y ~ X.X.s i i i i i i s X.X.X.X.i X.",
"i u u u u s X.X.X.X.X.X.X.X.X.~ Y P q i [ v w Z b O   r n l c o , n o y G [ ] Q ) ) ~ X.X.X.i i s X.X.X.X...X.X.X.X.i X.",
"u u u u u u O.X.X.X.X.X...s X.X.~ Q i i ] r p [ [ m - E ( [ ( J > V K W X.^ X.X.X.X.X.X.X.X.X.X.X.X.X.X.X.X.X.X.X.X...s ",
"u u u s s X.X.X.X.X.X.s u u i ..X.X.X.X.i i u p W W t W *.*.&.*.P ] [ ) X.X.X.X.X.X.X.X.X.X.X.X.X.X.X.X.X.X.X.X.X...X.X.",
"X.X.X.X.X.X.X.....X.X.s u u u u i i X.X.X.X.O.X.u u i u W [ *.&.] ~ X.X.....X.X.X.X.X.X.X.X.X.X.X.X.X...s s s i i u u i ",
"X.i i i s i i u u i s s i i i u u u i u i s X.X.s u i i O.X.s i i i i i u u i s s s i i ..X.X.X.X.X.s i u u u u u u u u ",
"X.i u u i i s X.X.X.X.X.X.s i i i i i i i i i s s u u i X.X.s u u i i s ..X.X.X.X.X...s i i i i i i u u u u u u u u u u "
};
