/* XPM */
static char *_64888018e00472baacf4c12157c4f9duKEtPCmfWS17Yu7u[] = {
/* columns rows colors chars-per-pixel */
"60 60 177 2 ",
"   c #66170F",
".  c #6A170F",
"X  c #6C1A12",
"o  c #731A11",
"O  c #7B1E13",
"+  c #662400",
"@  c #692602",
"#  c #6C2905",
"$  c #6B2C0B",
"%  c #702C07",
"&  c #732E09",
"*  c #782D0E",
"=  c #77310B",
"-  c #7A340D",
";  c #6B2318",
":  c #732116",
">  c #7D2214",
",  c #7C2B14",
"<  c #76271A",
"1  c #7A2418",
"2  c #732D1E",
"3  c #6D3214",
"4  c #713315",
"5  c #7E3710",
"6  c #7E3913",
"7  c #72361B",
"8  c #7F341F",
"9  c #763A1E",
"0  c #7A3B1E",
"q  c #742F20",
"w  c #763421",
"e  c #753B23",
"r  c #793F26",
"t  c #753E28",
"y  c #7A3D28",
"u  c #7B4024",
"i  c #77412D",
"p  c #7A432E",
"a  c #7C4A2F",
"s  c #7E4631",
"d  c #7D4A35",
"f  c #7C4D3B",
"g  c #7F503E",
"h  c #7F5646",
"j  c #7D5748",
"k  c #7F5C4E",
"l  c #7F5F53",
"z  c #822116",
"x  c #822915",
"c  c #852518",
"v  c #8C2619",
"b  c #80281B",
"n  c #8C2B1B",
"m  c #912A1C",
"M  c #843B14",
"N  c #893F17",
"B  c #8E331B",
"V  c #843C1D",
"C  c #8B3E19",
"Z  c #93331C",
"A  c #933C19",
"S  c #843323",
"D  c #8A3424",
"F  c #843A26",
"G  c #823C28",
"H  c #8D421A",
"J  c #91461D",
"K  c #964B1E",
"L  c #994A1E",
"P  c #9C531F",
"I  c #834225",
"U  c #8B4627",
"Y  c #8D4A24",
"T  c #82462C",
"R  c #8A4728",
"E  c #844A2D",
"W  c #8B4D2C",
"Q  c #914721",
"!  c #9A4221",
"~  c #954A21",
"^  c #9A4D24",
"/  c #964D28",
"(  c #87552A",
")  c #8D522D",
"_  c #965024",
"`  c #9D5124",
"'  c #95552D",
"]  c #9D522A",
"[  c #925E2E",
"{  c #9B5B2E",
"}  c #804731",
"|  c #814832",
" . c #8A4E31",
".. c #824E3A",
"X. c #8C5230",
"o. c #81513E",
"O. c #955632",
"+. c #955931",
"@. c #9A5A31",
"#. c #A15623",
"$. c #A45826",
"%. c #A15328",
"&. c #A3552A",
"*. c #A2562C",
"=. c #A4572E",
"-. c #A45B2D",
";. c #AA5A2F",
":. c #A45C31",
">. c #AB5D33",
",. c #AB5E34",
"<. c #946529",
"1. c #9C692D",
"2. c #A5622E",
"3. c #AE692F",
"4. c #B6622A",
"5. c #AA7D29",
"6. c #B8702F",
"7. c #A66332",
"8. c #AD6135",
"9. c #AE6832",
"0. c #AD6138",
"q. c #AF633A",
"w. c #B16034",
"e. c #B36C32",
"r. c #B2663D",
"t. c #B4693F",
"y. c #B77031",
"u. c #BC7331",
"i. c #C57A2F",
"p. c #D27428",
"a. c #C27731",
"s. c #C47931",
"d. c #C97D30",
"f. c #835340",
"g. c #825746",
"h. c #8C5844",
"j. c #825949",
"k. c #835C4D",
"l. c #815F51",
"z. c #836052",
"x. c #856255",
"c. c #B66A41",
"v. c #BA6E45",
"b. c #BC7047",
"n. c #BD7248",
"m. c #C0744B",
"M. c #C2774E",
"N. c #C57A51",
"B. c #B28B24",
"V. c #BE9824",
"C. c #CB8026",
"Z. c #D38D20",
"A. c #DC832A",
"S. c #D78E2D",
"D. c #CE8130",
"F. c #D58631",
"G. c #DC8B32",
"H. c #E18E32",
"J. c #E59131",
"K. c #EC9631",
"L. c #EF9832",
"P. c #F49C32",
"I. c #F89F33",
"U. c #FCAC2F",
"Y. c #FCBF27",
"T. c #FCB32C",
"R. c #FCBC29",
"E. c #FCA332",
"W. c #FCA930",
"Q. c #F4D31C",
"!. c #FCDA1E",
"~. c #FCE51A",
"^. c #FEEB1A",
"/. c #FCC426",
"(. c #F7C921",
"). c #FCCB23",
"_. c #FCD122",
/* pixels */
"| | | | } s | | | | | | | | | | | | | | | | | | d o.s p } | | | | | | } s p p p s | } s } | | | | | } | | | | | | s p s ",
"| | } p p i p s | | | | | | | | | | | | | | | | j.f.p i i s s s } } | | | | | s s p i i p | | | | | | | | | | | s i p p ",
"| | | p p | | s i p p } | | | | | | | | | | | } k.f.| s s f i i i i i p p p i i i i i i i s | | | | | | | | | | } s | | ",
"s | | s s | | | | | } } | | | | | s p p g f p p k.g.| | f.j.i i i i i i i i i i i i i i s | | | | | | | | | | | | | | | ",
"s p i i p s | | | | | | | | | | | i p s j.o.i i j k s } o.x.....| s i i i i i i s s | | | | | | | | | | | | | | | | | | ",
"i i i i i p | | | | | | | | | | | s | | g.k.p p f l f p s z.f } | | | i i i p ..| s s } } s p p s } | | } s s | | | | | ",
"i i i i p s ..| | | | | | | | | | | | | | x.o.| | k.l.s p h g.p } | | i i i | | s i i i i i p s s s s s s s s p s s s s ",
"p s | | | | | | | | | | | | | | | | | | | j.z.| | ..x.f p d f r p y p i i i s | | s p s s | | | | | s s p i i i i i i i ",
"| } s s | s p p p s | | } s s | | | | | | o.l.7 3 $ a 3 + 3 $ + + + % H $ & V 0 e i p p s } | } p p i i i i i i i i i p ",
"| p i i i i i s s s s s s s s s p s s u 7 3 i & H ^ W $ # u % @ N H % N =.% ~ ,.] = 7 p p p p s s s p p i i i p p s } | ",
"| } p s s | | | | | } s p p i i t 3 # = & $ 6 ` 0.` 3 + M 0.m.n.~ N ~ & *.H @ =.n.,.& 4 } | | | | | | | | | | | | | | | ",
"h.| | | | | | | s p i i i i i 3 + + # ^ ` N = ` M.n.0.J & = ^ r.M.=.N # = N M N N H = $ p p s | | | | | | | | | | | | | ",
"} | | | | } p p } s i i i t $ @ + + + # - = @ - ^ 8.t.m.~ & % ~ >.~ = N -.>.w.;.J # + $ p s p p p s } | | | | | | | | | ",
"p p p p | | } s | | | s p $ ` *.& & ^ c.v.r.^ # @ # = J ^ - J 5 H = ^ w.>.&.` ` H # + 7 s | | | s s s | | | | | | s s } ",
"i i i i p p p p | | | } $ = %.N @ @ 5 %.:.8.,.H @ ` H # N & ` ~ - ^ %.&.` ` ^ / R u e i s | | | | | | | | | | | s i i p ",
"| s p i i i p s s | | 9 + + & @ = N # # & 5 H ~ % H n.] & + - & ^ 5 ~ ` ^ R p p i i i i i | | | | | | | | } p p i i i i ",
"| | | | | | | | | | | # = + = &.0.>.~ 5 ~ H = % @ % :.n.^ # # K & J ` ^ p i i i i i i i i s | | | | | | | } | | | s p i ",
"| | | | | | | | | | p + ~ 5 M ^ t.N.v.N H b.t.%.^ % M &.^ # H # 5 ` ^ p i i i i i s } | | | | | | | | | | | | | | | | | ",
"| | | | | | | | | | T % H :.@ + & H ] ^ = ] M.t.` H # J M H @ # ^ ^ T i i i p | ..| | | | s s p } | | | | | | | | | | | ",
"| | | | | | | | | | T ^ M r.t.] ` ] ] M + & ] =.^ = # N M + + H ^ T | i i i | | s i i p p p s s | | | | | | | | | | | | ",
"} | | | | | | | | | | / ^ J ] 8.8.8.,.^ 5 + = N M 5 M # + + - ^ p p s i i i s | | p p p s | | | | | s p p | | | | | | | ",
"s s | | | | | | } } | E ^ ` ^ H M & # # # # & & @ + + + + # Y ( i i p p p p p p p p s | | | | | | p i p s p p s } | | | ",
"| | | | | | | s p i p p p R Q H H M @ + + + + + + + @ 4 e p i p E E i p s | | | s p p p p p p } | | p } | | s s s s | | ",
"| | | | | | | s p s | | | | | p 9 4 $ $ $ $ $ 4 e p } } p <.p ( p p i p } | | | | | | } s | | } s p p s | | | | | | | | ",
"| | | | | | | | | | | | | | | | | | | | s | | | | | | p i i i B.} s p i i p p p p p s s s p p i i i i p | | | | | | | | ",
"| | | | | | | | | | | | | | | | | | } s | | | | } | s i i i p V.| | | s i i i i i i i i i i i i i i i i | | | | | | | | ",
"| | | | | | | | | | | | | s p p p p i i i p p p i i i p p 2.p <.s [ | | | s p i i i i i i i i i p s s | ..| | | | | | | ",
"p p p p p s | | | | | s p i i i i i i i i i i i i i E ) i i.S.W i p s | } | | ..| p i i i i | | | | | | | s s | | | | | ",
"| | | s p p i p p p p i i i i i i i i i i i i i p E ) E i ) U.J.W i i E i p s | | | i i i | | s p p p p i i i p p s p p ",
"s p i i i i i i i i i p p p p p } | } s s p p p W { p p p p P.E.G. .| 9.| }  .| | s i i i | | } p i p p s | | | | | | | ",
"i i i i i i i i p i p s } s p i i p p s s s s } @.s.s y.E { J.E.E.7.X.@.9.| e. .| s p p i s | | } } | | | | | } s p p i ",
"p p p p s s s p | | s p } | } s i i i i i i i i u.3.) K.3.-.I.Y.E.F.5. .F.@.O.| | | | | } | | | | | | | | | s p i i i i ",
"s s s s | s p s | s i p s | | | | s i i i i i p d.W d.K.u.) E.U.W.G.1.+.E.e.| | | | | | | | | | | | | | | | | | | | s p ",
"s s s p p i i i s p i i i p s | | | ....| s p p 6.W P.P.9.u.E.E.U.J.@.H.E.e.| | | | | | | | | | | } s s s s p p p p p s ",
"i i i i i i i i i | p p i i i p p p p | | | p p ' 2.E.E. .G.E.E.E.P.K.E.E.9.| | p p | | | | | | s p i i i i i i i i i i ",
"i i i i i i p s | | | | | s s s s s s s | | p i p d.E.E.) E.E.E.E.E.U.U.E.@.@.u.| s p p p s s p i i i i i i i i i i i i ",
"i i i s | | | | | | | | | | | | | | | | | | p p 2.F.E.E.s.E.E.E./.T.T.E.I.e.y.H.p i i i i i i i i i p i p p p i p p p i ",
"i p | | s p s s p p i p p s s s p p | | | | | @.d.F.E.E.I.E.E.E._.T.U.U.E.K.I.H.p i i i i i p i i i i i p p s s | | | | ",
"i s | | p i i i p s | | | | | | | s p p p s s a.G.s.E.E.E.U.W.T.U.E.E./.E.E.E.a.p p i i p p s s s s s | | | | | | | | | ",
"i p | | | s s } | | | | } s p p i i i i i i p D.E.G.E.T.E.Y.W.!.W.E.E.!.E.E.I.' i i i i p s | | | | | | | | | | | | | | ",
"s s } | | | s p | | } p i i i i i i i i i i p F.E.E.E.R.T.E.U.^./.T.W.).E.E.H.| | p p | | p i p s } | | | | | | | | | | ",
"p p s s | | s s | | | | s s p p p p p p p p  .F.E.E.E.E.).E.Y.^.!.!.U.U.E.W.s.:.e.s } | | | | | } | | | | | | s p s p p ",
"| | } s p i i p s | | | | | | | | | | | i p X.K.E.E.R.U.~.R.).^.^.^.T.Y.U./.L.I.d.i p } | | | | | | | | | | s i p s s s ",
"p p i i i i i i p | | | | | | | | | | | s |  .E.E.E./.!.^.~.~.^.^.^.~.).T.T.E.E.y.i i p | | | | | | | | | | | s | | | | ",
"i i i i i i i p s ..s p s | | | | | | | s p p I.E.E.Y.^.^.^.^.^.^.^.^.).T.E.E.E.{ p p | ..| | | | | | | | | | | | | | | ",
"i i i p s | | } s i i i i i p } | | | | p i p F.E.E.R.^.^.^.^.^.^.^.^.!./.E.E.F.p i i p s | | | | | | | | | | | | | | | ",
"i i | | } s } } | | s p i i i i s } | | s p i { I.E.T.~.^.^.^.^.^.^.^.^./.E.P.@.p i i i i p } } | | } s s | | | | | | s ",
"i s | | s | | | | | | | | } | | | | | } p y G G 4.I.E.!.^.^.^.^.^.^.^.^.U.I.7.| | | } | | | | | | } s p p s s p s | s i ",
"i p | | | | | | | | | | | | | | Y ^ Z m m m m c > Z p.T.~.^.^.^.^.^.^./.A.V 2 q 2 8 8 _ | | | | | | | | s i i p } | | s ",
"d s | | | | | | | | | | | | | | ` ` x O O X o z v O z A C.(.~.~.~.Q.Z.A X < S F D D ! ` | | | | | | | | | p p } | | | | ",
"| | | } s p s | | | | | | | | | _ K > z v v v o . o o o S m x * , > o > O O o X 2 I E | | | | | | | | | | s | | | | s | ",
"| | | i i p p p s s | | | | | | _ ` C O z O X < : O v X D > z . c o O o O v v n J P P | | | | | | | | | | | | | | s i } ",
"s | | s p | | | s p p s | | | | P ` L > X 2 S 1 b c O ; n z v   n z 1 c O o n B ` P _ | | | | | | | | | | | | | | s i | ",
"| s s p s | | | | | | | | | | s ~ ` H 2 U B 1 S c v . w m z v . b n : F n K Y U P _ E | | | s p p p p p p s | | | | p | ",
"p i i i i s | | | | | | | | | | T Y p i ` C y L L ,   F A C A , : n , T R _ E | E | | | | | p p s | | | | } | | | | p | ",
"i i i i i i ..| | | | | } s | | | s p i p p i T ` K w Y $.$.$.` H ^ #.' | | | | | | | | | | | | | | | | | | | | | | } s ",
"i i i s s | | | | | | s i i p } | | | | s p i i i i i p ` $.#.#._ W W | | | | | | | | | | | | | | | | | | | | | | } | | ",
"| | | | | | | } } | | s i i i i p p | | | | ..| i i i i p  . .W | | | | } } | | | | | | | | | | | | | } s s s p p i i p ",
"| p p p s p p i i p s s p p p i i i p i p s | | s i i i ..| s p p p p p i i p s s s p p } | | | | | s p i i i i i i i i ",
"| p i i p p s | | | | | | s p p p p p p p p p s s i i p | | s i i p p s } | | | | | } s p p p p p p i i i i i i i i i i "
};
