/* XPM */
static char *ff0f4c1aa2c54a5b8cb4050d1b587c35Qg88YI0H486ngzOh[] = {
/* columns rows colors chars-per-pixel */
"60 60 177 2 ",
"   c #65150E",
".  c #6C170F",
"X  c #6E1B0F",
"o  c #671810",
"O  c #6B1A11",
"+  c #721A11",
"@  c #7B1E14",
"#  c #662400",
"$  c #692602",
"%  c #6D2905",
"&  c #6C2D0C",
"*  c #712C07",
"=  c #732E09",
"-  c #6D300F",
";  c #76310B",
":  c #7A330D",
">  c #6A2014",
",  c #6F2A1D",
"<  c #752314",
"1  c #7D2113",
"2  c #792816",
"3  c #73261A",
"4  c #7B261A",
"5  c #73291C",
"6  c #7D2B1D",
"7  c #6D3214",
"8  c #6C3719",
"9  c #713315",
"0  c #7E3710",
"q  c #7F3913",
"w  c #71361C",
"e  c #75391D",
"r  c #7A3B1E",
"t  c #773222",
"y  c #7D3423",
"u  c #753B24",
"i  c #7A3F27",
"p  c #753D28",
"a  c #7A3F29",
"s  c #704127",
"d  c #7B4023",
"f  c #77412D",
"g  c #7A432E",
"h  c #7E4A2C",
"j  c #7E4631",
"k  c #7C4933",
"l  c #7C4D3A",
"z  c #7F513F",
"x  c #7F5646",
"c  c #7D5749",
"v  c #7F5D4F",
"b  c #7F5F53",
"n  c #842316",
"m  c #822915",
"M  c #85261A",
"N  c #8B2619",
"B  c #842C1D",
"V  c #8C2A1A",
"C  c #912B1B",
"Z  c #843B14",
"A  c #893E17",
"S  c #8B321C",
"D  c #803E1D",
"F  c #8C3D1B",
"G  c #91341A",
"H  c #913C1D",
"J  c #893322",
"K  c #8D3B23",
"L  c #853E2A",
"P  c #85401E",
"I  c #8C421A",
"U  c #904512",
"Y  c #91461C",
"T  c #9D441C",
"R  c #954A1E",
"E  c #9B4B1E",
"W  c #9D521F",
"Q  c #864224",
"!  c #884526",
"~  c #8C4B25",
"^  c #81452D",
"/  c #894728",
"(  c #834A2E",
")  c #8A4C2C",
"_  c #914624",
"`  c #944B23",
"'  c #9B4E24",
"]  c #8E512E",
"[  c #8A582B",
"{  c #975024",
"}  c #9D5224",
"|  c #94562E",
" . c #9D522A",
".. c #9B5B2E",
"X. c #804731",
"o. c #814832",
"O. c #894E32",
"+. c #824F3B",
"@. c #8A5131",
"#. c #82513E",
"$. c #935532",
"%. c #975831",
"&. c #9A5A31",
"*. c #A25724",
"=. c #A45826",
"-. c #A2542A",
";. c #A2552A",
":. c #A2562D",
">. c #A35D2C",
",. c #A95A2E",
"<. c #B45822",
"1. c #A35D32",
"2. c #AA5D33",
"3. c #976928",
"4. c #9B692C",
"5. c #9F7426",
"6. c #A5632F",
"7. c #AB662E",
"8. c #AD682F",
"9. c #B76F2F",
"0. c #A77E25",
"q. c #BD742F",
"w. c #A76432",
"e. c #AC6136",
"r. c #AD6831",
"t. c #AF6239",
"y. c #B16134",
"u. c #B26C31",
"i. c #B2663D",
"p. c #B4683F",
"a. c #BB7330",
"s. c #CF7827",
"d. c #C17632",
"f. c #C57A31",
"g. c #CA7E30",
"h. c #835341",
"j. c #825746",
"k. c #8C5844",
"l. c #835B4C",
"z. c #825F51",
"x. c #845F51",
"c. c #846254",
"v. c #B76A41",
"b. c #BB6F46",
"n. c #BD7148",
"m. c #C0744B",
"M. c #C2774E",
"N. c #C3784F",
"B. c #C57A51",
"V. c #BE8F15",
"C. c #B28828",
"Z. c #D9A81A",
"A. c #CD8226",
"S. c #CF8132",
"D. c #D38431",
"F. c #D88731",
"G. c #DB8A31",
"H. c #E78E2D",
"J. c #E18E31",
"K. c #EB9532",
"L. c #EF9932",
"P. c #F39B32",
"I. c #F89F32",
"U. c #FCAC2E",
"Y. c #FCB42C",
"T. c #FBB929",
"R. c #FCA332",
"E. c #FCA930",
"W. c #E3C218",
"Q. c #F0C41F",
"!. c #F4CC1E",
"~. c #FDDA1E",
"^. c #FDE41B",
"/. c #FEEB1A",
"(. c #FCC326",
"). c #FCCB23",
"_. c #FDD321",
/* pixels */
"o.o.o.o.X.j o.o.o.o.o.o.o.o.o.o.o.o.o.o.o.o.o.o.k #.j g X.o.o.o.o.o.o.X.j g g g j o.X.j X.o.o.o.o.o.X.o.o.o.o.o.o.j g j ",
"o.o.X.g g f g j o.o.o.o.o.o.o.o.o.o.o.o.o.o.o.o.l.#.g f f j j j X.X.o.o.o.o.o.j j g f f g o.o.o.o.o.o.o.o.o.o.o.j f g g ",
"o.o.o.g g o.o.j f g g X.o.o.o.o.o.o.o.o.o.o.o.X.x.h.o.j j l f f f f f g g g f f f f f f f j o.o.o.o.o.o.o.o.o.o.X.j o.o.",
"j o.o.j j o.o.o.o.o.X.X.o.o.o.o.o.j g g z l g g l.j.o.o.h.j.f f f f f f f f f f f f f f j o.o.o.o.o.o.o.o.o.o.o.o.o.o.o.",
"j g f f g j o.o.o.o.o.o.o.o.o.o.o.f g j l.#.f f c v j X.#.c.O.O.o.j f f f f f f j j o.o.o.o.o.o.o.o.o.o.o.o.o.o.o.o.o.o.",
"f f f f f g o.o.o.o.o.o.o.o.o.o.o.j o.o.j.l.g g l b l g j c.l X.o.o.o.f f f g O.o.j j X.X.j g g j X.o.o.X.j j o.o.o.o.o.",
"f f f f g j O.o.o.o.o.o.o.o.o.o.o.o.o.o.+.c.#.o.o.z.z.j g j.x g X.o.o.f f f o.o.j f f f f f g j j j j j j j j g j j j j ",
"g j o.o.o.o.o.o.o.o.o.o.o.o.o.o.o.o.o.o.o.l.x.o.o.+.c.l g l l i g a g f f f j o.o.j g j j o.o.o.o.o.j j g f f f f f f f ",
"o.X.j j o.j g g g j o.o.X.j j o.o.o.o.o.o.#.v w 7 & k 7 # 8 & # # # = I & = D r u f g g j X.o.X.g g f f f f f f f f f g ",
"o.g f f f f f j j j j j j j j j g j j i 9 7 s ; Y ' ) % % d * $ A I % I :.* ` 2. .; w g g g g j j j g g f f f g g j X.o.",
"o.X.g j j o.o.o.o.o.X.j g g f f p 7 % ; = & q } t.' - # Z i.m.n.` Z ' = :.I $ 1.n.2.= 9 X.o.o.o.o.o.o.o.o.o.o.o.o.o.o.o.",
"k.o.o.o.o.o.o.o.j g f f f f f 7 # # % ' } Z ; } N.n.e.Y * ; ' i.M.:.A % ; Z Z A A I ; & g g j o.o.o.o.o.o.o.o.o.o.o.o.o.",
"X.o.o.o.o.X.g g X.j f f f p % $ # # # % : ; $ : ' e.p.m.` ; = ` 2.` ; I ,.2.y.,.I % # & g j g g g j X.o.o.o.o.o.o.o.o.o.",
"g g g g o.o.X.j o.o.o.j g &  .-.* ; } v.b.i.' $ $ % ; ` ' : Y q I ; ' y.2.-.} } I $ # e j o.o.o.j j j o.o.o.o.o.o.j j X.",
"f f f f g g g g o.o.o.X.% ; -.Z # $ 0 -.2.e.2.I $  .I % A = } ` : ' -.-.} } ' ` ) d u f j o.o.o.o.o.o.o.o.o.o.o.j f f g ",
"o.j g f f f g j j o.o.e # $ = $ : Z % % = Z I ` % I n.} = # : = ' 0 ' } ' ! g g f f f f f o.o.o.o.o.o.o.o.X.g g f f f f ",
"o.o.o.o.o.o.o.o.o.o.o.$ ; # ; -.t.2.` 0 ` A ; * $ = 2.n.' % % R = Y } ' g f f f f f f f f j o.o.o.o.o.o.o.X.o.o.o.j g f ",
"o.o.o.o.o.o.o.o.o.o.g # ` : Z ' v.B.v.Z I n.i.-.' * Z -.' % I % Z } ' g f f f f f j X.o.o.o.o.o.o.o.o.o.o.o.o.o.o.o.o.o.",
"o.o.o.o.o.o.o.o.o.o.^ % I 1.$ # ; I  .' ; -.M.i.} I % Y Z I $ % ' ' ^ f f f g o.O.o.o.o.o.j j g X.o.o.o.o.o.o.o.o.o.o.o.",
"o.o.o.o.o.o.o.o.o.o.^ ' Z i.p. .{  . .Z # = -.:.' ; $ Z Z # # I ' ( o.f f f o.o.j f f g g g j j o.o.o.o.o.o.o.o.o.o.o.o.",
"X.o.o.o.o.o.o.o.o.o.o.' ' Y  .e.e.e.2.' 0 # ; Z Z 0 q % # # 0 ' g g j f f f j o.o.g g g j o.o.o.o.o.j g g o.o.o.o.o.o.o.",
"j j o.o.o.o.o.o.X.X.o.( ' } ' I Z = % % % % = = $ # # # # % ! g f f g g g g g g g g j o.o.o.o.o.o.g f g j g g j X.o.o.o.",
"o.o.o.o.o.o.o.j g f g g ^ / _ I I q # # # # # # # # $ 9 u f f f f f f g j o.o.o.j g g g g g g X.o.o.g X.o.o.j j j j o.o.",
"o.o.o.o.o.o.o.j g j o.o.o.o.o.g e 9 & & & & & 9 u g X.X.[ g ( f g g f g X.o.o.o.o.o.o.X.j o.o.X.j g g j o.o.o.o.o.o.o.o.",
"o.o.o.o.o.o.o.o.o.o.o.o.o.o.o.o.o.o.o.o.j o.o.o.o.o.o.g ( h 0.g X.j g f f g g g g g j j j g g f f f f g o.o.o.o.o.o.o.o.",
"o.o.o.o.o.o.o.o.o.o.o.o.o.o.o.o.o.o.X.j o.o.o.o.o.o.j | 8.g 3.X.o.o.X.j f f f f f f f f f f f f f f f f o.o.o.o.o.o.o.o.",
"o.o.o.o.o.o.o.o.o.o.o.o.o.j g g g g f f f g g g 5.f g J.9.f g ] j o.o.o.o.j g f f f f f f f f f g j j o.O.o.o.o.o.o.o.o.",
"g g g g g j o.o.o.o.o.j g f f f f f f f f f f f h f 7.R...f 6...f g j o.X.o.o.O.o.g f f f f o.o.o.o.o.o.o.j j o.o.o.o.o.",
"o.o.o.j g g f g g g g f f f f f f f f f f f f f g 3.D.P.g | K.( g f f f f g j o.o.o.f f f o.o.j g g g g f f f g g j g g ",
"j g f f f f f f f f f g g g g g X.o.X.j j g g ] g ( G.q.g J.K.( O.O.o.X.X.X.j X.o.j f f f o.o.X.g f g g j o.o.o.o.o.o.o.",
"f f f f f f f f g f g j X.j g f f g g j j j o.d.O.$.u.] 8.T.P.) &.%.o.@.o.o.o.o.o.j g g f j o.o.X.X.o.o.o.o.o.X.j g g f ",
"g g g g j j j g o.o.j g X.o.X.j f f f f f f g D...q.) ^ K.T.R.>...f.o.C.o.o.o.o.o.o.o.o.X.o.o.o.o.o.o.o.o.o.j g f f f f ",
"j j j j o.j g j o.j f g j o.o.o.o.j f f f f g G.6.G.| 6.R.R.R.a.1.K.O.4.@.o.o.o.o.o.o.o.o.o.o.o.o.o.o.o.o.o.o.o.o.o.j g ",
"j j j g g f f f j g f f f g j o.o.o.O.O.O.j g D.7.L.f.D.R.R.R.J.$.S.@.o.o.o.o.o.o.o.o.o.o.o.o.o.o.X.j j j j g g g g g j ",
"f f f f f f f f f o.g g f f f g g g g o.o.u.g 8.>.R.P.R.R.R.U.P.$.( [ g j j j j g g o.o.o.o.o.o.j g f f f f f f f f f f ",
"f f f f f f g j o.o.o.o.o.j j j j j j j o.u.a.g 8.R.U.R.R.R.R.R...a.%.O.o.j j o.o.j g g g j j g f f f f f f f f f f f f ",
"f f f j o.o.o.o.o.o.o.o.o.o.o.o.o.o.o.o.o.@.I...D.R.T.E.(.R.R.R.d.P.r.O.$.j j g f f f f f f f f f f g f g g g f g g g f ",
"f g o.o.j g j j g g f g g j j j g g o.o.1.O.R.K.P.U.E.U.~.R.R.R.P.R.D.X.g.f g g f f f f f f g f f f f f g g j j o.o.o.o.",
"f j o.o.g f f f g j o.o.o.o.o.o.o.j g ^ a.&.R.R.R.(.R.R.T.U.Y.R.R.R.P...6.g ) | g g f f g g j j j j j o.o.o.o.o.o.o.o.o.",
"f g o.o.o.j j X.o.o.o.o.X.j g g f f f ..| ) R.R.E.).R.R.R._.Y.U.E.R.R.) g f ..6.f f f f g j o.o.o.o.o.o.o.o.o.o.o.o.o.o.",
"j j X.o.o.o.j g o.o.X.g f f f f f f f ] F.| R.R.E.).R.U.T./.T.T.Y.R.R.&.u.o.D.w.j g g o.o.g f g j X.o.o.o.o.o.o.o.o.o.o.",
"g g j j o.o.j j o.o.o.o.j j g g g g g ( P.G.R.R.R.T.U.)._./.(.Y.Y.R.P.D.P.%.K.%.X.j X.o.o.o.o.o.X.o.o.o.o.o.o.j g j g g ",
"o.o.X.j g f f g j o.o.o.o.o.o.o.o.o.o.o.K.R.R.T.R.T.Y.^././.~.U.R.(.R.R.R.d.f.g f f g X.o.o.o.o.o.o.o.o.o.o.j f g j j j ",
"g g f f f f f f g o.o.o.o.o.o.o.o.o.o.o.K.R.R.).Y._.)./././.^._.E.~.Y.R.R.f.g f f f f g o.o.o.o.o.o.o.o.o.o.o.j o.o.o.o.",
"f f f f f f f g j O.j g j o.o.o.o.o.o.o.G.R.U.R.R._././././././.(.^.).R.R.g.f g f g g o.O.o.o.o.o.o.o.o.o.o.o.o.o.o.o.o.",
"f f f g j o.o.X.j f f f f f g X.o.o.o.o.u.R.).E.(.~././././././.~./._.R.R.a.f f f f f g j o.o.o.o.o.o.o.o.o.o.o.o.o.o.o.",
"f f o.o.X.j X.X.o.o.j g f f f f j X.o.o.O.L.).(._./././././././././._.R.R.1.o.j g f f f f g X.X.o.o.X.j j o.o.o.o.o.o.j ",
"f j o.o.j o.o.o.o.o.o.o.o.X.o.o.o.o.o.o.o.w.T.^.^./././././././././.(.R.G.o.o.o.o.o.X.o.o.o.o.o.o.X.j g g j j g j o.j f ",
"f g o.o.o.o.o.o.o.o.o.o.o.o.o.o.( / L L y 6 <.!./././././././././.^.E.H.! g j X.j g a ( o.o.o.o.o.o.o.o.j f f g X.o.o.j ",
"k j o.o.o.o.o.o.o.o.o.o.o.o.o.o.{ W C C N n n A Z.^././././././.^.Y.s.m + 3 5 4 4 M H } o.o.o.o.o.o.o.o.o.g g X.o.o.o.o.",
"o.o.o.X.j g j o.o.o.o.o.o.o.o.o.W R X + @ @ N N 1 U V.W.^././.Q.A.T M +   o 3 t ^ L _ ) o.o.o.o.o.o.o.o.o.j o.o.o.o.j o.",
"o.o.o.f f g g g j j o.o.o.o.o.o.` W S @ n N @   + . n X K G m X + @ + @ N V n @ < Y ` o.o.o.o.o.o.o.o.o.o.o.o.o.o.j f X.",
"j o.o.j g o.o.o.j g g j o.o.o.o.{ } Y n n o 5 B < n M o J @ N o V + n 1 . M N V } W W o.o.o.o.o.o.o.o.o.o.o.o.o.o.j f o.",
"o.j j g j o.o.o.o.o.o.o.o.o.o.X.W } Y + 5 y V 4 M N + , C n N   M M 3 M n < S H } W ` o.o.o.j g g g g g g j o.o.o.o.g o.",
"g f f f f j o.o.o.o.o.o.o.o.o.o.` W P u { G 5 K V n   y C n V O 4 C O ^ F } ) / { ` o.o.o.o.g g j o.o.o.o.X.o.o.o.o.g o.",
"f f f f f f O.o.o.o.o.o.X.j o.o.o.( g f ` Q g { } Z > Q E E E Z 2 G F ) ) ) o.o.o.o.o.o.o.o.o.o.o.o.o.o.o.o.o.o.o.o.X.j ",
"f f f j j o.o.o.o.o.o.j f f g X.o.o.o.o.g g f g ~ ~ a ~ =.=.*.*.R { } ) o.o.o.o.o.o.o.o.o.o.o.o.o.o.o.o.o.o.o.o.o.X.o.o.",
"o.o.o.o.o.o.o.X.X.o.o.j f f f f g j o.o.o.o.O.o.f f g g ~ } *.} ` ( O.o.X.X.o.o.o.o.o.o.o.o.o.o.o.o.o.X.j j j g g f f g ",
"o.g g g j g g f f g j j g g g f f f g f g j o.o.j f g f O.o.g g g g g g f f g j j j g g X.o.o.o.o.o.j g f f f f f f f f ",
"o.g f f g g j o.o.o.o.o.o.j g g g g g g g g g j j f f g o.o.j f f g g j X.o.o.o.o.o.X.j g g g g g g f f f f f f f f f f "
};
