/* XPM */
static char *result[] = {
/* columns rows colors chars-per-pixel */
"60 60 230 2 ",
"   c #3F241B",
".  c #1C1437",
"X  c #160E34",
"o  c #241B39",
"O  c #30352D",
"+  c #34363A",
"@  c #2D2B36",
"#  c #331A12",
"$  c #45251C",
"%  c #502A1E",
"&  c #4D2C22",
"*  c #472B21",
"=  c #512F24",
"-  c #5B3629",
";  c #5D392B",
":  c #563226",
">  c #53362C",
",  c #633B2C",
"<  c #653827",
"1  c #743E2A",
"2  c #7B3E27",
"3  c #633D30",
"4  c #693F30",
"5  c #451E10",
"6  c #3A4428",
"7  c #3B4036",
"8  c #4A4E39",
"9  c #77412D",
"0  c #7B432E",
"q  c #6C4334",
"w  c #6B4638",
"e  c #724635",
"r  c #7E4631",
"t  c #7D4A35",
"y  c #744A3B",
"u  c #7A4D3C",
"i  c #724738",
"p  c #7C513D",
"a  c #55672B",
"s  c #617732",
"d  c #251D44",
"f  c #2C2745",
"g  c #3A304F",
"h  c #1E1A41",
"j  c #57394A",
"k  c #433049",
"l  c #6B3E4B",
"z  c #403860",
"x  c #48484A",
"c  c #494658",
"v  c #594B56",
"b  c #565853",
"n  c #784E42",
"m  c #7D5242",
"M  c #78574E",
"N  c #664B57",
"B  c #785959",
"V  c #6F5250",
"C  c #5C654F",
"Z  c #7C625B",
"A  c #6E7352",
"S  c #494663",
"D  c #57536F",
"F  c #695A61",
"G  c #755C69",
"H  c #6B6B67",
"J  c #776466",
"K  c #707178",
"L  c #80452E",
"P  c #804731",
"I  c #814832",
"U  c #834E39",
"Y  c #85513D",
"T  c #8A533D",
"R  c #825544",
"E  c #8A5743",
"W  c #845845",
"Q  c #855B4A",
"!  c #8A5D4B",
"~  c #8C5944",
"^  c #915C46",
"/  c #845758",
"(  c #9B5A5B",
")  c #834C50",
"_  c #A55C5B",
"`  c #8E614E",
"'  c #8D6045",
"]  c #93634E",
"[  c #95624B",
"{  c #8A6658",
"}  c #936552",
"|  c #976955",
" . c #9A6B56",
".. c #936B5B",
"X. c #9C6D5A",
"o. c #946756",
"O. c #9F715C",
"+. c #957056",
"@. c #A2735D",
"#. c #AD675C",
"$. c #896A65",
"%. c #956D64",
"&. c #977468",
"*. c #8B7974",
"=. c #967C74",
"-. c #89746C",
";. c #A47561",
":. c #A67863",
">. c #AA7B65",
",. c #AD7E69",
"<. c #A57869",
"1. c #B37C69",
"2. c #AB7269",
"3. c #805E60",
"4. c #C87267",
"5. c #C1645E",
"6. c #708C2D",
"7. c #758454",
"8. c #778B47",
"9. c #798763",
"0. c #8CB32E",
"q. c #B1ED1F",
"w. c #96C625",
"e. c #A6D537",
"r. c #AADF22",
"t. c #AAE122",
"y. c #B6E839",
"u. c #B0EA23",
"i. c #9DD11E",
"p. c #C1F838",
"a. c #839D46",
"s. c #8DA949",
"d. c #92AC53",
"f. c #858774",
"g. c #96857A",
"h. c #8A956F",
"j. c #AF816B",
"k. c #B3836D",
"l. c #B48369",
"z. c #A78779",
"x. c #B58670",
"c. c #B68973",
"v. c #BB8C74",
"b. c #BD8F78",
"n. c #B58874",
"m. c #BE927B",
"M. c #BD9370",
"N. c #A2907B",
"B. c #9AAA73",
"V. c #A2B671",
"C. c #A1BB5E",
"Z. c #C68E75",
"A. c #DC8671",
"S. c #C1947D",
"D. c #C5957B",
"F. c #D7987C",
"G. c #E58C75",
"H. c #E7957A",
"J. c #F7977A",
"K. c #B4DD4E",
"L. c #AACC53",
"P. c #BBE550",
"I. c #B8E24E",
"U. c #ADCA61",
"Y. c #B4CF71",
"T. c #AFD159",
"R. c #C2DB7E",
"E. c #C2E467",
"W. c #C6E07F",
"Q. c #C0ED50",
"!. c #76758D",
"~. c #807585",
"^. c #7B8197",
"/. c #988B87",
"(. c #9B9797",
"). c #959294",
"_. c #A38B83",
"`. c #A89389",
"'. c #BB9482",
"]. c #A89A96",
"[. c #B39A92",
"{. c #A7A988",
"}. c #B3A29C",
"|. c #B2B08B",
" X c #8889A6",
".X c #8D94AA",
"XX c #9898AB",
"oX c #9B98AF",
"OX c #9CA2B7",
"+X c #A9A9AA",
"@X c #B4ABA7",
"#X c #A9ACBC",
"$X c #BDBCBC",
"%X c #B7B6B6",
"&X c #B3B0B4",
"*X c #C29780",
"=X c #C59A83",
"-X c #CA9D84",
";X c #C69D89",
":X c #C89F89",
">X c #CEA185",
",X c #CCA38B",
"<X c #C4A68B",
"1X c #D1A58C",
"2X c #D4A989",
"3X c #C7B38E",
"4X c #C8A695",
"5X c #CEB991",
"6X c #D8AB90",
"7X c #E2A182",
"8X c #C3BFBD",
"9X c #C9B4AA",
"0X c #E1BAA1",
"qX c #B4C28E",
"wX c #BCC594",
"eX c #C5C69B",
"rX c #C4D597",
"tX c #CBC5B4",
"yX c #D6D599",
"uX c #AEB5C7",
"iX c #BBBEC4",
"pX c #A2AAC0",
"aX c #BEC1C2",
"sX c #B9C0CD",
"dX c #B9C5D5",
"fX c #C2C3C3",
"gX c #C5C7C8",
"hX c #C6C9CA",
"jX c #C9CCCD",
"kX c #D1D0CF",
/* pixels */
"I I I I 0 0 I I I I I I P I I I I I I I I P I I 0 r r 0 r I I I I I I I r r r r P I r r P P P P I P P I I I I P P 9 9 0 ",
"P I I 0 9 9 0 r P I P I I I I I I P I P I I I I I I 0 9 9 9 0 r r L P P I I I L 0 9 9 9 r I P I I I I I P I I I r 9 r r ",
"P I I r r I I r 9 9 0 P P P I L I I I I I I I r I I I r 0 9 9 9 9 9 9 9 9 9 9 9 9 9 9 9 1 P I P P P I I I I I P L I I P ",
"r I I 0 r I I I I I I I I I I I I r 9 0 0 r 0 9 r I I r I I 9 9 9 9 9 9 9 9 9 9 1 9 9 r I U I I I I I P I P I I I I I I ",
"r 0 9 9 9 I I I I I P P I P I P I 9 0 0 I I 9 9 1 1 r r U T ^ T U 0 9 9 9 9 9 L I I I I I I I I I I I I P P I P I I I I ",
"9 9 9 9 9 9 I I P I I I I I I I I I I I I I I r U E }  . .X.| @.k.@.T 1 1 0 P I I r r r r r 9 9 0 r r r r r r I I I I I ",
"9 9 9 r r I U I P I I I P I I I I I P I 0 Y [ } X.&.X.@.@.X. .>.m.<Xm.@.Y 9 0 P I 9 1 9 9 9 P I P I r P P I r 0 0 r r 0 ",
"r I I I I I I I I I I P I I I I P I I 0 I ] o.X.@.@.;.;.;.;.O.,.m.>XS.m.>Xx. .U 9 0 r I I I I I I I r r r 9 9 9 9 9 9 9 ",
"I I r r L 0 0 9 0 r r r r r r I I I I U ! o.X.@.@.:.:.:.:.:.:.x.m.m.=X-X*X>X,X-X,.~ 1 1 r P P P 0 9 9 9 9 9 9 9 9 9 9 r ",
"I 0 1 9 9 9 0 I r r I I r r r r P 0 U ! } o.@.:.:.>.>.>.>.:.>.=X'.v.S.;X-X'.S.=X=X*Xk.O.r 1 r r r r r 0 0 0 0 r r r r I ",
"U I r r P I I I U I I r 0 0 9 9 1 r ! ! !  .:.:.>.,.,.,.,.:.x.,X;Xn.S.=Xm.*XS.S.S.v.v.=Xx.E P I I I I I P I I I I I I I ",
"T P I P I I I I 0 9 9 9 9 9 9 9 r W Q ] } X.:.:.>.1.k.k.k.<.b.,X;Xm.*X*X=X=X*XS.S.Z.l.v.x.:.^ P I I I I I I I P I I I I ",
"P I I I I r 9 9 I 0 0 9 9 0 0 0 R R ! ! o.O.:.:.,.k.k.j.k.,.=X,X=X*X:X=X*X=X=XS.S.b.k.b.k.X.:.^ 0 0 P I I I I I I I I I ",
"0 9 0 r I I I I I I I P 0 0 9 U m R ! ! ` @.:.,.>.k.k.x.k.j.;X,X;X;X-X=X=X=XD.S.S.m.x.v.x.X.O.;. .Y 0 I I I I I I 0 P r ",
"9 9 9 9 9 0 9 0 I I I 0 P T [ } ! W ! ! ` o.O.:.>.j.k.k.:.n.4X;X:X;X:X=X=X=X*XS.S.n.x.m.,.|  . .X.X.^ I P I I I 0 9 9 r ",
"I 0 0 9 9 9 r 0 I P I ^ @.l.k.>.@.-Xx.%. .o.o.X.O.;.>.:.<.;X,X;X;X-X=X=X=X=Xm.S.v.k.v.Z.,.o.| |  .X.X.} I P 0 0 9 9 9 0 ",
"I I I I I I P I r T :.k.k.1.:.@.v.1X*X=XS.x.b.b.Z.v.v.S.=X>X-X-X-X-X*X;Xm.m.b.D.S.v.S.m.x.,.:.:.@.@.O.| I I r I P r 0 0 ",
"P I I I I I I 0 T 1.x.l.j.,.:.2.D.b.v.=XS.x.*XS.'.b.v.v.>X-X>X>X2X,X1X>X=XD.D.6X-XM.b.v.k.>.>.:.;.O.X.X.Y r I I I P I I ",
"I I I P I I 0 T :.l.,.j.,.>.;.:.b.m.m.=XS.n.S.S.S.b.n.v.-X>X>X1X1X1X6X*Xk.D.b.x.,.l.v.v.,.:.:.:.;.O.X.+.` r I I I P I I ",
"P I I I I L T ;.,.,.,.>.:.:.;.n.m.S.=X*X*Xb.S.b.Z.b.x.v.>X>X>X>X,X,X,Xb.x.x.l.j.k.v.v.v.>.@.,.:.:.O.X.$.{ 0 I r I I P I ",
"r I I I r T O.:.:.:.@.:.;.;.b.*XS.*X=X*X*XS.*XS.S.b.Z.1X-X=X*XD.S.Z.v.n.v.,.:.l.v.x.v.v.>.X.;.:.@.&.[ -.$.0 I I I I I P ",
"0 r I I E X.;.O.:.@. .@.;.*X:X=XS.S.*X*X*XS.b.*XZ.*X,X:X*X=X*XD.b.v.v.n.x.,.:.x.k.v.n.v.>.|  .:.X.@.` =.*.9 0 r r I I I ",
"I P P U ` X.X.X.O.O.X.n.=X:X>X-X=X-X=X:X=X=X*XZ.'.,X6X:X-X=X=X*XD.Z.x.v.Z.l.x.Z.Z.m.b.c.:.| } :.;. .Q Z { Y 0 r r r P I ",
"I I I u Q  .X.;.j.v.c.:X:X=X'._.<.z.*X%.3.V 3.;X6X;X=.3.3.*Xn.&.$.%.&...$.{ <.%.%.{ / n.,.` n V { ! y - i ' I P I P I I ",
"P I t i m X.b.'.4X;Xn.*X,X$.( ( _ j v _ 5.5.f #X[./ _ 5.#.3.N _ #.k j 5._ l ( ( #.#.l c 3.) _ _ ) B y % y Q E U P P P P ",
"I I q i R o.S.4X;X;Xn.=X'./ 4.G.G.k j G.G.1.k .XG 4.G.A.J.#.j G.G.> / 7X_ _ J.G.4.A.l j 4.G.G.G.4.F !.w i Q W ! W r P I ",
"I e , m R } :.,X,X,X;X,Xz.&.7XF.A.f &.F.H.2.f G Z.F.F.F.F.Z.N A.D.g <.H.B 2.7X%.f f N F.7X<.B F.7Xj ^.=.i ' W W ' ` U P ",
"U , i R Q @.@.:.*X,X*X1X-.z.>X>Xn.k >X>X1X$.o z.6X=X3.$.1X*XJ :Xm.k '.>XN n.6XF D ~.&.2X,Xk f B j o XX).i Q m ' | O.` P ",
"R i i R } O.X.@.:.v.,X=X$.|.3XeX*.J 5X|.5XH c 5X3Xv h S |.|.{ 5XN.b 3X{.N |.5Xb D !.g.5X3Xg.S c D OXdXg.p ! }  .} [ &.t ",
"{ q i n ! X. .:.:.;.v.<.*.eX|.eXf.{.eX|.wXH f.eXf.X OX!.|.`.H eXg.H eXg.b wXqX|.}.b k wXwXeX{.!.dX X*.M ` @.} | } } +.U ",
"/.Z 4 u m o.@.@.:.;.k.$.B.wXB.{.|.qXB.|.wXH {.rXc D dXK wXf.H rXh.9.rXH H rXqX{.|.k S K V.wXwXh.K F 5 q :.c.@.} } ] | p ",
"*.(.u q u ! X.X.X.:.1.J Y.Y.H U.W.V.7.rXY.H Y.Y.@ XX.Xa.W.C 7.rXh.B.R.x 7.rXV.f c c  XuXK V.Y.Y.g .X> - | >.l.+.[ ` } Y ",
"R (.g.y i u } X. .;.%.A E.U.C T.P.A 7.E.U.7.Y.T.f ^.9.T.C.. 7.E.d.U.U.+ d.E.8.f uX.XC ].(.A E.U.f .X*.< p ! O.O.` } } ! ",
"I u w M e i R  .} @./ s.Q.s.8 K.K.8 8.Q.L.A K.K.8.8.K.P.8 X d.P.L.I.s.@ L.P.8.b A C I.8.8.L.P.d.. OX_.| y y m m ] [ &./.",
"t ' u y { q y R Q o.M e.p.s a p.0.@ 0.p.w.6 y.y.y.y.y.a f !.0.y.y.p.6.+ y.y.y.P.0.8.p.y.y.y.y.8 g dX_.>.:.; i m W +.(.).",
"p u < ; g.i w w R n a u.r.+ a u.s X 0.0.s X 6.i.u.0.7 X oX.Xw.u.w.0.@ a q.i.6.6.O O w.t.q.w.6 . OXuX,.,.v.m $ < u (.+X$.",
"/.M V K g.p w w R R x + + d c + o D c d z !..Xx O . z #XdXK O O @ f z x @ f f z !.~.K + O o g OXdX`.:.k.k.>.* % /.+X/.r ",
"-.+X`.+X`.@.n w R n $.oXOX#XiXOXOXdX#XuXdXiX%X+X.XOXdXuX*.! ~..XOXuXhXuX.XpXiXhXuX%X&XXX^.OXdXsX].l.k.x.n.l.{ /.+X+X! 0 ",
"0 Y I /.'.,.| y n y u $.*.*.-.$.=.*.%.=.&.<.v.n././.-.Q u 3 M K H 9XtX0XkX9X4X=.%.@.>.b.}.)./.j.v.b.x.v.x.>.:.].+X+.0 I ",
"9 9 U ].;.O.O. .R 3 n i e i n w q ~ ! } }  .} m t i 4 &   4 [ [ m k.6X0X>XZ.b.x.1.1.1.x.O.' @.O.S.D.v.v.n.>. .z./.0 t P ",
"0 0 U +X].&.} ..! ! w i n n n w - u Q ` } m ; > : & *   q Y @.l.O.y ( :.,.x.x.x.x.n.1.%.O.:.1.j.S.Z.v.v.v.:. .o.T I I I ",
"0 0 r ].&X+XN.+.t W o.i 3 m y w q u p y 3 = % - q q q q   q 9 p M.+.$ } ,.,.,.k.1.;.n Q :.1.k.k.x.v.v.v.v.X.o.! U 0 0 r ",
"I I 0 Q +X%X%X].=.-.R M =   3 ; = ; e p R q q q q q e q   q u q p w $ & R @.:.X.n - n X.:.,.,.l.x.v.v.v.v.:.X.} ` r L r ",
"0 9 9 9 m `.%X%XiX%X3 # *   * = = -  .@. .@. .Q m ' ' : q % - e q = 4 u & & > $ * w Q X.;.:.>.>.k.v.v.v.k.:.X.X.z.E L I ",
"9 9 9 9 9 9 %.@X+XiX(.# * - ; , q e @.@.[ @.@.@.@.j.l.' w : % = > q : q 3 : q q ; i ! X.X.;.:.:.x.b.v.k.:.@.| N.&XY r I ",
"9 9 9 r r I 0 U p }.aX-.  - ; q y m +.@.@.l.@.@.@.@.O.' m p 4 w y q = & = ; - w , i ` o.| X.X.:.v.v.k.:.@.@.&.%X].r I I ",
"9 0 I U I I I P 9 &.aX$XJ q w 4 u W '  .@.@.@.l.@.@.@.p W ' R p e w q q < , -.V 3 n Q X.@.X.;.>.l.:.:.:.:.O._.gX..0 U 0 ",
"9 r I P L P P I I I }.aX$X%X&X`.&.Q W ' ' [  .@.@.@.@.q i u R ` ' ' { &.=.].fX=., n m o.O.:.:.X.@.:.@.@.@.[ }.@X0 I r 9 ",
"9 0 I P I I I I I L ~ %X$X$XiXaXaX%X@X_._...Q Q W [ ] i ' g.].%X%X%X$XaXaXaX$XaX`.n n ` O.O...! o.X. .o.} z.fX=.2 I I P ",
"r r I I I P I P I I 0 | fXfXtX$X$XaXaXfXfX$X%X%X].].].@X$XsXaXiXaXaX$XaX$XaX$X$XfX@X%.u } O.! m ! ! E &.@X8XiX..0 I I I ",
"I I I P 0 0 r I I I I 0 ..}.%X$XfXgXgXfXfXaXtXaXfXfXfXfX$X$XtXaXaXaXaXaXiXiXfXaX8XfXfX=.y X.Q y i W `.iXfXfX%XU P P r I ",
"I I P 9 9 0 0 r 0 P I I 0 P T E } =._.}.$XaXjXhXhXhXgXhXjXhX$X@X@XjXfXtXfXtXfXfXgXfXfXgX`.Q y < { &XgXtXgX8X| L I P 9 r ",
"r I I r r I I I r 0 r r I P P P 0 2 0 I Y } z.`.].}.&X[._.%.T I I =.fXjXhXkXgX%X@XfXjXfXjX@XQ =.gXhXgXjX}.E L P I P 9 P ",
"I I 0 0 r I I I I P P I I P P r 9 0 P r P 0 2 0 P I I P 2 2 r P 0 2 o.[.}.`.X.U I E [.jXgXjXgXjXjXkX@X&.0 0 I P P t r I ",
"0 9 9 9 9 r I I I I P I I P I I r 9 1 9 r r r r r r 0 r r r 0 1 9 0 2 L I 0 0 P I L 2 z.gXkXkXjX@X<.I 0 P I P I I I r I ",
"9 9 9 9 9 0 U I P I I P P P I t I I r 9 1 1 9 1 9 9 9 9 9 9 9 9 9 9 1 U I I I I I I I 0 ! z.z.X.L 0 I I I I P I P I r r ",
"9 0 0 0 r U I I I I I r 9 9 r I I I I I P 0 0 9 0 9 9 9 1 9 9 2 r I I U I I I I I I I I 0 0 2 L I I I I I I I I I P I I ",
"I U I I I I P r r I P r 9 9 9 9 9 P I I I U U I 9 9 9 9 r I U U I I I P P I I P P I P I I I I I I I I P 0 P P 0 0 9 9 r ",
"U 0 0 0 r 0 0 9 0 r r r 0 9 0 9 9 9 0 9 0 P I I P 9 9 9 I U P 0 0 r 0 9 9 9 0 r r r r r P I I I I I L 9 9 9 9 9 9 9 9 9 ",
"P r 9 9 0 0 0 r I I I P I r 0 0 0 0 0 0 9 9 P P 0 9 9 0 I P r 9 9 9 0 r I I I I I r r r r 9 9 0 r 0 9 9 9 9 9 9 9 9 9 9 "
};
