/* XPM */
static char *result[] = {
/* columns rows colors chars-per-pixel */
"60 60 221 2 ",
"   c #1D1514",
".  c #2D0516",
"X  c #300416",
"o  c #25161B",
"O  c #251623",
"+  c #241924",
"@  c #291D24",
"#  c #251E29",
"$  c #2B1D2C",
"%  c #311D2D",
"&  c #2A2226",
"*  c #2C232C",
"=  c #2F2A2E",
"-  c #33242D",
";  c #382628",
":  c #332B2D",
">  c #39332E",
",  c #2E2331",
"<  c #2F2C38",
"1  c #322534",
"2  c #3A2635",
"3  c #342A36",
"4  c #3C2B34",
"5  c #352639",
"6  c #352B3A",
"7  c #3A2D3C",
"8  c #343135",
"9  c #3D3837",
"0  c #35333A",
"q  c #3A323D",
"w  c #49172D",
"e  c #4A1F39",
"r  c #531532",
"t  c #6A0A31",
"y  c #730C38",
"u  c #432C2B",
"i  c #492F2D",
"p  c #48302F",
"a  c #5B362D",
"s  c #59372E",
"d  c #402D30",
"f  c #412B3E",
"g  c #423136",
"h  c #45343C",
"j  c #46393A",
"k  c #4B3A3B",
"l  c #573C38",
"z  c #6D3E2E",
"x  c #633C32",
"c  c #693F32",
"v  c #4C433E",
"b  c #56473A",
"n  c #77412D",
"m  c #7A432E",
"M  c #674034",
"N  c #6D4234",
"B  c #6B4539",
"V  c #62483B",
"C  c #754433",
"Z  c #7E4631",
"A  c #7D4935",
"S  c #73493A",
"D  c #7B4C39",
"F  c #7F543F",
"G  c #3C2E40",
"H  c #3D3442",
"J  c #3F3943",
"K  c #7E1948",
"L  c #482741",
"P  c #562644",
"I  c #413544",
"U  c #493543",
"Y  c #423B44",
"T  c #4A3B44",
"R  c #433C49",
"E  c #4C3E49",
"W  c #523C4D",
"Q  c #64384F",
"!  c #762F5A",
"~  c #6A3456",
"^  c #444046",
"/  c #494346",
"(  c #47434B",
")  c #4B434D",
"_  c #4B494C",
"`  c #554846",
"'  c #524A4E",
"]  c #59524A",
"[  c #4D4552",
"{  c #4C4B54",
"}  c #4D4E58",
"|  c #524753",
" . c #524B55",
".. c #594854",
"X. c #524D5A",
"o. c #4D5258",
"O. c #515757",
"+. c #5B5454",
"@. c #54535D",
"#. c #5B525B",
"$. c #5A585E",
"%. c #664E46",
"&. c #675349",
"*. c #775647",
"=. c #7C5342",
"-. c #6A5654",
";. c #675957",
":. c #6A644E",
">. c #565760",
",. c #5B5661",
"<. c #565962",
"1. c #5B5B64",
"2. c #5D5E69",
"3. c #635E69",
"4. c #675F69",
"5. c #5E6067",
"6. c #5F626C",
"7. c #63626D",
"8. c #6A626B",
"9. c #6D696E",
"0. c #746A67",
"q. c #6F6B75",
"w. c #726D75",
"e. c #796F78",
"r. c #76727A",
"t. c #B03B36",
"y. c #804731",
"u. c #814832",
"i. c #844E3B",
"p. c #8B493A",
"a. c #86523C",
"s. c #88523E",
"d. c #975539",
"f. c #B2553A",
"g. c #DA4D23",
"h. c #C4483C",
"j. c #CB5633",
"k. c #E24F3E",
"l. c #D8633D",
"z. c #D57639",
"x. c #E5652C",
"c. c #E87836",
"v. c #841A4E",
"b. c #981C56",
"n. c #A6185C",
"m. c #B51159",
"M. c #924D41",
"N. c #8A5647",
"B. c #8C5544",
"V. c #95574A",
"C. c #915A4E",
"Z. c #9E5B57",
"A. c #A9574C",
"S. c #B15847",
"D. c #A85A56",
"F. c #8C6547",
"G. c #946349",
"H. c #936253",
"J. c #986B57",
"K. c #9E635A",
"L. c #8F765B",
"P. c #957556",
"I. c #9D7555",
"U. c #B7634C",
"Y. c #AC6658",
"T. c #A47B59",
"R. c #9C6D61",
"E. c #827B7C",
"W. c #AB6E64",
"Q. c #A37D65",
"!. c #B0766B",
"~. c #C44C4C",
"^. c #CB6E4C",
"/. c #E77143",
"(. c #DA863F",
"). c #E88539",
"_. c #F39135",
"`. c #F59D39",
"'. c #F6AC36",
"]. c #A38057",
"[. c #B9935C",
"{. c #B28962",
"}. c #BA9661",
"|. c #C5965A",
" X c #D29B53",
".X c #C6A45A",
"XX c #E9A544",
"oX c #F3B746",
"OX c #E5B657",
"+X c #C79B62",
"@X c #D7B76B",
"#X c #F8CC4F",
"$X c #EDCA5A",
"%X c #F1D66B",
"&X c #F9E677",
"*X c #7C7A85",
"=X c #7F808A",
"-X c #888488",
";X c #938D92",
":X c #958E95",
">X c #AB9990",
",X c #9C9BA4",
"<X c #A49CA5",
"1X c #ACA9AD",
"2X c #AAA8B2",
"3X c #B3ACB2",
"4X c #B7B4B9",
"5X c #C38F8A",
"6X c #D8ADB8",
"7X c #ECDD88",
"8X c #F9E985",
"9X c #FCF79E",
"0X c #BDBAC3",
"qX c #C6C4CC",
"wX c #CCC7CB",
"eX c #D0CCD4",
"rX c #D8D5DD",
"tX c #E8E5EA",
"yX c #EEEAF2",
"uX c #F2EDF3",
"iX c #F8F5F7",
/* pixels */
"u.u.u.y.y.m y.y.y.y.y.y.y.y.u.u.u.u.u.u.y.y.y.y.y.y.m m y.y.y.y.u.u.u.y.Z Z m m y.y.y.m y.y.y.u.u.u.y.u.u.u.u.u.y.y.y.n ",
"u.u.y.m m m m y.y.y.y.y.y.y.u.u.u.u.u.u.y.y.y.y.y.y.y.m n m m y.m Z y.y.y.Z y.m m m m m m y.u.u.u.u.u.u.u.u.u.y.y.y.n y.",
"y.u.y.m m y.y.Z y.y.y.y.y.u.u.u.y.y.y.y.y.y.y.y.y.y.y.m m n m n n m n m m m n m y.z m z m y.u.u.u.u.u.u.u.u.u.u.y.y.y.y.",
"Z Z y.Z Z y.u.y.y.y.y.y.u.u.u.u.y.y.y.y.m y.m m y.y.y.y.y.y.m m A A n n n n n n z m m m y.u.u.u.u.u.u.u.u.u.u.u.u.u.y.y.",
"y.y.m z m y.y.y.u.u.u.u.y.y.y.y.y.y.m y.y.y.m n n m Z Z y.y.y.u.H.i.C n n n m m y.y.u.u.u.u.u.u.y.y.u.u.u.y.y.u.y.y.y.y.",
"z z m m z y.u.u.u.u.u.y.y.y.y.y.y.y.y.y.y.y.m n n n m Z m m m d.K.N.Z m n C C.C.d.y.m m u.m m m Z y.y.y.y.y.y.y.y.y.y.y.",
"y.z m m m y.u.u.y.y.y.y.y.y.y.y.y.y.y.y.y.y.y.y.Z m u.I.a.m m J.!.N.m m A K.K.{.T.A m n m m m m y.Z y.y.y.m m m y.y.y.y.",
"y.y.y.u.u.y.u.u.y.y.y.y.y.y.y.y.y.y.y.y.y.y.y.y.y.y.y.I.T.m y.V.Y.u.m A A.U.V.J.u.u.i.A y.y.u.u.y.y.m m m m m m z y.z z ",
"y.y.y.y.y.y.n n y.y.z y.y.y.y.y.y.y.y.y.y.y.y.m m m m i.].B.m M.~.B.B.A.^.S.Z i.C.Z.C.Z Z u.u.u.m m m m n n n z m m m m ",
"y.y.z z n n n y.y.y.y.y.y.y.n y.y.n y.y.m y.z z n n n m N.=.m S.k.h.f.k._.d.Z B.B.i.Z m m m m m y.m m m m m m m m m y.y.",
"y.y.y.y.y.y.y.y.y.y.y.y.n n n n n n y.y.z y.m m m m m Z H.D.S.j.).c.(.oX`.f.A z z y.y.y.u.y.u.Z y.y.y.y.y.y.y.y.y.y.y.y.",
"d.y.y.y.y.y.y.y.y.y.n n n n n n n n z y.z y.y.u.y.y.y.u.a.D.~./.XX%X8X&X'.x.f.p.u.y.y.m m m Z Z y.y.u.y.y.u.u.u.u.y.y.y.",
"y.y.y.y.y.y.y.n y.n z y.n n n n n y.n y.y.y.u.u.Z i.C.H.N.G. XOXOX$X7X9X#X`.l.~.D.K.i.Z m Z Z Z m y.y.y.u.u.u.u.u.u.y.y.",
"y.z n y.y.y.n y.y.y.y.y.y.y.y.y.y.y.y.y.y.Z y.m Z i.H.B.B.[.OXXX`.#X&X&XoX(.^.!.5X6X!.i.Z u.u.Z y.m Z y.u.u.u.u.y.y.y.y.",
"z y.n n n y.n y.y.y.y.y.y.y.y.y.y.y.y.y.m m m Z Z Z A A ].@X Xj.g._.#XoXz.d.i.u.M.Z.N.N.Z Z u.u.u.y.y.u.y.y.y.y.m m z m ",
"y.y.n n n n y.n y.y.y.y.y.y.y.y.y.y.y.y.m Z Z Z u.N.R.C.P..X|.p.t.x.'._.f.u.m m m z z z n u.u.u.u.u.u.u.u.y.Z m m m m m ",
"u.y.y.y.u.y.y.y.y.u.u.u.y.m Z m y.y.y.y.y.y.y.y.y.M.d.u.C.[.|.G.a.l.z.l.S.u.m n n n m n m u.u.u.u.u.u.u.u.y.y.y.Z Z m m ",
"u.u.u.u.u.u.u.u.u.u.u.u.y.m m n n y.y.y.y.y.y.n z y.y.y.i.].|.}.s.Y.B.V.W.Q.Z m m m m u.u.u.u.u.u.u.u.u.u.u.u.u.y.y.y.y.",
"u.u.u.u.u.u.u.u.u.y.u.u.y.y.Z m y.y.y.y.y.y.z y.y.n n m Z F.}.+XI.d.Z m H.>XI.y.u.y.u.u.u.y.m y.y.u.u.u.y.u.u.u.u.u.u.u.",
"u.u.u.u.u.u.u.u.u.u.u.u.u.u.y.y.y.y.y.y.y.y.y.y.z y.y.m *.*.].[.P.*.*.a.Z u.a.y.u.m m m m m y.m y.u.y.y.y.u.u.y.u.u.u.u.",
"y.y.y.y.u.u.u.u.u.y.y.u.y.u.u.u.y.y.y.y.y.y.y.y.Z C &.+.O.j *.F.b v +.:.L.A Z Z m m m m y.u.y.y.y.y.Z Z Z Z y.Z u.y.u.u.",
"Z y.y.y.u.u.u.y.y.y.y.y.y.y.y.u.y.y.y.n y.y.y.y.u.%. .3.#. .] &.&.;.0.0.;.N A Z m m m y.y.y.y.u.y.Z m m m Z Z Z y.y.y.u.",
"y.y.u.u.u.u.y.Z m m m Z m Z Z u.y.y.y.n y.y.y.y.A k 7 Y E | ;.+.-.;.-.k I b A u.u.m m m m m y.Z y.Z m Z y.y.Z Z Z y.y.u.",
"u.u.u.u.y.y.y.Z m Z y.y.y.y.y.u.y.y.y.y.n y.y.y.C 4 1 6 4 q T / W ..-.T 7 g =.u.u.y.u.y.m u.y.y.Z m m Z y.y.y.y.y.y.u.u.",
"u.u.u.u.u.u.u.y.y.u.y.u.u.u.u.u.u.u.u.y.Z Z u.p.M 1 1 5 5 G G G U W W U f - / *.D A Z Z m m m n m n n m Z y.u.u.u.y.u.u.",
"u.u.u.u.u.u.u.u.u.u.u.u.y.y.y.y.y.y.y.y.u.u.F %.4 $ % , , 5 G f f U U f 2 @ j +.] *.C m m n n n n n m m y.y.u.u.u.u.u.u.",
"y.u.y.y.y.y.u.u.u.u.u.u.Z m m m m z m m A *.` ' 2 O $ $ % , 5 2 - d d 2 - - ' e.$.` V C n n m m m Z Z y.u.u.u.u.u.u.y.y.",
"Z m y.m m y.y.y.u.Z u.m m m m m z y.z A &.| '  .' Y 2 1 , , , 1 1 4 h j ..8.r.w.+._ ` V n m u.u.y.y.Z y.u.Z Z y.y.y.y.y.",
"y.y.y.m m m m m m m m n n n n m y.z y.=.) | |  .' +.+.#.X.X.,.,.#.8.w.7.9.w.8.#.v b O._ V Z u.m m m m m m m m m Z Z Z Z ",
"y.m m n m m n n n m n m m m m m y.y.=.T _ [  ./ > > : R 3.1.,.2.7.7.q.7.7.1.1.Y > 9 9 / ^ S u.u.m m m Z Z y.u.y.y.y.y.Z ",
"m m m n m m n n m m Z Z Z Z m m m D k Y ) | / : > Y ( } 2.1.3.2.7.7.6.7.5.2.<.@._ ^ J J { b Z y.Z y.y.y.y.u.y.y.Z m m n ",
"m m m m m m m m Z Z Z m Z Z Z m m V J R [ ) Y q j q R [ ,.2.3.7.7.7.7.7.7.2.>.( 0 8 0 J / / B u.y.y.u.u.u.y.Z m m n n m ",
"m m y.y.Z Z m Z Z Z n m Z Z y.Z A v Y I ( ( H 6 = = 8 9 ( <.5.6.6.7.7.7.6.1.} 8 * , & < H ^ v Z Z u.u.Z u.Z Z Z Z Z Z m ",
"y.m m m m n n m m m m n n m Z Z B J J I Y q * @ q / ( 0 0 o.<.5.6.6.6.6.1.1._ r.qXrX2X^ 8 J j S Z Z Z Z Z Z m m m m m m ",
"n n m m n n n m m u.Z m n n m m l I J J Y = 9 0.3XtXtX1Xo.J <.<.<.6.6.<.<.@.5.:X4XuXyX4XH 9 J b Z m n n m n n n n n m m ",
"n n n m m n m Z y.u.u.u.Z Z Z m p J J 3 & j 9.o & wXiXiX4X( o.<.<.6.<.<.@.@._ = & qXyXrX7.I J l m n n n m n n n n n n n ",
"n n m Z y.y.y.y.y.y.y.Z y.y.Z Z g H H H # E.;.0.  :XiXiXtXr.( <.<.<.>.>.>.X.[ -X: 1XyXrXr.R J k m m m n m m m m m m m m ",
"n m u.y.Z m Z m Z m m Z Z Z A n g H I R 6 <X+.E.+ ].iXiXtX,Xo.o.<.<.>.>.@.@._ & & 2XtXeXq.J J j C m n m m m m m Z y.y.y.",
"n m y.y.m m m m m Z Z u.Z Z Z n 4 H I R 5 <X)     =XiXtXrX2Xo.<.o.>.o.>.@.} =X6 Y wXeX0X3.J H h A Z y.y.y.y.y.u.y.u.u.u.",
"n m y.y.y.y.m y.Z Z u.Z Z Z Z N 4 7 I I 5 ;X;X@ < 4XtXrXqX2Xo.o.o.o.>.} X.{ ,X4X:Xr.1.2.) H G j A y.y.y.u.y.u.u.y.u.u.u.",
"m Z y.y.u.u.Z Z u.u.y.m m m m n d 6 H I 3 e.<Xw.q.;X<X2X0X,X{ { o.} X.} } [ *X*XI { ,.[ J G G h Z u.u.u.u.u.u.y.y.y.y.y.",
"m m m y.y.y.m m y.u.u.u.m y.m n u 1 7 H 6 6 0 q I I H [ *X*X) } { { { } | | X.J X.w.8.X.R G 7 l u.u.u.u.u.u.u.m m Z Z m ",
"u.y.m m m m n m Z u.u.u.Z u.Z Z s * 6 7 h q | 8.w.4.>.[ ( ( ) { [ { [ { | W [ [ [ { [ J H q 6 x u.u.u.u.u.u.Z m m m Z y.",
"m m n m n n m n m u.u.u.u.u.u.u.x @ 3 6 7 H [  .| } { [ ( G H [ [ Q ! ! ! ~ E J R J H H 7 7 6 C y.u.u.u.u.u.y.Z y.u.y.u.",
"m n n n m m n m Z u.u.m Z Z u.u.A ; * 3 5 G J R [ [ [ R 1 $ q ^ Q b.m.n.n.K e G R H H q G 6 p Z u.u.u.u.u.u.u.u.u.u.u.u.",
"m n m m Z Z u.Z Z m m m m n m m u.a @ 1 < < G G H I I I q R 6 - w t t t r e f H H H 7 8 6 : c Z u.y.u.y.y.u.u.u.u.u.u.u.",
"m m Z y.y.y.u.u.Z Z m m n m m m Z A : & 5 5 < 5 < G G H q H R q O . X X @ H G G G 6 0 6 1 i A Z y.y.y.y.y.y.u.u.y.u.y.y.",
"n m y.y.y.y.u.u.u.u.u.u.Z y.u.u.y.A N & # , 5 5 6 G 7 7 q q 7 6 7 r y y K L G G 0 6 5 3 ; C u.u.y.y.y.y.m m m m y.y.m m ",
"m m u.u.u.u.u.u.u.y.u.u.u.u.u.u.u.u.u.N & @ - 6 5 6 6 6 0 6 G G G P v.n.b.P L 5 6 6 < ; N y.u.u.u.u.y.y.Z m m m y.u.y.Z ",
"Z Z Z u.y.y.y.u.u.y.u.u.u.y.u.u.u.u.u.y.M & + * 5 1 5 6 6 6 7 7 G L L e L G 5 G 1 $ - M y.y.u.u.u.u.u.u.y.m m m y.u.y.y.",
"u.u.y.Z Z m Z y.y.y.u.y.u.u.u.y.u.u.u.u.u.S ; + + * - 3 6 5 3 1 , 5 5 7 5 < < , @ 4 m u.y.y.u.u.u.u.u.u.y.y.y.y.u.y.m y.",
"u.u.Z Z n m Z m Z Z y.u.u.u.u.u.u.u.u.u.u.u.A s ; + + + * $ , * , , , $ # # # , l A u.u.y.y.u.u.u.u.u.u.u.u.u.y.u.y.m y.",
"Z Z y.Z m y.u.y.Z m y.y.u.y.u.y.y.y.y.u.u.u.u.m n x u - @ + O O O O O $ * u l C y.y.y.u.y.y.y.y.y.y.y.y.y.u.u.y.u.m m y.",
"y.Z Z m Z y.u.u.y.y.y.y.u.u.u.y.m m m m Z y.u.u.y.y.Z C z x a s a a z z C A Z A y.y.y.u.y.y.y.n m m m Z Z Z u.u.u.y.m u.",
"m m n n m m u.u.u.u.u.u.u.u.u.u.m m n m m m m m y.m Z m m m n n z m z u.u.u.u.u.y.y.y.y.y.y.y.y.y.y.u.u.y.u.u.u.u.y.m y.",
"n n n n m Z u.u.y.u.u.y.y.m u.u.y.y.m n n m m m m z m n n m n n y.z Z u.u.u.u.y.y.y.y.y.y.y.y.y.u.y.u.y.u.u.y.u.u.u.y.Z ",
"n m m m Z u.u.u.u.u.u.m m m m m y.y.u.u.Z m m m m n n n m n m m y.y.y.u.y.y.y.y.y.y.y.y.y.y.y.y.u.u.u.u.y.y.y.y.y.y.y.y.",
"y.u.u.u.u.u.u.u.Z u.u.Z n n n n m m y.y.y.y.u.u.m n n n m u.u.u.y.y.y.y.y.y.y.y.y.y.y.y.y.y.y.y.y.u.y.y.m m Z m m m m m ",
"u.m m m m m m m m m m y.m m m m n m m m m Z y.y.m n n m u.u.m m y.y.z y.z y.y.y.y.y.y.y.y.y.y.y.y.m Z m m n n m n m n n ",
"u.m n m m m m u.u.u.u.u.u.Z m m m m m m m m m m Z n n m u.u.Z m z y.z y.y.y.y.y.y.y.y.y.y.n y.z m m m m n n n m n n n n "
};
