/* XPM */
static char *result[] = {
/* columns rows colors chars-per-pixel */
"60 60 211 2 ",
"   c #181213",
".  c #290E1C",
"X  c #330617",
"o  c #241D1C",
"O  c #1F1822",
"+  c #211722",
"@  c #251B24",
"#  c #2A1A24",
"$  c #241D29",
"%  c #2B1D2B",
"&  c #361C27",
"*  c #2C1E32",
"=  c #301F31",
"-  c #2B2124",
";  c #2C232B",
":  c #2B272B",
">  c #33232B",
",  c #362829",
"<  c #3A332C",
"1  c #2E2332",
"2  c #2E2935",
"3  c #322534",
"4  c #3A2632",
"5  c #342A35",
"6  c #3C2D34",
"7  c #352639",
"8  c #3D273C",
"9  c #352B3A",
"0  c #3A2C3C",
"q  c #3C3434",
"w  c #373439",
"e  c #3A323C",
"r  c #47051F",
"t  c #4C0C28",
"y  c #5B1636",
"u  c #690B34",
"i  c #452B29",
"p  c #422C2C",
"a  c #4E332F",
"s  c #54342D",
"d  c #43273B",
"f  c #493535",
"g  c #43343D",
"h  c #43393D",
"j  c #593A33",
"k  c #563A38",
"l  c #6A3C2E",
"z  c #703E2D",
"x  c #633D32",
"c  c #6C3E31",
"v  c #4F493E",
"b  c #50403E",
"n  c #5B423D",
"m  c #77412D",
"M  c #7A432E",
"N  c #6D4134",
"B  c #68463A",
"V  c #6E463A",
"C  c #734332",
"Z  c #7E4631",
"A  c #7D4935",
"S  c #73483A",
"D  c #7A4C3A",
"F  c #655438",
"G  c #3A2E40",
"H  c #3D3342",
"J  c #3E3A43",
"K  c #751D4F",
"L  c #482B42",
"P  c #582444",
"I  c #433543",
"U  c #423C45",
"Y  c #4A3A45",
"T  c #433C49",
"R  c #4B3D4B",
"E  c #513A4C",
"W  c #5E3957",
"Q  c #692A51",
"!  c #753156",
"~  c #454347",
"^  c #4B4244",
"/  c #46424C",
"(  c #4A434E",
")  c #4D494D",
"_  c #574945",
"`  c #51474D",
"'  c #544C4B",
"]  c #595149",
"[  c #4D4552",
"{  c #4C4B55",
"}  c #4D4D58",
"|  c #514252",
" . c #524B55",
".. c #5B4852",
"X. c #534D59",
"o. c #4C5258",
"O. c #575656",
"+. c #5E5555",
"@. c #53535C",
"#. c #5B535C",
"$. c #654E49",
"%. c #67544D",
"&. c #785446",
"*. c #635756",
"=. c #635A5C",
"-. c #736450",
";. c #75665D",
":. c #555760",
">. c #5B5662",
",. c #565963",
"<. c #5B5B64",
"1. c #5D5D6A",
"2. c #645B67",
"3. c #625C65",
"4. c #5E6067",
"5. c #5E616B",
"6. c #696265",
"7. c #62626C",
"8. c #6C646D",
"9. c #7C6E61",
"0. c #686771",
"q. c #736B75",
"w. c #777278",
"e. c #804731",
"r. c #814832",
"t. c #844D3A",
"y. c #894E3A",
"u. c #9C4E3D",
"i. c #86513B",
"p. c #89533E",
"a. c #9C503F",
"s. c #B34B38",
"d. c #BB6A3A",
"f. c #C9493D",
"g. c #DA5B3B",
"h. c #E3572D",
"j. c #CF693B",
"k. c #E46428",
"l. c #E57634",
"z. c #95134C",
"x. c #A61658",
"c. c #872553",
"v. c #8F2460",
"b. c #8B5443",
"n. c #8E5C48",
"m. c #975645",
"M. c #96534C",
"N. c #925A4C",
"B. c #945E53",
"V. c #9A5A56",
"C. c #A9524D",
"Z. c #A85B57",
"A. c #BC5654",
"S. c #8B674B",
"D. c #946549",
"F. c #99704F",
"G. c #9A6358",
"H. c #9A765D",
"J. c #BA6349",
"K. c #A66454",
"L. c #B66952",
"P. c #A67F59",
"I. c #94766C",
"U. c #A96D65",
"Y. c #B87E7B",
"T. c #D5594F",
"R. c #C26349",
"E. c #F28D34",
"W. c #EC953B",
"Q. c #F59731",
"!. c #F1A334",
"~. c #AE895D",
"^. c #B38A5A",
"/. c #AA8465",
"(. c #AF8B6E",
"). c #C2955E",
"_. c #C69C5B",
"`. c #EB8C46",
"'. c #D3A954",
"]. c #EBB44F",
"[. c #E6B557",
"{. c #C59764",
"}. c #DDBB67",
"|. c #F0C950",
" X c #F0DE7A",
".X c #FBE87A",
"XX c #7D7A82",
"oX c #827C83",
"OX c #88858B",
"+X c #948E95",
"@X c #969296",
"#X c #9B99A3",
"$X c #A19CA2",
"%X c #A9A6AB",
"&X c #B6AEB7",
"*X c #BAB6BB",
"=X c #C59E9F",
"-X c #F8F096",
";X c #BDBCC7",
":X c #C0BEC6",
">X c #C9C5CB",
",X c #CFCCD4",
"<X c #D1CFD3",
"1X c #D5D3DA",
"2X c #DED8E0",
"3X c #E4E2E6",
"4X c #E8E5EB",
"5X c #ECE9EF",
"6X c #EFEEF3",
"7X c #F5F3F5",
"8X c #FAF8F9",
/* pixels */
"r.r.r.e.e.e.e.e.r.r.r.r.r.r.e.r.r.e.r.r.e.r.e.e.e.e.e.M e.e.e.e.e.e.e.e.e.e.m e.e.e.e.e.e.e.e.e.e.r.e.r.e.r.e.r.e.M M e.",
"r.r.e.M m m M M e.r.e.r.r.r.r.r.r.r.e.r.e.e.r.r.e.e.M m m M M e.e.e.e.e.e.e.e.e.m m m m M e.e.e.r.r.r.r.r.r.r.r.e.m M M ",
"e.r.e.M M e.r.e.M M M e.r.r.r.r.e.e.e.e.e.e.e.e.e.r.e.e.M m m M m m m m m m m m m m m m M e.e.e.r.r.r.r.r.e.r.e.e.e.e.e.",
"Z Z e.Z Z e.r.e.e.r.e.e.r.r.r.r.e.e.M e.M e.M M M e.e.e.e.e.m M M m m e.m m m m m m m m e.e.e.e.r.r.r.r.r.r.r.r.r.r.r.r.",
"e.M m m m e.r.r.r.r.r.r.r.r.r.r.e.M M M e.e.M m m M M e.e.e.r.r.e.e.z z M M z M M e.e.e.e.e.e.e.e.e.e.e.r.e.e.e.r.r.r.r.",
"m m m m m M r.r.r.e.r.r.r.r.r.r.e.e.e.e.e.e.M m m m M M M e.e.r.e.e.e.M z z e.e.e.e.e.e.e.M m e.e.e.e.e.e.e.e.e.e.r.r.r.",
"m m m m M e.r.r.r.r.r.r.r.r.r.r.e.e.r.e.e.r.e.e.e.M M M M M M M e.e.e.z M z e.e.e.m M m M m M e.e.e.e.e.e.e.e.e.M M e.M ",
"M e.e.r.r.e.r.r.e.e.r.r.r.e.e.r.e.e.r.r.r.e.e.e.e.e.e.e.M M M e.e.e.e.M z e.e.e.e.m M e.e.e.e.e.e.e.e.M m M M z m m M m ",
"r.r.Z Z e.e.M M Z e.e.e.e.e.M e.e.e.e.e.e.e.e.m m M M m m m m m m m m m m m M M M m M M Z e.e.Z z m m m m m m m m m m z ",
"r.M m m m m m Z Z Z Z Z e.M e.M e.m e.e.m m m m m m m m m m m m m m m m m m M z z m M M Z m Z Z e.e.e.m M M M M M M e.e.",
"r.e.Z M e.e.r.e.e.e.Z Z M M M m m m m e.m m z M M M M M M z M M m m m m m M z M M e.e.e.Z Z Z e.e.e.e.e.e.e.e.e.e.e.e.e.",
"p.r.r.r.e.e.e.e.e.M M z M M z m m m m m m e.e.e.e.e.e.e.e.e.e.e.M e.M Z e.M e.M e.e.e.Z M m Z Z e.e.e.e.e.e.e.e.e.e.e.e.",
"r.e.e.e.r.e.M m e.Z Z z m m m m m m e.e.e.e.e.e.e.e.e.e.e.e.e.e.M e.m M e.e.e.e.e.e.M M Z Z Z Z e.e.e.e.e.e.e.e.e.e.e.e.",
"Z m m Z Z e.e.Z e.e.e.e.e.M e.e.e.e.e.e.e.e.e.e.e.e.e.e.e.e.e.e.e.e.e.M M M M M e.e.r.M Z Z Z Z e.m e.e.r.r.e.e.e.e.e.e.",
"m m m m m M m M e.e.e.r.e.e.e.r.e.e.e.e.M M M M e.M M M m e.e.e.r.e.e.Z e.e.e.e.M e.M m Z Z r.t.y.e.e.r.r.e.e.e.M M m M ",
"Z Z m m m M Z Z e.e.e.r.e.e.e.e.e.e.e.e.M e.e.e.e.e.e.M m m M M M m m Z M M M M m m m m Z e.r.D.P.r.r.r.r.e.e.e.M m m m ",
"r.e.r.e.r.r.e.e.e.r.r.r.e.M Z M e.m e.e.e.e.e.Z Z e.r.e.Z m m m M M m m m m m m m Z C m C r.t./.D.r.r.r.r.e.r.r.e.Z M M ",
"r.r.e.r.r.r.r.e.r.e.r.r.e.Z m m m e.e.e.r.e.m m m M Z r.r.r.r.e.M M m m m m m m m t.B.t.t.b.N.P.r.r.r.t.r.t.r.r.e.e.e.r.",
"r.r.r.r.r.r.r.r.r.r.r.r.r.e.Z m e.e.e.e.e.e.e.z m m m m Z e.Z r.r.r.M m m m t.B.i.r.G.B.t.G.n.A r.y.G.N.B.n.r.r.r.e.r.r.",
"e.r.r.r.r.e.r.r.r.r.r.r.r.r.r.Z e.e.e.e.e.r.r.A A m Z m m m m M e.r.r.m m M r.B.H.D A i.D Z.C.Z u.C.U.U.N.r.r.r.r.r.r.r.",
"e.e.r.r.r.e.r.r.r.r.r.r.r.r.r.r.e.e.Z N B n _ _ _ $.&.&.A C m m M M A m m M A A b.n.(.~.~.J.T.s.T.A.p.r.e.r.e.r.r.e.r.r.",
"M e.e.r.r.r.r.e.e.M e.e.e.Z Z e.m l f I e J J U ( [ [ ` $.&.S Z m N B $.S M M M S.~.}.'.[.].`.E.h.C.Z M M M M M e.e.r.e.",
"e.e.r.r.r.r.e.e.M m M M Z Z Z x i q H J U U T [ |  . .[ ) ' k k f d e :.+.D A p.P._._.j.W.].[.|.k.f.V.y.r.r.Z r.Z e.r.e.",
"r.r.r.r.e.e.e.e.M e.r.r.e.C a 9 e J I J J U T / (  .`  . .Y % % > 5 w O.O.*.D F.).{.m.s.h.].|. X[.l.g.R.L.K.N.r.r.r.r.r.",
"r.r.r.r.r.r.r.e.r.r.r.A m p 9 0 H J T 1 e h J U U w q ' ] ( # % = 7 0 ` #.w -.^._.~.i.s.k.|. X-X.X|.Q.j.J.K.K.G.r.r.r.r.",
"r.r.r.e.r.r.r.r.r.r.Z m < 5 0 H T I e @ : - : 5 e g : , ] ( % * * 7 0 0 =._ F.^.^.n.a.j.Q.|..X-X|.Q.d.y.t.n.~.P.y.e.r.r.",
"e.e.e.e.e.e.r.r.r.r.Z i ; 9 G I H 7 ~ oXI.7.' - ; q T q q  .9 % 3 3 0 I ..%.F S.S.b.K.j.Q.Q.!.|.!.k.C.y.b.b.i.n.r.e.e.e.",
"e.M e.M M e.e.e.Z A s # 5 0 H 0 5 >.%X6.q.- +.@X: : e { 5  .[ * = 7 e I Y =.%.< %.A Z a.g.j.s.d.`.g.u.r.b.G.b.Z e.e.e.e.",
"r.e.r.M M M m m M N : ; 9 9 e 5 8.&X*.g OX- v 3XOX- e { #.3.>.H * 7 g g R ..;.] +.&.M K.Z.y.y.y.L.T.M.Z Z b.V.b.e.e.M e.",
"e.M M m M M m m m a @ 5 5 0 I 3 2.$X#   o b %X8X<X~ e o.1.<.3.X.7 3 8 L R ..-.I.-.-.C (./.r.e.e.b.Y.C.Z Z Z t.A e.e.e.e.",
"M z M M M M m m C , ; 3 9 0 T { q #.) - +.&X6X8X3X~ J @.<.<.<.3.( > 4 L E .._ ^ 9.H.A H.H.r.r.r.A oX=Xt.e.r.Z Z e.M M M ",
"e.M M M M M M M C @ 1 7 9 H [ 2.2.g OX>X3X7X7X7X>X~ ( ,.7.7.4.7.3.I 4 d Y Y I H U D r.b.r.e.r.r.y.A.Y.y.r.r.r.z M M z m ",
"M M e.M e.e.e.e.l o 1 7 2 G / } 8.#.R :X4X5X6X3XOXJ o.,.5.0.7.7.0.0.I 4 d 6 0 0 S t.r.r.r.r.r.r.e.r.D.r.r.r.e.e.e.e.M M ",
"e.e.e.M m m m m s o 1 7 9 G R [  .>.J +X>X,X,X%X{ o.,.,.5.7.7.5.0.w.#.I > > > k t.Z r.r.r.r.r.r.e.e.r.e.e.e.M M m M e.M ",
"z M z M m m m m s   7 9 G G T R } X.T XX:X;X+X:.o.,.,.5.5.0.7.7.7.7.2.8.h & w $.A Z Z Z r.r.r.r.e.M m M M M z z z m m m ",
"e.M z M m m m e.s + 9 9 9 G G T T [ [ 0.#X0.} } :.,.,.1.5.5.7.0.7.7.3.w.w.3.=.%.t.M M Z M M M M m m m m m m M M M m m m ",
"z z M e.e.e.e.e.s O 3 9 9 9 H J 0 9 T { { ( o.@.o.:.,.<.1.1.1.7.4.1.<.3.q.q.7.] A m m m M M m m m m m m m M m m M M e.m ",
"z e.e.e.M e.e.e.x + 3 9 9 9 G H H 1 2 / { { o.o.o.:.:.,.:.:.,.1.<.<.,.) _ +.O._ A m m m M m m m m m M m M M M e.e.e.e.e.",
"M e.e.e.M z M z l # @ 5 9 e 0 H Y 2 T { { { { X.:.:.:.:.:.,.,.@.{ { @.^ < v ] _ M m m m M M M M M e.e.e.e.e.e.e.e.e.r.r.",
"M M e.e.e.e.e.e.C , @ 5 9 9 9 e T ; Y E [ { { X.} @.@.@.@.} X.<.J 2 e ~ q ^ o.F m m M M M M r.r.e.e.e.e.r.e.r.e.e.e.r.r.",
"M M e.r.e.Z Z Z r.a @ > 7 9 9 G 0 # y c.! ..} } } @.@.@.) ) ~ $X;XJ : J w J ) S Z M M r.A M M M M r.r.r.r.r.r.e.e.e.e.e.",
"Z M Z M e.Z Z e.e.c # % 3 9 0 G 0 . r z.x.Q [ [  .} O.XXw OX5 6.7X&X$ 9 J ~ v D Z A Z r.r.r.r.r.e.e.r.r.r.r.e.e.M e.M M ",
"e.e.e.e.m m m M Z Z a + = 3 9 G P t X u x.v.W } [ 1.%Xw.  : w &X6X2Xe 9 [ ) n C M m M Z r.r.r.r.r.r.r.r.r.r.e.M M e.e.e.",
"M m m m m m m m M r.c # $ 1 8 G P z.r X u x.! | E 8.#X$X) 4.;X5X5X>Xw e ~ U N m m m m M r.r.r.r.e.r.r.r.r.r.e.M e.e.e.e.",
"m m m m m m m M r.r.M s + * 3 d P x.u & d y Q R [ J H X.;X3X5X4X1XOX2 U J n m m m m M r.r.r.r.r.r.r.r.r.r.r.r.r.e.r.r.r.",
"m m m M Z e.r.e.Z M m z , # 3 7 G K c.P G G G J / } 7.X.} &X,X*XoXJ e J b C m m m m m M r.r.r.r.r.r.e.r.r.r.e.e.r.e.e.r.",
"m M e.r.e.e.e.e.e.e.M M l & # 3 8 L P L G G J J T [ 2.q.T XXOX>.U T J h C Z e.M M m m m M M r.r.r.r.r.e.e.e.e.e.e.e.e.e.",
"m M r.r.e.e.r.r.r.r.r.r.M x % $ 2 9 7 8 G G H H H J R X.R T T T T J h B r.r.r.r.e.r.e.e.r.e.r.r.e.e.e.M M Z M M e.e.Z M ",
"M Z e.r.r.r.r.r.e.e.e.r.r.e.l , @ 2 9 9 9 9 e G H H H J J H H H H h S r.r.r.r.r.r.e.r.e.r.r.r.r.r.e.e.e.e.M m M e.e.e.e.",
"Z e.r.r.e.e.e.r.e.e.e.e.r.e.r.C 6 $ 1 9 9 9 9 9 0 G H G G G 0 e k D A A r.r.r.r.r.r.r.r.r.r.r.e.r.r.r.r.e.M M e.e.e.e.e.",
"e.r.e.e.M Z Z e.e.e.e.e.r.r.e.r.A j 4 # ; 5 2 w 9 e H 9 9 g f V A Z m Z r.r.e.r.r.r.e.r.e.r.e.r.r.r.r.r.e.e.e.e.e.e.M e.",
"e.r.e.m m M m Z e.e.e.e.r.r.r.r.A Z D B s p 4 : > , 5 p j N A e.Z m Z m M Z M Z e.r.r.r.r.r.r.r.e.r.e.r.r.r.r.e.e.e.M e.",
"e.e.e.e.Z e.r.e.e.e.e.e.r.e.e.e.e.r.e.r.A A Z C c N m Z Z M e.e.e.M e.r.r.M M A e.e.e.r.e.e.r.r.e.e.e.e.e.e.r.r.e.e.M e.",
"e.e.M M M r.r.r.e.e.e.e.r.e.e.e.M m M e.Z r.e.Z r.r.Z Z e.e.e.e.M M e.r.r.r.e.r.r.r.r.r.r.e.e.M m M e.M M e.r.r.e.e.M e.",
"m m m m m Z r.r.r.r.e.e.r.e.e.e.M M m m m m M Z e.M M Z M m m m M M M r.r.r.r.r.e.r.r.e.r.e.M M e.e.r.r.e.e.r.r.e.e.e.e.",
"m m m m m Z r.r.r.e.e.e.e.e.e.e.e.e.Z m m m m m m m m m m m m m M z M r.r.r.r.r.r.r.r.r.r.r.e.e.e.e.r.e.r.r.r.r.e.e.e.e.",
"m Z z e.e.e.r.e.r.e.e.e.z e.M e.e.r.r.r.e.M m M m m m m m m m M M e.e.r.e.e.e.e.e.r.r.r.r.r.r.r.e.r.e.r.e.e.e.e.e.e.e.e.",
"r.r.e.e.e.e.e.e.e.e.r.M e.z z M M M e.e.r.r.r.r.M m m m M e.r.r.r.r.e.e.e.e.e.e.e.e.e.e.r.r.r.r.r.r.e.e.M e.e.M M m m m ",
"e.e.Z m e.e.M z z e.e.M z M e.z m M M M M M e.r.M m m M r.r.e.m M e.M M M M M e.M e.M e.e.e.e.r.e.e.e.M M m m m m m m m ",
"e.e.M z z M e.e.r.r.r.e.e.e.e.M M M M M M M M M r.m m M r.r.M M M z M e.e.e.e.r.r.e.e.M M M M M M M m m m m m m m m m m "
};
