/* XPM */
static char *result[] = {
/* columns rows colors chars-per-pixel */
"60 60 215 2 ",
"   c #170F10",
".  c #1B1415",
"X  c #2F0617",
"o  c #320719",
"O  c #211A1D",
"+  c #231625",
"@  c #241A24",
"#  c #2A1D24",
"$  c #241D29",
"%  c #2B1D2C",
"&  c #361B25",
"*  c #2D1E31",
"=  c #2B222B",
"-  c #2C2628",
";  c #32252D",
":  c #3B252B",
">  c #352829",
",  c #2F2432",
"<  c #2F2A35",
"1  c #322534",
"2  c #3B2635",
"3  c #332A34",
"4  c #3B2B35",
"5  c #342739",
"6  c #352B3A",
"7  c #3A2D3C",
"8  c #3E3135",
"9  c #3D3834",
"0  c #37343B",
"q  c #3B323D",
"w  c #3D393F",
"e  c #54092A",
"r  c #5B1539",
"t  c #6F1038",
"y  c #472B2B",
"u  c #532E29",
"i  c #4B312E",
"p  c #57362E",
"a  c #5B362D",
"s  c #45253A",
"d  c #412C3B",
"f  c #473538",
"g  c #4A3C3D",
"h  c #543A37",
"j  c #5D3B33",
"k  c #663B2E",
"l  c #6B3C2E",
"z  c #653D32",
"x  c #6A3E31",
"c  c #484138",
"v  c #5E4038",
"b  c #77412D",
"n  c #7A432E",
"m  c #64443B",
"M  c #6A4538",
"N  c #744332",
"B  c #7E4631",
"V  c #7D4935",
"C  c #73483A",
"Z  c #7D4C3A",
"A  c #71573D",
"S  c #3C2F40",
"D  c #3D3442",
"F  c #3E3A43",
"G  c #5C1F46",
"H  c #492842",
"J  c #512442",
"K  c #423644",
"L  c #433B44",
"P  c #4A3844",
"I  c #443D4A",
"U  c #533D4C",
"Y  c #5A3C53",
"T  c #782E5B",
"R  c #424146",
"E  c #4C4447",
"W  c #46424C",
"Q  c #4B444C",
"!  c #4B4A4A",
"~  c #544C4D",
"^  c #59514D",
"/  c #4D4552",
"(  c #4D4B55",
")  c #4E4E59",
"_  c #524453",
"`  c #524B54",
"'  c #534E5A",
"]  c #475356",
"[  c #4F5159",
"{  c #5C5453",
"}  c #535458",
"|  c #53535D",
" . c #5A545C",
".. c #5C585C",
"X. c #614E4C",
"o. c #6D4F49",
"O. c #66524B",
"+. c #765549",
"@. c #695855",
"#. c #62575B",
"$. c #7B624B",
"%. c #76665C",
"&. c #575661",
"*. c #5C5762",
"=. c #565962",
"-. c #5B5C65",
";. c #5D5D69",
":. c #625D64",
">. c #615E68",
",. c #5E606B",
"<. c #6B6266",
"1. c #62626C",
"2. c #6B646C",
"3. c #6E6A6D",
"4. c #6A6571",
"5. c #736D74",
"6. c #7A737A",
"7. c #787478",
"8. c #804731",
"9. c #814832",
"0. c #854D39",
"q. c #894D39",
"w. c #964B3B",
"e. c #84513C",
"r. c #89513D",
"t. c #92553D",
"y. c #A64037",
"u. c #DB4A1F",
"i. c #D04830",
"p. c #CB5E35",
"a. c #E25630",
"s. c #DD6839",
"d. c #D77D34",
"f. c #8A154C",
"g. c #971653",
"h. c #AA1357",
"j. c #832854",
"k. c #8B5442",
"l. c #8B5946",
"z. c #965747",
"x. c #935B4A",
"c. c #8F5F51",
"v. c #955D55",
"b. c #A64C46",
"n. c #AB5547",
"m. c #AA5B58",
"M. c #B95F56",
"N. c #846B46",
"B. c #94654A",
"V. c #966655",
"C. c #9C7357",
"Z. c #A86557",
"A. c #A67050",
"S. c #907270",
"D. c #A36B63",
"F. c #B76E62",
"G. c #A77B68",
"H. c #C54C46",
"J. c #C76A49",
"K. c #C16857",
"L. c #E1614A",
"P. c #C26468",
"I. c #F18F36",
"U. c #F59934",
"Y. c #F8B538",
"T. c #A8835C",
"R. c #B18657",
"E. c #BD955D",
"W. c #8D8366",
"Q. c #B2906C",
"!. c #C69053",
"~. c #E88345",
"^. c #ED984A",
"/. c #C8A356",
"(. c #D9A856",
"). c #EFA346",
"_. c #E6B249",
"`. c #F1B74B",
"'. c #E5B153",
"]. c #C79B62",
"[. c #D0AC6C",
"{. c #F8CC51",
"}. c #F5D259",
"|. c #EACC60",
" X c #F5D26D",
".X c #FBE678",
"XX c #7A7780",
"oX c #817C80",
"OX c #B57C82",
"+X c #8A858B",
"@X c #8A8C95",
"#X c #9A959B",
"$X c #9C9AA2",
"%X c #A19EA6",
"&X c #A8A3A9",
"*X c #AFADB7",
"=X c #B3AEB5",
"-X c #C39796",
";X c #F4E788",
":X c #F9F4A1",
">X c #BDBAC3",
",X c #C2BEC5",
"<X c #C7C6CE",
"1X c #C9C5CB",
"2X c #CFCCD4",
"3X c #D4D1D4",
"4X c #DAD7DC",
"5X c #DDDAE1",
"6X c #E0DBE3",
"7X c #E7E4E8",
"8X c #E9E6EB",
"9X c #EEEBF1",
"0X c #F2EDF4",
"qX c #F5F2F5",
"wX c #FAF8F9",
/* pixels */
"9.9.9.8.B n 8.8.9.9.9.9.9.9.9.9.9.9.9.9.9.9.9.8.n 8.8.n 8.8.8.8.9.9.9.8.B n n n 8.9.8.n 8.8.9.9.9.9.9.9.9.8.9.9.8.n n n ",
"9.9.8.B n n n 8.8.8.8.9.9.9.9.9.9.9.9.9.8.8.9.9.9.8.n b b n n 8.n B 9.9.8.8.8.n n n n n n 8.9.9.9.9.9.9.9.9.9.9.8.b n 8.",
"8.9.8.n n 8.8.8.n n n 8.9.9.9.9.8.8.8.8.8.8.8.8.8.9.9.8.n b b b n b n n n n n b n l n b n 8.9.9.9.9.9.9.9.9.8.9.8.8.8.8.",
"B B 8.n B 8.8.8.9.9.8.8.9.9.9.9.8.8.8.n 8.n n n n 8.8.8.8.8.n n b b b b b b b b n n b n n 9.9.9.9.9.9.9.9.8.9.9.9.9.9.9.",
"n n n b n n 9.9.8.9.9.9.9.9.9.9.8.n n n 8.8.n b b n n 8.8.9.9.9.9.B n b b b b n n 8.9.9.9.8.8.8.8.8.8.8.9.8.8.8.8.8.9.8.",
"n b b b n n 9.9.9.9.9.8.9.9.9.9.8.n 8.8.8.8.n n b n n n n n 8.9.9.9.B b b b n 9.9.n n 8.8.8.n n 8.8.8.8.8.8.8.8.8.8.8.8.",
"b b n n n B 9.9.8.9.8.9.9.9.9.9.9.8.9.9.8.9.8.8.8.n n n B n 8.n 9.9.B n b n B 9.8.n n n n n n 8.n 8.8.8.n 8.8.n n 8.8.8.",
"n B 8.9.9.9.9.9.8.8.9.9.9.8.9.9.9.9.9.9.8.8.8.8.8.8.8.n n n n B B n n b b b B B 8.n n n n 8.8.9.8.8.n 8.n 8.l n b b b b ",
"9.9.B B B B n n B B B B 9.B n 9.8.8.8.8.9.n n b b n b b b b b b n b b b n b n n n n n n B 9.9.9.n n n n b b b b b b n n ",
"9.n n b n n n B B B B B B n 9.n n 8.n n n n b b b b b b b b b b b b b b b b b b b n n n n n n n 8.n n b n n b b n n 8.8.",
"9.B B n B 8.9.9.8.B B B n b n b n n b l M a p h a N b b n b n b b b b b b n b n n n 8.8.8.8.B 9.8.8.8.8.8.8.8.8.8.8.8.8.",
"r.9.9.B 8.8.8.8.B n n n b b b b b a y - @ O @ $ # # # y v B B B n n n B n n n n n 8.8.n n n B 9.8.8.9.8.9.9.9.9.9.9.9.8.",
"9.9.B B 9.B n n B B B l n l l a # @ @ $ , , < 1 3 3 1 , > i b n n B b n B 8.8.9.8.9.n n n B B B n 8.8.8.8.8.8.9.9.9.8.8.",
"b B n B B 9.n B 8.9.9.B 8.N y @ @ , < 3 5 < 5 6 6 6 6 6 4 3 3 j B 9.B B n n n n 8.8.9.n B 9.B B 8.8.8.8.9.9.8.8.8.8.8.8.",
"b b b b n n n n B 9.9.B x : O % 5 6 6 6 5 5 6 7 7 q q K S D q 4 p N B B 9.B 9.B n n n n n 9.9.9.8.8.8.9.9.8.8.8.n b b n ",
"B B n b n n n B B 9.9.z # + % 3 < 5 S 6 6 D K I K q 6 q D L D D q f b n B n n n n b b n n B 9.9.8.8.8.8.9.8.8.n n b b b ",
"8.9.8.8.B 9.8.9.B 8.M & + 1 3 6 6 6 7 S D I / ' ' 5 _ 6 6 K K D D D h b b b b b b b n n n 9.9.9.9.9.9.9.9.8.8.8.9.n n b ",
"9.9.9.9.9.9.9.9.9.b : + * 5 6 6 6 q q D I / _ 4./ / *X#X/ 3 D L F D g v b b b b n n B B 9.9.9.9.9.9.9.9.9.9.9.9.9.8.9.8.",
"9.9.8.9.9.9.9.9.n i + = 1 3 7 6 q q D D / _  .2.7 2.2.S.&X2.= = D F L L N n n Z 9.B B 9.9.8.n 8.8.8.9.9.9.9.9.9.9.9.9.9.",
"8.9.9.9.9.9.B B k # % 1 6 7 7 7 q D D D I _ *.I 1. .  O #.oXQ < L L F L m N B B 9.n n n n n 8.n 8.9.8.8.8.9.9.9.9.9.9.9.",
"8.8.8.8.9.9.9.V : % 1 2 5 S S q L L 5 < / ` D | 1X7.  9 &X^ <.- L L L F g V B 9.B n n n 8.8.9.8.9.8.8.n 8.8.8.9.9.8.9.8.",
"B B 9.9.9.8.9.z @ % 5 7 J J 2 1 ; 1 6 6 W ) XX>X7X3X%.- # O @.# D E / W R +.n n n n n 8.8.8.9.9.8.n n n n n n n 8.8.9.9.",
"9.8.8.9.8.8.C y $ * 2 G f.t o o s E I I ) $X>X<X7XqX7X#X~ 7.<.- q Q / ` E o.9.B B n n n n n 9.9.8.8.n 8.8.8.8.n 8.8.9.8.",
"9.9.9.9.8.8.C $ , S H g.g.e X t j.Q / ( / 1.>X<X7XqXqXwXqX3Xg = q q ` / / O.V B 9.8.9.8.n 9.8.n n n n 8.8.8.8.8.8.9.9.9.",
"9.8.9.9.9.9.m $ < S H j.e X r h.g._ / ( ( ( ,.%X3X8XwXwX8X7.. 0 c - ~ ( / X.V B n n 8.n n n n b n b b n 8.9.9.9.9.9.9.9.",
"9.9.9.8.8.9.h % S S H H s & f.h.T / ( ] ] [ [ [ 5.#X=X$X,.- < w w - ~ ( _ ^ V b b b b b n b b b b b b n 8.9.9.9.9.9.9.9.",
"8.8.8.8.9.9.h % S < 6 S S r g.T ) ) ( ` [ | =.[ ] R F 0 0 w F ( > f ^ ` ` X.V B n b b b b b b n n n 8.8.9.9.9.9.9.9.9.9.",
"B B B n B B i % < 0 S D H r j.Y / ( ) | [ | [ =.=.| } ] ( } | F > ^ ` P g o.9.9.9.n b b b n 8.8.9.8.8.8.9.n 8.8.8.8.8.8.",
"9.9.9.n B n p , < 6 D D D 7 Y / _ ) ) ' | &.=.=.=.-.=.-.,.-.>.` ` _ 3 + = v 9.B 9.8.b b b 8.9.8.n n n n n n b n 8.8.n n ",
"n n n b l n a = 6 6 D D L I I _ _ ) ' | | &.=.-.,.,.1.1.,.-.,.#./ * $ * % i N B 9.8.b b b 8.8.8.n n n n 8.8.9.9.9.9.8.8.",
"n n n n n n k ; 6 0 D F I W / | @X;.) | =.=.=.,.,.,.1.1.1.-...| 5 * * * 1 1 h V 8.8.n n n 8.9.8.8.8.8.8.8.8.8.8.n n n n ",
"n n n n n n N : 5 S S D I ' | I >X&X5.| [ | =.-.,.1.1.1.,.>.*.D * * * 1 2 3 9 M 8.8.8.8.8.8.9.9.9.8.9.9.8.8.8.n n b b b ",
"n 8.n 8.B B B i , 7 S D / 4.*.` +X- < E [ | =.-.1.1.1.1.1.>.I * 2 5 5 2 3 P [ { B 8.8.8.8.9.9.9.8.8.8.8.8.8.8.8.8.B n n ",
"8.n n n n b b z 1 q D D / 4./ oX+X. } 6.( } | -.1.1.,.4.5.` 1 1 7 K K 7 P ....@.9.8.8.8.9.9.9.9.8.8.8.n 8.8.n n b n 8.n ",
"b n n n b b b b i 5 D D I W &.,X4X5.- - 1.1.( ,.,.,.,.5.5.f : 4 d K K E @.( ] +.B B 9.l.q.9.8.8.n n b n b b b b b b b b ",
"b b b n n b n B N 8 6 q D F #X2X8X6X&XoX1X3.R } ;.-.,.,._ 2 d K P U E @.^ f O.Z B B 0.D.9.8.9.l b b b b b b b b b b b b ",
"b b n B B 8.B 8.B M d q D F ;.*X5X9X9X0X6XW w [ -.-.2.5.K 4 P U Y _ @.^ A C.C.l.e.B +.c.V Z N l b b b b n n n n n n n b ",
"b n 9.9.B n B n n n j 7 S D D ' $X4X8X6X6.$ 0 ( ` *.5.<.; : d U @.@.%.c N.E.E.E.R.T.B.Z V v.0.8.b n n b n n n 8.8.8.8.8.",
"b n B 8.n n n n n B V M 7 D I I F ..-.W $ < w ! > #.6.#.# % d f P %.%.c $.T.E.E.]./.[.C.k.v.B B B B 8.8.B 8.8.8.8.9.9.9.",
"n n 8.8.9.B B B B 9.9.V C g D F F 0 0 < D F w 9 c { 5.:.q ; 4 K P %.{ @.n r.l.l.B.!.(.T.V k.8.8.8.8.8.8.8.8.9.8.9.9.9.9.",
"n n 8.9.9.9.n B 9.9.8.n n V v g c w R L Q L w ! c ~ ....^ +.M v E W.+.k.8.Z.y.w.y.p.'.[.z.v.x.9.B 9.9.8.9.9.8.8.8.8.8.8.",
"8.n n 9.B 9.B n n 9.9.8.8.n B N M c R R W E ! ~ ^ ^ ^ +.e.9.B 9.Z l.Z Z 9.A.U.a.u.I._.(.H.m.V.V.C.B.l.9.8.9.8.n B B B B ",
"8.8.n n n n n n 9.9.9.9.9.B B B B V V N M m M C A V V n n B 8.8.B e.C.G.M.s.U.Y.`._.(.^.i.z.9.x.A.T.x.9.9.8.8.n n B 8.8.",
"n n b n b b b b n 9.9.9.9.9.9.B 9.9.B 8.n B B 9.B B n n b n b b n l.Q.G.z.s.U.{..X|.|.).s.n.9.9.9.9.9.9.9.9.8.8.B B 8.8.",
"b b b b n n b n B 9.B n B B B B 9.9.9.8.B n n B B B B B n n n b b n n n n q.d.}.:X;X Xs.a.H.b.k.8.9.9.9.9.9.8.8.8.8.8.8.",
"b b n n B B 9.B B n n b n n B B 8.9.9.8.n b b b B B 9.9.9.9.9.9.n b b n n 9.d.{..X.X).i.n.m.F.D.k.8.9.9.9.8.8.8.8.8.9.8.",
"n n n 9.B 9.B 9.9.B B n n n n n B 8.9.9.B n b b b b B B B 8.9.9.9.n n n 8.z.~.).U.Y.I.H.q.l x.D.t.8.8.8.8.8.8.8.8.8.8.8.",
"n n 9.9.9.9.9.9.9.9.9.B B B 9.B B 9.9.9.B B B b b b b B B B 9.9.9.B B Z B.P.L.i.p.d.I.K.q.B 0.x.B.8.8.8.n 8.n B B 8.B B ",
"n n 9.9.9.9.9.9.8.8.8.8.8.9.9.9.9.9.9.9.9.9.8.8.b b n 8.8.8.9.9.9.9.9.v.-XP.b.z.q.t.J.J.t.9.9.9.r.0.8.8.B 8.l 8.8.8.8.8.",
"B B 9.9.n 9.9.9.8.8.8.8.9.9.9.9.9.8.9.9.9.9.8.8.n n 8.8.8.8.9.9.9.9.l.OX-Xz.q.8.r.9.t.K.k.9.9.9.9.9.9.9.8.l n 8.8.9.8.9.",
"9.9.B B n n n 9.8.8.8.8.9.9.9.9.9.9.9.8.8.8.8.8.n 8.8.8.8.9.9.9.B B k.k.q.9.B 9.v.r.B.Z.z.9.9.9.9.9.9.9.9.8.8.8.9.8.B 8.",
"9.9.9.n n B n n 8.8.8.8.9.9.8.9.9.9.9.9.8.8.8.8.n 8.8.8.8.8.9.8.n n n n 8.8.l z.v.r.T.V.k.9.9.9.9.9.9.9.9.9.9.8.8.8.l a ",
"8.9.9.n B 9.9.9.8.8.8.8.8.8.8.8.8.8.8.8.8.8.8.8.b n n 8.n 8.8.8.9.l 8.8.8.8.B z.z.0.T.B.w.8.8.8.8.8.8.9.8.8.8.8.8.n u l ",
"8.8.n n n 9.9.9.8.8.8.8.8.8.8.8.n b 8.8.8.8.8.8.8.8.8.n 8.8.n 8.8.B 8.8.8.8.8.k.q.9.r.0.8.8.8.n l 8.n n 8.8.8.9.8.u u 8.",
"n n b b n 8.9.9.8.8.8.8.8.8.8.8.8.b b b b b 8.8.n 8.8.n n n n b l B 9.q.9.9.8.8.9.9.9.9.8.8.8.n 8.9.9.9.8.8.8.8.l y n 8.",
"n l b b n n 9.9.8.8.8.8.8.8.8.8.8.8.n n b b b b b b b b b b b b n n l 9.9.9.8.9.9.9.9.8.8.8.8.8.9.9.9.9.9.8.8.8.u n 8.8.",
"n n n n 8.8.9.8.8.8.8.8.8.8.n 8.8.8.8.8.n n n n n b b b b n b n n 8.8.9.8.8.8.8.8.9.9.9.8.8.8.9.9.9.9.9.8.8.8.l l 8.8.8.",
"9.9.9.8.8.8.8.8.8.8.8.8.l 8.b b b 8.8.8.8.8.8.8.n b b b n 8.8.8.8.8.8.8.B B 8.8.8.8.8.8.8.8.8.8.9.9.8.8.8.n n l n l n 8.",
"9.n n n 8.8.l n l 8.8.n n l n n b b b b 8.8.8.8.8.b b b 8.8.8.n B 8.n n n n B B B 8.8.B 8.8.8.8.8.8.8.n n b n n b b b b ",
"9.n n n l 8.9.8.9.8.8.8.8.8.n 8.b b n b b b 8.8.n b b n 8.8.8.b n l n 8.B 8.8.8.8.8.B B n n n n n 8.8.l n 8.l l b b b b "
};
