/* XPM */
static char *result[] = {
/* columns rows colors chars-per-pixel */
"60 60 213 2 ",
"   c #1D1514",
".  c #2D0516",
"X  c #300416",
"o  c #25161B",
"O  c #251623",
"+  c #241924",
"@  c #291D24",
"#  c #251E29",
"$  c #2B1D2C",
"%  c #311D2D",
"&  c #262126",
"*  c #2D2225",
"=  c #2C232C",
"-  c #2F2A2E",
";  c #342326",
":  c #33242D",
">  c #322C2D",
",  c #3C292B",
"<  c #39332E",
"1  c #2E2331",
"2  c #2F2C38",
"3  c #322534",
"4  c #3A2635",
"5  c #342A36",
"6  c #3C2B34",
"7  c #352639",
"8  c #352B3A",
"9  c #3A2D3C",
"0  c #3E3435",
"q  c #373438",
"w  c #3A323D",
"e  c #49172D",
"r  c #4A1F39",
"t  c #531532",
"y  c #6A0A31",
"u  c #730C38",
"i  c #69153D",
"p  c #452D2C",
"a  c #49302E",
"s  c #52332C",
"d  c #5A362D",
"f  c #422E30",
"g  c #412B3E",
"h  c #463739",
"j  c #44333C",
"k  c #4C3B3B",
"l  c #583B37",
"z  c #633A2E",
"x  c #6C3D2E",
"c  c #713F2D",
"v  c #633D32",
"b  c #6B3F32",
"n  c #4C433E",
"m  c #58443B",
"M  c #77412D",
"N  c #7A432E",
"B  c #6C4234",
"V  c #65443B",
"C  c #684539",
"Z  c #744433",
"A  c #7E4631",
"S  c #7E4935",
"D  c #724838",
"F  c #7B4B39",
"G  c #7E503F",
"H  c #3D2E40",
"J  c #3D3442",
"K  c #3F3944",
"L  c #482741",
"P  c #562644",
"I  c #413544",
"U  c #493543",
"Y  c #423B44",
"T  c #4A3B44",
"R  c #433C49",
"E  c #4C3E49",
"W  c #523C4D",
"Q  c #64384F",
"!  c #762F5A",
"~  c #6A3456",
"^  c #444146",
"/  c #494346",
"(  c #47434B",
")  c #4B434D",
"_  c #4C494C",
"`  c #554A49",
"'  c #524A4E",
"]  c #59524A",
"[  c #4D4552",
"{  c #4C4B54",
"}  c #4D4E58",
"|  c #524753",
" . c #524B55",
".. c #594854",
"X. c #524D5A",
"o. c #4D5258",
"O. c #515757",
"+. c #5B5454",
"@. c #54535D",
"#. c #5B525B",
"$. c #5A585E",
"%. c #645344",
"&. c #765548",
"*. c #7D5949",
"=. c #6A5654",
"-. c #675956",
";. c #6B644E",
":. c #565760",
">. c #5B5661",
",. c #565962",
"<. c #5B5B64",
"1. c #5D5E69",
"2. c #635E69",
"3. c #5E6067",
"4. c #5F626C",
"5. c #63626D",
"6. c #6A626B",
"7. c #6D696E",
"8. c #746A67",
"9. c #6F6B75",
"0. c #726D75",
"q. c #796F78",
"w. c #76727A",
"e. c #B23D38",
"r. c #804731",
"t. c #814832",
"y. c #834D3A",
"u. c #8D4B38",
"i. c #904D3D",
"p. c #85513C",
"a. c #89533E",
"s. c #AB543D",
"d. c #B55D3C",
"f. c #DA4D23",
"g. c #C5493C",
"h. c #CB5634",
"j. c #E2503E",
"k. c #D57739",
"l. c #E5652C",
"z. c #E87836",
"x. c #841A4E",
"c. c #981C56",
"v. c #A6185C",
"b. c #B51159",
"n. c #875646",
"m. c #8A5443",
"M. c #8C5A45",
"N. c #8D564C",
"B. c #955849",
"V. c #8E5D51",
"C. c #965C53",
"Z. c #A44D44",
"A. c #B45A49",
"S. c #A65C58",
"D. c #B85352",
"F. c #946449",
"G. c #966355",
"H. c #986B58",
"J. c #9A7555",
"K. c #B4634D",
"L. c #A6655A",
"P. c #A37A57",
"I. c #827B7C",
"U. c #A77F65",
"Y. c #AE7268",
"T. c #C44C4C",
"R. c #CB6E4C",
"E. c #E77143",
"W. c #E98639",
"Q. c #F39135",
"!. c #F59D39",
"~. c #F6AC36",
"^. c #A48057",
"/. c #BA935C",
"(. c #AA8362",
"). c #B68D62",
"_. c #BA9661",
"`. c #D39B4C",
"'. c #C8975A",
"]. c #C6A45A",
"[. c #E9A544",
"{. c #F3B746",
"}. c #E5B657",
"|. c #C79B62",
" X c #D7B76B",
".X c #F8CC4F",
"XX c #EDCA5A",
"oX c #F1D66B",
"OX c #F9E677",
"+X c #7C7A85",
"@X c #7F808A",
"#X c #888488",
"$X c #938D92",
"%X c #958E95",
"&X c #9C9BA4",
"*X c #A49CA5",
"=X c #ACA9AD",
"-X c #AAA8B2",
";X c #B3ACB2",
":X c #B7B4B9",
">X c #C38F8A",
",X c #D8ADB8",
"<X c #ECDD88",
"1X c #F9E985",
"2X c #FCF79E",
"3X c #BDBAC3",
"4X c #C6C4CC",
"5X c #CCC7CB",
"6X c #D8D5DD",
"7X c #E8E5EA",
"8X c #EEEAF2",
"9X c #F2EDF3",
"0X c #F8F5F7",
/* pixels */
"t.t.t.r.r.r.r.r.t.t.t.t.r.t.r.t.t.r.t.t.t.t.t.t.N r.r.N r.t.t.r.r.r.r.r.r.N N N r.r.r.r.r.r.r.r.r.r.r.r.t.t.t.t.r.N N r.",
"t.t.r.N M M N N r.t.r.t.t.t.t.t.t.t.r.t.t.t.t.t.t.t.N N M N r.N r.r.r.r.r.r.r.r.N N c c c r.r.r.r.r.t.t.t.r.t.r.r.N r.N ",
"r.t.r.N N r.t.r.M N r.r.t.t.t.t.r.r.r.r.t.t.t.t.r.t.r.N N M M M M N M N M M M N r.c N c r.r.r.r.r.u.r.r.r.r.t.t.r.r.r.r.",
"A A r.A r.r.t.r.r.r.r.r.r.t.r.t.r.r.N r.N N N N N t.r.r.r.r.M N N M M M M M M M c r.c r.r.r.r.r.r.r.r.r.r.u.r.t.r.r.r.r.",
"r.N M M M r.r.t.r.t.t.t.t.t.t.t.r.N N N r.r.N M M N N r.r.t.t.t.t.r.A M M M M M r.r.r.r.r.r.r.r.r.r.r.r.r.r.r.r.r.r.r.r.",
"M M M M M N t.t.t.t.t.t.t.t.t.t.r.r.r.r.t.r.N N M M M M N r.r.t.r.r.A c M M A t.r.r.r.r.r.r.M r.r.r.r.r.r.r.r.r.r.r.r.r.",
"M M M M M r.t.t.t.t.t.t.t.t.t.t.r.r.t.t.r.t.t.Z b z d d d d z x D A A M M M A t.r.r.c c c c r.r.r.N r.r.r.r.r.N N r.r.r.",
"N r.t.t.t.r.t.t.r.r.t.t.t.r.t.t.r.r.t.t.Z l p * @ O O + O O O @ ; p v M M M A r.r.c r.r.r.r.r.r.r.r.r.M M M r.c M M M M ",
"t.t.A r.r.A N N N r.r.r.t.r.r.t.r.r.D l = # $ $ % 3 1 1 1 1 1 $ # + + ; d c M M N M M N A r.r.A N N c N M M M M M M M N ",
"t.N M M M M M A r.r.A A N r.N N A B 4 $ 1 2 2 7 4 7 7 3 3 2 3 3 3 1 = + + , B M c M N N A M A A r.N r.N M r.N N N N r.r.",
"t.A A N r.r.t.t.r.A A A N M M M z : 1 2 8 H 9 r P r L H 9 8 8 8 7 8 7 7 = + & v N r.r.r.A A r.r.r.r.r.r.r.r.r.r.r.r.r.r.",
"a.t.t.t.r.r.r.r.A A M M M M M z ; 3 2 2 8 L P c.c.x.P H H H 8 9 8 2 H 2 7 1 # @ v r.r.r.M N A A r.r.r.r.r.r.r.r.r.r.r.r.",
"t.t.t.t.t.r.N M r.A M M M M B , 3 5 8 8 J H P i u u t g w 8 w w H H H 2 5 7 3 & * B N N A A A A r.r.r.r.r.r.r.r.r.r.r.r.",
"M N N N r.r.r.A r.r.t.A A A a 3 5 q 8 J 8 w J % . X . o w Y J J J H H 2 8 5 5 1 $ , F A A r.A A r.M r.r.r.r.r.r.r.r.r.r.",
"M M M M M N N N A r.r.t.t.v 3 8 8 H J J J I r t y y y e = 8 Y J K J R J H 2 8 5 3 & d M A t.t.t.r.r.r.r.r.r.r.r.r.N M N ",
"t.A M M M M N r.r.r.t.t.A a 8 9 H J K K J e x.v.v.b.c.Q R w $ 3 R [ W [ R K w 8 3 = ; M M r.t.t.r.r.r.r.r.r.r.r.N M M M ",
"t.r.t.r.t.r.r.r.r.t.t.r.B 5 H H J K K K K W ~ ! ! ! ~ [ ) J H K [ | {  .X.W I 9 8 5 O z M t.t.t.t.r.t.t.t.r.r.r.r.r.N N ",
"t.t.r.t.t.t.t.t.t.t.t.S v 8 H J K [ { } [ [ W [ { [ { { { [ [ ( X.$.2.0.6.[ w w w 5 : s t.r.t.t.t.t.t.t.t.t.t.t.r.r.r.r.",
"t.t.t.t.t.r.t.t.t.t.t.t.l 8 H K X.6.9.} Y ..[ ' } } { { o.[ +X+X) w ^ K J 9 8 9 J 9 5 p r.r.A A r.t.t.t.t.r.t.t.r.r.t.r.",
"t.t.t.t.t.t.t.t.r.t.t.t.k w H K [ >.[ J +X+X[ { } X.{ o.{ [ &X3X-X&X$X7.9.*Xq.5 I J 8 f c M A A r.t.r.r.r.t.r.t.t.t.t.t.",
"r.r.r.r.t.r.t.r.t.t.r.S h J J [ 1.>.q.%X:X&X{ @.} } :.o.o.o.-X4X6X7X3X- o $X$X8 I I H 6 Z A r.r.t.r.r.N A r.r.r.t.r.t.t.",
"A r.r.r.t.t.t.r.r.A t.S j J K 2.3X6X5XY q #X} @.:.:.:.o.o.o.-X6X8X0X@X  o / *X8 Y I J 0 Z A r.r.r.A N N N A N A r.r.t.r.",
"r.r.t.t.r.t.r.A A M A F h K K 9.4X8X-X# & _ @.@.,.:.o.,.o.o.&X7X0X0X(.o I.+.*X8 R J J f c A A A r.r.N r.r.r.r.N r.r.r.t.",
"t.t.r.t.t.t.r.A M A A S k K ( w.6X8X=X: #X{ @.@.:.,.,.,.,.R +X7X0X0X@X  8.-.+X& J J J j Z r.A A A N N A r.r.r.r.r.r.t.t.",
"t.t.t.t.t.t.t.r.r.t.t.t.m j K 6.6X8X4X= - | X.,.:.,.1.,.,.o.( 3X0X0X5X*   8.h & q K w k N N N M M M M N r.r.t.t.r.t.t.t.",
"t.t.t.t.t.t.t.t.t.t.t.t.V K q q :X8X9X:X%X<.:.,.,.1.4.4.,.,.R ( =X7X7X;X0.0 - h K ^ w s M M M M M M N N r.r.r.t.t.t.t.t.",
"r.r.r.t.r.r.t.t.t.t.t.r.D j ^ q ^ -X6X4Xw._ :.,.4.4.4.4.4.,.o.J q _ _ w & - w R K K 0 B M M N N N N r.r.t.t.t.t.r.r.r.r.",
"r.A N N N r.r.r.r.r.r.r.M n ^ w - & = - 2 { 1.4.4.4.5.5.4.,.,.( q 2 - - < J ( R Y K n M M N A r.r.r.r.r.t.A A r.r.r.r.r.",
"r.r.r.r.N N M N N N N M M V R ( K H 2 q ( :.1.2.5.5.5.5.4.4.<.,.{ Y w h w Y E [ R Y V M N A r.r.N N N N N N N N N r.r.N ",
"r.N M M M M M M M M M M M A n _ K K ^ _ $.,.1.5.5.4.4.5.3.1.1.1. .^ K > ; ) [ ' ^ n F M N r.r.r.N N N A A r.t.r.r.r.r.r.",
"M M M M M M M M N N M r.r.N D ^ _ q q < Y $.$.<.5.9.6.5.2.<.2.$.R > < 0 /  .[ [ / &.A M N A t.r.A r.r.r.r.t.r.r.r.N N N ",
"N N N N r.N r.N t.t.N N r.t.A C _ +.n n -.6.0.7.5.0.2.>.:.#.X.#.+.+.+.] ' { [ ( &.y.A A r.r.t.t.r.r.t.t.t.r.A N N M M N ",
"r.r.N r.r.r.M r.r.r.M M r.r.r.r.V ` ] O.0.q.6...T j 6 3 3 3 1 1 3 7 I | .._ ' &.F t.r.r.t.t.r.t.r.r.r.r.r.r.r.r.r.r.N N ",
"r.N r.N r.M M M r.M M M M M r.r.t.%._ $.0.+.: : 4 6 4 , 7 7 % 1 $ $ $ 4 ' ..*.t.t.t.r.r.t.t.t.t.r.r.r.r.r.N N N M N r.N ",
"c r.c N M M M M M r.r.M M M c c M S &.] +.j @ , g U U g 9 g 7 3 % % $ 4 C y.r.r.S A r.A r.r.r.r.r.N M N M M M M M M M M ",
"c c N c M M M r.r.r.r.r.r.r.r.r.A A t.p.*./ : 9 T W W U I H 9 7 7 1 3 v r.r.r.r.A A A A N A M A M M M M M M M M M M M M ",
"r.c r.r.r.r.r.r.r.r.r.r.r.r.r.r.t.t.r.t.t.&.j J T =...W T T w 6 8 3 f Z r.A r.c c r.c r.M M M M M M M M M M M M N N N N ",
"c r.r.r.r.c r.c r.M r.c r.r.r.r.N r.r.r.t.t.l Y k =.;.-.-.-.| ^ Y 9 k S c c r.c c c r.c M M N M M M M M N N A A r.r.r.r.",
"r.r.r.r.r.M M M M r.r.r.r.r.r.r.r.N N N N r.V -.8.8.-.] ] ]  .$.>. .m N r.c c r.r.c r.c c N r.N r.A r.r.r.r.r.r.r.r.r.r.",
"M c r.r.r.r.r.r.r.r.r.r.r.r.M M N M N M M M F H.;.%.n m F.G n O.+.=.D c c r.r.c M r.c c r.A r.r.r.r.r.r.r.r.t.t.r.r.r.r.",
"r.M r.r.r.r.M r.r.r.r.r.M M M M c c r.c r.y.n.S n.*.*.J./.^.*.&.A c r.r.M r.r.r.r.M M r.r.r.M c A r.r.t.t.t.r.r.r.t.r.r.",
"M r.M r.r.r.r.r.r.r.r.r.r.r.r.M r.c r.c N G.).G.A A m.F././.F.t.r.r.r.c r.M r.r.r.r.r.r.r.r.r.r.r.r.t.t.r.t.r.A r.N N r.",
"r.r.r.r.M M r.M r.r.r.r.r.r.r.r.r.r.r.r.c y.U.Y.B.a.A.m._.'.P.t.r.r.r.r.r.r.r.M M M M r.r.r.r.r.t.t.t.t.t.t.r.N N N N r.",
"M M M M M M M M M r.r.r.r.r.r.r.r.r.r.r.t.r.y.A.E.k.R.i.F.|./.M.N m.i.M M M M M M M M r.u.r.r.r.t.t.r.t.t.t.r.A r.r.r.r.",
"M M M M M M M c r.r.r.r.r.r.r.r.A r.r.r.r.r.c s.Q.~.l.e.i.'.].J.m.H.n.c M M M M M M M r.r.r.r.r.r.t.t.t.t.r.t.r.t.r.t.t.",
"M M M r.r.r.r.r.r.M M M M M M r.n.C.C.m.r.t.u.k.~..XQ.f.h.`. XU.S A A c r.M M M M M M r.r.r.r.r.t.r.t.t.t.t.t.r.t.t.t.t.",
"M M r.r.r.r.r.r.r.r.r.M M M M r.y.Y.,X>XK.R.`.{.OXOXXX!.[.}._.M.N.V.S A r.r.r.r.M M c r.r.r.r.r.r.r.r.A r.r.r.r.r.r.r.r.",
"M r.r.r.r.r.r.r.r.r.r.r.r.r.r.r.r.m.H.S.T.E.~.XX2X<XXX}.}.'.F.m.C.N.y.r.r.r.r.r.r.r.r.r.r.r.r.r.r.r.r.r.N r.N N r.r.r.M ",
"M M r.r.r.r.r.r.t.t.t.r.t.t.t.t.t.r.t.u.i.s.l.~.OX1XoX[.W.T.S.m.t.t.r.t.t.t.t.t.t.t.t.t.t.t.t.t.t.t.r.r.r.M N N r.r.r.r.",
"r.r.r.r.r.r.r.r.t.r.t.t.t.t.t.t.t.t.t.t.t.t.d.!.{.z.z.W.h.D.S.H.y.t.A A t.t.t.r.r.t.t.t.t.r.t.t.t.t.r.t.r.M M r.r.r.r.r.",
"r.r.r.r.N r.r.r.r.r.t.r.t.t.r.t.t.t.a.M.M.t.s.W.l.T.g.j.A.t.m.B.t.A M A A r.r.t.t.t.t.t.t.t.t.r.r.t.t.t.r.r.r.t.r.r.r.r.",
"r.r.r.N N N N r.A A r.r.t.t.t.t.t.B.L.C.a.u.K.R.S.a.B.D.Z.r.m.(.p.A M A N A A A r.t.t.t.t.t.t.t.t.t.t.t.t.t.t.t.r.r.M r.",
"r.r.r.r.N r.r.r.r.N r.r.t.t.r.r.t.p.p.a.J.B.R.S.S M r.L.B.N y.P.J.A t.t.t.A N A r.r.t.r.r.r.r.r.r.r.r.r.r.r.t.t.r.r.N r.",
"r.r.N N r.r.r.r.r.r.r.r.r.r.r.r.N N A J.(.L.L.t.r.r.N.Y.H.r.t.a.J.t.r.t.t.t.t.t.r.t.t.t.t.r.r.N M N r.N N r.t.t.t.r.N r.",
"M M M M M r.r.r.t.t.r.r.t.t.r.r.N N A p.M.N.A N N A N.C.a.N M M S M N t.t.t.t.t.t.t.t.t.t.r.N N r.r.t.t.r.r.t.t.r.r.N r.",
"M M M M M r.t.r.t.r.r.r.r.r.r.r.t.A N N Z M M M M M y.N.N c M M M M M t.t.t.t.t.t.t.r.t.t.t.r.r.t.t.t.r.t.t.t.t.t.r.r.r.",
"M N N r.r.t.t.r.t.r.r.r.N M N r.t.t.t.t.N N N N N M N F M M M N A A r.t.r.r.t.r.t.t.t.t.t.t.t.t.r.t.t.t.r.r.r.r.r.r.r.r.",
"r.r.r.r.r.r.r.r.r.r.r.r.N M M N N N N t.t.t.t.t.N M M N N t.t.t.r.r.t.t.r.A r.r.r.r.r.r.t.t.t.t.t.t.r.r.N r.r.N N M N M ",
"r.N N N N N N N N N N r.N M M M M N N N N t.t.t.N M M N t.t.N N N A A M M A N A r.N A N t.t.r.t.r.r.r.M N M M M M M M M ",
"r.r.M M N N N r.t.t.r.r.t.r.N N N M N N N N N N A M M N t.t.A N M M M A A t.t.t.t.r.r.A N N M N N N M M M M M M M M M M "
};
