/* XPM */
static char *result[] = {
/* columns rows colors chars-per-pixel */
"60 60 216 2 ",
"   c #191215",
".  c #2C0D1C",
"X  c #39061A",
"o  c #261A1D",
"O  c #271725",
"+  c #251B24",
"@  c #2A1C25",
"#  c #241C28",
"$  c #2B1D2C",
"%  c #311F2D",
"&  c #2D1E31",
"*  c #2B2526",
"=  c #26212A",
"-  c #2B222C",
";  c #2E292A",
":  c #332326",
">  c #37272A",
",  c #31242D",
"<  c #3A2B2B",
"1  c #2E2532",
"2  c #2F2B35",
"3  c #322534",
"4  c #3A2533",
"5  c #342935",
"6  c #3A2934",
"7  c #3C273C",
"8  c #352B3A",
"9  c #3A2D3C",
"0  c #353137",
"q  c #3D3633",
"w  c #35313B",
"e  c #3A323D",
"r  c #3C393E",
"t  c #46051E",
"y  c #570F2F",
"u  c #511833",
"i  c #6B0932",
"p  c #432C2A",
"a  c #4E332E",
"s  c #52332E",
"d  c #5D382E",
"f  c #46253D",
"g  c #412C3C",
"h  c #473436",
"j  c #45343D",
"k  c #463B3D",
"l  c #4D3C3C",
"z  c #573934",
"x  c #62392C",
"c  c #6D3E2E",
"v  c #643D32",
"b  c #6E3F30",
"n  c #53423E",
"m  c #5A443E",
"M  c #554D3E",
"N  c #77412D",
"B  c #7A432E",
"V  c #6A4539",
"C  c #754433",
"Z  c #7E4631",
"A  c #7D4935",
"S  c #734838",
"D  c #7A4B3A",
"F  c #70533E",
"G  c #3C2D40",
"H  c #3D3342",
"J  c #3E3943",
"K  c #6D1945",
"L  c #7D1749",
"P  c #462741",
"I  c #433443",
"U  c #423B45",
"Y  c #493D44",
"T  c #443D49",
"R  c #4B3C4C",
"E  c #513B4B",
"W  c #553F56",
"Q  c #652348",
"!  c #7F2558",
"~  c #663757",
"^  c #693252",
"/  c #4A4144",
"(  c #484345",
")  c #47424B",
"_  c #4A434C",
"`  c #4C4A4E",
"'  c #564846",
"]  c #52474A",
"[  c #524B4C",
"{  c #595149",
"}  c #4D4552",
"|  c #4C4B55",
" . c #4F4E58",
".. c #524553",
"X. c #5A4753",
"o. c #534B54",
"O. c #524E5A",
"+. c #4C5257",
"@. c #545053",
"#. c #5D5453",
"$. c #53535C",
"%. c #5B535C",
"&. c #774E42",
"*. c #795447",
"=. c #7D5444",
"-. c #685651",
";. c #665955",
":. c #736354",
">. c #565760",
",. c #5C5662",
"<. c #565962",
"1. c #5B5B64",
"2. c #5D5E69",
"3. c #635D64",
"4. c #675D6A",
"5. c #5E6067",
"6. c #5E616A",
"7. c #636067",
"8. c #62626C",
"9. c #6D656C",
"0. c #7A6C60",
"q. c #726A6E",
"w. c #797161",
"e. c #686671",
"r. c #716C75",
"t. c #746E78",
"y. c #777379",
"u. c #7A747B",
"i. c #CB3927",
"p. c #804731",
"a. c #814832",
"s. c #834D3B",
"d. c #8B4A3A",
"f. c #984B3A",
"g. c #85503D",
"h. c #88523D",
"j. c #92533E",
"k. c #9C593B",
"l. c #AD503C",
"z. c #C9492D",
"x. c #D44628",
"c. c #D65936",
"v. c #D66E39",
"b. c #E46A31",
"n. c #E87A32",
"m. c #97134D",
"M. c #A8175A",
"N. c #892551",
"B. c #895643",
"V. c #8A554A",
"C. c #8C594B",
"Z. c #915047",
"A. c #915F46",
"S. c #965848",
"D. c #965D56",
"F. c #A6514A",
"G. c #B15351",
"H. c #B25854",
"J. c #8C674F",
"K. c #93644A",
"L. c #96694D",
"P. c #966658",
"I. c #997557",
"U. c #AD624F",
"Y. c #A46257",
"T. c #A17459",
"R. c #A47C5B",
"E. c #9F5F60",
"W. c #9E6E61",
"Q. c #A36564",
"!. c #A77467",
"~. c #CD5949",
"^. c #D77A4A",
"/. c #CF6653",
"(. c #E98737",
"). c #E8973D",
"_. c #F69933",
"`. c #F4AC35",
"'. c #AE865A",
"]. c #B6905C",
"[. c #AB8763",
"{. c #B49067",
"}. c #DF9849",
"|. c #C49B5A",
" X c #EF9742",
".X c #D0A45A",
"XX c #EDB24E",
"oX c #D9B267",
"OX c #EDCB5D",
"+X c #F8CD50",
"@X c #F0D567",
"#X c #F9E475",
"$X c #7D7A80",
"%X c #887F83",
"&X c #87838A",
"*X c #8E8B96",
"=X c #979398",
"-X c #BB9592",
";X c #A8A4AB",
":X c #AEACB3",
">X c #B7B0B9",
",X c #C18C92",
"<X c #F8ED92",
"1X c #BDBCC5",
"2X c #C2BDC5",
"3X c #CAC6CC",
"4X c #CFC9CD",
"5X c #CDCCD3",
"6X c #D1CDD2",
"7X c #D6D4DA",
"8X c #E0DBDE",
"9X c #E7E6E9",
"0X c #E9E6EB",
"qX c #EDEAF1",
"wX c #F2EEF3",
"eX c #F7F5F7",
/* pixels */
"a.a.a.p.p.p.p.p.p.p.p.p.p.p.a.a.a.a.a.a.p.p.p.p.p.p.p.p.p.p.p.p.p.p.p.p.p.B B B p.p.p.p.p.p.p.a.a.a.p.a.p.a.a.a.p.p.N B ",
"a.a.p.B N N B B p.p.p.p.p.p.a.p.a.a.a.a.p.p.p.p.p.p.N N N N N p.p.p.p.p.p.p.p.p.B B N N B p.p.p.a.a.a.a.a.a.a.p.p.p.N p.",
"p.a.p.B B p.a.p.p.p.p.p.a.a.a.a.p.p.p.p.p.p.p.p.p.p.p.p.N N N N B N c B N N N B N N N N B p.p.p.a.a.a.a.a.a.a.a.p.p.p.p.",
"Z Z p.Z p.p.a.p.p.p.p.p.a.a.a.a.p.p.p.p.p.N p.N p.p.p.p.p.p.N N N B B B N N N N N B N N p.a.a.p.a.a.a.a.a.p.a.a.p.p.p.p.",
"B Z N N N p.p.a.p.a.a.a.p.a.p.p.p.B p.p.p.c N N N N N p.p.p.p.p.p.p.b B B B N Z B p.p.p.p.p.p.p.p.p.p.p.a.p.p.p.p.p.p.p.",
"N N N N N B a.a.a.a.a.a.a.a.p.p.p.p.p.p.p.p.p.p.N N N p.p.p.p.p.p.p.p.B b b C a.p.p.B p.p.p.B B p.p.p.p.p.p.p.p.p.p.p.p.",
"N B N N N p.a.a.p.a.a.a.a.a.p.p.p.p.p.a.p.a.p.p.p.p.N N p.N p.p.p.p.p.B B b Z a.p.B B N B N B p.p.B p.p.p.B p.p.B p.p.p.",
"B p.a.a.a.p.a.a.p.p.a.p.a.a.p.p.p.p.p.p.p.p.p.p.p.p.p.p.N N p.N B p.B B b p.Z Z B B B p.p.p.p.p.p.p.p.B B B B c N N N N ",
"a.p.Z Z p.p.B B B p.Z p.p.p.B p.p.p.p.p.p.B B B N N N N N N N B C d z s a s x c N N N B Z Z a.Z p.B B N c B N N N N N N ",
"a.Z N N N N N Z p.p.Z Z p.B p.B p.B p.p.B B B B N N N N N C V a 9 G 8 5 8 - , ; > s V A Z B Z Z B p.B N B p.N B B p.p.p.",
"a.Z Z B p.p.a.p.p.p.Z Z p.B B B b b B b B B N B N p.N B V j w e G G G G 9 8 8 8 3 - $ h S Z a.a.p.p.p.p.p.p.p.p.p.p.p.p.",
"h.a.a.a.p.p.p.p.Z Z N N B c B b c p.B B B B B a.p.p.B d e r H H H H H H H w w 8 8 8 3 $ , z a.a.p.p.p.p.a.a.p.a.p.p.p.p.",
"a.a.a.p.a.p.B N Z Z Z b b p.b B B p.p.p.a.p.a.a.a.S k J J T J T J } R J H H H w 8 8 8 G = = z C p.p.p.p.p.p.a.p.p.p.p.p.",
"N B N Z Z p.p.Z p.p.p.p.B p.p.p.p.p.p.p.a.Z B a.S k J J J | t.*X} ,.8.} J J H H w w G 9 2 $ $ d p.B p.a.a.a.a.p.p.p.p.p.",
"N N N N N B N B Z p.p.a.p.p.p.p.p.p.p.p.B B N C n J J w t.:X3X3X$XT t.,.} J H H H G P P 7 3 # % c p.p.a.a.p.p.p.p.N N B ",
"a.Z N N N B Z Z p.p.a.a.p.p.p.p.p.p.p.p.B Z A n ( U 8 4.7X0XqX0X5X,.H  .| T 7 f I g Q ! f 7 3 O p b p.p.a.p.p.B B N N N ",
"a.p.a.p.p.a.p.p.a.a.a.p.p.B p.p.B p.p.p.Z a.S ( ) r - ;XqXwX6X&X2.=Xt.} R } W K u % y M.K G 3 & O x a.a.a.a.p.p.a.B B B ",
"a.a.p.a.a.a.a.a.p.a.a.a.p.p.B b B p.p.p.a.Z M ) T r = 1XwX2X_ *   1.1X&XO.} ~ M.L X X m.L P 8 1 + > B a.a.a.p.a.a.p.p.p.",
"a.a.a.a.a.a.a.a.a.a.p.p.p.p.p.b p.p.p.p.a.D ` ( H w # &XqXy.; &X1 $X$X .W ..W ! M.i X y Q 9 7 2 - O d p.p.a.a.a.a.a.a.a.",
"a.a.a.a.a.a.a.p.a.a.p.p.p.p.p.p.p.p.p.p.a.M [ r r J 2 2 ;X;X( @.} $. . .| } | ~ M.m.t . 7 H 9 2 3 O < Z p.a.a.a.a.a.a.p.",
"p.p.p.p.p.p.p.p.a.p.p.p.p.p.p.a.p.p.p.p.p.M { M q ` T H r $.$.@. .$.$. . .| | W ^ N.u . r e 9 7 3 $ @ v B a.p.p.a.p.a.a.",
"p.p.p.p.p.p.p.p.p.p.p.p.p.p.p.a.p.p.p.N D ' @.' < ) >.O.@.$.<.<.>.>.>.$.$. .| | W E j , U 9 8 8 3 1 O s Z B B Z p.p.p.a.",
"p.p.p.a.p.p.p.p.p.b p.p.p.B p.a.p.p.p.p.=.@.9.q.3.%.1.2.2.2.<.<.<.<.>.>.$. .+.| .._ J 8 U 9 9 8 8 ; O p Z a.p.p.B p.a.a.",
"a.a.a.a.p.p.p.p.B p.p.p.p.p.p.a.p.p.p.p.=.#.9.y.y.5.1.2.8.8.6.2.<.<.>.>.$.+.+.| } U 1 8 I J w 9 7 5 + > Z p.p.p.a.a.a.a.",
"p.a.p.p.p.p.a.p.p.a.a.p.a.a.p.p.a.a.Z Z =.Y 6 Y q.r.5.6.8.8.8.6.6.<.<.+.<.+.| | | ) 8 1 H H w 8 5 8 $ : C a.a.a.p.a.a.a.",
"a.a.p.p.p.p.a.a.p.C.V.p.a.p.p.p.a.a.Z A *.6 @ : j 3.7.8.8.8.e.8.6.<.<.<.$.+.e.*X=X| } R J H G 8 8 8 $ @ C a.a.a.a.a.a.a.",
"p.p.p.p.p.p.a.a.p.!.E.a.p.p.B p.B B N C h 9 6 6 6 Y r.t.6.8.8.e.6.<.$.+.+.=X1X3X;XJ O...} T G G 8 8 $ - A a.a.a.p.a.a.a.",
"p.p.p.p.p.p.p.p.d.-X,XB.Z b b h.J.B D l I I P j g 4 o.9.8.6.8.6.6.$.` ` :X7X7X5X:XJ O.O.} R G 8 8 2 # : Z p.B p.p.p.p.p.",
"a.a.Z Z a.s.N B b G.!.V.N N C I.[.A I.w.' ' X.E j 4 4 >.8.5.8.8.<. .J =X9XeXwX9X7X%.O.4.} } H 8 5 3 + p C B B B B p.p.B ",
"B B B B a.Y.Z.N c F./.H.Z B A !.!.D *.3.0.;.' E P 7 $ T 3.2.2.2.$.( J 6XeXeXeX8X5X*X9 r.,.} H 8 5 2 + s Z Z a.a.a.p.p.p.",
"B B N B N A P.s.b l.c.}.k.j.l.~.K.Z =.#.-.0.X.R I 7 3 3 O.3.1.1.+.r ( 9XeX9X=X{ * %.R R ,.R H 8 8 - O C a.a.a.p.p.B B N ",
"B B B B.R.A.s.s.p.l.n.`.).(.(.v.j.A D { q -.#.T j j 7 & H %.3.1.| 0 0 4XwXu.* o   5 =XT e J 8 7 3 = < A a.a.p.N B N N N ",
"Z Z Z g.T.I.d.a.k.v._.+X#X+X`._.^.U.B.J.:.M ;._ I 9 3 & & O._ e ` 0 + u.3Xo n =X* 9.>X9.3 I 8 8 ; o m a.a.p.p.p.p.p.B B ",
"Z B B g.D.Q.U./.(.`.+X<X<X#X`.n.l.Z.T.].'.F ;.[ 9 7 3 & $ T ] ; ( r ; = u.] q 9.W.;X%.3 e I 8 8 * p Z B Z Z B N N B B p.",
"N N N N Z s.S.U.~.b. X<X@XOX).i.d.L.{.|.R.M ( #.8 7 3 & $ 8 @.n * k e , @ / r.%Xe.w 2 H I 9 8 - : N N B N N N N N N N N ",
"N N N N B N Z a.C.G.x.OXOXXX).z.k.].|.'.h.-.@.%.I 3 4 & @ 5 [ [ q ; e U e ; ,   2 J T J e 8 3 : x N N N N N N N N N N N ",
"N N N p.p.a.a.p.p.F.x. X}.XXXX}..X.X].A.a.=.#.1.( 5 , , % 9 ..o.] ` _ ) T U J 1 G T U H 9 3 < x N N N N N B N N B B B N ",
"N B a.a.Z B Z g.Z.H.~.c.c.^..X.XoX{.L.a.Z a.D #.Y l z v m ' .........._ T U U J J J G 8 8 a b b N B N N B B B p.p.p.p.p.",
"N B a.a.B A V.Q.!.G.S.f.G.G.K.L.[.A.s.Z Z Z B A C N N N Z *.{ ] } _ _ _ T J J J H H 6 a x b p.p.B B p.p.a.p.p.p.a.a.a.a.",
"N B a.a.a.C.C.C.D.a.a.d.S.Q.a.C.s.C P.D.C N B B B B N Z B Z s.*.-.] / U U k J k j a c b p.B p.p.p.p.a.a.a.a.a.p.a.a.a.a.",
"B Z p.a.a.a.Z a.p.a.a.P.C.C.B B.P.B A C.s.B B B B p.p.p.p.p.p.p.A D &.&.&.V V C Z C N p.p.Z Z Z p.p.p.a.a.a.a.p.a.a.p.p.",
"B B B p.a.Z Z B p.a.K.'.s.Z B A B.a.B Z B B B Z p.B p.p.p.p.p.p.Z Z Z Z Z B p.p.B Z p.p.p.p.Z Z p.p.p.a.a.a.p.Z B B B p.",
"a.p.Z B B N N B p.h.[.K.a.Z Z a.p.a.p.p.B B B Z B B B B B B p.p.Z Z p.Z Z B p.N N N B Z a.a.p.p.a.a.a.a.a.a.p.N B p.B p.",
"B N N N N N N N B h.K.a.a.a.a.a.a.a.p.p.Z Z Z Z p.p.B N N B N N B B B N N N N N N N N p.a.a.a.p.a.a.p.a.a.p.p.p.p.p.p.p.",
"N N N N N N B B Z a.a.B Z Z a.a.p.a.a.p.B B B p.p.p.p.p.B B B B B N N N N N N N N N B a.a.a.a.a.a.a.a.a.a.a.a.a.p.a.a.a.",
"N N B B Z Z a.p.Z B B B N B B B p.p.a.p.B N N B B p.p.p.a.a.a.p.B N N N N N N B N N N B p.a.a.a.p.p.a.a.p.a.a.a.a.a.a.a.",
"N N p.a.p.p.a.a.a.Z B B N B B B p.p.p.p.p.B N N N N B B B p.a.a.a.B B B Z p.p.p.B N N N N Z p.p.p.p.p.p.p.p.a.p.p.a.p.p.",
"N B a.a.a.Z a.a.a.a.p.p.Z a.a.a.p.a.a.p.p.p.B B B N B B p.p.p.p.a.Z Z Z a.a.p.p.a.a.p.p.p.p.a.a.p.p.p.B p.B B B p.a.B B ",
"B Z p.a.a.a.a.a.p.p.p.a.a.a.a.a.a.a.a.a.a.p.p.p.N N p.p.p.p.a.a.a.a.a.a.a.a.a.a.a.a.a.a.a.a.a.p.a.a.p.p.p.B N B p.p.p.p.",
"Z p.a.a.p.p.p.a.p.p.p.a.a.a.a.a.a.a.a.a.a.a.p.p.N N p.p.p.p.a.p.a.a.a.a.a.a.a.a.a.a.a.a.a.p.a.a.a.a.a.a.p.B B B p.a.p.p.",
"a.a.p.p.Z N Z p.p.p.p.p.a.a.a.a.a.a.a.a.p.p.p.p.p.p.p.p.p.p.p.p.Z Z B Z a.a.Z a.a.a.a.a.a.a.a.a.a.a.a.p.p.p.p.p.p.p.B p.",
"a.a.Z B N Z B B p.p.p.p.a.a.p.a.a.p.a.a.p.p.p.p.N p.p.p.p.p.p.p.B B B B B Z B Z p.a.a.a.a.a.a.a.a.a.a.a.a.a.a.a.p.p.B p.",
"p.p.p.Z Z p.a.p.p.p.p.p.p.p.p.p.p.p.p.p.p.a.p.p.N N N p.N p.p.p.p.B a.a.a.B Z B p.p.p.a.a.p.a.a.p.p.p.a.p.p.a.a.p.p.B p.",
"p.p.B B B a.a.a.p.p.p.p.p.p.p.p.N N p.p.p.p.p.p.p.p.p.p.p.p.p.p.B B a.a.a.a.a.a.p.a.a.a.a.p.p.B B p.B B p.B a.a.p.p.B p.",
"N N N N N Z a.a.a.p.p.p.p.p.p.p.p.N N N N N p.p.N p.p.p.N N N N N N B a.a.a.a.a.a.a.a.a.a.p.B B p.p.a.a.p.p.a.a.p.p.p.p.",
"N N N N N Z a.a.a.p.p.p.p.p.p.p.p.p.p.N N N N N N N N N N N N N N N B a.a.a.a.a.p.a.a.a.a.a.p.p.p.p.a.a.a.a.a.a.p.p.p.p.",
"N Z N Z p.p.a.p.p.p.p.p.B B B p.p.p.p.p.p.N N p.N N N N N N N p.B p.p.a.a.a.a.a.a.a.a.a.a.a.a.p.p.a.a.a.p.p.p.p.p.p.p.p.",
"a.a.p.p.p.p.p.p.p.p.p.p.B c N N N p.p.p.p.p.p.p.N N N N N p.a.a.a.a.a.a.p.p.p.p.p.p.p.p.a.a.a.a.p.p.p.p.p.p.B B B B N N ",
"a.B Z N p.B p.b b p.p.B B B B b N N N N N p.p.p.p.N N N p.p.p.N B B B B N N B p.a.B B B p.p.p.a.p.B p.B B c N B N N N N ",
"a.p.B b B b p.p.p.p.p.p.p.p.p.p.N p.N N N N p.p.p.N N N p.p.p.N B B B B p.a.a.a.a.a.p.p.B B N B B B B B N N N B N N N N "
};
