/* XPM */
static char *result[] = {
/* columns rows colors chars-per-pixel */
"60 60 218 2 ",
"   c #181214",
".  c #2A0616",
"X  c #34091B",
"o  c #221A19",
"O  c #3C0E23",
"+  c #291726",
"@  c #241A24",
"#  c #2A1C24",
"$  c #261C29",
"%  c #2B1C2C",
"&  c #361F2F",
"*  c #2E1E31",
"=  c #2B262A",
"-  c #2C232D",
";  c #322225",
":  c #32242C",
">  c #34282A",
",  c #342A2F",
"<  c #3C2A2B",
"1  c #39322C",
"2  c #2E2532",
"3  c #2E2833",
"4  c #332534",
"5  c #3B2632",
"6  c #332A34",
"7  c #3B2B35",
"8  c #372639",
"9  c #352C3A",
"0  c #3A2D3D",
"q  c #343036",
"w  c #383134",
"e  c #36313B",
"r  c #3B323D",
"t  c #3D393F",
"y  c #40061D",
"u  c #4F122F",
"i  c #6B0B35",
"p  c #611A3D",
"a  c #472929",
"s  c #4C322C",
"d  c #50342F",
"f  c #5C352D",
"g  c #462B3D",
"h  c #42333D",
"j  c #453B3D",
"k  c #543A37",
"l  c #5C3B33",
"z  c #673B2E",
"x  c #733E2C",
"c  c #653D32",
"v  c #6B3E31",
"b  c #5C423C",
"n  c #554C39",
"m  c #5A493F",
"M  c #77412D",
"N  c #7A432E",
"B  c #6D4234",
"V  c #68463B",
"C  c #754433",
"Z  c #7E4631",
"A  c #7E4935",
"S  c #754939",
"D  c #7E4B39",
"F  c #3A2F41",
"G  c #3D3442",
"H  c #3D3943",
"J  c #721F4E",
"K  c #4A2541",
"L  c #5D2246",
"P  c #413644",
"I  c #483343",
"U  c #423B44",
"Y  c #4B3A44",
"T  c #433C49",
"R  c #483E4B",
"E  c #523C4D",
"W  c #5B3D57",
"Q  c #71294E",
"!  c #663754",
"~  c #3F4045",
"^  c #4B4345",
"/  c #46434C",
"(  c #484649",
")  c #4A434D",
"_  c #524543",
"`  c #544B45",
"'  c #51464D",
"]  c #524B4C",
"[  c #5B4B48",
"{  c #59504C",
"}  c #4D4552",
"|  c #4C4B55",
" . c #4E4F59",
".. c #524452",
"X. c #534A54",
"o. c #5E4952",
"O. c #544E5A",
"+. c #4A5256",
"@. c #525055",
"#. c #5B5657",
"$. c #53535C",
"%. c #5B545A",
"&. c #644940",
"*. c #68554B",
"=. c #7E5242",
"-. c #775648",
";. c #644F52",
":. c #675B59",
">. c #6B6353",
",. c #565760",
"<. c #5B5662",
"1. c #575963",
"2. c #5B5C65",
"3. c #5E5D69",
"4. c #615C63",
"5. c #655D68",
"6. c #5E616A",
"7. c #646166",
"8. c #62626C",
"9. c #6B646C",
"0. c #7D6E61",
"q. c #6A6973",
"w. c #726B74",
"e. c #736B78",
"r. c #767279",
"t. c #78737C",
"y. c #B83B35",
"u. c #804731",
"i. c #814832",
"p. c #844E3B",
"a. c #884B39",
"s. c #85523C",
"d. c #89533D",
"f. c #93553C",
"g. c #BA4A38",
"h. c #AF593B",
"j. c #C74638",
"k. c #D04D32",
"l. c #E45039",
"z. c #D67135",
"x. c #E56929",
"c. c #E36E3E",
"v. c #E87A3B",
"b. c #8A1547",
"n. c #8D144C",
"m. c #A91659",
"M. c #8A255D",
"N. c #9B4E46",
"B. c #855444",
"V. c #8A5443",
"C. c #8C5A44",
"Z. c #8F584D",
"A. c #955949",
"S. c #8E5B51",
"D. c #935D52",
"F. c #9E5D55",
"G. c #A95A4A",
"H. c #B55947",
"J. c #AD5959",
"K. c #B35E52",
"L. c #8D634D",
"P. c #97664D",
"I. c #956254",
"U. c #986756",
"Y. c #99645C",
"T. c #9E7252",
"R. c #B26B56",
"E. c #A37A57",
"W. c #817964",
"Q. c #AC7168",
"!. c #C84F46",
"~. c #D36B48",
"^. c #EE7F48",
"/. c #CF6360",
"(. c #D9863A",
"). c #F3892E",
"_. c #EB8B3B",
"`. c #F39930",
"'. c #F7B83B",
"]. c #A5825C",
"[. c #AD885A",
"{. c #BB965D",
"}. c #B18C63",
"|. c #BB9777",
" X c #C59A5B",
".X c #EB9B49",
"XX c #D6A650",
"oX c #E9AA49",
"OX c #EAA84E",
"+X c #E6BA51",
"@X c #D9B365",
"#X c #F9CC55",
"$X c #F6D45D",
"%X c #F0D065",
"&X c #807B80",
"*X c #898589",
"=X c #8E8A8F",
"-X c #9A949B",
";X c #B89E84",
":X c #A49AA3",
">X c #A7A4AB",
",X c #B0ABB4",
"<X c #B7B4BB",
"1X c #C28F92",
"2X c #C893A0",
"3X c #F6EB90",
"4X c #FBF6A2",
"5X c #BEBCC2",
"6X c #C0BDC4",
"7X c #C9C4C7",
"8X c #C3C1C9",
"9X c #D0CFD5",
"0X c #D9D5DA",
"qX c #DAD6DE",
"wX c #EAE7ED",
"eX c #EEEDF1",
"rX c #F1EEF2",
"tX c #F7F5F7",
/* pixels */
"i.i.i.u.u.N C Z u.u.u.i.i.i.i.i.i.i.i.i.i.i.i.u.N u.N u.u.u.u.u.i.i.i.u.Z N N N u.u.u.u.u.u.u.a.u.i.u.i.i.i.i.i.u.N N N ",
"i.i.u.N N x z Z Z u.u.u.i.i.i.i.i.i.i.i.u.u.i.i.i.u.N N x N N u.N u.u.u.u.u.u.u.N N M M N u.u.i.i.u.u.i.i.i.i.u.u.M N u.",
"u.i.u.N x s Z C N Z Z u.i.i.i.i.u.u.u.u.u.u.u.u.u.i.i.u.N N N x x N N N N M M M M M M M N u.i.i.i.i.i.i.i.i.i.i.u.u.u.u.",
"Z Z u.N a v u.u.u.u.u.u.i.i.i.i.u.u.u.N u.N N N N u.u.u.u.u.N N N N x M M M M M M N M M Z i.i.i.i.i.i.i.i.i.i.u.i.i.i.i.",
"N u.x a f u.i.i.i.i.i.i.i.i.u.u.u.N C u.u.Z x N M N u.u.u.i.i.a.i.u.N M M M N N N u.u.u.i.u.u.u.u.i.i.i.u.u.u.i.u.u.u.i.",
"x x a z x x i.i.i.i.i.i.i.i.i.u.u.Z i.s.i.i.u.N M M M N N N N u.i.i.Z N M M N i.i.N u.u.u.N N N N u.i.i.u.u.u.u.u.u.u.u.",
"N z x x x u.a.i.i.i.i.i.i.i.u.u.i.V.U.P.a.I.V.u.u.N N N N u.u.N i.u.N M M N Z i.u.N N N N N N Z u.u.u.N u.u.N N N u.u.u.",
"x x i.i.i.u.i.i.u.u.i.i.i.u.u.u.i.F.E.T.s.F.a.u.u.u.u.N N N N N u.N N M M M u.N u.N N N u.u.u.u.u.u.u.N M M M M M M M M ",
"u.u.Z Z u.u.N N N u.u.u.u.Z Z u.i.Y.P.L.Z.D.Z N M N x Z x x x Z M M M M M M N N N x N N u.u.u.u.N N N M M M M M M M N N ",
"u.Z M N N x N N u.u.Z Z Z Z Z Z u.R.H.i.d.C N N B.U.S.p.x Z N x N x M M M M M N N N N N N N Z N u.N N M N M M N N N u.u.",
"i.Z N Z u.u.i.i.u.u.u.u.V.D N M N G.~.d.C u.a.N.1X2XZ.u.N N N x N N N N M N M N M N u.u.u.u.u.u.u.u.i.u.u.u.u.u.u.u.u.u.",
"d.i.u.u.u.u.u.i.u.C M N B.S.B.N N G.v.z.h.g.g./.Q.U.i.i.u.i.u.u.N N N Z N N N N u.i.u.N N N u.u.u.u.i.i.i.i.i.i.i.i.i.u.",
"i.u.i.i.i.u.N N u.N N M A Y.I.C A H.v.'.`.).^./.p.i.i.u.i.i.i.u.N N N N u.u.u.u.u.u.N N C u.N N N u.u.u.u.i.i.i.i.i.u.u.",
"N C N N u.u.N u.u.u.u.u.a.I.R.J.G.j..X$X#X#X(.f.u.u.u.u.u.u.u.u.u.u.N u.N N N N u.u.u.u.Z u.i.u.u.u.u.i.u.i.i.i.u.u.u.u.",
"N N x x x N N N u.u.i.u.Z a.N.!.l.x.#X3X4X$Xz.a.N u.N N N u.u.u.u.u.u.Z u.Z u.u.u.N N M Z Z i.i.u.u.u.u.i.u.u.i.N M M N ",
"u.N N N N N N u.u.u.d.d.i.i.i.G.c.OX%X@X3X$X`.h.a.d.d.u.M x N x N N N Z N N N M M M M M N u.i.i.u.u.i.i.i.u.N N N M M M ",
"i.u.u.u.u.i.u.u.i.i.T.}.].U.p.N.l..X+X+X#X'.`.v.K.|.;XL.Z N N N N M M M M M x N N x N N N u.i.i.i.i.i.i.i.u.u.u.i.N N M ",
"i.i.i.i.i.i.u.i.i.A i.d.C.C.D.J.!.XXoX_.x.)._.h.F.U.C.i.i.Z Z Z u.N N M M M M C N C u.u.i.i.i.i.i.i.i.i.i.i.i.i.i.u.u.u.",
"i.i.i.i.i.i.i.i.i.i.i.i.i.s.S.Z.P.@XOXk.y.j.~.A.x Z s.L.D i.Z i.d.-.*.[ m m n _ b V C A u.Z Z Z u.u.i.i.i.i.u.i.i.i.i.i.",
"i.i.i.i.u.i.u.i.i.i.i.i.i.Z i.V.f.{.XXR.d.f.f.C.C -.>.W.U k &.-.{ #.{ ] { +.( / / ( U k V C Z Z u.i.u.u.u.i.u.u.i.i.i.i.",
"u.u.i.i.i.i.i.i.i.i.i.i.i.i.d.U.d. X@X{.{.}.E.L.-.#.:.:.Y 0 5 6 ^ w.7.` n w e H T P ( t h k S A i.i.u.N u.u.u.u.i.i.i.i.",
"N u.u.i.i.i.u.u.Z Z i.i.i.i.D.D.i.L.].{. X X{.[.m j 0.-.^ h 5 # 6 w.w.` w ( ~ e 6 3 q q H H r V i.N M N N N N u.u.u.i.i.",
"u.u.i.i.i.i.i.u.N N C N N N a.i.Z.L.a.C.P.].[.E.n >.>.;.o.Y 7 : P r.9.' ( ( 6 $ / r.e.@.H T H G b A N u.i.u.N u.N u.u.i.",
"i.i.i.i.i.i.i.N N u.i.i.u.u.u.i.U.I.Z Z i.B.*.V *.:.' E E Y g 5 ;.r.2.,.$./ 3 $.0XrXwX8Xt./ H G r l C u.u.i.i.i.i.u.i.i.",
"i.i.i.i.i.i.i.u.u.i.i.i.i.i.i.i.Z.a.i.Z D :.H o.:._ U I I g 5 h 3.6.3.3.1./ q 5XrXeXeXwX6Xe.T H r 7 c M Z i.i.i.i.i.i.i.",
"i.i.i.i.i.i.i.i.i.i.i.i.i.u.u.u.a.u.Z Z -.$.%.%.U Y h g 0 5 5 4.e.6.6.3.3. .) <X:.9.6XeXqX5XO.H r 0 7 B A i.i.i.i.i.i.i.",
"u.u.u.u.u.u.i.i.i.i.i.u.u.N u.N N N N M *.%.X.h 0 0 P 0 4 4 ) w.q.8.8.8.3.1.| q.6 r ) <XqXt.H R P F 0 d i.i.i.i.i.i.i.i.",
"u.N u.N N u.u.u.u.u.u.N N M M M N x M N m H r 0 8 4 4 8 * P 4.7.8.8.8.8.3.1.,.| 2.7.  3.,XT 5.O.P F 0 6 B Z Z Z u.u.u.i.",
"i.u.u.u.N N M N N N N M x N M M N M x N C h 5 4 4 * * % F <.5.6.8.8.8.6.2.1.,. .( H 6 t.5.O.w...H G G 6 d C N N u.u.N N ",
"u.N M M M M M M M N M M N N N N Z Z N Z Z v : % * * % 0 O.4.2.6.8.8.q.6.3.1.,.$.$.9.>X8X} $.<.R G G 9 6 < Z a.i.i.i.i.u.",
"M M N M M M M M N N N u.u.N N M N N N Z u.u.d % $ $ 0 O.:.2.4.8.8.8.6.6.1.1.,.,.,. .%.=X$./ / T G G 9 6 , N Z N N N N N ",
"N N N N N u.N N i.i.N N u.i.u.N N x N N x Z _ 4 * P X.( X.3.3.2.2.1.2.2.1.1.,.,.O.O.+.| W } H T H F e 6 : B u.N N M M M ",
"u.u.N u.u.u.N N u.u.N M N u.u.u.i.N N N N D [ ' X.{ ^ = / $.$.+.$.$.1.1.,.$.,.,. . .| ..} W 0 H G F 9 9 - c i.u.Z N N Z ",
"u.N N N N M M M u.N N M N N N Z u.u.i.i.Z B.] ..X.` > j / t t r H ~ +.$.,.,. .$.O. .} } ! Q u P F 9 e 3 - l C M N N N N ",
"N M N M M M M M N u.N N N N N N N N Z u.i.B.] X.} j = n w q w 7.*X&X6.(  .,. .+.| +.| W M.n.p G 0 0 9 9 - l M M M M N N ",
"M M M M M N N N u.i.i.u.u.N u.N u.Z N Z Z =.X.| X.U 6 e = = >XrXtXeX0X>X2. .+.+.| } W M.m.i & F F F F 9 $ B M M M M M N ",
"M M N u.u.u.u.u.u.i.i.i.u.u.i.u.u.u.u.u.i.D ] } ] ) t r o =XrXtXtXtXrX9X<X6.}  .} ..! m.n.y X p L K 9 3 - C N N M N M M ",
"M N i.i.N N u.N N N N N N u.Z Z Z u.u.u.Z s.^ } } ) U 6 7 -X:.=X0XtXrX0X8X,X1.| } ) ! b.u X i m.J K 9 - < C N Z u.u.u.u.",
"M N u.u.N M M M N N Z i.i.Z i.u.Z N N N Z D ` H ) R T 6 j r o o 2.7XeX0X<X-X2./ H / I O . u n.b.K 8 4 @ k u.u.u.i.i.i.i.",
"M N u.u.i.u.u.u.u.i.i.i.Z Z N N M N N M N C V G H T U 6 ^ :.=X{ o #.qX,X1.~ / H - 6 : 5 & g L K 0 4 $ : C i.i.i.i.i.u.i.",
"N N u.u.u.u.Z N u.i.u.u.N N N N N M M M M M S n H P T q , *X:.1   7 -XH R O.} G 2 T P H r F F 8 4 * @ l Z u.u.u.u.u.u.u.",
"N N N u.u.u.Z Z u.i.i.i.N N N N N N N Z N N N b H P H 2 $ O.,X9.Y 5.T O.5.| } T G P G e 0 0 0 4 3 + a C i.i.u.Z N N u.N ",
"i.u.N u.N N M N N i.i.i.i.u.u.u.u.u.u.u.N N N C j P P H P 8 ..:X<X5.P e.O...} G G r q 9 0 8 4 2 $ ; B i.i.i.u.N N u.u.u.",
"N N M M M M M M N i.i.i.i.u.i.u.u.i.i.u.Z Z Z u.B h H H P P 6 r 9.r O.4.} } H F 0 0 0 9 9 4 4 $ o z Z i.i.u.u.Z u.u.i.i.",
"M M M M N N M N Z i.u.N u.u.u.u.u.i.i.u.Z N N Z C l r G G P P 0 6 6 R } H H F F r 9 8 6 4 4 $ + f Z i.i.i.i.i.u.u.i.i.i.",
"M M N N Z Z i.Z N N N N M M N Z u.u.i.u.N M M N N N l 6 0 G G P h G 0 G F F F 9 9 8 6 6 - $ # f Z u.i.i.u.i.i.i.u.i.i.i.",
"M N u.i.i.u.u.u.i.u.N N N N N N Z u.i.i.Z N M M M M M l 7 6 9 q 0 9 8 9 9 8 9 9 9 9 3 $ + ; l N u.u.u.u.u.u.i.u.u.u.u.u.",
"M N i.i.u.i.u.i.i.i.u.u.Z u.u.u.u.i.i.i.Z Z N M M M M M z < 6 6 6 6 6 8 4 4 3 3 2 * @ @ a B i.u.u.u.u.u.N N N N u.u.u.M ",
"N N Z i.i.u.i.i.i.i.i.i.i.i.i.i.i.i.i.i.i.i.u.N N M N u.Z N f ; = $ = - - - $ @ o o a v S i.i.i.i.i.u.u.N N M N u.u.u.N ",
"Z u.i.i.u.u.u.i.i.i.i.i.i.i.i.i.i.i.i.i.i.i.u.u.N N Z i.i.i.A N z s < > ; ; > s b M i.i.i.i.i.i.i.i.i.i.u.N N u.u.u.u.u.",
"i.i.i.u.N N Z u.u.u.i.i.i.i.i.i.i.i.i.i.i.u.i.u.Z u.i.i.i.i.i.i.Z Z A C S Z A A i.i.i.i.i.i.i.i.i.i.i.i.u.u.u.u.u.u.u.u.",
"i.i.Z N N N N Z N u.u.u.i.i.i.i.i.i.i.i.i.u.u.u.N u.u.u.Z i.i.i.N N M N N Z Z Z u.i.i.i.i.i.i.i.i.i.i.i.u.i.i.i.u.u.M u.",
"N i.i.N N i.i.i.u.N N u.u.i.i.u.u.u.u.u.i.u.u.u.N N N N N Z u.u.u.N i.i.i.N Z Z u.u.u.i.i.i.u.u.i.i.u.u.u.i.i.i.i.u.M u.",
"i.i.N N u.u.i.i.u.u.i.i.i.i.i.u.N N N u.u.u.u.u.u.u.Z Z u.u.u.N N N i.i.i.i.u.u.u.i.u.i.i.u.N N N N N N N u.i.i.i.u.N i.",
"N N M M N N i.i.i.i.i.i.i.i.i.u.u.M M M N N N N N Z Z N N N M M N M N i.u.i.u.i.i.i.i.i.i.u.Z N u.u.i.i.u.u.i.i.i.u.N u.",
"M N M N N N i.i.i.i.i.u.N u.i.i.u.u.N N M M M M M M M M M N M M M M N i.i.i.i.i.i.i.i.i.i.i.u.u.i.i.i.i.u.i.i.i.i.u.u.u.",
"M N N N u.u.a.i.i.u.i.N N M N N u.u.u.u.Z N N N N M M M N N N N N N i.a.u.i.u.u.i.i.u.i.i.i.i.i.i.i.i.i.i.u.u.i.i.u.u.u.",
"i.i.i.u.u.u.N u.u.u.u.u.M N N M N N u.u.u.u.i.u.N M M M N u.u.u.i.u.u.u.u.Z u.u.i.u.u.u.i.u.i.i.u.i.u.u.N u.N N N N M N ",
"u.u.N C N N x N N N N u.N N N N M N N N N u.u.u.N M M N i.u.N N N N N N N N N Z Z Z Z N u.u.u.u.u.i.N N N M M M M M M M ",
"u.N M N N N u.u.i.i.i.u.i.N N N M M N N N N N u.Z M M N u.u.u.M N N N N u.i.i.i.u.u.u.Z N N N N N N M M M M M M M M M M "
};
