/* XPM */
static char *result[] = {
/* columns rows colors chars-per-pixel */
"60 60 214 2 ",
"   c #150F11",
".  c #38061B",
"X  c #24161A",
"o  c #261723",
"O  c #241A24",
"+  c #2A1D24",
"@  c #251D2A",
"#  c #2D1D2C",
"$  c #371B29",
"%  c #2D1E31",
"&  c #2A2429",
"*  c #2C222D",
"=  c #352524",
"-  c #32232B",
";  c #352A2E",
":  c #3D292B",
">  c #3C342D",
",  c #2E2432",
"<  c #2C2933",
"1  c #332535",
"2  c #3B2633",
"3  c #332A35",
"4  c #3B2A34",
"5  c #352739",
"6  c #3E273F",
"7  c #352C3A",
"8  c #3A2D3D",
"9  c #3A3334",
"0  c #36323B",
"q  c #38353A",
"w  c #3A323D",
"e  c #470B24",
"r  c #570726",
"t  c #601A3C",
"y  c #452E2B",
"u  c #47332E",
"i  c #57362E",
"p  c #42243F",
"a  c #412C3C",
"s  c #473739",
"d  c #443C3C",
"f  c #533632",
"g  c #5A3931",
"h  c #62392E",
"j  c #663D31",
"k  c #4B413E",
"l  c #57433E",
"z  c #6F402E",
"x  c #77412D",
"c  c #7A432E",
"v  c #6E4233",
"b  c #64433B",
"n  c #6B4539",
"m  c #744434",
"M  c #7E4631",
"N  c #7E4834",
"B  c #744638",
"V  c #754A3B",
"C  c #7C4B3A",
"Z  c #725D3B",
"A  c #3C2D41",
"S  c #3D3442",
"D  c #3E3944",
"F  c #751E4D",
"G  c #452B41",
"H  c #552745",
"J  c #423542",
"K  c #493443",
"L  c #423B45",
"P  c #4A3C44",
"I  c #433C49",
"U  c #4A3E4A",
"Y  c #513C4B",
"T  c #563F53",
"R  c #6F2E4F",
"E  c #782E53",
"W  c #474144",
"Q  c #4B4245",
"!  c #45424A",
"~  c #4B434D",
"^  c #47494E",
"/  c #4C4B4B",
"(  c #56484A",
")  c #554C4D",
"_  c #5F5647",
"`  c #4D4552",
"'  c #4C4B54",
"]  c #4F4D59",
"[  c #514554",
"{  c #514953",
"}  c #5B4C54",
"|  c #544D5A",
" . c #4C5259",
".. c #5A5556",
"X. c #53535D",
"o. c #59535C",
"O. c #674D45",
"+. c #764E41",
"@. c #62524A",
"#. c #7C5442",
"$. c #795849",
"%. c #635354",
"&. c #665A57",
"*. c #77695E",
"=. c #5A5561",
"-. c #565962",
";. c #5B5B64",
":. c #5C5E69",
">. c #635C64",
",. c #625D69",
"<. c #5F616C",
"1. c #6A6366",
"2. c #63626C",
"3. c #6B636B",
"4. c #696772",
"5. c #726C75",
"6. c #746F7B",
"7. c #767177",
"8. c #7A747B",
"9. c #C93E2F",
"0. c #804731",
"q. c #814832",
"w. c #8E4937",
"e. c #834D3A",
"r. c #964737",
"t. c #86523D",
"y. c #89533F",
"u. c #985A3D",
"i. c #B3523D",
"p. c #D2472A",
"a. c #CB4A34",
"s. c #E6533D",
"d. c #C6633B",
"f. c #D27338",
"g. c #EA752F",
"h. c #851549",
"j. c #91144F",
"k. c #AD1254",
"l. c #88265C",
"z. c #8D4E42",
"x. c #895443",
"c. c #8C5847",
"v. c #965848",
"b. c #935C4E",
"n. c #945C53",
"m. c #995E5C",
"M. c #A54A43",
"N. c #A95748",
"B. c #B35849",
"V. c #A55D59",
"C. c #8C654B",
"Z. c #95684C",
"A. c #856954",
"S. c #936254",
"D. c #996C51",
"F. c #996559",
"G. c #9B7359",
"H. c #A86546",
"J. c #B9624D",
"K. c #A7655A",
"L. c #927E64",
"P. c #A56A68",
"I. c #AD7A76",
"U. c #C55348",
"Y. c #DB7546",
"T. c #D6665E",
"R. c #EA7C48",
"E. c #C6777A",
"W. c #EF8E39",
"Q. c #F89833",
"!. c #F1AC3A",
"~. c #F5B83C",
"^. c #A8845A",
"/. c #AA835C",
"(. c #BB975D",
"). c #A88363",
"_. c #B6907C",
"`. c #C6985E",
"'. c #ED9944",
"]. c #D2A657",
"[. c #E9A746",
"{. c #E7B54F",
"}. c #F0B24D",
"|. c #C69B62",
" X c #D7B46A",
".X c #F2C755",
"XX c #F0D76C",
"oX c #FAE476",
"OX c #89838B",
"+X c #8C8A95",
"@X c #918D96",
"#X c #97959B",
"$X c #99939B",
"%X c #9D9DA1",
"&X c #ABA5AC",
"*X c #B2ADB3",
"=X c #B6B4BC",
"-X c #BBB5BC",
";X c #CAA3A6",
":X c #F8EC89",
">X c #FAF59F",
",X c #BDBBC6",
"<X c #C5C5CC",
"1X c #CCC9CE",
"2X c #D0CED5",
"3X c #DAD7DA",
"4X c #DCD9DB",
"5X c #E3DEE4",
"6X c #E6E3E9",
"7X c #EDEBEE",
"8X c #EFEBF2",
"9X c #F0EEF1",
"0X c #F5F2F6",
"qX c #FAF7F9",
/* pixels */
"q.q.q.0.0.0.0.0.0.0.0.0.0.q.q.q.q.q.q.q.0.0.0.0.0.0.0.c 0.0.0.0.q.q.q.0.c c c c 0.0.0.0.0.0.q.q.q.q.0.q.0.q.q.q.0.0.c 0.",
"q.q.0.c x x c c 0.0.0.0.q.q.q.q.q.q.q.0.0.0.0.0.0.0.c c x c c 0.0.q.0.0.q.q.0.0.c c x x c 0.q.q.q.q.q.q.q.q.q.0.0.0.c c ",
"0.q.0.c c 0.q.0.0.c 0.0.q.q.q.0.0.0.0.0.0.0.0.0.0.0.0.0.x x x x x x x x c x x x x x x x x 0.q.q.q.q.q.q.q.q.q.q.0.0.0.0.",
"M M 0.M c 0.q.q.0.0.0.0.q.q.q.q.0.0.0.0.0.c c c c 0.0.0.0.0.c e.c x x x x x x x x x x c M q.q.q.q.q.q.q.q.q.q.q.q.q.0.q.",
"M c x x c 0.q.q.q.q.q.q.0.0.0.0.0.c 0.c 0.0.c x x x c M 0.0.q.D.e.M c x j C M M c 0.M q.q.q.q.q.0.0.q.0.q.0.0.q.0.0.0.q.",
"x x x x x c q.q.q.q.0.q.0.w.0.0.0.0.0.0.0.0.c c x x M M M M y.F.x.q.0.x y.F.D.D.q.0.M M M M x c M 0.0.0.0.0.0.0.0.0.0.0.",
"x x x x c 0.q.q.0.0.q.q.0.0.0.0.0.0.0.0.0.0.0.0.M e.D.N m M F.P.y.q.0.y.K.V.).C.0.x c c x x M M M 0.0.0.c 0.c c 0.0.0.0.",
"c 0.0.q.q.q.q.q.0.0.q.q.0.0.0.0.0.0.0.0.0.0.0.0.M q.^.D.M M N.K.M c w.J.J.e.y.w.v.b.M c M q.q.q.0.0.c 0.c c x x j 0.j x ",
"q.q.c 0.0.0.c c M 0.0.0.0.0.c 0.0.0.0.0.0.0.c x c c t.).t.c M.B.v.z.B.Y.N.M c.m.v.0.c 0.c 0.0.0.c c x x x x x x x x c c ",
"q.M x x x x x M M M M M c 0.0.c c c 0.0.c c x x x x m c.#.c B.s.9.a.g.W.u.m q.q.j x c c c c 0.c 0.c c x c x x c c c 0.0.",
"q.0.M c 0.0.q.q.0.0.M M c c x c c j x x c x x x c c M Z.m.N.a.W.W.'..X!.d.w.M j 0.0.0.0.0.0.0.0.0.q.q.q.0.0.0.q.0.0.0.0.",
"y.q.q.q.0.0.0.q.0.0.0.j x x x c j 0.x x c 0.0.0.M q.q.t.V.U.R.[.XX:XoX~.g.p.M.v.w.0.0.c c c 0.0.0.q.q.q.q.q.q.q.q.q.q.q.",
"q.M q.0.q.0.c c 0.c c j 0.j c c 0.0.0.0.q.0.q.q.q.x.n.c.z.|.}.{..XXX>XXX}.R.T.E.;XI.0.c j 0.0.0.c 0.0.0.0.0.q.q.q.q.0.0.",
"x c c M 0.M c M 0.0.0.0.0.0.0.0.0.0.0.0.M q.c 0.e.S.b.x.G.{.}.'.}.oXoX{.f.H.v.H.I.P.v.0.0.0.0.0.0.c 0.0.q.q.q.q.0.0.0.0.",
"c x x x x c c c 0.0.0.0.0.0.0.0.0.0.0.0.c c c c M c N C. X].U.p.g.~.~.f.r.0.0.0.q.w.q.m 0.0.q.0.q.0.0.q.q.0.0.q.c x x c ",
"M M x x x x M M 0.0.0.0.0.0.0.0.0.0.0.0.c M q.M e.b.S.C.(.].u.r.p.Q.Q.f.w.x 0.j 0.j 0.j 0.0.q.0.q.q.q.q.q.0.c c c x x x ",
"0.0.q.0.q.q.0.0.0.q.q.q.0.c M M c 0.0.0.0.0.0.c u.v.x.t.^.`./.e.i.Y.d.U.c.c x x x j 0.c c 0.0.0.q.q.q.q.q.0.0.0.0.M c x ",
"q.q.q.q.q.q.q.q.q.q.q.q.0.M x x c 0.0.0.0.0.x x M c q.q.Z.`.|.D.v.Z.q.K._.G.M x m c 0.0.0.0.0.0.q.q.q.q.q.q.q.q.0.0.0.0.",
"q.q.q.q.0.q.q.q.q.q.q.q.0.0.M x 0.0.0.0.0.0.0.x x x x c e.^.`./.C.e.c V D.L.e.q.0.w.0.0.0.0.0.c 0.q.q.q.q.q.0.0.0.q.q.q.",
"q.q.q.q.q.q.q.q.q.0.0.q.q.0.0.0.0.0.0.0.0.0.0.0.x x M V V C.(.^.$.$.$.O.C M q.q.0.0.j c c c 0.0.0.q.0.0.0.q.0.0.q.q.q.q.",
"0.0.0.0.q.q.q.q.q.0.0.q.0.0.q.q.0.0.0.0.0.0.0.0.q.C %.../ l C.Z u ) _ ).A.M 0.0.0.c c c 0.0.0.0.q.0.0.c M 0.0.0.q.0.q.q.",
"M 0.0.0.q.q.0.0.0.0.0.0.0.0.0.0.0.0.w.j 0.0.0.0.C ) o.;.o.) @._ %.*.*.&.s B c c 0.c c 0.0.0.0.0.0.M c x M c c M 0.0.q.q.",
"0.0.q.q.0.q.0.M c x c M c 0.0.q.0.0.0.0.0.0.0.0.V 9 L U ` } ..&.%.&.@.K S n q.0.0.j 0.c c c 0.0.0.M M M 0.0.M M M 0.0.q.",
"q.q.q.q.0.0.0.M M M 0.0.0.0.0.q.0.0.0.0.0.0.0.0.n 2 3 7 4 J P P T ( } d 6 s $.x.0.0.0.0.0.0.0.c M M x M 0.0.0.0.0.0.q.q.",
"q.q.q.q.q.q.q.0.0.0.q.q.0.q.q.q.0.0.0.0.M q.N q.g # 1 1 5 6 S G K Y T a 4 - P @.$.e.c c 0.0.0.0.x x x c q.q.q.q.q.q.q.q.",
"q.0.q.0.q.q.q.0.q.q.q.q.q.0.0.0.0.0.0.w.q.M e.+.4 # % , 1 5 w 8 a s K 4 - + Q 1.) @.V x x c j j x x x x 0.q.q.q.q.q.q.q.",
"0.0.0.0.0.0.q.q.q.q.q.q.M M c c 0.x 0.j M #.@.Q * + # % % 1 5 2 2 2 4 2 2 P 5.5.../ l v x x j 0.c c 0.0.q.0.q.q.q.q.q.q.",
"0.M M c c 0.0.0.q.M q.c c x x x 0.j j m #.) ~ { Q 8 % % % % 1 1 3 a P [ 1.8.7.1.l / _ b j x 0.0.0.0.0.0.0.0.0.0.0.0.0.0.",
"q.0.0.0.M x x x c c c x x x x x c x x M ( ` [ { ) ..| | | | =.=.;.2.7.1.2.3.>.Q > d d / k C q.0.c M M x x x x M M 0.M c ",
"0.c x x x x x x x x x c c c c c 0.0.e.( ` { { ) k d > Q ;.;.>.,.2.2.4.2.<.;.=.^ / k 0 D ^ l 0.0.c x x M 0.0.0.q.q.0.0.M ",
"x x x x x x x x c c M M M M c c c N b W ~ { { ; & ; D ` ,.;.:.:.2.2.2.2.<.:.-.X.D S D ! ^ W v 0.0.0.0.0.0.0.0.0.0.c c x ",
"c c c c M c M M q.M M c M M M c c V d W ` / L 9 W q I ` ;.:.,.2.2.,.2.2.2.:. .! < & & < D W l M 0.0.q.0.0.0.0.c c x x x ",
"0.M c 0.0.M c 0.0.M x c 0.0.0.0.M b D I ! ! L w 3 ; 9 q ^ X.<.<.<.<.4.<.<.;. .q 2.OX5.3 3 W L n q.q.q.M q.0.q.M 0.M c c ",
"0.c 0.c c x x x c c x x x x M 0.N s D L I I 7 & & ; q 0 D ^ X.<.<.<.<.<.-.-.^ $X3X0X7X&Xq q d l q.0.M M M M c x x M c M ",
"x x x x x x x x c q.0.x x x x x n L D D L 9 & Q #X3X4X*X .d  .-.-.<.<.-.-.-.....W 1X7X5X8.S L s N x x x x x x x x x x x ",
"x x x x x x c M q.q.0.0.0.M M M j J S S q ; &.P k -XqXqX1X .^ <.-.X.<.-.X.X.! >.< OX7X6X#XD D s m x x x x x x x x x x x ",
"x x c 0.0.0.0.0.0.0.q.q.0.0.0.M g S D S O L 7.P X >.7XqX7X%X^  .-.-.-.-.X.X.! <.; 5.6X5X#XD D S n x x x x x x x x c c x ",
"x c q.q.c c 0.c M M x x M M M M f A S D 3 >.3.%X> ) 4X0X9X<XX.-.-. .-.X.X.X.3.&   7.8X2X@XD D 7 n x x x x M M M 0.q.0.0.",
"x c 0.0.c x x x x M M q.q.M M M f 7 J L 7 3.L.@ X W 4X9X6X<X<. . .X.X.-.X.| 6.+X2.*X&X@X5.I S 7 n M M 0.q.0.0.0.q.q.q.q.",
"x c 0.q.q.0.0.0.M 0.q.q.M M c x f A J J 8 o.&X;   &.6X5X2X<X7.^  .X. . .X.] <.=XOXL I I D S S w v 0.q.q.q.q.q.q.q.q.q.q.",
"M M M M 0.0.M c 0.0.0.M c x x x i 5 w J w U -X$X>.$X*X=X,X,X4.`  .' | ] ' ] | 6.q =.5.,.U A A w m M q.q.q.q.q.0.0.0.0.0.",
"x c M M 0.M M M 0.q.0.0.0.M c M h 1 7 S w 7 >.I 7 7 8 D =.+X;.' ' ' ' | ~ [ T U ' X.=.] I A 8 a m 0.q.q.q.q.0.M c c 0.c ",
"0.M M M c c x c 0.q.q.q.0.0.0.0.z ; 5 8 s 8 7 [ 3.4.>.| ` I ^ ' ` ` [ [ [ T Y ` ! I I D S S 8 s q.0.q.q.q.q.M x c 0.0.0.",
"c x x c x x x c c q.0.0.0.0.0.0.c y < 7 7 S L | o.| { ` ` I 3 ! ` T E l.l.l.R 8 D I D S 8 8 3 g q.q.q.q.q.q.0.M 0.0.q.q.",
"x x x x c c x c M 0.M M M 0.0.0.0.i & 2 5 7 S D ` ` [ U L , , q ` E k.k.k.F t 6 D S S S 7 8 ; m q.q.q.q.q.q.q.0.q.0.q.q.",
"x x x M 0.0.0.M M c x x x c M M 0.m = & 5 7 A A S I I J J S J 5 # e r r e $ p G S S 7 0 7 * f M 0.0.q.q.0.q.q.q.q.q.q.q.",
"x x 0.0.0.0.0.0.0.M M c x c x c M q.g O < < 7 5 7 A A A S S S L 4 X . . . 2 A 0 A 7 7 3 3 ; x M 0.0.0.0.0.0.0.0.0.0.0.0.",
"x M 0.0.0.0.q.q.0.0.0.0.0.M 0.0.M q.C y @ , < 5 7 7 A 7 7 w w w 8 4 t h.j.h.H A A 7 3 5 - v M M 0.0.0.0.c c c c 0.0.0.x ",
"x M 0.q.q.q.0.q.0.q.q.q.q.q.q.q.q.q.q.M y X & < 5 7 7 7 7 7 7 8 A A H F h.F p G 7 5 < * g q.q.q.q.q.0.0.c x x c 0.0.0.c ",
"M M 0.0.0.0.0.q.q.q.q.q.q.q.q.q.q.0.0.q.M u O & < 7 5 5 7 7 7 7 7 6 6 G A A A 5 7 * & g N 0.q.q.q.q.q.q.q.c c 0.0.0.0.q.",
"0.0.0.M M M M 0.0.0.q.0.q.q.q.q.q.q.q.q.q.M f & O # , 3 7 3 5 5 5 1 1 5 5 1 , @ @ ; z w.0.q.q.0.q.q.q.q.0.0.0.q.0.0.0.0.",
"0.0.0.M x c c M M M 0.0.q.0.q.q.q.q.q.q.q.M M z u X O o + * * % * , * # # O O , f B 0.q.q.q.q.q.q.0.q.q.q.q.q.q.0.0.x 0.",
"M M 0.M c 0.0.0.M M M 0.q.q.0.0.q.M M M q.q.q.M c v i : & o o o + X + $ - y g m 0.0.q.q.0.0.0.0.q.q.0.0.0.0.q.q.q.0.x 0.",
"0.M M c M 0.0.0.0.0.0.0.q.0.0.0.c c M M M M M q.q.M M m x v j h h j j j m 0.0.0.0.q.q.q.0.0.0.c c c c c M M q.q.q.0.c 0.",
"c x x x c M q.q.q.0.0.0.q.0.0.0.c x x x c c M c c M c c c c x x j 0.m q.0.q.0.q.q.0.0.0.0.0.0.0.0.0.q.q.0.0.0.q.q.0.c 0.",
"x x x x x M q.q.q.q.q.0.0.0.0.0.0.0.c c x x c c x x c x x x x c c c M q.q.q.q.q.q.q.0.0.0.0.0.0.q.0.q.q.q.q.q.q.q.q.0.q.",
"c c c c M q.q.q.q.q.q.M c x M M 0.0.q.0.M c x M x x x x x x c c c 0.0.q.w.0.0.0.0.0.0.0.0.0.0.0.q.q.q.q.0.0.0.0.0.0.0.0.",
"0.q.q.0.q.M q.M 0.0.M M x x x x x M 0.0.q.q.q.q.x x x x c 0.q.q.0.0.0.0.0.0.0.0.0.0.0.0.0.0.0.0.q.q.0.0.c 0.c 0.c x x x ",
"0.M c c M c c x x M M M c x x x x x x x c 0.0.q.M x x x 0.0.0.c 0.0.c c j c 0.0.c 0.0.c 0.0.0.0.0.0.c c c x x x x x x x ",
"M M x c c c M M 0.q.0.0.0.M M c x x M c x x M 0.M x x c 0.0.M x c j c 0.0.0.0.0.0.0.0.0.c c c c c c c x x x x x x x x x "
};
