/* XPM */
static char *result[] = {
/* columns rows colors chars-per-pixel */
"60 60 213 2 ",
"   c #070506",
".  c #13100F",
"X  c #160914",
"o  c #180917",
"O  c #1B0D1C",
"+  c #191416",
"@  c #1E1516",
"#  c #1D1A1A",
"$  c #2A0A1E",
"%  c #380519",
"&  c #231619",
"*  c #1D1422",
"=  c #1F1922",
"-  c #3A0621",
";  c #3C0923",
":  c #241324",
">  c #281627",
",  c #241B25",
"<  c #2A1A25",
"1  c #251D2A",
"2  c #2B1B2B",
"3  c #331D26",
"4  c #3B112A",
"5  c #311D2C",
"6  c #2E1F31",
"7  c #311E31",
"8  c #292427",
"9  c #2C222D",
"0  c #32222B",
"q  c #3C252A",
"w  c #342828",
"e  c #3B2B2D",
"r  c #3A312E",
"t  c #272530",
"y  c #2E2331",
"u  c #322434",
"i  c #392237",
"p  c #332A35",
"a  c #3B2B33",
"s  c #352638",
"d  c #352C3A",
"f  c #392C3B",
"g  c #3C3234",
"h  c #3A3637",
"j  c #36313B",
"k  c #3B343C",
"l  c #450A28",
"z  c #790D3A",
"x  c #6C1137",
"c  c #472D2E",
"v  c #4A2E2D",
"b  c #4B302E",
"n  c #52322F",
"m  c #5C352F",
"M  c #412735",
"N  c #4B3332",
"B  c #423539",
"V  c #463938",
"C  c #543532",
"Z  c #563A36",
"A  c #5D3A31",
"S  c #62392F",
"D  c #6C3C2E",
"F  c #633B32",
"G  c #49423E",
"H  c #58483D",
"J  c #77412D",
"K  c #7A432E",
"L  c #6D4437",
"P  c #6A4339",
"I  c #744333",
"U  c #7E4631",
"Y  c #7F4934",
"T  c #794A3A",
"R  c #68543E",
"E  c #3A2E40",
"W  c #3E3443",
"Q  c #3B3845",
"!  c #3E3A44",
"~  c #433645",
"^  c #433C43",
"/  c #44374A",
"(  c #433C4B",
")  c #483E4C",
"_  c #454245",
"`  c #4B4544",
"'  c #45424C",
"]  c #4A434C",
"[  c #4C494E",
"{  c #584947",
"}  c #514D4C",
"|  c #5C534E",
" . c #474450",
".. c #4B4552",
"X. c #4C4954",
"o. c #4E4C59",
"O. c #504750",
"+. c #514C55",
"@. c #554E5A",
"#. c #535156",
"$. c #595657",
"%. c #55525B",
"&. c #5A545C",
"*. c #5A595E",
"=. c #6D534C",
"-. c #7E5242",
";. c #775649",
":. c #71554C",
">. c #73564C",
",. c #655B5B",
"<. c #75615A",
"1. c #7B7256",
"2. c #565561",
"3. c #5A5663",
"4. c #5C5B64",
"5. c #5E5D68",
"6. c #605761",
"7. c #625E64",
"8. c #5E6066",
"9. c #5F6069",
"0. c #646265",
"q. c #62616A",
"w. c #69666B",
"e. c #696A6C",
"r. c #786C67",
"t. c #6F746A",
"y. c #6C6B73",
"u. c #716D73",
"i. c #787774",
"p. c #76737C",
"a. c #7D7A7B",
"s. c #830D3C",
"d. c #804731",
"f. c #814832",
"g. c #844E3A",
"h. c #85513D",
"j. c #89523C",
"k. c #8C593F",
"l. c #A85939",
"z. c #CD6F38",
"x. c #DA7635",
"c. c #990B48",
"v. c #A20F4E",
"b. c #825442",
"n. c #8B5643",
"m. c #8E5A4A",
"M. c #945D4A",
"N. c #945D52",
"B. c #AB5B4B",
"V. c #8D6749",
"C. c #876F4E",
"Z. c #92634C",
"A. c #99654B",
"S. c #936350",
"D. c #9B6B54",
"F. c #976659",
"G. c #9E745C",
"H. c #A86949",
"J. c #B96647",
"K. c #AA6C58",
"L. c #B16E53",
"P. c #A4775E",
"I. c #847368",
"U. c #817F7F",
"Y. c #A36A69",
"T. c #A6776B",
"R. c #C16A49",
"E. c #D37C44",
"W. c #DA833A",
"Q. c #EA902C",
"!. c #EC883B",
"~. c #E79939",
"^. c #F39735",
"/. c #EFAF34",
"(. c #F2AA37",
"). c #F7C23C",
"_. c #9F8252",
"`. c #A68552",
"'. c #B68F59",
"]. c #888978",
"[. c #A98669",
"{. c #B69364",
"}. c #B59673",
"|. c #DA8D44",
" X c #C98658",
".X c #D5AD4E",
"XX c #C5A357",
"oX c #E8B048",
"OX c #D1AC6C",
"+X c #F0C44F",
"@X c #E6C75D",
"#X c #F6D55D",
"$X c #F6DD74",
"%X c #FAE27F",
"&X c #7B7880",
"*X c #857F87",
"=X c #87838A",
"-X c #928D96",
";X c #949296",
":X c #9A979C",
">X c #A39FA6",
",X c #A7A7A9",
"<X c #B2B0B2",
"1X c #F3D484",
"2X c #FDF4A8",
"3X c #C2BCC6",
"4X c #C7C4C9",
"5X c #D0CAD5",
"6X c #D4D1D5",
"7X c #E8E5ED",
"8X c #F2EFF3",
"9X c #F5F3F7",
"0X c #FBFAFB",
/* pixels */
"f.f.f.d.d.d.d.d.d.d.d.d.d.d.f.f.f.f.f.f.d.d.d.d.d.d.d.K d.d.d.d.f.f.f.d.K d.K K d.d.d.d.d.d.d.f.f.f.d.f.f.f.f.f.d.d.D d.",
"f.f.d.K J J K K d.d.d.d.d.d.f.f.f.f.f.f.d.d.d.d.d.d.K K J K K d.d.d.d.d.d.d.d.d.K K J J K d.f.f.f.f.f.f.f.f.f.d.d.K d.d.",
"d.f.d.K K d.f.d.d.d.d.d.d.d.d.f.d.d.d.d.d.d.d.d.d.d.d.K K J J K J J J J J J J J J J J J J d.f.f.f.f.f.f.f.d.f.f.d.d.d.d.",
"U U d.U d.d.f.d.d.d.d.d.d.d.d.f.d.d.d.d.K d.K K d.d.d.d.d.d.K K K J J J J J J J J J J K d.f.f.d.f.f.f.f.f.f.f.f.f.f.f.f.",
"K U J J J d.d.f.f.f.f.f.d.d.d.d.d.d.K d.d.d.K J J K K d.d.d.d.f.f.d.J J J J J K K d.f.f.f.d.d.d.d.d.d.d.f.d.d.d.d.f.f.f.",
"J J J J J K f.f.f.d.f.f.f.d.d.d.d.d.d.d.d.d.K J J J K K K K d.d.f.f.d.J J J K f.d.d.K d.d.d.K K K d.d.d.d.d.d.d.d.d.d.d.",
"J K J J J d.f.f.f.f.f.f.f.f.d.d.d.d.d.d.d.d.d.d.d.K K K K K d.K f.d.f.J J K K f.d.J J J J J K d.d.d.d.d.d.d.K d.d.d.d.d.",
"K d.f.f.f.d.f.f.d.d.f.f.f.d.d.d.d.d.d.d.d.d.d.d.d.d.d.d.K K K d.d.K K J J J d.f.d.K K d.d.d.d.f.d.d.K d.d.D d.D D d.D D ",
"f.f.U U d.d.K K d.d.d.d.d.d.J d.d.d.d.d.d.d.d.J K K J J J J J J J J J J K J K K K J J K K f.Y f.d.J J D D d.D D d.D D d.",
"f.K J J d.D K K d.K U d.d.d.d.J d.J d.d.J J J J J J J J J J J J J J J J J J J J J J K K K K K j.F.d.d.d.d.D d.d.d.d.d.d.",
"f.d.U K d.d.f.f.d.d.K d.d.J D d.J J J d.J J J J K K K K J J K K J J J K J J J J K K f.d.f.f.g.n.Y.g.d.d.d.f.n.f.d.f.d.d.",
"j.f.f.f.d.d.d.d.d.d.K D d.D d.D J J J J J d.K d.d.d.d.d.d.d.d.d.K K d.K K d.K K d.f.d.U J U G.P.T.g.f.d.d.M.Y.g.g.K.M.d.",
"f.f.f.f.f.d.K K d.K J K D d.D d.J J d.d.d.d.d.d.d.d.d.d.d.d.d.d.K K K K d.f.f.f.d.d.K K J d.D.P.F.m.Y.j.j.L.K.j.K.Y.b.d.",
"J I K K d.d.d.K d.d.d.d.K d.d.d.d.d.d.d.d.d.d.d.d.d.d.d.d.d.d.d.d.d.d.K K K K K d.d.d.U d.d.M.[.k.D.E.M.H.E.J.k.T.T.g.N.",
"J J J J J K K K d.d.f.d.d.d.d.d.d.d.d.d.K J K K d.d.K J K K d.d.f.f.f.f.f.U f.K U K K K U d.f.A.j.L.|.z.x.^.R.n.n.n.g.F.",
"d.U K J J K K d.d.d.f.f.d.d.d.d.d.d.d.d.K d.d.d.d.d.d.K K K J J J K K K K K K K J J J J I f.g.F.L.z.^.(.(.(.W.H.j.n.Z.g.",
"f.d.f.d.f.d.d.d.d.f.f.f.U K U K d.J d.d.d.d.d.K d.d.d.d.d.K J J J J J J J J K K K J J K K Y f.A.R.!./.#X%X$X+XoX|. XK.f.",
"d.f.f.f.f.f.f.f.f.d.f.f.d.U K J J d.d.d.d.d.J J K K d.d.d.d.d.d.Y K J J J J D J K K d.d.f.f.f.Z. X.X.X@X1X2X#X(.W.H.j.d.",
"f.f.f.f.f.f.f.f.f.f.f.f.d.d.U K d.d.d.d.d.d.d.K J J J K K d.d.d.f.f.K K J J K g.n.g.d.d.Y Y Z.{.OX.XXX.X@X$X).Q.l.f.f.f.",
"f.f.d.f.f.f.f.f.f.f.f.d.f.f.U d.d.d.d.d.d.d.d.d.J K K J K J J K U f.f.K J J b.I.r.<.<.h.I V.OXOX'.H.H.~./.Q.^.!.B.f.f.f.",
"d.d.d.d.f.f.f.d.f.d.d.d.d.d.f.f.d.d.d.d.d.d.d.d.d.U U K J J J K K K Y K J I Z G U.| $.,.D.{.XX`.n.f.j.E.x.l.l.R.B.g.f.f.",
"U d.d.d.f.f.f.d.d.d.d.d.d.d.d.f.d.d.d.J d.d.d.d.f.Y f.Y K J J K K K I K I N 0 B r.i.$.V C.'.`.k.U Y S.K.B.f.T j.M.f.f.f.",
"d.d.f.f.d.f.d.U K K K U U U d.d.d.d.d.d.d.d.d.d.f.f.Y Y k.;.T ;.=.=.>.;.N 0 B ) +.u.U.H C._.C.-.Y k.[.D.n.M.F.F.f.d.f.f.",
"d.f.f.f.f.d.d.U K U d.d.d.d.d.f.d.d.d.d.K d.d.d.f.f.T ;.| } ` G _ ^ ^ 3 2 f ~ O.&.,.i.].1.R V | ;.n.}.Z.f.Z.A.N.m.f.f.f.",
"f.f.d.f.f.f.f.d.d.d.f.f.d.f.f.d.f.f.f.f.d.d.d.d.k.=.` ^ _ ^ O.+.o.[ ! 2 a ~ ) @.,.w.e.t.].I.,.%.0.;.[.V.f.f.g.j.M.f.f.f.",
"f.f.f.d.f.f.f.f.f.f.f.f.f.d.d.d.d.d.d.d.d.d.f.:.} _ ] ` V h ^ 7.5.4.X.j W ) [ &.0.e.u.w.8.0.i.a.i.1.T U f.f.f.d.f.f.f.f.",
"d.d.d.d.d.d.f.f.d.d.f.d.d.U K K K J J J J T { ` _ ] k r g # w *.5.q.5. ./ ] +.&.8.w.0.4.#._ k ` $.<.Y f.f.f.d.f.f.f.f.f.",
"d.U K U K d.d.d.d.d.d.U K K J J J J J J g.{ ^ ..! 8 & # . # _ *.5.5.5.2.o.X.%.*.0.0.4.%.' Q d p w L U f.f.U U U d.d.d.d.",
"d.d.d.K K K K K K K K J J J J J J J J J H B ....j 8 p k } #.2.3.3.4.3.2.o.X.#.8.0.4.#.+./ W d y a I K K K K K K K d.d.K ",
"U K K J K K J J J J J J K K K K d.U d.L ~ ....X.*.e.u.u.0.4.3.4.4.4.3.3.2.#.[ } *.#.+.../ E s 6 Z K K K U f.f.f.f.d.d.d.",
"K K K J K K J J K K K U U U K J J J I Z ( ) ..] ( _ [ 4.7.5.5.8.5.4.2.4.#.G H G G ` ] / d s y 0 L d.d.d.f.f.f.U d.K K J ",
"K K K K K K K K f.U U U U f.Y K J J P k ) ..^ j y.:X;X0...4.8.8.8.8.8.*._ # 8 w g r j f s 6 > i I f.f.f.f.f.U K K J J J ",
"U U U U U K K U U U J K U U U d.d.K N B ] ' d <X0X0X0X8X=X#.8.8.8.8.9.5.j . # # + + , j p 6 < 2 F U f.f.f.f.d.d.d.d.K K ",
"U K K K K J K K U K K J J K K U K L h k ] W *X8X0X9X6X<X6X4.8.0.8.q.5.5.2.o.X.#.' j 1 f E f s u b J U K Y K K J J K K d.",
"J J K K J J J K K f.U K K J K K K P a k ] ^ 3X9X0X4X[ # e.t.*.8.8.8.5.4.2.2.q.q.e.5. .Q E E f a e D K K J J J J J J J J ",
"J J J J J K K U d.f.d.d.U U U U I C d j j +.5X9X8XU.8 ` >X4.2.4.4.4.4.2.2.9.q.q.&Xp.@.Q E E M f 0 D D J J J J J J J J J ",
"J J K d.d.d.d.d.d.d.d.f.d.U d.d.Y N p d d 3.5X7X8X0.. [ ,X[ o.*.*.2.2.2.' 2.9.9.&Xp.%./ f f f f 0 C D J K K K D K K K J ",
"J K f.f.K K U K U K K K U U U U I g p d d @.3X6X8Xi.  . h [ X.o.X.o.o. .E 2.o. .' +.+.' j f f f u b K K K K d.d.d.d.d.d.",
"J K d.d.U K K K K U U d.d.f.d.U T e p s f W -X=X;X;X_ h e.[ X.X.X.X.X.' 1 t t t 9 1 , 9 9 f f f 0 n d.d.d.d.d.d.f.f.f.f.",
"J K d.f.d.U K d.d.U f.d.U U K K I e y p d s 9 d h h ! q.0.' '  .' '  .' Q ' o.2.3.@.W y s u f u 2 n d.f.f.d.f.f.f.f.f.f.",
"K U d.d.f.U U K d.f.d.U K J J J I e y p p k / +.@.[ ' ^ ^ ' ..) '  .' '  . .......) / W s s s u 2 C d.d.d.f.d.d.f.f.d.d.",
"U K K U d.U U U d.f.f.d.U U K K J c y y p f W W k k [ ..'  ...o. . . .' Q Q Q Q / ~ W s s s d 6 2 F d.d.d.f.d.U K K K d.",
"d.U U K K K K K U f.f.f.f.d.d.d.Y A 9 u u s p d = j 7.6.+...O.)  . . . .Q t * * y d d s u s s 2 w I d.f.f.f.d.J K d.K d.",
"K K K J J J J J K f.f.f.d.d.f.f.f.I 0 y y s p p , & B &.3.4.&.3.2.o.' Q o.E t p 2 p s u s i 7 2 c U f.f.f.f.d.d.d.d.d.d.",
"J J J J K J K K U f.U K U U d.d.f.U v 9 y u u u p 9 , j j W k ^ ' #.p.;Xw.t p p s s u 7 7 7 2 5 S d.d.f.f.f.f.d.f.f.f.f.",
"J J K K U d.f.U U K K K K K K U f.f.D 9 6 y s u s s p 4.;X,X,X,X<X,Xa.j . 8 y p y 7 6 7 7 2 > 3 U d.d.d.d.f.f.f.f.f.f.f.",
"K K U d.d.d.d.d.U U U K K K K K K f.Y b 1 2 y u u s p y , p k d c &     @ p u s y 6 7 2 2 2 3 S d.d.d.d.d.d.d.d.d.d.d.d.",
"K K f.d.d.d.f.f.f.f.d.d.U U d.d.d.f.f.I 0 2 2 5 7 y 2 2 - x s.c.s.x % X 9 u y 7 7 6 2 2 2 2 v I d.d.d.K d.K K K d.d.d.J ",
"J K d.f.f.f.f.f.d.f.f.f.f.f.f.f.f.f.d.f.P < < 2 6 6 * $ l z c.v.c.z - < y 0 6 7 7 5 > < 1 i I f.f.f.d.d.K J J K d.d.d.d.",
"U U f.f.d.d.d.d.f.f.f.f.f.d.f.f.f.d.f.f.f.H 9 < < > > i ~ 4 ; ; - % > 9 9 2 < 2 > > : > q L Y f.f.f.f.f.f.K J Y d.d.d.d.",
"f.f.d.d.U K U d.d.d.f.f.f.f.f.f.f.f.f.f.f.f.P 0 , < > 2 7 s 7 7 2 > 1 2 2 2 < > > : , c I Y f.f.f.f.f.f.f.K f.f.d.d.d.d.",
"f.f.U K J K K U U U d.d.f.f.f.d.f.f.f.f.f.d.d.L c 5 < > $ : > $ & : : : * O O : > 5 Z Y Y f.f.f.f.f.f.f.f.f.f.f.d.d.J d.",
"U U d.U U d.d.d.U K d.d.f.f.d.d.d.f.d.f.f.f.f.K I S b 8 $ O O o X X X X O O $ 0 m J d.d.d.d.d.d.f.f.d.d.f.f.f.f.f.d.J d.",
"d.U U K U U f.f.d.d.d.d.f.f.d.d.K K K d.Y d.f.f.U Y U J m v q 0 < < 3 q q v A J d.f.d.d.d.d.d.J K K K K K f.f.f.f.d.K f.",
"K K J J K K d.f.f.f.d.d.f.d.d.d.K K J J K K K K U U U K K J J D D D D I U d.Y f.d.d.d.d.d.d.d.d.d.d.d.f.d.d.f.f.f.d.K d.",
"J J J J K U f.f.f.d.f.d.d.d.d.d.d.d.K K J J J J J J J J J J J J d.D J f.f.f.d.f.d.d.d.d.d.d.d.d.d.d.f.f.f.f.f.f.f.d.d.d.",
"J K K K K f.g.f.f.f.d.d.K J K d.d.f.d.d.U K K K K J J J J J K J d.D f.f.d.d.d.d.d.d.d.d.d.d.d.d.f.f.f.f.d.d.d.d.d.d.d.d.",
"d.f.f.d.f.f.d.K d.d.d.K J J J J K K d.d.d.d.f.f.K J J J J f.f.f.d.d.f.f.d.d.d.d.d.d.d.d.d.d.d.d.f.f.d.d.K d.d.K K J J K ",
"f.K K K K U K J K d.d.K K K K J J J K J K d.d.d.K J J J f.f.K K D d.d.d.D d.d.d.d.J d.d.d.d.d.d.d.d.d.J K J J J J J J J ",
"f.K K K K K K f.d.f.f.d.f.U K K K K K K K K K d.U J J K f.f.d.K d.d.D d.d.d.d.d.d.d.d.d.J J d.J K K J J J J J J J J J J "
};
