/* XPM */
static char *b15ad8a9d69548a890d5192f1bc84cf7VEpOScp9cEQ2bsqQ[] = {
/* columns rows colors chars-per-pixel */
"60 60 222 2 ",
"   c #030303",
".  c #090A07",
"X  c #0E0E0B",
"o  c #0E1108",
"O  c #1C1C01",
"+  c #171608",
"@  c #12120E",
"#  c #161611",
"$  c #151810",
"%  c #1A1A15",
"&  c #1D1D19",
"*  c #1C240B",
"=  c #1D2116",
"-  c #242405",
";  c #272807",
":  c #2B3104",
">  c #3D3E00",
",  c #3B3D0D",
"<  c #25251E",
"1  c #252A1C",
"2  c #3B281A",
"3  c #283717",
"4  c #2A2923",
"5  c #372C21",
"6  c #33332B",
"7  c #3D3C34",
"8  c #452A1C",
"9  c #492E1C",
"0  c #4B331D",
"q  c #4C3423",
"w  c #4B3928",
"e  c #503523",
"r  c #573B26",
"t  c #533D2B",
"y  c #403F37",
"u  c #403F39",
"i  c #683E27",
"p  c #374F17",
"a  c #3F6311",
"s  c #3A4721",
"d  c #4A4A00",
"f  c #484917",
"g  c #465816",
"h  c #56571B",
"j  c #446313",
"k  c #456C14",
"l  c #4A6817",
"z  c #496C16",
"x  c #576B1E",
"c  c #4A7117",
"v  c #4C741A",
"b  c #51781F",
"n  c #696A00",
"m  c #747500",
"M  c #4B4A26",
"N  c #53422B",
"B  c #5D422D",
"V  c #455A29",
"C  c #595324",
"Z  c #464636",
"A  c #44433B",
"S  c #49473E",
"D  c #524333",
"F  c #57493A",
"G  c #4C5737",
"H  c #575636",
"J  c #6B4A27",
"K  c #77412D",
"L  c #7A432E",
"P  c #764D2D",
"I  c #695A27",
"U  c #70522A",
"Y  c #654B38",
"T  c #7E4631",
"R  c #764B37",
"E  c #7D4934",
"W  c #6A5834",
"Q  c #6C533D",
"!  c #77583C",
"~  c #4A6828",
"^  c #596726",
"/  c #547D23",
"(  c #56782D",
")  c #4C6432",
"_  c #536737",
"`  c #5B7936",
"'  c #66652A",
"]  c #657A2B",
"[  c #636A38",
"{  c #766839",
"}  c #647837",
"|  c #484740",
" . c #4D4C43",
".. c #534E43",
"X. c #5C4B40",
"o. c #535245",
"O. c #5B5345",
"+. c #545A44",
"@. c #55544B",
"#. c #59574C",
"$. c #5B5A4E",
"%. c #575751",
"&. c #5D5C52",
"*. c #675847",
"=. c #745A43",
"-. c #795C45",
";. c #615F53",
":. c #605F58",
">. c #5A6647",
",. c #5F7543",
"<. c #5E6151",
"1. c #616948",
"2. c #766549",
"3. c #7D624A",
"4. c #657848",
"5. c #7C7E42",
"6. c #636156",
"7. c #686753",
"8. c #65645A",
"9. c #68675D",
"0. c #6A695D",
"q. c #776956",
"w. c #6C7757",
"e. c #787659",
"r. c #6D6C62",
"t. c #706F64",
"y. c #737165",
"u. c #777865",
"i. c #75746A",
"p. c #79776A",
"a. c #7B7A6C",
"s. c #7D7C72",
"d. c #804731",
"f. c #814832",
"g. c #834F3A",
"h. c #83553D",
"j. c #855C49",
"k. c #81674D",
"l. c #876A54",
"z. c #8A6D54",
"x. c #936A56",
"c. c #887356",
"v. c #8D7359",
"b. c #91765F",
"n. c #847967",
"m. c #957A62",
"M. c #807F73",
"N. c #8F7F72",
"B. c #917F71",
"V. c #5B852B",
"C. c #5F8932",
"Z. c #618D32",
"A. c #68883A",
"S. c #728D3D",
"D. c #659236",
"F. c #699639",
"G. c #72963B",
"H. c #5B8545",
"J. c #6A8848",
"K. c #6D884E",
"L. c #738948",
"P. c #769746",
"I. c #7A885A",
"U. c #7A9556",
"Y. c #7AA145",
"T. c #778763",
"R. c #A5A702",
"E. c #AAAB00",
"W. c #AFB107",
"Q. c #B2B400",
"!. c #C4C500",
"~. c #C7C900",
"^. c #CBCD00",
"/. c #D8D900",
"(. c #DEE000",
"). c #EFF100",
"_. c #F7F900",
"`. c #FDFF00",
"'. c #EFF02F",
"]. c #FDFF25",
"[. c #919B56",
"{. c #A1A24B",
"}. c #99856E",
"|. c #87976A",
" X c #838275",
".X c #8D8576",
"XX c #86857B",
"oX c #8D8B7D",
"OX c #978979",
"+X c #889270",
"@X c #959978",
"#X c #A48C72",
"$X c #8DA264",
"%X c #B3B462",
"&X c #C2C35A",
"*X c #C2C36C",
"=X c #8E8D80",
"-X c #918E81",
";X c #959285",
":X c #9A9584",
">X c #979688",
",X c #99968B",
"<X c #9C9A8D",
"1X c #9E9C91",
"2X c #A69987",
"3X c #A39C8D",
"4X c #A19E93",
"5X c #9EA28D",
"6X c #A4AF8A",
"7X c #A4A295",
"8X c #AAA494",
"9X c #A6A499",
"0X c #A9A699",
"qX c #ADA99B",
"wX c #B2AD9E",
"eX c #ADABA1",
"rX c #B1AEA3",
"tX c #B8B5A7",
"yX c #C0BBAD",
"uX c #BEC0A4",
"iX c #CBC6B7",
"pX c #D2CDBF",
/* pixels */
"f.f.f.f.d.T f.f.f.f.f.f.f.f.f.f.f.f.f.f.f.f.f.f.L T T L d.f.f.f.f.f.f.d.T L L L T f.d.P I x ' I ' ^ P f.f.f.f.f.f.T L T ",
"f.f.d.L L K L T f.f.f.f.f.f.f.f.f.f.f.f.f.f.f.f.f.f.L K K L T T d.d.f.f.f.f.f.T T L x b V.C.Z./ C.V.' T f.f.f.f.T K L L ",
"f.f.f.L L f.f.T K L L d.f.f.f.f.f.f.f.f.f.f.f.d.f.f.f.T L K K K K K K L L L K K h k v Z.D.D.D.D.F.D./ I E f.f.f.d.T f.f.",
"T f.f.T T f.f.f.f.f.d.d.f.f.f.f.f.T L L L L L L L f.f.f.f.T K K K K K K K K K J g a b / V.C.Z.C.F.F.D.Y.V.I f.f.f.f.f.f.",
"T L K K L T f.f.f.f.f.f.f.f.f.f.f.K L T T T K K K L T d.f.f.g.g.f.T K K K K K K L h k z k v v v v / v z l l T f.f.f.f.f.",
"K K K K K L f.f.f.f.f.f.f.f.f.f.f.T f.f.f.f.L L K K K L L L L d.f.f.f.K K I / ^ ' l a k h j g k c v k c J T T f.f.f.f.f.",
"K K K K L T g.f.f.f.f.f.f.f.f.f.f.f.f.f.f.f.f.f.d.T L L L L T L d.f.f.J I V.D.Z.D.Z./ l K K B U j j j j j x I U U P d.T ",
"L T f.f.f.f.f.f.f.f.f.f.f.f.f.f.f.f.f.f.f.f.f.f.f.f.d.T L L L T T L I b V.C.Y.Z.G.D.C.v l U r { ^ l v V.C.Z.V./ / ^ K K ",
"f.d.T T f.T L L L T f.f.d.T T f.f.f.f.f.d.d.L K K L K K K K K K T L K J z c v v v v v z h J 0 g a v C.D.D.D.D.D.D.Z.I L ",
"f.L K K K K K T T T T T T T T T L T T T T L K K K K K E l.N.oXXXXX0.&.V ~ j j ~ G V j g P L 0 ! ^ k v V.V.Z.D.P.G.C.] U ",
"f.d.L T T f.f.f.f.f.d.T L L K K K K K K K K K L E l.B.=XXXXXXXXXp.&.&.&.$.+.+.&.&.&.G D r R r B ' a k k c v v / V.V.D.C.",
"j.f.f.f.f.f.f.f.T L K K K K K K K K K L L E m.OX1XXXXXXXXXXXXXs.;.&.&.&.&.&.&.&.&. .y y y w B 9 W [ g f g g k v v v l h ",
"d.f.f.f.f.d.L L d.T K K K K K L L L T g.}.4X;XXXXXXXXX Xs.y.9.&.&.&.&.6.&.&.&.&.A 7 7 y y y w B q v.z.B =.i h j k j z J ",
"L L L L f.f.d.T f.f.f.T T L T f.f.f.x.8X=XXXXXXXs.y.8. .< < 6 &.r.i.XXt.&.&.#.A 7 7 A  .A 7 y r Y Y z.k.Q i f.C C h h J ",
"K K K K L L L L f.f.f.f.f.f.f.f.f.x.4XXXXXXXs.6.&.&.| C *X*X[.6 y.XXi.&.&.#.A y A ..&.&.&. .y q =.B l.z.3.J f.f.T K K L ",
"f.T L K K K L T T f.f.f.f.f.f.f.x.1XXXXXXXs.&.&.&.| , W.].].'.{.6 6.&.&.@.y A A @.&.&.&.&.&.#.w Q 3.k.z.l.W ! L K K K K ",
"f.f.f.f.f.f.f.f.f.f.f.f.T L T j.4XXXXXXX X6.&.&.&.A > ~.`.`.].&X# A  .#.A 7 A @.&.&.&.&.&.&.&.w =.z.k.3.c.^ P.f.f.L K K ",
"f.f.f.f.f.f.f.f.f.f.f.f.f.T E 3XXXXXM.t.#.&.&.&.| , E.).`.`.`.'.{.& &.r.#.7 A &.&.&.&.&.&.&...e k.c.c.Y k.[ J.Y d.f.f.f.",
"f.f.f.f.f.f.f.f.f.f.f.f.f.f.OX Xy.6.&.@.&.&.&.&.S > ~.`.`.`.`.].&X& 6.#.=.o.7 @.;.$.&.&.&.&.t Q -.z.m.e M } L.S K f.f.f.",
"f.f.f.f.f.f.f.f.f.f.f.f.f.-.r.&.@.#.@.&.&.&.&. .f E.).`.`.`.`.`.'.{.4 F =.$.@.S *.&.&.&.&.&.w Y 3.v.v.8 G A.c.v.*.T f.f.",
"d.f.f.f.f.f.f.f.f.f.f.f.E $.&.0.8.@.&.&.&.&.0.i.> ~.`.`.`.`.`.`.].&X# *.W _ ;.Q F #.&.&.&.&.w t ! v.2.^ ( H 3.z.z.z.{ 5.",
"T T f.f.f.f.f.f.d.d.f.f.*.0.s.XXi.#.#.&.&.8.i.f E.).`.!.> > m `.`.'.{.5 H ` *.O.#.A &.&.&.&.w C C A.Y.} 0 9 0 B Q l.[ ( ",
"f.f.f.f.f.f.{ U ! R E =.r.s.s.M.y.&.@.&.&.s.&.> ~.`.!.:     o m `.].&X# D _ >.&.&.o. .&.&.&.D ] } 2.! 0 D O.t q 0 0 r Q ",
"f.f.g.m.OX<XP.4.9X7X1X,XoX Xa.i.8.&.@.&.&.S , E.).`.Q.        d `.`.'.{.% ) $.&.&.&...#.&.&.G ` O.B k.0 F &.&. .7 y w q ",
"f.f.}.9X9X9XU.K.<X1X<X1X1X4X3X:X:XoXa.w.8.A > ~.`.`.Q.        d `.`.].&X@ _ G &.&.&.&.o.&.$.~ F &.w z.B ..&.&.&.A A A y ",
"f.f.b.9X9X9X|.H.T.;X-X=XoXOX.X}.}.#XI.@Xn.f E.).`.`.Q.        d `.`.`.'.{.1 G <.&.&.&.#.@.,.H F &.t 3.Q O.&.&.&.o.7 A A ",
"f.f.g.,X9X,X@XH.9XtXtXrX9X>X=X=XoX-XI.@X7.> ~.`.`.`.Q.        d `.`.`.].&X$ V  .&.&.&.&.#.J.[ F &.D -.k.#.#.#.@...A Z Z ",
"L L L j.1X,X5XA.4X9X9X9X9X9X9X<X-XoXL.1.f E.).`.`.`./.n     : E.`.`.`.`.'.{.=  .&.&.&.&.$.A.H ..&.N k.m.#.#. .A 7 7 ) A.",
"f.f.f.T l.;X|.Y.+X9X9X9X7X1X,X;X>X;XK.1.> ~.`.`.`.`._.R.    d ).`.`.`.`.].&X@ A  .&.&.&.1.P.D o.&.N k.m.&. Xi.&.#. .M 4.",
"T L K K K q.+X$XU.9X9X9X9XeXrXrXeX;X_ f E.).`.`.`.`.`.Q.    d `.`.`.`.`.`.'.{.&  .&.&.&.$.A.H o.$.B =.c.8.XXXXt.&.O.~  .",
"K K L K L P.,.a.J.[.7X7X9X9X9X9X@XG._ > ~.`.`.`.`.`.`./.n : E.`.`.`.`.`.`.].&X# A  .&.&.&.o.~ G @.q =.q.i.XXXXXX6.e.4.&.",
"L L L L h.C.u.0.K.U.9X4X<X9X9X9X7X>.f E.).`.`.`.`.`.`._.R.d ).`.`.`.`.`.`.`.'.{.&  .&.&.&.D F ~ G N 3.q.M.XXXXXXn.w.L.1.",
"T T T g.:XJ.w.y.4.) 0.-X;X;X1X9X9XV > ~.`.`.`.`.`.`.`.`.Q.d `.`.`.`.`.`.`.`.].&X@ A  .&.&.F &.o.A.C 3.e. XXXXXXX.X1.L.$.",
"T T T OX7XJ. Xp.7.( < % < 6 S 6.<.p E.).`.`.`.`.`.`.`.`.).^.`.`.`.`.`.`.`.`.`.'.{.% A #.&.&.&.#.` N 3.n.XXXXXXXXXXI.P.<.",
"K K l.9X@XP. Xp.y.J.1 4 < & # X 3 > ~.`.`.`.`.`.`.`.`.).R.n /.`.`.`.`.`.`.`.`.].&X# 7 7 o.&.&.&._ q l.n.XXXXXXXXXX X` 4.",
"K T 3X9X7XU.u.p.K.P.V 4 < < < 1 : E.).`.`.`.`.`.`.`.`.!.- o m `.`.`.`.`.`.`.`.`.'.{.& 7 y  .&.>.V e c.y.XXXXXXXXXXXXr.~ ",
"K j.9X9X9X|.L.p.p.w.G.4 < < s g ; ~.`.`.`.`.`.`.`.`.`./.n : E.`.`.`.`.`.`.`.`.`.].%X# 7 7 y @.A.G Y l.y.XXXXXXXXXXXXs.>.",
"K n.,X9X4XI.T.M.p.w.` 1 < = p 3 ; ~.`.`.`.`.`.`.`.`.`._.(.^.).`.`.`.`.`.`.`.`.`.].%X% u 7 y S _ D -.q.9.XXXXXXXXXXXX X;.",
"R .X9X1X>XK.T.oXp.0.` 3 < < p < - ~.`.`.`.`.`.`.`.`.`.`.`.`.`.`.`.`.`.`.`.`.`.`.].%X% A A 7 ) >.t l.;.&.s.XXXXXXXXXXXX9.",
"&.;X9X7XoXU. X=X.X0.7.~ ) } 3 X + n !.!.!.!.!.!.!.!.!.!.!.!.!.!.!.!.!.!.!.!.!.!.R.M  . .S V _ #.q l.;.&.r.XXXXXXXXXXXXy.",
"#.;X9X>XoXP.+XoX Xy.8.7 ~ ( # @ X + O O O O O O O O O O O O O - ; - - ; - - - ; 3  .&.&.+.( ` @.9 -.q.&.&.s.XXXXXXXXXXa.",
"&.=X9X-XoXP.I.a.p.p.0.6 6 1 % # X % % % @ . . . . .     *     A %...5 | Z s 6  .8.&.9.i.) +.y F q Y m.;.&.9.XXXXXXXXXXs.",
"a.oX7X.X X,.M. X.X.XM.;.4 < < @ @ < < < < @ % X X . . . 3 o . XX4X2X=.a.q._ #.t.tXXX XL.) &.A t q.t 3.n.&.&.a.XXXXXXXXXX",
" XoX-X>X|.6XiXpXpXyX7X8XS < < @ # < < < < % & X X X . . p ; . ;X9X7Xz.q.0.1.&.;.eX1XXXL.>.&...B 8.o.D b.8.&.6.XXXXXXXX X",
"i.oXrXuX[.iXpXpXiXqXwXwX .< < @ % < < < < < % X X X . . s . . ,X9X7Xb.q.a. X9.&. XtXXX4.&.&.D 3.@.r.O.=.n.&.&.r.XXXXXXXX",
"6.rXpXpX6XtXpXrX.X8XwXwX7 < & X < < < < < < % X X . . $ s . . ,X9X3Xz.3..X=XM.;.8.rX=X4.1.#.t q.9.XXr.Y q.&.&.&.s.XXXXXX",
"<XpXpXpX6X@X<X:X:X.X:X;X4 < # @ < < < < < < # X X . . 3 3 . . ;X0Xm.Q m.-X=XoXr.&.=X>XS.>.F Y 7.M.XXs.*.O.A &.&.9.XX XI.",
"pXpXpXtX+XU.:X:X:X:XoXo.< < X # < < < < < < # X X X . @ 3 . . i.2XQ ,X2XOX=X=Xs.;.r.=X,.&.t =.t.XXXX X2.O.7 @.&.&.i.XXS.",
"tXqX:X:XI.oX:X:X:X:Xp.4 < @ X % < < < < < < # X X X . . p * . @.v.e.4XqX}.-X=X X9.&.u.4.&.w 2. XXXXXXXq.;.7 7 &.&.;. X4.",
"wX3X:X@XI.;X:X:X;X8.4 < % X X & < < < < < < X X X X X . p . . 4 3.-X;X7X#X.X=XoXt.&.7.1.$.e n.XXXXXXXXu.;.A 7 ..&.&.0.K.",
"<X7X:X@XL.:X;XM.8.6 < < < % X % < < < < < % X X X X X . s . . . Y 4X,X7X2Xm.=XoXr.&.&.&.#.B .XXXXXXXXXp.7.S 7 A &.&.&.A.",
"r.7X:X:X4.u.8.8.0.0.6 < < < < # < < < < < @ X X X X X X ~ . . . F eX,X4X3Xv.a.r.8.&.&.&.@.Y .XXXXXXXXXs.;. .y 7 #.&.$.,.",
"8.-X-XoX4.4.0.y.p. X8.< < < < & < < < % % X X X X X . . 1 * & :.n.qX;X1X8Xm.p.t.8.y.y.&.#.*. XXXXXXXXXM.$. .y 7  .&.$.4.",
"s.;X-XoXI.w.p.M.oX=XXX4 < < < < & < < # @ X X X X X . . o G a.9.3X9X;X4X0X#X<XtXiXpXpXiX3X2.8.r. XXXXX X&. .y 7 A &.&.1.",
",X9X9X7X|.e.M.oX=X=X X7 < < < < < < < @ X X X X X X . . & s.s.&.rX9X>X7X0XiXpXpXpXpXpXpXiX8XqX X8.i.XXM.&. .y 7 7 &.&.&.",
",X>X,X9X@XI. X-X=X.Xp.#.< < < < < < < @ X X X X X X . . &.s.i. .eX9X>X9XqXwXtXtXtXyXyXtXwXqXwX8Xy.&.r.y.&. .y y 7 @.&.&.",
" X Xs.s.s.I.M.oXoXa.a.0.4 4 4 4 < < < X X X X X X X . . &.8.#.A XX=XXXs.XXoX;X:X:X;X;X:XOX3XwX8X6.&.&.&.&.@.y y y  .&.&.",
"r.r.9.6.6.u.oXoXp.s.s.s.r.7 4 4 < < < X X X X X X X . . 6 9.&. .9.r.y.y.r.8.y.:X:X:X:X:X:XOX8Xy.&.&.&.&.&.@.y y y A &.&.",
" . . ...r.4X;X X6. . . .#.F e e q q q 8 8 8 8 8 8 2 2 2 2 ;.&.o.#. . . . .&..X:X:X:X:X:X:X.X0.$.$.$.$.$.$.#.y y y Z *.*.",
".. . .F R j.l.j.R Y Y Y Y T T L L L L L L L L T T K K L d.E E K Y F ....X.R g.h.j.l.z.l.j.T L L L L K K K K K K K K K K "
};
