/* XPM */
static char *result[] = {
/* columns rows colors chars-per-pixel */
"60 60 185 2 ",
"   c #4E2E2A",
".  c #5E2C29",
"X  c #5A322A",
"o  c #5D3329",
"O  c #5E392C",
"+  c #5E3A31",
"@  c #642D28",
"#  c #6C2B2A",
"$  c #712A27",
"%  c #742B2B",
"&  c #7A2B2A",
"*  c #63352B",
"=  c #6E312F",
"-  c #653A2D",
";  c #6B3D2D",
":  c #713E2C",
">  c #633D34",
",  c #6B3E30",
"<  c #743534",
"1  c #7C3532",
"2  c #773937",
"3  c #77412D",
"4  c #7A432E",
"5  c #644132",
"6  c #6A4134",
"7  c #67443B",
"8  c #69493B",
"9  c #744230",
"0  c #7E4631",
"q  c #7E4833",
"w  c #79413F",
"e  c #6B4D47",
"r  c #744341",
"t  c #6E5049",
"y  c #735346",
"u  c #725846",
"i  c #72544E",
"p  c #755B4D",
"a  c #7D5452",
"s  c #755955",
"d  c #7D5C57",
"f  c #7D6756",
"g  c #852D2C",
"h  c #8B2C2E",
"j  c #942D2D",
"k  c #9B2E2F",
"l  c #83312F",
"z  c #952E31",
"x  c #9A2D30",
"c  c #8B3B37",
"v  c #943734",
"b  c #A32E2E",
"n  c #AA2F2F",
"m  c #AB312F",
"M  c #BA322F",
"N  c #A52F30",
"B  c #A33231",
"V  c #A93030",
"C  c #B43230",
"Z  c #BB3331",
"A  c #B03A38",
"S  c #D6373C",
"D  c #D8373D",
"F  c #D7383D",
"G  c #D8383D",
"H  c #804731",
"J  c #814832",
"K  c #844E3A",
"L  c #BC423E",
"P  c #D63D41",
"I  c #D83B40",
"U  c #9B4441",
"Y  c #8C5844",
"T  c #81514E",
"R  c #805F58",
"E  c #8A5E5C",
"W  c #BD4342",
"Q  c #A9514F",
"!  c #AF5855",
"~  c #8D765D",
"^  c #8B6562",
"/  c #876C68",
"(  c #8B6D6A",
")  c #946C68",
"_  c #877462",
"`  c #957572",
"'  c #987772",
"]  c #9C7D79",
"[  c #B87572",
"{  c #D74446",
"}  c #D84449",
"|  c #D9494D",
" . c #D9514F",
".. c #D74D52",
"X. c #D94E53",
"o. c #C25855",
"O. c #D85155",
"+. c #D85559",
"@. c #DC5B5B",
"#. c #C6625F",
"$. c #DD655E",
"%. c #CA6F6C",
"&. c #DF6565",
"*. c #DD6E64",
"=. c #DC6B6C",
"-. c #DF756A",
";. c #DD6D70",
":. c #CE7878",
">. c #DD7376",
",. c #D07D7C",
"<. c #DF797B",
"1. c #E16B6A",
"2. c #E47572",
"3. c #E47976",
"4. c #E47D7A",
"5. c #9B8669",
"6. c #A38F6F",
"7. c #A58E71",
"8. c #A2817C",
"9. c #A5897B",
"0. c #E38579",
"q. c #A48581",
"w. c #A78B87",
"e. c #B18C88",
"r. c #B5918B",
"t. c #AA9592",
"y. c #BBA987",
"u. c #B5A19E",
"i. c #B4A4A3",
"p. c #D58A88",
"a. c #DA9B9B",
"s. c #E38584",
"d. c #E78985",
"f. c #E68B88",
"g. c #E28B8C",
"h. c #EB908B",
"j. c #E39596",
"k. c #EE9D94",
"l. c #E69A9C",
"z. c #C5A19B",
"x. c #E9A78F",
"c. c #EBAB93",
"v. c #EFA298",
"b. c #F0A59C",
"n. c #CBA7A3",
"m. c #DDA6A4",
"M. c #CFBCB8",
"N. c #D9B5B0",
"B. c #DEBAB4",
"V. c #F2ADA3",
"C. c #F3B1A7",
"Z. c #F3B5AA",
"A. c #F2B9AE",
"S. c #E3BBB7",
"D. c #E5BFB9",
"F. c #F2BBB1",
"G. c #DBC99C",
"H. c #D4C4A4",
"J. c #D9C9A7",
"K. c #D5C1BE",
"L. c #DCC2BE",
"P. c #E0CFA3",
"I. c #F0C8AA",
"U. c #E2D1A6",
"Y. c #E3D1AA",
"T. c #E9D8AE",
"R. c #E7C3BD",
"E. c #E8C2BE",
"W. c #F3C4BB",
"Q. c #E3D4B2",
"!. c #E8D7B4",
"~. c #ECDCB6",
"^. c #F2D7B4",
"/. c #F3E4BE",
"(. c #EEC9C2",
"). c #E3CDC8",
"_. c #F3C7C0",
"`. c #F4CBC4",
"'. c #F4CFC9",
"]. c #F5D3CC",
"[. c #F8D0C8",
"{. c #EAD8D5",
"}. c #F2DBD6",
"|. c #F6DFDA",
" X c #F7E6C1",
/* pixels */
"J J J J H 4 J J J J J H J J J J J 0 J J J J J J 4 H H 4 H J J J J J q J 4 4 4 4 J J J H J J J J J J 4 J J J J J H 0 4 0 ",
"J J H 4 4 3 4 H J H J J J J J H J J J J H J H J J J 4 3 3 4 4 H J J J J J J J 0 4 4 3 3 4 J J J J J J J J J J J 0 4 4 4 ",
"J J J 4 4 J J 0 4 4 4 H J J J J J J J J H J J J J J J H 4 3 3 3 3 3 3 3 4 4 3 3 3 3 3 3 4 0 J J J J H J J J J J H 0 J H ",
"4 J J H 0 J J J J J J H H J J J J J 4 4 H 4 4 3 4 J J J J J 3 3 3 3 3 3 3 3 3 3 3 3 3 3 J J J J J J J J J J J J J J J J ",
"H 4 3 3 4 H J H J H J J J J J J J 3 3 4 H H 3 3 3 4 H H J J K K J J 4 3 3 3 4 4 4 J J J J J J J J J J J J J J J H J J J ",
"3 3 3 3 : 4 J J J J J J J J H J J 4 J J J J 4 3 3 4 : 4 4 4 H J J J J 3 3 3 4 J J 0 4 J J J 4 4 4 H J J H 4 H J H H J J ",
"3 3 4 4 4 H K J J J J J J J J J J J J J J J J J H H 4 4 4 4 H 4 J J J 3 3 3 J J J 4 4 4 4 3 4 q J 0 4 J 4 H H 4 0 0 0 0 ",
"4 H J J J J J J H J J J J H J J J J J J J J H J H H H H 4 4 4 H 0 4 q 3 3 3 4 J J 4 4 4 0 J J J J J H H 4 3 3 3 3 3 4 4 ",
"J H 0 H H 4 4 4 4 H J J 0 0 0 J J H H J J 0 0 3 3 3 3 3 3 3 3 3 3 3 3 3 4 3 4 4 4 3 4 4 4 J J J 4 4 4 3 3 3 3 3 3 3 3 4 ",
"J 4 3 4 3 4 4 0 0 0 0 0 0 0 0 0 4 0 H 0 0 3 3 3 3 3 3 3 3 3 3 3 3 3 3 3 3 3 3 4 3 4 4 4 4 4 4 4 H 4 4 3 3 3 3 4 4 4 H J ",
"J H 4 0 0 J J J J J J 0 0 3 3 3 4 3 3 3 3 3 3 3 4 H 4 4 4 4 4 : 4 3 3 3 3 4 3 4 3 4 J J J J J J J J J J J q J J J J H J ",
"Y J H H J J J H 0 4 3 3 3 3 3 3 4 3 3 3 4 0 0 q H H H H J H H H 4 0 4 q 4 4 4 4 4 H J 4 4 4 H J J J J J J J J J H J H J ",
"H J J J J H 4 4 0 0 3 3 4 3 3 4 4 4 0 H J J J 0 0 : , 2 : : : ; 3 3 3 4 0 J J J J J 4 4 4 q 4 4 4 4 q q J J J J J J H H ",
"4 4 4 4 J J H H J J J q 0 0 0 J H H q 3 > * # & g v U Q ! ! Q K c % @ X ; 4 4 4 J J J J 0 J J J q 3 - 7 3 q J J J H H 0 ",
"3 3 3 3 4 4 3 4 J J J J 0 H J 0 9 * # g N A %.a.E.S.m.a.p.:.;.:.,.o.o.[ 1 . 3 q H 4 4 3 0 J J J 4 p H.Y._ 3 q q 0 3 3 4 ",
"H 0 3 3 3 3 4 4 0 J J J H 9 o     $ b Z Z ,.a.#.W Z Z M M M M M M M W :.L C & o 3 3 3 3 3 J J J 6 H././.!.O 0 3 3 3 3 3 ",
"J J J J J J J J J J J : > ] N.(.(.B.q.2 m M M Z Z Z Z Z M Z Z M Z C Z Z Z Z M j X 3 3 3 3 q J 4 p /./.J./.5 J J J H 3 3 ",
"J J J J J J J J J J , / (.F.A.F.F.W.'.R.a b Z M Z Z Z Z Z Z Z Z Z Z Z Z Z Z Z Z g * 0 q J 9 5 p J./. Xy.U.O J J H J J J ",
"J J J J J J J J J , ` _.F.Z.k.h.k.C.A.W.(.a C M M Z Z Z Z Z Z Z Z Z S Z Z Z Z Z m $ - 8 f 6.H././././.T.f 6 J J J J J J ",
"H J J J J J J J 0 R (.A.V.;.P S P @.k.A.W.B.1 M Z Z Z Z Z Z Z Z Z C C Z Z Z Z Z M z y Q././.T.U.P.U./.~.H.5 J J H J H J ",
"H J J J H J J J > N.F.C.&.P S P G G | k.Z.`.e.j Z Z Z Z Z Z Z Z Z Z Z Z Z Z Z Z Z B = H.U.G.y.5.~ 6.U././.5 0 J J H J J ",
"4 4 J J J J H 2 ` _.Z.2.=.P S S F G G | b.W.'.w Z Z Z Z Z Z Z Z Z Z Z Z Z Z M Z Z N % 7.6.y 5 3 3 - ~ ~.U.O 4 0 H J H J ",
"J J J J J J H > D.F.k.=.@.I F F G G G F 1.Z.`.r.k Z Z Z Z Z Z Z Z Z Z Z Z Z Z Z M N h X * 4 4 J J J 6 u 8 4 J 4 H 4 J J ",
"J J J J J H H i [.Z.3.g.P D F F F F F F F v.W.R.< Z Z Z Z Z Z Z Z Z Z Z Z Z Z Z Z b h * 4 J J J 0 4 4 0 H J J J H J J J ",
"J J J J J J 4 ` _.Z.3.s.I I I D F F G F F 3.F.'.T Z Z Z Z Z Z Z Z Z Z Z Z Z Z Z M b g - 4 0 4 3 3 3 3 3 J J J J J J J J ",
"J J J J J J 4 w._.C.0.>.D D F F F F F F G @.A.[.) V Z Z Z Z Z Z Z Z Z Z Z Z Z Z C k & * 4 3 3 3 3 3 3 4 J J J J H J H J ",
"J J J J q q 0 w.`.C.g.>.D F F F F F G F F { Z.W.9.n Z Z Z Z Z Z Z Z Z Z Z Z Z Z V x # ; 3 3 4 3 4 0 q J J J J J J J J J ",
"4 4 4 4 4 q q / ].Z.f.g.D S F F -.c. .G G I V.W.e.b M Z Z Z Z Z Z Z Z Z Z Z Z C x z . 3 3 3 J J J J J J J 0 0 J J J J J ",
"J J J 0 4 4 3 t |.A.d.l.P F F F c.^.x.P F S k.W.z.j Z Z Z Z Z Z Z Z Z Z Z Z M N k g * 3 3 J J 0 4 4 4 4 4 3 3 4 4 J 4 H ",
"q 4 3 3 4 3 3 O {.F.v.<.-.F F F $.0.I.@.F F 2.F.D.1 Z Z Z Z Z Z Z Z Z M Z Z V x x @ 3 3 4 J J J 3 3 4 4 q J J J J J J J ",
"4 3 4 4 4 4 3 ; i.`.Z.&.j...P F F *./.0.F G | Z.`.E C Z Z Z Z Z M Z Z M Z n x z & - 9 4 3 0 J J H H J J J J J J H 3 3 3 ",
"4 4 4 4 4 4 4 3 i }.F.b.O.;.F F F { I.-.F F G f.W.n.l Z Z Z Z Z Z Z Z C N k x z @ 0 J J H H J H J J J J J J 0 4 3 3 3 3 ",
"4 4 J q H 0 4 0 ; u.`.Z.k.| F F G I P P F F I X.Z.`.^ m Z Z Z Z Z Z m b x x x # : J J J H J J H J H J H H J H J J J 4 4 ",
"J J 4 4 4 3 4 3 0 7 K._.Z.V.2.} P X.I G F F F F s.W.S.2 C Z M Z C N x x x z % - q J H H J J J J J H H H J 4 4 3 3 4 4 H ",
"3 3 4 4 3 3 3 4 3 q e M.'.A.C.b.2.1.p.O.F F F F | C._.8.j M C N x x x x x & * 0 0 0 H H H H J J 4 4 3 3 4 3 3 3 3 3 4 4 ",
"3 3 3 3 3 3 4 H J K 0 7 t.}.W.Z.Z.b.;.j.+.F F F G 3.W.R.2 N x x x x x x & o 0 J J 0 0 4 0 0 0 0 3 3 3 3 4 3 3 3 3 3 3 3 ",
"3 3 4 H J J J J H H q 0 , s M.].F.Z.C.4.l.+.S F D @.A.[.a x k x x x k & * 0 4 4 3 3 3 4 3 3 3 3 3 3 4 3 4 4 3 4 3 4 4 3 ",
"3 3 J J 0 0 4 0 0 4 3 0 0 9 > / ).`.A.Z.f.j.p.>.X.3.A.[.( z x x x k # * 3 3 4 : 3 3 3 : 3 3 4 3 3 4 3 3 4 4 4 H J J H J ",
"3 4 J J 0 3 3 3 4 0 J J J J 0 0 + t.].W.Z.V.f.d.v.Z.A.`.^ j x k h . - 4 4 3 3 4 3 3 4 4 4 4 4 0 4 0 0 J H H J J H J H J ",
"3 4 J J J 0 0 H H 0 J J J 0 4 9 3 * s L.'.F.Z.A.Z.A._.'.r z z % . 3 4 : 3 3 3 3 3 3 : 4 4 H H H J J J J J J J H J J J J ",
"H H H H H H H 4 H J H 0 3 4 : 4 3 3 3 5 q.L.`._.`.'.W.] # $ o 3 3 3 4 0 H J H H H 4 4 J J 4 4 4 H H H J J J J J J J J J ",
": : H H H H H H J J J J 0 0 4 4 4 4 4 4 ; 6 d ' 9.8.d   - 3 H J J J H 4 4 0 4 J H H H H J J J J H H H H J J J 4 4 4 4 4 ",
"J J H H 4 : 4 4 H J J J J J J J J J J J 4 4 4 3 9 - 3 3 4 0 0 J J J J J J H 4 4 : 3 4 H J H J J J J J J H J H 4 4 H J H ",
": H : H : 4 4 : 4 J J J J J J H H J J J 4 J J J J 4 4 3 3 3 3 3 3 3 3 3 4 3 3 3 4 3 : H K J J J J H J J J J J H J J J J ",
"H H : l : 4 : H H K H 4 H J J J J J J H H 3 4 H J J J J 4 4 4 4 3 3 3 3 3 3 3 3 : H H H J J J H J J J J J H J J J J J J ",
": : 4 4 H J J J 4 4 : 4 4 : 4 H H H J J 3 3 3 3 4 J J J K J J J 4 3 3 3 4 4 3 3 H : : H H J J J J J J H J J J J J J J J ",
"4 4 J J H H H H J J H 4 : 4 4 4 H H J J H 3 3 3 3 3 4 4 4 J J J J 4 4 4 J J J J : l 4 : : H H H J H H H H H J J J J J H ",
"3 H J J H J H J J J J J J H H H H J J H H H H 4 4 3 4 4 4 4 0 J J 0 J J J J J J J J J J J H J H H H H 4 0 4 4 4 H J 4 3 ",
"3 4 J J J J J J J J J J J J J J J H H J J J J 4 3 3 4 J J J J K J J J J J J J J J J J J J J J J J J J J 4 3 3 4 H J J 4 ",
"0 0 J J J H J J J J H J J J J J J J J J J J J H 3 4 J J J J J J J J J J J H J J J H J H J J J H J H J J J 4 4 0 H J H J ",
"J J J J 4 4 0 J J J J J H J J J J J H J J J J J 0 J J J J J J J J 0 4 4 J J J H J J J H J J J J J J J J J 0 J J J J 4 H ",
"J J J 3 3 4 4 4 0 0 J J J J J H J J J J J J J 4 0 0 J J J J 0 J 4 3 4 4 4 0 4 J J J J J H J J J J J H J J J J H J H 4 H ",
"0 J J 0 4 J J J 4 0 4 0 J J J J J J J J J J J 4 4 3 4 4 0 0 J J J 0 J J J 0 4 4 0 J J J H J J H J J J J J J J J J H 3 J ",
"J J 4 4 0 J J J H J J J J J J 0 3 4 4 H J J J J J J 0 0 0 J 0 0 4 0 J J J J J J J H J J J H 0 4 3 4 4 4 4 H J J J J 3 J ",
"4 4 3 3 4 H J J J J H J J J J J 4 3 3 3 4 4 4 4 0 0 0 4 0 4 3 3 3 3 4 J J J J J J J J H J J 4 4 0 J J J J H J J J J 4 J ",
"3 3 3 3 3 4 K J J J J J H 0 J J J H 4 3 3 3 4 4 3 3 3 3 3 3 3 4 3 3 4 J J J J J J J J J J J H J J J J J J J J J J J J J ",
"3 4 4 4 0 J J J J J J 0 3 3 4 0 J J J J H 4 4 4 4 3 3 3 4 4 3 4 4 0 J J J J J 0 J J J J J J J J J J J J J J J J J H H J ",
"J J J J J H J J J J J 0 3 3 4 3 4 4 J J J J J J 4 3 3 3 4 J J J J J J J J J J J J J J J J J J J J J J H 4 H H 4 4 3 3 4 ",
"H 4 4 0 0 4 4 3 3 0 0 0 4 3 4 3 3 4 4 4 4 H J J 0 3 3 3 J J 4 4 4 4 0 4 3 3 4 0 0 0 4 4 0 J J J J J 4 4 3 3 3 3 3 3 3 3 ",
"J 0 3 3 3 4 0 J J J J J J J 4 4 3 4 4 4 4 3 4 H 0 3 3 4 J J 0 3 4 4 4 0 J J J J H J J 0 4 4 4 4 4 4 3 3 3 3 3 3 3 3 3 3 "
};
