/* XPM */
static char *result[] = {
/* columns rows colors chars-per-pixel */
"60 60 248 2 ",
"   c #2D1A15",
".  c #381B15",
"X  c #2C281B",
"o  c #342D16",
"O  c #342B1D",
"+  c #3A281E",
"@  c #2E2E25",
"#  c #3B2522",
"$  c #342B21",
"%  c #3B2C22",
"&  c #2E3826",
"*  c #363323",
"=  c #3D3424",
"-  c #3C3329",
";  c #3B392C",
":  c #4E1908",
">  c #431C14",
",  c #481C18",
"<  c #521D12",
"1  c #671604",
"2  c #741805",
"3  c #48260D",
"4  c #58280B",
"5  c #4C2014",
"6  c #4A2917",
"7  c #44231B",
"8  c #4C241B",
"9  c #442B1C",
"0  c #542815",
"q  c #54241D",
"w  c #5B231D",
"e  c #542B1C",
"r  c #5A291C",
"t  c #4C331C",
"y  c #47391B",
"u  c #53331B",
"i  c #5B341A",
"p  c #6D2707",
"a  c #662A17",
"s  c #663718",
"d  c #793B1A",
"f  c #461E22",
"g  c #432324",
"h  c #4A2324",
"j  c #422C25",
"k  c #4B2B25",
"l  c #46292A",
"z  c #4C2B2C",
"x  c #542C22",
"c  c #592925",
"v  c #443323",
"b  c #4B3323",
"n  c #433A25",
"m  c #4B3B24",
"M  c #45332B",
"N  c #4A342D",
"B  c #443A2A",
"V  c #4B3C2C",
"C  c #543422",
"Z  c #583727",
"A  c #5C3B24",
"S  c #533D2D",
"D  c #4C3532",
"F  c #443832",
"G  c #4C3B33",
"H  c #553834",
"J  c #5C3C32",
"K  c #642C23",
"L  c #672B26",
"P  c #643827",
"I  c #723826",
"U  c #643731",
"Y  c #763E33",
"T  c #3C442B",
"R  c #59421E",
"E  c #66451C",
"W  c #794816",
"Q  c #7C471E",
"!  c #4C422C",
"~  c #46482D",
"^  c #5E4424",
"/  c #54442C",
"(  c #5B442B",
")  c #5C5123",
"_  c #494636",
"`  c #4B4C35",
"'  c #554433",
"]  c #554A35",
"[  c #5C4B35",
"{  c #55453B",
"}  c #5A4539",
"|  c #544B39",
" . c #5B4C3A",
".. c #495537",
"X. c #565338",
"o. c #5B533B",
"O. c #5B5A3D",
"+. c #664827",
"@. c #6C4C24",
"#. c #774927",
"$. c #77412D",
"%. c #7A432E",
"&. c #68532C",
"*. c #795929",
"=. c #674935",
"-. c #644C35",
";. c #624C3B",
":. c #7E4631",
">. c #764935",
",. c #7D4A34",
"<. c #7C4E39",
"1. c #64533C",
"2. c #6C543C",
"3. c #67583A",
"4. c #73543D",
"5. c #7C533B",
"6. c #765839",
"7. c #76633B",
"8. c #45474A",
"9. c #5A4943",
"0. c #5D4B45",
"q. c #5C5846",
"w. c #5B565B",
"e. c #644A44",
"r. c #645343",
"t. c #6E5A42",
"y. c #685846",
"u. c #745642",
"i. c #7D5642",
"p. c #745A42",
"a. c #7B5B43",
"s. c #765B49",
"d. c #7B5C4A",
"f. c #6B5B55",
"g. c #686547",
"h. c #7D6146",
"j. c #776A45",
"k. c #73624A",
"l. c #7C644B",
"z. c #73724E",
"x. c #6A6758",
"c. c #786755",
"v. c #7A745B",
"b. c #746D68",
"n. c #842A14",
"m. c #8A3B24",
"M. c #874416",
"N. c #8C541E",
"B. c #88592A",
"V. c #9A5527",
"C. c #90502F",
"Z. c #804731",
"A. c #814832",
"S. c #814F39",
"D. c #82523B",
"F. c #885A3B",
"G. c #A15634",
"H. c #8C6A2C",
"J. c #95652A",
"K. c #896738",
"L. c #966637",
"P. c #977337",
"I. c #9C713B",
"U. c #A9732E",
"Y. c #A47937",
"T. c #835741",
"R. c #825B44",
"E. c #825E4A",
"W. c #A75943",
"Q. c #82634A",
"!. c #856649",
"~. c #8F6C4C",
"^. c #957749",
"/. c #896C53",
"(. c #827456",
"). c #9A7858",
"_. c #A4684B",
"`. c #A57A47",
"'. c #B0744D",
"]. c #927A68",
"[. c #897B77",
"{. c #A98239",
"}. c #B98A3C",
"|. c #93845D",
" X c #B58A46",
".X c #B28C4E",
"XX c #B78957",
"oX c #B89658",
"OX c #968B6C",
"+X c #85857A",
"@X c #9A8878",
"#X c #A58367",
"$X c #BA9665",
"%X c #B49473",
"&X c #BBA771",
"*X c #C48C44",
"=X c #C79745",
"-X c #C99B56",
";X c #D19A54",
":X c #CBA754",
">X c #C9A65A",
",X c #CCA55A",
"<X c #D6A959",
"1X c #C49C67",
"2X c #C9A666",
"3X c #D7A969",
"4X c #DBB568",
"5X c #C6AA74",
"6X c #D5AF75",
"7X c #D9B878",
"8X c #E5B968",
"9X c #E4BB77",
"0X c #DBC17E",
"qX c #E8C679",
"wX c #99928C",
"eX c #B2AB8D",
"rX c #A3A096",
"tX c #BAA894",
"yX c #B6AFAA",
"uX c #D5AF8A",
"iX c #D7BB86",
"pX c #C5B790",
"aX c #CEBAAE",
"sX c #C2BAB6",
"dX c #DDC282",
"fX c #DBC68C",
"gX c #DCC895",
"hX c #DDD09B",
"jX c #ECCC83",
"kX c #E7C789",
"lX c #EAD28B",
"zX c #EAD599",
"xX c #F0D292",
"cX c #D9C9A8",
"vX c #DBD2A8",
"bX c #D7CBB2",
"nX c #EAD6A6",
"mX c #E9D8A6",
"MX c #E7DBB7",
"NX c #E8E2B6",
"BX c #E9E4BC",
"VX c #F3E1B0",
"CX c #CEBFC0",
"ZX c #CDC5C3",
"AX c #D8CAC8",
"SX c #E5D9C3",
"DX c #EAE3C4",
"FX c #EBE8C3",
/* pixels */
"A.A.Z.Z.Z.%.Z.Z.Z.Z.A.A.A.A.A.A.A.A.A.A.A.A.A.Z.%.%.Z.%.Z.Z.Z.Z.A.A.A.Z.:.%.%.%.Z.Z.Z.%.Z.Z.Z.A.A.A.Z.A.A.A.Z.A.Z.%.%.%.",
"A.A.Z.:.%.%.%.Z.Z.Z.Z.A.A.A.Z.A.A.Z.A.Z.A.A.A.A.A.A.%.%.%.%.%.%.:.:.:.A.Z.Z.Z.%.%.%.%.%.%.Z.Z.Z.A.A.A.A.A.A.Z.A.Z.%.Z.%.",
"Z.A.Z.%.%.Z.Z.Z.%.%.Z.Z.A.A.A.A.Z.Z.Z.Z.A.A.,.,.A.A.A.Z.%.%.%.%.$.$.$.$.%.$.$.%.$.%.%.I %.Z.A.A.A.A.A.A.Z.A.A.A.Z.Z.Z.Z.",
":.:.Z.%.:.Z.Z.Z.Z.Z.Z.Z.A.A.Z.A.Z.Z.Z.Z.A.%.%.%.%.A.D.D.S.D.S.,.%.%.$.Y %.%.>.%.$.%.%.%.Z.A.A.A.A.A.A.A.A.A.Z.A.A.A.Z.Z.",
"%.%.%.$.%.Z.Z.Z.Z.A.A.A.A.Z.A.Z.Z.%.%.<.6.D.:.:.>.<.u.p.i.i.a.R.T.,.%.:.>.<.6.<.%.,.A.A.A.A.A.A.Z.Z.Z.Z.A.Z.Z.Z.Z.Z.Z.Z.",
"%.$.$.%.Y %.A.Z.A.A.A.Z.A.A.A.A.Z.Z.%.3.g.Q.D.d.l.y.~ - = + j G 2.E.S.a.s.g.z.5.A.%.%.A.Z.%.%.%.%.Z.Z.Z.Z.Z.Z.Z.Z.Z.Z.Z.",
"$.$.%.%.%.Z.A.A.A.A.A.A.A.Z.A.A.Z.Z.A.1...X.6.1.] B $ O # g j j G u.s.o.~ T g.s.S.%.%.%.%.%.%.%.Z.Z.Z.Z.Z.A.Z.%.%.Z.Z.%.",
"%.%.Z.A.Z.Z.A.A.Z.Z.Z.A.A.Z.Z.A.Z.A.F.6.X.= ] V % % - j g z h g l { 0.T T T z.!.D.%.%.:.Z.Z.A.Z.Z.Z.%.Z.%.I %.Y $.%.$.$.",
"A.A.%.A.Z.%.%.%.%.Z.%.Z.A.Z.%.Z.,.D.T.!.4.+ 9 7 9 N G D z h f f z z H # @ 8.v.v.a.<.:.%.Z.A.Z.A.%.%.%.%.$.$.$.$.$.$.%.%.",
"A.%.%.%.%.$.%.Z.Z.Z.Z.Z.%.%.Z.A.<.k.2.-.A 5 > # + O M D D l f f z D D # X * T T O.h.,.%.%.%.%.%.Z.%.%.%.$.$.%.%.%.%.Z.Z.",
"A.A.%.%.Z.Z.A.Z.Z.Z.%.Z.%.%.Y <.6.O.(./.4.x . . O F q.f.0.l f l H 0.b.0.M O ! z.z.3.D.,.Z.Z.Z.Z.Z.Z.Z.Z.Z.Z.Z.Z.Z.Z.Z.Z.",
"F.A.Z.A.Z.Z.Z.Z.%.%.%.%.$.$.$.5.3.~ /.).E.J , # { b.+XwX[.9.# 9.f.[.rXwXf.v r.v.v.g.D.:.%.%.Z.A.Z.Z.Z.Z.A.A.A.A.Z.Z.Z.Z.",
"A.Z.Z.Z.A.Z.%.%.Z.%.%.%.Y %.>.i.3.y &.K.R.J f H ].sXaXCXyX[._ x.rXsXZXCX[.=.j.j.z.z.F.,.%.:.:.%.%.Z.Z.Z.Z.A.A.A.Z.A.Z.Z.",
"%.%.%.%.Z.Z.Z.%.Z.A.Z.Z.%.%.R.1.~ o 3 i s q h e.].aXAXAXsXwXx.+XrXZXAXCX].@.*.) &.7.!.S.Z.Z.Z.:.%.Z.Z.Z.A.A.Z.Z.Z.Z.Z.Z.",
"%.Y Y $.$.%.%.%.Z.A.A.A.A.T.y.] V i 4 E Y Y Y Y Y W.tXtXwXw.8.w.b.[.@X%X-X`.{.H.*.&.&.6.<.A.A.A.Z.Z.Z.A.A.Z.Z.Z.Z.$.%.%.",
":.:.%.$.$.%.%.Z.Z.A.Z.A.D.p.{ S P s Q V._.W.L w w m.%X#Xy.& 8.w.w.0.).$X-X*X:X.X{.7.3.3.5.S.A.A.A.A.A.A.A.Z.Z.%.$.$.$.$.",
"Z.A.A.Z.A.A.A.%.A.A.A.S.<. .S A s m.C.'.XX_.a 1 1 n.'.'.Y   F w.9.J XX6X3X=X<X3XoXP.&.X.3.F.S.Z.A.A.A.A.A.Z.Z.Z.Z.Z.%.%.",
"A.A.Z.A.A.A.A.A.A.A.A.D.a.-.K a d V.G.Y.XX_.a 1 1 2 m.W.i.> .   o R $XiX9X:X<X3X$X|.+.= [ !.S.:.A.Z.A.A.A.A.A.A.Z.Z.Z.Z.",
"A.A.A.Z.A.A.A.A.A.A.T.u.] A a a d M.V.*X3X1X*.1 1 2 n.W._.>.a s W K.2XkX9X-X=X3X1XP.&.m ! 1.T.<.Z.Z.A.Z.Z.A.A.A.Z.Z.Z.A.",
"A.A.A.Z.A.A.A.A.A.A.Q.;.n x 5 4 4 n.U.;X8X7XI.d 1 1 2 n.G.G.J.J.H.P.oX7X,X}.}.4X2X^.@.u b S 2.6.A.A.Z.Z.Z.A.Z.Z.Z.A.A.A.",
"Z.Z.A.A.A.A.A.A.S.D.d.} l h , : 4 W  X<X4X0X2XF.s 1 2 p M.U.=X*X{.{. X.X}.U.=X8X3X`.@.e t b ] 6.F.D.%.%.Z.Z.Z.Z.A.Z.A.A.",
"%.Z.Z.A.A.A.A.A.D.h.{ G z f 8 6 E P. X:X4X4X7X.XL.C.d M.V.=X<X<X<X,X{.{.{.*X8X9X3XXX7.S 9 t A ] 4.T.,.%.%.%.%.Z.Z.Z.Z.A.",
"Z.Z.A.A.A.A.A.5.p. .G N g . 7 e W B.Y.=X4X0XqX7X1X$X'.XX3XqXqXjXqXqX<X;X;X<X8X3XXX~.j.j.2.m t C =.4.D.D.Z.Z.%.Z.Z.Z.Z.A.",
"A.A.A.A.A.S.D.2. .B v { 9.D k e a Q P.{.{..X7XfXiX7X9X9XjXjXxXxXjXqX3X<X8XqX9XXXK.&.3.l.i.2.^ C x =.2.T.F.A.Z.Z.Z.Z.A.A.",
"Z.A.Z.A.A.A.!.1.n b n c.+Xe.N q r I L.B.W *.$XiXdXkXjXjXqX0X0X0XiX7X7X7XqXqX6XP.E y X.5.T.R.4.Z c C ] y.i.A.A.A.A.A.A.A.",
"A.A.A.A.A.A.R.1.v m | +XrXq.v 8 K I Y U A E #X5X6X7XqX4X4X2X>X&X6XiXkXzXzXkXoXB.s A  .s.i.D.i.U Z z V | 4.S.A.A.Z.Z.A.Z.",
"Z.Z.Z.Z.A.A.F.2.S V ..+XrXq.= 8 w c Y c P ).uXkXiX&X2XoX>X0XfXfXgXzXmXVXzXlX7X^.#.u ' r.u.E.h.( Z N v y.E.S.A.A.Z.Z.Z.Z.",
"Z.%.Z.%.:.:.D.6.2.! ! y.v._ + . q L L a S.1XkXnXzXhXfXfXgXzXmXmXMXMXVXmXzXqXqX-XB.4 C H =.u.-.J k n  .s.T.A.Z.A.Z.Z.Z.Z.",
"A.A.A.Z.%.%.$.,.4.-.V S H N # 7 q L a a C.6XkXzXNXFXNXvXNXBXNXBXDXNXMXmXxX9X4X-XH.4 0 r J P C m ! ] s.D.,.Y %.%.Z.Z.%.Z.",
"Z.%.%.I $.$.$.$.:.i.[ / G G N k e r K a C.1X6XgXvXDXDXSXBXBXFXBXNXNXvXmXkX9X-X X*.4 0 w w r u n ) p.5.,.,.:.A.A.A.Z.Z.Z.",
"%.%.$.$.Y %.$.$.%.,.a.-.n ; M h h w L L s K.&XeXpXbXBXDXDXSXFXBXNXmXvXnXiX1XXXF.s 0 w < w r 6 1.p.5.A.A.Z.Z.A.Z.%.%.%.$.",
"%.%.%.%.Z.%.%.>.Z.A.<.5.3. .N l c L a K s +.*.7.v.%XeXcXbXSXDXNXvXpX&X%X).<.#.+.i w < K w e m 4.D.,.A.A.A.Z.Z.%.%.%.$.%.",
"%.Z.%.Z.%.%.%.:.A.:.%.<.5.p. .S k c c c c x u e ^ a.l.OXtXAXSXMXpX)./.Q.>.u u 0 e w a w , k 1.<.A.Z.Z.Z.Z.Z.Z.Z.Z.Z.%.%.",
"Z.%.Z.%.%.$.%.%.%.%.$.%.%.>.h.;.M z z f , h x x i A u ( (.aXSXbX].+.J Z C C e 0 < < w q k ' h.D.Z.Z.Z.Z.Z.%.%.%.$.%.Z.%.",
"%.$.%.%.$.$.%.%.%.A.Z.%.Y :.<.a.r.N l l g , > , 3 6 y y f.pXMXcX).u e e q 8 > : 5 8 e b [ a.5.A.Z.%.$.%.$.$.$.$.$.Y #.I ",
"$.%.%.I %.%.%.%.A.A.A.Z.%.Z.,.S.u.y.F # g f < < 3 3 y ( v.pXSXcXOXR i 0 5 > 8 7 3 9 ! o.4.5.:.%.$.$.$.$.$.$.$.$.$.%.%.%.",
"$.$.%.%.A.A.A.A.Z.A.Z.Z.A.Z.Z.A.D.a. .D f q < 0 0 ^ j.|.eXvXVXzX5X|.!.>.u 7 7 9 n / -.2.>.%.$.$.$.$.%.$.%.%.%.$.%.%.%.%.",
"$.%.A.A.Z.%.%.Z.%.%.%.%.:.<.A.Z.%.<.Q. .j 8 < 0 @.^.&XhXVXVXzXlXqXqX5X^.=.t v B  .k.>.$.%.%.$.$.$.$.$.$.%.%.%.Z.Z.Z.Z.Z.",
"$.%.%.Z.%.%.%.%.%.:.:.A.5.!.R.5.:.:.,.=.V 6 s F..X1XkXlXzXxXlXqXqXqX>XK.) X.k.k.4.<.$.$.%.%.%.:.Z.%.Z.Z.Z.Z.Z.A.Z.Z.Z.Z.",
"$.%.Z.A.A.%.Z.%.Z.Z.A.Z.<.g.O.X.3.s.5.6.-.u #..X3X7XqXqXjXjXqXqX4X:X{.&.&.s.5.<.,.%.$.%.%.A.%.,.Z.Z.Z.Z.Z.Z.Z.A.Z.Z.Z.Z.",
"%.Z.Z.Z.A.A.Z.%.Z.A.Z.:.,.3.O.....X.1.-.P 4 #.'.3X4XqXqXqXqXqX8X:X}.N.E +.a.<.:.%.%.%.Z.A.%.%.%.Z.Z.Z.Z.A.A.A.Z.A.A.Z.Z.",
"%.%.%.Z.Z.A.%.%.Z.A.A.Z.:.<.7.O.~ ; ! 6 3 4 Q L. X:X<X8X8X8X8X<X}.U.M.i A 2.<.A.%.,.Z.A.A.A.A.A.Z.Z.Z.Z.A.A.Z.%.%.%.%.Z.",
"Z.Z.%.%.%.%.%.%.:.A.A.A.A.A.,.6.a.2./ x 0 a d B.L..X,X,X;X<X-X XU.N.d a Z ;.i.<.%.%.%.%.A.A.A.A.A.A.A.A.A.A.Z.$.%.Z.%.Z.",
"%.%.$.%.$.$.%.%.%.A.A.Z.,.A.Z.S.S.<.2.c h L c s &.K.P.P.P.U.I.J.N.s a a U J ;.5.<.%.$.%.A.A.A.A.A.A.A.A.A.A.Z.Z.Z.Z.Z.Z.",
"%.$.$.$.%.%.$.%.%.Z.Z.Z.%.Z.Z.Z.S.i.} H H c e u R ) &.@.@.@.@.+.R i 0 r L H H } =.:.%.:.A.A.A.A.A.A.A.A.A.A.A.Z.A.A.A.Z.",
"Y $.$.%.Z.Z.Z.%.Z.%.%.Y %.%.%.%.T.l.G D H c J J / ) ^ +.^ R +.^ R +.P c z z G ~ o.5.%.>.Z.Z.A.A.A.Z.A.Z.A.Z.A.Z.Z.A.A.A.",
"%.%.Z.A.Z.Z.Z.Z.Z.Z.:.>.>.:.:.:.5.k.G D z h e.d.Q.R.i.5.5.D.F.D.T.a.d.;.D - - ` 2.T.>.:.:.,.A.A.Z.Z.Z.Z.Z.Z.Z.Z.Z.Z.Z.Z.",
"$.%.A.A.Z.Z.A.Z.Z.Z.D.R.l.l.j.!.R.i.s.u.9.z M r.l.!.D.<.,.,.,.A.T.E.0.D ; _ o.c././.!.Q.Q.Q.R.S.Z.Z.Z.%.Z.%.%.%.Z.Z.Z.%.",
"%.%.Z.Z.A.A.A.A.A.D.p.1.| X.] X.2.4.l.d.d.e.% B 1.!.S.A.A.A.S.D.i.r.G ; 9.c.v.(.k.2.[ -.} ] X.4.D.Z.A.Z.:.%.$.%.Z.Z.Z.Z.",
"%.Z.Z.Z.Z.Z.Z.A.5.6.r.; X * O n ' r.q.s.d.f.j o ! h.D.A.A.A.5.a.r.G l l 0.b.v.f. .V 9 9 9 + - q.i.S.A.A.:.%.%.:.Z.Z.Z.A.",
"Z.A.Z.Z.%.%.Z.Z.4.q._ * O % % N ! V = F _ G + + ~ o.5.D.A.,.h.X._ - O # F ` ; * n } J x g + $ ; q.h.A.A.A.:.:.A.A.Z.Z.Z.",
"Z.A.Z.%.%.%.%.:.1.T T @ $ O j m V v % * - % $ X * T O.>.Z.,.q.T @ @ + + % M - O * V G v + $ X & X.k.,.A.A.A.A.A.A.%.%.Z.",
"Z.A.Z.%.%.Z.A.A.>.O...| { ] ;.1.;.] { | { { { | | ..g.4.Z.>.g.....`  .{ } }  .{ ]  .1.} { | ` ..y.h.A.Z.Z.Z.A.A.A.%.%.A.",
"Z.Z.%.%.Z.Z.A.A.<.p.t.p.s.u.p.6.4.4.u.p.p.u.u.s.p.p.s.5.Z.,.p.g.2.2.p.u.i.u.6.p.p.p.p.u.p.p.u.6.6.5.:.%.:.:.Z.A.A.Z.%.A.",
"%.%.$.$.%.Z.A.A.A.A.A.A.A.,.Z.Z.>.%.$.$.%.%.%.%.>.%.,.:.%.%.%.%.%.%.:.,.A.A.A.A.,.A.A.A.,.A.%.%.>.A.Z.A.Z.Z.A.A.A.Z.%.A.",
"$.$.$.$.%.%.A.A.A.A.A.A.A.%.A.A.Z.Z.%.%.$.%.$.%.$.$.%.%.I %.I %.$.%.:.A.A.A.A.A.A.A.A.A.A.Z.Z.Z.,.A.A.A.A.A.Z.A.A.A.A.%.",
"%.%.%.%.Z.Z.A.A.A.Z.Z.Z.%.$.%.A.Z.Z.A.Z.%.%.%.%.%.Y $.$.%.%.%.%.%.:.A.A.A.A.A.A.A.A.A.A.Z.A.A.A.Z.A.A.Z.A.Z.Z.A.A.%.A.A.",
"Z.Z.A.Z.Z.Z.Z.Z.Z.Z.Z.%.$.$.%.I %.%.Z.Z.A.A.S.A.%.%.$.$.%.Z.Z.Z.,.:.A.A.%.Z.Z.Z.Z.Z.Z.Z.Z.Z.A.A.A.A.Z.Z.:.%.%.%.%.%.%.%.",
"Z.:.%.%.%.>.%.%.Y Z.Z.%.%.$.%.%.I %.%.%.%.%.A.A.%.$.$.$.Z.Z.Z.%.%.%.%.%.%.%.:.%.Z.Z.%.Z.Z.Z.Z.Z.Z.Z.%.%.%.$.I %.$.$.%.$.",
"Z.%.$.%.$.%.:.Z.Z.A.A.Z.Z.Z.%.%.%.%.%.%.%.%.%.A.Z.$.$.$.Z.Z.Z.$.%.%.%.%.,.A.A.A.Z.Z.Z.%.%.%.%.%.%.%.%.%.$.%.%.%.$.$.$.$."
};
