/* XPM */
static char *result[] = {
/* columns rows colors chars-per-pixel */
"60 60 243 2 ",
"   c #050301",
".  c #0C0302",
"X  c #0B0D06",
"o  c #110302",
"O  c #140B04",
"+  c #140A0B",
"@  c #1A0808",
"#  c #1B170B",
"$  c #181812",
"%  c #210C06",
"&  c #280C07",
"*  c #23120A",
"=  c #27160A",
"-  c #351A09",
";  c #260D12",
":  c #281715",
">  c #361716",
",  c #1C2007",
"<  c #3A250D",
"1  c #282918",
"2  c #37281A",
"3  c #36361B",
"4  c #2E2D22",
"5  c #3D2423",
"6  c #352D24",
"7  c #3B2924",
"8  c #2E3C23",
"9  c #2D3826",
"0  c #393625",
"q  c #491F08",
"w  c #431D1B",
"e  c #461E18",
"r  c #581E13",
"t  c #4C280D",
"y  c #59270C",
"u  c #5C320B",
"i  c #422315",
"p  c #4B2415",
"a  c #482B14",
"s  c #45231D",
"d  c #4C251C",
"f  c #432C1B",
"g  c #4B2A1D",
"h  c #5A2513",
"j  c #542C13",
"k  c #55241C",
"l  c #5B231B",
"z  c #54291B",
"x  c #582A18",
"c  c #473319",
"v  c #563618",
"b  c #5A311A",
"n  c #642B0F",
"m  c #642514",
"M  c #652912",
"N  c #692A17",
"B  c #632C1B",
"V  c #663618",
"C  c #753916",
"Z  c #421D20",
"A  c #4C2523",
"S  c #452B23",
"D  c #432826",
"F  c #4B2B23",
"G  c #4B2B29",
"H  c #542522",
"J  c #5A2522",
"K  c #532B23",
"L  c #5B2D24",
"P  c #532B2A",
"I  c #463626",
"U  c #4E3424",
"Y  c #4B342A",
"T  c #413D2B",
"R  c #4B3A2C",
"E  c #543324",
"W  c #5A3627",
"Q  c #523A26",
"!  c #52342C",
"~  c #523B2C",
"^  c #4D2C30",
"/  c #532F31",
"(  c #463832",
")  c #533632",
"_  c #5B3733",
"`  c #543D33",
"'  c #622926",
"]  c #642C2A",
"[  c #673526",
"{  c #692E31",
"}  c #633235",
"|  c #3A4629",
" . c #3D4A30",
".. c #52481F",
"X. c #69451D",
"o. c #7E461A",
"O. c #47442B",
"+. c #56472A",
"@. c #484436",
"#. c #4D4B34",
"$. c #544533",
"%. c #534A34",
"&. c #5B4B34",
"*. c #554839",
"=. c #5C4C3D",
"-. c #4C5334",
";. c #5C523C",
":. c #58583D",
">. c #64462B",
",. c #77412D",
"<. c #7A432E",
"1. c #774B2A",
"2. c #695526",
"3. c #7B542A",
"4. c #725B28",
"5. c #6D4A32",
"6. c #674938",
"7. c #644C3B",
"8. c #694C3C",
"9. c #764630",
"0. c #7E4630",
"q. c #724B35",
"w. c #7C4A34",
"e. c #744E39",
"r. c #7B4E39",
"t. c #6C5735",
"y. c #62533C",
"u. c #6C543D",
"i. c #63583D",
"p. c #6D5A3D",
"a. c #795633",
"s. c #735D34",
"d. c #75533C",
"f. c #7C523C",
"g. c #75593E",
"h. c #7C5A3C",
"j. c #686423",
"k. c #766332",
"l. c #786635",
"z. c #574C40",
"x. c #5C5442",
"c. c #5A5B44",
"v. c #645343",
"b. c #6C5444",
"n. c #6B5B47",
"m. c #735B44",
"M. c #755845",
"N. c #7C5B43",
"B. c #7C5D4B",
"V. c #6B5D51",
"C. c #696345",
"Z. c #776246",
"A. c #7B634C",
"S. c #6D6152",
"D. c #796456",
"F. c #82511C",
"G. c #8B521A",
"H. c #A4731D",
"J. c #885627",
"K. c #845A2D",
"L. c #91572D",
"P. c #804731",
"I. c #814832",
"U. c #814E38",
"Y. c #82543C",
"T. c #855A38",
"R. c #896529",
"E. c #9E6523",
"W. c #876635",
"Q. c #976737",
"!. c #9A773C",
"~. c #A66D2D",
"^. c #A5742B",
"/. c #A97539",
"(. c #B27838",
"). c #835A41",
"_. c #865A45",
"`. c #856347",
"'. c #83614B",
"]. c #887246",
"[. c #9B7845",
"{. c #91724F",
"}. c #846552",
"|. c #937B57",
" X c #AA7844",
".X c #AD7051",
"XX c #B48428",
"oX c #AE873E",
"OX c #BE9136",
"+X c #C8973F",
"@X c #9F824A",
"#X c #A98642",
"$X c #B78844",
"%X c #BB9749",
"&X c #A98656",
"*X c #B78854",
"=X c #B79359",
"-X c #9D8360",
";X c #AA8E62",
":X c #B7936C",
">X c #B7A173",
",X c #CA914A",
"<X c #C89948",
"1X c #D19B4A",
"2X c #C79A59",
"3X c #C9A14C",
"4X c #D4A44B",
"5X c #D6A849",
"6X c #C6A256",
"7X c #D9AA56",
"8X c #DDB656",
"9X c #E1AA56",
"0X c #E5B65D",
"qX c #E6BA59",
"wX c #C39F62",
"eX c #C9A767",
"rX c #D6A968",
"tX c #D9B46B",
"yX c #C8A776",
"uX c #DDB775",
"iX c #E6BA64",
"pX c #E4BB6B",
"aX c #E3B976",
"sX c #E5BC74",
"dX c #E7C25D",
"fX c #DEC77D",
"gX c #E6C263",
"hX c #EAC464",
"jX c #E6C36C",
"kX c #EAC16B",
"lX c #E4C374",
"zX c #E3C47A",
"xX c #E8C778",
"cX c #E7D07C",
"vX c #BFA480",
"bX c #D9BC8B",
"nX c #DEC787",
"mX c #E3CC83",
"MX c #E5CA88",
"NX c #E9D387",
"BX c #F2D285",
"VX c #E5C995",
"CX c #E7D593",
/* pixels */
"I.I.I.P.P.P.P.P.I.P.I.P.I.I.I.I.P.I.I.P.I.I.I.P.<.P.P.<.P.P.P.P.0.0.I.0.0.0.<.0.0.0.0.0.P.I.I.I.I.I.P.P.I.I.I.P.P.<.<.P.",
"I.I.P.<.,.,.<.<.P.P.P.I.I.I.I.P.I.I.I.I.I.I.I.I.I.P.<.<.<.<.<.<.0.0.0.I.0.0.0.0.<.<.,.,.<.I.I.I.I.I.I.I.I.I.I.P.<.<.P.<.",
"P.I.P.<.<.P.I.P.<.<.P.P.P.I.P.I.P.P.P.P.P.P.P.P.P.P.P.<.<.<.<.<.,.<.<.,.w.<.<.<.,.,.<.<.<.I.I.I.I.I.I.I.I.I.I.I.P.P.P.P.",
"0.0.P.0.<.P.I.I.P.P.P.P.I.I.I.I.P.P.P.P.<.<.<.<.P.P.P.P.P.P.<.<.<.w.w.w.w.9.9.w.r.r.r.r.I.Y.Y.r.r.f.U.U.I.I.P.I.I.I.P.I.",
"<.0.<.,.<.P.I.I.P.I.I.I.I.I.I.I.P.C { I.I.I.<.<.,.,.<.0.P.I.U.U.Y.f.d.f.e.r.0.r.).N.T.Y.Y.).B.y.:.;.p.Y.I.I.I.I.I.I.I.P.",
",.,.,.,.,.<.I.I.I.I.I.P.I.I.I.I.I.I.I.I.I.I.<.<.,.,.,.,.<.<.I.I._.*.8 8 | *.B.V.&.| -.Z.a.;.+.$.W +.7.p.Y.I.I.I.P.I.I.I.",
",.,.,.,.<.P.I.I.P.I.I.I.I.I.I.I.I.I.I.I.I.P.P.P.I.0.<.0.0.0.I.Y.A. .9 | = : ( *.( | -.p.q.v.O.Q z L W &.m.Y.0.<.<.<.P.<.",
"<.P.P.I.P.P.I.I.P.P.I.I.I.P.I.I.I.I.I.I.I.I.P.P.P.P.0.0.d.d.N.N.*.1 9 T # # ^ ^ I 0 O.p.r.h.7.c 2 p g Q &.u.f.0.,.<.<.<.",
"I.P.0.0.I.0.<.0.<.P.P.P.P.P.P.I.P.I.P.P.P.I.<.,.,.,.<.r.p.#.v.c.3 , , < = 5 ^ ^ ` *.;.B.Y.Y.B.&.+.E d K E +.p.w.,.<.<.<.",
"I.0.,.,.,.,.,.0.0.0.0.0.<.P.<.<.P.<.P.<.<.<.,.,.<.0.r.M.x.0 T 3 O.+...2 i P P _ B._.B.M.e.d.).M._.6.L J W g $.e.w.,.P.<.",
"I.P.0.<.0.P.I.I.P.0.0.0.<.<.,.<.[ P.<.<.,.,.<.<.r.d.d.g.v.6 c v ].=X|.f.z d H 8._.b.` ` ` ` b.$.~ _ ] ] { E c d.U.P.I.I.",
").I.P.P.P.P.P.I.0.0.,.,.,.,.,.<.<.<.<.<.<.<.<.I.'.%.3 2 S f b W..X[.J.x k k H H P / ) ) ) D 6 7 ) P J ] ] L R m.U.I.I.I.",
"P.P.I.I.I.P.<.<.P.0.9.[ P.<.[ P.<.<.P.P.I.0.I.I.'.=.2 A z L I.*X&X5.- - k J J ' L A Z 5 5 : $ 4 2 Z J { { ' K %.q.I.I.I.",
"[ <.I.I.P.P.0.0.P.P.I.0.P.P.P.P.P.P.P.P.I.0.0.Y.}.b.! p h C .X.XT.i % > A J l ' k > ; ; + X X $ D / } } { ' J O.5.0.P.<.",
"I.[ I.[ C { I.<.0.I.I.I.P.P.P.P.P.P.P.P.<.<.w.&.7.` K L 0.L..Xf.e @ @ > A H J l J P D Z ; . X $ 5 G D 2 w e H #.5.,.<.,.",
"I.P.P.<.0.0.I.0.0.I.I.P.P.P.P.P.P.P.P.P.0.f.h.R T F A V W.&X[.c @ . @ > F k J r J P G 5 : .   X : : ; @ & w F #.5.,.,.,.",
"P.P.I.P.P.I.P.P.I.I.I.I.P.<.P.<.<.<.P.I.r.Z.p.j.3 a p V Q.&X2.= . o ; Z A H A w > > = : @ .     O + . . @ s S #.q.<.<.<.",
"I.I.I.I.I.I.P.I.I.P.I.I.P.P.,.,.<.P.P.I.a.p.C.A.a.b j 1.=X@Xc O   + : A A A Z ; o . . .         . .   . % A D *.q.P.P.P.",
"I.I.P.I.I.I.I.I.P.I.I.P.P.P.<.<.P.P.I.P.w.Z.|.:X:X`.[ a.>X!.- . . + : d G Z ; o     . . . O O + O o . . * s S #.q.I.I.P.",
"P.I.I.I.I.P.P.I.I.I.I.I.P.I.P.P.P.P.P.P.w.g.i.].&X_.[ 3.eX!.< O . ; Z G w > @ o . O # < a ..+.+.E 2 * O = s S #.q.I.I.I.",
"P.P.P.P.I.I.I.I.P.P.P.I.P.P.P.I.P.I.I.<.P.0.>.v b j j a.rX&X..& @ ; A S > & @ = 2 &.B.|.;XvX>X>X>X-Xb.I 2 i S %.q.I.I.I.",
"P.P.P.P.P.I.P.P.P.P.P.P.P.P.P.I.I.P.I.<.P.r.&.v b b v W.tXwX4.t & > F f - - c Z.-XyXbXVXbXVXCXnXVXnXyX{.[ k g $.5.I.I.I.",
"P.I.I.I.I.I.P.P.P.[ <.P.<.P.P.I.I.I.P.<.U.M.Q g L [ v K.eXtX&XX.i e a a >.W.&XyXbXVXVXVXbXnXnXfXzXMXnX&Xq.h d $.q.0.I.I.",
"I.I.I.P.P.P.P.P.P.P.P.P.P.P.P.I.I.P.P.<.r.m.I g L [ [ 1.=XuXeXh.b p a 2.@XeXzXMXMXaXrXwX*X*X$X%X7XuXeX@XX.y g %.q.P.I.I.",
"I.I.P.P.P.P.I.P.P.P.I.I.I.I.I.I.I.I.I.U.r.v.^ A J ] [ V Q.eXyXf.b j X.!.tXtX8X3X<X$X X~.E.~.G.E.(.$X X3.t p f %.q.P.I.I.",
"P.I.P.P.I.I.I.I.I.I.I.I.I.P.P.P.P.P.P.U.B.*.G H l L { C C [.{.[ y X.!.rX8X+XOXXXH.E.~.~.~.(.~.E.G.o.C b t p f $.q.I.I.I.",
"P.P.P.P.P.P.I.P.I.I.P.P.P.I.I.<.0.[ [ Y.b.G A J r J ' [ B b k z j K.2XtX%XH.XXXX+X+X,X,X,X,X/.o.M h h k H z F $.q.P.I.I.",
"P.P.<.P.P.P.P.P.P.P.P.P.<.[ <.<.0.P.9.r.m.D A J r r m [ [ ' k h M [.eX7X4XOX5X5X9X8X9X9X1X(.F.V k d G G G ! I %.q.I.I.I.",
"I.P.P.0.<.<.<.<.,.<.<.,.,.,.,.,.[ P.0.r.b.G J r B B y y B l l y V #XtX9X8XqXdXdXdXqX9X1X$XF.u p A 7 ( z.*.n.e.d.w.0.<.<.",
"0.<.,.0.[ P.<.<.,.,.,.<.0.<.<.<.I.I.U.b.I A l B P.Q.K.u y q y n J.2XaXiXkXdXdXdXqX5X+X+XR.u t v z.v.v.e.e.f.U.I.I.I.I.I.",
"9.[ [ P.[ 9.<.C <.<.<.P.P.<.<.,.,.9.U.u.5 A l N L.2X*XQ.K.K.K.W.*XtXlXsXjXgXdXdX8X3X3XoX2.2.5.e.M.N.f.I.P.P.I.P.I.<.{ 9.",
"P.I.0.P.I.0.0.0.I.I.<.<.P.I.P.<.<.,.r.8.Z J m N Q.wXaXeXwXeXeXeXsXxXsXjXkXgXdX8X5X3XoXl.t.A._._.I.P.I.I.I.P.0.0.<.<.0.0.",
"P.<.P.P.P.0.0.0.0.0.,.<.P.I.P.P.P.0.r.8.2 r m C (.rXsXsXnXnXmXmXBXxXkXjXgXdX8X8X3XoXl.s.`.U.P.P.P.P.P.P.P.P.P.P.P.P.<.<.",
"P.P.I.[ <.,.,.,.<.0.,.,.,.,.0.P.P.I.).M.2 k n C (.7XiXxXmXCXCXCXBXcXjXhXdXqX5X3XoXl.l.).w.P.I.I.P.P.P.P.P.<.<.,.,.<.<.P.",
"P.I.P.[ ,.,.,.,.,.I.0.,.,.,.,.,.I.P.U.u.2 x M C (.iXkXxXmXCXCXmXcXlXhXdX8X5X3X#X4.k.Y.I.P.P.P.P.P.<.,.,.,.,.,.,.,.,.,.,.",
"C [ <.I.,.,.,.0.I.I.I.P.P.0.0.0.I.[ ).p.6 p n F.2XiXxXxXNXCXCXMXcXjXgXqX5X4X#X4.l.h.r.<.0.0.0.<.,.,.,.,.,.,.,.,.,.,.,.,.",
"0.0.,.0.I.I.I.P.P.P.P.P.P.P.P.P.P.P.U.N.y.z M L.2XpXxXBXNXCXCXMXzXpX0X5X1XoXk.k.a.0.P.[ ,.,.,.,.,.,.,.,.<.<.,.,.<.<.C 0.",
"0.{ I.I.0.0.0.0.0.<.<.9.0.0.0.0.f.Y.Y._.B.x M J.7XlXcXNXmXBXMXxXkX0X7X1X#XR.k.d.0.<.<.<.,.,.,.,.,.,.,.<.<.<.<.P.P.P.P.P.",
"0.<.I.I.,.,.,.,.<.0.I.I.I.0.P.0.d.i.p.'.B.z N F.2XaXmXmXmXNXlXkX0X7X1X$XW.t.g.<.,.,.<.<.<.1.<.P.P.0.P.P.P.P.P.P.P.P.P.P.",
",.0.0.I.P.0.0.0.P.P.I.P.0.0.,.0.p.-.-.S.b.s N C ,XuXaXfXmXBXjXgX7X4XOXW.4.h.9.<.,.,.P.[ <.0.P.P.P.P.P.P.P.P.P.P.P.P.J.P.",
"[ P.I.I.P.P.<.0.P.P.P.P.,.,.,.,.f.i.#.#.` s l C .XrXzXzXNXcXjX8X5X<X^.4.`.w.0.0.0.0.0.0.0.0.9.0.<.P.I.I.I.I.P.P.P.I.P.P.",
"I.<.P.I.P.P.P.P.P.P.I.P.P.<.0.<.0.5.%.T 2 i k V .XrXsXlXcXcXgX5X4X$XR.2.T.0.0.0.0.0.0.0.I.I.P.P.P.P.I.I.I.I.P.P.<.<.<.P.",
"I.I.I.I.[ P.<.0.0.P.I.I.P.P.P.P.P.Y.M.&.Y s g b J.*XrXpXgXjX0X<X,XQ.3.h.f.0.<.<.,.,.,.0.P.I.P.P.I.I.I.I.I.I.P.,.<.P.<.P.",
"C P.[ <.<.<.P.[ <.I.I.P.P.I.I.I.P.P.Y.N.$.F z a v J.#X%X%X6X2XoXJ.X...+.N.w.<.,.,.,.,.0.I.I.P.P.I.I.I.I.I.I.P.P.P.P.P.P.",
"0.<.<.<.9.[ P.P.0.I.0.P.P.I.I.I.I.I.Y.M.=.! A i i c X.j.j.j.j...j a c R 7.g.<.,.,.,.,.0.I.I.I.I.I.I.I.I.I.P.P.P.I.I.I.I.",
"{ I.,.0.0.0.I.I.0.0.,.,.[ P.<.P.I.I.Y.M.O.Y F R >.5.q.4.s.s.s.t.7.Q S Y O.i.9.,.,.,.,.,.P.I.I.I.P.P.I.P.P.I.I.P.I.I.I.I.",
",.,.0.I.P.P.P.P.0.0.0.,.9.0.U.Y.Y.I.Y.h.*.R S 8.f.f.f.Y.Y.Y.).Y._.v.( T *.b.0.r.Y.r.r.w.<.P.P.P.P.P.P.P.P.P.P.P.P.I.P.P.",
",.0.I.I.P.I.I.I.I.I.P.P.w.f.u.u.u.d.).`.D.=.R v.d.w.<.<.<.P.P.I._.n.*.( M.'.).N.p.u.d.N.U.P.I.I.P.P.P.P.<.<.P.<.P.P.<.<.",
",.0.I.I.I.I.I.I.I.I.I.I.N.m.0 0 0 ;.m.A.}.}.z.@.v.d.w.0.I.0.U.U._.z.@.V.}.D.m.c.| 3 O.:.).U.P.P.I.I.P.P.0.<.<.<.P.P.P.P.",
"0.0.0.I.0.I.P.I.I.I.U.Y.m.*./ P ) ~ U Q 7.V.S.( @.c.h.I.I.I.I.d.:.c.c.V.v.` Q Q U U c O.:.N.U.I.I.P.P.I.P.1.<.<.P.I.P.P.",
"0.I.I.0.<.0.0.P.0.0.Y.Z.*.S D D ! F F E Y R @.7 4 | ;._.I.I.w.C. .8 8 @.` K K E b f 2 3 | :.a.U.I.P.I.I.P.P.P.P.I.P.<.P.",
"I.I.0.0.,.,.0.<.0.0.).C.T 7 2 5 G S f c S D 0 6 6 8 :.T.I.P.w.C. .8 0 S S A F g S 2 2 9 |  .h.I.I.I.I.I.I.I.I.P.P.P.<.P.",
"P.P.P.0.0.I.I.P.<.<.Y.A.v.;.x.=.z.;.;.7.y.;.y.z.;.x.d.r.0.0.I.d.c.x.7.v.6.6.8.6.8.z.;.c.c.:.Y.I.I.I.P.P.P.I.I.I.I.P.<.P.",
"0.0.<.0.<.I.I.I.P.P.Y.Y.d.d.d.f.f.e.f.r.d.d.f.f.f.f.r.0.0.P.P.I.r.e.r.r.r.M.r.r.f.h.d.d.g.h.0.<.<.<.<.<.<.P.I.I.I.P.<.P.",
",.,.,.,.,.0.I.I.I.I.I.I.U.I.I.I.<.,.,.<.<.<.9.0.0.0.0.<.0.,.,.,.,.,.0.I.I.I.I.I.I.I.I.I.0.w.<.<.P.P.P.I.P.P.I.I.I.P.<.P.",
",.,.,.,.,.0.I.P.I.I.I.I.I.<.I.I.I.P.<.<.,.<.P.[ ,.,.,.,.,.,.,.,.,.,.9.I.I.I.I.I.I.I.I.P.I.P.P.P.P.I.I.I.I.I.I.P.I.P.P.P.",
",.9.<.P.P.P.I.I.I.P.P.P.I.P.P.P.P.I.I.I.<.P.,.<.,.,.,.,.,.,.<.<.,.0.P.I.I.I.I.P.I.I.I.I.I.I.I.I.I.I.I.I.P.P.P.I.P.P.P.P.",
"I.I.P.P.P.I.I.P.P.P.P.<.[ <.[ P.,.<.P.I.I.I.I.I.<.,.,.,.<.I.I.I.P.P.I.I.P.P.P.P.P.P.P.P.I.I.I.I.I.I.P.P.<.P.<.<.<.<.,.<.",
"I.I.[ I.P.<.[ P.[ P.P.<.[ I.<.<.,.<.<.<.<.<.I.P.<.,.,.<.I.I.I.<.<.<.<.<.,.,.0.P.0.P.0.<.P.P.P.P.P.P.P.<.,.,.,.,.,.,.,.,.",
"I.I.[ P.<.I.I.I.I.I.I.P.P.P.P.I.<.<.<.<.<.<.<.<.<.,.,.<.I.I.<.<.,.,.<.0.0.P.I.I.P.P.P.0.<.<.,.<.<.P.P.[ ,.,.,.<.,.,.,.,."
};
