/* XPM */
static char *result[] = {
/* columns rows colors chars-per-pixel */
"60 60 247 2 ",
"   c #351C14",
".  c #391C1B",
"X  c #2B2417",
"o  c #352319",
"O  c #3B231C",
"+  c #342B1D",
"@  c #3A2A1D",
"#  c #2B341C",
"$  c #33311D",
"%  c #3D1C20",
"&  c #2C2A23",
"*  c #3A2525",
"=  c #332C23",
"-  c #3C2C23",
";  c #3B2D2A",
":  c #3D3324",
">  c #363828",
",  c #343731",
"<  c #4D1D13",
"1  c #481D17",
"2  c #4E290F",
"3  c #482717",
"4  c #45241C",
"5  c #4C2B1C",
"6  c #572417",
"7  c #552C16",
"8  c #5B2C14",
"9  c #53241E",
"0  c #542C1D",
"q  c #5B2B1C",
"w  c #49331C",
"e  c #54341C",
"r  c #5C331C",
"t  c #573918",
"y  c #5B391B",
"u  c #652E0E",
"i  c #642C1C",
"p  c #682B18",
"a  c #66371A",
"s  c #773A19",
"d  c #481D21",
"f  c #4C2224",
"g  c #472827",
"h  c #4B2C24",
"j  c #532422",
"k  c #5A2423",
"l  c #522D24",
"z  c #5B2C23",
"x  c #582B29",
"c  c #413225",
"v  c #4C3324",
"b  c #493A23",
"n  c #43332B",
"m  c #4A332B",
"M  c #453B2C",
"N  c #4C3B2B",
"B  c #533323",
"V  c #5A3323",
"C  c #523B23",
"Z  c #5D3A24",
"A  c #55352A",
"S  c #5C332A",
"D  c #523B2D",
"F  c #5B3A2C",
"G  c #592D31",
"H  c #493832",
"J  c #4D3D31",
"K  c #563934",
"L  c #652A25",
"P  c #643423",
"I  c #683929",
"U  c #7A3A26",
"Y  c #653D35",
"T  c #384428",
"R  c #5D471E",
"E  c #6C4519",
"W  c #72471A",
"Q  c #73501F",
"!  c #4B422D",
"~  c #474828",
"^  c #5C4525",
"/  c #53432D",
"(  c #594629",
")  c #5C5229",
"_  c #444334",
"`  c #4D4333",
"'  c #494937",
"]  c #554431",
"[  c #5C4334",
"{  c #544B35",
"}  c #5B4A35",
"|  c #564A3C",
" . c #5B4A3B",
".. c #4C5435",
"X. c #5D5335",
"o. c #55553A",
"O. c #5C523C",
"+. c #664727",
"@. c #784925",
"#. c #77412D",
"$. c #7A432E",
"%. c #625225",
"&. c #7A5527",
"*. c #674A36",
"=. c #694C33",
"-. c #634E3C",
";. c #7E4630",
":. c #754934",
">. c #7C4A34",
",. c #7D4E38",
"<. c #635336",
"1. c #63533C",
"2. c #6B533A",
"3. c #6A5738",
"4. c #755534",
"5. c #74543D",
"6. c #7C533C",
"7. c #745C3B",
"8. c #7C5B3D",
"9. c #7D622C",
"0. c #786737",
"q. c #443D41",
"w. c #5C4C41",
"e. c #495943",
"r. c #595541",
"t. c #5B5B42",
"y. c #5A5755",
"u. c #644F45",
"i. c #615342",
"p. c #645B45",
"a. c #6C5B44",
"s. c #6A5749",
"d. c #755541",
"f. c #795542",
"g. c #755C43",
"h. c #7B5A42",
"j. c #7B5E4B",
"k. c #6C5D55",
"l. c #5B6448",
"z. c #666248",
"x. c #7B6245",
"c. c #73644A",
"v. c #79674C",
"b. c #7C654C",
"n. c #7C6956",
"m. c #716B5A",
"M. c #665E60",
"N. c #6E6A67",
"B. c #756863",
"V. c #7A7769",
"C. c #8A511B",
"Z. c #884B22",
"A. c #8F5828",
"S. c #804731",
"D. c #814832",
"F. c #824E39",
"G. c #82523B",
"H. c #845938",
"J. c #93682E",
"K. c #856537",
"L. c #9A6835",
"P. c #8C7339",
"I. c #95763B",
"U. c #A87739",
"Y. c #B47F37",
"T. c #825641",
"R. c #855A43",
"E. c #825E48",
"W. c #84634A",
"Q. c #836848",
"!. c #8B734D",
"~. c #997444",
"^. c #866B56",
"/. c #86715A",
"(. c #94785A",
"). c #A77E4B",
"_. c #B57F42",
"`. c #83786F",
"'. c #987964",
"]. c #A07F6A",
"[. c #AC864C",
"{. c #B78849",
"}. c #BC974F",
"|. c #A88954",
" X c #B58E56",
".X c #BA9358",
"XX c #998367",
"oX c #948979",
"OX c #A98866",
"+X c #AA9367",
"@X c #BD9765",
"#X c #AF9374",
"$X c #BFA368",
"%X c #C6924A",
"&X c #C99C57",
"*X c #CBA55B",
"=X c #D4A458",
"-X c #C39C60",
";X c #C9A96B",
":X c #D0AC6E",
">X c #DBB368",
",X c #D8B673",
"<X c #E2AF66",
"1X c #E5B969",
"2X c #E4B770",
"3X c #DFC77E",
"4X c #E9C76E",
"5X c #EAC373",
"6X c #E7C779",
"7X c #E8D27C",
"8X c #8E8B86",
"9X c #AE9687",
"0X c #A59C96",
"qX c #B9A486",
"wX c #ABA59B",
"eX c #BAB095",
"rX c #B5ADA6",
"tX c #C3AF8A",
"yX c #CBB787",
"uX c #DAB988",
"iX c #C3B794",
"pX c #D5B894",
"aX c #CFBBA5",
"sX c #DAC786",
"dX c #D2C995",
"fX c #DCCA9B",
"gX c #DDD49C",
"hX c #E9CA86",
"jX c #E4D28C",
"kX c #E9D58A",
"lX c #E5CD98",
"zX c #E7D695",
"xX c #E4D39B",
"cX c #F0D191",
"vX c #E6E09E",
"bX c #D8CCA4",
"nX c #D7CFAD",
"mX c #CEC3BC",
"MX c #E6CCA3",
"NX c #E5D6A6",
"BX c #E5DCB4",
"VX c #E4DDBB",
"CX c #E6E2A7",
"ZX c #E4E3B9",
"AX c #D4CCC8",
"SX c #E5E5C4",
"DX c #E4E5C8",
/* pixels */
"D.D.D.S.S.S.S.S.S.S.D.S.D.D.S.D.D.D.D.D.S.D.S.S.;.;.S.$.S.D.D.S.S.D.S.S.S.$.$.$.S.S.S.S.D.D.D.D.D.D.S.D.D.D.D.D.S.;.:.;.",
"D.D.S.;.#.#.S.$.S.S.S.D.S.D.D.D.D.D.D.D.S.S.D.D.S.S.$.:.U :.U S.S.S.S.S.S.S.S.S.$.$.#.U U S.D.D.D.D.D.D.D.D.D.S.>.U U ;.",
"S.D.S.$.$.S.S.$.$.$.S.S.D.S.D.D.S.S.S.S.S.S.S.;.S.S.S.;.:.$.:.U $.#.#.$.#.#.#.$.#.#.#.#.:.S.D.D.D.D.D.D.D.D.D.D.S.S.S.S.",
";.;.S.$.S.S.D.D.S.S.S.S.D.D.D.S.S.S.S.S.;.;.$.;.;.S.D.D.D.>.;.;.#.#.#.#.#.#.#.#.#.#.#.:.;.D.D.D.D.D.D.D.S.D.D.S.D.D.D.D.",
";.$.$.#.#.S.S.S.D.D.S.D.D.D.D.D.S.U $.,.F.$.#.#.#.>.G.R.R.R.R.R.F.S.#.#.#.>.>.$.S.;.S.S.S.S.D.D.S.S.D.D.D.S.S.S.D.D.D.S.",
"#.#.#.#.#.$.D.D.S.D.D.D.D.D.D.D.S.S.>.7.x.8.,.,.6.d.} K K / / -.f.G.F.6.g.a.3.D.D.$.S.S.S.;.U $.;.S.S.S.S.S.S.S.S.S.D.D.",
"#.#.#.#.$.S.D.D.S.D.D.D.D.D.D.D.D.D.D.c.z.2.f.g.g.| : + * = = c -.f.x.c.O.e.X.D.S.$.#.#.U :.$.S.;.;.>.;.>.D.;.$.>.:.;.>.",
"$.S.S.S.D.S.D.D.S.S.D.D.D.S.D.D.D.D.F.v...T O.O.: o O f f f h h c  .t.T # T X.F.D.$.$.S.>.S.D.D.S.S.;.>.U U :.U U :.U U ",
"D.D.;.S.D.;.:.:.;.;.S.S.S.S.S.D.D.F.G.^.1.b $ w c m K G x d d d g K K ; $ o.v.T.>.:.#.#.;.;.S.;.;.U $.$.U :.U U U :.U :.",
"D.$.#.#.:.U U ;.;.;.;.;.$.S.$.$.,.T.=.d.( w @ @ * - m H g d d f g G n = X M { X.g.,.;.;.#.;.;.;.;.;.$.$.:.U :.:.;.;.;.;.",
"D.S.;.$.;.D.D.D.S.>.S.U :.#.U :.:.3.a.j.*.5   O o M y.u.q.g g g K s.s.! X $ ~ t.z.h.F.S.S.S.S.S.D.S.>.;.D.;.D.D.D.;.D.D.",
"G.D.S.D.D.D.D.D.;.>.U ;.#.#.#.>.=.| /.'.^.I O o n B.0X0XB.q.* K k.9X0X`.` ! p.V.z.b.G.;.;.#.;.S.S.S.D.D.D.D.D.D.D.D.D.D.",
"D.D.S.S.S.S.:.U ;.;.U :.U :.#.,.*.` s.'.^.+.v m N.rXAXAXwXM.H k.wXAXAXrXz.<.n.XXn.Q.G.$.:.S.U ;.;.;.;.D.D.S.D.D.D.D.S.D.",
"#.;.#.:.;.S.;.>.S.D.D.;.;.;.G.g.} O h I E t e [ 8XmXAX0XrX8XM.V.wXwXwXmXn.=.4.7.X.v.T.;.S.S.D.D.;.;.;.S.D.D.D.D.S.;.;.;.",
"#.U $.$.U U ;.U ;.D.D.D.D.F.f.1./ 5 8 u W &.Q.(.qXaXrXoX8XN.M.N.`.V.XXeX#X|.I.9.) 3.7.,.:.S.D.D.;.D.S.D.D.S.S.D.;.:.U :.",
"S.;.$.$.:.:.;.;.S.D.D.S.F.h.1.^ y I s C.J.}.$XyXyXeXeX8XM.q.q.y.y.i./.qXpXyX;X[.K.%.3.h.>.D.D.D.S.S.D.D.D.S.;.U U $.:.U ",
"D.S.S.S.S.S.S.S.D.D.D.D.6.x.C r a s Z.U.%X&X*XsXgXgXdXoX` & q.M.w. .(.bXMXcXjX;X|.K.) X.j.>.D.D.D.D.D.D.D.S.S.S.S.$.$.$.",
"D.D.D.D.D.D.D.D.S.D.D.G.g.O.F P U A.A.U.%X*X4XjXgXCXnXeX-.o X % . *.OXMXNXzXsX:X.XK.^ { g.F.D.D.S.D.S.D.D.S.D.D.D.S.S.S.",
"D.D.D.D.D.D.D.D.D.D.D.H.2.M S P s Z.C.Y.*X4X3XjXxXNXgXtX1.O % . I ^.$XfXlXsXsX;X.XK.+./ { g.F.S.S.D.D.S.D.D.D.D.D.D.S.D.",
"D.D.D.D.D.D.D.D.S.D.D.R.1.= z U s C.C.%X>X4X3XjXxXxXfXtX3.4 4 g (.#X9X#X+X+XOX|.~.4.+.b N g.6.S.D.S.S.S.S.D.S.S.D.D.D.D.",
"S.S.D.S.D.S.D.D.D.S.D.R.<.$ Z p u s _.;X<X;X;XsXlXMXMXyXK.t w v ].OX8.^ C y r y +.e 2 w ] p.f.F.D.S.S.$.S.S.S.S.D.S.S.D.",
"S.$.D.D.D.D.D.S.S.;.S.T.<.# Z p u s ).&X%XI.9.+XpXMXNXpX#X8.3 5 W.+.3 3 5 V P P r 2 < 3 v b 2.R.D.S.$.U $.$.$.S.S.S.D.D.",
"D.D.D.S.D.D.S.S.$.#.#.T. .# F i u u ~.&XU.Q R 4.'.9XaXpX'.=.3 5 h.+.  4 4 4 j x i 7 < 2 B w *.h.F.S.$.D.D.S.$.S.S.S.S.D.",
"D.S.D.D.S.S.S.S.$.;.S.G.2.~ F L 6 u H.-X[.&.2 t K ^.#X'.5.V 5 0 =.V 3 . 1 d k k P i 6 6 z V F 2.6.:.$.;.S.D.S.S.S.D.S.D.",
"S.D.D.S.D.S.D.S.S.S.D.D.G.c.B P i r H..X;X X4.B x K Y S j 9 j 9 V l 4 . % g G G L U L 8 k P B ! O.#.#.#.D.D.D.D.D.D.S.D.",
"D.D.S.S.D.D.S.D.D.D.D.D.G.h.w r a I ~.&X,X,X+X*.A x j k k k k 9 9 9 4 O * g G k L L L L I I A M { =.#.#.D.D.D.D.D.D.D.D.",
"S.S.S.S.S.S.D.D.D.S.D.D.G.7.w e r r 8. X,XuXsXOXf.S k k k k j < < 3 1   % % f k L k L L q 0 w N p.>.;.D.D.S.D.D.D.D.D.D.",
"S.$.S.$.S.S.S.S.S.S.D.$.,.7./ e e 7 a ~.;X,X#XOXf.S k k 6 9 l *.I 6 1 4 f f x k k 6 j 4 3 C ( 1.6.>.;.S.D.;.S.S.S.S.S.D.",
"D.S.D.S.$.$.$.#.$.$.$.$.:.:.<./ C e 7 H.).|.7.4.+.z 9 9 x F s.XX].U 6 0 S I P 9 d x h h b 3.W.H.;.:.U :.#.#.#.;.$.S.$.$.",
"$.$.$.#.U #.#.#.#.#.#.$.$.>.7./ m 0 < 8 s +.a Z V V z Y '.9XiXnXpX].F.8 q q 0 3 j d.f.f.6.G.F.D.$.#.;.;.S.S.D.D.D.D.D.D.",
"$.#.$.#.$.$.#.#.$.#.$.$.D.>.,.X.] B 6 q a i r 7 5 t *.'.iXnXVXVXBXpXOX@.a 7 2 w ] f.R.>.;.D.D.S.S.S.S.S.S.S.S.S.$.$.$.$.",
"$.$.$.$.$.$.$.$.D.D.;.$.S.D.>.} { F P L L q 8 P 4.!.#XiXBXSXDXVXNXlXuX-X~.K.%.~ p.f.F.S.S.S.D.S.S.S.D.S.S.S.;.;.$.#.#.$.",
"S.$.S.S.S.S.$.S.S.;.$.$.;.S.D.X...C A q 6 p #.L.OXyXfXBXZXDXDXZXbXxXcXhX>X|.0.) v.8.D.D.D.D.D.D.S.D.S.S.D.S.S.S.$.S.$.$.",
"S.$.$.$.$.#.#.#.$.$.#.#.#.#.:.<.' : 3 < 8 @.).;XhXlXfXVXSXDXSXZXgXzXcX2X>X|.0.3.H.F.D.D.D.D.D.D.S.S.S.$.$.S.:.$.$.$.S.$.",
"$.#.$.#.#.#.#.#.$.D.;.#.#.#.#.6.<.~ w 3 r H.}.>XhXjXgXZXDXDXSXCXgXkXhX1X*XP.3.0.,.>.S.D.S.S.S.S.S.$.$.#.$.$.$.#.#.#.$.U ",
"#.#.#.#.#.#.#.;.D.D.D.S.>.;.;.D.,.2.3.C r @.{.2XhXzXfXVXSXZXZXCXgXkX7X2X}.9.3.8.>.$.$.$.$.S.$.$.#.#.#.#.#.#.U #.#.#.#.#.",
"#.$.#.S.S.S.S.S.S.S.S.S.S.D.>.S.D.G.H.=.y E U.>XhXcXzXBXZXCXCXvX3X6X6X,X).0.4.>.$.$.#.#.$.$.U #.#.#.#.#.#.#.#.#.$.$.#.$.",
"$.#.D.D.;.$.;.;.$.$.$.$.S.D.D.S.;.$.>.h.+.y J.:X6XhXkXvXCXCXvXzX6X3X,X@X0.0.7.#.U #.#.#.$.$.#.#.#.U $.#.@.S.$.S.>.D.S.S.",
"$.:.S.S.;.#.#.#.$.;.S.S.G.W.W.f.>.>.>.R.*.R C.&X2X5XcXcXzXkXkX6X4X2X.XP.x.G.;.#.#.#.$.#.$.$.$.;.S.$.S.S.S.S.S.S.S.D.D.D.",
"U $.S.S.S.;.;.;.S.D.D.>.G.n.t.t.i.s.,.T.*.^ Q {.<X1X5X7X7X7X4X5X<X&XI.%.x.6.#.#.#.#.$.$.$.$.>.;.S.S.S.S.S.S.S.S.D.D.S.D.",
"$.S.S.S.S.S.S.$.S.D.S.S.>.g.l.e.e.|  .*.D b %.[.=X<X1X4X4X4X1X1X=X{.&.t 1.,.>.;.$.$.$.S.S.$.$.$.$.S.D.D.D.D.S.S.S.S.S.S.",
"$.$.$.S.S.S.$.S.S.D.D.D.D.,.c.t.' _ _ , = 3 E K.Y.=X1X1X4X1X>X=X%XL.@.t N 5.G.>.$.>.S.S.S.S.D.D.S.S.D.D.D.D.S.S.$.$.S.$.",
"S.S.S.$.$.#.#.$.$.D.D.D.>.D.,.6.f.s.i.n : b Z @.L.%X&X*X*X*X*X_.L.Z.a Z v a.T.;.$.#.$.S.D.S.D.D.D.D.D.D.D.D.S.#.$.S.S.S.",
"#.$.$.#.#.#.#.#.$.D.D.D.S.D.S.D.F.f.b.m h S P a Z.A.I.I.P.P.P.K.W u i z S [ 1.h.$.$.$.:.D.D.D.D.D.D.D.D.D.D.S.S.S.S.D.D.",
"#.#.#.#.#.#.#.$.>.D.D.$.$.S.S.S.F.8.<.b B z z L i +.+.+.%.%.%.E t e 0 q z D ] <.5.;.$.S.D.D.D.D.D.D.D.D.S.D.D.D.D.D.D.D.",
"#.#.$.$.S.S.D.S.$.$.#.#.$.$.$.;.G.x.~ ! l x l I I +.+.+.( ( ) R ^ ^ I A l A N _ v.>.$.$.S.D.D.D.D.D.D.S.D.D.D.D.S.D.D.S.",
"U $.S.D.S.S.S.S.D.S.$.;.>.:.:.>.G.h...` n l K j.h.,.>.,.F.G.G.R.R.E.j.u.v c M { v.6.:.:.>.>.D.D.S.S.S.S.S.S.S.S.S.D.S.S.",
":.$.D.D.S.S.D.D.D.D.F.E.b.b.Q.Q.Q.R.n.s.w.H n  .5.6.$.;.>.D.D.G.R.b.p.c c { c././.Q.b.^.n.^.W.G.S.S.S.$.S.$.$.$.S.D.$.$.",
"#.$.S.D.D.D.D.S.>.D.E.1.` ` ` / 1.j.n././.s.m n 1.6.$.D.D.D.F.G.E.u.M : i.^.n.m.a.-./ ` ..' p.j.F.>.;.S.;.#.#.$.S.S.S.$.",
"S.S.S.D.S.S.S.D.>.8.a._ = = @ : J u.u.k.B.s.; * { 7.G.D.D.D.,.g.u.J @ - s.m.s.w.} N w + $ & T t.g.F.D.D.;.$.:.;.S.S.S.D.",
"S.D.D.S.;.#.S.S.,.c.' , = * * D K H n H ` H * & > ..x.,.D.,.d.t.c g @ & _ ' H n D F v : + X > ' p.,.;.D.S.S.S.S.S.S.$.S.",
"S.D.S.#.#.;.#.;.,.z.> & & , : N N c ; : > = ; > $ T ..6.F.8.p.> $ - - ; ; ; - n c D ! n + = + > ..>.D.D.D.D.D.S.S.S.$.S.",
"S.S.>.;.;.S.D.S.,.c.o.o.r.r.-.i.1. . .-.O.r.r.r.o.o.t.,.D.h.k.r.O.O.w.w.u.w.w.u.1.1.i.i. .O.O.O.a.>.D.D.S.S.S.S.D.S.$.S.",
";.S.:.$.$.S.D.D.F.T.g.5.5.d.5.f.5.5.f.5.6.d.5.5.5.7.7.F.>.F.g.d.4.5.5.f.f.f.d.f.5.6.7.d.5.d.5.5.5.;.$.$.S.;.S.S.D.S.$.S.",
"U :.$.$.U ;.D.D.D.S.S.S.;.D.D.D.;.U U :.:.U :.U $.$.$.$.$.#.U :.$.$.U D.D.D.S.S.D.D.D.D.D.S.;.:.>.S.D.D.S.S.D.D.D.D.$.D.",
"$.U $.U :.;.D.D.D.D.S.S.;.;.D.D.S.>.;.:.U :.U :.$.$.$.#.$.$.:.;.:.U ;.D.D.D.S.S.S.D.D.D.D.D.S.S.S.D.D.D.D.D.D.D.D.D.S.$.",
"$.U :.;.;.D.D.D.D.D.D.;.>.:.U D.S.S.D.;.;.$.#.$.#.:.U :.:.U :.U :.;.;.D.D.D.D.D.D.S.D.D.D.S.D.S.D.D.S.D.S.S.S.S.S.S.S.D.",
">.D.D.S.S.S.D.S.U F.S.;.U U ;.Y #.;.S.S.S.D.D.D.:.U :.U U S.D.D.S.S.S.S.S.S.S.S.S.S.S.S.D.D.D.D.D.D.S.S.S.:.$.$.$.#.$.#.",
"S.;.U >.;.:.:.U ;.U ;.;.U :.;.U #.$.#.#.$.S.S.S.>.U U :.D.D.>.;.:.;.;.U U :.;.>.;.;.;.;.S.S.D.D.S.S.$.$.$.U #.#.#.#.$.$.",
"S.:.:.U ;.U S.S.>.D.D.S.D.;.:.:.$.#.#.;.#.#.;.S.;.:.U #.S.>.;.U U U :.>.;.S.D.D.S.S.;.;.>.U :.U $.$.$.$.#.#.#.$.#.#.#.#."
};
