/* XPM */
static char *result[] = {
/* columns rows colors chars-per-pixel */
"60 60 244 2 ",
"   c #3C1E05",
".  c #3C1F1A",
"X  c #2A2916",
"o  c #2C2C1B",
"O  c #372517",
"+  c #3C231C",
"@  c #332B1C",
"#  c #3C2B1D",
"$  c #2C341E",
"%  c #3A321E",
"&  c #3D2526",
"*  c #342B25",
"=  c #3B2C22",
"-  c #353224",
";  c #323528",
":  c #393928",
">  c #4C1E0E",
",  c #491F15",
"<  c #54280A",
"1  c #532B0E",
"2  c #452315",
"3  c #462A17",
"4  c #43231C",
"5  c #4C241B",
"6  c #4D2B1C",
"7  c #532817",
"8  c #5B231E",
"9  c #542B1C",
"0  c #5B2D1B",
"q  c #4A341A",
"w  c #573418",
"e  c #5A341B",
"r  c #533B1D",
"t  c #642A1A",
"y  c #6F3810",
"u  c #643A1C",
"i  c #693A18",
"p  c #5B1F20",
"a  c #641F20",
"s  c #432424",
"d  c #4D2522",
"f  c #442C23",
"g  c #4C2C24",
"h  c #452C2B",
"j  c #4B2B2A",
"k  c #542623",
"l  c #5A2C23",
"z  c #582925",
"x  c #542E2A",
"c  c #443324",
"v  c #4B3424",
"b  c #4C342A",
"n  c #473828",
"m  c #453B2B",
"M  c #4C3B2B",
"N  c #5B3223",
"B  c #583826",
"V  c #53332B",
"C  c #5B362C",
"Z  c #533A2C",
"A  c #522D33",
"S  c #483534",
"D  c #4C3C32",
"F  c #533D33",
"G  c #573834",
"H  c #642A22",
"J  c #633B22",
"K  c #683825",
"L  c #683D2F",
"P  c #36412C",
"I  c #3A4329",
"U  c #5B4117",
"Y  c #68431C",
"T  c #744B18",
"R  c #43452C",
"E  c #4B432A",
"W  c #484A2D",
"Q  c #594627",
"!  c #52432D",
"~  c #5C5027",
"^  c #4C4633",
"/  c #4C4B33",
"(  c #494934",
")  c #544533",
"_  c #5C4534",
"`  c #544935",
"'  c #5B4A33",
"]  c #5A4439",
"[  c #554B3B",
"{  c #5A4B39",
"}  c #4A5337",
"|  c #575639",
" . c #5C523B",
".. c #684526",
"X. c #774C26",
"o. c #77412D",
"O. c #7A432E",
"+. c #6D5425",
"@. c #74522A",
"#. c #634B34",
"$. c #674937",
"%. c #624B3A",
"&. c #7E4630",
"*. c #714A35",
"=. c #7C4A34",
"-. c #7C4E39",
";. c #655334",
":. c #64533B",
">. c #6B533B",
",. c #675838",
"<. c #6A593D",
"1. c #775638",
"2. c #74533C",
"3. c #7B543C",
"4. c #7A593E",
"5. c #4D603E",
"6. c #78602D",
"7. c #7E6638",
"8. c #5B4743",
"9. c #5B5244",
"0. c #5E5959",
"q. c #635442",
"w. c #6B5541",
"e. c #675A47",
"r. c #6C5B42",
"t. c #735642",
"y. c #7D5641",
"u. c #745A43",
"i. c #7C5B43",
"p. c #74564F",
"a. c #76594B",
"s. c #6A5C58",
"d. c #696648",
"f. c #786649",
"g. c #6F6C5D",
"h. c #7A6455",
"j. c #767353",
"k. c #716D6F",
"l. c #834A1E",
"z. c #834B2A",
"x. c #92572A",
"c. c #804731",
"v. c #814832",
"b. c #824F39",
"n. c #855936",
"m. c #82533B",
"M. c #85642B",
"N. c #986728",
"B. c #8C6637",
"V. c #976839",
"C. c #9C783B",
"Z. c #A57131",
"A. c #A67739",
"S. c #845A43",
"D. c #875A45",
"F. c #83634B",
"G. c #896A48",
"H. c #967547",
"J. c #836453",
"K. c #886B54",
"L. c #927051",
"P. c #A87748",
"I. c #AA7B4A",
"U. c #88776A",
"Y. c #957A67",
"T. c #887E78",
"R. c #AD8339",
"E. c #B4883D",
"W. c #A78449",
"Q. c #B68747",
"!. c #B58B44",
"~. c #BA8E44",
"^. c #B79048",
"/. c #A98553",
"(. c #B98C57",
"). c #BB9658",
"_. c #8B8672",
"`. c #9A8476",
"'. c #A78D6D",
"]. c #AA926B",
"[. c #B7986A",
"{. c #B49876",
"}. c #BFA06B",
"|. c #C5984A",
" X c #C59B55",
".X c #C79856",
"XX c #CBA44F",
"oX c #CAA659",
"OX c #D2A758",
"+X c #D4AB5A",
"@X c #CEB157",
"#X c #D8B45E",
"$X c #C59C63",
"%X c #C29E71",
"&X c #C9A666",
"*X c #D4AA66",
"=X c #CDB869",
"-X c #D9B768",
";X c #CFA976",
":X c #DAB573",
">X c #DABA76",
",X c #E2BA68",
"<X c #E4BB79",
"1X c #DDC162",
"2X c #DAC67C",
"3X c #E4C16C",
"4X c #E6C577",
"5X c #948F8B",
"6X c #9A8A8A",
"7X c #A69694",
"8X c #A9A19E",
"9X c #B9A790",
"0X c #AEA5AD",
"qX c #B5A9A8",
"wX c #C9AF8C",
"eX c #D7B983",
"rX c #D6BF92",
"tX c #E5BF80",
"yX c #C7B7A3",
"uX c #C8B7B0",
"iX c #D6BEB6",
"pX c #DEC381",
"aX c #DDC493",
"sX c #E7C887",
"dX c #E9D087",
"fX c #EDD38C",
"gX c #E7CA96",
"hX c #EDD295",
"jX c #E8D59C",
"kX c #F2D399",
"lX c #D5C4A6",
"zX c #D4C7B6",
"xX c #E8D6A8",
"cX c #F3DAA8",
"vX c #E9DBB7",
"bX c #F1DEB1",
"nX c #F0E1AD",
"mX c #E5E5BC",
"MX c #ECE4B9",
"NX c #CEC4CB",
"BX c #D4CBC9",
"VX c #E7DCC6",
"CX c #E5E3C3",
"ZX c #EAE2C4",
/* pixels */
"v.v.c.c.c.O.c.c.c.c.c.c.c.c.v.v.v.v.v.v.v.v.v.c.O.c.&.O.c.c.c.c.z.c.z.c.c.O.&.O.&.c.c.&.c.c.c.v.v.c.c.v.v.v.v.v.c.&.O.O.",
"v.v.c.&.O.O.O.c.c.c.c.c.v.c.v.v.v.v.v.c.c.c.v.c.v.c.O.O.O.O.O.&.&.&.c.c.c.c.c.&.O.O.o.O.O.c.c.c.v.v.v.v.v.v.v.c.c.&.O.&.",
"c.v.c.O.O.c.c.c.O.&.c.c.v.v.v.v.c.c.c.c.&.c.&.&.c.c.c.&.O.O.O.O.O.O.L c.L O.O.&.O.K o.o.O.c.c.c.c.c.v.v.v.v.v.v.c.c.c.c.",
"&.&.c.O.&.c.c.c.c.c.c.c.v.v.v.v.c.&.&.c.&.&.O.O.&.c.c.v.c.&.O.O.&.L z.O.&.O.K &.O.o.O.O.c.c.c.c.v.v.v.c.v.v.v.v.c.c.c.c.",
"c.z.K c.O.c.c.c.v.v.v.v.v.v.v.c.c.&.O.=.v.=.O.o.o.=.m.m.S.D.D.m.b.&.O.L o.-.O.&.c.c.c.c.c.c.c.c.c.c.c.c.v.c.c.c.c.c.c.c.",
"O.L z.L L c.v.c.v.c.v.v.c.c.v.v.c.&.=.4.i.3.=.=.3.>.:.' #._ #.>.y.b.=.3.2.<.>.v.c.&.O.&.c.c.O.O.&.c.c.c.c.c.c.c.c.c.c.c.",
"L &.O.O.c.c.v.v.c.v.v.c.v.v.c.c.c.c.c.f.d.d.m.i.u. .: X o @ @ = w.y.3.f.d.} ;.=.c.O.O.O.O.O.O.&.c.&.&.c.&.&.c.c.O.&.&.&.",
"&.c.c.c.c.c.v.v.c.c.v.v.v.c.c.c.c.c.v.F.} R r.:.b # + + # h h c b $.w.} $ I ' v.c.O.O.&.&.c.c.c.c.c.c.O.O.o.o.o.o.o.O.O.",
"z.c.c.c.&.&.O.O.O.c.c.c.c.c.c.c.v.b.m.K.,.m v v g j G A j & s s h A G c @  .f.m.=.O.O.O.&.c.c.c.O.O.O.o.O.O.K O.O.O.K c.",
"c.O.&.L O.O.O.&.&.&.&.&.z.z.O.c.b.4.>.u.' f + 2 s j A A j s & s h A S # O ) %.<.u.-.O.O.O.O.&.O.c.O.O.O.O.&.&.&.O.O.c.c.",
"c.c.&.&.c.c.c.c.c.&.&.&.O.L L O.1.<. .r.$.5 . + 4 h 8.8.S S & h A 8.8.j O # E | d.f.b.&.c.c.c.c.c.c.c.c.c.c.c.c.c.c.c.c.",
"b.c.c.c.c.c.c.c.&.O.O.O.z.L c.&.#.| j.Y.J.C + . h s.6X6Xs.S & S s.6X6XU.M v w.j.5.f.m.&.O.O.&.c.c.c.c.c.c.v.c.c.c.c.c.c.",
"v.v.&.c.c.c.O.O.&.&.O.O.O.L L b.#.E <.Y.L.*.d h g.8XBXBX0X0.S 0.8XNXNXqXw.>.G._.j.f.n.O.O.&.&.&.c.c.c.c.c.c.c.c.c.v.c.c.",
"O.&.O.&.c.&.O.&.c.c.c.c.c.c.b.i.' q r X.o.u 6 _ _.zXBX8X0XT.k.k.0X0XuXiXJ.@.@.f.,.G.n.&.c.c.c.&.c.O.c.c.c.c.c.c.c.c.&.c.",
"O.O.K O.O.O.O.O.c.c.c.c.c.v.S.:.Q 3 < 1 y X.n.G.7XyXqX_.5XT.k.k.T.U.`.wX/.G.M.6.~ ,.2.=.O.c.v.v.c.c.c.c.c.c.c.c.c.O.K O.",
"c.O.c.&.O.O.O.&.&.c.c.c.v.D.t.Z q i Y T M.Q..X&X[.[.].U.k.0.0.S A *.L.I.%XOX).W.M.~ ,.4.=.c.v.v.c.c.c.c.c.c.c.&.&.O.&.O.",
"v.c.c.c.c.c.c.c.c.v.v.c.m.u.M Z K K z.N.Q. X.X.X$X}.{.h.) 9.s.' 3 w B.)..XoX$X&XI.7.{ ,.i.b.v.v.z.v.v.v.v.c.c.c.c.c.O.c.",
"v.v.v.v.v.v.v.v.v.v.v.b.4.<.M l K z.x.I.Q.^.^.oX>XpXeX'.>.6 3 O   Y W.:X*X^.Q..X(.B...Q <.-.v.v.c.v.c.v.v.c.c.c.c.c.c.c.",
"v.v.v.v.v.v.v.v.v.v.c.3.t._ N 7 y z.x.I.|.^.R.*XpXkXgXeXL...e e Y V.&XsX:XE.I..X(.B.Y r ~ 4.=.&.c.v.v.c.c.v.c.c.c.c.c.v.",
"v.v.v.v.v.v.v.v.v.v.m.2.{ C z 8 a l.x.|.*XoX!.@X>XfXsX;X(.P.V.V.V.(.*X4X*X!.|.OX(.V.Y q Q <.3.=.v.c.c.c.c.v.c.c.c.c.v.v.",
"c.c.c.c.c.v.v.v.v.b.D.$.V k , > < y Z.OX,X,X+X~. X*X.XA.A.Z.N.x.N.Z.~.XX~.Z.|.:X$XM.w 1 r E >.S.v.v.c.&.&.&.c.&.c.c.c.c.",
"c.c.c.c.v.v.c.c.b.m.<.{ x d , 7 y x.Q..X+X,X,X.X!.A.Q.~..X.X.X.X.X|.E.R.R.|.*X<X;XP.+.3 q q _ w.D.v.O.O.&.&.&.&.c.c.v.v.",
"c.c.c.v.c.v.v.v.3.w.) M c 4 4 7 H x.P..X#X,X<X,X X!.).*X:XtX<XtX<X*X|.|.E.+X1X:X(.L.1.#.! v b _ t.y.c.&.c.c.c.c.c.c.c.v.",
"v.v.v.v.v.c.b.3.>.) M m S b + 5 y z.x.Q..X*X<X4X:X=X>XeXgXfXhXkXhXtX:X+X#X3X-X).V.-.4.G.u.E b Z L t.S.v.c.c.c.c.c.c.c.v.",
"v.v.v.c.v.v.m.>.E q b ] s.h.g 6 7 i M.B.6.M.}.tXsXdXfX4XfXdXsXpXsXtX>X:X<X<X&XC.i 1 ..m.-.a.) j A _ u.1.b.v.v.v.v.c.v.v.",
"v.c.v.c.v.v.m.#.% Z b a.U.U.D g w u =...w ..H.&X:X,X2X1X1X=XoX&X;XeXgXgXkXpXW.T i e 2.m.&.-.{ F x l M ;.m.b.c.v.c.c.v.c.",
"c.c.c.c.c.v.m.>.E M v h.`.U.j s 5 1 u e Y 7.{.eX>X=X@X@X@X=X-X>X>XgXcXcXcXpX).B.i e _ >.i.i.q.] x g E >.D.v.v.v.c.c.c.c.",
"c.O.c.O.O.&.b.3.:.! v e.j.h.s . 3 9 w 1 *.'.rXkXdXpX=X=X-X2XfXjXcXbXnXcXhXsX=X(.Y 9 Z ] t.p.8.^ b Z #.4.n.O.c.c.c.c.c.c.",
"v.c.c.O.O.O.O.=.2.| R W [ G & . 5 J K < n.%XgXbXnXnXjXjXjXmXnXmXvXvXnXcXdX4X=X^.@.7 6 V G L G b n _ -.b.O.L c.c.c.c.O.O.",
"&.O.O.O.O.O.o.o.O.2.| W m D j d z H 0 < z.%XrXgXxXMXmXmXmXmXmXmXmXmXxXjXsX>XoXR...3 9 l z A A D ' 3.&.c.c.c.c.c.c.c.c.c.",
"O.o.O.o.O.O.o.o.O.=.2. .^ m j d p t t t ..G.{.wXlXxXZXCXCXCXCXmXmXxXxXxXeX&XW.n.t 0 8 p p d Z $.2.b.v.c.c.v.c.c.O.O.O.O.",
"O.O.O.O.O.O.O.O.v.v.=.2.:.[ A A z a a t K ..G.K.'.9XuXzXVXZXZXmXxXaXwX}./.G.1...e t 8 p k d $.3.m.v.v.v.v.v.z.L O.O.O.O.",
"&.&.O.&.c.&.&.c.c.c.O.&.b.u.8.V k z a z l V v 9 $.J.Y.7XuXVXCXVXwX].H.L...w 1 0 0 8 8 k g v 2.m.c.c.c.c.c.c.c.c.&.c.O.O.",
"&.&.&.O.&.&.K &.O.&.O.O.L v.y.%.Z k k 5 4 d b x C C L $.Y.yXVXzX`.*.....N N e 9 , k 5 g M :.S.b.c.&.c.&.c.O.O.O.o.O.O.O.",
"z.L O.O.O.K &.K O.c.&.O.O.O.=.3.$.b g f 4 . + s 5 9 l l u.9XvXiXi.N g l 5 5 , 2 , 4 f M { 3.b.c.&.O.O.c.O.o.o.o.o.o.O.O.",
"L O.O.L O.O.&.&.c.c.c.c.&.&.&.-.3.%.n s s 4 , 4 , < e B f.9XVXiXK.Q w 5 , , 2 2 4 n ^ { 2.-.&.&.o.o.O.K o.o.o.o.o.o.o.o.",
"&.O.O.c.c.c.&.c.c.c.c.&.c.c.c.c.b.y.' h s d 5 1 < w @.L.{.lXVXxX].G.+.U 3 3 4 = n ] %.-.=.O.O.L K &.O.O.O.O.L O.O.O.O.O.",
"O.O.c.c.&.O.&.&.&.O.O.&.&.=.v.&.&.=.y.%.b 2 > < Y B.[.aXxXvXxXxXaX>X[.G.Q q q c ` 2.=.O.L O.L c.O.O.O.O.O.&.z.c.c.c.c.c.",
"K &.c.c.O.L &.O.O.&.&.v.m.n.F.b.=.&.=.u.Z 3 w x.R.$X<XkXjXjXgXgXsX>X[.6.~ ,.f.r.2.-.c.O.&.L z.c.&.&.&.c.c.c.c.c.c.c.c.c.",
"c.&.c.z.c.c.c.c.&.&.v.&.m.f.d. .,.$.-.i.#.r i P.oX,X3XdXfXfXsX4X<XoXW.~ ;.1.1.3.-.O.K O.&.z.c.c.c.c.c.c.c.c.c.c.c.c.c.c.",
"O.O.c.c.c.c.&.O.c.c.c.O.=.4.5.5.} } ;.>._ r o.I.OX,X1X2X4X4X3X,X@XE.M.U ;.-.v.&.O.O.O.v.v.O.O.O.c.c.c.c.v.v.c.c.c.&.c.c.",
"&.O.&.c.c.&.&.&.c.v.v.c.v.3.f.| W I W m 3 3 K V.(.@X1X1X1X1X,X+X~.N.T w U 2.m.c.=.O.O.v.v.v.v.v.c.c.c.c.v.v.c.c.O.&.&.&.",
"c.c.O.O.O.O.o.O.&.v.v.v.v.=.=.-.4.r.{ q # w L z.V.^.XX@X@X@XXXE.Z.l.Y e q w.m.O.O.o.O.=.v.v.v.v.v.v.v.v.v.c.c.O.O.&.&.c.",
"O.O.o.O.o.o.o.O.O.v.v.v.v.v.v.v.-.y.u.g 3 t K u @.V.C.R.A.A.C.V.l.T t N V _ >.3.O.o.o.O.v.v.v.v.v.v.v.v.v.v.c.c.c.c.c.c.",
"L z.L O.O.O.o.O.&.v.v.O.O.c.c.v.b.3.>.r e H l l B ..@.+.+.X.X.X.i 0 0 z x V ) ,.2.O.O.=.v.v.v.v.c.c.c.v.c.c.c.c.c.c.c.c.",
"c.L O.&.&.c.c.&.&.O.O.O.O.O.O.O.m.u.W r x H V C B Q Q U U Y Q J B B C G j S m W f.-.o.O.c.c.v.v.c.c.v.c.c.c.c.c.c.c.c.c.",
"L O.z.z.c.c.c.c.v.&.O.O.&.O.O.&.m.4./ n g j G p.3.1.3.-.-.m.n.m.S.S.D.8.A S m ^ f.=.O.O.O.=.v.c.c.z.c.&.c.c.&.c.c.c.c.c.",
"&.O.c.c.c.c.v.v.v.v.b.S.F.F.F.F.D.S.i.w.] S : 9.t.3.=.O.=.v.m.m.D.J.s.A & 8.e.f.K.F.F.F.F.K.n.b.c.c.&.&.&.&.&.&.&.c.c.&.",
"&.&.c.c.c.c.c.c.v.=.F.,. .' %.#.>.t.f.J.h.8.: P e.y.&.&.c.v.b.m.y.q.D h 8.h.J.h.i.w.%.{  . .r.4.=.=.v.v.O.O.O.O.c.c.c.&.",
"c.&.c.c.c.c.c.v.=.4.d.W @ @ # = D q.9.h.J.e.: ; | u.-.v.v.v.b.f.q.m @ h p.h.a.q.{ V f # % @ W :.y.v.v.v.v.O.O.O.c.c.c.c.",
"c.c.c.c.O.&.c.c.4.f.I : @ # f D F D : m 8.S * o : | D.b.v.b.i.| R - @ * D ) M n F G V h O o - } d.-.v.v.v.O.v.v.c.c.&.c.",
"c.c.c.O.O.O.O.c.1.d.P o @ = = b D = * : ; ; * ; - P | 3.v.i.9.P o * & * * # % % c D D = X o $ P / =.v.v.v.v.v.v.c.&.O.c.",
"&.c.c.c.O.c.c.c.-.f.} / ) ] %.8.%.{ { [ ( [ [ 8.[ } | 3.v.i.f.^ / ] [ [ { ` ` ' '  .q.[ ( [ } [ ,.=.v.c.v.v.v.v.v.c.&.c.",
"c.c.c.c.c.c.c.c.-.S.f.2.t.t.y.y.t.2.t.w.r.a.t.r.t.t.t.3.&.3.f.y.t.t.t.u.u.y.u.2.u.t.u.u.r.t.r.t.u.O.c.O.O.v.v.v.c.c.&.c.",
"O.O.O.K L &.c.c.v.v.=.v.=.v.c.c.&.o.o.o.O.O.&.O.&.&.O.O.&.&.O.K O.O.O.v.v.v.v.v.v.v.=.v.=.v.c.&.=.v.v.v.c.c.v.v.c.c.c.c.",
"&.K O.O.&.c.v.v.v.v.v.v.v.O.c.c.&.&.O.O.o.o.o.o.O.O.O.O.O.L O.O.o.o.O.v.v.v.v.v.v.v.v.v.v.v.c.c.=.v.c.v.v.v.c.v.c.c.c.v.",
"O.&.O.&.c.c.c.c.c.c.c.c.&.O.O.&.=.c.c.c.O.O.O.L O.O.O.O.O.O.L c.&.&.&.b.c.c.c.c.c.c.c.v.c.c.z.c.v.v.v.v.z.c.c.c.c.&.c.c.",
"c.c.c.&.c.c.c.c.c.c.c.c.&.K O.O.O.&.c.c.c.c.b.c.c.L O.O.O.c.v.v.&.&.c.&.c.z.c.c.c.c.c.c.c.z.c.c.v.v.c.c.&.&.&.O.O.O.L O.",
"c.c.O.&.O.O.O.O.O.c.&.&.O.O.O.O.L o.O.O.O.z.c.c.z.K K &.c.c.&.&.c.c.&.O.L &.c.c.&.&.c.c.c.c.c.c.c.z.O.O.&.O.O.O.O.O.z.O.",
"c.c.O.L O.O.O.c.c.c.c.c.c.&.O.O.c.O.O.O.O.O.O.c.c.O.O.&.c.c.&.O.L L O.&.c.c.v.z.c.c.c.&.&.&.L &.O.O.O.O.L z.L L K O.&.K "
};
