/* XPM */
static char *result[] = {
/* columns rows colors chars-per-pixel */
"60 60 245 2 ",
"   c #3A1D12",
".  c #2E2819",
"X  c #3D2717",
"o  c #312A15",
"O  c #33241A",
"+  c #3C251A",
"@  c #342B1E",
"#  c #372926",
"$  c #3D2C23",
"%  c #333424",
"&  c #3D3425",
"*  c #343529",
"=  c #3C322A",
"-  c #39372B",
";  c #441C15",
":  c #491D19",
">  c #511F12",
",  c #49260B",
"<  c #562A0C",
"1  c #58320C",
"2  c #4A2815",
"3  c #43231D",
"4  c #4C241B",
"5  c #442A1D",
"6  c #4D2A1C",
"7  c #532C14",
"8  c #5B2D13",
"9  c #55251A",
"0  c #582519",
"q  c #532C1C",
"w  c #493319",
"e  c #563617",
"r  c #5B341B",
"t  c #652A18",
"y  c #633718",
"u  c #713919",
"i  c #491E22",
"p  c #561E23",
"a  c #442423",
"s  c #4C2422",
"d  c #442D24",
"f  c #4B2B25",
"g  c #4A252A",
"h  c #452B29",
"j  c #4C2C2C",
"k  c #532422",
"l  c #5C2224",
"z  c #522B23",
"x  c #5A2A23",
"c  c #552A2B",
"v  c #443324",
"b  c #4B3425",
"n  c #433A26",
"m  c #4A3C24",
"M  c #43342A",
"N  c #4C352B",
"B  c #433B2C",
"V  c #4C3C2C",
"C  c #533325",
"Z  c #5B3424",
"A  c #54342A",
"S  c #533B2C",
"D  c #593928",
"F  c #473933",
"G  c #4B3E31",
"H  c #563A33",
"J  c #652827",
"K  c #663627",
"L  c #743928",
"P  c #3A422C",
"I  c #5D461C",
"U  c #6A4419",
"Y  c #784818",
"T  c #4A422D",
"R  c #48452C",
"E  c #5A4927",
"W  c #52432E",
"Q  c #4A4633",
"!  c #544232",
"~  c #5B4534",
"^  c #554A34",
"/  c #5D4B34",
"(  c #584A3B",
")  c #515435",
"_  c #585539",
"`  c #5D533C",
"'  c #674527",
"]  c #644B24",
"[  c #644B2B",
"{  c #694B2C",
"}  c #744A22",
"|  c #77412D",
" . c #7A432E",
".. c #64552B",
"X. c #785429",
"o. c #624535",
"O. c #634C35",
"+. c #634D3B",
"@. c #6A4A39",
"#. c #7E4630",
"$. c #774D36",
"%. c #7C4B35",
"&. c #64523B",
"*. c #6B543D",
"=. c #67583A",
"-. c #7A5837",
";. c #75533D",
":. c #7B533C",
">. c #74593B",
",. c #796533",
"<. c #5D3F42",
"1. c #544940",
"2. c #5D5644",
"3. c #5B5B43",
"4. c #595D48",
"5. c #674D41",
"6. c #655543",
"7. c #6A5542",
"8. c #6B5C44",
"9. c #665848",
"0. c #725643",
"q. c #7C5641",
"w. c #745B43",
"e. c #7B5B43",
"r. c #765B4A",
"t. c #665D56",
"y. c #725C5C",
"u. c #5D6145",
"i. c #6C664B",
"p. c #776448",
"a. c #7B634B",
"s. c #64645D",
"d. c #796755",
"f. c #766B67",
"g. c #843D22",
"h. c #9D541F",
"j. c #96661D",
"k. c #8B512A",
"l. c #98592B",
"z. c #804731",
"x. c #814832",
"c. c #814E38",
"v. c #855A36",
"b. c #82533C",
"n. c #87622D",
"m. c #96682B",
"M. c #896637",
"N. c #926B3B",
"B. c #956838",
"V. c #9B7236",
"C. c #A77729",
"Z. c #B16E32",
"A. c #A77736",
"S. c #855842",
"D. c #825B44",
"F. c #886648",
"G. c #956A46",
"H. c #9B794C",
"J. c #826550",
"K. c #856B55",
"L. c #8C7658",
"P. c #A87B48",
"I. c #AD7D51",
"U. c #88776E",
"Y. c #967C6A",
"T. c #AE813A",
"R. c #B4843A",
"E. c #C88D3D",
"W. c #9B815C",
"Q. c #AB894A",
"!. c #B78846",
"~. c #BB944A",
"^. c #A58556",
"/. c #B38956",
"(. c #BE9558",
"). c #B28B68",
"_. c #BA9669",
"`. c #B99977",
"'. c #B7A47C",
"]. c #C7984A",
"[. c #D49B49",
"{. c #CA9150",
"}. c #C2935A",
"|. c #C69B58",
" X c #DAA44B",
".X c #CAA459",
"XX c #D6A959",
"oX c #D6B35F",
"OX c #E7B65B",
"+X c #C59A67",
"@X c #C1976C",
"#X c #CCA461",
"$X c #C8A769",
"%X c #D4A668",
"&X c #CDB166",
"*X c #D7B66A",
"=X c #C8A877",
"-X c #D6A877",
";X c #CDB87C",
":X c #DBB474",
">X c #D9BD78",
",X c #E5BA67",
"<X c #E2AF72",
"1X c #E3BA77",
"2X c #DFC07C",
"3X c #E6C16C",
"4X c #E4C37D",
"5X c #EAC57A",
"6X c #F0CB76",
"7X c #918A85",
"8X c #B09B8F",
"9X c #AB9D9A",
"0X c #AAA29D",
"qX c #A8A5A2",
"wX c #B5A9A5",
"eX c #D9BB87",
"rX c #D0B28F",
"tX c #E5BC86",
"yX c #C8B8B2",
"uX c #DAC58A",
"iX c #DAC696",
"pX c #ECC583",
"aX c #E8C987",
"sX c #F2CB84",
"dX c #F1CC8A",
"fX c #E8CB95",
"gX c #E5D194",
"hX c #EED394",
"jX c #E5D39A",
"kX c #EAD39C",
"lX c #F2D193",
"zX c #D9CBAE",
"xX c #E7D7A5",
"cX c #EADBAB",
"vX c #E5DDB4",
"bX c #EBDDB3",
"nX c #ECDFB8",
"mX c #F0DCB1",
"MX c #E6E4AD",
"NX c #E4E3B5",
"BX c #E6E2BC",
"VX c #EBE3BC",
"CX c #D5C9C9",
"ZX c #E4E3C2",
"AX c #E9E4C2",
/* pixels */
"x.x.x.z.z.z.z.z.x.x.x.x.x.x.x.x.x.x.x.x.x.z.x.z.#.#.#. .z.z.z.z.x.x.x.z.#.#.#. .#.x.z.z.z.z.z.x.x.x.z.x.x.x.x.x.z. . . .",
"x.x.z.#.| |  . .z.x.z.x.z.x.x.x.x.x.x.x.x.z.x.x.z.z.#.| | |  .z.#.#.%.z.z.#.#.#. .| | | #.z.z.z.x.x.x.x.x.x.x.z.z.|  .z.",
"z.x.z. . .z.x.z. . . .z.x.x.x.x.z.z.z.z.#.%.#.#.z.z.z.#.| #.| | | | | #.| | | | | | L  .| z.x.x.x.x.x.x.x.x.x.x.z.z.z.z.",
"#.#.z. . .z.x.x.x.z.x.z.x.x.x.x.z.z. .z.#.#.#.#.#.z.x.c.x.%.#.#. .| | L | #.| | | | | #.#.x.x.x.x.x.x.x.x.x.x.x.x.x.x.x.",
" . . .|  .z.x.x.x.x.x.x.z.x.x.x.z. . .:.c.%.#.L | %.D.D.D.e.F.D.c.#.#.#.#.%.%.| #.#.z.x.x.z.x.z.z.z.z.z.x.z.z.z.x.x.x.x.",
" .| | | |  .x.x.x.z.x.z.x.x.x.x.z.z.%.=.p.b.%.:.q.*.^ m V R R ) w.b.%.q.p.i.*.x.x.#.#.z.#.#. .| #.z.z.z.z.z.z.z.z.z.z.z.",
"| | | |  .z.x.x.x.x.x.x.x.x.x.x.z.z.x.=.3.=.0.0.&.! $ O . # % - ( >.0._ ) _ =.%.#.|  .| | | #.#.#.#.#.z.z.z. . . .z. .z.",
" .z.z.x.z.z.x.x.z.z.x.z.x.z.z.x.z.x.%.i.) P _ ^ = + + a h $ $ = = ^ 2.P % P =.c.#. .#. .z.z.z.x.z.z.z. . . . .L | |  .| ",
"x.z.#.#.z.#. .| #.z.z.z.#.#.#.z.%.x.v.J.&.n @ h j j g c j i i # h N G - % ` e.:.%. . . . .z.z.z.#. .| | | | | | | |  . .",
"x.#.| | | |  .#.z.#.#.#.#.#.#.| :.p.` &.S X 3 $ $ # g <.g g i g g N = . o & T / p.%. . .z.z. . .#. . . .| |  . . . .z.z.",
"x.z.#. .z.z.x.z.#.#.#.#.#.| | #.$._ i.p.O.2 , O # 1.y.y.<.i i g <.y.t.V @ & ^ i.8.:.c.z.z.z.z.z.z.z.x.z.z.z.z.z.z.z.z.z.",
"b.x.z.x.z.z.z.z.#.#.#.L | | | :...R L.Y.F.D   O 1.f.wX9Xy.<.# <.U.9X9Xf.V W p.U.8.:.c.z.| | z.x.z.z.x.x.x.x.x.x.x.x.x.x.",
"x.x.z.z.x.z. .| #.#.#.L #.| #.:./ & >.L.F.] w B U.yXCXCX9Xs.* s.wXCXCXwX=.=.K.L.d.D.c. . .z. . . .z.z.z.z.z.z.x.x.x.x.z.",
"| #.| #.z.z.z.#.z.x.x.#.#.#.b.8.T X 7 U e 1 w &.9XCXyX7XqX7Xs.7XqX0XwXyXa.] { { [ e.b.#. .z.x.z.z. .z.z.x.x.z.z.z.z.z.z.",
"| L #.| | #.| | #.x.x.x.%.b.w.O.D q 8 y z.l.G.Y.8XrXrXU.U.f.s.s.d.f.Y.=X/.Q.V.,...=.-.:.z.z.x.x.x.z.z.x.x.z.z.z. . .|  .",
"z.#.| | | | #.#.#.x.x.x.c.e.&.D r K } k.G.}.%X@X@X).Y.K.t.t.4.<.b H D.).%X|..XQ.M.....>.:.x.x.x.x.x.x.x.x.z.z. . .L | | ",
"x.z.z.z.x.z.z.z.z.x.z.c.b.w.D J L L l.P.{.}.|.+X_.$X).F.@.+.9.H , r G.%X{.{..X#XQ.,.E ) w.c.x.x.x.x.x.x.x.z.z.z.z. . . .",
"x.x.x.x.x.x.x.x.x.x.x.b.w.+.Z L g.l.h.P.!.R.Q.&X2XgXeX`.;.2       $._.tX-X!.R.~./.M.] _ p.b.x.x.x.x.x.x.x.x.x.x.x.z.z.z.",
"x.x.x.x.z.x.x.x.x.x.x.S.e.H J J g.g.h.E.].~.T.&XgXgXgX=XP.-.U ] v.I.rXdX<X!.R.|.Q.M.] W _ -.c.#.z.z.x.x.x.x.z.z.x.x.x.x.",
"x.x.x.x.x.x.x.x.x.x.b.0.@.A l 0 t g.Z.{.oX&X~..X3X2X*X(.Q.N.m.M.B.I.%X<X%XZ.!.*X~.v.E w R p.b.#.z.x.z.z.z.x.z.z.x.x.x.x.",
"z.z.x.x.x.x.x.z.x.x.S.&.S A : > t g.E. XOX,X&X~.~.].!.A.m.V.A.V.V.A.~.].R.E. XOX.X-.C n R w.S.x.x.z.z. .z.z.z.z.x.z.z.x.",
" .z.z.x.x.z.x.z.z.:./ ~ H j ; 4 u h.R.[. X3X3X].R.R.R.{.XXXXXX#X%X~.T.R.C. XOXOX.XH.O.$ T 8.-.c.z. . . . . . .z.z.z.x.x.",
"z.z.x.x.x.x.z.#.%.e./ D c s 3 6 U m.C.[.OX3X3X&X#X.X#X:X1X5XpXaXpX:X.X].[.OXOXOXR.,./ $ S W @.b.z.z. .z.x.z.z. .z.z.z.x.",
"x.x.x.x.x.z.z.%.$.=.o.x k a a 2 e Y j. X3X3X5X4XeX>X5XpXsXsXdXlXaXuX*XoXoX3XOXE.j.U v & N b O.>.#. . .z.z.z.z.z.z.z.x.x.",
"x.x.x.x.x.x.x.x.;.^ ~ x z a a 5 1 u A. X,X,X1XaX4XaXaX6X5X5X2X2XtXeX;X2X4X6X,XE.j.e w N f D ^ &. . .|  .z.z.z.z.x.x.x.x.",
"x.x.x.x.x.x.x.b.8.W b C A A f 4 7 } Z.XX,X5X4X*X*X>X3X*X*XXX.X.X-XeXfXgXhXaX*X].n...&.0.z D T ^ -.%. . .z.z.x.x.x.x.x.x.",
"z.z.z.z.x.x.b.q.7.! v S 5.0.f 9 8 u h.{.<X5XdXpX>X*X.X.X&X*X2XaXfXxXcXxXjXaX2X}.n.I &.q.H D v T &.$.#.z.x.z.x.x.x.x.x.x.",
"z. .z. . .%.b.0.^ V v O.r.D.A s 0 t k.I.%XtXlXkXkXuXeXeXuXjXxXcXmXnXVXbXhXaX*X(.,.E [ q.*.b v n Q :.:.z.z.#.z.z.z.z.z.z.",
"x.x.x.#. .#.q.&.B b n *.S.:.o.b q t u l.Q.+XaXxXmXbXvXvXNXNXZXBXVXnXnXxXfXpX#XQ.X...{ %.w.S v v w p.:. . . . . .z. .z. .",
"#. .| | |  .:.O.v d V &.c.%.7.H z Z 7 8 U M.`.kXbXVXZXZXZXZXZXBXVXvXxXxXaX:X!.X.I ..:.%.b.+.~ S n i.$. .#.z.x.x.x.x.z.z.",
"| | | | | | #.;.+.& T ` 0.b.:.@.S 3 2 1 e } H.tXxXcXvXAXZXAXZXVXbXxXxXhXaX&XV.e e / >.q.q.+.~ A b 8.:.z.z.x.z.z. . . . .",
" . . . . .#.#.:.8.n n T &.w.S.D.o.X w w 1 ] I.eXkXxXvXAXnXAXAXNXxXfXlXdX5X.XV.1 w m / 8.0./ S C C p.b.x.x.x.#. . . .| L ",
"z. .z.#.z.#.#.:.:./ n n T &.q.D.@.a w 7 e v.@XtXfXkXxXnXBXZXVXMXjXhXsX5X1X(.M.] R w S ~ o.H A C / :.c.z.z.z.z.z.z.z. . .",
"#.#. . . .| | | c.e./ V b S @.5.K q q , y G.eXtXfXkXzXvXNXZXNXMXgXlXsX1X%XQ.,...R w 6 x l c C T *.%.z.z.z. . .| |  . .z.",
"| |  .| | | | | #.c.D./ N b s k k x 0 > t v._.rXfXkXxXnXBXBXMXxXgXdXsX<X(.,.I E w q k l l x N / -.%. .| | | | | | | | | ",
"| | | | | | | #.#.x.c.q.&.B d s k J 0 0 8 ' G.@XrXrXzXnXNXNXMXxXgXaXpX-XI.' e r q 0 l l l k n / $.| | | | | | | | | | | ",
"| |  .z.z.z.x.x.x.x.#.c.;.` V j c l p 0 0 q ' :.G.W.'.rXzXMXMXjX;X$X(.P.$.e q l p J l l k d T &. .| | |  . . . . . . . .",
"|  .x.x.#. .#.z.#. .| #.b.J.5.A p p l l 9 4 7 2 r @.p.W.'.iXjXiX^.G.v.' 7 5 z x l p J l f b &.0.#. . .|  . . .z.z.z.z.z.",
"|  .x.z. .| | L | #.#.x.:.K.d.( c c p p : 4 Z r r r r e ,.'.iX=X..1 y y Z D C k p l l q N 7.:.c. . .z.z.z.z.z.z.x.x.x.x.",
"|  .x.x.z.#.z.z.#.z.x.x.:.d.4.F g i l p : ; ; < 7 8 1 , ,.`.uX`.U 1 8 r 2 3   : : > 6 A *.:.c.x.z.z.z.z.z.z.x.z.x.x.z.x.",
" .z.z.z.x.z.#. .x.x.x. .%.>.4.Q M i i i i : : ; > < t K B.@XeX+XX.1 < 7 ; : s 3 a b W *.:.%. . . .z.x.x.x.x.x.z.x.x.z.z.",
" . . . .z.x. .z.z.x.x.x.z.%.>.6.! F h i i p 9 4 2 y #.l./.%X:X(.n.U r r 4 s f f N ~ *.0.c.x.x.x.z.z.x.x.x.x.z. . . . .z.",
"x.z.z.z. .| |  . .x.x.x.x.x.%.c.q.r.+.h : i 4 q ' D.I.@X+X+X+XP.m.X.$.;.D s 3 b *.;.%.#.x.x.x.x.x.x.x.x.x.x.z. . .z. .z.",
" . .| | | | | |  .x.x.x.z.x.x.x.x.:.r.b # 3 C o.-.F.N.G.M.B.N.v.' r D o.L q C @.:.$.#.#.x.x.x.x.x.x.x.x.x.x.z.z.z.z.z.z.",
"L | | | | | |  .x.x.%. .#.#.x.#.b.b._ B d 5 C E ..E I ] U ] ..[ e 7 w C K C C ^ q.%.| %.x.x.x.x.x.x.x.x.x.x.x.z.z.x.x.x.",
" .|  . .#.z.x.z. . .| | L #.#.#.b.p.P & v b W @.[ ] ] ] ' { { { [ o.K C C q n Q e.%.|  .x.x.x.x.x.z.x.z.z.x.x.x.x.x.x.x.",
"| | x.x.z.z.z.z.x.x.z.#.#.$.%.%.b.w.Q - v b ~ r.S.b.:.b.b.b.b.b.S.S.w.! d d T _ a.:.#.$.%.:.x.x.z.z.z.z.z.z.x.z.z.z.z.z.",
"|  .x.x.z.z.x.x.x.x.b.w.a.a.a.a.D.b.a.0.+.S v _ 0.:. . . .%.x.c.S.w.( v F 6.r.d.K.K.d.a.K.a.e.b.z.z.z. .z. . . .z.z.z.| ",
" .#.z.x.x.x.x.x.x.c.w.^ V T V T ` w.d.J.J.5.@ n &.S.#.z.z.x.b.b.r.( h F 9.J.J.y.9.^ G B V V &.e.c.x.z.z.#.| |  .z.z.z.z.",
"#.z.x.x.z.z.z.x.c.>.=.n O 5 + M T ( ^ 7.7.` @ . ^ w.:.x.x.x.b.w.1.j # = 5.9.0.H ~ G M # + O G 7.w.x.x.x.z.|  .z.z.z.z.z.",
"x.x.#.z. . . .x.;.u.R % X + f S G & % B F B @ O - _ p.c.x.:.0.1.= # # # - R M d N S V h $ O % Q 8.%.x.x.z.z.z.x.z.z.z.z.",
"x.x.x.| | #. . .*.) * % @ v N G G N B = = $ = = * P _ %.x.>._ * = - * * - & $ b b ! ! n # % % P 2.%.x.x.x.x.x.x.z.z.| z.",
"#.x.#.#.z.x.x.z.$.i.u.3.2.6.6.7.6.9.6.6.7.6.9.9.2.4.i.%.#.:.i.3.6.2.2.9.6.6.&.=.*.=.8.6.3.3.3.9.p.%.z.z.z.z.x.z.x.z.| z.",
"z.#. .#. .x.x.x.c.-.>.;.;.;.:.:.$.$.$.;.;.;.:.0.;.:.:.%.%.:.:.;.;.;.0.:.:.;.:.:.$.:.:.;.;.;.;.;.:.#. .#.#.#.x.x.x.z. .x.",
"| | | | | #.x.x.x.z.x.x.x.x.z.z.#.L | | | #.#.|  .z. . . . .#.| L #. .x.x.x.%.z.z.x.x.x.x.z. . .#.%.x.z.z.z.x.x.x.z. .z.",
"| | | #.L #.x.x.x.x.x.z.z. .z.z.x.x.#.#.L | #.L | |  .| | | | L | |  .x.x.x.z.z.x.x.x.x.x.x.z.z.z.z.x.x.x.x.z.x.x.x.z.z.",
"| #.| #.#.x.x.x.x.x.x.#.|  .#.z.x.#.#.#.#.#.| | | #.| | L #.| #.#.#.#.x.z.z.z.x.x.z.x.x.x.x.x.x.x.x.x.x.z.z.z.z.z.z.z.z.",
"x.x.z.z.z.z.x.#.#.x.z.#.| | | | #.#.#.x.z.x.x.x.#.L | | #.#.%.x.#.#.x.x.z.#.z.z.z.z.z.z.x.x.z.x.x.z.z.z. .z. .z. .| | | ",
"z.#.#.| #.#.#.| | #.#.#.| | #.| | | #.|  .z.x.%.#.| | | x.x.#.#.#.#.#.#.#.| | #.#.#.#. .z.x.z.z.z.z.z.|  .| | | | | | | ",
"z.#.| | L | #.#.z.x.x.#.#.#.#.| | #.L #.| | #.#.#.| | | #.#.#.| | L | #.#.x.x.%.z.z.z.#. .| | #. . .| | | | | | | | | | "
};
