/* XPM */
static char *result[] = {
/* columns rows colors chars-per-pixel */
"60 60 249 2 ",
"   c #381E15",
".  c #3F200D",
"X  c #2C2817",
"o  c #392619",
"O  c #3A251C",
"+  c #332C1C",
"@  c #3B2A1D",
"#  c #2C371F",
"$  c #3B321E",
"%  c #3C2525",
"&  c #342C22",
"*  c #3B2D23",
"=  c #372D2B",
"-  c #3B3324",
";  c #383626",
":  c #481C09",
">  c #5A150A",
",  c #451E19",
"<  c #661908",
"1  c #741907",
"2  c #43240C",
"3  c #58290C",
"4  c #5C3A0F",
"5  c #452313",
"6  c #4C2415",
"7  c #44251C",
"8  c #49231B",
"9  c #43291C",
"0  c #4A2C1D",
"q  c #532C14",
"w  c #57281A",
"e  c #5B2D1B",
"r  c #47341B",
"t  c #553816",
"y  c #54331B",
"u  c #5B321A",
"i  c #74270E",
"p  c #622918",
"a  c #66361B",
"s  c #76391A",
"d  c #4A1D22",
"f  c #541F26",
"g  c #432226",
"h  c #4C2423",
"j  c #462C23",
"k  c #4B2B23",
"l  c #4D2C2B",
"z  c #542424",
"x  c #5C2224",
"c  c #532C23",
"v  c #5A2927",
"b  c #453524",
"n  c #4B3425",
"m  c #443A26",
"M  c #4E3B24",
"N  c #43342B",
"B  c #4C342B",
"V  c #433B2B",
"C  c #4B3B2B",
"Z  c #543624",
"A  c #533B25",
"S  c #563B27",
"D  c #53352B",
"F  c #5B322B",
"G  c #5C3A2B",
"H  c #4A3833",
"J  c #573B34",
"K  c #642725",
"L  c #663826",
"P  c #763C26",
"I  c #3B452D",
"U  c #4E401C",
"Y  c #58421A",
"T  c #69461B",
"R  c #774919",
"E  c #4C4428",
"W  c #4C432E",
"Q  c #594628",
"!  c #59442D",
"~  c #5F5429",
"^  c #464534",
"/  c #4D4433",
"(  c #4A4838",
")  c #524434",
"_  c #5B4534",
"`  c #544B35",
"'  c #5D4B33",
"]  c #54443A",
"[  c #5C4639",
"{  c #524B39",
"}  c #5C4C3A",
"|  c #4B573C",
" . c #5C523B",
".. c #59573B",
"X. c #664626",
"o. c #7A4C25",
"O. c #77412D",
"+. c #7A432E",
"@. c #655329",
"#. c #775626",
"$. c #634A34",
"%. c #634B39",
"&. c #674839",
"*. c #7E4631",
"=. c #764834",
"-. c #744B34",
";. c #7D4A34",
":. c #7B4E38",
">. c #655236",
",. c #63533C",
"<. c #6C533D",
"1. c #6A5938",
"2. c #795837",
"3. c #74543D",
"4. c #7D533C",
"5. c #716036",
"6. c #594C46",
"7. c #53514F",
"8. c #58544B",
"9. c #645542",
"0. c #6B5644",
"q. c #635B43",
"w. c #6D5B44",
"e. c #6C5D48",
"r. c #755641",
"t. c #745144",
"y. c #7B5642",
"u. c #735A44",
"i. c #7C5B43",
"p. c #785D4B",
"a. c #645C56",
"s. c #596043",
"d. c #6C6145",
"f. c #796248",
"g. c #6C635F",
"h. c #7C6652",
"j. c #767659",
"k. c #6F6A67",
"l. c #7C7B77",
"z. c #892C12",
"x. c #8E3822",
"c. c #88481B",
"v. c #884825",
"b. c #865827",
"n. c #9A562D",
"m. c #804731",
"M. c #814832",
"N. c #834F38",
"B. c #845837",
"V. c #82533C",
"C. c #AD5935",
"Z. c #896535",
"A. c #8F6B31",
"S. c #996934",
"D. c #997537",
"F. c #A66F31",
"G. c #AA7838",
"H. c #835B43",
"J. c #855C46",
"K. c #82644C",
"L. c #826F49",
"P. c #996A4C",
"I. c #8B734B",
"U. c #9A7748",
"Y. c #876855",
"T. c #8A775A",
"R. c #977755",
"E. c #A57D47",
"W. c #B4744B",
"Q. c #8F7568",
"!. c #CE7D4E",
"~. c #AA8339",
"^. c #B58539",
"/. c #99845D",
"(. c #AA8448",
"). c #B88A46",
"_. c #BF9A4F",
"`. c #A98755",
"'. c #B48A57",
"]. c #B99257",
"[. c #988C75",
"{. c #A98D65",
"}. c #B8996A",
"|. c #B7A77E",
" X c #C69749",
".X c #CF9553",
"XX c #C59954",
"oX c #CB9C53",
"OX c #CEAC4B",
"+X c #CAA45B",
"@X c #CEA55A",
"#X c #D5AB5C",
"$X c #DAB457",
"%X c #C49D6B",
"&X c #E79562",
"*X c #C9A868",
"=X c #D3AC62",
"-X c #D6AA68",
";X c #D3B26C",
":X c #DBB56A",
">X c #C9AA76",
",X c #D1A270",
"<X c #CDB179",
"1X c #D9B876",
"2X c #E4AD65",
"3X c #E4B96A",
"4X c #E4BE75",
"5X c #E5C15C",
"6X c #E9C56B",
"7X c #E6C379",
"8X c #F2CC73",
"9X c #958B86",
"0X c #958D8D",
"qX c #B79A82",
"wX c #B7A888",
"eX c #B2A991",
"rX c #B4B0A8",
"tX c #B9B6B7",
"yX c #C7B385",
"uX c #DCBF82",
"iX c #D8B889",
"pX c #E5BE8F",
"aX c #C9BCAA",
"sX c #DAC585",
"dX c #D8C693",
"fX c #D5C897",
"gX c #E4CA88",
"hX c #EACB8B",
"jX c #F3CE86",
"kX c #EBD38C",
"lX c #E9CA95",
"zX c #EAD597",
"xX c #F6D193",
"cX c #F6D39A",
"vX c #D3CBAF",
"bX c #DAD4AC",
"nX c #CBC7BB",
"mX c #E8CDA6",
"MX c #E7D9A5",
"NX c #F3D9A6",
"BX c #ECDDB6",
"VX c #F1D5B8",
"CX c #ECE1A8",
"ZX c #F5E0A9",
"AX c #E6E0BD",
"SX c #E9E2B9",
"DX c #CECCCB",
"FX c #E7D8C9",
"GX c #E8E3C3",
/* pixels */
"M.M.m.m.m.+.m.m.m.m.M.M.M.m.M.M.M.M.M.M.M.M.M.M.+.+.*.*.*.m.m.M.m.m.M.m.*.+.+.+.M.M.m.+.m.m.m.M.M.M.M.M.M.M.M.M.M.m.P *.",
"M.M.m.*.+.+.+.m.*.m.m.M.M.M.M.M.M.M.M.M.M.M.M.M.M.M.*.P P =.*.*.*.*.m.m.m.m.m.+.+.+.+.+.+.m.m.M.M.M.M.M.M.M.M.m.M.P M.*.",
"m.M.m.+.+.m.m.*.+.*.*.m.M.M.M.M.M.M.m.M.N.;.;.*.M.B.V.H.V.V.:.;.+.+.O.O.=.;.+.+.O.O.+.O.+.m.M.M.M.M.M.M.M.m.m.M.m.m.m.m.",
"*.*.m.+.*.m.M.m.m.m.m.m.M.M.M.M.M.+.;.:.3.;.;.;.4.i.<.1.<.<.%.<.:.=.=.;.3.<.-.+.O.O.O.+.*.M.M.M.M.M.M.M.M.M.M.M.m.M.m.m.",
"*.=.O.O.+.*.M.M.M.M.M.M.M.M.M.M.m.+.4.u...3.4.u.d...; X + + + ` u.:.y.u...( r.;.+.*.m.M.M.m.M.M.m.M.m.m.M.m.m.M.m.m.m.m.",
"P O.O.P P *.M.M.m.M.m.M.M.M.M.M.m.m.J.1.I | q.{ ; + + O 7 g 7 j D t.9./ # # u.V.M.+.m.m.m.+.+.+.*.*.M.m.m.m.m.m.m.H.m.m.",
"*.O.+.*.*.*.M.M.m.M.M.M.m.M.M.M.M.V.J.f.~ m W V & ; B l z f f h l J ] ; I ~ H.J.N.+.+.+.+.+.+.+.*.*.*.*.*.*.+.m.;.P m.m.",
"*.*.*.m.m.m.M.M.m.m.m.M.m.M.M.M.N.2.4.y.' 9 @ @ * N H l z d , h l B V + $  .w.5.4.;.=.+.m.m.m.M.m.m.*.*.+.*.P P ;.P P P ",
";.*.*.*.M.m.*.+.*.*.m.m.*.*.*.;.i.w.1.&.c ,   o @ - 6.] l g % d f ] H % X * ( s.d.4.+.*.+.M.M.M.*.P *.P P *.P =.P P *.P ",
";.*.*.P =.P P ;.*.*.*.;.*.;.*.=.1.e.T.Q.:.c : o N g.0Xl.6.l % H a.9X0X6.* b s.j.j.d.-.+.+.+.+.+.*.*.*.=.=.P =.P *.*.P H.",
"M.*.*.*.*.*.M.M.*.;.*.*.O.O.P -.8...Y.Q.Y.c o - 7.l.tXtX0X7.= H g.tXnX9X0.! T.j.j.f.M.M.M.M.M.M.m.m.*.M.m.m.M.M.M.M.M.M.",
"H.;.*.*.m.M.M.M.*.*.+.P =.P :.3.W M $.-.-.y @ { l.eXDXDXrXl.7.a.9XDXFXeXY.X.L.1.5.L.M.m.O.+.M.M.m.m.M.M.M.M.M.M.M.M.M.M.",
"m.m.H.m.m.m.P *.*.*.O.O.O.t.3.,.b 0 6 3 a 4 4 5.wXaXnXnXrXl.k.l.0XtXvX|.E.#.5.T ~ f.2.;.+.*.*.+.*.*.m.m.M.M.M.M.M.M.m.m.",
"P P P *.m.m.m.N.m.m.m.m.m.J.,.M S L a R b.A.A.U.}.yXwX9Xa.H 7.7.a.h./.'.].).).A.#.~ f.4.;.;.M.*.*.*.*.m.M.M.M.M.m.m.m.m.",
"*.P P =.P H.P P m.m.M.M.J.G M y p T b.F.). X)._.1XiXyXT.N = 7.7...~ }.,XoX X#XXXG.5.~ 3.4.N.M.M.*.M.m.m.m.m.m.M.P P P m.",
"M.*.;.P P P P M.m.m.M.N.t.F Z a o.v.n.W.XXoXXX=X7XhXlX/.n X = = r @.<X4X=XXX:X@X`.B.Q ' -.N.M.M.m.m.M.M.M.m.*.P P ;.t.P ",
"m.m.M.m.M.M.M.*.m.M.N.3.,._ u a v.c.F.^..XoX#X:XgXxXxX%X4.6 . . y 2.1XjX;XXX:X;X`.N.L U $.4.N.M.M.m.M.M.M.M.+.M.m.m.+.+.",
"M.M.M.M.M.M.M.M.M.M.3.q./ n w 3 a z.F. X&X.X.X=X7XxXpX-XE.;.o.#.Z.(.1XgX*X~.@X-X'.B.a r ` 1.V.M.M.M.M.m.M.M.M.M.m.m.m.m.",
"M.M.M.m.M.M.M.M.M.V.r. .m 0 5 2 > c.!.&X&XC.n.G.-X-X).G.F.G.E.G.F.G. X@X^.G.OX-X].B.y S A ! 3.V.M.M.M.M.M.M.M.M.m.m.m.M.",
"M.m.M.M.m.M.M.M.N.y.<./ n 7 7 6 a C.!..XC.z.i v.C.^.^.^. X XoX.X X^.G.~.^. X2X3X*XI.t r r A ' u.V.M.M.m.M.M.M.M.M.M.M.M.",
"m.m.M.M.M.M.M.V.V.<.} B j 7 7 c O.n.W.C.z.1 < s A.(._.=X6X3X1X6X:XOX).~. X2X3X=X].I.>.Q n b M %.2.4.;.+.+.M.M.M.m.M.m.M.",
"+.m.m.M.M.m.M.4.<.) B n j @ 5 c +.v.n.x.< > > N.}.*X1XsXgXzXkXkXkX4X#X#X2X3X3X).A.1.L.K.$.M n M ,.r.;.=.*.+.+.*.m.m.m.M.",
"m.m.M.m.M.M.:.,.C n n _ p.C 7 w p P z.i > > p P.iXhXkXkXzXzXgXgXgX7X;X1X7X7X*XA.Y U f.:.4.r.n Z B ' u.4.M.M.m.+.m.m.M.M.",
"m.M.M.M.M.M.-.` W n J K.Y./ 9 0 w P L p > > ;.'.1X4X6X4X;X*X*X>X>XsX4XgXzX1X~.R t E f.V.:.4.3.Z 0 B ' u.N.M.m.m.m.M.M.m.",
"M.M.M.M.M.m.-.>.W b %.Y.Q.A O 7 6 L a e q y R.<X;X-X$X#X=X;X<X<XiXlXzXzXzXdX`.5.t E ,.r.:.y.i.G Z n ) u.4.M.M.M.M.m.M.m.",
"M.M.m.M.M.m.4.u.W V ' h.Y.C o   w w e e q 2.}.sXsX;X;X=X1XlXzXlXNXZXNXNXzXsX<X5.Y r m <.y.y.<.G D S _ u.4.M.M.M.M.m.M.M.",
"m.m.m.m.m.m.M.B.u.' C ` 6.b   , v L p 4 #.}.dXNXNXMXzXbXmXVXVXBXCXCXZXzXgX4X1X(.T 2 D D &.J D D C _ i.N.M.M.M.M.m.M.M.M.",
"+.m.+.m.+.m.+.;.4.u.} V W C g h x K p i Z.*XdXbXSXSXAXAXGXGXGXGXSXCXzXzXkX1X+X~.T 2 w v v F S b %.y.:.m.M.M.+.m.m.m.m.M.",
"M.M.M.+.+.+.O.+.+.:.<.} V B l z x K K a o.`.>XfXbXAXBXGXGXAXGXSXSXCXbXzXsX*X(.b.a > w K x c M ' 3.;.+.+.+.+.+.+.m.m.+.+.",
"+.+.+.O.+.+.O.O.O.O.-.<./ C B l x K K K L V.I./.|.aXvXbXSXAXAXAXbXfXyX|.{.I.2.a p p K f z k ' 3.;.+.+.+.+.M.M.M.M.M.M.m.",
"+.+.+.O.+.+.O.O.+.+.+.;.i.w.J k v x K K L e y S Q T.[.wXvXGXGXbXeX{./.L.1.t u e p x x f k E u.N.;.m.m.m.m.M.m.m.+.+.+.+.",
"+.+.+.+.+.+.+.+.m.M.=.;.;.V.t.%.l f K x z h y y S X.' j.[.AXGXeXT.#.X.S Q A c 6 , w v 8 b } H.N.M.m.m.M.M.M.*.+.+.O.O.P ",
"m.+.m.m.*.+.+.*.*.*.+.+.+.M.4.r.[ c z f d g 8 6 q u y ! k.vXFXqX1.t u y 0 7 8 , 8 k 0 V } y.V.M.m.v.;.m.m.m.M.m.m.m.+.+.",
"+.m.+.+.+.O.+.+.+.*.O.+.O.+.;.4.r.[ B g g g 7   : q u _ Q.aXGXwX2.4 t q : , , 8 k k B } 2.V.M.M.m.m.+.m.m.+.+.+.O.+.m.+.",
"O.O.+.+.O.O.O.O.+.M.*.+.*.P P ;.;.1./ = % l d 5 5 u -.Y.qXVXFXiXR.#.T e 6 , 8 k n S } y.V.M.M.M.m.+.O.O.O.O.O.O.O.O.O.O.",
"O.O.O.O.O.+.+.*.m.M.m.m.;.;.*.*.*.4.<.) % % g y X.I.>XpXmXVXcXlXuX<X`.2.G k k n %.i.;.=.;.+.+.+.O.O.O.O.O.O.O.O.O.O.O.O.",
"O.O.+.*.m.m.m.m.M.M.*.M.N.i.4.N.M.M.H.%.O 9 G Z.`.%XgXxXNXxXkXgXgX1X].5.Q q.u.0.3.;.O.O.O.O.O.O.O.O.O.O.+.+.O.+.O.+.+.O.",
"O.+.M.m.*.+.*.+.+.+.+.;.V.w.q.>.$.4.J.y.C 0 -.W.-X3X8X8XjXjX7X4X1X.XD.5. .i.i.y.;.O.O.O.O.O.O.O.O.O.O.+.+.+.+.M.m.M.m.m.",
"O.+.m.m.+.+.+.+.+.+.;.M.4.d.| | 7.q.r.r.&.y N.'.-X3X6X6X8X8X6X:X=XW.R Y 1.y.+.P +.+.O.O.O.+.m.+.+.m.m.M.m.m.m.m.m.M.M.M.",
"O.+.m.M.m.m.*.*.M.M.M.M.;.2.q.| I H V n c e b.G. X$X5X5X3X3X3X@X).S.T t Q i.-.+.+.P O.O.+.m.m.m.m.M.M.m.m.m.m.m.M.M.M.M.",
"+.m.m.m.M.m.+.+.M.M.M.+.+.*.-.-.e.9.J k , e R b.~. XOXOX$X#X@X).S.b.a y ! p.V.;.*.=.+.m.m.*.+.*.m.M.M.M.M.M.m.m.m.M.m.m.",
"+.+.+.m.m.m.m.m.M.M.M.M.m.+.+.;.y.y.J j z L a T b.D.~.~.~.(.E.S.o.a p a G &.3.;.m.+.*.m.m.M.*.*.+.m.M.M.M.M.m.+.+.+.+.m.",
"m.m.m.+.+.O.O.+.+.M.M.M.m.M.;.+.;.y._ l F v c u T T #.#.#.#.#.X.a e e K v G >.<.;.O.+.*.M.m.M.M.M.M.M.M.M.M.m.+.+.m.+.m.",
"+.O.O.O.O.O.O.O.+.M.M.M.m.M.M.M.;.w.) B F f F ! Y Y Y Y Y Y Y S t L F K v F m 8.<.O.+.+.M.M.M.M.M.M.M.M.m.M.m.+.m.m.m.m.",
"O.O.O.O.O.O.O.+.+.N.+.;.+.M.M.M.*.w.) N l h t.p.Z.4.:.:.;.-.:.-.3.4.u.G h k - ..<.*.+.;.M.M.M.M.M.M.M.M.m.M.m.m.M.M.m.M.",
"O.O.+.+.m.m.M.m.*.+.;.y.i.i.f.B.V.y.0.%.D l J 0.f.V.M.N.N.N.N.N.4.i. .N l %.,.f.f.f.i.H.K.J.J.M.M.M.M.M.M.M.M.m.m.M.m.M.",
"O.O.m.M.m.m.M.M.M.V.4.,.,.,.,.>.4.H.Y.p.t.J N ] u.=.o.+.*.m.*.V.2.,.; C [ p.Y.h.u.9. .9. .,.3.4.M.M.m.M.m.M.m.m.m.m.m.m.",
"O.+.M.M.m.m.M.m.N.y.q.; + $ + $ 6.0.a.h.J.J N N } -.*.+.=.*.;.i.0.b @ ) e.Y.h.q.` N + - * $ W u.V.M.m.+.m.+.+.+.m.m.m.+.",
"+.+.m.M.M.M.m.M.J.,.V + & % j H ) N V ] } - @ - ( d.r.;.m.N.h.} ; j 7 N C ] / V C ] H O O * ; ( w.V.M.m.+.+.+.+.m.m.m.m.",
"m.m.M.m.m.m.M.N.K./ # X & + N J B = = ; - + + & # I w.V.N.y.( ; = * & * - - - - N J H j O * & # $.J.M.M.M.+.+.+.m.m.m.m.",
"M.m.m.m.*.+.+.M.J.} / H ^ ^ ] 6.[ ] ] ] W E ` / ^ ( u.J.N.f.{ ( ) ] ^ / / W / ) ] 6.6.J J / ( I ,.J.M.m.m.*.M.M.m.m.m.m.",
"M.M.m.+.+.+.+.M.H.r.e.a.e.e.e.u.u.u.u.u.u.d.u.w.w.d.i.V.M.V.f.w.e.0.0.u.u.0.w.u.u.r.u.p.w.w.w.w.2.V.M.M.M.M.M.M.m.m.O.m.",
"m.m.m.*.+.M.M.m.*.*.=.;.;.*.N.m.;.;.M.M.M.;.;.;.=.+.=.*.+.;.M.M.=.;.M.M.;.;.=.*.;.M.M.;.M.;.N.N.M.M.m.m.m.m.M.M.M.m.O.m.",
"m.m.+.=.*.M.M.M.m.m.m.M.m.m.m.m.+.+.+.M.*.M.M.M.M.M.m.+.M.*.*.+.+.*.M.M.m.m.m.m.m.M.M.M.M.m.*.P +.+.+.+.*.*.M.m.M.m.+.m.",
"+.P O.O.+.*.M.M.M.M.M.M.m.M.m.m.+.+.O.O.+.+.+.+.+.+.+.+.+.+.O.O.+.P +.M.M.M.m.m.M.m.m.M.M.m.P m.m.M.M.M.m.m.M.M.M.m.+.M.",
"P *.O.P +.+.M.M.m.M.M.m.*.*.*.N.M.m.+.O.O.O.O.O.O.+.+.O.+.+.O.+.P *.+.m.M.M.m.M.M.M.M.M.M.m.m.m.M.M.m.M.M.M.m.M.M.M.m.M.",
"=.P =.*.m.m.M.m.m.m.m.m.*.=.P m.m.M.M.M.+.+.+.+.+.O.O.O.O.O.+.+.*.*.m.M.M.M.M.M.M.M.M.m.M.M.M.M.M.M.m.M.m.m.m.M.M.m.m.m.",
"M.M.M.m.m.H.m.m.m.m.M.P P *.*.+.O.+.m.M.m.m.M.M.+.O.O.O.+.M.M.M.;.;.m.m.m.*.m.m.m.m.m.m.m.m.M.M.M.M.m.m.+.m.+.+.+.+.O.O.",
"m.m.P ;.m.P P P P P m.m.P P ;.P O.O.O.O.+.m.m.M.+.O.O.+.M.M.m.+.*.*.*.+.P *.=.*.*.*.*.*.m.m.m.*.m.m.+.+.O.+.O.O.O.O.O.O.",
"m.*.=.P =.P N.m.J.M.m.m.m.H.P P +.+.+.+.+.O.+.m.*.O.O.+.m.M.+.O.P *.P *.*.m.M.;.m.*.*.*.=.*.P *.+.+.O.+.O.O.O.O.O.O.O.O."
};
