/* XPM */
static char *result[] = {
/* columns rows colors chars-per-pixel */
"60 60 249 2 ",
"   c #381809",
".  c #3B1C1A",
"X  c #2C271D",
"o  c #352E15",
"O  c #33261A",
"+  c #3B2718",
"@  c #3C241C",
"#  c #332B1C",
"$  c #36321E",
"%  c #3B2D22",
"&  c #392A28",
"*  c #2D3A24",
"=  c #3B3323",
"-  c #373927",
";  c #3C322B",
":  c #3C343D",
">  c #4A1D0C",
",  c #451D17",
"<  c #4C1E14",
"1  c #730D01",
"2  c #621406",
"3  c #6E1207",
"4  c #781705",
"5  c #45260C",
"6  c #57280C",
"7  c #56310B",
"8  c #492716",
"9  c #43231C",
"0  c #4C231B",
"q  c #422B1D",
"w  c #552515",
"e  c #5B2C16",
"r  c #53241C",
"t  c #5A241D",
"y  c #542C1B",
"u  c #5B2C1B",
"i  c #4C351A",
"p  c #573417",
"a  c #5A331D",
"s  c #5C3A1E",
"d  c #7A270D",
"f  c #66281A",
"g  c #643718",
"h  c #763518",
"j  c #411F23",
"k  c #442424",
"l  c #452B24",
"z  c #4B2C25",
"x  c #462728",
"c  c #4D2C2B",
"v  c #532524",
"b  c #5C2324",
"n  c #532C22",
"m  c #592C25",
"M  c #532B2A",
"N  c #453324",
"B  c #4B3424",
"V  c #44342A",
"C  c #4B342A",
"Z  c #463C28",
"A  c #4C3C2C",
"S  c #533224",
"D  c #5C3322",
"F  c #54332B",
"G  c #533C2B",
"H  c #593929",
"J  c #4B2F30",
"K  c #4C3637",
"L  c #4D3B33",
"P  c #533736",
"I  c #523C31",
"U  c #5B3D32",
"Y  c #622623",
"T  c #653A25",
"R  c #693D33",
"E  c #38482B",
"W  c #3C4930",
"Q  c #53471A",
"!  c #6A451B",
"~  c #75451B",
"^  c #7F521C",
"/  c #44462A",
"(  c #4C432C",
")  c #54412E",
"_  c #594729",
"`  c #5F5127",
"'  c #4A4632",
"]  c #544434",
"[  c #5D4533",
"{  c #534A34",
"}  c #5B4C33",
"|  c #5E453A",
" . c #55493B",
".. c #5D4C3A",
"X. c #4C5937",
"o. c #585539",
"O. c #5C553A",
"+. c #624324",
"@. c #694928",
"#. c #7A4925",
"$. c #77412D",
"%. c #7A432E",
"&. c #67532A",
"*. c #7A5629",
"=. c #664937",
"-. c #644C3A",
";. c #774530",
":. c #7E4631",
">. c #754A33",
",. c #7C4A35",
"<. c #734E3A",
"1. c #7C4E38",
"2. c #64543C",
"3. c #6B533C",
"4. c #675839",
"5. c #74543D",
"6. c #7B533C",
"7. c #765839",
"8. c #756436",
"9. c #4F3E44",
"0. c #504443",
"q. c #5C5442",
"w. c #575B41",
"e. c #585559",
"r. c #654B41",
"t. c #635443",
"y. c #6C5443",
"u. c #655C44",
"i. c #6B5B42",
"p. c #6C584A",
"a. c #7B5641",
"s. c #735B44",
"d. c #765847",
"f. c #7C5B43",
"g. c #735D4C",
"h. c #655952",
"j. c #725C56",
"k. c #5D6344",
"l. c #696347",
"z. c #776346",
"x. c #7C644C",
"c. c #686C52",
"v. c #7B6653",
"b. c #767554",
"n. c #66676C",
"m. c #786B68",
"M. c #7A7474",
"N. c #8A2F15",
"B. c #8E3C25",
"V. c #82471A",
"C. c #88562A",
"Z. c #935E2E",
"A. c #804731",
"S. c #814832",
"D. c #814F38",
"F. c #865835",
"G. c #82533C",
"H. c #945232",
"J. c #AA5332",
"K. c #976328",
"L. c #876638",
"P. c #966737",
"I. c #9A7337",
"U. c #AA6F3B",
"Y. c #A77B39",
"T. c #835843",
"R. c #835C44",
"E. c #84654A",
"W. c #986B47",
"Q. c #8C744B",
"!. c #987747",
"~. c #856958",
"^. c #87745A",
"/. c #987B57",
"(. c #A77947",
"). c #B1724A",
"_. c #857063",
"`. c #967A65",
"'. c #A17F65",
"]. c #C27C4F",
"[. c #AA8839",
"{. c #B28737",
"}. c #988554",
"|. c #AB8543",
" X c #B68847",
".X c #B5924B",
"XX c #AC8757",
"oX c #B88B57",
"OX c #B49453",
"+X c #988366",
"@X c #95877C",
"#X c #B8986B",
"$X c #AC8F72",
"%X c #AA997C",
"&X c #B5A575",
"*X c #C1944B",
"=X c #C99C4D",
"-X c #C78A53",
";X c #C59A56",
":X c #CAA557",
">X c #D1AA53",
",X c #D5A956",
"<X c #E3B85D",
"1X c #C58860",
"2X c #CB9B67",
"3X c #CCA467",
"4X c #D3AB64",
"5X c #D6AA6A",
"6X c #CAB36A",
"7X c #DBB667",
"8X c #C8AA79",
"9X c #D4AD73",
"0X c #CDB572",
"qX c #D6B977",
"wX c #E7BB6A",
"eX c #E3B976",
"rX c #DBC263",
"tX c #DFC47E",
"yX c #E6C678",
"uX c #8E8A89",
"iX c #AE9D8B",
"pX c #BAA989",
"aX c #B1AB98",
"sX c #B2ADA7",
"dX c #CFAE83",
"fX c #C8B889",
"gX c #D6B587",
"hX c #C9B894",
"jX c #E6BC87",
"kX c #C4BAAD",
"lX c #CCBBAD",
"zX c #DAC487",
"xX c #DBC898",
"cX c #DFD192",
"vX c #E7C887",
"bX c #E9CC97",
"nX c #E8D399",
"mX c #F2D193",
"MX c #D7C8A7",
"NX c #D8CFB6",
"BX c #E8D1A5",
"VX c #E9D6A9",
"CX c #E5DDB5",
"ZX c #E8DBB8",
"AX c #E9E2B9",
"SX c #F0E2B3",
"DX c #D5D0C6",
"FX c #E8DCC4",
"GX c #EBE3C3",
/* pixels */
"S.S.A.A.A.%.A.A.A.A.A.S.S.S.S.S.A.S.A.S.S.S.S.A.%.A.:.:.:.:.:.:.A.A.S.A.:.:.:.:.:.:.:.:.A.A.S.S.S.S.A.S.S.S.S.S.A.%.%.%.",
"S.S.A.:.%.%.%.A.A.A.A.S.S.S.S.S.S.S.S.S.A.A.S.S.S.A.S.h :.:.:.:.:.:.A.A.A.:.:.:.$.$.R %.%.S.S.S.A.S.S.A.S.S.S.A.%.%.%.A.",
"A.S.A.%.%.A.A.:.%.%.A.A.S.S.S.A.S.A.A.A.A.A.S.A.A.S.A.A.%.%.R %.:.$.R %.:.$.$.:.:.:.%.%.%.:.S.S.S.S.A.S.A.S.S.S.:.A.A.:.",
":.:.A.%.:.A.A.A.A.A.A.A.S.S.S.S.A.A.%.A.,.A.%.%.%.D.D.G.D.D.D.A.:.h A.%.$.;.$.$.$.h %.%.:.S.S.S.S.S.S.S.S.S.A.S.S.S.S.S.",
"%.%.%.$.%.:.A.A.S.S.S.S.S.A.A.S.A.%.:.6.6.,.;.;.>.6.5.s.6.a.f.6.D.A.:.;.>.7.:.%.:.;.A.S.S.A.S.S.A.A.S.A.S.A.A.A.S.S.S.S.",
"%.$.$.$.%.%.S.S.S.S.A.S.S.S.S.S.A.A.6.x.l.7.G.6.s.O.- $ $ = = } a.T.T.g.k.X.1.D.A.:.A.S.A.A.%.%.A.A.A.A.A.A.A.A.A.S.A.S.",
"$.%.%.%.%.A.S.S.S.S.S.S.S.A.S.A.A.S.F.x./ 4.3.2.N $ # O % % l N U d.t.' E E 7.D.A.$.$.R R B.$.%.A.A.A.A.:.A.%.A.%.:.S.S.",
"%.:.A.S.A.A.S.S.A.A.S.A.S.S.S.S.A.S.R.x./ ( ) A q l l x k k x k M -.] $ E o.6.G.S.:.:.:.A.A.S.S.A.A.A.A.R V.R %.$.%.%.h ",
"S.A.:.:.A.A.h :.:.:.:.A.,.%.%.A.G.6.f.R.[ q 9 9 M P P J x j j j M P M X Z p.4.z.1.%.%.:.:.A.A.A.R B.$.$.%.R %.h %.%.%.%.",
"A.;.%.%.A.R A.:.:.:.:.:.:.:.S.,.E.4.O.=.S 5 + @ @ V 9.9.J x x J J 9.J . O N W k.8.1.%.%.%.%.:.%.A.A.%.%.%.%.%.%.%.S.%.A.",
"S.A.%.%.A.A.S.S.A.A.:.:.$.$.$.$.o.4.b.`.<.v . & ; m.`._.9.& & 9.j.@X_.P + G l.c.b.z.S.A.A.A.A.A.S.A.%.S.A.A.A.A.A.A.S.S.",
"T.S.A.A.A.A.A.S.%.A.A.R $.$.$.$.{ w.v.'.T.F k J 0.uXsXsXM.9.: 9.M.kXkX_.[ =.+Xb.b.R.A.%.%.%.A.S.A.A.S.S.A.S.S.S.S.S.S.S.",
"S.A.A.A.A.A.%.%.A.A.R A.h :.,.5./ Q ` 8.>.n c 9.n.sXDXDXsXn.e.n.uXDXDX$X7.>.Q.4.7.G.S.%.%.:.%.%.%.A.A.A.A.A.S.S.S.S.A.A.",
"R %.%.A.A.A.%.A.A.A.A.A.:.D.6.i.i o 5 7 7 p D d.aXsXNXMXsXn.n.M.aXlXlX$XL.^ 8.Q 4.z.D.:.:.,.S.A.A.%.A.A.S.A.S.S.A.A.A.A.",
"A.h :.%.h :.R %.A.A.A.A.S.6.i.Z H s g ~ ^ Z.L.Q.%XaXaX%Xj.K e.e.h.^.$XXXoX.X|.8.` ` z.,.:.:.S.S.S.S.A.S.S.A.A.S.%.%.R %.",
"A.A.:.R :.:.A.A.A.A.A.S.T.3.A H s g ^ I. X*X{.OXzXxXpX^.N x e.n.} 7.8X2X.X=X3XOXL.4.4.7.,.A.S.S.A.S.S.S.S.A.%.%.%.%.%.%.",
"S.A.S.A.A.A.A.A.A.S.S.S.f.} z T $.%.Z.Y.=X=X=X4XzXnXgX`.y + N C S 7.gXqX;X,X5X2X!.&.` 4.>.:.S.S.S.S.S.S.A.A.A.A.:.:.:.:.",
"S.S.S.S.S.S.S.S.S.S.S.G.5.=.n f #.C.K. X>X=X,XwXvXmXbX2X$.    5 s W.vXvX4X=X7X4X(.@.Q _ <.1.S.S.S.S.S.S.S.S.S.A.A.:.:.A.",
"A.S.S.S.S.S.S.S.S.S.D.y.=.F t w h V.K.=XyX,X>XwXyXmXjX2XW.T u $.E.oXjXvX;X{.<X2X(.*.7 i 4.7.S.:.A.A.S.S.S.S.A.A.A.A.S.S.",
"S.S.S.S.S.S.S.S.S.D.6.=.H b < > 6 V.U.<X<XwX=X*X5XeX-XJ.B.f 2 h C.U.3X=X{.{.4X5X!.! 7 s ) 3.f.,.A.S.A.A.A.S.A.A.A.A.S.A.",
"A.A.A.A.S.S.S.S.D.f.3.[ m v < w h Z.*X,X<XwX4X*X{.).].J.N.4 3 A.(.|.|.Y.{.=XwXeXoX7.7 i q _ 3.f.D.A.:.%.:.:.A.:.S.A.S.A.",
"A.A.A.A.S.S.S.S.6.3.{ I x , < u h Z.).,X<XwX7X4X.XY.].J.4 1 2 H.2X:X.X[.=X7XeX9XXXL.+._ B N ) i.T.,.%.%.:.:.:.:.A.A.S.S.",
"A.A.A.S.S.S.S.6.2.{ Z V V k , y :.C.P.;X:X5XyXyX9X9X1XJ.1 3 2 P.6X0X6X:X5XeX5X(.L.4.E.z.) N C ] s.6.:.:.A.A.:.:.:.A.A.S.",
"S.S.S.A.A.S.6.2.( N V ' g.-.k 0 e #.P.W.C.[.6XtXvXmX].N.1 3 2 H.6XtX6XqXyXeXoX#.7 D E.D.a...Z F I y.f.1.A.A.A.A.A.A.S.S.",
"A.S.S.A.S.S.G._ / B N g._.y., 0 s @.,.@.7 &.OX&X6XeXU.N.N.1 N.J.3XzXzXcXcX4XP.~ e _ R.:.1.-.] S H G =.6.D.A.S.S.S.A.S.S.",
"S.S.S.S.S.S.6.} ( i B ~.`.d.. v y D g a ! }.&XtX9X9XU.N.1 1 H.1XjXbXVXVXnX0XY.#.e H y.a.1.y.q.F M A O.E.D.S.S.A.S.S.S.S.",
"A.A.A.A.A.S.D.7.} Z Z g._.r.. , 8 y y a 8.#XvXnXxXgX).B.d N.).jXbXSXSXSXmXtX:X*.g i | y.d.y.0.G B } 5.G.D.S.S.S.S.A.S.A.",
"A.%.A.%.%.:.A.D.7.o./ ( U P . . n T T g /.0XmXVXSXCXdX!.g G.dXBXCXAXSXnXyX7X:XP.T u F m r.U A C _ 3.G.,.A.:.:.A.A.A.A.A.",
"S.S.S.%.%.%.%.%.>.5.o.( L P c k n u e u W.8XvXnXCXCXBXgX#X8XxXAXAXCXVXbXyX4X.XF.g w r b Y F J ) 5.1.A.%.%.%.%.%.:.:.:.:.",
"%.%.%.%.%.$.$.$.$.;.3.O.A c M c b Y f g >.XX&XhXNXCXFXVXxXMXZXAXCXCXMXxXqX;XI.! u t b b b M U 5.1.:.%.%.%.A.S.S.A.A.:.:.",
"%.%.%.$.%.%.$.$.%.%.:.5.-.I F v b Y Y T g 7.~./.%XhXlXBXZXFXGXCXMXhXhX%X/.Z.^ g w t Y b v U y.F.,.:.A.A.A.A.S.A.:.:.%.%.",
"%.%.%.%.%.%.%.%.,.,.:.,.a.s.-.M v b t u S S y S -.^.`.pXNXFXFXMXpX+X/.f.g 7 7 f t t r r S =.R.S.A.A.S.S.A.A.A.%.:.:.h %.",
"%.A.:.%.:.:.%.:.:.:.$.%.;.D.a.| F y v 9 9 z P F F +.=.g.iXNXFXpXE.@.U T a y e , < v 0 B } 5.G.S.A.A.S.A.A.A.A.A.A.A.B.%.",
"A.%.A.%.%.$.%.$.:.%.%.$.%.;.1.5.[ C l 9 @ @ , , r Y y H _.NXFX%X=.s n v w < > , k z Z ) 5.6.D.S.:.:.:.:.:.:.A.V.R A.%.:.",
"R %.%.%.$.$.$.$.%.S.:.%.$.%.%.,.<.[ N & k k , < > e D =.+XCXGX%X7.s p , > , 0 9 B A  .3.1.D.A.A.:.$.V.R %.%.R R A.R R %.",
"%.$.$.$.$.%.%.:.A.S.A.A.:.:.:.:.D.5.I l k 0 r 6 6 ! E.+XpXZXGXfX}.8.@.i 0 0 l V ] | 3.6.S.A.%.%.B.A.R %.$.$.%.%.h V.R %.",
"%.#.%.:.:.S.A.A.A.A.S.S.S.1.S.S.S.D.a.| 9 , 6 g V.(.gXBXVXCXVXxXzX&X}.8._ q N ] y.6.$.$.%.%.R %.h :.:.%.:.h R #.A.:.:.R ",
"B.R S.S.:.%.:.%.%.%.%.%.D.R.f.1.%.:.G.d.q 5 g P.oX9XvXnXnXnXbXvXtX0X}.` ` s.s.s.<.;.$.$.$.$.h %.A.R R %.%.A.A.A.A.A.A.A.",
"$.%.A.A.:.%.$.%.%.:.S.S.F.l.X.4.4.5.T.7.[ p ,.oX5X7XvXmXmXmXvXeX4X.X8.&.5.6.>.1.;.%.$.$.%.%.S.S.:.:.A.A.A.A.A.A.A.S.S.S.",
"$.%.A.S.:.:.:.:.:.S.S.1.G.l.X.X.X.} 2.=.) a C.oX5XwXyXyXyXyXyX<X*XI.! ! 3.1.%.%.R %.$.%.%.:.:.S.A.A.A.S.S.S.S.S.A.S.S.S.",
"A.A.A.A.A.A.A.%.S.S.A.%.%.6.z.X.E / / q + s C.)..X6XrXrXrX<X<X=XY.C.! 8 _ T.,.%.A.A.%.A.A.%.%.%.A.A.A.S.S.S.S.A.A.:.A.A.",
":.h A.A.A.A.%.A.A.S.S.A.A.:.;.$.4.l.) o + T R F.Y..X:X>X:X>X*X{.K.~ p u =.f.D.,.%.A.A.A.A.A.S.A.A.A.A.A.A.S.A.%.:.:.:.:.",
"A.A.A.A.%.%.%.%.%.S.S.S.S.A.:.:.1.G.@.o w T Y g *.L.I.I.I.I.P.C.~ 7 u H H [ a.,.h $.:.A.S.S.S.S.S.S.S.S.S.A.A.%.%.:.:.:.",
"A.R R V.R %.%.R %.S.S.S.A.S.S.S.D.s.` 8 a u u S +.&.&.! &.! &.+.p u m m F G } 3.1.:.R A.S.S.S.S.S.A.S.S.S.S.A.A.:.:.A.A.",
"R $.$.$.%.$.%.:.:.S.:.A.:.,.A.S.G.4.' i S n F =.=.+.+.+.@.+.+.+.T +.U M c G N l.5.$.%.:.S.S.S.S.S.A.S.S.A.A.A.A.A.S.S.S.",
"B.%.%.%.:.A.A.:.:.%.%.;.:.>.,.S.G.4.X.B B x =.j.T.G.G.G.G.G.G.G.T.R.d.9.c K ( l.a.>.:.,.S.D.S.A.S.S.S.A.A.A.A.A.A.A.S.S.",
"$.%.:.S.A.A.A.A.A.:.,.f.E.E.E.x.T.T.f.y.U V ' q.f.,.:.,.:.S.S.G.R.g.K & K p.v.~.E.v.x.x.x.f.G.S.A.A.A.A.A.A.A.A.A.S.A.A.",
"$.%.S.S.A.A.A.S.A.G.d.o.' ) ) G 3.d.x.~.j. .- ' i.>.%.%.%.:.:.f.s.] J 9.j.~.~.d.-.[ ) ] ' o.s.G.A.A.A.%.A.A.A.A.A.A.A.R ",
"%.%.A.S.S.S.A.S.1.s.w.- o # l N ] ..2.p.v. .= * o.s.,.:.A.S.6.4.' = O 0.g.g.q.=.U C q % # - 0.s.6.S.S.A.%.%.%.%.A.A.A.:.",
":.:.S.A.A.A.A.S.E.l.E * # + l I L V ; - ' ; X X ' u.6.,.S.6.l.' $ # O ; L ' = C U U c @ O - - w.6.D.S.S.S.%.%.%.A.A.A.A.",
"S.S.A.A.%.:.A.A.f.u.E # # = V ] ' N % = & ; & ; - - 3.T.D.x.W * - ; & : ; = l l C I V % - * * W 6.D.S.S.A.:.S.S.A.A.:.:.",
"S.S.:.;.%.%.%.%.T.l.X.o.O.2.q.i.t.y.2.O.q.q.t.q.q.O.d.G.D.E.k.w.o.q.q.q.t.2.2.2.t.p.u.q.q.w.q.w.6.D.S.S.S.S.S.S.:.:.:.:.",
":.A.A.:.%.A.A.A.D.6.7.7.6.6.6.1.6.6.1.6.6.6.5.a.<.5.1.,.,.6.a.5.5.<.<.a.a.<.6.<.6.5.6.5.6.5.7.6.D.S.A.A.A.S.S.S.S.:.:.:.",
":.:.:.:.A.A.S.A.A.A.:.A.A.S.A.A.%.%.%.A.,.A.A.:.S.S.:.:.:.:.:.%.:.:.A.A.:.A.A.A.A.A.A.S.S.A.:.%.%.%.%.%.%.A.S.S.S.A.:.:.",
":.R h :.%.:.S.S.S.S.A.A.A.A.S.A.%.%.R %.%.;.:.R %.%.%.%.%.%.%.$.R %.:.A.S.S.S.S.S.S.S.S.S.:.%.%.A.A.S.S.A.A.S.A.A.A.:.:.",
"%.%.%.%.R :.S.S.A.S.S.A.:.:.A.S.A.%.:.$.$.$.$.B.%.%.%.$.$.%.$.$.:.h :.S.S.S.A.S.S.S.S.S.S.S.A.A.S.A.S.A.S.S.S.S.S.S.:.:.",
"%.%.R A.A.A.S.A.A.A.A.A.%.%.%.A.A.A.S.S.:.%.%.%.%.$.$.$.%.%.%.%.:.:.A.A.S.S.S.A.S.S.S.S.S.S.S.S.S.A.S.S.A.A.A.S.S.A.A.A.",
"S.S.A.A.A.A.A.A.A.A.A.%.$.%.$.R %.%.A.A.A.A.S.S.%.$.$.$.%.S.A.A.D.A.A.A.A.A.A.A.A.A.A.A.A.S.S.S.S.S.A.A.A.A.A.h A.%.%.%.",
"A.:.A.A.A.%.R :.R A.A.%.%.%.:.h $.%.%.%.%.A.A.A.%.$.$.$.S.S.A.%.A.A.:.:.%.%.%.%.%.A.%.A.A.A.A.S.A.A.A.%.R A.:.h $.:.R %.",
"A.:.:.h %.%.A.:.S.S.S.A.S.A.:.A.%.%.%.%.%.%.%.%.%.$.$.%.S.S.%.%.B.R R :.%.S.S.,.S.A.A.%.%.%.%.%.R :.V.R %.R :.A.$.:.h %."
};
