/* XPM */
static char *result[] = {
/* columns rows colors chars-per-pixel */
"60 60 246 2 ",
"   c #3B1E15",
".  c #2C2918",
"X  c #3A271A",
"o  c #322F18",
"O  c #322A1D",
"+  c #37311D",
"@  c #3D2C21",
"#  c #382A24",
"$  c #3E2D2C",
"%  c #2C3622",
"&  c #3C3123",
"*  c #3A3925",
"=  c #3A3428",
"-  c #3E3232",
";  c #551804",
":  c #471D18",
">  c #431E1D",
",  c #571E1A",
"<  c #671908",
"1  c #771B05",
"2  c #532E0D",
"3  c #5A280B",
"4  c #462816",
"5  c #4B241C",
"6  c #4C2C1D",
"7  c #582717",
"8  c #542B14",
"9  c #532B1D",
"0  c #5A2D1B",
"q  c #45341A",
"w  c #4C331A",
"e  c #583717",
"r  c #52351C",
"t  c #66280B",
"y  c #642A11",
"u  c #752E10",
"i  c #673818",
"p  c #723A19",
"a  c #4B1E22",
"s  c #561E24",
"d  c #631E24",
"f  c #442522",
"g  c #4C2423",
"h  c #432B23",
"j  c #4C2B23",
"k  c #442B2C",
"l  c #4C2D2B",
"z  c #552223",
"x  c #5C2223",
"c  c #532B23",
"v  c #5B2926",
"b  c #592929",
"n  c #443323",
"m  c #4B3225",
"M  c #433C26",
"N  c #4C3C24",
"B  c #42352B",
"V  c #4B3529",
"C  c #433B2A",
"Z  c #4B3C2B",
"A  c #533523",
"S  c #563924",
"D  c #53342B",
"F  c #5B352B",
"G  c #533A2B",
"H  c #5C3B2D",
"J  c #512F33",
"K  c #483732",
"L  c #533E31",
"P  c #553936",
"I  c #622224",
"U  c #662C24",
"Y  c #643A24",
"T  c #70392A",
"R  c #37442C",
"E  c #3F5433",
"W  c #48421F",
"Q  c #594319",
"!  c #67441B",
"~  c #78461B",
"^  c #7D591B",
"/  c #4B4326",
"(  c #4B422D",
")  c #5B4727",
"_  c #53442E",
"`  c #5A502F",
"'  c #494534",
"]  c #4C4A33",
"[  c #554332",
"{  c #574536",
"}  c #5B4C34",
"|  c #5C4C39",
" . c #4E5537",
".. c #5C533B",
"X. c #585538",
"o. c #634B25",
"O. c #66462A",
"+. c #654B2A",
"@. c #77412D",
"#. c #7A432E",
"$. c #754929",
"%. c #6A5727",
"&. c #765829",
"*. c #664536",
"=. c #634B35",
"-. c #6B4D34",
";. c #634D3B",
":. c #6A4C3C",
">. c #774530",
",. c #7E4631",
"<. c #754C35",
"1. c #7C4A35",
"2. c #744E3B",
"3. c #7B4F39",
"4. c #63533C",
"5. c #6C543D",
"6. c #68593A",
"7. c #795837",
"8. c #75533D",
"9. c #7B523C",
"0. c #73593E",
"q. c #746125",
"w. c #756439",
"e. c #4C4648",
"r. c #574844",
"t. c #5D5B44",
"y. c #5D5754",
"u. c #655443",
"i. c #6B5543",
"p. c #635B42",
"a. c #6C5A43",
"s. c #69594B",
"d. c #745743",
"f. c #7C5541",
"g. c #745B44",
"h. c #7B5A43",
"j. c #775C4A",
"k. c #695752",
"l. c #6B6548",
"z. c #776447",
"x. c #76634B",
"c. c #7B634B",
"v. c #6D615C",
"b. c #7D6B54",
"n. c #767071",
"m. c #82391B",
"M. c #923410",
"N. c #884825",
"B. c #885729",
"V. c #995B27",
"C. c #804731",
"Z. c #814832",
"A. c #814F38",
"S. c #885937",
"D. c #83543D",
"F. c #A7532B",
"G. c #956A2A",
"H. c #896737",
"J. c #906B32",
"K. c #92663A",
"L. c #AA7537",
"P. c #B17533",
"I. c #825B43",
"U. c #845944",
"Y. c #866749",
"T. c #966A42",
"R. c #987649",
"E. c #846753",
"W. c #847957",
"Q. c #977B53",
"!. c #AC7C4C",
"~. c #867777",
"^. c #A17C64",
"/. c #C47640",
"(. c #7F8079",
"). c #9B863C",
"_. c #AC8739",
"`. c #B7883C",
"'. c #9B8454",
"]. c #AA8649",
"[. c #B88849",
"{. c #B3924A",
"}. c #AA8558",
"|. c #B98B57",
" X c #B99559",
".X c #8C8371",
"XX c #AF926E",
"oX c #BB9968",
"OX c #BBA470",
"+X c #D08F48",
"@X c #C8984A",
"#X c #C79857",
"$X c #D79C51",
"%X c #CDA44E",
"&X c #C9A759",
"*X c #D4A757",
"=X c #DAB35C",
"-X c #E9A75A",
";X c #E4B05F",
":X c #C79968",
">X c #C9A765",
",X c #D5AB66",
"<X c #D7B466",
"1X c #C6A677",
"2X c #D5AC75",
"3X c #CEB375",
"4X c #D8B778",
"5X c #E5BA67",
"6X c #E4BE7A",
"7X c #DBC26E",
"8X c #DCC47D",
"9X c #EAC06D",
"0X c #E6C577",
"qX c #F1C376",
"wX c #998F8D",
"eX c #AA998D",
"rX c #B8A78F",
"tX c #AB9FA2",
"yX c #B2ABAB",
"uX c #C3AD89",
"iX c #DBBA85",
"pX c #E4BC84",
"aX c #C7B9B1",
"sX c #DBC18E",
"dX c #D9C697",
"fX c #E6C68A",
"gX c #ECCC8B",
"hX c #F1CF8C",
"jX c #EACD95",
"kX c #EDD295",
"lX c #E3D29A",
"zX c #EAD39B",
"xX c #DED2A4",
"cX c #CFC5B8",
"vX c #E7D9A7",
"bX c #F1D8A6",
"nX c #ECDDB3",
"mX c #E9DCB4",
"MX c #F2DCB6",
"NX c #E8E0AE",
"BX c #E7E3B8",
"VX c #EAE4BB",
"CX c #F5E2B0",
"ZX c #D4C9C7",
"AX c #ECDEC1",
"SX c #E9E4C3",
/* pixels */
"Z.Z.Z.C.C.C.C.C.C.Z.Z.Z.Z.Z.Z.C.Z.C.Z.Z.Z.Z.Z.C.#.#.C.#.C.C.C.C.Z.C.Z.C.,.,.#.,.,.Z.C.C.,.C.C.Z.Z.Z.C.Z.Z.Z.Z.Z.C.#.#.#.",
"Z.Z.C.,.@.@.#.#.C.C.C.Z.Z.Z.Z.Z.Z.Z.C.Z.Z.Z.Z.Z.Z.Z.#.#.@.#.#.C.C.C.C.C.C.,.C.C.#.@.@.@.,.C.C.C.C.Z.Z.Z.Z.Z.Z.C.C.@.#.C.",
"C.Z.C.#.#.C.Z.C.@.#.C.C.Z.Z.Z.C.Z.Z.C.C.Z.Z.Z.,.Z.Z.Z.C.#.@.T #.@.@.@.#.@.@.@.@.@.@.@.@.#.C.Z.Z.Z.Z.Z.Z.Z.Z.Z.Z.C.C.C.C.",
",.,.C.#.#.C.Z.Z.C.C.C.C.Z.Z.Z.Z.C.C.#.Z.1.,.#.#.#.A.D.D.D.D.9.A.>.@.@.T @.1.>.@.@.@.@.@.,.Z.Z.Z.Z.Z.Z.Z.Z.Z.Z.Z.C.Z.Z.Z.",
"#.#.#.@.#.C.C.Z.Z.Z.Z.Z.Z.Z.Z.Z.C.#.>.7.h.D.>.,.1.8.d.5.0.a.a.g.9.C.>.1.<.0.<.@.C.#.C.C.Z.C.C.C.C.C.C.C.Z.C.C.C.C.Z.Z.Z.",
"#.@.@.@.@.#.Z.Z.Z.Z.Z.Z.Z.C.Z.C.C.C.1.l.l.0.9.f.g...M O o % % R j.3.I.h.l. .-.Z.C.C.C.C.C.,.#.#.#.C.C.C.C.C.C.C.C.C.C.Z.",
"@.@.@.@.#.C.Z.Z.Z.Z.Z.Z.Z.Z.C.C.Z.Z.A.l. . .a.u.m X X h + # & * L i.4.] R E -.,.C.@.@.#.@.@.,.,.C.C.C.C.#.C.#.#.#.C.#.C.",
"#.C.C.Z.C.Z.Z.Z.C.C.Z.Z.Z.C.C.C.Z.Z.D.Y.X.( ( D j f j J f f f l k { [ * % X.h.1.Z.#.,.#.,.C.C.C.C.C.#.C.#.#.C.T @.@.#.@.",
"Z.C.,.,.C.,.#.@.,.C.C.C.C.,.,.C.A.A.9.z.} 4 X f g l K P g f a g s P k . % | 6.0.9.>.#.#.,.C.C.,.#.#.@.@.@.@.@.T #.@.@.#.",
"Z.,.@.@.@.@.#.,.C.,.,.,.,.>.,.,.7.l.X.6.S 4   4 # - K K k g a a F P K O . = ] t.g.3.,.#.#.@.,.,.C.#.#.#.@.@.#.#.#.C.C.C.",
"Z.C.,.#.C.C.C.C.C.C.,.,.>.,.@.1.=.X.b..X0.e   X $ k.n.y.e.k k J v.~.v.K O * l.x.l.I.A.C.C.C.C.C.C.C.Z.Z.C.C.C.C.C.C.C.Z.",
"D.Z.C.Z.C.C.C.C.C.,.#.T @.@.@.1.+.] U.^.Y.)   k n.tXyXwX~.e.K k.tXyXtX~.r...W.W.z.D.Z.C.,.T ,.C.C.C.Z.Z.Z.Z.Z.Z.Z.C.Z.Z.",
"Z.C.C.C.Z.C.#.#.,.,.@.@.@.,.>.0._ + O.A.$.e X { eXcXZXaXyXn.y.(.cXZXZXeXh.6.z.w.w.H.1.@.,.,.,.,.#.C.C.C.C.Z.C.Z.Z.Z.C.C.",
"@.,.#.#.C.C.,.,.C.C.C.,.,.1.9.4.( 4 3 3 i e Q 6.eXcXZXcXyX~.n.(.tXyXaXuXH.w.q.%.) 0.D.1.,.Z.,.,.#.C.C.C.Z.Z.C.C.C.C.C.C.",
"@.T #.@.@.#.#.#.C.Z.Z.Z.A.D.4._ G i p ~ B.B.H.R.oXrXrXeXv.e.e.y.k.E.XX|.[. X].H.&.` d.9.C.Z.Z.Z.Z.C.C.Z.Z.C.C.C.#.@.@.#.",
"C.,.,.@.@.#.#.C.,.Z.C.Z.D.j./ G Y i N.L.[.#X X{.<XsXuX^.$ $ e.v.u.:.!.,X@X@X,XoXQ.0.} 0.7.C.Z.Z.Z.Z.Z.Z.Z.C.C.#.#.@.@.@.",
"Z.C.Z.C.Z.Z.C.C.Z.Z.Z.D.9.i.N U T N.V.P.@X$X#X&X8XlXdXXX/ . X V 6 -.:XfX*X$X<X>X}.7.) 6.0.A.Z.Z.C.Z.C.Z.Z.C.C.C.C.C.#.#.",
"Z.C.Z.Z.Z.Z.C.Z.Z.Z.Z.D.g.{ F U T N.V./.$X*X%X<X0XkXzXrXw.+   4 v Y.3XkX,X@X=X>X!.7.) ` 6.U.Z.Z.Z.Z.Z.Z.Z.Z.C.C.C.C.C.C.",
"Z.Z.C.Z.C.Z.Z.Z.Z.Z.A.D.5.V v I u m.V.+X=X;X=X=X0XgXsXOX'.&.! i U.!.2XfX,XP.&X<X].B.Q W X.Y.A.,.C.C.C.Z.Z.Z.Z.Z.C.C.Z.Z.",
"Z.C.Z.Z.Z.Z.Z.C.Z.Z.I.6._ F , , t ~ P.*X5X5X=X`.%X>X#X].L.J.~ y p S.|.:X`.P.*X<X{.! 2 q ` c.1.,.Z.Z.C.C.C.Z.Z.Z.Z.Z.C.Z.",
"C.C.Z.Z.Z.Z.Z.Z.Z.Z.0.X.Z c , , i B.`.%X=X5X<X%X`.`.!.#X&X:XK.u 3 y B.!.P.+X=X5X&XH.e w } z.D.1.Z.C.C.#.#.Z.Z.Z.C.C.Z.Z.",
"#.C.C.Z.Z.Z.Z.C.1.7.` _ j g z 5 Y S._.@X=X9X9X=X@X[. X2X4XiX:XU.< ; m.F.F.$X-X*X{.H.r 6 H =.D.A.C.C.#.@.#.#.#.C.C.C.C.Z.",
"C.C.Z.Z.Z.Z.Z.,.3.g.` S j 5 g 5 i &.G.%X=X9X9X0X4X3X4XfXfXjXfXXXi ; m.M.F.-X-X+XJ.+.q 6 A G d.D.C.C.#.C.Z.C.C.#.C.C.Z.Z.",
"Z.Z.Z.C.Z.Z.Z.,.<.4.} A 6 g > 5 8 ! G.=X5X9X9X0X0XhXhXjXjXjXiX1XT < 1 M.M.+X-X`.^ q m f g G ..7.A.#.@.C.C.Z.C.C.C.Z.C.Z.",
"Z.C.Z.Z.C.Z.Z.D.h.[ G A j V h 5 0 ~ L.$X5X9X9X5X=X4X0X4X4X&X&XoXK.y < 1 M.P.$X`.q.S d.L h N ( 6.1.@.@.#.,.Z.Z.Z.C.Z.Z.Z.",
"Z.Z.Z.Z.Z.Z.Z.D.g.D D G *.:.h 4 0 p G.$X5XqXqX9X<X<X<X&X,X4X4X3XoX#.< t M.!.*X`.q./ j.:.Z & B } -.#.#.#.Z.Z.Z.Z.Z.Z.C.Z.",
"C.C.C.C.Z.Z.D.9.| D m =.h.j.Z j 8 y N.!.,X6XhXhXgX8X3X3XiXjXzXzXiX!.B.^ N.@X&X_.q.W 0.g.} + n ( =.3.,.Z.A.Z.Z.Z.C.C.Z.Z.",
"C.#.C.#.#.Z.D.=.m D q :.U.f.;.D 9 y p V.+X2XgXNXCXNXvXvXmXMXMXMXnXdX>X{.`.=X&X).q.o.<.f.4.* B n ` h.,.Z.C.,.,.,.C.C.C.C.",
"Z.Z.C.C.#.#.9.-.V m n :.U.<.i.L m 0 3 i ~ L.OXdXvXBXVXVXAXAXAXAXnXvXgX8X7X7X].&.Q 0.<.,.2.t.H 4 ( a.>.,.@.#.#.#.#.C.C.#.",
"#.#.@.#.@.@.>.2.=.+ M ..d.D.3.:.G 6 2 3 i &.'.dXvXnXVXBXSXSXAXMXnXzXkXgX7X&XH.Q W %.9.9.3.i.F j ( 4.>.,.#.Z.Z.Z.Z.C.C.C.",
"#.@.@.@.@.@.@.9.g./ M ' ;.d.3.f.{ m w 8 e +.Q.sXlXvXNXBXSXSXVXmXvXzXlXgX8X&X&.w m H 8.d.8.| F m } l.Z.Z.C.C.C.C.C.#.#.@.",
"#.#.#.#.#.,.#.1.7.} M n ' | f.D.*.V w 8 8 7.oXiXkXlXxXBXSXBXBXmXlXzXkXfX4X Xw.r m D F *.=.D D G :.I.Z.Z.C.C.C.#.#.@.@.@.",
"C.C.,.#.C.,.#.C.A.f.} C m L :.i.H v 0 4 e T.2XiXkXzXxXmXVXSXBXNXlXkXgX8X3X'.%.+.` 9 v x v F V [ -.Z.Z.Z.Z.Z.Z.C.C.Z.#.#.",
"C.#.C.#.#.#.@.@.,.1.9.=.Z V c z c c 0 ; i S.:XpXjXjXxXmXBXBXNXNXlXgXfX4XoXq.Q / A 5 x I x b j 5.D.Z.#.Z.Z.#.#.@.@.@.C.#.",
"#.@.@.@.@.@.@.@.#.Z.3.8.| C n g x x , , 8 O.Q.1X3XsXxXNXVXBXnXbXjXjXfX1XQ.o.r r z , I I z j & 5.A.#.@.@.@.@.@.@.@.@.@.@.",
"@.@.@.@.@.@.#.#.Z.Z.Z.D.d.| Z j x y , 7 8 9 O.Y.Q.XXrXdXxXNXvXvXiX4X:XQ.-.r c x x d d I c n / <.1.@.@.@.@.@.@.@.@.@.@.@.",
"@.@.#.,.C.C.Z.C.C.C.C.C.D.I.| J z s I x 5 4 q 2 w -.Y.'.rXdXbXiX}.R.7.i 6 6 c b x I I z j Z 4.8.#.#.@.@.$.#.@.@.#.#.#.@.",
"T #.Z.Z.,.#.C.#.,.,.T ,.A.Y.c.:.b s I s 5 j A r e e i Q Y.uXdX1X&.i i Y Y F b a z x z 5 Z a.9.>.#.T @.#.#.#.#.C.C.C.C.C.",
"#.#.Z.C.#.@.@.@.#.,.1.C.D.b.t.K l g z s g :   4 w 2 2 2 w.1XiXoXi 3 y i 9 5     g 5 6 _ 6.9.,.,.C.C.C.C.C.C.C.C.Z.Z.Z.Z.",
"#.#.Z.Z.Z.,.C.C.C.C.Z.,.1.h.t.' B f > a a a : : 4 3 y p G.>XiX:X~ 2 2 8 : 5 f @ h V _ ;.9.1.Z.,.C.C.C.C.C.C.C.C.C.Z.C.Z.",
"#.C.C.C.C.C.,.,.C.C.C.C.@.,.g...' B h a a a z 5 g T #.K.!.:X,X XB.i e 0 5 f l h Z | 6.9.A.>.#.,.C.C.C.Z.Z.Z.C.C.C.C.C.C.",
"#.#.#.#.C.,.,.C.C.C.Z.C.C.#.>.,.8.i.u.@ > : s c *.U.!.:X:X:X#X].G.$.$.<.F 5 4 Z 5.f.1.Z.Z.C.C.C.C.Z.Z.C.Z.C.C.C.#.C.#.#.",
"C.C.C.C.@.@.@.#.C.Z.Z.Z.,.Z.Z.Z.Z.I.j.&   a c *.D.Y.T.K.T.T.H.S.! e Y -.O.5 A :.f.1.,.,.Z.Z.Z.Z.Z.C.Z.Z.Z.Z.C.@.#.C.C.C.",
"#.#.@.@.@.@.@.@.@.Z.Z.Z.Z.Z.Z.Z.A.d.X.* f l F Y +.+.o.o.o.+.o.o.e w r e v A N 4.I.>.T ,.Z.Z.Z.C.Z.Z.C.Z.Z.C.C.C.C.C.Z.Z.",
"@.@.@.@.@.@.@.#.,.Z.Z.#.,.,.Z.Z.D.0.' * h V H -.-.+.+.+.O.O.+.+.) O.) A j A M } U.@.,.,.Z.Z.Z.Z.Z.Z.C.C.Z.Z.Z.Z.C.Z.C.Z.",
"@.@.@.#.,.,.Z.C.,.#.#.#.,.<.1.1.D.h.] / V j G j.U.S.D.D.D.D.D.D.D.z.5.[ j D Z u.c.1.<.3.A.A.A.Z.C.C.Z.Z.Z.Z.C.Z.Z.Z.Z.Z.",
"@.#.C.Z.C.C.C.Z.,.,.1.h.z.z.z.z.h.D.j.j.| V Z r.h.9.#.C.,.C.A.A.U.x.] & l i.b.E.E.c.x.x.x.z.D.A.C.C.C.C.C.C.C.C.C.C.C.C.",
"@.#.Z.Z.C.C.Z.Z.Z.A.j.} M C / Z =.j.c.E.U.u.B C d.D.@.#.,.,.Z.3.s.L = Z j.E.b.x.u.K Z ' ' ( a.9.A.C.C.C.#.#.#.#.C.C.C.@.",
"@.,.C.Z.Z.Z.Z.C.3.h.p.* O + n + _ | { u.a.| = O | i.9.Z.C.A.I.d.r.k # K u.i.;.{ { V h @ @ O ] a.9.1.C.C.#.@.@.#.C.C.C.#.",
"C.C.Z.Z.C.C.C.Z.8.l.' = X X h V Z B @ * ' - O O = X.g.A.Z.D.a.e.- $ # $ K K @ q G L V @ X O *  .5.Z.Z.Z.Z.@.@.Z.C.Z.C.C.",
"C.Z.C.C.#.,.,.C.7.l.R % # & n Z [ Z n & * - $ = = R  .D.Z.z.X.% $ K - - B n n q N [ / & O = * ] 4.A.C.C.C.C.Z.Z.C.C.C.C.",
"C.Z.C.@.@.#.@.,.9.x.t.t.t.p.a.a.i.u.u.u.u.s.u.u.t.p.l.D.Z.z.x.t.t.r.u.u.u.i.4.i.6.p.p.4.t.t.t.l.9.Z.Z.Z.Z.Z.Z.Z.C.C.@.C.",
"C.C.C.C.,.C.Z.C.,.9.8.9.9.9.9.3.3.3.3.9.9.9.3.2.2.2.<.,.,.3.9.9.3.2.3.9.9.3.3.3.3.3.7.9.9.9.9.9.A.Z.C.C.C.Z.Z.Z.Z.C.@.C.",
"C.C.#.#.#.Z.Z.Z.C.C.#.Z.C.Z.Z.C.,.@.,.,.C.C.Z.Z.Z.Z.,.,.,.C.,.,.,.,.1.C.C.C.,.,.C.Z.C.C.Z.Z.#.#.@.#.#.#.#.C.Z.Z.Z.C.#.C.",
"@.T @.@.@.,.Z.Z.Z.Z.Z.Z.C.Z.C.C.@.@.@.@.@.@.,.,.#.C.#.,.#.#.@.@.T ,.,.Z.Z.Z.Z.Z.Z.Z.Z.Z.Z.C.#.#.C.C.Z.Z.C.C.C.Z.Z.C.#.C.",
"@.#.@.@.@.,.Z.Z.Z.Z.Z.C.Z.#.C.Z.C.,.,.@.@.@.,.T @.@.@.@.@.@.@.@.@.@.@.C.Z.Z.Z.C.C.Z.Z.Z.Z.Z.C.C.Z.Z.Z.Z.C.Z.Z.Z.Z.Z.C.C.",
"#.,.@.,.,.Z.Z.Z.Z.C.C.,.#.@.#.C.C.C.C.C.#.#.#.#.@.@.@.@.T #.>.,.>.,.Z.Z.C.C.C.Z.Z.Z.C.Z.Z.Z.Z.Z.Z.Z.Z.C.C.C.C.Z.Z.C.C.C.",
"Z.Z.C.C.C.C.Z.C.C.C.Z.#.@.@.@.#.@.C.,.C.Z.Z.Z.Z.#.@.@.@.,.C.Z.Z.Z.C.C.Z.C.,.C.C.C.C.C.C.Z.Z.C.Z.Z.Z.C.C.#.C.#.#.#.#.#.@.",
"C.,.,.@.,.@.,.T @.,.,.,.#.@.@.@.@.@.@.@.#.C.C.Z.,.@.@.@.C.C.,.,.#.,.,.@.,.@.,.Z.,.,.,.#.C.Z.C.Z.C.C.#.#.@.#.@.@.@.@.@.@.",
"C.,.@.@.@.,.,.C.Z.Z.Z.C.C.C.,.@.#.#.#.#.@.@.,.C.#.@.@.,.C.C.,.@.T @.@.,.,.Z.Z.Z.C.C.C.,.#.@.#.#.#.#.#.@.@.@.@.@.@.@.@.@."
};
