/* XPM */
static char *result[] = {
/* columns rows colors chars-per-pixel */
"60 60 252 2 ",
"   c #371F09",
".  c #3E1E17",
"X  c #2B2A1B",
"o  c #382616",
"O  c #312E17",
"+  c #3B251C",
"@  c #352A1C",
"#  c #3D2B1C",
"$  c #3C351E",
"%  c #2F2C21",
"&  c #3C2626",
"*  c #352C23",
"=  c #3C2B21",
"-  c #3C3424",
";  c #3A3528",
":  c #3F3736",
">  c #431D16",
",  c #4A1D1A",
"<  c #551E1A",
"1  c #730C04",
"2  c #6B1708",
"3  c #71170B",
"4  c #472A0D",
"5  c #5C2C0C",
"6  c #53330C",
"7  c #472613",
"8  c #4A2413",
"9  c #44231C",
"0  c #4C241C",
"q  c #442B1D",
"w  c #4C2B1C",
"e  c #522C15",
"r  c #5A2813",
"t  c #54241C",
"y  c #5C231C",
"u  c #532D1C",
"i  c #5A2B1B",
"p  c #49311B",
"a  c #55341B",
"s  c #593719",
"d  c #66270C",
"f  c #642916",
"g  c #683819",
"h  c #743A19",
"j  c #4B1D20",
"k  c #5F1F26",
"l  c #442322",
"z  c #4B2423",
"x  c #442D22",
"c  c #4C2B23",
"v  c #442A29",
"b  c #4A2A2A",
"n  c #542521",
"m  c #5B2324",
"M  c #532B23",
"N  c #5A2A26",
"B  c #423324",
"V  c #4B3325",
"C  c #443A25",
"Z  c #4B3A23",
"A  c #44342B",
"S  c #4B342A",
"D  c #433C2B",
"F  c #4B3B2C",
"G  c #543225",
"H  c #593824",
"J  c #55352A",
"K  c #5A322A",
"L  c #543C2D",
"P  c #5B3C2B",
"I  c #4C3533",
"U  c #463833",
"Y  c #573A32",
"T  c #612326",
"R  c #663726",
"E  c #753724",
"W  c #6C3A35",
"Q  c #3A4428",
"!  c #3D4335",
"~  c #57431B",
"^  c #67431B",
"/  c #78491D",
"(  c #45422B",
")  c #454429",
"_  c #4B432C",
"`  c #5A4425",
"'  c #52422C",
"]  c #574828",
"[  c #4B4533",
"{  c #484935",
"}  c #4D4C39",
"|  c #524432",
" . c #5C4535",
".. c #544A35",
"X. c #5A4A34",
"o. c #574439",
"O. c #59453B",
"+. c #534B3B",
"@. c #5C4D3B",
"#. c #545233",
"$. c #595339",
"%. c #5C523B",
"&. c #684727",
"*. c #644529",
"=. c #744B25",
"-. c #77412D",
";. c #7A432E",
":. c #6A562D",
">. c #765529",
",. c #674736",
"<. c #644C39",
"1. c #6B4D3B",
"2. c #7E4631",
"3. c #754B34",
"4. c #744836",
"5. c #7D4A34",
"6. c #7C4E39",
"7. c #62573B",
"8. c #64543C",
"9. c #6C533C",
"0. c #6A5A3C",
"q. c #75573A",
"w. c #74533C",
"e. c #7C533C",
"r. c #79633A",
"t. c #4B4B45",
"y. c #574944",
"u. c #5B5847",
"i. c #655447",
"p. c #6C5541",
"a. c #655C41",
"s. c #6D5A42",
"d. c #735543",
"f. c #7B5642",
"g. c #735A42",
"h. c #7C5A43",
"j. c #745749",
"k. c #755D49",
"l. c #7D5B49",
"z. c #6C5C57",
"x. c #696247",
"c. c #7C6249",
"v. c #786548",
"b. c #7A6754",
"n. c #717056",
"m. c #645F64",
"M. c #75726C",
"N. c #851B05",
"B. c #913210",
"V. c #88451B",
"C. c #874B26",
"Z. c #924120",
"A. c #85582A",
"S. c #95582D",
"D. c #804731",
"F. c #814832",
"G. c #824E38",
"H. c #82533C",
"J. c #875B38",
"K. c #A84F23",
"L. c #936733",
"P. c #986835",
"I. c #9C753B",
"U. c #A96430",
"Y. c #A4763C",
"T. c #B47C3B",
"R. c #815741",
"E. c #835C44",
"W. c #855D46",
"Q. c #856748",
"!. c #977747",
"~. c #826855",
"^. c #927352",
"/. c #A57C47",
"(. c #AC7A44",
"). c #B57D47",
"_. c #A87B52",
"`. c #8E766B",
"'. c #A7843D",
"]. c #A8844B",
"[. c #B78847",
"{. c #BC954E",
"}. c #A58557",
"|. c #B09058",
" X c #B7955B",
".X c #958468",
"XX c #A58B69",
"oX c #B4976A",
"OX c #B6A175",
"+X c #C68949",
"@X c #C8984C",
"#X c #C78D55",
"$X c #C59A58",
"%X c #D39C59",
"&X c #CBA658",
"*X c #D8A55A",
"=X c #DEB65F",
"-X c #E2AD5D",
";X c #C49F63",
":X c #CAA867",
">X c #D6A967",
",X c #D3AB6F",
"<X c #D6B868",
"1X c #C8A975",
"2X c #CBB277",
"3X c #DAB775",
"4X c #E3AC65",
"5X c #E9BA69",
"6X c #E4BB77",
"7X c #DAC26E",
"8X c #DCC47B",
"9X c #E6C569",
"0X c #E8C978",
"qX c #EDCD7D",
"wX c #97908C",
"eX c #A39996",
"rX c #BAA482",
"tX c #B9AA9A",
"yX c #BAB3B0",
"uX c #CBB48F",
"iX c #D7BB86",
"pX c #ECBF8F",
"aX c #D3BBA5",
"sX c #DAC488",
"dX c #DACF95",
"fX c #E6C885",
"gX c #E8CC85",
"hX c #F2CC88",
"jX c #EBD289",
"kX c #E4CB94",
"lX c #E7CB95",
"zX c #E3D49A",
"xX c #E8D79C",
"cX c #F2D89A",
"vX c #DEDAA5",
"bX c #D2C7BE",
"nX c #EACDA2",
"mX c #E8D8A7",
"MX c #F2DDAD",
"NX c #E5D9B7",
"BX c #EDDDB5",
"VX c #ECDDBD",
"CX c #F0DEBC",
"ZX c #EDE0B5",
"AX c #E6E2B8",
"SX c #EBE2BC",
"DX c #CFC7C5",
"FX c #DFD3CD",
"GX c #DCD6D6",
"HX c #EEDDC3",
"JX c #E5E4C3",
"KX c #EDE2C3",
/* pixels */
"F.F.D.D.D.;.D.D.D.D.F.F.F.F.F.F.F.F.F.F.F.F.F.D.;.D.D.;.D.D.D.D.F.F.F.D.2.;.;.2.2.F.;.D.2.2.D.F.F.D.D.F.F.F.F.F.D.;.;.;.",
"F.F.D.2.;.;.;.D.D.D.D.D.F.D.F.F.F.F.F.F.D.D.F.F.F.D.;.;.-.;.D.;.;.2.F.D.D.D.2.2.;.;.;.;.2.2.D.D.F.F.F.F.F.F.F.D.D.;.;.D.",
"D.F.D.;.;.D.D.2.;.;.D.D.F.F.F.F.D.D.D.D.D.D.D.D.D.F.F.D.;.;.;.E ;.-.-.;.;.;.-.-.;.E -.-.2.2.F.F.F.F.F.F.F.F.F.F.D.;.D.D.",
"2.2.D.;.D.D.D.D.D.D.D.D.F.F.F.F.D.D.;.D.5.;.;.;.;.F.G.F.G.5.5.5.-.;.-.-.;.-.-.-.-.;.-.;.2.F.F.F.D.F.F.F.F.F.F.F.D.F.F.F.",
";.;.;.-.;.5.F.F.F.F.F.F.F.D.F.F.D.;.;.6.e.5.;.;.2.e.e.h.R.h.W.R.H.D.;.;.q.6.3.;.2.2.2.D.D.D.2.2.D.D.D.D.F.D.D.D.F.F.F.D.",
";.-.-.-.E 2.F.F.F.F.F.F.F.F.F.D.D.D.H.0.$.J.6.f.k.a.) - C C _ 8.e.H.H.k.8.0.H.F.D.3.2.D.D.2.2.2.2.D.D.D.D.D.D.D.D.D.F.F.",
"-.-.;.;.;.2.F.F.F.F.D.F.F.D.F.F.D.F.J.%.Q 7.v.%.[ D @ @ + + B L 1.d.0.{ Q 7.E.F.D.;.;.;.;.E 2.2.2.D.2.2.2.2.;.;.;.2.2.2.",
";.2.D.F.F.D.F.F.D.D.F.F.F.D.D.D.D.F.W.9.Q ) $.( @ @ = M z , z l Y @.+.O % 8.E.G.D.;.;.2.2.D.F.F.D.D.2.;.;.2.2.E -.-.-.;.",
"F.2.2.2.2.2.2.2.;.2.2.2.2.2.2.5.G.H.R.Q.1.# - = A F I T k j j j b I A o { 0.r.e.;.;.;.;.D.F.D.F.2.;.-.E ;.E ;.-.-.-.-.;.",
"F.2.;.-.-.2.-.2.2.2.2.2.2.2.2.5.e.0.9.<.G 9 . + = = I b j & j b U A ; X O F #.0.q.5.;.;.;.;.;.;.2.2.2.2.;.;.;.-.2.;.;.5.",
"F.2.2.;.2.2.F.2.D.D.2.2.2.-.-.3.x.0.~.Q.,.t o . A i.M.m.I l v : z.M.z.v o _ x.n.x.3.D.D.D.D.D.D.D.D.5.2.D.D.D.D.D.D.F.F.",
"R.F.D.2.D.D.D.2.D.4.2.E -.-.-.3.x.7.`.^.E.u 7 C z.eXyX`.y.: I m.eXyXwXL q 8.n.n.x.q.D.;.;.;.D.F.D.D.F.F.F.F.F.D.F.F.F.F.",
"F.F.2.D.D.D.;.;.D.2.2.E 2.;.2.w.a.` 0.Q.J.~ o a.eXGXGXwXm.t.t.wXDXFXtXp.P r.!.r.Q.J.5.;.;.;.2.;.2.2.D.D.D.F.D.F.F.F.F.F.",
";.;.;.2.D.2.2.2.D.D.D.2.2.4.e.9.Z o 4 6 6 6 o v.tXFXGXaXwXM.m.eXyXbXaX`.>.>.:.~ v.e.G.3.5.F.F.D.2.;.2.D.F.F.D.D.D.D.2.2.",
"E 2.E ;.E ;.;.-.2.D.D.F.F.E.9.` a g g ^ =.A.>.^.OXtXtXwXn.t.t.m.M..XXX|.).U.V.d s w.e.2.;.F.F.D.D.D.D.F.F.D.D.2.;.;.E -.",
"F.D.4.;.2.2.2.2.D.D.F.F.G.9.] a g h C.U.(.[.'. X2XsXrXb.L : y.m.+.n.oX$X+XU.B.2 2 W d.e.;.D.F.F.F.F.F.D.D.D.D.2.;.;.2.-.",
"F.D.D.D.D.D.D.D.F.F.F.F.e.] Z s h C.S.).%X%X@X<X8XkXuXv.p o ' ..V Q.iX,X+XK.N.1 3 R 1.w.6.5.F.F.F.F.D.F.F.D.D.D.F.;.;.-.",
"F.F.F.F.F.F.F.F.F.F.F.6.k.<.H R ;.C.U.+X*X&X&X<XfXxXlX`.`       u ^.pX6X%XK.1 1 3 E R ' J.G.F.2.F.F.F.F.F.F.D.F.F.F.D.D.",
"F.F.F.F.F.F.F.F.F.F.F.e.8.L a f g V.U.#X-X*X&X7XgXcXsX1X!.^ ^ >.J.oXpXpX#XZ.1 1 3 E *.] 0.6.;.D.D.D.F.D.D.F.F.F.F.F.D.F.",
"F.F.F.F.F.F.F.F.D.G.e.s.<.H e 8 r V.).*X4X=X&X&X>X3X:X].I.P.P.P.P.).>X:XP.h 2 2 f 6 a ] ] 3.D.;.D.F.D.D.D.F.F.F.F.F.F.F.",
"D.F.F.F.D.F.F.F.D.H.0.%.Y u , 8 g A.#X-X-X5X*X{.[.|.[.[.[.{.@X{.'.[.[././ r 2 E J.R s ~ #.:.G.F.F.F.D.;.;.F.F.F.F.F.F.D.",
"D.;.D.F.F.F.F.D.F.E.8.C w 0 , e -.P.+X%X-X5X9X@X'.'.{.:X<X=X9X=X*X@XT.I.>.g E _.XXe.H a ] v.H.F.D.;.;.;.;.;.;.D.F.G.F.F.",
"D.D.F.F.D.F.D.5.e.1.<.J M < < i ;.C.T.*X5X9X9X9X&XOX7X8XqXjXqX9X0X<X:X;X X[.)._.W.H u G ] 7.q.F.D.D.;.D.F.D.2.5.e.e.D.F.",
"F.F.F.F.F.F.D.5.R.,.J K c > < y d V.T.-X9X5X9XqX0XqXjXjXjXqXqXqX0X3X:X3X6X5X%X(.-.w 0 q C { 0.R.;.;.;.D.D.F.F.R.w.,.F.F.",
"F.D.F.D.F.D.F.F.9.*.K K S + 9 y f C.[.>X9X9X9X7X7XgXfXpX6X<X>X<X3X8XsXgXhXqX%XY.&.,.P S A U a.f.;.;.-.;.2.F.F.E.8.L D.D.",
"F.F.F.F.F.F.G.H.X.Y J M ,.B x n f C.T.&X5X0X0X<X<X7X4X>X>X*X&X:X3XjXcXcXhX9X%XY.:.l.k.@.D F O.1.6.;.;.;.D.F.F.W.8.' F.F.",
"D.D.D.D.D.D.H.c...Z c K h.@.S z N g S.@X9X0XjXjXsX2X:X>X6XfXcXlXnXMXMXcXhX6X*XY.*.g.~.a.; S v  .h.2.2.D.F.F.F.R.g.<.F.F.",
"D.;.D.;.;.D.3.7...V L j.f.k.Y & m R C.].>X3XjXcXzXnXnXnXnXMXMXMXZXCXBXnXfXfX>XI.] r.h.1.) S & L d.H.F.5.D.D.D.F.H.e.D.D.",
"F.D.F.;.;.;.3.X.C - X.l.6.f.y.v c r g / L.{.sXxXMXBXVXSXHXVXVXKXSXBXmXxXfX2X].>.:.v.H.6.8.G V S F 6.2.2.;.2.;.;.F.G.5.D.",
"2.;.;.-.-.-.3.8.) - ' w.f.G.p.Y S 0 e 5 ^ L.OXkXZXSXSXJXJXJXJXSXZXmXzXzXsX XA.s ] q.e.e.h.J G A ; w.2.2.2.D.D.D.F.F.F.;.",
";.-.;.;.-.;.;.q.#.; F  .j.R.R.d.[ p e r g / |.sXmXAXAXJXJXJXAXNXmXzXjXjXfX].=.s a 8.q.h.d.L G F _ e.G.D.D.D.D.D.;.;.;.;.",
";.;.;.;.;.;.2.5.a._ C F | j.R.e.p.c u i g J.OXsXzXzXvXJXJXJXAXvXvXjXfXqX2X].&.6 p G 1.p.L L p F s.H.F.D.D.2.2.2.-.;.-.;.",
"2.2.2.2.2.2.;.2.e.s...- S  .d.d.,.M t r h _.2X8XdXzXvXAXHXKXAXvXxXjXfX6X:X!.:.q.w u G P J J q ' W.G.5.F.F.D.F.D.D.D.;.;.",
";.2.;.;.;.-.-.;.2.e.9...F J Y K G y r r R _.2X8XjXvXmXAXHXHXZXzXzXjXfX3X X>.&.0.0 t m N M M P 1.J.D.;.D.D.;.;.-.-.;.D.;.",
";.-.;.;.-.-.-.-.;.G.e.p. .V z t < T f f f H.oX2XsXlXmXKXKXSXBXvXzXlXiX:XP.^ s P t m k T n w 8.h.D.;.-.-.-.-.-.-.-.-.-.-.",
"-.-.2.E -.;.;.2.D.F.F.6.9.F M m T < k < t g Q.XXOXuXaXNXNXAXmXdXsXuX1X_.=.s a u m k k m M # 9.R.-.-.-.-.-.-.-.-.-.-.-.-.",
"-.-.2.2.2.2.D.D.D.D.D.5.e.g.P m m < < m N u a a ,.Q.XXrXdXNXxXiXOX}.Q.^ 6 e M T m k m z c _ 0.H.-.-.-.-.;.;.;.E ;.;.;.E ",
"-.;.D.F.2.2.2.2.;.;.;.2.5.c.k.,.0 m m t 0 M G K R R 3.q.XXkXiX|.r.*.&.s s H G n j n b S F 8.w.5.-.-.-.;.;.;.;.D.D.D.D.D.",
"-.2.2.D.2.E 2.;.;.2.2.F.6.x.z.O.& z n l > z z M K i e 5 !.iX3X!.^ e a a e 8 0 9 b b A F <.e.5.2.2.2.D.D.D.D.D.F.D.F.F.F.",
"-.;.2.F.2.2.4.2.D.D.D.5.6.a.u.! % l b l j . > > 0 i 5 5 (.,X3X(.^ 4 e 7 7 . > l v v F O.f.5.D.D.D.D.D.F.F.D.F.F.F.F.F.F.",
"2.;.D.D.5.2.2.2.D.F.D.2.;.c.%.} U ; & l l l w 8 o s ^ A.[.4X4X(./ 6 u 0 9 0 z z I o.p.W.G.2.E 5.D.D.D.D.F.F.F.D.D.2.D.D.",
";.;.;.D.2.2.2.2.D.D.F.D.2.F.3.9.z.i.I j . 9 9 e &.J.}. X;X>X%X(.A.3.6.W w 9 z I j.6.5.G.D.D.D.G.D.D.D.D.F.F.F.;.;.2.2.2.",
"D.D.2.;.;.;.2.;.2.F.F.F.F.2.5.G.R.h.| # . 7 e *.q.Q.!._._././.J.-.W W d.K 0 G d.d.4.2.5.F.F.D.D.F.F.F.F.F.F.D.-.;.2.2.2.",
";.;.-.;.-.-.E -.;.F.F.F.D.F.F.F.5.q...p 4 e H :.q.>.q.:.:.>.>.&.G M N W K c L l.2.E E 2.F.F.D.D.F.F.F.F.F.F.D.D.D.D.D.D.",
"E -.-.-.;.;.;.;.2.F.2.;.2.5.2.F.5.x.Q - p e *.*.*.` ` ] ] ` ~ H H K K n J G | a.4.-.2.2.F.F.F.F.F.F.F.F.F.F.F.F.D.F.F.D.",
"2.-.-.2.2.D.D.2.2.;.;.;.;.;.2.5.6.k.{ ; q q w.h.e.e.e.H.e.H.e.e.e.f.w.c q x _ a.3.-.;.2.D.F.F.F.D.D.F.D.D.F.F.F.D.F.F.F.",
"-.-.2.F.D.D.D.D.D.2.G.h.c.c.h.h.R.l.j.i. .B ' g.e.;.5.5.5.F.F.G.W.0._ - F %.s.Q.c.c.c.c.k.E.H.D.D.D.D.D.D.D.F.F.D.F.D.D.",
"-.2.F.F.D.D.F.F.F.H.f.a.X.%.<.9.f.j.b.b.j.L ; %.q.;.;.;.2.D.F.R.q...$ ( p.b.b.c.0.%.<.8.@.p.f.H.D.D.D.D.;.;.;.;.D.D.;.;.",
";.2.D.F.D.F.F.F.G.h.8.D @ + 9 p <.i.z.z.j.o.A D X.4.3.2.D.F.f.x.X.B = { b.b.i.@.' # o = @ ; a.h.6.D.D.D.2.-.-.;.D.F.D.2.",
"2.2.D.D.D.D.F.F.E.7.D = + & x J Y U U } o.D @ * [ a.H.F.F.e.x.{ A x + ; { [ C Z  .L V + @ * ( a.E.F.D.F.D.2.;.2.D.5.D.F.",
"2.D.D.2.2.-.2.F.W.) X X % X C _ A ; ; * - $ @ @ ; ! v.G.H.w.Q ; * & * & A ; = # B F - * * X X { Q.G.F.F.D.D.2.2.F.5.;.D.",
"5.D.D.2.-.2.2.5.Q.$.{ } } } $.%.$.y.t.+...X.X...#.$.c.H.H.g.+.+.} +.y.y.y.O.O.X.@.%.@.+.} +.{ %.W.F.D.F.F.F.F.F.D.5.;.D.",
"2.D.D.4.2.D.D.F.e.q.s.g.s.g.g.g.0.g.d.d.q.e.g.w.9.0.R.5.G.e.g.g.d.d.j.f.f.d.w.d.g.q.d.g.g.g.0.e.H.2.D.D.D.D.D.F.F.5.;.D.",
"D.2.2.;.;.2.F.F.F.F.F.F.F.F.5.2.;.;.;.2.5.5.F.5.F.F.F.2.;.D.D.;.2.2.D.D.F.F.D.D.F.F.F.F.F.F.F.;.;.2.2.2.2.2.F.F.D.D.;.D.",
";.E -.-.-.2.F.F.F.D.F.F.F.F.D.2.D.;.;.-.;.;.;.;.;.;.;.;.;.;.-.-.W -.2.D.F.F.D.F.D.F.F.F.F.F.;.;.2.D.D.F.D.D.D.F.F.D.2.D.",
";.2.;.2.E 2.F.F.F.D.F.F.F.;.5.2.D.D.;.-.-.;.-.;.-.;.;.-.;.;.;.W -.-.;.F.F.F.F.D.F.F.F.F.F.F.D.D.D.D.F.F.F.D.F.F.D.D.2.2.",
";.2.;.2.2.D.F.D.F.D.D.2.;.;.;.2.D.D.D.D.D.;.;.;.;.-.-.-.E 2.;.2.;.D.D.F.F.F.F.F.F.F.F.F.F.F.F.F.D.D.F.F.2.D.D.2.2.2.2.F.",
"2.5.2.2.D.D.D.D.D.D.D.2.2.E ;.-.;.;.D.D.F.F.F.F.;.-.-.-.2.D.5.F.F.D.D.D.;.D.D.D.D.D.D.D.D.F.F.F.D.F.D.D.2.2.2.2.;.;.;.;.",
"D.2.2.;.2.;.E 2.;.2.2.2.;.;.;.-.E -.;.;.;.;.5.F.2.-.-.;.D.D.2.;.;.;.;.;.;.;.;.D.D.D.;.D.D.D.D.D.2.2.D.;.-.-.-.-.-.-.-.-.",
"2.2.4.E ;.4.2.D.D.F.D.D.2.2.2.;.2.;.;.;.;.;.;.2.;.-.-.;.D.2.2.;.-.-.;.D.D.F.F.F.D.D.D.;.;.-.;.;.2.2.2.E -.-.-.-.-.-.-.-."
};
