/* XPM */
static char *result[] = {
/* columns rows colors chars-per-pixel */
"60 60 248 2 ",
"   c #3A1E18",
".  c #2F2719",
"X  c #36271A",
"o  c #3D231C",
"O  c #3C2C1D",
"+  c #3B301B",
"@  c #3A2825",
"#  c #3C2D24",
"$  c #2D3020",
"%  c #363724",
"&  c #3C3323",
"*  c #3D332B",
"=  c #3D3B2B",
"-  c #580C03",
";  c #4A180E",
":  c #5C1604",
">  c #441C16",
",  c #571813",
"<  c #610F04",
"1  c #651607",
"2  c #49260D",
"3  c #522C0C",
"4  c #4D370A",
"5  c #492717",
"6  c #43231C",
"7  c #4A241C",
"8  c #432C1C",
"9  c #53241C",
"0  c #542C1C",
"q  c #592B18",
"w  c #46321B",
"e  c #5C3213",
"r  c #5C331C",
"t  c #573819",
"y  c #67271C",
"u  c #67381A",
"i  c #763C17",
"p  c #481E21",
"a  c #442524",
"s  c #432C24",
"d  c #4C2B23",
"f  c #482928",
"g  c #4C2C29",
"h  c #542525",
"j  c #5C2423",
"k  c #532B22",
"l  c #5C2C23",
"z  c #532B2B",
"x  c #59282A",
"c  c #453425",
"v  c #4A3423",
"b  c #4B3C25",
"n  c #44332B",
"m  c #4B342C",
"M  c #463C29",
"N  c #4B3D2C",
"B  c #533425",
"V  c #533B23",
"C  c #5A3B24",
"Z  c #53342C",
"A  c #5C3528",
"S  c #523C2B",
"D  c #5D3A2A",
"F  c #522B31",
"G  c #483831",
"H  c #4B3D32",
"J  c #4E3E3A",
"K  c #553734",
"L  c #533E31",
"P  c #5A3C33",
"I  c #622C22",
"U  c #653725",
"Y  c #773A24",
"T  c #693F34",
"R  c #364328",
"E  c #3D4D35",
"W  c #59431C",
"Q  c #65431A",
"!  c #76471A",
"~  c #76551A",
"^  c #47462D",
"/  c #4C422B",
"(  c #594627",
")  c #52432B",
"_  c #5C502D",
"`  c #454435",
"'  c #4C4333",
"]  c #494B35",
"[  c #534334",
"{  c #5D4535",
"}  c #544A34",
"|  c #5C4B34",
" . c #534438",
".. c #534B39",
"X. c #594C3B",
"o. c #4B533C",
"O. c #5A573B",
"+. c #674527",
"@. c #764B26",
"#. c #77412D",
"$. c #7A432E",
"%. c #6B5028",
"&. c #785529",
"*. c #644B34",
"=. c #664937",
"-. c #7E4631",
";. c #764B36",
":. c #764C36",
">. c #7D4A34",
",. c #7C4E38",
"<. c #675738",
"1. c #64533C",
"2. c #6B533D",
"3. c #765337",
"4. c #74533D",
"5. c #7C533C",
"6. c #735A3D",
"7. c #7D6138",
"8. c #4F4642",
"9. c #5B4F47",
"0. c #485E43",
"q. c #5C5643",
"w. c #645542",
"e. c #6B5543",
"r. c #645A43",
"t. c #6D5B44",
"y. c #6A534E",
"u. c #69594B",
"i. c #735542",
"p. c #7C5642",
"a. c #745B43",
"s. c #7C5943",
"d. c #735C4B",
"f. c #7D5C4B",
"g. c #596543",
"h. c #686349",
"j. c #776447",
"k. c #73644A",
"l. c #7B624B",
"z. c #786353",
"x. c #71685A",
"c. c #7C706E",
"v. c #85361E",
"b. c #83481D",
"n. c #88541F",
"m. c #924F2B",
"M. c #855928",
"N. c #804731",
"B. c #814832",
"V. c #844F38",
"C. c #82533C",
"Z. c #84583B",
"A. c #A25E29",
"S. c #8F6A2E",
"D. c #896336",
"F. c #986A3B",
"G. c #97743A",
"H. c #A86E35",
"J. c #A67738",
"K. c #845640",
"L. c #825B43",
"P. c #826347",
"I. c #9B6743",
"U. c #99764A",
"Y. c #836956",
"T. c #8C765B",
"R. c #957858",
"E. c #A37945",
"W. c #B77B4D",
"Q. c #887761",
"!. c #957C71",
"~. c #A47969",
"^. c #C37D51",
"/. c #AD843A",
"(. c #B8863D",
"). c #98845C",
"_. c #AA8748",
"`. c #B88649",
"'. c #B38A4D",
"]. c #B99449",
"[. c #AC8A57",
"{. c #B98353",
"}. c #B48B52",
"|. c #BA9657",
" X c #BCA048",
".X c #AB9470",
"XX c #C69749",
"oX c #C38C54",
"OX c #D1995B",
"+X c #D0A54C",
"@X c #CDA45D",
"#X c #CAA85A",
"$X c #D5A959",
"%X c #D9AD5B",
"&X c #D8B15D",
"*X c #E3B95D",
"=X c #C99864",
"-X c #D49F60",
";X c #CAA968",
":X c #D6A967",
">X c #D2AD6C",
",X c #D1B26C",
"<X c #D9B468",
"1X c #C5AB7A",
"2X c #D5B473",
"3X c #D9B776",
"4X c #DCBD7B",
"5X c #E6B867",
"6X c #E4BC6B",
"7X c #E3BD7A",
"8X c #DBC37C",
"9X c #E5C16B",
"0X c #E9C577",
"qX c #E5C47B",
"wX c #989188",
"eX c #A79586",
"rX c #B19A8D",
"tX c #B9A992",
"yX c #B0A8A7",
"uX c #CB9F89",
"iX c #CDB68E",
"pX c #DABB83",
"aX c #C8AD98",
"sX c #C7BA9C",
"dX c #CEBCAC",
"fX c #DFC683",
"gX c #D8C597",
"hX c #E5C786",
"jX c #E4CC8A",
"kX c #EBCC8A",
"lX c #E9D28A",
"zX c #E7CC93",
"xX c #E9D496",
"cX c #ECD59D",
"vX c #F0D197",
"bX c #CEC5A7",
"nX c #D3CAB2",
"mX c #EAD8A6",
"MX c #F2D9A8",
"NX c #E4CFB1",
"BX c #E8DBB7",
"VX c #F4DDBB",
"CX c #EDE1AF",
"ZX c #E7E2BA",
"AX c #D9D2CC",
"SX c #EADEC3",
"DX c #E6E2C3",
"FX c #F2E1C7",
/* pixels */
"B.B.N.N.N.$.N.N.B.B.B.B.B.B.B.B.B.B.B.B.B.B.B.B.$.$.-.Y -.-.-.-.N.B.>.N.-.-.-.-.-.-.-.-.N.N.N.B.B.B.N.B.B.B.B.B.-.-.-.-.",
"B.B.N.-.$.$.$.N.N.N.N.B.B.B.B.B.B.B.B.B.B.B.B.B.B.B.-.-.-.-.-.-.-.-.N.N.N.-.-.-.#.#.$.$.N.B.N.N.B.B.B.B.N.B.N.N.-.-.Y -.",
"N.B.N.$.$.N.N.-.$.$.$.N.B.B.B.B.N.N.N.N.B.B.B.$.B.B.B.-.Y -.T Y #.#.#.#.$.Y -.-.#.$.Y #.T B.B.B.B.B.B.N.B.B.B.B.-.-.B.B.",
"-.-.N.$.-.N.B.N.B.B.N.N.B.B.B.B.N.N.$.N.B.$.$.$.$.B.Z.Z.K.C.C.V.-.#.#.#.$.;.;.Y #.$.Y >.-.B.B.B.B.N.B.B.B.B.B.B.B.B.B.B.",
"-.-.#.#.$.-.B.B.N.B.B.B.B.B.B.B.N.$.$.4.5.,.$.>.;.:.4.4.i.4.4.p.5.>.-.>.3.6.2.-.-.>.B.B.B.B.V.-.N.N.B.B.B.N.N.N.B.B.B.B.",
"Y #.#.#.Y -.B.B.B.B.B.B.B.N.B.B.N.N.>.g.h.j.5.s.f.1.= # # # & ^ a.Z.p.j.h.g.O.B.-.-.N.B.-.-.Y -.-.N.N.N.N.N.N.N.B.B.B.-.",
"#.#.$.$.-.-.V.N.B.B.B.B.B.N.B.N.N.B.>.<.o.] h.X.M $ X @ > a f s m =.r.] R E 1.B.-.-.T Y Y -.#.-.-.-.>.-.-.-.N.N.-.-.N.B.",
"-.>.-.N.N.N.N.N.N.N.N.B.B.N.N.B.N.B.Z.l.O.% ^ M * # n F h p p g g [  .% $ g.j.K.,.-.N.$.B.B.B.B.N.N.-.>.Y -.Y Y Y -.Y T ",
"-.-.-.-.-.-.-.Y >.-.B.N.-.-.-.N.B.C.p.L.| O X O # n J F F p p p g K G X X X.h.6.5.-.$.$.-.B.N.B.-.-.-.T T -.Y T Y Y -.-.",
"B.-.#.#.-.Y #.>.-.-.-.-.-.-.-.-.5.a.2.e.C 6   o @ # 8.J f @ @ @ F F m @ . % ^ O.k.5.-.$.$.$.$.$.-.Y -.-.-.Y -.-.N.-.-.-.",
"B.-.-.-.-.-.B.B.B.B.-.-.$.#.$.,.=._ T.T.p.B o   @ y.c.9.8.* @ F y.Y.z.P o w r.x.O.a.C.N.N.N.N.N.N.N.N.N.N.N.N.N.-.B.-.B.",
"K.B.-.-.B.B.N.B.B.Y N.T #.#.$.5.*./ l.~.Y.D o n x.wXyXwXc.8.* y.eXyXrX!.{ *.P.).j.j.V.-.$.$.-.N.N.N.N.N.B.B.B.N.B.B.B.B.",
"B.B.B.N.B.-.Y -.N.-.Y -.T -.>.4.) + +.s.>.r 8  .wXdXAXdXyXc.8.y.rXaXdXaXs.@.7.P.j.j.V.$.$.-.-.-.-.N.N.N.N.B.B.B.B.B.B.B.",
"Y -.-.-.B.-.N.-.N.N.N.-.-.B.p.1./ 2 3 e e e t 6.wXAXAXAXyXwXy.y.L.~.uXaXI.M.&.Q _ j.Z.B.-.N.N.-.B.Y N.N.N.B.B.B.B.-.-.-.",
"-.T $.Y Y -.T $.N.B.B.B.V.s.<.( B u u ! b.M.F.U.eXaXtXrXY.T F F y y m.^.W.{.W.I.4.q.t.s.>.B.B.B.B.B.B.B.B.N.N.V.-.$.T -.",
"-.-.$.$.-.$.-.N.N.B.N.B.,.d./ V u i b.A.`.oX`.oX1XiXaX~.K p x j 1 1 v.^.oXOX:X=XR.d.q.u.s.B.N.B.B.B.B.B.B.N.-.Y Y -.Y -.",
"B.N.N.N.B.B.N.B.B.B.-.V.p.1.( r Y m.m.H.XX+XXX$X4XzXgX.XP ; , - < < v.^.-XOX&X,X[.j.} O.s.,.B.B.B.B.B.B.B.N.N.N.B.$.$.#.",
"B.B.B.B.B.B.B.B.B.-.V.K.i.{ A y i m.A.(.XX+X+X%XqXcXxXtX4., - - < - i =X:X@X X,X[.7.( t j.C.V.B.B.B.B.B.B.B.B.B.B.N.N.N.",
"B.N.B.N.B.B.B.B.B.B.K.4.P B 7 q i b.A.XX%X*X+X&XqXvXzX1XU.Y - - - 3 m.=X:X].XX<X_.S.W t ) a.5.-.N.B.B.B.B.B.B.B.B.B.B.B.",
"B.B.B.B.B.N.B.B.B.B.L.*.f k 7 2 3 i H.$X5X6X&XXX@X:X=X_.D.! 1 1 : i I.=X`.J.XX*X|.M.e 5 V ) a.K.N.N.N.N.N.B.B.B.B.B.B.B.",
"N.N.B.N.B.B.B.B.V.K.1.[ m a 6 2 e M.{.;X<X6X<X].'.'._.]._.F.b.i ! D.E.{.J.XX%X9X;XG.( 2 w M | a.Z.B.N.$.$.N.N.N.B.B.B.B.",
"$.N.N.B.B.B.B.B.5.t.} M c 6 6 5 Y Z.{.=X<X7X4X;X|.'.'.#X2X;X`._.[.}.|.`.XX$X9X3X|.U.%.W b b N X.s.5.>.$.$.$.$.N.N.N.B.B.",
"N.N.B.B.B.B.B.5.4.| b M & o 7 q U V.I.oX:X3XhXfX3X>X,X8XjXjXhXlXhX8X:X:X$X5X<XXXG.6.6.j.w.N M N | j.5.N.N.N.N.N.$.N.N.B.",
"B.B.B.B.B.B.L.2.[ v w ) w.w.k 9 I Y I.F.Z.G.;XhXjXjXlXlXlXlXjXjXhX7X3X:X7X7X$XS.W W <.Z.5.2.S v ) | a.C.N.N.N.B.B.N.B.B.",
"B.B.B.B.B.B.L.1.= B B i.z.k.v 9 l Y >.@.Q ~ _.>X3X7XkX9X6X<X#X,X,XfXfXhXzX4X}.~ u C ;.K.,.5.| b v S } *.Z.B.N.N.B.B.B.B.",
"B.B.B.B.B.B.L.2.M Z P L.T.z.8 2 k U u e Q M.|.3X2X2X<X%X%X:X>X,X3XzXmXmXMXpX}.@.U S =.i.5.C.*.) v v ^ 1.Z.B.B.B.B.B.B.B.",
"B.B.B.B.B.B.L.a.X.) P a.Y.h.O   7 9 r 3 ~ _.kXkXpX3X;X;X<XhXkXcXmXMXCXCXcXhX1XE.r B [ w.p.f.*.) V w | 4.Z.B.N.B.N.B.B.B.",
"B.B.-.$.$.$.B.C.a.X.N  .X.S   2 l I U 4 7.1XlXxXMXcXxXxXmXMXVXVXVXBXCXmXjX7X:X}.Q w d Z T T D B b 1.6.C.B.-.-.N.N.N.N.N.",
"C.B.B.$.$.$.$.$.,.e. .' L G z p 9 I l 3 6.1XjXmXmXmXCXZXBXVXSXFXZXBXmXmXfX4X@XJ.Q 0 k z x U k B | 3.,.-.$.$.$.$.$.N.N.$.",
"5.>.$.$.$.$.#.$.$.,.2.} G F F x h j q q %.).1XiXbXZXZXDXZXDXSXFXZXCXmXmXgX;X'.M.e 0 x x x k B *.4.>.$.$.$.B.B.B.B.N.N.N.",
"5.-.$.#.$.$.#.#.Y >.K.e. .K F F j j I I u 3.T.).1XbXnXAXDXDXDXBXmXgXfXtX)._.D.@.0 , j x k 6 { s.V.-.N.N.N.N.N.N.N.$.$.#.",
";.-.$.$.$.$.$.$.N.B.-.,.p.e.K F h j I U A t ( / <.Q..XrXbXSXDXBXsX.X).).%.t q r l h h x g O *.C.B.B.B.B.B.N.N.$.#.$.#.#.",
">.-.-.-.-.>.-.>.-.-.Y >.;.K.p.P f 9 j 9 7 7 B B D =.=.d.eXbXDXbX).<.%.+.U r t 9 7 h h d s 1.6.V.N.N.N.N.N.N.B.B.-.$.$.$.",
"-.-.$.$.-.#.Y $.-.-.-.-.Y ;.K.i.*.k d 7 6 6 6 5 k l k S Q.yXBXbX<.w t r 9 0 7 > 6 a s m *.s.C.B.N.N.N.$.N.N.$.$.$.$.$.N.",
"#.-.$.$.Y #.Y T T B.N.Y -.Y Y p.3.) c 8 o 6 >   2 0 0 V Q.sXBXsX<.t q q ; > 6 6 o n N | s.V.B.N.N.$.$.#.#.#.#.Y #.#.$.$.",
"#.#.#.Y $.-.-.-.B.B.N.N.>.-.-.-.C.a./ s 6 a 7 5 5 r *.z..XdXVXgXU.&.+.q , > a # * ' q.a.,.>.$.$.#.#.#.#.#.#.#.#.#.#.#.#.",
"#.#.-.-.-.-.-.-.N.B.N.N.N.B.B.B.B.5.s.N 8 6 9 5 u D.=XdXNXMXMXMXpX;X[.s.A s a * q.i.:.$.#.$.#.#.#.#.#.#.$.$.$.Y #.$.$.#.",
"#.#.B.B.-.-.-.-.-.$.$.$.,.L.K.,.-.-.5.*.v 2 t M.E.|.7XMXMXMXkXkXhX3X|.7.( *.e.w.i.:.$.#.#.#.#.#.#.$.#.#.$.$.$.N.N.N.N.N.",
"#.#.-.-.-.Y $.-.$.-.-.B.Z.z.u.2.2.5.,.4.) w Q E.=X5X0XvXvXkXqX9X5X@XJ.~ %.4.s.p.,.#.#.#.$.$.$.$.$.N.$.N.N.N.N.N.B.B.N.N.",
"#.-.B.B.-.-.>.-.-.-.B.B.5.h.0.0.0.w.4.i.*.t @.{.:X5X6X0XqX0X9X9X$X`.&.W 6.5.$.$.#.#.$.$.$.$.B.B.N.B.B.B.B.B.B.B.B.B.B.B.",
"#.-.-.-.N.N.-.-.N.B.N.-.-.3.g.o.E = H N 8 0 @.H.XX*X9X9X9X9X9X$X(.A.~ 4 _ :.>.-.-.-.$.-.-.-.-.-.N.N.N.N.B.B.N.N.B.B.N.N.",
"-.-.-.-.N.-.$.-.N.B.B.N.-.>.:.4.1.9.J m 8 3 @.m./.(.&X&X,X&X#X'.J.n.u t ) 4.Z.N.-.-.-.-.B.B.-.-.N.N.N.B.N.B.N.N.$.$.$.N.",
"-.-.-.-.-.#.#.$.-.B.B.B.B.B.B.B.5.p.e.m d l U ! n.G././._._._.G.M.Q q I t *.4.5.#.#.-.-.B.B.-.B.B.B.B.B.B.B.N.@.$.N.$.N.",
"-.Y -.#.#.Y #.#.$.B.B.N.B.B.B.B.B.V.d.Z x x I t Q ~ &.&.&.&.&.%.t e q l A Z { a.;.#.#.-.V.B.N.B.B.N.B.B.B.B.N.N.N.N.N.N.",
"#.#.#.#.$.$.#.-.-.B.-.$.-.-.B.B.V.s.` n z F B A W W W W W W ( ( C S A h x P H } 4.>.$.>.N.N.N.N.N.B.B.N.B.B.B.B.N.B.B.B.",
"#.#.#.-.-.-.B.-.-.$.$.$.$.#.$.$.C.a.R G G F P i.5.:.>.3.3.5.,.>.:.5.4.P z g M ` a.>.$.$.N.N.B.N.B.N.B.B.N.B.N.B.B.B.B.B.",
"Y T >.-.N.N.B.B.-.-.B.5.5.s.s.Z.K.5.w.9.J n N e.5.>.-.>.>.B.V.V.K.s.e.m m J w.h.Y.l.s.s.L.L.Z.B.N.N.N.N.N.N.N.N.N.N.N.N.",
"-.-.B.B.N.N.B.B.B.B.5.e.r.t.r.e.4.5.l.f.e. .* ' 2.,.$.$.-.$.-.V.5.1.[ s { k.z.Y.z.d.e.2.e.r.a.C.N.N.N.$.N.$.$.$.N.N.N.#.",
"-.-.N.N.B.B.N.B.>.5.t.' # n @ n [ e.e.f.f.e.& X | p.-.N.N.B.V.5.1.^ & c f.Y.z.u.} M s O O X ..t.5.B.B.N.$.$.$.$.N.N.N.N.",
"-.-.N.N.N.N.N.B.,.k...# @ @ a G  .L n ..9.' . . M 1.p.B.B.B.6.O.+ + X . 8.X.' ' [ S v 8 O . = 8.j.,.B.N.N.$.$.-.N.N.N.N.",
"B.B.B.-.-.$.-.N.:.q.= @ @ @ @ ` H & & & * * $ $ % ] 1.>.B.4.O.R % & @ @ * G * + w V b w X X $ E g.>.>.B.B.-.-.B.N.N.N.N.",
"B.B.-.-.Y $.-.-.:.q.] H G J  ...../ / S ' ` ` ` ` o.q.;.B.6.g.^ ] } J J J J ' / / _ _ / b ` J o.r.>.N.N.B.B.B.B.N.N.#.N.",
"-.-.-.-.>.-.B.B.,.l.a.t.a.d.t.a.t.t.6.a.a.a.t.u.t.k.a.>.$.5.j.u.d.e.d.d.d.y.i.a.a.6.6.6.a.e.d.d.j.V.N.N.N.B.B.B.B.N.#.N.",
"B.-.-.>.-.-.B.B.B.B.>.>.>.>.,.-.$.$.-.>.B.>.>.>.>.,.>.>.B.>.,.>.>.>.-.B.>.>.>.B.B.>.,.>.,.>.>.B.$.$.$.$.$.B.B.B.B.N.$.B.",
"Y -.-.Y -.-.B.B.B.B.B.N.B.>.B.N.$.$.$.#.$.$.$.$.$.$.$.$.$.$.-.#.Y #.-.N.B.B.B.N.B.B.B.B.B.-.-.T N.N.N.B.N.B.N.B.B.N.$.N.",
"T $.-.Y T Y V.B.B.N.B.N.-.-.N.B.N.>.$.#.#.$.#.$.#.$.$.#.#.$.Y $.#.#.$.B.B.B.B.B.B.B.B.B.B.B.N.B.B.B.B.B.N.B.N.B.B.B.N.N.",
"-.Y -.-.-.B.B.B.N.N.N.-.Y -.-.N.N.B.B.>.$.$.$.$.#.#.#.#.$.#.$.$.-.-.>.B.N.B.N.B.B.B.B.N.B.B.B.B.B.B.N.B.N.N.N.N.N.N.N.N.",
"B.B.B.-.N.N.N.N.N.N.N.-.-.T T $.$.$.N.N.N.B.B.B.$.#.#.#.$.N.N.N.-.-.B.B.N.>.N.N.N.N.N.N.B.B.B.B.N.B.N.N.$.N.$.N.$.#.#.#.",
"B.-.-.-.N.-.-.Y Y -.-.-.Y -.$.Y #.#.#.#.$.N.N.N.$.#.#.$.B.B.N.$.-.-.-.Y Y -.-.N.-.-.-.-.>.B.B.B.N.B.N.#.$.#.#.#.#.#.#.#.",
"B.B.Y T T -.-.N.V.B.N.N.>.-.-.-.$.$.$.$.$.$.$.N.N.#.#.$.B.B.$.#.T Y -.>.N.B.B.B.N.N.-.-.Y -.-.Y $.$.#.#.#.#.#.#.#.#.#.#."
};
