/* XPM */
static char *result[] = {
/* columns rows colors chars-per-pixel */
"60 60 238 2 ",
"   c #2B180C",
".  c #38180E",
"X  c #2D1B12",
"o  c #371B18",
"O  c #2E2417",
"+  c #382516",
"@  c #3D261B",
"#  c #3B2B1A",
"$  c #3E331D",
"%  c #3B391E",
"&  c #3D2D22",
"*  c #3D3925",
"=  c #441A16",
"-  c #4F1E1C",
";  c #531D1B",
":  c #532D0C",
">  c #442415",
",  c #4A241B",
"<  c #452819",
"1  c #4C2C1D",
"2  c #562617",
"3  c #5C251E",
"4  c #542B1B",
"5  c #5B2B1B",
"6  c #45311C",
"7  c #4A3419",
"8  c #4C341D",
"9  c #553817",
"0  c #54321D",
"q  c #5A321B",
"w  c #632A18",
"e  c #6C331A",
"r  c #673819",
"t  c #75381A",
"y  c #491E20",
"u  c #541F22",
"i  c #5A1E22",
"p  c #4C2523",
"a  c #472D24",
"s  c #4B2D23",
"d  c #532422",
"f  c #5C2423",
"g  c #532C23",
"h  c #5C2D24",
"j  c #58282A",
"k  c #5A2C29",
"l  c #443323",
"z  c #4C3223",
"x  c #453D25",
"c  c #4C3924",
"v  c #46362C",
"b  c #4B3329",
"n  c #423E2B",
"m  c #4D3D2C",
"M  c #543424",
"N  c #5C3325",
"B  c #533A25",
"V  c #5C3A26",
"C  c #533429",
"Z  c #5D352B",
"A  c #533B2A",
"S  c #5C3B2B",
"D  c #583C32",
"F  c #622B23",
"G  c #642826",
"H  c #642C2B",
"J  c #6A2D2B",
"K  c #633325",
"L  c #693727",
"P  c #64342B",
"I  c #623A2A",
"U  c #723B2B",
"Y  c #692D32",
"T  c #673B31",
"R  c #4B401E",
"E  c #5B451B",
"W  c #654817",
"Q  c #794619",
"!  c #6F511C",
"~  c #4C4226",
"^  c #494627",
"/  c #46422B",
"(  c #4C422C",
")  c #54422B",
"_  c #594728",
"`  c #5C432C",
"'  c #4B4735",
"]  c #554532",
"[  c #5B4533",
"{  c #554B33",
"}  c #5C4C34",
"|  c #5D4C39",
" . c #595337",
".. c #6A472A",
"X. c #764C24",
"o. c #77412D",
"O. c #7A432E",
"+. c #6A5125",
"@. c #74552B",
"#. c #624534",
"$. c #624C35",
"%. c #674839",
"&. c #6A4E3A",
"*. c #7E4631",
"=. c #764A34",
"-. c #754A36",
";. c #7C4B34",
":. c #7C4E38",
">. c #645236",
",. c #695A33",
"<. c #64523B",
"1. c #6C533C",
"2. c #65593B",
"3. c #6D5A3E",
"4. c #765834",
"5. c #74533C",
"6. c #7C543C",
"7. c #73593D",
"8. c #7A593D",
"9. c #696933",
"0. c #776638",
"q. c #5F4F40",
"w. c #6C5542",
"e. c #6A5A44",
"r. c #745542",
"t. c #7B5642",
"y. c #745B43",
"u. c #7B5B43",
"i. c #7C5E4A",
"p. c #7B6547",
"a. c #6C6B5B",
"s. c #844824",
"d. c #895329",
"f. c #935C2C",
"g. c #804731",
"h. c #814832",
"j. c #814E38",
"k. c #81523B",
"l. c #85543A",
"z. c #935D33",
"x. c #89602E",
"c. c #95662E",
"v. c #84693B",
"b. c #A3753B",
"n. c #AC7B3E",
"m. c #B17B3E",
"M. c #815B43",
"N. c #815A45",
"B. c #836946",
"V. c #887642",
"C. c #9A7A4B",
"Z. c #9B6954",
"A. c #9C7A58",
"S. c #A26F4A",
"D. c #AB7942",
"F. c #B27F44",
"G. c #8E8653",
"H. c #998756",
"J. c #A7884D",
"K. c #B6874B",
"L. c #B5964C",
"P. c #A78C5A",
"I. c #A7955C",
"U. c #B6975C",
"Y. c #BBA75D",
"T. c #918368",
"R. c #9F986D",
"E. c #A58965",
"W. c #A89869",
"Q. c #B99769",
"!. c #AEA36A",
"~. c #BDA366",
"^. c #ACA370",
"/. c #BAA674",
"(. c #C5924F",
"). c #C68E59",
"_. c #C99854",
"`. c #C8A55B",
"'. c #D5A95A",
"]. c #CBB058",
"[. c #CA9F66",
"{. c #C8A967",
"}. c #DAAC61",
"|. c #DDB362",
" X c #D9B86A",
".X c #C5AA75",
"XX c #CCB778",
"oX c #D0B170",
"OX c #D3B475",
"+X c #D9BB78",
"@X c #E3B965",
"#X c #E3BD6C",
"$X c #EABE6C",
"%X c #E3B570",
"&X c #E3BC74",
"*X c #E5C55D",
"=X c #DEC668",
"-X c #DDC879",
";X c #E5C567",
":X c #E4C36D",
">X c #E6C373",
",X c #EBC473",
"<X c #E5CA75",
"1X c #E9CC73",
"2X c #E4C67C",
"3X c #EAC47C",
"4X c #E4CB7A",
"5X c #ECCD7C",
"6X c #E8D17E",
"7X c #BDAE83",
"8X c #CAB787",
"9X c #CDBD90",
"0X c #E0B981",
"qX c #D1BEA3",
"wX c #DBC787",
"eX c #D7C797",
"rX c #E5C582",
"tX c #E5CB83",
"yX c #EBCC84",
"uX c #E5CD8D",
"iX c #EACE8C",
"pX c #F1CD87",
"aX c #E5D284",
"sX c #EDD286",
"dX c #E3D28C",
"fX c #EBD18E",
"gX c #F1D48B",
"hX c #E6C596",
"jX c #E2CD94",
"kX c #E5D393",
"lX c #ECD494",
"zX c #E5D49B",
"xX c #E9D599",
"cX c #EBD899",
"vX c #D7C9A5",
"bX c #E7D5A9",
"nX c #EDD7AF",
"mX c #ECE0BB",
/* pixels */
"h.h.h.g.g.O.g.g.h.h.g.g.h.h.h.h.h.h.h.h.g.h.h.g.O.g.*.O.g.g.g.g.g.g.g.g.*.*.O.O.g.h.g.g.g.g.g.h.h.h.h.h.h.h.h.g.g.O.O.g.",
"g.h.g.O.O.O.O.g.g.h.g.h.h.g.g.h.h.h.h.h.h.h.h.g.g.h.O.O.O.O.O.*.*.*.g.g.g.*.g.O.O.O.O.U O.g.g.g.h.h.h.h.h.g.h.h.g.o.O.O.",
"g.h.g.O.O.g.g.g.O.O.O.g.g.g.h.h.g.g.g.g.g.g.g.*.g.h.g.O.O.o.O.O.o.O.o.O.O.O.o.o.o.o.o.o.O.g.h.h.h.h.h.h.h.g.g.h.g.g.g.g.",
"*.g.*.*.*.g.g.g.g.h.g.g.h.h.h.g.g.g.*.s.*.*.O.=.*.g.g.h.g.;.*.*.-.*.o.o.U *.=.o.o.o.o.O.*.h.h.h.h.h.h.h.h.h.h.g.g.h.g.h.",
"O.O.o.o.O.h.h.h.h.h.h.h.h.h.h.h.g.U U h.h.h.5.r.t.*.*.h.j.M.t.i.i.i.-.=.*.5.r.5.g.O.*.h.h.h.h.g.g.g.h.g.g.g.g.h.h.h.h.g.",
"O.o.o.o.U O.h.h.h.h.h.h.g.h.g.g.h.h.g.g.g.j.e.' w.-.=.;.7.~ m v l v | r.6.7.* 1.h.g.*.h.g.O.O.O.g.g.g.g.g.g.g.g.g.h.h.h.",
"o.o.O.O.O.g.h.h.h.h.h.h.h.h.h.h.h.h.h.h.h.j.3.* v q.r.5.8 s s s p a & * } m * <.;.O.o.O.O.O.O.g.g.g.g.O.g.g.g.O.O.g.g.O.",
"O.O.g.h.h.g.h.h.g.g.h.g.h.g.g.h.h.h.h.h.h.j.k.<.v b a @ > 2 j - p g p X < @ v t.j.*.O.O.O.h.h.h.g.g.g.g.U O.O.U U O.O.O.",
"h.g.O.g.*.*.O.O.*.*.g.g.*.*.*.h.g.g.h.h.k.8.8.t.[ b y = - ; i u p - - = . o w.y.8.7.:.*.*.*.*.*.O.O.o.o.o.o.o.o.o.U O.O.",
"h.g.O.O.O.O.O.*.*.*.*.*.*.*.*.O.O.*.*.4.} 8 _ #.b y = G G f G u 2 3 G j =   ' q./ % 2.*.O.*.*.*.g.O.O.O.o.O.o.O.O.g.g.g.",
"h.g.O.O.*.g.g.g.g.g.*.*.*.o.o.O.O.O.o.,.R E 0 N y = ; G L J H f i J J Y N = # l c ^ { =.*.h.g.s.g.g.g.g.g.g.g.g.g.g.s.h.",
"l.h.h.h.g.g.g.g.*.*.O.U o.o.o.U o.o.=.p.0.H.C.X., . ; w w K Y i i G Y Y e > = 0 5.p.p.:.O.O.*.g.g.g.h.g.g.h.h.h.h.h.h.g.",
"h.h.g.g.h.g.O.O.g.*.*.U O.o.*.o.*.=.6.p.,.v.Q.A.B < > g q q g y y j j j 3 3 i N.E.B.M.=.*.*.O.*.O.g.g.g.g.g.h.g.g.h.h.h.",
"U *.O.O.g.*.g.*.g.g.h.g.*.*.*.:.r.} $._ E ! v.v.e.1.1.....r 4 o o o y p L h.Z.A.Q.4.>.8.6.h.g.g.g.g.g.g.h.h.g.g.g.g.g.O.",
"O.O.U o.O.O.O.O.*.g.h.h.*.g.:.$.B ` r Q c.U.XXeXvXvXeX8XQ.C.$.X O O X w.P..XhXxXuXU.@.9 8.:.h.h.g.g.g.h.h.g.g.g.O.O.U O.",
"g.*.*.O.O.O.O.O.g.g.g.h.h.6.&.B I L t f.(.&XcXnXmXmXbXuXoXQ.7 # a.'   1 /.8XbXnXeXU.x.W R 8.h.h.g.g.g.g.h.g.g.O.O.O.O.O.",
"h.O.h.g.h.h.g.g.h.h.h.:.8.&.I L L e s.D.`.tXjXeXbXvXbXvXwX{.+.+ + X . 4.8XvXqXqX9XXXY.b...&.j.h.h.h.h.h.h.g.g.g.g.*.O.O.",
"h.h.h.h.g.g.h.h.h.:.7._ A S T F w e f.b._.-X/.W.E.R.7XzXdX-X{.0.,.@.v..XeX7XT.T.T.R.].K.j.S 8.h.h.h.h.h.h.h.g.g.g.g.g.s.",
"h.h.h.h.h.h.:.6.u.` ) B B B M 4 2 w Q m.OX{..X.X/.W.eXkXfX2X2XOXXXoXXXwXcXwXG.R.^.XXOXK.t F A t.g.h.h.h.h.h.g.g.g.g.h.h.",
"h.h.h.h.h.h.y.| ) B I N B B 7.t.S 5 z._.&XrXrX8XE.W.wXeXfXyXyXsX6XsX6XdXkXcXeX^.U.U.oXU.L F N ..h.h.g.g.g.h.g.g.h.h.h.h.",
"g.g.h.h.h.k.[ ) S P N &.M.6.j.6.#.I S.F.%XpXOX~./.wXkXdXiXpX1X<X:X<X4XaXzXzXzXuXrX-XOXI.q f 5 S i.j.O.O.O.*.g.g.h.g.g.h.",
"O.g.h.h.g.j.r.c Z U K &.k.h.g.*.[ M o.D.%X,XrX0XdXdXkXlXtX3X:X].L. X<X4XuXxXkXfXpXrXOXv.E c 4 M $.6.;.O.*.*.*.*.g.g.h.h.",
"g.g.h.h.h.h.6.<.S F L ..$.5.;.;.| s 5 z.'.$XpXiXdXdXkXlXrX>X=X].`.<X3X>XrXlXsXiXrX3X.X9.u.7.l c A ) 3.:.h.g.*.*.*.g.h.h.",
"h.h.h.g.h.g.h.:.&.M I I ` <.6.6.| l 2 Q (.$X&XpXdXdXzXkXrX>X<X4XaXsX#X#X3XpXsX5X3X$X{.4.6.;.6.1.g Z ) 2.6.h.g.h.h.h.h.h.",
"h.g.h.h.h.h.g.h.:.>.` V N S 1.l.i.8 d e m.@X,XtXaXdXcXzXyX2X2X-X-X X'.'.3XsX6X1X;X=XI.0.;.U ;.t.h J V x 3.*.h.h.h.g.h.g.",
"h.h.g.h.g.h.h.h.h.j.l.5.I C D r.M.c f w f.}.$X2XaXkXzXxXiXrXtXwX-X].'.#XyXsX6X1X;X=XG.p.*.*.r.%.P H z % y.:.h.h.h.g.h.h.",
"g.g.g.g.g.g.h.h.g.g.j.k.r.] c } u.#.d F d._.#X<XdXkXcXzXlXgXlXlXgXrXuXoX.XrXaX<X=XY.0.8.*.-.#.D S M [ 3.k.h.h.h.h.h.h.h.",
"g.O.g.O.g.g.g.g.g.g.g.O.*.-.] x 8 , - f e D.@X:XwXdXcXcXiXlXcXcXlXhXQ.@...v..XXXoXH.,.=.-.p.[ A z #.4.;.h.g.O.g.g.g.g.g.",
"g.g.g.*.O.o.o.O.O.O.O.o.o.=.=.% 7 4 3 ; w d.`.;X4XfXxXxXuXjXcXxXzX/.4.r : 9 E p.H.0. .6.p.{ ~ ~ 7.:.*.O.O.O.O.O.O.g.g.O.",
"*.O.O.O.o.o.o.o.o.O.o.O.O.O.=.% B K i i 2 t K.|.>XyXxXxXfXuXzXxXdXP.r : 2 > 1 M > 7 e.p.( ^ 3.8.*.O.O.O.O.h.h.h.g.g.g.g.",
"O.U U O.o.o.o.o.O.O.O.O.g.*.=.% V U Y i 2 : s._.#X<XfXxXfXdXkXzXwXQ.X.X.l.q k p = @ & ' { 1.:.h.*.*.g.g.h.h.g.g.g.O.O.o.",
"*.O.O.O.s.O.g.O.h.h.*.O.g.h.:.6 g J Y Y 5 q W b.|.#XrXfXsXtXaXdXwXXX[.Q.@.0 p y a a * ] 8.j.h.g.h.h.h.h.h.h.O.O.O.o.o.o.",
"*.*.*.g.O.*.O.*.*.*.o.O.O.h.6.6 d H H j p > 5 Q _.:X,XyX5X4X4X-XaX-X0X.X8.6 + + b c y.k.j.h.h.h.g.g.g.h.g.g.g.g.g.g.O.O.",
"g.O.O.O.O.o.O.O.O.O.O.O.O.5.$.l M %.%.s + + > r n.|.:X:X:X,X4X6XsX4XoXv.E 7 6 + v r.j.h.h.h.h.h.g.g.g.O.O.g.O.O.o.O.g.O.",
"o.O.O.O.o.o.O.O.O.h.*.O.X. ./ n | t.y.m & b p 2 c.}.,X;X,X3XsXgXgXtX[.! W ! p.2.8.j.g.h.h.h.g.g.g.o.o.o.O.o.o.o.O.o.U O.",
"o.O.U O.O.O.O.O.h.h.h.g.=.' / } 6.:.{ / * r.s 5 s._.@X:X,X5XiXlXgX<X+XK.J.!.p.p.j.O.O.O.O.O.O.O.o.o.o.o.o.o.o.o.o.o.o.o.",
"o.o.O.O.h.h.h.h.g.g.g.*.*.6.6.6.h.;.2. .y.N.&.5 Q (. X=X1X1XsXgX5X,X>X+XOX!.9.8.O.o.o.o.O.o.o.o.O.O.O.o.o.o.O.U O.O.O.O.",
"o.O.h.h.*.O.O.O.O.O.O.*.*.*.;.h.*.*.=.;.:.:.r.0 Q (.;X*X=X;X1XpX5X:X#X+X{.v.0.X.o.o.o.o.O.o.o.o.U O.o.o.O.O.g.g.g.g.g.g.",
"U O.h.g.O.O.O.O.O.*.g.g.g.*.h.=.;.g.=.*.*.=.w.0 Q (.@X*X*X;X1X5X;X=X=X{.V.0.:.O.o.O.o.o.O.O.g.O.*.*.*.g.h.s.g.g.g.g.h.g.",
"O.O.g.h.h.g.O.g.g.g.h.g.*.*.:. .e.r.t.:.=.=.<.0 r K.@X*X*X*X;X,X;X;X Xb.0.4.*.O.o.o.o.O.O.O.g.g.g.g.g.h.h.h.g.g.h.h.h.h.",
"O.O.g.g.g.g.*.*.g.g.g.O.O.O.=.2.* * / ~ 1.&.A q w d.(.|.@X;X$X%X%X|.L.! 6.h.*.*.g.O.O.g.g.*.O.O.g.g.g.h.h.h.g.g.g.g.g.g.",
"*.O.*.g.g.*.*.O.g.h.h.g.g.O.*.:.r.$.' ~ c 1 1 f w e d.m._._.[.}.).b.X.9 8.;.g.g.g.O.g.h.g.g.h.g.g.g.g.g.h.g.g.g.O.O.*.*.",
"g.g.O.O.O.O.O.O.*.h.h.h.g.g.*.*.;.:.u.u.c > S P G w w t Q s.s.s.t t e : _ 8.;.O.o.O.O.g.h.h.h.g.h.h.h.g.h.h.g.O.O.*.g.g.",
"O.O.o.O.o.o.o.o.O.h.h.g.g.h.h.h.h.h.l.i.&.I T P j j q q : : q 2 F f q I I #.3.:.o.o.o.O.h.g.h.h.g.h.h.h.h.g.g.g.g.g.g.g.",
"U o.o.o.O.O.O.O.*.h.h.O.*.*.g.g.h.h.u.( S T F k D q.[ [ } _ } } #.D k N L N M 1.o.O.O.*.h.h.h.h.g.h.h.h.h.g.h.h.g.g.h.h.",
"O.O.O.O.*.*.g.*.*.O.O.O.O.O.O.*.g.h.k. .D T P ..t.;.*.;.:.*.j.;.*.5.-.4 h C B y.*.U O.O.g.h.h.h.g.g.g.h.h.h.h.h.g.h.h.h.",
"O.O.*.h.g.g.g.g.g.*.O.O.O.o.*.O.g.g.h.8.[ D I S t.*.*.*.g.g.h.h.:.-.[ D A b u.;.*.o.=.O.=.*.g.g.g.g.g.g.g.g.h.h.g.h.g.g.",
"o.O.g.h.g.g.h.h.h.h.h.*.;.=.:.:.;.h.:.h.8.t.S B [ &.=.*.O.O.*.h.6.{ m ] w.t.j.j.;.:.l.8.k.l.h.h.g.g.g.g.O.O.O.O.g.h.O.O.",
"O.O.g.g.h.h.h.g.h.h.h.:.>.B 8 c 7.y.u.t.:.k.t.A z z 5.h.g.g.h.6.1.c ' 1.k.k.:.u.i.t.[ c ( ' y.k.h.h.g.g.g.o.o.O.g.g.g.*.",
"*.*.h.h.g.g.g.h.h.h.:.>.B 8 B Z S [ B ] w.u.B.w.g z <.6.h.h.k.y.A C A u.N.i.| ( ] T P Z C $ { u.:.h.h.g.g.o.o.g.g.g.g.h.",
"h.h.g.g.O.O.*.g.h.j.u.x # M C N h Z C B m m m b p < v | ;.j.u.^ z s a z m ( ( v z N k 4 s z l { *.h.h.h.g.g.g.g.g.g.*.g.",
"h.h.*.O.O.*.O.O.*.*.7.% # 6 1 s 1 g z l l l l a z z l n *.;.e.* $ z a l l & $ l a b z s l # $ [ =.g.h.h.h.h.h.h.g.*.O.g.",
"g.h.h.g.*.g.h.g.*.O.*.5.6.6.6.6.6.6.k.5.t.6.t.6.8.6.7.6.*.h.6.t.5.t.6.8.6.6.6.6.6.u.M.M.M.8.u.l.g.g.g.g.g.h.h.h.h.g.o.g.",
"g.g.O.O.O.g.h.h.g.g.h.h.h.h.h.h.*.*.*.*.g.h.;.h.h.h.h.*.*.O.h.*.*.*.h.h.j.h.h.h.h.h.g.h.h.h.h.O.O.O.O.g.g.O.g.h.h.g.O.s.",
"O.o.O.U O.*.h.h.h.h.h.h.h.h.h.g.O.O.O.O.O.O.*.O.O.*.*.O.O.O.O.O.U *.*.g.h.h.h.h.h.h.h.h.g.g.O.O.g.g.h.h.g.g.h.h.h.g.O.g.",
"U o.O.O.U *.h.h.g.h.h.h.*.*.*.h.h.O.O.O.U O.o.o.o.o.O.o.o.O.O.U U O.O.h.h.h.h.h.h.g.h.g.h.h.g.g.g.g.h.g.h.h.g.h.h.g.g.g.",
"O.O.O.O.*.g.h.h.h.g.g.*.O.O.O.*.h.h.h.h.O.O.O.O.O.o.o.o.O.O.O.O.*.*.g.h.h.g.h.h.g.h.h.h.h.g.h.h.h.h.h.g.g.g.g.g.g.g.g.g.",
"h.h.h.h.g.*.g.g.g.g.g.*.U O.O.O.O.O.g.g.g.h.h.h.O.O.o.o.O.g.g.g.g.g.g.h.*.*.g.g.g.g.g.g.h.h.h.g.h.h.g.g.O.g.g.O.O.o.o.O.",
"g.*.O.O.O.*.O.O.O.g.*.O.O.O.o.O.o.o.o.o.O.g.g.h.O.o.o.O.h.h.g.O.O.*.*.O.O.O.*.*.*.g.O.O.g.g.g.g.g.h.g.O.O.o.o.o.o.o.o.o.",
"g.O.O.O.o.O.*.g.g.h.h.g.g.*.O.O.O.O.O.O.O.o.O.g.O.o.o.O.h.h.O.O.U o.O.*.*.h.h.h.g.g.g.g.O.O.O.O.O.O.O.U o.o.o.o.o.o.o.o."
};
