/* XPM */
static char *result[] = {
/* columns rows colors chars-per-pixel */
"60 60 248 2 ",
"   c #311C0D",
".  c #341B14",
"X  c #352212",
"o  c #3B261A",
"O  c #37351C",
"+  c #3B2B22",
"@  c #3B3A24",
"#  c #3A3031",
"$  c #4D1F1B",
"%  c #601F14",
"&  c #47270C",
"*  c #572B0C",
"=  c #4C300D",
"-  c #452415",
";  c #472719",
":  c #432D1D",
">  c #4C2A1C",
",  c #572516",
"<  c #53241A",
"1  c #522B1B",
"2  c #5A2C1C",
"3  c #47321D",
"4  c #55311D",
"5  c #59361B",
"6  c #6B2413",
"7  c #652919",
"8  c #732F19",
"9  c #633719",
"0  c #77371B",
"q  c #4C2724",
"w  c #442E22",
"e  c #4D2D23",
"r  c #572A27",
"t  c #522D25",
"y  c #5B2D24",
"u  c #443323",
"i  c #4C3325",
"p  c #443C25",
"a  c #4D3B24",
"s  c #49352A",
"d  c #443E2B",
"f  c #4C3C2B",
"g  c #553525",
"h  c #5B3425",
"j  c #543A25",
"k  c #5A3B25",
"l  c #54342A",
"z  c #5C3429",
"x  c #533C2C",
"c  c #5C3B2B",
"v  c #403736",
"b  c #553932",
"n  c #5A3F32",
"m  c #632D23",
"M  c #652B28",
"N  c #623325",
"B  c #6C3526",
"V  c #64352C",
"C  c #6A362E",
"Z  c #623C2C",
"A  c #6B3A2D",
"S  c #753725",
"D  c #3C4527",
"F  c #3E4632",
"G  c #48461B",
"H  c #594519",
"J  c #684618",
"K  c #7A4D1B",
"L  c #4A4726",
"P  c #45402C",
"I  c #4D422C",
"U  c #54432B",
"Y  c #5B422D",
"T  c #56482A",
"R  c #50502F",
"E  c #4B4531",
"W  c #534332",
"Q  c #5B4633",
"!  c #554C34",
"~  c #5C4B34",
"^  c #584A39",
"/  c #5B5137",
"(  c #59523A",
")  c #62442B",
"_  c #694829",
"`  c #77412D",
"'  c #7A432E",
"]  c #6C5229",
"[  c #745429",
"{  c #624533",
"}  c #644B35",
"|  c #684A37",
" . c #774632",
".. c #7E4630",
"X. c #744D36",
"o. c #7C4A34",
"O. c #734D3A",
"+. c #7A4F39",
"@. c #685437",
"#. c #65533C",
"$. c #6C543C",
"%. c #6B593D",
"&. c #765637",
"*. c #74543C",
"=. c #7C533C",
"-. c #7B593E",
";. c #6E642F",
":. c #7B6934",
">. c #584846",
",. c #5E5051",
"<. c #6E4C46",
"1. c #6A5743",
"2. c #745642",
"3. c #7D5641",
"4. c #745B44",
"5. c #7C5A43",
"6. c #7B5C48",
"7. c #6D5E58",
"8. c #6D6648",
"9. c #786547",
"0. c #786656",
"q. c #7F5E67",
"w. c #874B1E",
"e. c #864828",
"r. c #804731",
"t. c #814832",
"y. c #824F38",
"u. c #865936",
"i. c #82533C",
"p. c #915830",
"a. c #9A6438",
"s. c #877935",
"d. c #A76A3F",
"f. c #A8763E",
"g. c #825B42",
"h. c #855A45",
"j. c #846648",
"k. c #827344",
"l. c #8C7249",
"z. c #957649",
"x. c #92704D",
"c. c #8C7859",
"v. c #A87A4D",
"b. c #8D776E",
"n. c #978A50",
"m. c #99875D",
"M. c #AD8548",
"N. c #B7834A",
"B. c #BE904D",
"V. c #A98754",
"C. c #B58A55",
"Z. c #AB9755",
"A. c #B4985A",
"S. c #BBA358",
"D. c #988B67",
"F. c #8D837C",
"G. c #B28E69",
"H. c #A89568",
"J. c #B5966B",
"K. c #B1916C",
"L. c #B8A467",
"P. c #B6AD72",
"I. c #B8A977",
"U. c #C99652",
"Y. c #C59956",
"T. c #C8A55B",
"R. c #CEB156",
"E. c #C39A6B",
"W. c #CCA866",
"Q. c #D3A563",
"!. c #CDB76D",
"~. c #D9B669",
"^. c #DCBC6C",
"/. c #CAAB76",
"(. c #CBB57B",
"). c #D5BB77",
"_. c #DABC73",
"`. c #E1AE6A",
"'. c #E5BE6B",
"]. c #EBBC68",
"[. c #E1BD73",
"{. c #DAC05E",
"}. c #E5C15F",
"|. c #DCC36C",
" X c #DDC373",
".X c #DCC979",
"XX c #EAC265",
"oX c #E4C668",
"OX c #E4C36C",
"+X c #EAC26A",
"@X c #E2C474",
"#X c #E4C973",
"$X c #E9C975",
"%X c #E3C67C",
"&X c #E4CC7C",
"*X c #EACC7C",
"=X c #EAD07F",
"-X c #958F89",
";X c #AE919A",
":X c #AFAA95",
">X c #A69DA4",
",X c #AFA8A7",
"<X c #B7B5A9",
"1X c #C7B485",
"2X c #D7B985",
"3X c #CABB91",
"4X c #D8BE96",
"5X c #C8B0B9",
"6X c #DCC584",
"7X c #D7C58A",
"8X c #DAC699",
"9X c #D8CE99",
"0X c #E5CB83",
"qX c #EBCD84",
"wX c #E7CB8A",
"eX c #E5CE8C",
"rX c #F0CF85",
"tX c #E6D285",
"yX c #EFD284",
"uX c #E5D28A",
"iX c #EBD28D",
"pX c #F0D385",
"aX c #E5CD94",
"sX c #E9CD97",
"dX c #E3CD99",
"fX c #E6D392",
"gX c #EAD394",
"hX c #EBD49C",
"jX c #ECDA9C",
"kX c #F1D498",
"lX c #D4C7AB",
"zX c #E6CFA2",
"xX c #ECD4A3",
"cX c #E9D5A7",
"vX c #F0DAA7",
"bX c #F0DEB5",
"nX c #BFBAC0",
"mX c #CAB7C4",
"MX c #C5C6C7",
"NX c #DBCDD4",
"BX c #CED2D1",
"VX c #DAD5D6",
"CX c #E5D8D6",
"ZX c #E6CBE1",
"AX c #E5DCE8",
"SX c #DEE4E3",
"DX c #E3E6E9",
"FX c #EDE0F1",
/* pixels */
"t.t.t.r.r.' r.r.r.t.r.t.t.r.t.t.t.t.t.r.t.t.t.t.' r.' r.r.r.r.r.t.t.t.r...' ' ..r.t.' r.r.r.r.t.t.t.t.t.t.t.t.r.t.' ' ' ",
"r.t.r.' ' ' ' r.r.r.r.t.t.t.r.t.r.t.t.t.t.t.t.t.t.r.' ' ' ' ' ' ' ..r.r.r.r...' ' ' ' ' ' r.r.r.t.t.t.t.t.t.t.r.' ' ' r.",
"r.t.r.' ' r.r...' ' r.r.t.t.t.t.r.r.r.r.t.t.....r.t.t.r.' ' ' ' ' ' ' ' ' ' ` ' ' ' ` ` ' r.t.t.t.t.t.t.r.t.t.t...r...t.",
"..r.....' r.t.r.r.r.r.r.r.t.r.t.r.r.' e.' '  .o.' t.r.r.t.t. .'  .` ` ` ' `  .` ` S ' ' ..t.t.t.t.t.t.t.t.t.r.t.t.t.t.t.",
"'  .` ' ' r.r.r.t.t.r.r.t.t.t.t.r.' ' ....r.&.4.+.'  ...i.6.h.6.6.4.+.' A O.4.X.o. .t.t.t.r.t.r.r.r.r.r.t.r.r.r.t.t.t.t.",
"'  .S ` ' ' t.t.t.t.t.t.r.t.r.t.r.r.r.r.r.y.R F | o. .o.%.E d p u v 1.<.o.1.F 1.i.' ..t.r.' ' ' ..r.r.r.r.r.r.r...t.t.t.",
"' ' ' ' ' r.t.t.t.t.t.t.t.t.t.t.r.r.t.t.r.i.! @ E 2.3.} i w w ; $ q + s } b @ | y.' ' ' ' ' ' ....r.r.r.' r.r.S ....r.' ",
"' ' r.t.r.r.t.t.r.r.t.t.r.r.r.t.r.r.t.t.r.t.i.~ s s u o s l t q q b s o o w n X.t.' ' ' ' t.t.t.r.r.r.' ' ' ' ' S ' ' ' ",
"t.t...r.....'  .' r.r.r.......r.r.r.t.t.+.=.g.6.n s + 7.F.-X7.q <.b.b.<.+ . | 3.&.X.X...' r.r.t...' ' ` S ' ' ` ` ' ` ' ",
"t.' ' ' ' ' ' ..r.............' ....t.&.L G { Y e o 1.,XBXVX5Xq.;XNXCX<X,.. W ^ G D @.o...' ..' ..' ' ' ' ' ` ' ' ' ....",
"t...' ' ..r.r.r.t.....' ' ` ' ` ` ` +.T G H 5 4 ; o F.NXAXFXZX;XmXCXDXSX>X,.# g 5 O %.y.r.r.t.r.r.r.r.r.r.r.r.r.r.r.t.t.",
"i.t.r.t.r.r.r.r.......S ` ` ` ` ` ` +.:.9.V.x.) e - -XVXAXAXAXmXNXSXSXDXnX7.q - j.9.9.t.' ' ..t.r.r.t.r.t.t.t.t.t.t.t.t.",
"t.t.r.r.t...' ' .... .S  .' ' ' ..X.-.j.J l.J.x.j ; b.lXSXMXMXMXVXMXBXSX<X7.j o.V.c.=.o.' ..' ' ' r.r.r.r.r.t.t.t.t.t.r.",
"' ........r.....t.t.t.........=.4.@.T H H ] s.j.%.4.c.:XlX,X>X-X-X-X,X<X-X9.x.G.V.j.~ $.y.t.t.t.r.' r.r.t.r.t.r.t.' r.' ",
"' S  .S ' ' ' ' ..t.t.t.r.t.5.T x Z B K a.J.).8XlX8X8X1XH.m.R O # # # 0.c.J.wXsX4XK.| 5 @.t.t.t.r.r.r.t.t.r.r.r.' ' ' ' ",
".... .' ' ' ' ..r.t.t.t...i.{ j A S 0 a.Y.).jXbXbXbXxX4X).n.; @ 7.>.  / J.2XhXvX8XK.u.H T X.t.t.t.t.t.t.t.r...' ' ' ` ` ",
"t.r.t.r.t.t.t.t.t.t.t.=.%.~ c C B 8 e.v.W.6X9XdXcXzXdXaXaXL._ X o     9.7X7X8X3X3X(.J.z.Y *.i.t.t.r.t.t.t.t.r.r.t.' ' ` ",
"t.r.t.t.t.t.t.t.t.i.2.U j c N N 7 8 p.f.W..XL.D.H.H.(.aXhX7XZ.:.[ ] l.(.7XI.D.D.D.A.Q.v.X.{ =...t.t.t.t.r.r.r.t.t.r.t.r.",
"t.r.t.r.t.t.o.=.2.Y c Z k k j > & * w.N.!.S.P.1XI.L.!.9XxXwX@X)././.2XeX9X1XD.H.P.!.@Xv.9 k Q O.t.t.t.t.t.t.r.t.t.t.t.r.",
"t.t.t.t.t.i.*.U c Z h N g j 2.6.h 7 d.Q. X.X9X1Xm.A..X9XxXkX0X0XrXiXiXgXdX8X4X:XZ.A.~.C.B y i $.y.t.r.r.r.t.t.t.t.t.t.t.",
"r.r.r.r.t.g.T g ) V h @.=.o.t.h.x A d.U.~..X(.P.I.7XeXhXkXkX*X@X_.&XqXqXgXsXcXdX2X.X Xz.9 < l I X.o...' ' t.r.r.t.t.t.y.",
"....r.t.t.i.) j z A k *.g.t.t.h.n h 0 f.~..X7X7XfXfXeXgXiXqX@XT.Y.^.*X*X0XiXxXkXwX.X).s.Y 3 > i %.=.o...' ' ' r.r.r.t.t.",
"r.r.t.r.t.t.i.} z k Z c $.=.y.h.b < 6 a.Q.OXtXgXjXfXiXiX0X X XT.W.%X0X@X$X*XrXiX0X[.W.k.:.$.f j k l $.i.r.r.r.r.' r.r.t.",
"t.t.t.t.t.r.y.i.{ 5 h Y x <.g.h.W e 6 w.U.+X XgXhXfXuXiX%X#X#X$X*XyX'.^.OX$XpXpX@X[.Z.9.=.o.5.{ m z Q $.i.r.r.r.t.r.t.t.",
"t.t.t.t.t.t.t.t.i.{ H k z n 2.j.1.l % 8 N.'.@XrXkXgXfXgXuX&XoXoXoX{.R.R.|.&XrX*X X Xs.&.t...o.O.V C l d $.y.t.t.r.t.t.t.",
"t.t.t.r.t.t.t.t.y...=.O.l i s 2.0.c , 6 d.Q.+XqXgXgXuXgXgXeX&X X|.R.R.|.&X0XiX$X|.!.:.[  . .6.{ V z i P $.y.t.t.t.t.r.t.",
"r.r.r.r.r.r.t.t.t.t.t.i.$.W s #.0.c < 7 p.Q.OX&XiXuXtXgXhXxXjXuXwXqX0X/./.2XiX%X|.A.k.+.' 5./ c z x I %.i.r.t.t.t.r.t.t.",
"r.' r.' ' r.r.r...t.t...' *.n f j - ; < 8 U.~. XtXtXtXfXjXcXvXxXxXsXG.X.X.x./.).!.n.9.y.X.1.Q l e | X...t...r.r.r.r.t.t.",
"t.t.t.' ' ..' ' ' ' ' ' ' ' 2.l 2 1 - < , p.W. X=XtXuXfXjXcXxXzXsXJ.&.j > 2 _ l.n.;.;.5.1.W f Q X.o.' ' ' ' ' ' ' ....' ",
"' ' ' ' ' S ` ` ` ' S  .' ' 6.) m B , < , _ C.@X$XtXuXgXhXdXdXdXdXz.5 g > - < 5 & O %.1.! d #.g.o.' ' ' ' t.t.t.t.t.t...",
"' ' ' ` ' ' ` ` ' ' ' ' r...5.c M S 7 < < , u.Y.XX#XuXfXgXgXuXuXtXZ.J =.| r r < & X 3 P ( 4.i.y...' r.r.t.t.t.r...' ' ' ",
"' ' ' ' ' ' ' ' t.t...' r.r.h.n M M S M m y J M.~.@X.XtXiXpXtX#X.X).L.G.O.r q - > ; @ #.=.t.t.t.t.t.t.t.t.t.' ' ' ' S ' ",
"............' ......` ' ..o.5.x < N m y $ $ 1 u.T.'. XqXyX$XoX.X&X.X6XE.o.; X ; i P @.=.t.t.r.t.t.t.r.t.t.' ' r.r.' ' ' ",
"' ..' ' ' ' ` ' ..' ' ` ` =.W @ 3 { k t q $ > 9 M.'.@XOX$X$X&X&XtXiX/.u.9 1 > u d $.i.t.t.t.t.t.t.t.' r.' r.' ' ' ' ' r.",
"S ' ' ' ` ` S ' ' t...' =.! F @ #.-.| x q q - * f.~.].OX@X0XuXuXiXiXA.K J [ @.*.2.t.r.r.t.t.r.r.' ' ` ` ' ' ` ` ` ` ' ' ",
"' ` ` ' ' '  .r.r.t.t...g.W @ / *.h.! D >.<.j = w.U.].XX$XyXgXeXuX0X).M.C.J.l.:.i.r.' ..' ' ' ' ' ` ` ` ' ' ` ` ` ` ` ' ",
"` ` ' ....r.t.r.r.r.r...t.+.=.o.t.g.%.( 2.h.U & K U.}.XX#XqXiXuXuX6X X[.~.V.9.&.' ' ` ` ' S ' ' ' S ' ` ' ' ' ' ' ' ' ' ",
"'  .t.t.'  .' ' ' '  .......t.....o.o.o.y.i.3 & K U.}.oX+X$X=X=X&X.X|.|.S.:.&...` ` ` ` ' ' ` ` ' ' ` ' ' ' ' ' r.' r.r.",
"` ' r.r.r.' ' ' ' ....t.r...o.o.......' r.y.j = K Y.oXXX+XXX+X+XoX@X@XT.s.&.o.` ` ` ` ` ' ' ....' r.' r.r.r.r.r.r.t.t.t.",
"` ' r.t.r.' ..r.r.r.t.r.....*.8.%.*.*.=. .o.3 & K B.~.XX].XXXXXX+XOX!.s.:.X.' ` ` ` ` ` ' ......r.t.t.t.r.t.t.t.r.t.t.t.",
"' ..r.t.r.r.'  .r.r.r.r.S ' =.R D @ p W #.*.1 < 7 p.A._.^.'.].].].`.M.:.=...t.' ' ' ' r.r. .' ' e...t.t.t.t.t.r.r.r.r.r.",
"' ' ' r.r.r.r...r.t.t.r.t.....X.%.} I U u > , M 6 6 p.N.Y.Q.Q.Q.U.f.[ _ &.y.' ..t.....r.t.t.t.r.r.r.t.r.t.r.t...' ' r.' ",
"r.r.' ' ' ' ' ' r.r.t.t.r.r.r.r.o.i.g.9.I > N S 7 6 6 8 S e.e.e.8 6 7 5 } +... .' ' ' ..t.t.t.t.t.t.t.t.t.t.r.' ' r.r.r.",
"' ' ' '  .S ` ` ' t.t.r.r.r.t.r.t.t.i.9.Q c A C M m 2 2 2 2 2 2 2 2 N Z Y } 2.X.` ` ` ' t.t.t.t.t.t.t.t.t.r.r.' r.r.r.t.",
"'  .' ` ' ' ' ' ..t.r.' ....r.r.r.t.-.T z A N y z Q ~ ^ ^ ^ ~ Q { l i t Z l p $.o.' ' ..t.t.t.t.t.t.t.t.t.t.r.r.r.r.t.t.",
"' S ' ' ....r.....' ' ' ' ' ' ..r.t.5.~ k B y | 3.+.o...o.o.o.o. .3.} j h > U O. .` ' ' r.t.t.r.r.r.t.r.r.t.r.r.t.t.t.t.",
"` ' ..t.r.r.r.r.r...' ' '  .' ' ..t.y.i.T k Z { *.o.'  ...r.t.t...=.U k j Q &.o.' ` ' ' ..' r.r.r.r.r.r.r.r.r.r.r.r.r.r.",
"` ' t.t.r.r.t.t.t.t.r.t.=.=.=.o.o.t.y.y.i.2.) f W $.o.' ' ....t.-.! I U *.g.y.t.y.o.=.-.i.y.y.r.r.r.r.r.' ' r.' r.t.' ' ",
"'  .r.r.t.t.t.r.t.t.t.g.} f a I $.6.6.=.y.i.4.x i ^ X.t.r.r.t.i.I 3 f 2.i.y.i.5.6.5.U s p ! *.y.t.t.t.r.' ' ' ' r.r.r.' ",
"..r.t.t.r.r.r.t.t.r.5.#.a t z l Q c x W *.j.j.{ e u #.i.t.t.i.$.f a | 6.j.9.^ W Q Z c c g u ( *.y.t.r.t.r.' ' r.r.t.r.t.",
"r.t.r.....' r.r...r.@.d : e l i l z l l b f f s q : @ 8.i.r.#.d u e t l x x s l t M y < t w O 1.i.t.t.t.r.r.' r.t.r.' r.",
"r.t.r.' ' ' ' ' ....} p o u i + u i e e u p u w : @ @ ( =.r.! @ : i w : u u i : t l l i u O O @.i.r.t.r.t.t.t.t.t.r.' r.",
"..r.....' r.t.r.' ' i.-.5.=.5.=.3.=.i.=.3.3.3.=.=.*.-.=.o...=.6.3.=.5.i.3.=.=.*.=.g.i.g.=.-.-.i.r.r.r.t.r.r.r.r.t.' ' r.",
"r.....' ..r.r.t.r.r.t.t.t.y.t.y... ...t...t.o.o.t.y.o...t...t.o.o...t.t.o.t.t.y.t.t.y.t.y.y...' ' r.' ' r.r.r.r.t.r.' t.",
"' S ' ` ' ..t.t.r.t.t.t.t.t.t...' ' S  .'  ...' ' ' ' ' ' ' ' S ` ` ' t.r.t.t.t.t.t.r.t.r.r.' ' r.r.t.t.r.r.t.t.t.r.' t.",
"'  .'  .S ..t.t.t.t.t.r.r.r.t.t.r...' ' '  .S ' ' ' ' ` ` ` ` ' ` ` ' t.t.t.t.t.t.t.t.t.r.t.r.r.r.r.t.t.t.t.t.r.t.t.r...",
"' `  .....t.t.t.t.r.r.r.' '  .t.r.r.t...' r.' ' ' ` ` ` S .. .' ' ..t.t.t.t.t.t.t.t.t.t.r.r.t.t.r.r.t.t.t.r.r.t.t.' t.t.",
"t.t.r.r.r.r.r.r.r.r.r.'  .S ' S ' ....t.t.t.t.t.' ` ` `  .r.t.r...r.r.t.' r.r.r.r.r.r.r.r.r.t.t.t.t.r.r...' ' ' ' ' ' ' ",
"r...' .. .' S  .' ......' ' ' ' ` ' ' ' ' ' r.t.' ` ` ` t.t.r.' ' '  .' ' ' ' r.r.r.' r.r.r.r.r.t.t.r.' ` ' ` ` ` ` ` ` ",
"r... .S ' ..t...r.t.t.r.r...' ' ' ' ' ' ' ' ' ' ' ` ` ' r.r...' ' ' ' ' r.r.t.t.r.r.r.' ' ' ' ' ' ' ' S ` ` ` ' ` ` ` ` "
};
