/* XPM */
static char *result[] = {
/* columns rows colors chars-per-pixel */
"60 60 239 2 ",
"   c #1C1506",
".  c #3D1F1E",
"X  c #3D270B",
"o  c #282F16",
"O  c #352518",
"+  c #3D2A1C",
"@  c #3A361E",
"#  c #2D2722",
"$  c #3C2726",
"%  c #2F3A26",
"&  c #3D3422",
"*  c #3B3629",
"=  c #471E17",
"-  c #591E1A",
";  c #4B280D",
":  c #5A2A0F",
">  c #56380B",
",  c #472515",
"<  c #4C241B",
"1  c #422B1C",
"2  c #4B2C1D",
"3  c #5C2717",
"4  c #54261B",
"5  c #532B1A",
"6  c #4C331E",
"7  c #463C1F",
"8  c #593718",
"9  c #64330D",
"0  c #652917",
"q  c #643416",
"w  c #442E22",
"e  c #472827",
"r  c #4B2C22",
"t  c #532D23",
"y  c #5B2C25",
"u  c #592828",
"i  c #443323",
"p  c #4C3323",
"a  c #4E3B27",
"s  c #45372A",
"d  c #4E3B2A",
"f  c #543323",
"g  c #5B3325",
"h  c #533B25",
"j  c #5A3A24",
"k  c #523429",
"l  c #5D342B",
"z  c #553C2B",
"x  c #5B3B2B",
"c  c #4E2F31",
"v  c #483733",
"b  c #4D3E34",
"n  c #593B37",
"m  c #672D28",
"M  c #63342A",
"N  c #6B332D",
"B  c #673929",
"V  c #733526",
"C  c #622D32",
"Z  c #6A3831",
"A  c #364125",
"S  c #59441A",
"D  c #67461C",
"F  c #77451C",
"G  c #74521D",
"H  c #494629",
"J  c #574628",
"K  c #54422D",
"L  c #5A432B",
"P  c #544A2F",
"I  c #54522F",
"U  c #4B4B34",
"Y  c #554532",
"T  c #5C4433",
"R  c #584836",
"E  c #5D4A34",
"W  c #495131",
"Q  c #565639",
"!  c #67472A",
"~  c #7A4626",
"^  c #77412D",
"/  c #7A432E",
"(  c #685226",
")  c #785B27",
"_  c #624333",
"`  c #634A34",
"'  c #6B4C35",
"]  c #684238",
"[  c #644C39",
"{  c #6C4D39",
"}  c #764631",
"|  c #7E4630",
" . c #744B33",
".. c #7D4B35",
"X. c #724E3A",
"o. c #7C4E39",
"O. c #6A5137",
"+. c #645239",
"@. c #6C533B",
"#. c #685739",
"$. c #775739",
"%. c #74533C",
"&. c #7C533B",
"*. c #786936",
"=. c #643C49",
"-. c #5D4949",
";. c #6B5342",
":. c #6B5B41",
">. c #67564D",
",. c #745441",
"<. c #745B44",
"1. c #7B5A41",
"2. c #795944",
"3. c #7A664A",
"4. c #787344",
"5. c #7A5D66",
"6. c #823D23",
"7. c #834A25",
"8. c #875427",
"9. c #92562D",
"0. c #804731",
"q. c #814832",
"w. c #824F38",
"e. c #82513A",
"r. c #865939",
"t. c #975C34",
"y. c #846537",
"u. c #976233",
"i. c #906830",
"p. c #94763B",
"a. c #A56B3B",
"s. c #A87539",
"d. c #835741",
"f. c #825A43",
"g. c #845D4C",
"h. c #876646",
"j. c #83634B",
"k. c #877647",
"l. c #8D724F",
"z. c #977947",
"x. c #9A7B54",
"c. c #A57944",
"v. c #A07C52",
"b. c #8D7662",
"n. c #997D67",
"m. c #B79A3E",
"M. c #978850",
"N. c #AA8747",
"B. c #B98747",
"V. c #A28758",
"C. c #A8975D",
"Z. c #B59152",
"A. c #BBAB5B",
"S. c #918677",
"D. c #A69269",
"F. c #B69368",
"G. c #A48D75",
"H. c #A59771",
"J. c #B89B75",
"K. c #B8A267",
"L. c #B6A679",
"P. c #C49453",
"I. c #C8A957",
"U. c #D7A95D",
"Y. c #E1A55C",
"T. c #C69C64",
"R. c #C7A667",
"E. c #D7A966",
"W. c #CCB86B",
"Q. c #D9B668",
"!. c #DCBB6C",
"~. c #CAAA77",
"^. c #D2AD73",
"/. c #CBB378",
"(. c #D9B777",
"). c #E1A660",
"_. c #E5BA68",
"`. c #EBBB76",
"'. c #DCC472",
"]. c #DECC78",
"[. c #E6C265",
"{. c #E9C364",
"}. c #E5C36C",
"|. c #EAC36B",
" X c #E4C472",
".X c #E6CA75",
"XX c #EBCC74",
"oX c #E3C37C",
"OX c #EBC378",
"+X c #E4CB7B",
"@X c #ECCD7B",
"#X c #EBD37B",
"$X c #F1D17B",
"%X c #967D87",
"&X c #AA9C95",
"*X c #A89B9B",
"=X c #ACA8A1",
"-X c #BAAEAA",
";X c #C6A981",
":X c #C7B883",
">X c #D7BB87",
",X c #CDB59A",
"<X c #CABBB9",
"1X c #CDC487",
"2X c #DBCA89",
"3X c #DBC896",
"4X c #DFD293",
"5X c #E8C783",
"6X c #E5CC84",
"7X c #EBCC83",
"8X c #E5CE89",
"9X c #EBCD8B",
"0X c #F0CC83",
"qX c #E4D286",
"wX c #EDD384",
"eX c #E4D28D",
"rX c #ECD38C",
"tX c #E6CC94",
"yX c #EBCC93",
"uX c #E5D294",
"iX c #EBD493",
"pX c #EAD59B",
"aX c #E9D79A",
"sX c #F1D793",
"dX c #E4E09E",
"fX c #DEC9A8",
"gX c #D9C8B5",
"hX c #E9D9A3",
"jX c #F1DDA4",
"kX c #E4D4BF",
"lX c #EFE0B0",
"zX c #BEB4C4",
"xX c #D2CDD0",
"cX c #DFDADC",
"vX c #E4DCCB",
"bX c #E5E3DC",
"nX c #E9E4DB",
"mX c #DED6E0",
"MX c #E6E3E4",
/* pixels */
"q.q.0.0.0./ 0.0.q.q.q.q.q.0.q.q.q.q.q.q.0.q.q.0.V q.| | | | | q...q.q.0.| / | / | q.| | | 0.0.q.q.q.0.q.q.q.q.q.0.| / | ",
"q.q.0.| / / / 0.0.q.0.q.q.q.q.q.q.q.q.q.0.0.q.q.q.w.q.V / | | | | | | q.0.0.| | / / ^ / | 0.0.0.q.q.q.q.q.q.q.0./ / / / ",
"0.q.0./ / 0.0.| / / ~ 0.q.q.q.q.0.0.0.0.0.0.0.0.q.q.0.| V } V | V | / } / / / ^ ^ ^ ^ ^ / | q.q.q.q.q.q.q.q.q.q.0.0.0.0.",
"| | 0./ | 0.q.0.q.0.0.0.q.q.q.q.0.0.0.~ | | } } 0.0.0.0.w.| | } | } ^ V ^ ^ ^ ^ ^ ^ / / | q.q.q.q.0.q.q.q.q.q.q.0.q.q.q.",
"/ / ^ ^ / | q.q.q.q.0.0.q.q.q.q.0.V / / 0.0.&.<.%.| | q.d.d.g.g.3.o.| | 1.<.,.| / | q.q.q.0.0.0.0.0.q.q.q.0.0.0.0.q.q.q.",
"/ ^ ^ ^ V | q.q.0.q.q.q.q.q.q.q.q.0.0.0.q.e.Q % Y o.} &.[ K z s & Y ;.&.<.A W  .q.| | | | | / / | 0.0.0.0.0.0.0.0.0.q.0.",
"/ ^ / / / | w.q.0.q.q.q.q.q.q.q.q.q.q.q.q.1.R # * ;.d.] p 4 r + w p e R R & U ' | / ^ / / / / | | | 0.| / 0./ / / | | | ",
"/ / 0.q.q.0.q.q.0.0.q.q.q.0.q.q.q.q.q.q.q.w.,.b * v s p t t < = r c e $ e $ { w.q.| / / | 0.0.q.0.0.q./ / / | V ^ ^ ^ / ",
"q.q.| | | | | / / | | q.| | | | q.q.q.w.e.r.1.;.v c $ $ b n k u =.n e $ $ v ,.&.$.../ / / q.0.q.| / / ^ ^ ^ ^ ^ ^ ^ ~ | ",
"q./ / / / / / | | | ..| | | | | / ~ | @.I H T K $ $ R &X-X*X5.=.n.-X*X-.# $ ;.Y @ I  ./ 0./ / / | / / / / / ^ ^ / / | 0.",
"q.| / / | | q.0.| | | | / ^ / ^ / / %.Q H S 8 > O $ S.xXmXmX=X%X<XbXcX=X-.o r 6 7 H  .q.0.0.q.q.0.0.0.0.0.0.0.0.0.0.0.0.",
"r.q.q.q.0.0.0.| | | | V ^ ^ ^ ^ ^ ^ &.:.4.V.h.q . b =XMXMXMXxXzXxXbXnXxX*X# , _ 3.4.w./ ^ / q.q.0.0.q.q.q.q.0.q.q.0.q.0.",
"q.q.| | q.0./ / 0.| | V | } / / } ..&.3.$.z.C.$.5 R &XnXMXMXmXxXcXnXnXvX&X' q n.b.3.&.| / / / / / 0.0.0.0.q.q.q.q.q.0.q.",
"V | / | 0.| | | | q.q.| | | | &.@.E ! ! D ) p.h.<.>.G.gXvXgX<XzX<XxXkXfXD.l.n.J.4.#.#.$.q.q.q.q.0./ | 0.0.q.0.0.0.0.| | ",
"| V | ^ / / V | | q.q.q.| q.o.E j B V ~ c.R.1XfXfX,X;X~.~.x.x.n.n.b.G.F.F.>XpXhX;Xy.S ' o...q.q.0.0.0.q.q.0.0.0.| | ^ ^ ",
"..| } / / / ..| 0.q.q.q.o.%.! j V V 6.a.T.5XjXlXlXhXiX(.Z.c.! k d 1 &.v.T.yXjXaX>Xc.F q %.w.q.q.q.q.q.q.q.0.0./ V | ^ ^ ",
"q./ q.q.q.q.q.q.| q.w.$.@._ j V V V 9.B.Q.yXyXhXhXhX6XW.I.i.X Q >.& X l.R.tXdXdXaX(.Z.7.L &.q.q.q.q.q.q.q.0.q.q.q./ ^ ^ ",
"q.q.q.q.q.q.q.q.q...<.J f ! M 3 3 V t.B.^.iXtX3X3X4X2X].'.p.X O o   X M.>X>X1X1XuX5XT.u.8 %.e.q.q.q.q.0.q.q.q.q.q.q.q.q.",
"q.q.q.q.q.q.&.&.%.L M M g j h 6 , q 8.P.'.(.L.;XL.:X1X2XoX^.p.! ( S M.W.>XD.k.M.R.(.T.7.0 k @...0.0.q.q.0.q.q.q.q.q.q.q.",
"q.q.q.q.q.o.:.K x N m M x L <.%.J V c.E.Q.K.D.H.H.L.3XtX9X0X X^.R.W.].qX8X>X/./.R.^.Q.F 0 m p  .q.q.0.0.0.q.q.q.q.q.q.w.",
"0.0.0.q.q.$.W h N N M %.g.q.q.&._ ^ a.P.`.OX2X:XD.L.3XyX9X0XXX!.'..X#X#X4XC.M.K.(.oXK.( 3 m k %.w.| | / / q.q.q.q.q.q.$.",
"~ 0.0.q.q.o.#.h M N B [ 1.q.q.$.E 0 7.c.`.@XW.F.L.3XpX9X5XXXQ.m.I.'. XXXqX4X1X>X(.`.C.( y r p L $...../ / / / / / q.q...",
"0.0.q.q.q.q.o.' f M Z _ _ &.0.X.R 5 q a.).OXoX2XpXpXiX8X].}.Q.I.!.7X}.}.qX4X4XqX].'.4.h.2.T d a J ` X...q.q.q./ | / q.q.",
"q.q.q.q.q.q.q.o.@.x z l Y +.e.1.E 5 0 9.E.OXwX8XuXpXaX6X].XXXXXX$X+X!.'.rXeX9XwX.X'.*.3.w.w.1.2 g j [ $.q.q.q.q.q.q.q.q.",
"q.q.q.q.q.q.q.q.e.#.K L f z @.j.X.< 3 ~ Z.}.+XqXuXhXaXeX6X+X X X_.R.U.(.yXrX7X@XXXA.4...| | &.5 g M 6 +...0.q.0.0.q.q.q.",
"q.q.q.q.q.q.q.q.q.q.f.@.a a Y ,.,.t 3 q c.Q. X6XuXpXuXeXqX6X7X.X!.E.(.tXyX9X7X X[.M.4. .^ X.[ x l t 6 ' ..q.q.q.q.q.q.0.",
"0.0.0.0.0.0.q.q.q.q.q.w.<.P s [ ,.l 4 0 u.U.}.+XiXaXuXuXsXaXiXiXiXyX/.F.~.>X@X`.Q.*.$.|  .+.L j a L @.&.q.0.0.q.q.q.q.q.",
"0./ 0./ ~ 0.0.0.0.0.| | /  .P p t < ; 3 F B._.}.5XiXiXuX4XaXjXjXtX/.y.8 ! x.R.^.Z.(  .o.<.` h h J &.| q.q.| 0.0.0.0.0.q.",
"0.| 0.| V / ^ / / | ^ ^ | | ! f g y - - 9 u.U.{.@XrXrXeX4X4XhXhX>Xy.S ; ; ; q y.*.K 2.<.K J K 2...| ..V | / / | q./ q./ ",
"| / / ^ | | | V ^ ^ ^ ^ | V ! k l N u - : F B._.XXwXiXuXuXuXhXhX/.) > 8 5 < 5 , X Y <.U H @.f.q./ ^ | | | | q.q.q.q.q.0.",
"/ / ^ ^ ^ ^ } ^ / / | / | | ! k M m m u 4 : 9.I. X+X9XuX8XuXuXyX(.c.*.h.B u u , . O * W #.e.q.0.| | 0.0.q.0.| | / / / ^ ",
"/ / / / | / | / | | | | | | ! p y C C C M 3 D N.!. X7XqX8XqXyX8XoX(.^.l.j 4 = e v v P 2.q.0.q.0.0.0.q.q.0.| | | ^ / ^ ^ ",
"| | | / | | | | | | ^ / | o.' p r l l u = - > y.E.[.}.+X].].qXqX6XoX~.k.8 , = w H ;.f.w.0.q.q.q.0.0.0.0.q.0.| | | | | / ",
"| | | / / ^ ^ ^ / | ^ ^ } @.P 1 z ,.Z e , , ; D Z._.[.}.'.+XqXsXwXoXp.9 8 j 6 a @...0.0.0.0.q.q.0.| | | | | | ^ / / / / ",
"/ ^ V | ^ ^ ^ ^ / q.| /  .I * P  .$.[ i p k X q s._.}.}. X7XsXpX9XoXN.G y.l.#.$...| | | 0.q.0.0.| / V ~ / ^ ^ ^ ^ ^ / / ",
"^ ^ ^ ^ ^ ^ / | | q.q.q.o.` P ' o.O.Q U [ @.p : u.U.{.}..X0XsXiX7XOXQ.T.~.M.k.e.q.| | | / / | / / / | ^ V | ^ ^ ^ ^ ^ ^ ",
"^ ^ / | | ..| | q.q.| | ..w.w.q.| &.#.@.&.d.' 3 t.Y._.{.|.$XrXrXOX`.`.`.R.4.$.../ ^ ^ ^ / | ^ ^ ^ ^ ^ ^ ^ ^ ^ ^ / / ^ ^ ",
"^ / q.q.| / | | / / / | | | | | | | q.q.0.d.` 5 u.Y.{.{.{.XX#X@X X|._.T.k.$. .^ ^ ^ ^ ^ / V ^ / ^ ^ ^ ^ / 0./ 0.| | 0.q.",
"^ | | q.| V | | / | | q.q.| ..%.e.e.w.../ 1.[ 5 t.E.`._.{.{.{.|.}.[.R.M.*. .| ^ ^ ^ ^ ^ / / / | / 0.0.0.0.0.0.0.q.q.q.q.",
"^ / | q.0.| | | | q.q.q.| | %.Q P T _ { X.%.n 4 ~ B._._.{.{.{.|.|.Q.N.y...^ ^ ^ ^ ^ ^ / / | | q.0.0.0.q.q.q.q.q.q.q.q.q.",
"| / 0.0.0.0./ | q.q.q./ ^ / ..` H a i b R x t 4 0 7.Z.E.Q._.)._.U.B.( $.e.| 0.0./ / / 0.0.| / | / 0.q.q.q.q.q.0.0.0.0.0.",
"/ / | 0.| | | | q.q.q.q.0./ / | o.' { T w < m m 0 0 7.u.a.s.s.a.8.F 8 _ &.q./ / / 0./ 0.q.q.0.0.0.0.q.q.q.q.q.0./ / 0./ ",
"0.0./ / | ^ / / / q.q.q.q.q.q.| q.w.g.2.x z N N 0 - 3 3 9 > 9 9 0 0 g x E %.&./ / ^ / 0.q.q.0.q.q.q.q.q.q.q.0.V / 0.0.0.",
"/ / ^ / ^ ^ ^ ^ / q.q.q.| q.q.q.q.q.o.[ _ Z N y g M z h J S J x k f l Z l Y +. ./ ^ / / q.0.q.q.q.q.q.q.0.q.0.0.0.0.q.q.",
"V ^ ^ ^ / / ^ / | q.| / / q.q.| q.w.X.d k B g _  . .' ' ' ! ' ' { { y y l i Q  .^ ^ ^ q.q.q.q.q.q.q.q.q.q.q.q.0.0.q.q.q.",
"| ^ ^ | | | q.| | / / / / / ~ | q.q...[ K z x X.e.| q.q.q.q.q.0.o.%.j t p P X.^ ^ ^ ^ ^ 0.0.q.q.q.q.q.0.0.q.q.q.0.q.q.q.",
"^ ^ | q.0.0.0.0.| q.| / ^ ..o.| | | q.o.%.E h z @...| / | | 0.w.%.P K J +.$.o.| / | o.o.&.q.0.0.q.0.0.0.0.0.q.q.0.q.0.0.",
"^ | q.q.0.0.q.q.q.q.q.o.O.L L ` &.f.r.e.w.&.` a d ' ../ | | 0.&.E H P @.e.w.r.f.f.@.` T E 1.q.q.0.0.0./ | ~ / / 0.q./ / ",
"^ | 0.q.q.q.q.0.q.q.&.@.K i k z { ` T [ 1.g.g.T 1 z &.q.q.q.d.;.a p :.j.j.X.R R ;.n l k i P 1.o.q.q.0.0./ ^ ^ / 0.0.0./ ",
"| | q.q.0.0.0.q.q.q.$.H + t y l l l z Y E [ ` k r r Y X.q.e.{ a k r z ] { T k l l M y y p & U ..q.q.q.0.q.^ ^ q.0.q.0.q.",
"| q.q.0./ / / q.| e.+.o O 1 r r r w w w & i w + 2 1 + E e.f.P & + + 1 w i e w r r r r , + o A ' q.q.0.q.0.0.q.q.q.q.0.q.",
"..q.| / / | / / / | o.+.#.O.%.O.{ {  .' { O.{ ' ' ' +.%.q.e.%.@.' { { { { X.{ X.X.X.X.$.@.+.#...q.q.q.q.q.q.q.q.q./ / / ",
"| | | | | q.q.0.~ 0.0.w.e.e.w.q.q.o.q.e.w.w.w.q.o.....| | ..q.w.w.q.w.e.w.w.o.q.q.w.e.w.e.e.w.q.0.0.0.q.0.0.q.q.q.| / 0.",
"| | | | / q.q.q.0.0.0.0.q.q.q.0.| | | | 0.0.0.0.| | | | | | | | | / 0.q.q.0.| q.0.q.q.q.q.q./ / / | ~ / / 0.q.q.0.0./ 0.",
"/ / ^ ^ / 0.q.q.q.q.q.q.q.q.q.0.| ^ V } / / | | / | | | | / ^ ^ ^ / / q.q.q.q.q.q.q.q.q.q.q./ / 0.0.q.q.0.0.q.q.q.0.| 0.",
"^ ^ ^ | V / q.q.q.q.q.q./ 0.0.q.| | | / ^ / } V ^ ^ ^ ^ | V ^ ^ ^ ^ / q.0.q.q.q.q.q.q.q.q.q.0.0.0.0.q.q.q.q.q.0.q.0.| | ",
"/ ^ | | 0.q.q.q.q.q.0.0./ ^ / 0.q.q.q.| / / / / / ^ ^ ^ / / ^ / / | 0.q.q.q.q.0.q.q.q.0.q.q.0.q.0.q.q.q.0.0.0.0.0./ q.q.",
"q.q.| | q.q.q.0./ q.q./ ^ ^ / ^ / / | q.q.q.q.q./ ^ ^ ^ / 0.q.q.0.0.0.q.| | 0.0.0.0.0.0.q.q.q.q.q.q.0.0.| / / | / / / / ",
"q.0.| | / / / / / / / 0./ ^ / ^ ^ ^ / / / q.q.q./ ^ ^ ^ q.q./ / | | | / | ^ | | | | | / 0.0.0.q.0.q.0.V ^ / ^ / ^ ^ ^ ^ ",
"0./ ^ Z / / / 0.q.q.q.q.0.0./ / / / / / / / / / | ^ ^ / q.q.| / ^ V / | | | q...0.0.0.| / / / / / / / / ^ ^ ^ / ^ ^ ^ ^ "
};
