/* XPM */
static char *result[] = {
/* columns rows colors chars-per-pixel */
"60 60 245 2 ",
"   c #1F1004",
".  c #361E0E",
"X  c #391E16",
"o  c #2C2D17",
"O  c #3B2919",
"+  c #38341D",
"@  c #3D2424",
"#  c #2A3222",
"$  c #3C3421",
"%  c #3A3928",
"&  c #491D1A",
"*  c #561D1A",
"=  c #532D0E",
"-  c #43241C",
";  c #442D1E",
":  c #492818",
">  c #4B2C1C",
",  c #5A2B15",
"<  c #572718",
"1  c #532C1C",
"2  c #43321D",
"3  c #4D371B",
"4  c #53311D",
"5  c #5A371A",
"6  c #6F390E",
"7  c #642918",
"8  c #693419",
"9  c #6A3C1D",
"0  c #763A19",
"q  c #501D21",
"w  c #452421",
"e  c #4A2527",
"r  c #452D23",
"t  c #4C2B22",
"y  c #532C24",
"u  c #5B2F24",
"i  c #562A28",
"p  c #453323",
"a  c #4B3323",
"s  c #443C24",
"d  c #4D3A25",
"f  c #43332A",
"g  c #4C3529",
"h  c #443D2A",
"j  c #4D3D2B",
"k  c #543325",
"l  c #5B3324",
"z  c #543B25",
"x  c #5D3A26",
"c  c #53342A",
"v  c #5B3429",
"b  c #543C2B",
"n  c #5B3C2C",
"m  c #5C2C33",
"M  c #573937",
"N  c #632E23",
"B  c #653325",
"V  c #65332C",
"C  c #683729",
"Z  c #6B352A",
"A  c #633B2C",
"S  c #71362D",
"D  c #623B31",
"F  c #384529",
"G  c #5A441B",
"H  c #69451B",
"J  c #744418",
"K  c #4C422D",
"L  c #45482B",
"P  c #594426",
"I  c #53432C",
"U  c #5A492D",
"Y  c #5A5027",
"T  c #4A4533",
"R  c #534232",
"E  c #5A4433",
"W  c #554B33",
"Q  c #5C4B34",
"!  c #59473A",
"~  c #555236",
"^  c #5D5439",
"/  c #674824",
"(  c #62442D",
")  c #714C20",
"_  c #77412D",
"`  c #7A432E",
"'  c #795527",
"]  c #634434",
"[  c #644B34",
"{  c #6B4C35",
"}  c #64493A",
"|  c #6C4F39",
" . c #774531",
".. c #7E4630",
"X. c #724D35",
"o. c #7C4A34",
"O. c #764F39",
"+. c #7C4E39",
"@. c #695536",
"#. c #65523C",
"$. c #6B543C",
"%. c #6A5A3B",
"&. c #775736",
"*. c #74533C",
"=. c #7C543C",
"-. c #7A593F",
";. c #7A6839",
":. c #593841",
">. c #595149",
",. c #694942",
"<. c #675743",
"1. c #6C5A42",
"2. c #755642",
"3. c #7A5641",
"4. c #745B43",
"5. c #7C5B43",
"6. c #785D4D",
"7. c #775956",
"8. c #766548",
"9. c #7B634A",
"0. c #7F7942",
"q. c #7B5760",
"w. c #7E6D6C",
"e. c #82471C",
"r. c #884825",
"t. c #87552B",
"y. c #915628",
"u. c #804731",
"i. c #814832",
"p. c #824E38",
"a. c #82533C",
"s. c #8C5939",
"d. c #8A6639",
"f. c #986233",
"g. c #88763B",
"h. c #AB6D3B",
"j. c #A97539",
"k. c #B07737",
"l. c #835943",
"z. c #825B46",
"x. c #876A45",
"c. c #867948",
"v. c #977A48",
"b. c #867453",
"n. c #9B7A55",
"m. c #AB7843",
"M. c #B47B4D",
"N. c #86756C",
"B. c #94864E",
"V. c #A68B45",
"C. c #BB8949",
"Z. c #B1994C",
"A. c #AC8A5B",
"S. c #B98A54",
"D. c #A89456",
"F. c #B89655",
"G. c #BAA35C",
"H. c #A78D66",
"J. c #A79562",
"K. c #B99A68",
"L. c #A79373",
"P. c #B39470",
"I. c #B6A468",
"U. c #BDAE76",
"Y. c #C4904B",
"T. c #CB8C56",
"R. c #C89A56",
"E. c #D59B5C",
"W. c #CAA459",
"Q. c #D6AB5C",
"!. c #D7B55B",
"~. c #C69F69",
"^. c #CF9E6B",
"/. c #C7A867",
"(. c #D8AA69",
"). c #CBB46B",
"_. c #D7B869",
"`. c #C5AA77",
"'. c #D8AD70",
"]. c #CBB679",
"[. c #DCBC71",
"{. c #D4B778",
"}. c #E4AE6D",
"|. c #E4BC64",
" X c #E7B969",
".X c #E4BD6D",
"XX c #E2BB75",
"oX c #DCC26B",
"OX c #DAC47B",
"+X c #E4C465",
"@X c #E4C36B",
"#X c #E5C96A",
"$X c #E3C371",
"%X c #E5CA75",
"&X c #E2C47A",
"*X c #EAC778",
"=X c #E6CC7C",
"-X c #ECCC7C",
";X c #F3CA79",
":X c #E7D27B",
">X c #9A8791",
",X c #B4AA8D",
"<X c #BEAA92",
"1X c #AB9FA4",
"2X c #B4A2A5",
"3X c #CAB785",
"4X c #D8B983",
"5X c #C9AB90",
"6X c #C8B69B",
"7X c #E1BB86",
"8X c #CAC38D",
"9X c #DFC382",
"0X c #D9C988",
"qX c #DAD087",
"wX c #D8C698",
"eX c #E7C685",
"rX c #E5CB84",
"tX c #EACD84",
"yX c #E4CC8A",
"uX c #EACD8A",
"iX c #F3CE89",
"pX c #E5D084",
"aX c #EAD187",
"sX c #E4D38B",
"dX c #EBD28B",
"fX c #E3CC96",
"gX c #ECCD92",
"hX c #E4D394",
"jX c #EDD393",
"kX c #EBD49B",
"lX c #E8D89B",
"zX c #F2D390",
"xX c #CDC1B3",
"cX c #EAD8A8",
"vX c #E6D1B8",
"bX c #F0E0AA",
"nX c #CBBDC5",
"mX c #D5C5C6",
"MX c #D6D0D2",
"NX c #E8DBD9",
"BX c #ECE2D9",
"VX c #DFDCE0",
"CX c #EADCE6",
"ZX c #F1DEE7",
"AX c #E6E2E6",
/* pixels */
"i.i.u.u.u.` u.u.i.i.i.i.i.i.u.i.i.i.i.i.i.i.i.u.` u.` ` u.u.u.u.u.i.i.u...` ` ....i.` u...u.u.i.i.i.u.i.i.i.i.i.u.` ` ` ",
"i.i.u...` ` ` u...r.u.i.i.i.i.i.i.u.u.i.i.i.i.u.i.i...` ` ` ` ..o.....u.u.u.....` ` ` ` ..u.u.u.i.i.i.i.i.i.i.u.u._ ` u.",
"u.i.u.` ` u.u...S u.u.u.i.i.i.i.u.u.u.u.u.u.u...u.i.u...` ` ` ` _ ` _ _ ` ` _ ` _ _ _ _ ` ..i.u.i.i.i.i.i.i.i.i.u.u.u.u.",
"....u.` ..u.i.u.u.u.u.u.u.i.u.i.u.u.u.` ` ` .. ...i.u.u.i.i. . . . .` _ ` _  ._ _ _ _ ` ..i.i.u.i.i.i.i.i.i.i.i.u.i.u.i.",
"` ` ` _ ` u.i.i.i.i.i.i.i.i.i.i.u._ ` ` u.u.=.1.6.O. ...p.z.z.z.7.3.+. ...*.1.*.......i.i.u.u.u.u.u.u.u.i.u.u.u.i.u.i.u.",
"_ _ _ _ S ..i.i.i.i.i.i.i.i.i.i.u.u.u.u.u.u.W F L | ..o.*.I M j % f ,.2.-.L # ^ a.` ....u...` ..` u.u.u.u.u.u.u.u.u.i.i.",
"_ _ ` _ ` u.i.i.i.i.i.i.i.i.i.i.u.u.i.i.u.i.[ % # ! O.O.n > - w q e r f ! s # ^ =.` ` ` ` ` ` ..u.u.u.u.u.u.` ` ` u.u.` ",
"` u.i.i.u.u.i.i.u.u.i.i.i.u.i.i.u.i.i.i.i.i.=.Q % f g t > 1 y & & i e w r r j | i.o.` ` ..u.u.u.u.u.u.` ` ` ` S _ _ _ _ ",
"i.i.....u.` ` ` ..u.u.u.i.u.u.i.u.u.u.i.+.-.-.5.M c e e y c c i e m m e e @ } 3.+.&.o.` ..u.u.u.` ` _ _ _ _ _ _ _ ` _ ` ",
"i.` ` ` ` ` ` ..........` ` ` ` ` ....=.~ L I P k i e :.7.7.,.c M 7.q.M @ X R #.I % #.+.` ` ....u.` ` ` ` _ _ ` ` ` u.u.",
"i.i.` ` ` i.i.u.u.......` ` _ _ ` ` ` U L P 5 = : & M >XnXnX2X7.N.nXmX1X>.# @ > a L ^ +.u.u.u.u.u.u.u.u.u.u.u.u.u.u.u.i.",
"s.i.u.i.u.u.u.u...` ` ` _ _ _ _ ` S ` 5.9.B.n.) = . w.nXZXCXNX>X1XVXAXVX1X% X & &.8.;.+.` ` u.u.u.u.i.i.i.i.i.i.i.i.i.i.",
"o.u.i.u.i...` ` .... .S ` ` _ ` .. .-.x.' x.K.n.5 2 >XMXZXZXZXnXMXVXAXAXxXN.n  .n.b.-.X.` ..` ` ` u.u.u.u.i.i.i.u.i.r.o.",
"` ` ` ` ..u.u...u.u.i...u.` u.=.9.@.Y P G H d.x.&.Q N.xXNXNXNXmXMXNXVXBXxXN.n.M.A.;.Y @.=.i.i.u.u.u.u.i.i.u.i.i.u.u.u.u.",
"_ S ` ` ` ` ` ` u.u.i.i.i.i.a.[ G G G J f.A.3XwXwX6XL.<XvX6X5X<X6X<XvXmX5XP.3XgX0XK.&.5 @.p.i.i.u.u.u.u.i.i.u.i.` ` ` ` ",
"....` ` ` ` ` ` ..u.i.i.i.a.{ b x 9 6 y.S.{.kXbXbXbX7X`.I.H.H.L.P.L.H.P.A.~.yXbXhXK.f.H 3 @.p.i.u.u.i.i.u.u.` ` ` S ` _ ",
"i.u.i.u.i.i.u.u.u.i.i.=.*.{ D Z Z N e.k.W.XXkXcXcXcXgXOX/./.J.9.1.<.8.H.I.(.0XlXlXeX(.m./ @.=.i.i.i.u.i.u.u.u.u.u...` ` ",
"i.i.u.i.i.i.u.i.i.=.5.I d E D V y 8 y.h.W.&XhXcXcXhXdX=X@XW.' 2 >.~ o @.I.9XhXhXkXjXXXS.t.( *.i.i.i.i.i.i.i.i.i.u.u.u.u.",
"i.u.u.i.u.i.i.=.5.[ n x x k c p : = 0 k.(.yXhXxXwX8XqXqXOXG.P . L +   G K.3X`.3X0XyXXXC.J 4 E *.p.i.u.i.i.i.i.u.u.i.i.u.",
"i.i.i.u.u.p.@.W I n v v x a | 9.z = y.R.[.9XI.B.B.B.I.qXsXOXB.5 . . 3 B.3X{.I.J.J.).XXF.J 1 k [ +.i.u.u.u.i.i.u.i.i.i.i.",
"u.u.u.u.i.a.U P A Z u [ 3.+.i.l.z 5 f.Y.(.K.U.8X,XI.].hXhXsX_.F.V.V.Z.oX0X3X3X8XU.G.{.A.9 < k d X.p.o._ ........u.u.i.i.",
"....u.i.i.i.( z Z S V O.=.i.u.a.z < 6 h.(.eX0X8XJ.A.0XfXsXsX%X_.!.!.!.#X%X4XI.`.OXOX[.c.5 3 t k %.-.o.` ..` ....u.u.u.i.",
"u.u.i.i.i.i.a.( l N Z A $.+.i.a.z : 7 y.^.eX].I.].eXgXjXtX#X_.!.Q.Q.|.+XoXuXyX`._.%X).c.;.4.b p b b #.=.i.i.......u.u.i.",
"i.i.i.i.i.i.i.a.[ x V A I 1.a.a.E > , 0 C.XXoXrXgXgXgXuX%X#X!.+X;X;X;X+X@XpXjXuX&X$XI.B.=.o.=.] k v b %.a.i.u.u.u.u.i.i.",
"i.i.i.i.i.i.i.i.a.[ P P b z #.l.2.M i 7 m._.%X:XuXzXgXeX@X+X+X#X%X.X X|.|.yXjXkXtX[.D.9.=. ...2.A V k s %.p.i.i.u.i.i.i.",
"i.i.i.u.i.i.i.i.i.o.-.@.z d g 2.b.! e 7 f.Q.+X#XtXuXsXdXtX$X#XoX).(.W.Q.[.pXjXuX*XoX0.;.+.` -.[ D V k p $.a.u.i.i.i.i.u.",
"u.u.u.u.i.i.i.i.i.i.i.p.$.I s ] z.,.i * r.R.+XoX:XpXsXdXjXjXdX=XOX9X4X'./.OXpX%X+XW.0.%.` -.} D l 1 I $.a.i.i.i.i.i.u.i.",
"u.` u.` ` ` o.r.u.i.i.u. .=.E d g w q 7 0 m.!.+X%XpXpXhXjXlXlXlXcXfXU.t.H g.I._._.V.;.*.o.4.Q v v ] +.o.i.u.` u.u.u.u.u.",
"i.u.u.u.` ` _ _ ` ` ` _ S  .3.M g i q 7 7 e.R..X%XpXpXhXkXkXhXhXhXU.5.5 1 4 P x.B.;.%.-.2.Q d K { o...` ` ` ` ` ........",
"u.` _ _ ` ` _ _ _ ` _ _ u.` 5.E e V * * , 8 k..X%XrXpXdXkXhXhXhXhXA./ 1 > & t c : > | 8.^ K <.5.o.` ` ` ` i.i.i.i.u.....",
"` _ ` _ _ _ _ _ ` ` ` ` u.u.l.E i S Z 7 * , t.F.oX%XeXjXkXhXqXsXdXF.)  .+.V i y - X ; K ~ %.=.i.o...u.u.u.i.i.u...` ` ` ",
"` ` ` ` ` u.` ` i.i.` ` u.u.l.E y N V N u l 5 v.).$X*XiXjXsXtX%X*X[.~.P.+.c e - w r + W *.p.i.i.i.i.i.i.u.i.u.` ` _ _ _ ",
"` u.` u.u.` ` ` i.o.` _ u...l.n ; l v i w @ : ' R..X@XtXdXpX%X%X*X-X7X`.8.2 O ; p s #.=.i.i.i.i.i.i.u.i.i.u.u.u.u.u.` ` ",
"u.` u.` _ _ ` ` ` ` _ _ ` =.Q s g ] D c @ O : , j.(.@X@X%XOX=X-X;XiX'.d.H 3 : O h $.a.i.i.i.i.i.u.u.u.` u.` ` ` _ ` u.` ",
"_ _ _ _ ` _ ` S ` i.u.` =.Q L s Q *.*.] r g t = f.Q. X@X&XeXuXtXaXiX/.' 5 / %.%.2.o.u.u.i.i.i.i.` ` _ ` ` _ _ _ _ _ _ _ ",
"_ _ _ _ ` ` ` ..i.i.i.u.a.K + Q =.a.Q s R ,.M = e.Y.|.+X&XuXuXdXdX&X_.Z.V.K.b.4.a.u...` ` ..` ` _ _ _ ` _ _ _ _ _ _ ` ..",
"_ _ ` u.u.u.u.u.u.u.u.u.i.+.&.+.i.a.%.~ 2.l.( 1 J C.|.@X%XuXdXaXiX%X@X.X'.K.c.&.` _ _ _ ` ` _ _ _ _ _ S ` ` _ _ ` ` ` ..",
"_ ` i.i.` ` ..` ..` ` ` o.o.i.` ` ..o.o.o.i.] 1 0 C.|.+X%X=X=X:X-X+X.X.XW.g.;.o.` _ _ _ _ _ _ _ ` _ ` _ ` ` ` u.....u.u.",
"_ ` u.u.` ` ` ` ` ....u.u.o.i.o.o.o...` ` ` [ k 9 S..X+X+X+X@X#X+X+X@X).g.;.o._ _ _ _ _ ` ` ` ` ........u.u.u.u.u.i.i.i.",
"` ` u.i.i.u.` u...u.i.u.u...=.%.$.*.-.=.O.` x 4 9 M.}.@X@X+X+X+X+X+XoXB.;.&.` _ _ _ ` ` ` ` u.i.i...i.i.i.r.i.u.u.i.u.i.",
"..` u.u.u.u.....u.i.u.u._ ` +.Q F % s R #.$.x 1 , t.T.}. X X X X X}.F.d.o.o.` u.` ` ` u.u...` ..` u.i.i.i.i.u.u.u.u.u.u.",
"` ` ` u.......` u.i.i.i.u.` ` O.2.#.K j d t > , , 7 r.M.E.E.E.E.T.m.' / X.i.u.u.u.u...u.u.u.u.u.u.u.i.i.i.i.u.u.` ` u.` ",
"u.u.` ..` ` ` ` ` i.i.i.i.u.u.i.i.p.5.9.I > 1 Z N 7 7 6 e.r.r.r.0 0 8 5 ( &.o. ._ _ ` u.i.i.u.i.i.i.i.i.i.i.u._ ` u.u.u.",
"` ` _ ` _ _ _ ` ` i.i.i.i.u.i.i.i.i.p.z.} C S B 7 i = = 8 7 B 5 N N 1 x A ( 1.O.` _ _ ` i.u.i.i.i.i.i.i.i.i.u.u.u.u.i.i.",
"_ _ _ _ ` ` _ ` ..i.....` u.u.i.i.i.-.E n S Z 5 c E ( P U U W ! M j g k A v d @.+.` ` o.i.i.i.i.i.i.i.i.i.i.i.u.u.i.u.i.",
"_ _ ` ` ..u.u...` ` ` _ _ ` ` u.u.i.l.Q c Z B ( 3.+...o.o.o.o. . .=.#.k k k j | o.S ` ` u.u.i.i.u.u.i.u.u.i.i.u.u.i.i.i.",
"` ` u.i.u.u.u.u.u.....` ` ` ` ` ..i.i.5.Q n V A O.+. .....u.u.u.i.=.E b b I %.+.` ` ` ` ..o.u.u.u.u.u.u.u.u.u.u.u.u.u.u.",
"_ ` u.u.u.u.i.i.i.i.i.i.+.+.=.+.a.i.i.i.a.*.( b R #.O.` ` ..u.u.a.Q K R $.5.p.p.i.i.=.=.=.a.i.i.u.u.u.u.` ` u.` ` u.u.` ",
"` ` u.u.i.u.i.u.u.i.i.a.@.I p d &.5.5.=.+.a.5.I g R { i.i.i.p.p.U d L #.l.p.+.-.5.z.( d d U *.a.i.i.u.u.` ` _ ` u.u.u.` ",
"o...u.u.u.u.i.i.i.i.a.^ s d k k D ] b K 1.5.z.| k w } =.o.i.p.*.b p ! 4.z.9.#.j E D v v a p W 2.a.i.u.i.i.` ` ` u.i.u.i.",
"u.u.i.u.` ` u.u.o.u.1.L $ r g k i B v c R T R g t : s >.=.u.*.E g t y k b R b g k c c a d r O ^ a.i.i.i.u.u.i.i.i.u.` u.",
"i.i.u.` ` ` ` ` ....%.F + + ; g > y t t 2 p + r a p + ~ *.u.[ L ; t a r r r p g a > s + O + + ^ =.i.i.i.i.i.i.i.i.u.` u.",
"u.i.i.` ` i.i.i.u.` p.-.5.a.-.-.=.a.a.=.-.=.-.=.-.=.*.-.o.` =.-.-.-.l.3.=.-.=.=.=.l.-.5.-.5.-.a.p.i.u.u.u.i.i.i.i.` ` u.",
"u.i.` ` u.i.i.i.u.u.i.i.i.p.i.i... ...o.o.i.i.i.i.i.o.o.u.u.u.o.....i.i.i.i.i.o.i.i.i.i.i.i.o.` ` ` ` ` ` u.i.i.i.u.` i.",
"` _ _ _ ` ` i.i.i.i.i.i.i.i.i.u..._ _ ` ` `  ...` ` ` ` ` ` ` ` S ` ..u.i.i.i.i.i.i.i.i.i.i.` ` u.u.i.i.u.u.i.u.u.u.` u.",
"_ _ _ ` ` ` i.u.i.i.i.i.` o.u.i.i...` ` ` ` ` S ` ` ` _ _ ` ` S _ ` ` i.i.u.i.i.i.u.i.i.i.i.u.u.u.u.i.u.i.i.i.i.i.i.u.o.",
"` ` ` ..o.u.i.i.i.u.u.u.` _ ` ` ..i.i...u.` ` ` ` _ _ _ ` ` ` ` ` ..u.i.i.i.i.i.u.i.i.i.i.i.i.i.i.i.i.i.u.u.u.i.i.u.u.r.",
"u.u.u...i.i.i.u.u.u.u.` _ ` ` _ ` ....i.i.i.i.i.` _ _ _  .u.u.i.i.i.u.i.....u.u.u.u.u.u.i.i.i.u.i.i.u.u.` u.` ` ` ` _ ` ",
"u...` ` ` ` ` S ` u.` u.` ` ` _ _ _ ` ` ` ` i.i..._ _ _ i.u...` ` ` ` ` ` ` ` ..u...` ` u.u.u.u.u.u.u.S _ ` _ _ _ _ _ _ ",
"u.` ` ` ` ` i.u.u.i.i.u.i.` ` ` ` ` ` ` ` ` ` ` ` _ _ ` u.u...` ` ` ` ....u.i.i.u.u.u.u.` ` ` ` ` ` ` ` _ _ _ ` _ _ _ _ "
};
