/* XPM */
static char *result[] = {
/* columns rows colors chars-per-pixel */
"60 60 240 2 ",
"   c #231206",
".  c #391C18",
"X  c #2D2A15",
"o  c #392A18",
"O  c #3B2B1C",
"+  c #38321D",
"@  c #392920",
"#  c #3E3922",
"$  c #441F1B",
"%  c #4B1E1A",
"&  c #551F19",
"*  c #611C1E",
"=  c #482815",
"-  c #44261B",
";  c #4C241C",
":  c #432B1C",
">  c #4B2C1E",
",  c #572416",
"<  c #5D2B13",
"1  c #55231D",
"2  c #532C1C",
"3  c #5B2C1D",
"4  c #47341C",
"5  c #55371B",
"6  c #64290E",
"7  c #6B330E",
"8  c #642B13",
"9  c #65281A",
"0  c #6B2B1A",
"q  c #73261C",
"w  c #6A3417",
"e  c #63331A",
"r  c #713919",
"t  c #481E21",
"y  c #472724",
"u  c #4D2524",
"i  c #4C2A22",
"p  c #562522",
"a  c #5C2522",
"s  c #532C24",
"d  c #5A2B25",
"f  c #5B2C2A",
"g  c #453323",
"h  c #4C3324",
"j  c #443B25",
"k  c #4B3A25",
"l  c #47382A",
"z  c #4C3C2A",
"x  c #533325",
"c  c #593425",
"v  c #533A22",
"b  c #5A3B23",
"n  c #53352A",
"m  c #5B342A",
"M  c #543B2C",
"N  c #5C3A2C",
"B  c #4F3E31",
"V  c #593631",
"C  c #543D33",
"Z  c #5C3D31",
"A  c #662725",
"S  c #632A26",
"D  c #652D2B",
"F  c #722927",
"G  c #623924",
"H  c #6C3A24",
"J  c #64352C",
"K  c #68362A",
"L  c #6C352D",
"P  c #633B2C",
"I  c #753722",
"U  c #693932",
"Y  c #713932",
"T  c #394728",
"R  c #57411A",
"E  c #7C4319",
"W  c #44432B",
"Q  c #49442A",
"!  c #54422C",
"~  c #584729",
"^  c #5B432C",
"/  c #4D4432",
"(  c #554533",
")  c #5B4532",
"_  c #554B33",
"`  c #5C4C34",
"'  c #54493C",
"]  c #585237",
"[  c #5C5239",
"{  c #67452B",
"}  c #61422D",
"|  c #7E4825",
" . c #77412D",
".. c #7A432E",
"X. c #68552A",
"o. c #755D2C",
"O. c #664536",
"+. c #644C35",
"@. c #6D4B35",
"#. c #644D39",
"$. c #6C4C3B",
"%. c #754631",
"&. c #7E4630",
"*. c #744B34",
"=. c #7C4A34",
"-. c #744E39",
";. c #7B4E39",
":. c #63533B",
">. c #6C533B",
",. c #6B5538",
"<. c #775534",
"1. c #74523B",
"2. c #7C533C",
"3. c #72593C",
"4. c #7C5A3D",
"5. c #7B6D34",
"6. c #76613B",
"7. c #5C5642",
"8. c #6B5943",
"9. c #68554E",
"0. c #745542",
"q. c #7C5641",
"w. c #745A43",
"e. c #7D5B43",
"r. c #6A6749",
"t. c #77624A",
"y. c #7E6457",
"u. c #844A1C",
"i. c #85501E",
"p. c #85472B",
"a. c #8B5327",
"s. c #95532A",
"d. c #804731",
"f. c #814932",
"g. c #824E38",
"h. c #83533C",
"j. c #865838",
"k. c #965933",
"l. c #8F653B",
"z. c #946A38",
"x. c #8C7538",
"c. c #987F36",
"v. c #A66A38",
"b. c #AC783A",
"n. c #B77A3F",
"m. c #835B43",
"M. c #885F49",
"N. c #856647",
"B. c #82624A",
"V. c #8A7743",
"C. c #93714B",
"Z. c #877158",
"A. c #AF794D",
"S. c #8B7877",
"D. c #9A8750",
"F. c #9E9356",
"G. c #BA8849",
"H. c #AA8F51",
"J. c #AB9657",
"K. c #B89859",
"L. c #93886C",
"P. c #9F8872",
"I. c #A6936E",
"U. c #B19C64",
"Y. c #BCA567",
"T. c #ACA87E",
"R. c #BBA676",
"E. c #C7934F",
"W. c #CA9355",
"Q. c #CEAB4D",
"!. c #D3AC4D",
"~. c #D8AA4B",
"^. c #CDAB59",
"/. c #D4A857",
"(. c #D4AD54",
"). c #DCB454",
"_. c #D3B25F",
"`. c #DCB55A",
"'. c #DDBB5C",
"]. c #E7BD59",
"[. c #E3BD5C",
"{. c #C79764",
"}. c #C7A866",
"|. c #D7AC66",
" X c #CCB065",
".X c #D6B667",
"XX c #DDBA63",
"oX c #C7A874",
"OX c #C9B579",
"+X c #D9B976",
"@X c #E9AF60",
"#X c #E4B866",
"$X c #E9BB63",
"%X c #ECBE6C",
"&X c #E6BC75",
"*X c #E5C35E",
"=X c #E8C45E",
"-X c #DEC56B",
";X c #DBC279",
":X c #E4C364",
">X c #EAC364",
",X c #E4C46B",
"<X c #EAC16C",
"1X c #E9CA6A",
"2X c #E4C572",
"3X c #EBC573",
"4X c #E3C973",
"5X c #ECCA74",
"6X c #EECA74",
"7X c #E6CA7D",
"8X c #EACB7B",
"9X c #F1CD7C",
"0X c #9B8B83",
"qX c #B9AE88",
"wX c #ABA396",
"eX c #B9AE91",
"rX c #B7A8A5",
"tX c #B9B2AE",
"yX c #C8B984",
"uX c #C9B38D",
"iX c #E1BF8B",
"pX c #C3B7AA",
"aX c #C5BCB5",
"sX c #DCC884",
"dX c #CCC893",
"fX c #D4C192",
"gX c #D7C89A",
"hX c #DBD09E",
"jX c #E7CA84",
"kX c #EBD283",
"lX c #F1D38A",
"zX c #E5CB93",
"xX c #E5D296",
"cX c #F1D393",
"vX c #D3C8AF",
"bX c #CCC5BD",
"nX c #E6D3A6",
"mX c #D7CFCC",
"MX c #EADDD8",
"NX c #EBE4DC",
/* pixels */
"f.f.f.d.&...d.d.f.f.f.d.f.f.f.f.d.d.f.d.f.f.f.d...d.....d.p.f.d.&.f.f.f.........d.p.&.&.&.&.d.f.f.f.d.f.d.d.f.f.f.....&.",
"f.d.d.........d.&.&.d.f.f.d.f.f.f.f.d.f.f.f.f.f.f.d.p.Y  ...&.&.p.d.&.f.d.f.d.d..... ...&.&.d.d.f.f.f.f.f.f.d.d.......d.",
"d.d.d.....d.d.&...&.&.d.f.f.d.f.d.d.d.d.d.d.d.d.d.f.f.d... . . . ... ..... . . . . . . .&.&.f.d.d.f.f.f.f.d.f.f...d.d.d.",
"&.d.d.&.&.d.f.d.d.d.d.d.d.f.f.f.d.d...d...........d.d.d.d.&..... ... . . . . . . . .....&.f.f.d.f.f.f.f.f.f.f.d.g.&.p.f.",
".... . ...p.f.f.f.f.d.d.d.f.f.f.d.....&.&.&..... ...d.d.d.d.g.f.f.&...Y  . . .....&.&.d.d.f.d.d.d.d.d.f.d.d.f.f.f.f.f.f.",
".. . . .Y ..f.f.f.p.f.f.f.f.d.d.d.d.d.d.d.d.......Y ....&.....d.f.f.&... . ...g.f.&.&.&.&.&...&.d.d.d.f.d.d.d.d.f.f.&.f.",
".. .........f.f.d.f.f.d.f.d.g.f.d.d.f.f.d.d.d.d.p.........d.d...d.d.d... . .&.&.&... .........&...d.d...d.d.d.I p...d...",
"....f.f.f.f.f.f.d.d.f.f.f.d.&.f.d.d.p.f.d.d.d.d.g.h.d...........d.....=.*. .&.&.&.&.&...&.d.d.d.d.d.d.......Y &. .Y ....",
"f.f.d.&.d.......&.d.&.d.f.&...&.p.f.f.f.&.&... . .] :.;.&.q.0.#.e.2.1.[ #. . ...........&.d.d.&.........Y  . . . . .....",
"f.............&.&.&.&.&.&...p.&.&...&.f.t.3.&. .{ T j _ [ z z h n z j j !  . . . .Y ........&.&.d..... ...............p.",
"f.&.......f.f.f.d.&.&.&..... . . . .%.t.r.] 1.=.-.j g i m f d p u : O l ^ 2.,.~ X.h.d.d.&.d.d.d.d.d.f.p.d.d.d.d.f.p.f.f.",
"h.f.f.f.d.d.d.d.&....... . . . . . .<.Z.L.y.k +.) - % a S F A A f u t @ M >.:.r.r.1.&.&.....&.d.d.d.f.f.f.f.f.d.f.f.f.f.",
"f.f.p.f.f.d.....&.&...Y .. . . .....h.Z.L.P.= > x d % p D D U D f t u t u p 8.t._ w.&.....&.&.&.&.&.d.d.d.f.d.f.f.f.f.f.",
"........d.&.&.&.d.d.d.&...d.&.f.m.m.{ ` ~ O.% , a 1 u % p f f f f u t t p 1 p x k w.h.&.d.d.d.&.&.&.&.d.d.f.d.d.&.&.&...",
"....Y  .........&.d.f.d.p.g.m.,.5 ~ { R c c * F * p u f u u t $ u y . % a A A c h 5 ^ =.&.d.f.f.&.d.d.f.f.d.d.&.&. .....",
"d...............d.f.f.g.m.>.M M c H r e e e 0 q A u f 7.V @ . . l B n % A F F H K b 5 +.e.g.f.f.d.f.f.d.f.d.&.&... . . .",
"g.&.f.d.f.d.d.d.f.g.m.@.P P P K H F p.k.l.j.r 0 3 9.rXaXpXS.C 9.wXaX0Xf 1 * q 6 0 H G b ^ $.m.f.f.f.f.f.f.d.d.d.&.&.....",
"d.f.p.f.f.d.d.h.m.,.! P J L K 9 9 q k.{.+XiXoXA.%.y.MXNXMXbXrXtXmXNXbXZ.3 d.| q 6 6 e G P Z V e.h.f.f.f.f.d.f.f.d.d.d.d.",
"d.d.f.f.d.f.3.O.} O.P G J 3 1 & 0 s.G..XjXcXcXiXoXP.vXbXwXmXrXtXbXwXpXZ.C.oX{.A.s.w , 2 N V P ^ { h.f.f.f.f.f.d.f.f.f.d.",
"f.d.f.f.f.=.>.c L L d > = - = , w s.b.|.;X+X}.zXnXuXdXeXwXtXaXaXtXrXuXeXiXzXcXiXW.M. .^ g n N 5 } h.d.d.d.f.d.d.f.d.f.d.",
"d.d.f.d.&.2.3.b U s v $.;.*.$.; 8 i.E.&XjXsXU.F.qXgXhXdXT.7.7.7.:.R.fXgXhXOXoX&X{.j.{ &.*.+.x c } j.&.....&.d.d.f.d.d.f.",
"..d.d.f.p.g.w.M { x ^ *.f.g.w.s 9 v.|.jXjXhXfXuXR.R.hXyXX.# 9.7.X ~ R.;XF.I.OXsXoXV.<.f.=.@.M x } h.....&.&...&.d.d.d.f.",
"d.d.f.d.f.=.w.c J x ^ &.&.;.w.2 F A.E.3XsXxXnXvXfXuXxXyX~   X X   R Y.sXyXfXxXjX}.C.e...%.@.( x ^ m...&.d.f.&.&.&.d.d.f.",
"f.f.f.f.f.g.w.c J s +.%.f.g.w.> 0 a.A.&XjXjXOXD.F.Y.zXzXD.! : O R D.;X+XH.U.OX+XY.V.N...d.*.' h ^ h...&.f.d.d.d.d.d.d.f.",
"f.f.f.f.f.f.h.b J x #.d.d.g.q.n , 7 v.|.3X7X;XOXY..X4XkX&XU.K.J.Y.+XkX2X XK.^. XJ.,.&.p.Y @.` v ^ 2. ...p.f.f.f.d.f.f.f.",
"f.f.f.d.d.f.=.N V x m.d.d.d.=.( , 7 s./.<X5XkXkX.XQ.`.XX|.^.^.^._.2X8XXX X.X;X|.F.X. .....*.@.> { 4.Y ..f.f.d.f.f.f.d.f.",
"d.d.d.d.f.f.%.) M x m.g.d.d.&.3.= < r /.%X3X9X8X-X`.`.#X&X3X3X.X^.(.Q.!.XX8XjX^.x.6. . ...g.@.4 ` 4.&.g.f.f.f.f.f.p.d.f.",
"d...d.......%.( z k m.&...Y %.3.o 2 r A.#X%X%X8X5X1X<X&X&X6X5XXX(.*X[.*X6X9X&XH.o.4. .Y ..=.{ + :.m.d.d.f.d...d.d.d.d.d.",
"f.d.&.&..... .Q z g 4... . . .*.:.4 8 i.W.<X>X1X1X*X>X%X#XQ.Q.!.'.[.>X=X:X1X Xc.X.h. . . .g.1.T _ e...............f...d.",
"&..... ..... .! M k q... .&...&.*.k 2 r b.#X>X>X:X>X:X:X#X`.'.:X:X,X*X*X*X'.G.o.3.f. . . .f.2.] _ h.......f.f.f.f.f.f.f.",
"..Y  . . . . .M M k e.&.&.&. . .=.1.> < a./.:X,X4X-X-X4X5X4X-X8X9X,X:X>X>X!.c.X.;.p.&. .Y f.-.( :.e.d.d.d.d.d.d....... .",
"......&...&.%.M n h m.&.&.&.&.&.&.*.! 2 r b.XX2X-X:X4X8X9XkX8X7X3X,X,X:X).E.x.4.f.=.&.p.&.m.-.i k [ m.f.d.d.d..... . . .",
"p.&.&.&.g.=.2.m d x q.%.=.f.&.f.f.g.1.> 8 i.^.+X:X4X5XkXlX9X4X-X4X:X:X).(.G.6.j.d.f.d.f.;.O.m ; i z 1.g.f.&.p.&.&.&...2.",
"&.=.3.W + l ) d S s ! z j z >.m.f.g.q.n , w b.`.:X4X4X5X8X5X:X:X*X'.!.).^.c.l.&...g.m.w.#.m 1 1 a ; N h.f.............1.",
"&.0.) k k n m S D i g l k C / ` =.Y ;.0.d 9 k.|.,X,X1X3X<X%X].[.).!.).'.K.o.j.=.4.#.[ ( z > & A 1 a m $.2...Y  . . . .;.",
"{ j h ; s d p D D h $.0.$.s M Q e.=.f.;.n 3 p.E.%X:X'.$X<X$X~.~.).).-X-XF.X.g.h.8.W # + M K 1 a A A d J @.;. . . . . ...",
"*.l : i f 1 1 s h >.=.g.;.#.# l t.f.d.g.1.; r A.#X<X=X].~.~.).[.*X>X-XY.5.6.d...>.[ _ -.O.N s 2 a D A f M ,.4... ..... .",
"*.>.4 - d ; m s h %.&...&.;.:._ h.&.d.f.2.) < a.W.$X].].[.[.:X:X*X:X.XF.X.<. . .%.*.%.-.#.> Z 0.$.D S ; 4 W ` h.&.p.d.f.",
" .*.1.v > ; c s v &.&.g.p.=.2.*.=.&.....;.8.5 r n.].].].*X:X:X*X*X$X}.V.4. . . ..... .*.` 4 ( M.$.d m >.:.T Q 6.f.f.f.f.",
"....g.1.) k k 4 ^ &.f.&.&.&.t.8.2.m.2.=.&.@.: 8 v.@X$X>X].:X>X>X$X%XK.6.e. . . . . . .&.-.~ / t.#.g Q ,.=.,.1.;.f.f.f.f.",
"....&.g.=.@.] _ 1.f.d.&...&.3.T # z ) +.0.$.- < u.G.#X>X,X%X%X>X>X/.x.,.g.&.p.d.......d.g.w.3.;.2._ W 4.f.f.g.f.d.d.d.d.",
"&.....&.| =.*.*.g.d.d.d.&.&.*.$.:.B l C h i s 9 6 E G. X|.+X|.^.G.z.X.,.&.....d.d.&.&.d.f.g.g.g.f.%.*.=.f.f.&.&.....&.&.",
"f.p.&.&... . ...&.d.d.f.&.p.f.f.;.4.w.8.y u J S 8 8 r | j.k.k.a.E 7 5 ^ 1.=....... ...&.f.f.d.d.f.f.f.f.f.f.&. ...&.&.&.",
".. . . . . .Y ....f.f.d.=.f.f.f.f.g.m.e.m U U D 3 2 = 2 3 9 9 9 < e H N ) 3.4. . . .....f.d.d.d.d.f.f.d.f.f.p.&.d.d.d.d.",
" . . . ..... .....g.&...&.&.f.f.d.&.,.M P Y f s n ( / _ _ ) ) Z N > 2 G ^ ! ` ;. .....d.f.f.f.f.d.f.f.f.f.d.f.d.f.f.f.d.",
" . . .&.d.d.d.&...&....... .....d.g.3.4 P K S 4.2.%.*.-.*.=.=.*.=.-.b 2 5 4 ` =. . . ...d.f.d.f.f.f.d.f.d.f.f.f.f.d.f.f.",
" ...&.g.d.d.d.d.d.d.&... . .....d.d.2.>.x P P @.2.......&.&.f.f.;.0.n v 4 ` h.d... . . ...d.d.d.d.p.d.d.d.d.f.f.d.f.d.d.",
" ...d.d.d.d.d.f.d.d.p.f.g.h.h.g.d.d.g.;.q.$.M M +.2. .&...&.&.=.w.B ( ^ 4.4.f.d.d.f.g.h.g.f.f.d.d.d.d...d.......d.d.....",
"....d.f.f.d.f.f.=.p.g.4.` ! M ^ t.m.m.f.g.;.#.g ! >...&.f.f.g.*.l l ( e.g.g.m.M.e.$.k ! ) 1.g.d.d.d.d.d.....Y ..&.f.d.&.",
"&.&.f.f.d.d.d.d.p.g.e._ k 4 n M O.` ( #.m.N.e.x i ) e.d.f.f.2.#.g C 0.N.B.w.` ) ) ) M M 4 ) 4.g.d.d.f.f.d.....p.d.f.d.d.",
"f.f.f.d...&...f.&.=.:.g : d d J m m n ( ` O.N i i l _ m.f.%.[ z i f P C ( z x V m m s i x # ) m.d.f.f.f.d.&.f.f.f.d.&.f.",
"&.f.&...........&.*./ X o - h - i y g : g O y O O + j w.d.@.T + O - : + # g y ; - g g 4 O X W m.d.f.f.f.f.f.f.f.d.&...&.",
"&.f.d.d.&.d.f.d...&.3.1.1.1.4.*.1.1.2.1.0.-.1.-.-.>.,.2.&.=.3.,.1.-.-.1.1.-.-.*.-.1.1.1.-.1.1.g.f.f.d.f.d.d.f.f.&.&.&.&.",
"&.p.......f.f.f.d.f.g.g.g.g.g.g.=.&.=.f.g.f.g.g.g.g.g.&.&.&.g.p.&.&.g.f.g.g.g.g.f.g.g.f.f.g.f.............d.d.f.p.d...&.",
".... . ...d.f.f.d.f.f.d.d.d.f.d..... . . . .&.&...&.&...&. ... . . ...f.f.f.d.d.f.d.f.g.f.&.....d.d.f.f.d.d.f.f.f.d...f.",
" . . ...Y ..f.f.f.f.d.d.d.&.d.f.f.&..... . . .Y  . ... . . . . . .....f.f.f.f.d.f.f.f.&.p.f.d.d.d.d.f.f.d.f.f.d.f.f.d.f.",
"......&.&.=.f.f.f.d.d..... .....d.f.f.d.&.......Y  . . . ... .Y ..&.f.g.d.f.f.f.f.f.f.f.p.f.f.d.f.d.f.f.p.f.f.f.f...f.f.",
"d.d.d.&.&.&.f.d.d.d.d.d... . .......d.d.f.f.g.d. . . . ...d.f.g.f.&.d.d.d...d.d.d.d.d.d.d.d.f.f.d.f.d.d...d......... ...",
"p.d.&.....&. .&.......d......... . . . ...&.&.p.p. . . .f.f.&.................d...d...d.d.d.d.f.d.f.d.I ..Y  ... . . . .",
"&... .Y  .&.&.&.f.f.f.d.d.&............. ...&.d... . ...d.f.&..... .....d.d.f.f.f.d.d................... . . ... . . . ."
};
