/* XPM */
static char *result[] = {
/* columns rows colors chars-per-pixel */
"60 60 241 2 ",
"   c #1E1107",
".  c #3C1E1D",
"X  c #3B260B",
"o  c #392919",
"O  c #2E391D",
"+  c #34341D",
"@  c #3D321F",
"#  c #3D3A1E",
"$  c #393821",
"%  c #3D3922",
"&  c #481D1B",
"*  c #561E1C",
"=  c #691F1D",
"-  c #5A290C",
";  c #442618",
":  c #4C241E",
">  c #452D1D",
",  c #4C2A1D",
"<  c #582817",
"1  c #5C2D14",
"2  c #53231D",
"3  c #532B1C",
"4  c #4C311F",
"5  c #53331D",
"6  c #5B331D",
"7  c #593B1F",
"8  c #652A0E",
"9  c #6E350C",
"0  c #652719",
"q  c #6B251C",
"w  c #70291E",
"e  c #69351B",
"r  c #743916",
"t  c #471F21",
"y  c #4C2423",
"u  c #452822",
"i  c #4C2D22",
"p  c #542422",
"a  c #5A2623",
"s  c #532C23",
"d  c #5A2D24",
"f  c #572B28",
"g  c #443322",
"h  c #4B3324",
"j  c #453C24",
"k  c #4A3925",
"l  c #4D362A",
"z  c #453D2A",
"x  c #4D3D29",
"c  c #543324",
"v  c #5B3324",
"b  c #533B25",
"n  c #5A3C25",
"m  c #55342A",
"M  c #5C332A",
"N  c #533C2B",
"B  c #5B3C2C",
"V  c #4D3F30",
"C  c #5E3D30",
"Z  c #583A34",
"A  c #622724",
"S  c #632C25",
"D  c #692823",
"F  c #632C2A",
"G  c #6A2C2B",
"H  c #673825",
"J  c #64342A",
"K  c #6B342C",
"L  c #643B2D",
"P  c #753526",
"I  c #653933",
"U  c #693D31",
"Y  c #55421D",
"T  c #76451A",
"R  c #44432A",
"E  c #4D432C",
"W  c #4B492B",
"Q  c #524224",
"!  c #54432C",
"~  c #5B422D",
"^  c #57492E",
"/  c #4D4333",
"(  c #4F4C32",
")  c #544431",
"_  c #5B4432",
"`  c #544C34",
"'  c #5B4B34",
"]  c #56483A",
"[  c #5B4C39",
"{  c #5C553A",
"}  c #66482B",
"|  c #7A4425",
" . c #77412D",
".. c #7A432E",
"X. c #695E21",
"o. c #624533",
"O. c #624A35",
"+. c #654E3B",
"@. c #6B4E3A",
"#. c #754631",
"$. c #7E4630",
"%. c #754B34",
"&. c #7D4A34",
"*. c #734E39",
"=. c #7D4E38",
"-. c #6B5334",
";. c #63533B",
":. c #6C533B",
">. c #6B593E",
",. c #775134",
"<. c #74543C",
"1. c #7C533C",
"2. c #745A3B",
"3. c #79593E",
"4. c #71662F",
"5. c #77673A",
"6. c #79733B",
"7. c #5C4F45",
"8. c #6A5545",
"9. c #6C5C42",
"0. c #7B5641",
"q. c #745B42",
"w. c #755847",
"e. c #7B5B43",
"r. c #665750",
"t. c #725956",
"y. c #6F6246",
"u. c #786447",
"i. c #7B7640",
"p. c #797254",
"a. c #864A1E",
"s. c #874825",
"d. c #904C2F",
"f. c #8B5625",
"g. c #955A2C",
"h. c #804731",
"j. c #814832",
"k. c #824F38",
"l. c #82523B",
"z. c #88573B",
"x. c #945B3B",
"c. c #8A6E36",
"v. c #92783B",
"b. c #A26A2F",
"n. c #A6763F",
"m. c #B17A3D",
"M. c #825B43",
"N. c #825F4A",
"B. c #826B43",
"V. c #826B48",
"C. c #867A44",
"Z. c #957848",
"A. c #92785A",
"S. c #A4774C",
"D. c #B27943",
"F. c #998646",
"G. c #B68A4A",
"H. c #A58A57",
"J. c #AD9B58",
"K. c #BCA35D",
"L. c #98836C",
"P. c #9C8976",
"I. c #A99962",
"U. c #AC9A72",
"Y. c #BBA769",
"T. c #C4894C",
"R. c #CA9855",
"E. c #D39D56",
"W. c #CBAD4E",
"Q. c #D4AA4D",
"!. c #D9B14C",
"~. c #CCA758",
"^. c #DAAC58",
"/. c #D7B556",
"(. c #DCB55A",
"). c #E2AD58",
"_. c #E5B959",
"`. c #EBBD5D",
"'. c #CA9D6E",
"]. c #C5A563",
"[. c #D7AC65",
"{. c #CBB366",
"}. c #DCB464",
"|. c #D8B86A",
" X c #C8A272",
".X c #D4AF77",
"XX c #C9B478",
"oX c #D8B878",
"OX c #D9BD7B",
"+X c #E6B464",
"@X c #E4BC63",
"#X c #EABD64",
"$X c #E3BC6A",
"%X c #EABC6B",
"&X c #F0BE65",
"*X c #E8BD72",
"=X c #DEC25C",
"-X c #E5C45D",
";X c #EBC15C",
":X c #E6C85D",
">X c #DEC36A",
",X c #DDC473",
"<X c #D9C37B",
"1X c #E4C363",
"2X c #EAC263",
"3X c #E3C36C",
"4X c #EAC46B",
"5X c #E8CA69",
"6X c #E4C375",
"7X c #EAC675",
"8X c #E5CB74",
"9X c #E6CA7B",
"0X c #EACA78",
"qX c #EBCA7B",
"wX c #F1CA71",
"eX c #A89A94",
"rX c #AEA78E",
"tX c #BAB587",
"yX c #AFAB97",
"uX c #B8ACAB",
"iX c #B9B4A7",
"pX c #BFBDB3",
"aX c #D6BA89",
"sX c #C9B893",
"dX c #E0BD89",
"fX c #C4B0A6",
"gX c #D6C487",
"hX c #DBC58B",
"jX c #D5C596",
"kX c #DCCB94",
"lX c #D6CB98",
"zX c #E6CC88",
"xX c #EACA8B",
"cX c #EDD385",
"vX c #E6D08A",
"bX c #E1CE97",
"nX c #E7D490",
"mX c #D0CAAE",
"MX c #D4C8C5",
"NX c #DAD7D2",
"BX c #E4DDD3",
/* pixels */
"j.j.j.h.h...h.h.h.h.h.j.h.j.j.j.j.j.j.h.j.j.j.h...h.h...h.h.h.h.j.j.j.h.$.......h.j.h.h.h.h.h.j.j.j.h.j.j.j.j.j.j.......",
"h.j.h.........h.$.h.h.h.h.j.h.j.h.j.j.j.j.j.j.j.j.j.........h.....$.j.j.h.h.h.......P ....h.h.h.j.j.h.j.j.h.h.h.....h...",
"h.j.h.....h.h.h...$.s.h.j.j.j.j.h.h.h.h.j.j.j.j.h.j.h............... ......... . . .......h.j.j.j.j.j.j.j.j.j.j...j.j.j.",
"$.h.$.$.$.h.h.h.h.h.h.h.j.h.h.j.h.h.h.h.......$...h.h.h.h.......#...P  . . . . . . .....$.j.j.j.h.j.h.j.j.j.j.j.j.j.j.j.",
"...... ...$.j.j.j.j.j.j.j.h.j.h.h.....$.h.h...P  .....h.h.j.j.j.j.$... . . . .....&.h.j.j.h.h.h.h.h.j.j.j.h.h.h.j.j.j.j.",
".. . . .P &.j.j.j.j.j.j.j.j.j.j.h.h.h.h.h.h.................h.j.j.j.h... . ...j.j...$.h.h.........h.h.j.h.h.h.h.j.$.j.$.",
" . .......$.j.j.j.j.h.j.j.h.j.j.h.h.h.j.h.h.h.h.......j.....$...$.j.$... ...&.j.h.............h.h.h.$.$.$.j.h...$.$.h...",
"....h.j.j.j.j.j.h.h.j.j.j.h.h.h.h.h.h.h.h.h.h.h.j.h...1.=.#...j.&...&.#.#. .3.=.......$...j.j.j.h.h.j.........P ..P ....",
"j.h.$.$.h.........$.h.h.h.h.h.h.h.j.h.&.h.$.%.%.....&.E ` *.#.*.w.[ 8.<.1.[ 7.#.........$.h.h.h...........P .. . ... ...",
"j.$...........$.h.h.$.$...h.........$.$...#.5.y.%. .&.k + ) [ x z @ h h $ % ( #.#. .....$...$...h...................$.$.",
"j.$.......j.j.j.h.$.$.$....... ...........<.p.>.:.*.l.k o i f d M p s y ; o ) *.q.{ ( 2.j.$.h.h.h.h.h.h.h.h.h.h.j.j.j.j.",
"z.j.h.j.h.h.h.j.$...........U  .P ..P ....3.P.L.! ~ ) > ; p G K G F a p y ; i o.[ y.{ y.&...$.h.h.h.j.j.j.j.j.h.j.j.j.j.",
"j.j.h.h.h.h.....h.$...P #.#.....#...&.j.&.u.A.L.~ > f m y 2 f G G G f p p t y y m w.) 8.=.$...$.....h.j.j.j.j.j.j.j.j.j.",
"P #.....h.h.$.$.h.h.j.h.h.$.$.j.k.j.1.M.} } Q b , * a a : : : p f p f p t t f a 2 M ; ' 3.j.h.h.h.h...h.j.j.h.h.j...h...",
"$...U ....$.....$.j.h.h.h.h.j.&.M.:.b 7 H 7 n 6 0 0 = * y m m y y & t u u t * A D G M b 7 } &.k.j.h.h.j.h.h.h.h..... ...",
"j.$.......P $.$.h.h.j.j.j.j.1.:.! b n H H | e e H w D a I t.t.Z . . Z r.7.u a A P D K H 7 Q 2.l.k.h.h.j.j.h.h....... . .",
"j.h.j.h.j.j.h.h.j.j.k.=.3.<.~ n I L K w P Z.S.S.z.P 0 J eXMXMXfXt.r.eXNXpXr.* < D D D w H e Q _ 1.k.j.j.h.h.h.h.$.$.....",
"j.h.j.j.h.j.h.j.j.l.e.>.~ n L J S A 0 w d.G..XxXdX XZ.w.fXBXBXNXuXuXNXNXNXeXU k.x.h.w 8 - e o.I h -.3.k.j.j.j.j.j.h.$.h.",
"j.h.j.h.j.j.j.j.2.O.J J L v b c : = = s.m.[.,XzXcXbXaXU.sXmXeXfXuXiXmXeXyXL.A. X*X'.S.j.8 d M Z I n Q ,.j.j.j.h.j.h.s.j.",
"j.j.j.j.h.j.h.j.:.~ J S v b 5 > ; * D s.b.R.,X<X].<XkXlXmXtXtXrXiXuXyXyXyXsXbXzXxXxX.XH.} *.m f I L > %.k.j.h.h.j.j.j.j.",
"h.h.h.h.h.j.j.k.+.o.S 3 o.<.<.&.:.c < r D.*XcXvXXXH.U.jXlXlXY.p./ V $ V.XXbXlXY.Y.aX<Xv.^ $.#.*.B M , *.$.$.h.h.j.h.h.j.",
"h.h.h.h.j.j.j.M.^ c d O.1.&.j.j.e.N < x.R.*XzXnXkXsXtXU.jXkXi.o 7.r.o X H.kXI.I.Y.OXgXF.6.k.j.l.b m y *.&.$.$.$.h.h.j.j.",
"h.h.h.j.h.j.$.3.^ m N *.k...h.h.2.Z v M.D.[.xXvXkXlXjXsXkXbXC.o o o   X H.aXgXjXjXvX<XF.c.k...$.E ) h 9.=.h.$.$.$.h.h.h.",
"j.j.j.h.j.j.j.' N h O.*.h.h.h.j.e.N 3 r x.[.7XzXXXH.Z.J.<XxXXXB.} Q Y Z.oXhXJ.H.Y.|.<Xi.u.j.h.h.3.Q x ' &.h.h.h.h.h.j.j.",
"h.j.h.h.j.j.M.O.m g @.l.h.h.h.j.l.~ p 8 s.R.%X7X9X<X{.{.3X7X7X.X].].].OXxXxXOXK.K.{.{.6.,..... .&.O.Q ^ =.&.j.j.j.j.h.h.",
"j.j.h.h.h.j.3.O.m N <.k.h.h.h.h.j.o.i - r T.+X4X0XcX3XW./.(.}.^.~.~.{.|.6X}.}.oX8X,XJ.6.%. . . . .3.E j q.l.j.j.j.j.j.j.",
"h.h.h.h.j.k.O.B d O.1.j.h.......$.0.N 3 9 D.+X%X5XqX0X5X(.}.*X7XqX3X/.W.W.!./.1X9X,Xc.4.$. .......1.x R y.k.j.j.j.j.j.j.",
"h.h.h.....l.~ c m <.l.j......... .1.) > < f.E.+X4XwX0X5X4X%X*X$X5X}.{./.=X:X5XwX0XK.X.,... .$.j.h.j.>.( # #...h.h.j.j.j.",
"j.h.$.$.$.-._ c Z #.#.P #.P  . . .#.<.k 3 9 D.+X#X2X5X-X-X2X@XQ.W.!./.-X:X:X;X2X$XF.4.%...$.j.$...#.e.E 4 %.#.....$.$...",
"$.&.#.&.1.O.B , @.M.$.#.$.#.....#.h.k.~ 4 - g.~.#X2X1X5X1X4X5X}.}.1X5X5X-X-X:X`.W.4.2.&...j.j.j.#.&.e.b k 2.k.k.k.&.j.$.",
"1.q.q.q.o.M J s O.e.e.e.1.&.$.....$.#.1.~ < r m._.3X3X>X1X3X8X8X8XqX7X7X4X3X>X(.G.4.,.....$.&.3.u.e.2.H L b <.e.e.1.&...",
"[ R k m B K K M N N ! ! Q <.j.#...#.P &.~ 5 - f.E.$X3X>X5X8XcXcX9X0X7X*X%X#X}./.v.c.k.$.$.&.:.` ^ ~ o.K K J I ! E ` *.#.",
"k y d M f f F s > j 4 Q B O.%.j.h.....$.0.B - 9 G.(.>X1X1X8XcXcX9X3X2X2X#X_.^.~.i.1.j.j.j.l.' ~ c N b M J J J d 2 m ' *.",
", a A * a F s o.*.#.*.~ b R } $.h.j.j.j.l.O.6 - f.R.>X=X>X8X9X9X6X4X;X/.!.!.}.Z.u.k.j.j.j.B.E h o.@.@.B c J A D d 2 l q.",
"+ i a * a f o.*...j.&.*.! W } ........j.j.e.n < | G.>X1X1X1X%X&X%X_.!.!./.@X{.5.,.$.j.j.$.M.R % -.&...*.:.c S * A : $ ` ",
"` k y * a i @.1.&.j.&.j.3.3.$.h.$.$.$.$.j.k.B , - n.}.1X@X`.&X`.^.!.!._.-X>XJ.i.=.j...$.$.&.0.q.%. .....:.h J * : o + ;.",
"*.O.h ; i g ;.1.h.h.h.h.&.j.h.h.$.j.h.h.h.h.0.m 1 f.R.+X#X`.).Q.!._.2X-X4X|.v.u.%..... . . .#.#..... . .>.b , ; > ( *.#.",
" .&.M.3.! R :.j.$.......$.$.$.$.$...h.h.h.h.l.*.6 T m.).`._.`.;X2X2X-X2X7XJ.5.%.....P  . . .P ........ .1.! j j 2.1.k.h.",
"U ..j.j.*.:.=.#...$.h.h.h.h.$.h.&.&.$.$.h.$.j.0.b - g.^.&X&X;X;X-X1X5X2X}.6.5.&. . . . .....j.$.......&.&.l.>.e.1.j.j.h.",
"....j.j.&.$.$.$.$.h.h.h.h.h.#...<.y.:.<.1.*.U k.4 - a.R.+X2X;X2X-X-X-X@X{.5.3.$... .........h.&.j.j.j.j.j.k.j.k.h.h.j.j.",
"..$.$.h.j.h.$.$.h.h.h...........1.W $ % z ] 8.8.s - 9 g.R.oX>X>X>X_._.).n.u.1.&.......h.h.$.......j.j.j.j.j.j.h.h.h.h.h.",
"$...$.s.h.h.....h.h.h.h.h.........#.2.{ V ] l i s 0 q 9 g.G.K.~.~.E.G.b.T -.1.j.&.$.$.h.j.j.j.h.$.h.j.j.h.j.h.......h...",
"$.h.h.h.........h.h.j.j.h.h.h.h.h.j.j.1.w.w.l i M S q 0 q e | | s.s.r 9 9 7 *.*.......h.j.j.j.j.j.j.j.j.j.h.h.....h.h.h.",
"#.P U .. . . . ...j.j.h.h.h.j.j.h.j.j.j.k.e.N Z U J S 3 s d v 6 0 < 6 - 6 L B ;.q.#...#.j.h.j.j.h.j.j.j.j.j.h.h.h.h.h.j.",
"..U ............$.j.h...h...h.j.j.j.j.h.:.Q n o.d c N ' ] ] [ ] [ ' o.b 5 S L N R -.&.&.j.j.j.j.j.s.j.j.j.j.j.j.h.h.j.j.",
"........$.$.h.$.$.............h.$.j.j.j.3.^ n L 3 *.0.&.&.&.&.&.#.#.U 0.~ d 6 h ` <.....h.h.h.j.j.j.j.j.j.h.j.h.j.j.h.j.",
"P ..h.h.h.h.h.h.h.$.h...........&.j.j.$.&.<.B M J O.1.&.$.h.h.j.h.....0.N b b ' <.&... ...$.j.j.j.j.h.h.h.h.h.h.h.h.h.h.",
"..h.h.h.h.h.j.j.j.j...j.$.j.=.1.=.&.k.k.j.j.*.0.B b ] <.&.$.h.h.h.&.<.) / ! 2.M.M.=.j.=.=.1.1.k.j.h...h.....h.....h.h...",
"..#.h.h.j.j.j.h.j.h.j.j.j.z.^ j k ! <.q.u.*.k.k.@.N g ;.*.j.k.j.j.M.x z / q.l.l.M.u.e.q.b N E ;.1.j.j.h..... ...h.h.h...",
"j.h.j.j.h.h.h.j.j.j.j.h.1.{ g h c M C C ) / <.M.w.C i l q.l.j.j.=.@.N h @.N.V.q.` ) _ I I M i h ;.l.j.j.j.......h.j.h.j.",
"j.j.h.h...h...j.h.j.h.j.' > > c d d M c m V x N b s : u z q.k.j.` j g i d m Z Z l m s M f , i o $ q.k.j.j.$.j.j.h.h...h.",
"j.j.$...........h...h.j.^ # # > c h i i i h g l h i i g + >.1.k.R + g i i > g g h i h h h h % + O >.=.j.j.j.j.j.h.h...h.",
"..j.j.h...h.j.h.....h.h.l.3.3.l.1.l.1.1.0.0.1.0.1.1.1.0.3.1.j.j.<.3.1.M.0.1.3.1.1.l.l.1.l.3.l.3.3.k.j.h.h.j.j.j.j.h...h.",
"j.h...j.h.h.j.j.h.h.j.j.k.j.j.j.&...&.k.&.j.j.j.k.j.$.&.j.j.$...$.&.j.j.j.j.j.j.j.j.k.k.k.k.j...$.........h.h.j.j.h...h.",
"......P ..h.h.j.j.h.j.j.j.j.j.h.....P ......$.$............. . .U ..$.h.h.j.j.j.j.h.j.j.j.h.......j.j.j.h.h.j.j.j.h...j.",
"P ....U ....j.j.j.j.j.h.j...h.j.j...h...U .. . . ..... . ... . .P ....j.j.j.h.j.j.j.h.j.h.j.h.h.j.j.h.j.j.j.h.j.j.j.h...",
"........h.j.j.j.j.h.h..... ...h.j.j.j.j.h......... . . . .......j...j.j.h.h.j.j.h.j.j.j.h.j.j.j.j.j.j.j.&.j.j.j.j...j.j.",
"k.&.j.h.j.j.h.h.h.h.h.h. .....U ......j.j.j.j.j... . . ...h.h.h.j.j.j.j.h.h.h.h.h.h.h.h.j.j.j.h.j.j.h.h.$.$.............",
"h.....................h.....................j.j.$... ...j.j.$.....................h.....h.h.j.j.h.h.....P .. . . . . . .",
"h.............h.j.j.j.h.h.$.....................$.P  ...j.&.$. .......h.h.j.j.j.j.h.h.h................... . ... ... . ."
};
