/* XPM */
static char *result[] = {
/* columns rows colors chars-per-pixel */
"60 60 244 2 ",
"   c #2F190E",
".  c #33250C",
"X  c #382A19",
"o  c #39361F",
"O  c #3A2522",
"+  c #3D3323",
"@  c #393924",
"#  c #4C1D1A",
"$  c #581E19",
"%  c #601A1D",
"&  c #50280C",
"*  c #452413",
"=  c #44241B",
"-  c #4C241A",
";  c #442D1E",
":  c #4C2B1E",
">  c #5C2D15",
",  c #562719",
"<  c #532B1D",
"1  c #42341D",
"2  c #49321D",
"3  c #453A1D",
"4  c #563316",
"5  c #53321C",
"6  c #6A330C",
"7  c #662817",
"8  c #67381A",
"9  c #753919",
"0  c #461E28",
"q  c #6C1F20",
"w  c #482525",
"e  c #442B22",
"r  c #4C2D22",
"t  c #4B252A",
"y  c #5A2421",
"u  c #542C24",
"i  c #5C2C24",
"p  c #542528",
"a  c #5C2E2A",
"s  c #443422",
"d  c #4B3323",
"f  c #443B24",
"g  c #4C3B23",
"h  c #4D3429",
"j  c #453928",
"k  c #4D3B2B",
"l  c #533425",
"z  c #5A3325",
"x  c #573B25",
"c  c #543429",
"v  c #5C342A",
"b  c #543C2B",
"n  c #5B3B2C",
"m  c #473B36",
"M  c #543E30",
"N  c #5A3834",
"B  c #612525",
"V  c #642E23",
"C  c #692C29",
"Z  c #732C2C",
"A  c #623326",
"S  c #65332D",
"D  c #693629",
"F  c #633C2C",
"G  c #733924",
"H  c #663A31",
"J  c #733C32",
"K  c #3B431F",
"L  c #3C4227",
"P  c #564014",
"I  c #67491B",
"U  c #6D521D",
"Y  c #45432A",
"T  c #484628",
"R  c #4C432D",
"E  c #594727",
"W  c #53432D",
"Q  c #5A432E",
"!  c #554B2E",
"~  c #4F4430",
"^  c #464A32",
"/  c #554431",
"(  c #5B4432",
")  c #5C4B33",
"_  c #584C35",
"`  c #585439",
"'  c #67432C",
"]  c #77412D",
"[  c #7A432E",
"{  c #734929",
"}  c #735927",
"|  c #674936",
" . c #624C35",
".. c #774631",
"X. c #7E4631",
"o. c #754B34",
"O. c #7C4B35",
"+. c #764F39",
"@. c #7B4E39",
"#. c #67573A",
"$. c #65533C",
"%. c #6C533C",
"&. c #7A5435",
"*. c #75533C",
"=. c #7B533C",
"-. c #7B5A3C",
";. c #77682D",
":. c #78683B",
">. c #76703B",
",. c #6E5541",
"<. c #6A5B41",
"1. c #745541",
"2. c #795744",
"3. c #745C43",
"4. c #7B5B43",
"5. c #7D5D48",
"6. c #675550",
"7. c #796444",
"8. c #7E7544",
"9. c #7C6262",
"0. c #85481C",
"q. c #844827",
"w. c #885825",
"e. c #945B29",
"r. c #804731",
"t. c #814832",
"y. c #824F38",
"u. c #85523B",
"i. c #81533C",
"p. c #975B32",
"a. c #8F6A29",
"s. c #856A3B",
"d. c #996D39",
"f. c #847539",
"g. c #A46A38",
"h. c #AD783B",
"j. c #825842",
"k. c #825A43",
"l. c #826747",
"z. c #887449",
"x. c #977B4D",
"c. c #AC784D",
"v. c #897169",
"b. c #8A7B7B",
"n. c #B5853F",
"m. c #94854B",
"M. c #978557",
"N. c #A7894B",
"B. c #B78A53",
"V. c #AC9054",
"C. c #B69A59",
"Z. c #BBA453",
"A. c #8C807F",
"S. c #9D8D73",
"D. c #A99668",
"F. c #BA9966",
"G. c #A89375",
"H. c #B4A370",
"J. c #C3864D",
"K. c #C6954E",
"L. c #C59957",
"P. c #D89D5B",
"I. c #C9A45A",
"U. c #D4A85A",
"Y. c #CCB158",
"T. c #D6B459",
"R. c #E6B45C",
"E. c #D69D62",
"W. c #CAA866",
"Q. c #D9AE64",
"!. c #CCB26C",
"~. c #DDBB64",
"^. c #D1B36B",
"/. c #D8B56A",
"(. c #DCBC6B",
"). c #CAB77B",
"_. c #D7B878",
"`. c #E2AE69",
"'. c #E3BC64",
"]. c #E6BB69",
"[. c #EABD6A",
"{. c #E5BD75",
"}. c #DCC35B",
"|. c #E8C35E",
" X c #DEC863",
".X c #DDC36C",
"XX c #DBC67A",
"oX c #E5C263",
"OX c #EBC265",
"+X c #E4C46B",
"@X c #E7C86E",
"#X c #E4C674",
"$X c #E9C576",
"%X c #E4C974",
"&X c #E4CB7B",
"*X c #ECCC7E",
"=X c #F3CB7D",
"-X c #EFD27C",
";X c #998B8E",
":X c #A69586",
">X c #A69697",
",X c #B1A78C",
"<X c #BDAEAC",
"1X c #C7B785",
"2X c #D4BC86",
"3X c #C9B295",
"4X c #D2BE96",
"5X c #CCB7A7",
"6X c #C7BAB3",
"7X c #D6C184",
"8X c #DCC386",
"9X c #DDD28C",
"0X c #DAC594",
"qX c #E7C686",
"wX c #E3CC83",
"eX c #EBCC84",
"rX c #E4CD8B",
"tX c #EACD8B",
"yX c #F1CE88",
"uX c #E1D082",
"iX c #EAD185",
"pX c #E3D28D",
"aX c #EBD38C",
"sX c #F2D387",
"dX c #E4CE91",
"fX c #E9CE96",
"gX c #E6D192",
"hX c #EAD394",
"jX c #E9D699",
"kX c #F2D59C",
"lX c #EBD5A4",
"zX c #ECD9A2",
"xX c #E6D5AA",
"cX c #EBD9B0",
"vX c #F0DBB4",
"bX c #C9C5C7",
"nX c #D6C9CC",
"mX c #DCD2C8",
"MX c #DBD6D6",
"NX c #E3D4CB",
"BX c #E9DBDA",
"VX c #E9E1D8",
"CX c #E9DEE2",
"ZX c #E8E3E6",
/* pixels */
"t.t.t.r.r.[ r.r.t.t.r.t.t.t.r.t.t.t.r.t.r.t.t.r.[ r.r.[ r.r.r.r.t.t.t.t.X.[ [ X.X.t.r.[ r.r.r.t.t.t.r.t.t.t.t.t.r.[ [ r.",
"r.t.r.[ [ [ [ r.r.r.r.t.t.t.t.t.r.t.r.t.t.t.t.t.t.r.[ [ [ [ r.[ X.X.X.t.r.r.X.X.[ [ [ [ r.r.r.r.r.t.t.r.t.t.t.r.r.] [ [ ",
"r.t.r.[ [ r.r.r.[ [ q.r.t.t.t.r.r.r.r.r.t.t.r.r.r.r.r.[ [ [ [ J ] ] ] [ [ [ [ ] ] ] ] ] J r.t.t.t.t.t.t.t.t.t.t.r.r.r.r.",
"X.r.X.X.[ r.r.r.r.r.r.r.t.t.t.t.r.r.[ r.[ [ [ [ r.r.r.r.t.t.X.[ ..X.] ] ] ] ] ] [ ] ] [ X.t.t.t.t.r.r.t.t.t.t.t.t.t.t.r.",
"[ [ ] [ [ r.r.r.r.t.t.t.t.t.t.t.r.[ [ r.r.r.[ &.1.O.X...X.&.k.k.l.3.+.O.X.J o.2.@.X.X.t.t.r.r.r.r.r.r.r.t.r.r.t.t.t.r.t.",
"] ] J ] [ [ t.t.t.t.t.r.t.t.t.t.r.r.r.r.r.r.[ ` ^ %.....O.#.R ( W 2 k #.*...,.^ 3.O.X.X.X.X.[ [ r.r.r.r.q.r.r.r.r.r.t.t.",
"] [ [ [ [ r.t.t.t.r.t.r.r.t.t.t.r.r.t.r.r.r.r._ L Y ,.+.| j 2 l , * < 5 + _ m + 3.O...] [ [ ..r.X.X.r.r.[ r.r.J [ r.[ q.",
"[ r.r.t.t.r.t.r.r.r.t.t.t.r.t.t.r.r.r.t.r.r.t.i.` @ + + e : p # $ $ , a e + O t 1.@.X.[ X.r.r.t.r.r.[ r.[ r.G [ ] [ [ J ",
"t.t.[ t.X.X.[ [ [ r.X.r.t.[ r.t.t.t.t.X.O.&.*.-.2.h 0 p 0 p p p y $ $ i w O t N 1.&.o.&.X.t.t.t.[ [ [ [ ] ] ] ] ] ] [ [ ",
"t.[ [ [ [ [ [ X.r.X.X.X.t.[ [ [ [ [ X.X.&.! Y W / w p p p 0 t a p y C N O O 0 t N o K #.X.[ [ [ r.[ [ [ ] [ ] [ [ [ r.r.",
"t.r.[ [ X.r.r.r.t.t.r.X.[ [ ] ] [ [ ] [ ( T 3 5 l - , # N A.;X;X6.N v.:Xb.m O O - 2 L #.&.r.t.t.r.r.r.r.r.r.r.r.r.r.r.r.",
"u.t.t.t.r.r.r.r.r.[ ] J ] ] ] ] ] ] ] ] -.E -.@.8 7 - = A.bXMXMX>X9.6XmXMX>X+ O - 4 E 4.X.[ X.t.r.r.r.r.t.t.t.r.r.t.t.r.",
"t.t.r.r.r.r.[ [ r.[ [ ] ] ] ] [ [ [ X.t.t.:.z.F.c.9 * M <XCXZXZXnX;XmXZXCXMXA.t 5 ' 8.-.X.X.X.[ [ r.r.t.t.t.t.t.t.t.r.r.",
"[ [ [ [ X.r.r.X.r.r.r.r.r.[ X.t.t.X.=.k.%.E P d.N.} & ( <XCXZXZXZX6XMXZXZXBX>X6.' c.x.7.-.@.t.X.r.[ X.t.t.t.t.r.r.r.r.r.",
"[ [ [ ] [ [ [ [ r.r.t.t.r.r.t.t.@.*.( v A I U a.a.a.w.Q :XNXCXnXMX6XmXMXVXNXG.c.W.W.V.' 4 -.@.O.t.t.t.t.r.r.r.r.[ ] [ [ ",
"X.[ [ ] [ [ [ [ r.t.t.r.r.t.i.4.) b F A 9 g.J.L.!.XX).G.W.5X5XS.H.,X,X:X,X3XG.).2XtXZ.w.I E  .4.t.t.t.t.t.r.X.[ [ ] ] ] ",
"t.r.t.r.t.t.r.t.r.r.t.t.&.*.' F D A V 7 9 g.P./.fXlXzXjX2X).C.D.D.D.H.S.G.F.B._.fXkXtXL.g.{ 8 E 3.i.t.t.t.r.r.r.r.X.[ [ ",
"t.t.r.t.r.t.t.t.t.O.4.7.Q x Q D D V 7 G c.K.].#XfXvXcXzXrX^._.C.E K L o ;.H.!.&XjXzXyX_.B.} G F n / ,.@.r.t.t.r.r.r.r.r.",
"r.t.r.t.t.t.t.t.j. .W F H n z 5 - # , 9 w.n.(.wXfXxXxXxXpXwXqXf.. ` 6.O . c.4X7X4XfXhX{.c.6 > > v | ~ %.y.r.r.r.r.t.r.t.",
"r.t.t.t.t.r.t.t.k.E c V A l d d d * # > d.U.*X8X4X4X4X0XrXwXqXx.X . .   & V.1XD.m.).2XqXM.-.E 5 i N b ,.O.r.r.r.t.r.t.t.",
"r.r.t.t.t.t.t.t.k.Q l < F %.-.@.i.; # X.c.Q.(.H.M.v.x.D.XXwXeX_.s.U I I x._.9X1X1XD.F._.M.8.i.=.l M c ,.O.X.X.X.t.r.r.t.",
"q.[ r.r.t.t.t.t.| Q x n +.t.O.t.j.s = r.e.K.XX).7X3XH.H.7XeX=X=X/.W.L.I.~.&XXXH.H.0XtX_.8.-.t.t.*.b u %.O.X.X.X.r.r.t.t.",
"r.r.t.t.t.t.t.i.| b d  .@.[ [ r.u.+ X C 0.K.&X9X1XD.G.0XgXiX-X-X].Y.I.T.+X-XuX7XD.2XqX^.7...[ X.2.b N ' i.r.X.X.X.r.r.t.",
"t.t.r.t.t.t.t.4.Q l g %.y.t.t.t.u.j w , 6 g.^.XX).4X0XxXpXuX%X(.T.~.{.#X+X+X&XpX_.{.{.V.8.&.t.X.O.( M r 4.t.r.r.r.r.t.t.",
"t.t.t.t.t.t.t.%.Q l ) &.X.t.t.t.O.<.c , 7 p.Y.XX&XgXlXlXdXwXXXXX&X=XsX*X]..XXXpXrXyXoXm.s.O.[ ] ..2.b g 3.t.t.t.t.r.t.t.",
"t.t.t.t.t.t.y.E d : %.i.t.X.t.t.X.5.h - $ q.L..X&XaXkXlXdXrX8XXXXX$X+X~.Y.Y.uXrXtXaX/.;.&.O.] ] J @.( R ! o.t.t.t.t.t.r.",
"r.r.r.r.r.r.4.( d 2 | t.X.[ [ [ ..O.Q u $ G B.|.@XiXhXlXhXrXuXiX(.T.Y.T. X.XiXwXtXqXD.>.o.] [ [ [ X.3.R ^ =.t.t.t.r.t.r.",
"r.[ r.[ [ r.*.Q d $.=.X.[ [ [ [ J ..( d y C c.~.@X-XhXjXhXpXaXiXXX+X'.oX.XiXiXeX{._.m.>.o.] X.t.t.t.4.R K 3.&.t.r.r.r.r.",
"O.X.t.[ X.=. .b j %.i.[ [ [ ] ] [ J &.( t a p.P.OX@XaXhXgXrXrXaXaXaXiXeXsXsX=X=X[.L.;.:.O.X.t.X.[ [ &.o T 7.+.[ X.X.X.X.",
"X.X.X...O.| n l b %.=.X.X.[ [ [ r.r.t.*.c , 9 B.].+XiXjXgXhXhXhXpXpXaXtXhXtX=XOX].h.} ' [ t.t.X.X.X.@.1 g ' =.y.t.O.t.X.",
"O.*.7.3.%.F J C v ,.7.3.4.&.[ [ ] [ X.@.n < 6 p.U.'.iXgXhXdXhXhXjXpXdXjXhX&X@X'.Y.a.:...[ X.t.&.4.5.5.b V D ' 4.4.7.O...",
"$.! g j n D C C N M / ~ ~ ` &.[ [ ] J [ -.z $ 9 c.~.$XwXaXdXjXhXhXpXdXrXtX&XT.T.V.>.-.X.X.t.k./ / ( / F J Z S n R Y <.@.",
"~ r r u u a v u 2 s s f / b *.i.r.X.[ [ =.| < > w.U.OX%XeXdXhXgXjXjXpXaX$XOXT.Y.f.f.u.t.t.t.%.Q b k k c S Z C S r r M 2.",
"+ = C B $ a c h | o.*. .b ; %.y.r.t.t.t.t.1.b > 6 n.'.oX&XeXhXhXpXpXdXaX$XoX'.Z.>.=.t.t.t.r.b k s ) %. .n a B y a u c | ",
"~ e y $ q i h | O.t.O.=.! f %.O.[ [ X.t.t.j.Q < 6 h.T.OX@X&XiXhXhXgXdXpX&X@XoXN.8.@.r.r.X.X.Q g ` @...o.2.c a B y - = t ",
"1.b y $ , u s ' t.t.t.t.=.3.&.X.X.X.[ X.t.t.*.l & 0.K.[.OX@X&XaXhXhXrXiX%X.X^.f.s.O.[ [ X.X.&.3.4.X...[ 2.d i y - = + / ",
"..*.n : : ; @ ' r.r.r.r.t.t.t.t.t.r.r.r.t.r.i.Q 4 9 h.R.[.|.OX%XeXeX*X%X@X.XV.>.O.] ] ] ] ] ....[ ] ] ] =.s h < ; 3 ,.-.",
"J ..j.l.Q f ` &.[ [ [ ..X.X.X.X.X.X.r.r.r.r.t.4.5 > e.P.R.|.|.|.$X*X@X+X@X!.f.-.X.] ] ] ] ] ] J ] [ [ ] X.$.k s ( 3.i.t.",
"[ [ t.t.*.3.*.[ [ r.r.r.X.X.t.X.X.{ O.X.[ X.[ i.' , I J.R.R.|.|.@X@X}. X+XZ.>.o.[ ] ] ] ] [ r.[ [ r.[ r.t.@.<.3.&.t.t.t.",
"] [ t.t.t.O.X.X.r.r.t.t.X.X.X.[ +.` #.*.*.=.o.X.%.x 9 c.[.[.OXOXOXoX}. X(.m.:.{ ] ] ] ] [ r.r.t.t.t.t.t.t.t.t.t.X.t.t.t.",
"r.[ r.r.r.r.X.X.r.r.r.r.[ [ [ [ X.` Y @ Y g  .*.F < % q.B.`.[.[.[.[.'.T.L.} O.X.[ [ [ r.t.X.[ [ [ t.t.r.t.t.t.r.r.r.r.r.",
"[ [ [ r.r.r.[ [ r.r.t.r.[ [ [ [ [ O.-.$.R T 3 1 r , C 7 r.c.L.E.P.U.K.h.w.4 *.y.t.X.X.X.t.t.t.X.r.r.t.t.r.t.r.[ [ [ r.[ ",
"r.r.r.[ [ [ [ [ r.r.t.r.r.r.r.r.t.t.t.X.&.4.T & i C Z q 7 8 9 q.q.0.9 9 7 V n &.X.[ [ X.t.r.t.t.t.t.t.r.t.t.r.[ [ r.r.r.",
"[ ] J [ ] ] ] [ [ t.t.r.r.t.t.t.t.t.t.r.O.4. .F J J C B y < 5 5 7 8 > > C H H ' #.&.] X.t.t.t.t.r.t.t.t.t.t.r.r.r.r.r.t.",
"] ] ] ] [ [ ] [ X.t.t.[ r.t.r.t.t.t.t.r.i.! 5 ' A i c ( ) _ _ / / ! _ / h u C a j $.O.X.t.t.t.t.t.t.t.t.t.t.t.t.r.t.t.t.",
"] ] ] [ X.r.r.X.X.[ [ [ J [ [ q.r.t.r.r.&.) W ' z Q 2.@.X.O.O.O...] ] @.%.5 v z 1 %.O.[ r.r.t.t.t.t.t.t.r.r.t.r.t.t.t.r.",
"] [ t.t.r.r.r.r.r.X.[ [ [ [ [ [ X.t.t.O.X.@.( g b b 1.@.r.r.t.r.r.[ X.+.Q E x 3 %.o...[ [ X.t.t.t.t.r.X.r.r.r.r.r.r.r.r.",
"] [ t.t.r.r.t.t.t.t.X.t.X.X.@.O.@.@.O.t.t.t.O.4.( k M ,.y.J X.r.r.[ j._ R T %.-.y.t.O.t.t.=.i.i.t.r.X.X.[ q.[ [ r.r.r.] ",
"] [ r.t.r.t.t.r.t.t.t.t.t.y.| W 3 3 | 5.5.&.O.O.2.b h s o.O.y.t.r.t.%.R Y <.2.@.O.4.4.5.' c l Q 4.t.t.r.[ [ ] [ r.r.r.[ ",
"r.r.t.t.r.r.r.t.t.t.r.t.y.#.R g l c H | c R <.2.5.,.u = ) 2.t.t.t.5.b d ~ 3.k.5.) / / F H v v 2 ! 3.i.X.t.[ [ [ r.t.r.t.",
"t.t.r.r.r.[ r.r.r.r.t.t.k.^ o : l l u a c k ^ ^ ~ c p p + ` @.r.5.W e u r l N / b h h v c r h r @ ` o.X.t.X.t.t.r.r.[ r.",
"t.t.r.] ] [ [ [ [ r.r.t.4.T o ; d d r : r s @ @ + X r r + ^ o.X.*.Y 1 e r ; s ; d : ; d s s X X @ ` o.X.t.t.t.t.r.r.[ r.",
"r.r.r.r.[ r.t.r.[ r.[ r.u.-.=.=.=.=.i.=.2.2.=.=.=.*.&.=.2.-.O.r.@.-.=.i.2.=.&.+.=.i.=.=.-.4.-.i.4.-.t.t.r.r.t.t.r.r.[ r.",
"r.r.[ [ r.r.r.t.r.r.r.t.t.t.t.t.X.[ X.t.X.t.t.O.t.t.O.r.X.t.r.q.X.t.t.t.t.t.y.r.t.t.t.t.t.t.t.[ X.X.[ [ [ r.t.t.t.r.[ r.",
"[ J ] ] ] r.t.t.r.t.t.t.t.t.r.r.[ [ [ ] [ [ [ X.[ [ X.[ [ [ ] ] J ] J t.t.t.r.r.t.r.t.t.t.t.[ [ X.r.t.r.r.r.t.t.t.r.[ r.",
"] [ ] ] ] [ t.r.t.t.t.r.t.[ r.r.t.X.[ ] ] ] ] J ] J [ ] ] [ J [ ] ] X.t.t.t.t.r.t.t.t.t.t.t.r.r.t.r.t.t.r.t.t.r.t.t.r.r.",
"] [ [ [ r.r.t.t.t.r.r.r.[ ] [ r.t.t.t.X.[ [ [ [ ] ] ] ] ] ] [ [ [ r.r.t.r.r.t.r.t.t.t.t.t.t.r.t.t.t.t.r.r.r.r.t.t.r.r.r.",
"t.t.t.r.r.t.t.r.r.r.r.[ ] ] ] [ [ [ t.t.t.t.t.t.[ ] ] ] [ r.t.t.t.r.r.t.r.r.r.r.r.r.r.r.t.t.t.t.t.r.r.r.r.[ [ [ [ [ ] [ ",
"r.[ [ [ [ [ [ [ ] r.r.[ [ ] [ ] ] [ [ ] [ t.t.t.[ ] ] ] t.t.r.[ [ r.[ [ [ [ [ [ r.r.[ r.r.r.r.r.r.r.[ [ ] ] ] ] ] ] ] ] ",
"r.r.] [ [ [ [ r.r.t.t.t.r.r.[ [ [ ] [ [ [ [ [ [ t.] ] [ t.t.[ ] ] [ [ [ r.t.t.t.r.r.r.[ [ ] [ [ [ [ [ [ ] ] ] ] ] ] ] ] "
};
