/* XPM */
static char *result[] = {
/* columns rows colors chars-per-pixel */
"60 60 233 2 ",
"   c #391C16",
".  c #3E1E19",
"X  c #3F241B",
"o  c #3C2B1C",
"O  c #3E331E",
"+  c #382D25",
"@  c #3F3120",
"#  c #3B2D32",
"$  c #3E3335",
"%  c #560E09",
"&  c #5A130C",
"*  c #481E19",
"=  c #571B13",
"-  c #690708",
";  c #710403",
":  c #760A08",
">  c #761409",
",  c #670E12",
"<  c #6F0E11",
"1  c #66171A",
"2  c #502A0B",
"3  c #5A350E",
"4  c #4C2D14",
"5  c #442519",
"6  c #4C241C",
"7  c #44291C",
"8  c #4C2B1D",
"9  c #5A2513",
"0  c #542D13",
"q  c #53251C",
"w  c #532D1A",
"e  c #5C2B1F",
"r  c #463218",
"t  c #4B351C",
"y  c #583617",
"u  c #55321C",
"i  c #5A3B1D",
"p  c #642D0E",
"a  c #76260C",
"s  c #663B0E",
"d  c #682A17",
"f  c #782D12",
"g  c #663B14",
"h  c #68371B",
"j  c #763617",
"k  c #621C20",
"l  c #4D2622",
"z  c #432C21",
"x  c #4C2B23",
"c  c #4A2C27",
"v  c #532622",
"b  c #532B23",
"n  c #5A2C24",
"m  c #542D29",
"M  c #592E29",
"N  c #453423",
"B  c #4C3224",
"V  c #4D3B26",
"C  c #4C352A",
"Z  c #4E3D2D",
"A  c #543324",
"S  c #5B3424",
"D  c #533C25",
"F  c #5C3A25",
"G  c #54342A",
"H  c #5B342A",
"J  c #533B2C",
"K  c #5C3B2B",
"L  c #433637",
"P  c #543D32",
"I  c #5B3C34",
"U  c #6D2322",
"Y  c #623424",
"T  c #643C26",
"R  c #6A3D26",
"E  c #633529",
"W  c #633C2B",
"Q  c #6B3E2A",
"!  c #723F2C",
"~  c #663831",
"^  c #723E3A",
"/  c #5E411C",
"(  c #674319",
")  c #76431B",
"_  c #53432B",
"`  c #574529",
"'  c #5C432C",
"]  c #51492F",
"[  c #4C4731",
"{  c #5B4232",
"}  c #574938",
"|  c #644224",
" . c #6A4221",
".. c #684A26",
"X. c #64422C",
"o. c #6C422C",
"O. c #734725",
"+. c #76412D",
"@. c #7A432E",
"#. c #72492D",
"$. c #6E5324",
"%. c #765728",
"&. c #644432",
"*. c #6C4532",
"=. c #664C36",
"-. c #6B4931",
";. c #654A3A",
":. c #6B4D3C",
">. c #744531",
",. c #7E4630",
"<. c #734A33",
"1. c #7D4932",
"2. c #724E3C",
"3. c #675433",
"4. c #765839",
"5. c #796135",
"6. c #584E46",
"7. c #5B5251",
"8. c #644F45",
"9. c #64574A",
"0. c #745946",
"q. c #60545B",
"w. c #7B5F56",
"e. c #7B6245",
"r. c #766455",
"t. c #77716B",
"y. c #7D7576",
"u. c #870A15",
"i. c #830F15",
"p. c #85281C",
"a. c #8B3414",
"s. c #923A2C",
"d. c #88481E",
"f. c #904017",
"g. c #8B541E",
"h. c #824E25",
"j. c #855828",
"k. c #97582F",
"l. c #804731",
"z. c #814832",
"x. c #885837",
"c. c #88622C",
"v. c #89683A",
"b. c #996D32",
"n. c #9C6837",
"m. c #AC7139",
"M. c #A97639",
"N. c #895648",
"B. c #A54A4A",
"V. c #866A4A",
"C. c #986947",
"Z. c #8C7345",
"A. c #9B7443",
"S. c #966E54",
"D. c #8E7052",
"F. c #987858",
"G. c #A76D47",
"H. c #A8734A",
"J. c #B07455",
"K. c #B57954",
"L. c #8A6D65",
"P. c #8A7669",
"I. c #987667",
"U. c #C47761",
"Y. c #AA883B",
"T. c #9D8057",
"R. c #A98445",
"E. c #B7884D",
"W. c #B7964C",
"Q. c #A88654",
"!. c #B58758",
"~. c #AD9458",
"^. c #95866A",
"/. c #A98768",
"(. c #BB8963",
"). c #BA9B65",
"_. c #BD9D71",
"`. c #BFA473",
"'. c #C38848",
"]. c #CE974E",
"[. c #C28954",
"{. c #C69956",
"}. c #C8A35C",
"|. c #D5A659",
" X c #E4B05E",
".X c #C38966",
"XX c #C79969",
"oX c #D49D6A",
"OX c #D58D7B",
"+X c #CAAA67",
"@X c #CAA46B",
"#X c #D9AA67",
"$X c #D9B76A",
"%X c #CAA87A",
"&X c #D8A878",
"*X c #CEB072",
"=X c #DAB776",
"-X c #E3B667",
";X c #F1BD6A",
":X c #E4AD7B",
">X c #E5BB77",
",X c #EABE7B",
"<X c #DEC27E",
"1X c #E3C47B",
"2X c #E9C47C",
"3X c #877C83",
"4X c #998D8A",
"5X c #A69898",
"6X c #B29690",
"7X c #A8A09C",
"8X c #ACA6A7",
"9X c #BBA7AC",
"0X c #B0AFB0",
"qX c #BCB7B6",
"wX c #C29B83",
"eX c #D6AE82",
"rX c #DABC87",
"tX c #E6B986",
"yX c #E2BC85",
"uX c #E5BF90",
"iX c #C8ACA9",
"pX c #CFB8BB",
"aX c #DEC281",
"sX c #E7C787",
"dX c #ECC485",
"fX c #F2C787",
"gX c #F0CF8F",
"hX c #ECCC95",
"jX c #ECD597",
"kX c #F4D59A",
"lX c #C9C0BD",
"zX c #EED7A1",
"xX c #C7C3C1",
/* pixels */
"z.z.z.l.l.@.l.l.z.z.z.z.z.z.z.z.z.z.z.z.z.z.z.l.@.l.l.@.l.l.l.l.z.z.z.z.@.l.@.@.l.l.l.l.l.l.z.z.z.z.z.z.z.z.z.z.l.l.@.@.",
"z.z.l.@.@.@.@.l.l.l.l.z.z.z.z.z.z.z.l.z.z.z.z.z.z.l.@.@.@.@.l.@.@.l.l.l.l.l.l.l.@.@.! ! @.z.z.z.z.z.z.z.z.z.z.z.l.! @.l.",
"l.z.l.@.@.l.l.,.@.@.l.l.z.z.z.z.l.l.l.l.l.l.z.l.l.l.l.@.@.@.+.+.+.+.@.+.+.+.+.@.! ! @.! @.l.z.z.z.z.z.z.z.z.z.z.l.l.l.l.",
",.,.l.,.,.l.l.l.l.l.l.l.l.z.z.z.l.@.l.l.@.l.@.@.@.#.@.l.1.+.+.+.+.+.+.+.o.+.+.+.s.l.! l.@.z.z.z.z.z.z.z.l.z.z.z.z.z.z.z.",
"l.@.@.@.@.l.z.z.z.z.z.z.z.z.z.z.l.@.@.@.l.l.@.+.o._ X.*.#.D X.*.&.+.o.' _ o.+.@.+.,.l.l.l.l.l.l.l.l.l.l.z.l.l.l.z.z.z.z.",
"@.! ! +.! @.z.z.z.z.z.l.l.z.z.l.l.l.l.l.l.l.@.+.o.[ [ } :.+ C { { :.:._ V o.@.z.z.#.l.l.l.@.@.@.@.l.l.l.l.l.l.l.l.l.l.l.",
"! @.@.@.@.l.z.z.l.z.z.z.z.z.l.z.l.z.z.z.l.l.l.l.>.} [ 6.9.+ + $ L 9.} [ _ X.<.1.l.@.+.+.@.+.@.l.l.l.l.l.l.l.@.l.l.l.l.@.",
"@.l.l.z.l.z.z.z.l.l.l.z.z.z.l.l.l.z.z.z.l.l.l.l.<.} } 6.7.$ # # $ 7.9.9.;.3.-.-.,.@.@.l.l.l.z.z.l.l.l.l.! @.! +.! @.! @.",
"z.l.l.,.z.l.l.! l.l.l.l.l.l.@.l.l.l.l.l.1.#.<.2.0.8.P.5X5X3Xq.7.t.5X7X4Xr.} ` ' o.+.@.@.@.z.l.z.@.@.+.! +.+.@.@.! ! ! l.",
"l.@.@.@.! ! ! l.l.l.l.l.l.l.l.@.@.@.l.l.+.X.=.3.{ w.6XpXpX9X3X3X8XqXxXqX^.r.=._ X.+.@.@.@.@.@.@.l.@.l.@.+.@.@.! l.l.l.l.",
"z.l.@.@.l.l.z.l.1.>.l.! l.! @.! +.@.+.+.o._ e.} J P.iXpX9XpX5X5XqX0XlXlX4XI.2.u X.@.z.l.z.z.z.z.l.l.l.l.l.l.l.l.l.l.l.l.",
"x.z.l.l.l.l.l.z.,.s.l.! @.! +.+.@.+.+.+.#.` ^.P.8.N.6XiXiX9X3Xy.0XqXqX5Xr.:.S u -.1.l.@.@.@.,.z.l.l.l.l.z.z.z.z.l.l.l.l.",
"z.z.,.,.l.l.@.@.l.,.@.@.! @.@.+.@.@.l.+.| t 5.e.&.&.N.I.I.L.8.6.t.y.t.9.X.| u 4 K +.,.@.@.,.@.@.l.l.l.l.l.l.z.z.l.z.l.l.",
",.! @.,.l.,.l.l.l.l.l.,.,.@.l.l.l.l.>.O./ r ` 4.V.4.V.D.S.0.I P 6.6.[ i $.C.1.u t o.,.,.,.z.z.z.l.@.l.l.z.z.l.l.l.l.h.@.",
"! ! ! >.! @.@.! ,.z.z.z.l.l.l.l.z.1.>.T i ( v.Q.).XXXX_.XXF.0.=.r.] t / A.eXK.) 4 R #.@.@.z.z.z.l.l.l.l.z.l.l.l.l.l.! @.",
"z.l.s.>.@.@.,.,.l.l.z.z.l.l.l.l.1.o.T T #.A.@XyXtXsXsXaXrXeX/.4._ r ..v.XXXXQ.j.( | o.@.@.z.z.z.l.l.l.l.z.l.l.@.! ! s.o.",
"z.l.z.l.z.z.l.l.l.z.z.z.l.@.@.@.O.o.F Q N.XXdXfX2X@X{.)._.`./.D.D.e.D.F.v.M.m.n.) | X.+.@.1.z.z.z.z.z.z.z.l.l.z.z.@.@.+.",
"z.z.z.l.z.z.z.z.z.z.z.z.l.l.@.+.Q W Y +.C.&X2X2X#Xb.v.Z.T./././.I.S./.I.3 ( n.H.h.h | 1.z.z.z.z.z.z.z.z.z.z.z.z.z.l.z.l.",
"z.z.z.z.z.z.z.z.z.l.z.z.l.l.,.+.Q u S ! G.#X>X|.M.( ) v.I.wXwX/.0.! S.I.2 2 n.oXn.g y o.,.l.@.l.l.z.z.z.z.z.z.z.z.z.z.z.",
"z.z.z.z.z.z.l.z.z.z.z.z.z.z.l.>.Q e e h x.{.#X|.Y.j.)  .1.N.N.N.s.= ^ ^ = p m.oXK.) 3 i +.@.l.@.l.z.l.l.l.z.z.z.z.z.z.z.",
"l.l.z.z.z.z.z.z.z.l.l.z.l.l.z.+.Y n e 9 j [. X|.{.b.h d 1 U U U 1 & 1 k % d G.&X[.h.3 i  .>.z.1.z.z.l.@.l.l.l.z.z.z.z.z.",
"@.l.l.z.z.z.z.l.l.l.l.l.,.,.l.Q S Y e = s M.].;X|.m.f , 1 < , - % - < , & a J.:X[.j.g i ' +.z.z.l.@.@.@.@.@.@.@.l.l.z.z.",
"l.l.z.z.z.z.l.l.@.@.@.@.,.,.,.Q S E n 9 p b.|.;X Xm.f < i.u.: ; - ; : ; : f K.:X'.g.s y ' X.+.@.l.l.@.l.l.l.l.@.l.l.l.z.",
"z.z.z.z.z.l.l.l.@.@.z.z.,.,.+.&.E M = * p g.].;X X'.a.: u.u.u.: ; ; ; ; ; f J.yX[.j.g y ' ' o.1.l.@.+.l.l.l.l.l.l.l.z.z.",
"z.z.z.z.z.z.z.l.l.l.z.z.z.l.+.W E n * = 9 d.[.-X X'.a.> u.u.u.; : > > : > f H.eX!.x. .T D J ' *.! +.+.@.l.z.z.z.z.z.z.z.",
"z.z.z.z.l.z.z.z.z.z.z.z.z.@.o.F m v v = 9 h G.#X X'.a.> u.: i.: > p.s.s.> f J.eXF.4.2.>.S J P X.+.+.+.@.l.z.z.z.z.z.z.z.",
"l.l.l.l.l.l.z.z.l.z.l.l.l.+.A m n v E Y q h G.XX-X].f.a i.u.B.B.s.U.OXU.j h.!.eXZ.4.2.,.*.P Z J X.>.1.z.z.z.z.z.z.z.z.l.",
"l.@.l.@.@.l.l.l.l.l.l.l.+.T A G m S Q Q Y n V.XX2X$XM.k.G.U.wXwXK..XU.K.n.Q.@X@X4.3.>.! >.T G B K o.1.1.1.,.1.,.l.l.l.l.",
"z.l.l.@.@.@.@.@.@.@.@.+.*.W H A A T ! @.R S <.!.>X2X}.W..X).eXwX(.(.(..XXX=X=X~.3.#.+.+.@.Q A b G &.*.T W X.o.@.@.l.l.@.",
"@.@.@.+.+.+.+.+.+.! ! +.Q K H A Y @.,.@.+.W h Z.=X1X<X+XW.Q.!.K.!.XXyXtXtXdX@XZ.3.#.@.+.@.>.E 6 8 A A x N _ ' ,.l.l.l.l.",
"@.@.@.@.+.+.+.! ! ! Q E H G N A R @.@.@.@.o.y v.=X1X1X2X1XaXyXyXyXyXtX,X:XoXH.$.#.1.@.@.@.@.Q 6 q 6 8 m G _ =.1.@.@.+.@.",
"@.@.@.@.@.+.+.h S Y M M G m x T +.! @.@.+.#./ v.).=X1X2XsX1X<X=X*X@X{.[.E.M.j.$.<.1.z.1.l.>.E 6 M b v G A D ` -.@.@.@.@.",
",.l.@.l.l.@.T 7 7 n v m M x A Q 1.@.@.@.@.+...5.R.$X>X>X1X X}.W.W.~.Y.Y.Y.%.O.#.z.z.z.z.z.1.E 6 M n v m 8 t D <.,.,.@.@.",
"l.@.@.@.+.+.F 4 x E v v m l B K +.1.z.z.z.@. .$.b.=X,X$X|.Y.Y.Y.W.+X+X+X}.$.) 1.z.z.z.z.z.>.E v n * * q x V ' >.@.@.,.@.",
"@.! @.@.+.R B B x v l m v z 7 B D o.@.z.z.z.o...c.&XfX2X1X1X$X=X<XjXjX<X).5.O.@.,.,.,.z.z.+.E * n 6 * 5 7 V X.#.+.+.@.+.",
"! @.! @.+.o.D B m b l l c x X N D ' +.,.z.1.#.( %.oXfXgXgXsXjXjXjXzXjX<X~.5.<.l.,.,.@.@.@.Q m l G H t 7 7 _ &.O.@.+.+.+.",
"@.! s.+.1.1.X.8 c m * . z c . C _ F +.1.z.l.,.Y R (.yXhXgXjXzXzXzXkXhXeXe.4.<.@.@.@.@.+.o.F c x I 8.:.B N D o.+.@.@.@.+.",
"! l.z.l.1.+.o.t l *       * . c J u +.z.l.l.1.h y S.%XaXaXjXjXkXjXgXuX`.5.<.+.+.! ! +.! F ' P G B :.0.:.&.-.@.,.l.l.l.l.",
"! l.l.l.@.+.o.B + .   b S x l m A A +.@.@.,.+.Y w z.Q.*XaXsXsXdX2X,X#XQ...O.+.+.@.! +.Q K K K n 8 &.4.1.<.1.l.l.l.z.z.z.",
"l.! l.l.1.@.+.F A 6 7 Q Q G b x S i o.+.+.@.+.Y w h j.E.+X<X1X1X>X#XE.c./ ..+.@.! @.+.+.| K A v 8 X.2.z.z.z.z.l.l.z.z.z.",
"@.l.l.l.l.,.,.+.o.T Q +.E S l b S Q @.+.! +.W G w 9 g %.R.+X*X#X#XE.g.( 3 o.,.,.l.l.@.@.T S b e 5 S <.1.l.z.l.l.l.l.l.l.",
"@.@.@.@.,.,.,.,.,.,.,.,.+.G n l n ! ,.@.@.>.&.K A q 0 3 ( v.A.A.G.j.) 3 3 | +.,.@.l.l.@.o.F b q 6 F #.,.z.z.l.,.@.@.l.@.",
"l.l.l.l.,.+.@.@.,.z.z.z.! M v v M ,.z.z.>.&.J G B 8 4 4 0 y ( | h i 0 0 u i Q @.! ! l.l.#.S b e 6 F >.1.z.z.l.@.@.l.,.l.",
"l.! @.! @.! ! ! @.z.z.z.! H l x E 1.1.>.&.{ C B A u u u t 4 4 0 4 u w w u S S Q ! @.! l.>.Y b q 6 K >.z.z.z.l.,.l.l.l.z.",
"! ! ! s.@.+.@.,.,.z.l.@.! G l l H ,.1.&.P C B S T @.@.@.@.+.! ! +.Q T S u S n S Q ! >.,.z.Y v n b H #.,.z.z.l.l.l.z.z.z.",
"! l.+.+.,.z.l.,.,.@.@.+.W A x l H 1.;.I P G T Q +.,.z.z.z.z.z.l.@.+.+.Q W S A u K Q ! ,.,.E v v x K >.,.z.z.z.l.l.z.z.z.",
"+.@.1.z.l.l.l.l.,.,.,.@.Q B x x G *.~ P J W o.@.+.+.@.@.>.z.z.z.z.@.@.@.#.T F J A K Q ! ! H v l B ~ #.,.l.l.l.l.l.l.l.l.",
"@.@.z.z.l.z.z.z.z.z.l.1.o.J l l G I I P W >.@.@.@.+.@.,.,.,.,.z.z.@.z.@.z.#.-.X.J A E >.1.E x c G +.l.@.,.,.,.@.l.l.,.@.",
"+.@.l.z.z.z.z.z.z.z.z.z.+.F x 7 z x I o.>.,.l.@.@.+.@.l.l.l.z.z.z.z.z.z.z.z.,.<.{ J J &.>.H c C C Q z.z.l.@.! @.l.l.l.,.",
"1.l.z.z.l.l.l.z.z.z.z.z.1.X.o o @ B o.>.l.z.z.l.@.@.l.l.z.z.z.z.z.z.l.l.z.z.1.,.>.' J P ~ m z N J *.z.z.l.@.@.l.l.l.l.z.",
"z.z.l.l.,.@.@.z.z.z.z.z.1.+.t r V K #.z.z.z.z.l.,.l.z.l.z.z.z.z.z.,.@.,.,.z.l.z.,.*.{ P Z z + @ W >.z.z.l.l.l.l.l.l.,.l.",
"z.z.,.@.@.@.@.,.@.,.l.z.z.1.-.' ' +.z.z.z.l.l.,.@.,.l.l.l.l.z.l.@.@.@.@.@.,.,.,.l.1.<.{ C z o O o.>.z.z.z.z.z.l.l.,.@.,.",
"l.l.l.,.@.l.z.l.@.@.l.,.z.z.z.@.@.l.l.l.z.z.l.,.@.@.@.,.@.l.1.z.l.@.l.z.z.@.@.1.,.z.1.>.' N O D +.l.l.l.l.l.l.l.z.l.@.l.",
"l.l.@.@.@.z.z.z.l.l.z.z.z.z.z.l.@.@.@.l.l.l.l.l.l.z.,.,.z.l.@.@.@.@.l.z.z.z.l.z.l.z.l.,.#.X.W R +.@.@.,.,.l.z.z.l.l.@.l.",
"! @.@.@.@.,.z.z.z.z.z.z.z.z.z.l.@.@.! @.@.@.@.,.@.@.@.@.@.@.+.+.@.@.@.z.z.z.z.z.z.z.z.z.1.,.l.@.1.z.z.z.l.l.z.z.l.l.@.,.",
"@.! ! @.! ,.z.z.z.z.z.z.z.@.l.l.l.l.@.@.@.! @.+.+.@.@.@.+.@.+.+.@.! @.z.z.z.z.z.z.z.z.z.z.z.l.l.z.z.z.z.z.z.z.l.l.l.,.1.",
"@.@.! l.l.l.z.z.z.l.l.l.@.! @.@.l.l.z.l.@.@.@.@.@.+.! @.! l.! s.@.l.l.z.z.z.z.z.z.z.z.z.l.l.z.l.z.z.z.z.l.l.l.l.l.l.l.l.",
"z.z.z.z.l.z.z.l.l.l.l.@.@.+.@.@.@.@.l.l.l.l.z.z.@.@.! +.! l.z.z.z.z.l.l.l.z.l.l.l.l.l.l.l.l.z.z.z.z.z.@.l.l.@.@.@.! ! l.",
"l.l.@.,.@.@.s.! @.l.l.@.@.@.@.@.+.+.@.+.@.l.l.l.l.! @.@.l.l.l.l.@.l.@.@.! @.l.z.l.l.l.@.l.l.l.l.l.l.l.@.@.@.+.+.! ! ! l.",
"l.l.! ! @.>.>.l.l.z.z.l.,.,.@.@.@.@.@.@.@.@.@.l.l.@.! @.l.l.l.! ! ! @.,.l.l.l.z.l.l.l.@.@.+.@.@.@.@.+.@.! +.+.+.s.l.! ! "
};
