/* XPM */
static char *result[] = {
/* columns rows colors chars-per-pixel */
"60 60 87 1 ",
"  c #170E0E",
". c #0C1A0A",
"X c #15150D",
"o c #1B140C",
"O c #151B0B",
"+ c #1C1A0D",
"@ c #190E12",
"# c #151711",
"$ c #1B1512",
"% c #151A11",
"& c #1C1C14",
"* c #1F161A",
"= c #1E1D19",
"- c #350D09",
"; c #221C0E",
": c #371E0F",
"> c #3E1B0F",
", c #231C14",
"< c #22161A",
"1 c #231C1B",
"2 c #281B19",
"3 c #361F10",
"4 c #17220E",
"5 c #1D210D",
"6 c #142014",
"7 c #1B2213",
"8 c #1E201C",
"9 c #24250F",
"0 c #232414",
"q c #2C2413",
"w c #202816",
"e c #292915",
"r c #24221C",
"t c #2B251C",
"y c #252A1A",
"u c #2F2A1C",
"i c #322415",
"p c #342A14",
"a c #3C2D17",
"s c #30261B",
"d c #332B1E",
"f c #3D2D19",
"g c #3E301A",
"h c #241D21",
"j c #2C1D23",
"k c #2C2124",
"l c #302E21",
"z c #441513",
"x c #421C13",
"c c #4D1718",
"v c #4B1F19",
"b c #531C1D",
"n c #432315",
"m c #46231B",
"M c #4B251D",
"N c #432C1A",
"B c #4C2C1B",
"V c #52221E",
"C c #522D1C",
"Z c #592F1F",
"A c #43311C",
"S c #4B311E",
"D c #51331F",
"F c #5A1E20",
"G c #4F2C20",
"H c #562220",
"J c #5B2122",
"K c #4B3421",
"L c #4E3924",
"P c #543421",
"I c #5C3421",
"U c #553821",
"Y c #5D3924",
"T c #5D3C29",
"R c #613624",
"E c #633A26",
"W c #693A27",
"Q c #653D28",
"! c #6B3D29",
"~ c #713F2A",
"^ c #6C402A",
"/ c #76412D",
"( c #7A432E",
") c #7E4630",
"_ c #804731",
"` c #814832",
"' c #88523E",
/* pixels */
"```__(__`````````_`````_(_((________)))()__)___```_`````_(((",
"``_(((()))_`````````__```_)(((()_____)_)((~((__````````__((_",
"_`_((_`)())_```________)___))~((~(~((((((((((_``````````____",
"))_))_`_`___````_))))((()____)((((((~(~(~~(()``_`````````_``",
")((/()__`_``````_(())_((~((___```))()~)~(___________`______`",
"////((````````_`_)____(((((()(_`__)~~~)`_)()__(()__________`",
"~(((()````````_`__``_`___(((())))))()~___(((((()__))()))()__",
"))_`````__```_____``______))(((()))(~)_`_(())___)__)(((~~(((",
"_)))))))))__))))__``_((((()~((((~(~((~)~(((((```(((~(~(~((((",
"_))/)~~))))_))))(__`(((~~(~~(~(~(~(~~_)~/(((_(((_)(((((((((_",
"`)())_``_)))((((~((~(((((((~W~(((~EW~~~~((____`____________`",
"'`))`_``)))~(~(~(~~(((___(WJJRWWWRPPW~__(__(((_`__`_````````",
"``___))~))~)~)~)(_)____`(WBmvmMnVVnnNZ(`_`(((_(()______`_`__",
"/))))_______)))________(~ZvHJJFzbJVVnBW(__``(```_(__``____(_",
"/~)~~~_~)_`_)__`____((((WCxHJJFbFJJVxnW((((((```___``___((((",
"))~)~__))_``)_______(___~C>HJHbcbVJCxnW((///(```__```__((((~",
"`________``_))(((_______~WnMCMx-zxCnnB~////((````````_____((",
"````````````_)(((_____~~~~Ix:nCICn:>CW^(/(__```````````__`__",
"``````````____)(_______~~~~RRRW(/EIZW/(_`___`__(_```_`____`_",
"``````````_______________((~~(~(___((()__(/((((__`___`__````",
"____`````__`________)_`__))((_~~(((//()__((_____`_))(__)`_``",
"______`____________~__`____)(~~)//(((((((((____`_)(/))))__``",
"``_____)(()))))__`_____`_`__)~)~//(()____(((((___)))__)))__`",
"```____)()_______``_____```)((~)///()_______(__()(()______``",
"_`___``____```__________``)(~(~())((/((((()(()(/(//()___`_``",
"``__````____`_))__)(___(__)(((()__))//(((/(///////((______``",
"______``___)_))()((((((((((((~(((_____(((////(((())_`_``____",
"___()______()(((((~(((~(~(~((((~/())__``_(///(______`)______",
"__)((((((((////((((/((((////~(~(((((((_`_)(/()__(()(((((__(_",
")((((((~((((((((())(((((((/(((((__))______(/(___(/(()_``____",
"(((((((~((((()((/((((()())((/(((__``___`__((()`_)___```_((((",
"((((()((___(__)((/(((((((////(~/)``________)__`___````)((/((",
"(_))_(((__((()___)()//~(~~)~)/()````_`_```__````______)_)(((",
"_(((/(((((((((()`````)(/)~~`)`))`)``__`_____````_)))))(((((_",
"/(((~(//(`_((((((()`_`)/)~``)((()/))))__))_)____)(((((////((",
"/(~(((()_`__))()())))_)~~_``/EIW/)))_))__)()()()(///////////",
"//(_____________`___`_)/)~`)Yp5S^))__)_))(~)(~((////((((((((",
"/(___(_(_((((_))_(___)))))~RqO+uKQ/)((~)~~(~~((~/(//((()____",
"/(__((/(((_____))(((())(~~~N+O&o,3NQ~((~((~)~~__))))))______",
"/(____(______)((/(((///WWWI3+O$ XX&BR~~(~()~_)__````````____",
"(__```)(____(~)~~//~~~WKBN2,$X@<r88+NE/()(~``~__))`````_____",
"(((_)`)(__``_()_)/)))!Bq,2t@X @*hr=%X;NE~___``__)`````_))())",
"__((((((___`))__//WPGdsr11h<<<j<**&=XXO2Z!~_`_````````)(()__",
"((/(////(`_~!WWWTLKs1rh11=<<jjkj1*<<=%OX3GRW~)_````````)))__",
"(~(~/(////WDkiqidr$rkkh1**hjjkjjj211121=1,qqGQ/()))`_```_```",
"/((()(/YGp5O$&o7r,$,1jj1hhhhhh2221,<$&1rr&$.=tNUYYY^)`)____`",
"/((YSBNq+4..O&&XXX%1rrkrkh=8==12tr2&oX#8&&8%677eee9aAU^(____",
"//^aq99OO47+00q+o+,ttttttrr80yuldduq,OO0w7ywyyw744459pD^(_)(",
"//YAggaaaaaffNffaNKKKKgfmffAKKLLPLLAAgaagAAgAAggAggggggU^``_",
")()/^/^/////////////////~~~//^(////^///^/////(/(((/(^^^/____",
"```))))``_``)`````````))))``)```))))))))````)')`))'``)))__)_",
")`)(//))_(_```````````))))_))``))//)))))__``)))`))))````_)(_",
"```)()``((__```___`)``))))~)))``))``))))__``````))`)`)``__()",
"))(())``___````)(/)))```))__)_))()))')))_`````(())))))``__))",
"((///)````````__)////)))))))~)~_//))``)```````(())``)```__)_",
"/////)`````_))___))/////~)~~)~~)//)``````````````)``````__))",
"/((()`````_)(/()_)`))((((//(~~)~)))`````````````````)____))_",
"````_)`)___)(//(())_````////)```)```))`)```)```````))))(((((",
"_)(()(((())((/(//(((()_))//(`_)(())()/()`((((```)))(//^(//(/",
"_((//()_````)))(((((((()(//(__)(///))``````)(((()(((/(((////"
};
