/* XPM */
static char *result[] = {
/* columns rows colors chars-per-pixel */
"60 60 158 2 ",
"   c #050504",
".  c #080406",
"X  c #060903",
"o  c #0A0C05",
"O  c #0D0D0A",
"+  c #110708",
"@  c #140D0C",
"#  c #180F0B",
"$  c #0E1307",
"%  c #041509",
"&  c #0D130B",
"*  c #0D1A0C",
"=  c #121407",
"-  c #121807",
";  c #13130D",
":  c #1B150B",
">  c #141B0C",
",  c #1B1B0E",
"<  c #140D11",
"1  c #1B0F14",
"2  c #0D1511",
"3  c #0E1913",
"4  c #0F1D19",
"5  c #141512",
"6  c #1A1514",
"7  c #151B14",
"8  c #1B1B14",
"9  c #151718",
"0  c #1C1519",
"q  c #151C19",
"w  c #1C1C1B",
"e  c #20100B",
"r  c #241C0E",
"t  c #201614",
"y  c #221D14",
"u  c #2B1D12",
"i  c #22171B",
"p  c #221C1D",
"a  c #2B1F19",
"s  c #16220D",
"d  c #142114",
"f  c #1B2314",
"g  c #15211A",
"h  c #1D211D",
"j  c #25240F",
"k  c #2A210E",
"l  c #242213",
"z  c #2E2415",
"x  c #252E16",
"c  c #2E2A16",
"v  c #23221D",
"b  c #2D251B",
"n  c #22291F",
"m  c #2C2B1C",
"M  c #332515",
"N  c #3A2516",
"B  c #332A16",
"V  c #3C2A17",
"C  c #34251A",
"Z  c #3B251A",
"A  c #352B1B",
"S  c #3C2B1B",
"D  c #32321B",
"F  c #3E301E",
"G  c #1E1E21",
"H  c #231E21",
"J  c #162220",
"K  c #1C2221",
"L  c #242222",
"P  c #2B2324",
"I  c #2B2C25",
"U  c #262529",
"Y  c #2E292D",
"T  c #332821",
"R  c #3C2D24",
"E  c #31272A",
"W  c #2C3124",
"Q  c #323225",
"!  c #3E3322",
"~  c #32322C",
"^  c #3D322F",
"/  c #322E34",
"(  c #353530",
")  c #3E343C",
"_  c #40251D",
"`  c #432C1C",
"'  c #4A2E1C",
"]  c #502E1E",
"[  c #43311D",
"{  c #4B321E",
"}  c #452D22",
"|  c #492D23",
" . c #482E28",
".. c #502F20",
"X. c #443423",
"o. c #4D3323",
"O. c #4C3C24",
"+. c #43342B",
"@. c #4A342C",
"#. c #463928",
"$. c #4B3929",
"%. c #533522",
"&. c #5A3624",
"*. c #543A24",
"=. c #5C3A25",
"-. c #553D29",
";. c #5C3D29",
":. c #4F3A34",
">. c #633B26",
",. c #653D29",
"<. c #6B3E29",
"1. c #713F2B",
"2. c #574129",
"3. c #5B412B",
"4. c #50473A",
"5. c #5B4D3E",
"6. c #66402B",
"7. c #6C412B",
"8. c #76412D",
"9. c #7A432E",
"0. c #754530",
"q. c #7E4630",
"w. c #7F4832",
"e. c #463E46",
"r. c #494543",
"t. c #4E494D",
"y. c #53524D",
"u. c #544D54",
"i. c #56545B",
"p. c #5C565A",
"a. c #5E595C",
"s. c #605A5E",
"d. c #65635E",
"f. c #626067",
"g. c #6C6A65",
"h. c #7E7A7A",
"j. c #804731",
"k. c #814832",
"l. c #88523E",
"z. c #847E82",
"x. c #868087",
"c. c #8A8486",
"v. c #898388",
"b. c #918B8B",
"n. c #9D979D",
"m. c #A29D9B",
"M. c #A69FA7",
"N. c #A9A4A6",
"B. c #ADA6AA",
"V. c #ADA7B0",
"C. c #B3ACB3",
"Z. c #B6B1B3",
"A. c #BAB3B6",
"S. c #B4B1B9",
"D. c #C1BABC",
"F. c #C2BCC2",
"G. c #C7C2C2",
"H. c #D0C9CB",
/* pixels */
"k.k.k.j.j.9.j.j.j.j.j.k.k.k.k.k.k.k.k.k.k.k.k.j.9.j.j.9.j.j.j.j.j.j.k.j.j.1.9.q.q.j.j.q.j.j.j.k.k.k.j.k.k.k.k.k.j.9.9.j.",
"k.k.j.9.9.9.9.j.j.j.j.j.k.k.k.k.k.k.k.k.k.k.k.k.k.j.9.9.9.9.9.9.j.j.j.j.k.k.j.q.9.9.9.1.9.j.j.k.k.k.k.k.k.k.k.j.j.9.9.9.",
"j.k.j.9.9.j.j.q.9.9.j.j.k.k.k.k.j.j.j.j.j.j.j.j.k.k.j.j.9.9.9.9.1.j.9.9.9.9.9.9.9.1.9.1.9.j.k.k.k.k.k.k.k.k.k.k.j.j.j.j.",
"q.q.j.q.q.j.j.j.j.j.j.j.k.k.k.k.j.j.j.9.9.9.9.9.9.j.j.k.j.9.9.9.1.j.1.1.1.9.1.9.9.9.9.9.q.k.k.j.k.k.k.k.k.k.k.k.k.k.k.k.",
"q.q.9.9.9.j.j.j.k.k.k.k.k.k.k.k.j.9.9.9.j.j.9.9.1.9.j.j.j.k.k.k.k.j.9.9.9.8.9.9.9.q.q.j.j.j.j.j.j.j.j.j.k.j.j.j.j.j.k.k.",
"1.1.1.8.1.q.k.j.k.k.k.k.k.k.k.k.j.j.j.j.j.j.9.9.9.9.9.9.9.9.j.k.k.j.j.1.8.8.9.k.j.q.q.j.j.q.9.9.q.j.j.j.j.j.j.j.j.j.j.j.",
"9.1.9.9.9.j.k.k.k.k.k.k.k.k.k.k.j.j.j.k.j.j.j.j.9.j.9.9.9.j.j.9.j.j.j.9.8.8.w.k.j.9.9.9.9.9.9.q.j.j.j.j.9.9.q.9.9.9.j.9.",
"j.k.j.k.k.j.k.k.j.j.k.k.k.j.j.j.j.j.k.k.j.j.j.j.j.j.j.9.9.9.9.9.j.9.9.8.8.8.9.q.j.9.9.9.q.j.j.j.j.j.j.9.9.9.9.9.9.9.9.9.",
"k.j.j.j.j.q.9.9.j.j.j.j.j.j.9.j.j.j.j.j.j.q.9.8.9.9.1.1.q.1.q.1.q.8.8.8.8.8.8.9.9.1.1.q.q.q.j.q.9.9.9.1.9.1.9.1.9.9.9.9.",
"j.9.9.1.q.1.9.9.j.q.q.q.q.q.j.9.9.9.j.j.9.9.8.8.1.1.q.1.1.1.1.1.7.7.8.8.8.8.8.8.1.9.9.9.q.q.q.q.j.9.9.9.9.9.9.9.9.9.9.j.",
"k.j.q.9.q.j.j.k.j.j.q.9.9.9.9.9.8.9.8.9.9.9.8.6.1.1.9.0.6.*.X.X.F F ;.8.8.7.>.,.1.j.q.j.q.q.q.q.j.j.j.j.j.j.j.j.j.j.j.j.",
"l.k.j.j.j.j.j.j.j.j.9.1.1.9.1.9.8.8.8.8.9.9.8.2.%.&.7.%.F m D W W n ! 3.7.2.A { 1.j.q.q.9.9.q.q.j.j.k.k.k.k.k.k.k.k.k.k.",
"k.j.k.k.k.j.9.9.j.q.1.q.1.q.1.9.9.9.j.j.w.w.0.2.D D $.Q W W n n n n W 4.5.Q f F 7.q.q.8.q.q.q.q.9.j.j.j.j.j.j.k.k.k.j.j.",
"1.q.j.k.q.j.q.q.j.j.j.j.q.q.j.j.j.j.j.j.w.8.7.3.b > b y.g.d.~ L n ( y.g.d.~ W #.<.8.q.w.q.q.q.q.q.j.j.j.k.k.j.j.j.j.j.9.",
"9.1.1.1.1.9.1.9.q.j.j.k.q.j.j.j.k.k.j.j.8.{ b l ; 8 r.b.Z.Z.b.a.p.h.N.Z.m.d.I 8 z F =.8.q.q.k.k.j.j.j.k.k.j.j.j.9.9.9.9.",
"j.q.j.1.9.9.j.j.q.j.j.j.q.j.j.j.j.j.k.9.>.F 7 5 @ L p.C.G.F.Z.x.z.N.Z.H.G.c.~ & > l o.8.q.w.k.k.j.j.k.k.k.j.j.9.9.9.1.9.",
"k.j.j.j.w.k.j.j.j.k.k.k.j.9.q.9.9.9.j.9.&.M ; 8 0 E i.V.C.M.C.z.c.B.m.D.F.v.) w 7 f X.<.8.k.k.k.k.k.k.k.k.k.j.j.k.9.8.9.",
"k.k.k.k.k.k.k.k.k.k.k.k.j.q.9.8.9.j.j.8.` e . @ @ 0 e.z.V.S.n.u.u.c.B.A.m.s.H 5 7 W #.6.w.k.k.k.k.k.k.k.k.k.k.k.k.k.k.j.",
"k.k.k.k.k.k.k.k.k.k.k.k.k.j.9.9.9.8.<.{ u # 1 @ 1 1 H e.i.f.i./ Y e.a.s.t.Y 0 9 7 w l Z >.8.w.9.j.j.k.k.k.k.k.k.k.k.k.k.",
"k.k.k.k.k.k.k.k.j.k.k.k.k.j.w.q.8.&.` u # 1 i t i H i i H H U U G 0 0 0 0 5 G w w 7 * 6 V =.8.j.j.k.j.j.j.k.k.k.k.k.k.k.",
"9.j.k.k.k.k.k.k.k.k.j.q.9.q.8.7.%.z , : p P P P H H P H i G H H H 0 6 9 w G G G w U v 5 > S >.9.j.k.j.9.j.j.j.k.k.k.k.k.",
"j.j.j.k.k.k.k.j.j.q.8.8.6.*.F c b l w L P P E P H H L w G G H H H w p 0 w H G G w w 0 8 8 l S =.9.9.9.9.9.9.9.9.j.j.k.k.",
"j.j.k.k.k.k.w.q.8.8.=.[ S b f 8 h v v L p v P P P a p p 0 6 0 1 5 6 w w G G G G p 5 @ @ 6 : y V %.<.8.j.j.j.j.j.9.j.j.k.",
"k.k.k.k.k.k.j.q.9.8.' f d 7 w p v m v 8 p w v v L p 6 y 6 @ @ @ @ < 5 q w G G G H < + + e : , f j { >.9.j.j.j.j.j.j.k.k.",
"j.k.k.k.k.k.k.k.j.q.&.C 7 $ 0 C T P y 5 w h h h h w 7 ; 6 t a p w 5 ; O 5 G G G i < 1 Z &.N r > - j { 9.j.j.j.j.k.k.k.k.",
"k.k.k.k.k.k.k.k.q.0.o.v 7 w S ;.,.%.C ; w h K J 4 7 q q 0 v v v v h 8 6 5 G G G 0 1 1 _ >.] u = , B &.9.j.j.j.j.k.k.k.k.",
"j.j.j.k.j.j.k.k.q.8.S 7 d A *.9.1.<.S ; 8 h K K 4 4 J K H P H L K n a p G G G G 1 + e _ <.>.N = : ` >.j.k.j.k.k.k.k.k.k.",
"9.j.9.9.9.j.j.k.q.,.B & d [ >.8.1.>.Z $ 7 w w K g J K K G p p p w L H H H H G G < . + _ 1.1.%.r , B =.9.j.w.j.j.j.j.j.k.",
"j.j.j.j.9.9.9.9.1.` y ; y &.1.1.1.>.N . X O 5 K K K G G p H i p w w v P H G G G <   < C 7.q.<.' s s ` 9.q.9.9.9.j.j.9.9.",
"j.j.1.j.8.8.8.1.>.Z p y ` <.9.9.k.1.` $ o ; 6 p p G G G H p p p p w p H H G G w <   @ Z 8.q.8.*., * B 6.9.w.k.j.k.k.j.j.",
"1.1.1.1.9.1.8.1.%.v 0 b ,.9.1.9.9.8.%.f ; ; y p H L H H H H i i p p 0 p H H H 5 O   : ` 8.q.q.>.j * l *.9.j.j.j.9.9.9.8.",
"9.j.9.9.j.j.9.>.` y 6 b ,.q.q.q.q.1.=.B = @ 8 p L p H p H i 5 0 p v 0 w H H w 5 X X N >.q.q.q.8.` > > V 8.j.q.9.8.9.8.8.",
"j.j.9.j.j.q.9.&.b 6 b } <.q.j.j.j.q.7.=.k , = ; p p p 0 0 w 9 9 w v w w p L w 2 . : ..8.k.k.w.8.o.y 7 b ,.9.j.j.9.j.9.9.",
"j.9.1.<.*.o.o.R l 5 p A o.o.*.8.j.k.k.q.O.j X = 6 8 6 : 9 q 9 G G L w w w p 8 $ o M ,.j.9.8.>.{ V y 7 8 X.o.%.,.8.9.j.9.",
"1.1.1.' l f g g g 3 2 * 7 s B *.7.9.q.w.7.V $ ; ; 5 @ 5 q J G g K K w w w w ; X - { 1.9.8.{ M : ; 6 9 5 g f l { >.1.8.8.",
"9.1.>.N : h h h q 2 & & $ > f D =.7.q.q.q.6.B $ & 6 w w G K J K w w w w w 8 o o j <.9.<.{ z r : ; $ 5 h w 8 6 8 ' <.8.8.",
"1.1.>.M $ 6 q q 7 8 B V r - > x *.8.w.j.k.8.>.M 6 5 p w w G G K K w 7 q w 5 ; r ' 1.8.=.B - , u _ u r 8 w h w ; r ' 8.8.",
"1.j.1.` : @ 2 5 q M %.>.` k j D =.8.w.j.k.w.9.3.A y p p p w w h L K 7 5 6 ; , S <.8.8.>.D r k ' >.] u @ 8 w 8 > = V 9.j.",
"1.9.1.] r o 5 7 f o.8.q.7.=.=.>.8.9.8.7.8.q.8.8.&.C 8 p w w K L v w q 5 ; ; B &.8.8.8.7.=.%.=.1.9.<.` o 5 7 , w M %.q.j.",
"9.j.j.1.%.u f 8 l *.8.q.q.8.8.8.8.6.2.2.*.;.>.8.=.Z 5 ; 5 w L h w w 5 5 5 6 %.<.8.8.8.8.8.8.8.9.j.8.' ; ; > k %.,.8.j.j.",
"j.9.j.j.8.%.[ ` X.<.9.9.9.9.9.9.8.6.O.D D c B ..S a ; 5 q g 7 w w w 8 w 8 8 o.1.j.9.9.j.j.9.9.9.q.q.>.` V [ =.8.j.j.j.j.",
"9.9.9.j.q.q.8.>.8.j.k.k.q.9.9.9.q.8.6.D x s - y 6 ; ; w h w 7 q w w w w 8 6 M =.j.9.j.j.j.j.j.j.j.j.q.8.6.8.j.q.9.9.9.j.",
"j.j.9.9.9.8.1.9.9.k.k.k.j.j.k.k.q.j.q.8.=.V s $ 5 8 5 w v h w h h h p w 8 ; r ` 1.1.9.j.k.k.j.k.k.k.j.j.9.j.j.9.9.j.j.j.",
"9.9.8.9.9.8.9.8.9.k.k.w.j.k.k.k.w.w.w.w.8.6.V - 7 ; O 8 h 8 * 2 3 3 5 5 5 ; ; l ` <.1.j.k.k.k.k.k.k.j.k.k.k.j.q.j.j.j.j.",
"1.1.9.9.9.9.8.9.q.k.k.9.9.9.k.k.w.w.k.w.q.=.V & $ 5 5 v n v 8 d f 8 w y t 5 ; ; r %.1.q.k.j.j.k.j.j.k.k.k.k.k.j.j.j.j.j.",
"9.8.9.9.q.q.k.j.q.9.9.8.9.9.9.j.q.q.w.q.1.%.l ; 2 8 I X.X.X.#.X.! ! } ` Z t @ O > ` >.9.j.j.j.j.j.j.k.j.k.k.k.j.j.j.k.k.",
"1.9.j.k.j.j.j.j.j.j.9.9.9.8.9.8.8.7.<.<.1.>.| a w 8 v o.6.0.0.0.0.<.<.&.Z p p n A -.>.>.>.6.8.9.j.j.j.j.j.j.j.j.j.j.j.j.",
"1.9.k.k.j.j.k.k.k.k.j.j.k.k.9.7.[ B z C } |  .} ! I 8 A &.q.w.k.w.q.,.Z y p +.@.+.+.S B B z V =.9.j.j.9.j.9.9.9.j.j.j.9.",
"j.9.j.j.k.k.k.k.j.k.j.k.k.k.7.{ s * & O 0 i Z  .@.T 7 f X.8.k.k.q.,.S 8 & K $.:.^ H w 2 O % * z >.9.j.j.q.8.9.9.j.j.j.j.",
"j.k.j.j.j.j.j.k.j.j.k.k.j.k.*.f d d w p 0 0 < 0 p h 3 g m $.0.w.,.S d g d q L U H H G 9 2 3 * - V <.j.k.q.9.9.q.j.j.j.k.",
"j.k.j.j.q.9.j.j.j.j.j.j.k.k.&.> d f p H i 1 1 i 0 w p 8 f A 7.q.%.f * * 8 w h L H H w 5 2 5 * * k >.q.k.k.q.q.k.j.j.j.j.",
"j.k.j.9.1.9.9.q.q.j.j.j.k.k.<.` F X.X.@...| _ | } } o.| F o.8.w.>.S A V S } }  . . .} ` } R ` S %.8.k.k.k.k.k.k.j.j.1.j.",
"q.k.k.q.j.j.k.k.j.q.q.j.j.j.q.9.1.j.1.q.j.1.j.1.1.1.9.1.1.9.j.j.8.8.8.q.q.8.8.8.9.9.9.9.9.9.9.9.q.k.j.j.j.k.k.k.j.j.9.j.",
"j.k.9.q.9.k.k.k.j.j.j.j.j.j.j.j.q.1.j.j.j.j.k.k.q.j.q.q.q.j.j.9.q.q.q.q.q.w.w.q.j.j.k.q.j.j.j.1.9.9.9.9.q.q.k.k.j.j.9.j.",
"1.9.1.q.1.q.k.k.k.k.j.j.j.j.j.j.j.1.1.9.9.k.j.1.9.j.9.9.q.9.1.9.8.8.q.j.k.k.k.k.k.k.k.k.j.j.9.9.q.q.k.k.j.w.k.k.j.j.j.j.",
"9.1.1.q.1.q.k.k.k.k.k.j.j.j.j.j.j.k.9.q.1.1.q.1.1.9.9.9.9.1.9.9.1.8.9.k.k.k.k.k.k.k.k.k.k.k.j.j.k.j.k.k.j.k.k.k.j.j.j.j.",
"9.9.9.q.q.j.k.j.j.j.j.j.9.9.9.q.j.j.j.k.q.9.9.9.9.9.1.9.9.1.9.9.q.q.k.k.j.k.k.k.k.k.k.k.k.k.k.k.k.k.j.k.j.j.j.k.k.j.j.j.",
"j.k.j.j.j.j.j.j.j.j.j.j.9.9.1.9.9.q.j.k.j.j.k.j.1.9.1.9.q.j.j.j.j.j.j.k.j.j.j.j.j.j.j.j.j.j.k.k.k.k.j.j.9.j.9.9.9.9.9.8.",
"j.q.q.9.q.9.q.1.9.q.q.q.q.1.1.1.1.9.1.9.9.q.j.j.9.9.9.9.k.k.9.9.9.q.q.9.1.q.q.j.j.q.q.9.j.j.j.j.j.j.q.9.8.9.8.8.9.8.8.8.",
"j.q.9.1.1.q.q.j.j.j.j.j.j.j.q.q.9.9.9.9.9.9.q.j.q.9.1.9.j.j.j.9.1.1.9.q.q.j.k.k.j.j.j.q.j.9.1.9.9.9.9.8.8.8.8.9.1.8.9.8."
};
