/* XPM */
static char *result[] = {
/* columns rows colors chars-per-pixel */
"60 60 117 2 ",
"   c #0D0C09",
".  c #100F07",
"X  c #110F0A",
"o  c #0F100A",
"O  c #121506",
"+  c #14150C",
"@  c #19160C",
"#  c #141A0C",
"$  c #1C1B0D",
"%  c #171713",
"&  c #1B1313",
"*  c #151B12",
"=  c #1C1B14",
"-  c #1E1619",
";  c #1E1D1A",
":  c #211A0D",
">  c #221615",
",  c #231B13",
"<  c #2D1E11",
"1  c #23151A",
"2  c #2A171F",
"3  c #231D1B",
"4  c #291E1C",
"5  c #162109",
"6  c #1C240D",
"7  c #172012",
"8  c #1B2213",
"9  c #1E221A",
"0  c #24250E",
"q  c #252A0E",
"w  c #242314",
"e  c #2A2414",
"r  c #242915",
"t  c #2C2C11",
"y  c #24221C",
"u  c #2B241C",
"i  c #2C2B1C",
"p  c #312614",
"a  c #332B15",
"s  c #382817",
"d  c #332419",
"f  c #382618",
"g  c #312A1E",
"h  c #3E2C1A",
"j  c #373215",
"k  c #3B3317",
"l  c #3E331B",
"z  c #271C21",
"x  c #2B1C22",
"c  c #242120",
"v  c #2A2124",
"b  c #2F2E22",
"n  c #322423",
"m  c #312E21",
"M  c #3B2D2B",
"N  c #3D3322",
"B  c #432C1B",
"V  c #4C2E1D",
"C  c #44321C",
"Z  c #4B351E",
"A  c #4F391F",
"S  c #51311F",
"D  c #523A1F",
"F  c #463321",
"G  c #4A3523",
"H  c #463823",
"J  c #4C3A26",
"K  c #4D3A28",
"L  c #543423",
"P  c #5C3623",
"I  c #533824",
"U  c #5C3A24",
"Y  c #573428",
"T  c #533C2B",
"R  c #5C3D29",
"E  c #4B3432",
"W  c #433934",
"Q  c #4F3F31",
"!  c #633A26",
"~  c #643D29",
"^  c #6C3E2A",
"/  c #713F2B",
"(  c #4D4437",
")  c #5D4234",
"_  c #5B4936",
"`  c #584639",
"'  c #554B3A",
"]  c #65422D",
"[  c #6C412C",
"{  c #77412D",
"}  c #7A432E",
"|  c #624435",
" . c #6A4631",
".. c #624239",
"X. c #69473D",
"o. c #774530",
"O. c #7E4630",
"+. c #514240",
"@. c #5A4647",
"#. c #564C45",
"$. c #564648",
"%. c #5E4B49",
"&. c #5C524B",
"*. c #6B4F45",
"=. c #6A4C4C",
"-. c #695042",
";. c #6F504D",
":. c #7B5044",
">. c #74554A",
",. c #785049",
"<. c #635A51",
"1. c #765757",
"2. c #7B5651",
"3. c #725659",
"4. c #804731",
"5. c #814832",
"6. c #825346",
/* pixels */
"5.5.5.4.O.} 4.4.4.5.5.5.5.5.5.5.5.5.5.5.4.5.5.4.O.O.O.O.O.4.4.4.4.4.4.4.4.4.} } 4.4.4.O.4.4.4.5.5.5.4.5.5.5.5.5.4.} } } ",
"5.5.4.} } } } 4.4.4.4.4.5.5.5.5.5.5.5.5.4.4.5.4.4.4.4./ / O.O.O.4.4.4.4.4.4.4.4.} } } } } 4.4.4.5.5.5.5.5.5.5.4.O.} } 4.",
"4.5.4.} } 4.5.O.} } 4.4.5.5.5.5.4.4.4.4.4.4.4.4.4.4.4.4.} } / } } / } } / } } } { { / } } 4.4.4.5.5.5.5.5.5.5.5.4.4.4.4.",
"O.O.4.O.O.4.5.4.4.4.4.4.5.5.5.5.4.O.4.} O.} O.O.O.4.4.4.4.4.} } } O./ } } / } / { { } } O.5.5.4.5.5.5.5.5.5.5.5.5.5.5.5.",
"} O.{ } } 4.4.4.5.5.5.5.5.5.5.5.4.} } } 4.4.} / } } O.O.4.4.4.5.4.O.} / / } } / } O.4.4.4.4.O.4.4.4.4.4.5.4.4.4.4.4.4.5.",
"/ } / { / O.5.4.5.4.5.5.5.5.5.5.4.4.4.4.4.4.4./ / } / } } O.4.4.4.4.O.} } / 4.4.4.} O.4.4.O.O.} O.4.4.4.4.4.4.4.4.4.5.5.",
"} } } } } 4.5.5.5.5.5.5.5.5.5.5.4.4.5.5.4.5.4.4.4.O.O.} } } 4.} O.4.O.} } } O.4.4.} } } } } } O.O.4.O.O.O.4.O.O.} 4.4.} ",
"O.O.4.5.5.5.5.5.4.4.4.5.5.5.5.5.4.5.5.5.4.4.4.4.4.4.O.O.} } O.} O.O.} } } / 4.4.4.} O.} O.4.4.4.4.O.O.} } } } / / } } } ",
"4.O.O.O.4.4./ } 4.4.4.4.4.4.4.5.4.4.4.4.5.4.4.} } } } } } } / } / O./ O./ } } } } } } } 4.5.4.O.O.} } / } / } / } / } } ",
"4.O.O.{ 4./ } 4.} 4.4.4.} 4.} } } 4.4.4.} } / / } / / } / } } } 4./ O./ } / } } / / } O.O./ O.O.O.O.O.} } } } } O.O.O.4.",
"5.O.} O.4.4.4.4.5.5.} 4.} } } } / } / } } / } } } } } } } } } / 4./ / / } / } / } 4.4.4.O.4.4.4.4.4.4.4.4.4.4.4.4.4.4.4.",
"6.5.O.O.4.4.4.4.4.4./ / } } / / / } } } } 4.} 4.4.4.4.4.4.O.O.O./ 4.5.4.4.} 4.} 4.4.4.4./ } O.4.4.4.4.4.5.5.4.5.5.5.4.4.",
"4.4.4.4.4.4.} } 4.} / } / } / 4.} } 4.4.4.4.5.4.5.5.5.5.4.4.4.4./ 5.4.4.4.4.4.4.4.4.4./ / 5.O.O.O.O.4.4.4.4.4.4.5.5.4.4.",
"} } } 4.4.4.4.4.5.5.5.5.4.4.} 4.4.4.4.4.4.4.4.4.5.5.5.5.4.4.4.4.5.5.4./ } } } O.4.4.4.4.O.4.5.4.O.O.4.4.5.4.4.4.4.4.4.4.",
"} } / / / 4./ / 4.5.5.5.4.4.5.5.4.4.4.4./ O./ O.O.O.4./ } 4.4.4.5.5.4.4.4.4.4.4.4.4.} / O.4.5.5.4.4.4.4.5.4.4.O.O.} } } ",
"4.} } } } } 4.4.} 5.5.5.4.4.4.4.4.4.4.4.O.4.5.O.4.O./ / / / / } / / ^ / / } } } / / } } O.5.5.5.4.4.4.4.5.4.4.O.} / } / ",
"5.4.5.4.5.5.4.4.4.5.5.5.4.4.} } } 4.4.4.4.4.4.4.4./ ] _ ' | [ ^ / ~ E Q Q / / / O./ } } / 5.5.5.5.5.5.5.5.4.4.4.4.4./ 4.",
"5.5.5.5.5.5.5.5.5.5.5.5.4.} } } } 4.5.4.4.4.} / / / ( #.<.#.W M M +.<.&.( R  .o./ 5.5.5.5.5.5.5.5.5.5.5.5.5.5.5.4.4.4.4.",
"5.5.5.4.5.5.5.5.5.5.4.5.4.4.4.} 4.4.4.4.4.4.4./ / K ` -.>.>.%.$.@.;.,.*.` H ~ O.5.5.5.5.4.4.4.} 4.5.5.5.5.5.5.5.4.5.5.5.",
"5.5.5.5.5.5.5.4.5.5.5.4.4.4.4.4.4.4.4.4.4.4.4.4./ M ) :.6.>.1.3.1.6.6.:...N ^ 5.5.} } / } } O.O.4.5.4.4.4.5.5.5.5.5.5.5.",
"4.4.4.4.5.5.5.5.5.4.4.5.4.5.5.5.4.4.4.} 4.4.5.4.[ F R *.:.2.;.=.=.,.,.*.~ h ^ 4.5.} } } 4.4.4.4.5.4.4./ } 4.4.5.5.4.5.5.",
"4.4.4.4.5.5.5.4.4.4.4.4.4.4.4.5.5.5.4.} } 4.5.5.o.~ T ) X.X.E M W ~ *.R K S / } } } } 4.4.4.4.4.4.4.} } 4.} 4./ 4.4.5.4.",
"4.4.4.5.4.5.4.4.} / } 4.4.} 4.4.5.5.4.} 4.5.5.5.O.o.~ T G G Y Y Y F G G I [ O.4.5.} / 4.} } } 4.4.4.4.4.4.4.4.4.4.4.5.5.",
"5.5.5.5.4.4.4.} 4.4.4.4.4.4.4.5.5.5.4.4.4.4.5.5.5.O./ ! G V ~ ^ ^ S G L ^ o.4.4.5.5.5.5.4.4.4.4.} 4./ 4.4.4.4.4.4.5.5.5.",
"5.5.4.5.5.5.5.4.4.5.5.5.5.5.4.5.4.4.4.4.4.4.4.4.5.5.4.} / / { } O.} } / } } } } } O.O.} O.4.} } / } / } 4.4.5.5.4.5.4.5.",
"5.4.4.4.5.4.5.5.4.4.5.4.5.4.4.4.4.4.4.4.4.4.4.4.5.O.} } } { } O.4.4.O.O.} } } } } / } } / / } / / } } } 4.5.5.5.4.4.5.5.",
"4.4.4.4.4.4.5.5.4.4.4.4.4.4.} } } } / } } } } } } { } { / } / } } 4.4.4.4.O.} } } / / } } } } } } 4.4.4.5.4.4.5.4.4.4.4.",
"4.4.} 4.} 4.4.4.4.4.4.} } } } / } } } } / } / } { { { { } / } } } } } O.O.4.5.5.5.} } } / } 4.4.4.4.4.4.4.4.4.4.4.4.4.4.",
"4.4.4.} 4.} / } } } } } } } / } } } } } / } / } } / } } } / } } } } } } } } 4.5.5.4.} } / 4.5.4.} } 4.} } } } } 4.4.} } ",
"4.} } } / } } } / } } } } } } } } } } } O.} O.} } O./ / / } / 4.4.4.O.O.O.4.4.4.5.4.} / } 4.5.5.} } / 4.4.4.4.4.4.4.4.4.",
"} } } } / } / } } } } } } 4.} } } } } 4.O.O.O.4.4.4.4.} } } / 4.4.4.5.5.4.4.5.5.4.4.} } } 4.4.4.4.4.4.4.4.4.4.4.4.} } } ",
"} } } } } } 4.} 4.4.4.} 4.4.4.} } / } } } } / } } / } } / / } / O.5.5.5.4.4.4.4.4.4.4.4.4.4.4.4.4.4.4.4.4.4.4.} } 4./ } ",
"} } 4.O.4.} } O.4.4.} } 4.4.4.4.4.4.} } } } / } / / O./ } } } 4.4.5.5.5.5.5.5.5.5.5.5.5.5.5.5.5.4.4.4.4.4.4.4.4.4.4.} } ",
"4.O.} } } } } } } } } / / } O.4.4.4.4.5.4.O.} } O./ / 5.4.4.4.4.4.4.4.5.4.4.4.4.4.4.5.5.5.5.5.5.4.4.4.4.4.} } 4./ 4./ 4.",
"} } } } } / / } } 4.4.} } / / O.} } 4.4.4.5.} / 4./ 5.5.4.} 4.4.O.} } } } 4.4.O.4.4.4.4.4.4.4.4.4.} } } { } } / } / / 4.",
"/ } / } } } } O.4.5.4.4.4.O.O.O.} 4.} 4.4.4.O.{ / 4.5.5.{ ! S ! / O.4.4.4.4.4.4.4.} } } } O.O.} { { { { { / / } } } } / ",
"} } } O.4.4.4.4.4.4.4.4.4.4.4.4.4.4.4.4.4.4.} { } } 4./ ! f < B ^ O.4.4.4.4.O.} } } } } / } / } { { { { { } { } } } 4./ ",
"/ } 4.4.O.} } O.O.} } } O.4.O.O.} 4.4.4.4.4.4.4.4./ / P < . , < B ^ 4./ } / } / / } / / } } / } { { } { } } } 4.4.4.4.4.",
"} } 4.4.O.} / } } O.O.O.4.4.4.4.4.} 4.} } 4.} } } / / V : X > > : < V ! / / } } } } } } / O.4.O.} 4.4.4.4.4.4.4.4.4.4.5.",
"} } 4.4.4.O.O.4.O.O.4.4.4.O.} } } } / { { { } ^ ! ! Y f @ & & & > @ , B ^ / / O.} } / } O.O.O.4.4.4.4.5.5.5.5.5.4.4.4.4.",
"} 4.4.4.5.5.4.} 4.4.5.4.} / } } / O./ / 4./ / L s f < 3 - 1 - - 3 u = , B P ^ } } } } 4.4.} } 4.4.4.4.5.5.5.5.4.4.O.4.4.",
"} } } 4.4.4.} } 4.4.5.5.4.} O.} / O.4./ / / L e = y c z &   & 1 3 1 4 > @ , h P } } O.O.4.4.4.4.4.4.4.5.5.5.4.} } O.O.O.",
"4.4.4.} } } { } O.4.5.5.O.O.O.4.O./ ^ P V B u , = 9 ; ; - - x x 2 > - & & % @ , V / / O.5.5.4.4.5.4.4.4.5.5.4.} } O.O.O.",
"} } / } { } { } 4.5.O./ ^ ^ Y ^ Y L B f 4 4 3 3 9 ; % ; z z x x x 1 1 - ; - % + < V P ! / } 4.5.5.4.4.4.5.5.4.4.O.4.4.4.",
"/ } / } } } { / { { ^ S d 4 u p u y > 4 n n 3 , = = ; z v v x x x x 3 z c c ; * # , e i B ! / 4.4.} 4.4.4.4.4.4.5.5.5.5.",
"} / / 4.O.} [ ! V < : # X % = y y @ @ > 4 > v 4 3 3 y y c 3 , 3 1 1 ; ; ; % ; 9 y y # O O : B P D D U [ O.4.4.4.5.4.5.5.",
"{ { } ! C B a 0 $ # + + # * 8 * + o = , y y u u 4 3 3 y y , y y c 9 ; ; * o # 9 9 7 7 7 7 5 w t t t q t k D ! O.4.4.4.4.",
"{ } ! l q t 6 5 @ = 8 , w w y = @ $ w u u m g g u u e e e u i m b b i y w # # 8 r 8 r i i r w 6 6 6 5 6 q j A ! O.O.O.} ",
"} { U C k k k l h B h C C l l h C C C C C J Z C V F B C Z G J J K K H Z C l l N C l l C l Z C C C C k C C j j D } O.4.O.",
"O.} o.{ [ o.{ { { { { { { { { { { { o.{ o.o.{ { / / { o.{ { o.o.{ O.{ o.o.{ o.o.{ { o.o.o.o.o.o.o.o.o.o.o.[ [ o.4.4.4.5.",
"5.5.5.O.O.} O.O.5.4.5.5.O.5.5.5.O.5.5.5.5.5.5.O.} 5.5.5.5.5.5.5.O.O.} O.O.O.O.O.5.5.5.5.O.5.5.5.O.5.5.5.5.O.O.O.4.4.O.4.",
"5.5.O.} { } o.O.4.} 4.5.5.5.5.5.5.5.5.5.5.5.5.O.} 4.5.5.4.4.5.4.O.{ { } O.O.O.O.4.5.5.5.O.O.5.5.O.O.5.5.5.5.5.5.4.O.} 4.",
"5.5.5.} O.O.5.5.} } 4.4.5.5.5.4.5.5.5.5.5.5.O.O./ } } } O.O.4.4.O.O.O.5.O.O.O.O.4.5.5.5.5.5.5.5.4.O.5.O.5.O.5.5.5.4.} 4.",
"} 5.} } O.O.5.5.4.4.5.5.5.5.5.4.} } } } O.5.5.5.4.4.5.5.O.4.4.4.O.O.O.O.O.5.O.O.5.5.5.5.5.5.} } } } O.O.O.O.5.5.4.4.} 4.",
"} { { { } O.5.5.5.5.5.5.4.5.5.4.} } } { } } } } 4.4.4.4./ O./ O.{ { O.O.5.5.5.5.5.5.5.5.5.5.} } O.4.5.5.5.O.5.5.4.4.} 4.",
"{ { { { } } 5.5.5.5.5.5.5.} 4.5.4.4.} { { } { } } / / } / / / / { { O.5.5.5.5.5.5.5.5.5.5.5.O.5.5.5.5.5.5.5.5.5.4.4.4.4.",
"} { } } 4.5.5.5.5.5.4.} } { } } 4.5.5.5.} } } } } { { } / } O.O.O.O.O.5.5.5.5.5.5.5.5.5.5.5.5.5.5.5.4.5.4.4.4.4.4.4.O.4.",
"5.5.5.5.5.5.5.4.4.4.4.4.} { } { } } } 4.5.5.5.5.} } { { O.4.4.5.O.O.5.5.O.O.5.5.5.O.5.5.5.5.5.5.5.5.4.O.O.} O.} } } } } ",
"4.} } } } } } } } } } 4.} } } } { { } } } 4.4.5.} } { } 5.5.4.} } } O.} } } } O.O.O.} O.O.5.5.5.4.4.O.} } { { { { } { { ",
"4.4.{ } } } } 4.5.5.5.5.4.O.} } } } } } { } } 4.} } / } 4.4.} } } { } O.O.O.5.5.5.O.O.O.} } } } } } { } { { { } { / } { "
};
