/* XPM */
static char *result[] = {
/* columns rows colors chars-per-pixel */
"60 60 143 2 ",
"   c #190A0F",
".  c #0C160C",
"X  c #0E180E",
"o  c #14140D",
"O  c #1B160B",
"+  c #141A0B",
"@  c #1B1B0D",
"#  c #141412",
"$  c #1B1513",
"%  c #141B14",
"&  c #1D1B14",
"*  c #1D1719",
"=  c #1E1D19",
"-  c #241F0D",
";  c #2A1C0E",
":  c #211715",
">  c #2A1C11",
",  c #231519",
"<  c #29141C",
"1  c #241C1B",
"2  c #2A1D1E",
"3  c #18210E",
"4  c #1D280F",
"5  c #162217",
"6  c #1E2313",
"7  c #15231A",
"8  c #1E211A",
"9  c #232313",
"0  c #2A2315",
"q  c #252A11",
"w  c #2C2D13",
"e  c #24241B",
"r  c #2B231A",
"t  c #26291C",
"y  c #362716",
"u  c #332C16",
"i  c #3C2B17",
"p  c #332519",
"a  c #332C1C",
"s  c #3D2E1B",
"d  c #3B3217",
"f  c #3D311A",
"g  c #221E22",
"h  c #2D1D21",
"j  c #311C23",
"k  c #1D2324",
"l  c #242322",
"z  c #282720",
"x  c #282C21",
"c  c #352B28",
"v  c #3F3120",
"b  c #422E1C",
"n  c #4B2D1D",
"m  c #43321C",
"M  c #4B341E",
"N  c #52341F",
"B  c #443422",
"V  c #4E3924",
"C  c #533522",
"Z  c #593522",
"A  c #563822",
"S  c #5D3925",
"D  c #623A26",
"F  c #683C27",
"G  c #643E2A",
"H  c #6B3E29",
"J  c #713E2B",
"K  c #53412F",
"L  c #5E422E",
"P  c #434332",
"I  c #4B4837",
"U  c #4B443B",
"Y  c #4B4C3E",
"T  c #524432",
"R  c #5D4535",
"E  c #554935",
"W  c #65412C",
"Q  c #6D412C",
"!  c #77412D",
"~  c #7A432E",
"^  c #644531",
"/  c #654A32",
"(  c #6D4834",
")  c #63473B",
"_  c #664A38",
"`  c #6B4C3A",
"'  c #774631",
"]  c #7E4630",
"[  c #764833",
"{  c #7D4933",
"}  c #734D38",
"|  c #794B38",
" . c #74513E",
".. c #7A533F",
"X. c #4D4E42",
"o. c #4A4848",
"O. c #534A48",
"+. c #5D5A45",
"@. c #565648",
"#. c #545B48",
"$. c #58595A",
"%. c #684F43",
"&. c #605947",
"*. c #67554A",
"=. c #695A4F",
"-. c #675E51",
";. c #5F605F",
":. c #63624E",
">. c #676658",
",. c #6D6167",
"<. c #626A64",
"1. c #676C6D",
"2. c #746B65",
"3. c #747A6D",
"4. c #6C7474",
"5. c #717672",
"6. c #804731",
"7. c #814832",
"8. c #88523E",
"9. c #827368",
"0. c #81796F",
"q. c #8B796E",
"w. c #837B75",
"e. c #81757B",
"r. c #82897C",
"t. c #8A7B85",
"y. c #8F8489",
"u. c #918990",
"i. c #9C9094",
"p. c #9B9298",
"a. c #A0928C",
"s. c #A49798",
"d. c #A29B99",
"f. c #AB9D9A",
"g. c #A9A39D",
"h. c #AEA3A4",
"j. c #A7A0A8",
"k. c #AAA5A9",
"l. c #AEA8AB",
"z. c #B3A6AD",
"x. c #B6AEAB",
"c. c #B8ABB3",
"v. c #BEB3B8",
/* pixels */
"7.7.7.6.6.~ 6.6.6.7.7.7.7.7.6.7.7.7.7.7.6.6.6.6.] ] ] ~ ] ] 6.6.6.6.6.6.6.~ ~ ~ 6.6.6.] 6.6.6.7.7.7.6.7.7.7.7.7.6.~ ~ 6.",
"7.7.6.~ ~ ~ ~ ] 6.6.6.7.7.7.7.7.7.7.7.6.6.6.6.6.6.6.] ] J ] ] ] ] ~ 6.6.6.6.~ ~ ~ ~ ~ ~ ~ 6.6.6.7.7.7.7.6.7.7.6.6.~ ~ ~ ",
"6.7.6.~ ~ 6.7.] J 6.6.6.7.7.7.7.6.6.6.6.] ] 6.6.6.6.6.6.~ ~ J ~ ~ J ~ ~ ~ ~ ! ~ ~ ~ ~ ~ ~ 6.6.6.7.7.7.7.7.7.7.7.6.6.6.6.",
"] ] 6.] ] 6.7.6.6.6.6.6.7.6.7.7.6.6.] 6.] ] ] ] ] 6.6.6.] ] ~ ~ ~ ~ ~ ! ! ~ ~ ~ J J ~ ~ 6.7.7.6.7.7.7.7.7.7.7.7.7.7.7.7.",
"] ~ ! ~ ~ 6.6.6.7.7.7.7.7.7.7.7.6.J ] ~ 6.6.J J ~ ~ ] ] 6.6.6.7.6.6.~ ! ! ! ! ~ ~ ~ 6.6.6.6.6.6.6.6.6.6.7.6.7.7.6.6.6.7.",
"~ ~ J ! J ] 7.7.7.7.7.7.7.7.7.7.6.6.6.6.6.6.] ] ~ ~ J ~ ] ~ 6.6.6.6.6.~ ! ! ~ 6.6.] ~ 6.6.6.~ ~ 6.6.6.6.6.6.6.6.6.6.7.6.",
"J ~ ~ ~ ~ 6.7.7.7.7.7.7.7.7.6.7.6.7.7.7.6.6.6.6.] ~ ~ ~ ~ ] ] ] 6.6.] ~ ~ ! ] 6.6.~ ~ ~ ~ ~ ~ 6.~ 6.6.6.6.~ 6.~ ~ 6.] 6.",
"~ ] 6.7.7.6.7.7.6.6.7.7.7.6.6.6.6.7.7.7.6.6.6.6.6.6.] ] ~ ~ ~ ] ] ~ ~ ! ! ! ] 6.6.~ ~ ~ 6.6.6.6.6.6.~ ~ ~ ~ ~ ~ J ~ ~ ~ ",
"7.] ] ] 6.6.J J 6.6.6.6.6.6.6.6.6.6.6.6.6.~ ~ ~ ~ ~ ~ ~ J ! ! ! J ~ ~ ! ~ ! ~ ~ 6.J J 6.6.6.6.6.] ~ ~ ~ ~ J ~ J ~ ~ J ~ ",
"7.] ~ ~ 6.J 6.6.6.6.7.J ~ 6.~ 6.~ 6.~ ~ ~ ~ ~ ~ ~ J J ~ ~ ~ ! ! ~ ~ J ~ ! ! ! ! J J 6.~ J ~ ] 6.6.~ ~ ~ ~ ~ ~ ~ ~ ] 6.6.",
"7.] ~ ] 6.6.6.6.6.6.6.6.~ ~ ~ ~ ~ ~ ! ! ~ ~ ~ ~ ~ ~ ~ ~ ~ ~ ! ~ ~ J J ~ ! ! ~ ! ~ 6.6.6.6.6.6.6.6.6.6.6.6.6.6.6.6.6.6.6.",
"8.7.6.] 6.6.6.6.6.6.~ J ~ ~ J J ! ~ ~ ~ ~ ~ 6.6.6.6.6.6.6.6.6.~ ~ ] ] ] ~ ~ ~ ] 6.6.6.6.J 6.6.6.6.6.6.6.7.7.7.7.7.7.7.7.",
"7.7.6.6.6.6.J 6.6.J J ] J ] J ~ ~ ~ ~ 6.6.6.6.6.6.6.6.6.6.6.6.6.] ] J ~ ] 6.] ] 6.6.6.J ' ] ] J ~ 6.6.6.6.6.6.7.6.7.6.6.",
"~ ' ~ 6.6.6.6.6.7.7.6.6.] ] 6.6.~ 6.6.6.6.6.6.~ 6.6.6.~ 6.6.6.6.6.6.6.] ~ ~ ~ ] 6.6.6.6.] 6.6.6.] ] 6.6.7.7.6.6.6.6.~ 6.",
"~ J J J J ~ ~ J 6.7.7.6.6.6.6.6.6.6.6.6.~ ~ ~ ~ 6.6.~ ~ ~ ~ 6.6.6.6.6.6.6.6.6.] 6.6.] J ] 6.7.7.6.6.6.7.7.6.6.6.~ ~ ~ ~ ",
"] ] ] ~ ~ ~ 6.6.6.6.7.7.6.6.6.6.6.6.6.6.~ 6.6.6.6.6.6.~ ~ ! ! ~ ] J ] J ] ~ ] ] J J ] J ' 6.7.7.6.6.6.6.7.6.6.~ ~ ~ J ~ ",
"7.7.7.6.7.6.6.6.7.7.7.7.6.~ 6.6.6.~ 6.6.6.6.6.~ 6.6.6.6.6.~ ~ ~ ~ ! ! J ~ ~ ! ! ! ~ J ~ ~ 6.7.7.7.7.7.7.7.6.6.6.6.6.~ 6.",
"7.6.7.7.7.7.6.7.6.7.7.6.6.6.J ~ ~ 6.6.6.6.6.~ ~ ~ ~ 6.~ 6.6.6.] { ~ ! ~ ~ J ~ ~ ~ ~ 6.6.7.7.7.7.7.7.7.7.7.7.7.7.6.6.6.6.",
"7.7.7.7.7.7.7.7.7.7.6.6.6.6.6.J 6.6.6.6.6.6.~ ~ ~ J ~ ~ ] ~ ] 6.7.7.~ ! ~ ~ ~ 7.6.6.6.6.6.6.] ] 6.7.7.7.7.6.6.6.6.6.7.7.",
"7.7.6.7.7.7.7.7.7.7.6.6.6.6.6.6.6.6.6.6.6.6.6.6.~ ~ ~ ~ ~ ~ ~ ~ ] 7.7.~ J ~ ~ 7.6.~ ~ ~ ~ ~ ~ ] 6.7.6.6.6.7.6.6.6.6.7.7.",
"6.6.6.6.7.7.7.6.7.6.6.7.6.6.6.6.6.6.6.~ 6.6.6.7.7.~ ] ~ J ~ J ~ ! ! ~ ! ~ ! ~ 7.6.~ ~ ~ 6.6.6.6.7.6.6.~ ~ 6.6.6.6.6.6.6.",
"6.6.6.6.7.6.7.6.6.6.6.6.6.6.6.6.6.6.6.~ 6.6.6.6.7.7.7.] ~ ~ ~ ~ ! ! ~ ~ ! ~ ~ ~ ~ ~ ~ 6.6.6.6.6.6.6.! ~ 6.~ ~ 6.6.6.7.7.",
"6.7.6.7.6.6.6.~ ~ J 6.6.6.6.6.6.6.6.6.6.6.6.6.6.7.7.7.] 6.J J ~ ! ! ! ! 7.7.7.7.6.~ ~ ~ ~ ~ ] 6.6.6.~ 6.6.6.6.6.6.6.6.7.",
"7.7.7.7.6.6.6.6.6.6.6.6.6.6.6.6.6.6.6.6.6.6.6.6.7.7.~ H F F J J ! Q W L ! ~ 7.] 6.6.6.6.] 6.6.] ~ ~ ~ 6.6.6.6.6.6.6.7.7.",
"7.7.6.6.6.7.7.6.6.6.7.6.7.7.6.6.7.6.7.6.~ 6.7.7.7.' W P P E R G ^ R I P T W ! { 6.6.6.6.6.~ ~ ~ ~ J ~ ~ 6.6.7.7.6.6.6.7.",
"7.7.6.6.6.7.7.6.6.6.7.7.7.6.6.6.6.6.6.6.7.7.7.~ ] L I >.0.2.O.c U ,.w.w.#.E W ! J J J J J ~ J J ! ~ J ! 6.6.7.7.6.6.6.7.",
"6.6.6.6.6.6.7.7.6.6.6.6.6.6.~ 6.~ ~ ! J ~ ~ ~ ~ Q K Y 9.a.s.y.,.e.i.h.g.3.+./ ! 6.J ~ ~ ~ J ~ ~ ~ 6.6.6.7.6.7.7.6.6.6.6.",
"6.6.6.~ 6.6.6.6.6.6.6.] 6.J ~ J ~ ~ ~ ! ! ~ ! ! Q K X.q.f.c.z.t.s.c.v.x.r.:./ { 6.6.J ~ J 6.6.6.6.6.6.6.6.6.6.6.6.6.6.6.",
"6.6.6.6.6.6.J 6.6.] J ~ J J 6.J J ~ J ~ ~ ~ ! ! Q K I 3.d.l.p.,.u.j.k.d.3.&.Q 6.6.6.J J ~ ~ 7.6.~ ~ 6.~ ~ ~ ~ ~ 6.6.6.~ ",
"6.~ J ~ J J J J J J ~ ~ 6.6.J 6.6.6.~ 6.6.~ ~ ~ ~ W E ;.5.5.;.o.$.1.4.<.@._ ] 6.6.6.J 6.~ 6.7.6.~ ~ ~ ~ 6.6.6.6.6.6.6.6.",
"~ ~ J ~ ~ J 6.J J 6.~ ~ 6.6.J J J 6.~ 6.~ ~ ~ ~ ] ' ( ) =.>.*.) %.=.-.&.` ' 7.7.6.6.6.~ ~ 6.6.6.6.6.6.6.6.6.6.6.6.~ ~ ~ ",
"~ ~ ~ ~ 6.~ 6.6.6.6.6.6.6.6.6.6.6.J ~ J ~ ! ~ ~ ~ ! ! [ } %. .[ | .. .} { { 7.6.6.6.6.6.6.6.7.6.6.6.7.7.6.6.6.~ ~ ~ J ~ ",
"6.6.~ 6.6.~ ~ 6.6.6.~ ~ 6.6.6.6.7.~ ~ ~ ~ ~ ! J ~ ~ ! ~ ~ ' ] { { 7.7.7.7.7.7.7.7.7.7.7.7.7.7.7.6.6.6.6.6.6.6.6.6.6.6.J ",
"6.~ ~ ~ ~ ~ ~ ~ ~ ~ ~ J J ~ ] 6.7.7.7.7.7.] ~ ! ~ J ~ ] 6.{ { { 7.7.{ 7.6.7.7.6.6.6.7.7.7.7.7.7.6.6.6.6.6.~ 6.6.J ~ 6.6.",
"~ ~ ~ J ~ J J ~ ~ 6.6.~ ~ J J ] ~ ~ 6.7.7.7.~ ! ! ! 6.6.] ] ] ] ] ~ ' ] ] 6.6.6.~ ~ 7.7.6.6.7.6.6.6.J ~ J ~ J J ~ ~ J J ",
"~ J ~ ~ ~ ~ ~ ~ 6.7.6.6.6.] ] ] ~ 6.~ ~ 7.7.~ ~ ! ] 6.6.' D C W J ] ] ] 6.6.~ 6.7.] ~ ~ ~ 6.~ ~ J ~ ~ J J ~ 6.J J J ~ ~ ",
"J ~ ~ 6.6.6.6.6.6.6.] ] 6.6.6.6.7.7.7.6.7.6.~ ~ ~ ~ ] ] W u 4 B Q ] { 6.6.] 6.~ ~ J J ~ ~ ~ J ~ ! ! J ~ ~ ~ ~ ~ ~ ~ 6.~ ",
"~ ~ 6.6.6.~ 6.~ ] ~ ~ ] ] 6.] 6.~ 6.7.6.6.6.6.6.] J ! G u 3 + e B G ! ] ~ ~ J ~ ~ ~ ~ ~ ~ ! J ~ ~ ~ ~ ~ ~ ~ ~ 6.6.6.6.6.",
"J ~ 6.6.~ ~ J ~ J 6.6.6.6.6.6.6.~ ~ ~ ~ ~ ~ ~ ~ J J J C 6 X o & = r b F ! J ~ J J 6.~ J ~ ~ 6.~ ~ 6.~ 7.~ 7.7.7.6.6.6.6.",
"~ ~ 6.6.6.6.6.6.6.6.6.6.6.] 6.J ~ ~ ~ ! ~ ~ ! H H F C s & o # $ # % & b D J ! ~ J J ~ J ~ 6.6.6.7.7.7.7.7.7.7.7.6.6.6.7.",
"6.~ 6.7.7.7.] ] 6.6.6.6.J J 6.J J 6.J J 6.J H Z M a e e $ $ $ < 1 = = & b S J J 6.6.J 7.6.6.J 6.~ 7.7.7.7.7.7.7.6.6.7.7.",
"~ ~ ~ 7.] 7.~ ~ 6.6.6.6.6.6.~ 6.J ] 6.J J J M y - e z 1 $     , g 1 , $ O ; b Z J 6.6.6.7.7.6.6.7.7.7.7.7.7.7.~ ~ ~ 6.~ ",
"6.6.~ ~ ~ ~ ! ~ 6.6.6.6.6.6.6.6.' J H Z C b p 9 6 = , , , < < < 2 < $ $ o o - ; n F ~ ~ 6.6.7.7.7.7.7.7.7.7.6.~ ~ 6.~ 7.",
"~ ~ ! ~ ! ! ! ! ] 6.6.~ F D D F S C n p > 2 r 1 1 & $ < h j j j h , : : : : o o ; n D D J 6.6.7.7.7.7.7.7.7.6.~ 6.6.7.7.",
"~ ! ! J ! ! ! ! ! ! F C i 0 0 0 r 2 : 1 2 r r 2 : $ , h j j j 2 1 l r 1 g 1 g * # & 0 0 n S ! ] ~ ~ ~ ~ 7.7.7.7.7.7.7.7.",
"! ! ~ ~ ] { ! D C p @ + o + = 1 l = $ 1 , 1 2 2 1 2 h z h l r 2 1 , 1 1 * * g g 8 7 % X + e s A S S D Q ! ] 7.7.7.7.7.7.",
"! ! ~ D M m f q @ + . . % % % % # o % e e e t e 1 1 2 : : 1 e t e 9 8 & $ # % k k k 7 7 7 5 6 t q q w w m N H ! 6.7.6.6.",
"! ! ! m w q 9 + + + & 9 t e 8 & o O 9 e 0 t a 0 0 0 0 > 9 0 t a a a p t e % # 8 l 8 8 x x t t 9 3 3 3 4 q d M F ! 6.~ ~ ",
"! ! W m d d d d d m b f b m v s m m m m m m m m b b b m m m M M V V V M m s s v b s B v B B B m m m m d m d d M ~ 7.6.~ ",
"] ] ] ' ! ! ! Q ! ! ! ! ! ! ! ! ! ! ! ! ' ' ' ! J J ! ! ~ ! ! ] ' ' ! ! ' ! Q ' ~ ~ ! ! ! ' ! ! ! ! ! ! ! Q Q ! 6.6.6.7.",
"{ 7.7.7.~ ~ ] ] 7.6.7.7.{ 7.7.7.{ 7.7.7.7.7.7.~ ~ 6.6.6.6.6.6.6.] ] ~ ] ] ] ] 7.7.7.7.7.{ 7.7.7.{ 7.7.7.7.~ 7.7.7.6.~ 6.",
"7.7.] ! ~ ~ ~ ] 6.~ 6.7.7.7.7.7.{ 7.7.7.7.7.7.7.~ 6.6.6.6.6.6.6.' ~ ~ ~ ] ] ] ] 6.7.7.7.7.7.7.7.7.7.7.7.7.7.7.7.6.6.~ 6.",
"6.7.7.~ ~ 7.7.7.~ 6.~ 6.7.7.7.6.6.7.6.6.7.7.7.6.~ ~ ~ ~ ~ 6.6.6.6.' 7.7.{ ] ] ] 6.6.6.7.6.6.6.6.7.7.6.6.7.7.7.7.6.6.~ 6.",
"6.6.~ ~ ~ 7.7.7.6.6.7.7.7.6.7.6.~ ~ ~ ~ ~ 7.6.7.6.6.6.6.6.6.6.6.J ] ] 6.6.6.6.] 6.7.6.7.6.6.6.J ~ ~ ~ ~ ~ 7.7.7.6.6.~ 6.",
"~ ~ ! ! ~ 6.7.7.7.7.7.7.7.7.7.6.~ ~ ! ! ~ ~ ] ! 6.6.6.~ ~ ~ ~ J ~ J ] 6.7.7.6.7.7.7.7.7.7.6.6.6.6.6.7.7.6.7.7.7.6.6.6.6.",
"! ! ! ! ~ ~ 7.7.7.7.7.6.7.~ 6.7.6.6.~ ~ ! ~ ! ~ J ~ J ~ ~ J ! ! J 6.~ 7.7.7.7.7.7.7.7.7.7.7.6.6.7.7.7.7.7.7.7.7.6.6.6.6.",
"~ ! ~ ~ ~ 7.7.7.7.7.6.~ ~ ! ~ ~ 6.6.6.6.] ~ ~ ~ ~ ! ! ! ! ~ ! ~ 6.6.6.7.6.6.6.6.6.6.7.7.6.6.6.7.7.7.7.7.6.6.6.6.6.6.6.6.",
"7.7.7.7.7.7.7.7.7.7.7.6.~ ! ~ ! ~ 6.6.6.6.6.7.7.~ ! ! ! ~ 6.7.7.6.6.6.6.6.6.6.6.6.6.6.6.6.6.6.7.7.7.6.6.6.6.~ ~ ~ ~ ~ ~ ",
"7.6.! ~ ~ ~ ~ ~ ~ ~ ~ 6.~ ~ ~ ~ ! ! ~ ~ ~ 6.6.6.~ ! ! ! 7.7.6.~ 6.6.] J J ] 6.6.6.6.6.6.6.6.6.6.6.6.~ ~ ~ J ~ J ~ ~ ! J ",
"6.~ ~ ! ~ ~ ~ 6.7.7.7.6.7.6.~ ! ! ~ ~ ~ ~ ~ ~ ] 6.! ! ~ 6.7.~ ! J J ~ 6.6.6.6.7.6.6.6.~ 6.J 6.J ~ ~ ~ ~ ~ J ~ ~ J J ~ ~ "
};
