/* XPM */
static char *result[] = {
/* columns rows colors chars-per-pixel */
"60 60 247 2 ",
"   c #020500",
".  c #0A0C01",
"X  c #0D1402",
"o  c #131403",
"O  c #191908",
"+  c #1D1C17",
"@  c #261C03",
"#  c #211D0C",
"$  c #172909",
"%  c #262707",
"&  c #312903",
"*  c #2F320E",
"=  c #35380A",
"-  c #282915",
";  c #362B18",
":  c #393717",
">  c #312E2A",
",  c #3C3824",
"<  c #463A0B",
"1  c #43391A",
"2  c #543E1A",
"3  c #473B25",
"4  c #5A3E28",
"5  c #4F3D30",
"6  c #3C450C",
"7  c #3B4216",
"8  c #4A450A",
"9  c #48500F",
"0  c #56530C",
"q  c #464616",
"w  c #57461C",
"e  c #5B551A",
"r  c #565818",
"t  c #605F0B",
"y  c #65491D",
"u  c #655C1E",
"i  c #5D6515",
"p  c #6B670E",
"a  c #676818",
"s  c #787816",
"d  c #494726",
"f  c #5A4728",
"g  c #5C432C",
"h  c #4D552D",
"j  c #59562A",
"k  c #5A4A35",
"l  c #555433",
"z  c #68462B",
"x  c #77412D",
"c  c #7A432E",
"v  c #74492D",
"b  c #685A28",
"n  c #77572D",
"m  c #624B34",
"M  c #6A4831",
"N  c #744630",
"B  c #7E4630",
"V  c #744A33",
"C  c #7D4A33",
"Z  c #7C4E38",
"A  c #675838",
"S  c #7C533B",
"D  c #7B5538",
"F  c #5E6A34",
"G  c #67672C",
"H  c #716726",
"J  c #6E7429",
"K  c #747522",
"L  c #696739",
"P  c #786939",
"I  c #777B35",
"U  c #55564B",
"Y  c #755A45",
"T  c #645E57",
"R  c #5A624C",
"E  c #756648",
"W  c #6B714D",
"Q  c #66665A",
"!  c #7C6950",
"~  c #706F63",
"^  c #79756A",
"/  c #817E18",
"(  c #804731",
")  c #814832",
"_  c #845236",
"`  c #865539",
"'  c #875838",
"]  c #865A3A",
"[  c #8B5C3B",
"{  c #827A27",
"}  c #84663B",
"|  c #8D623C",
" . c #92663B",
".. c #827A39",
"X. c #99783F",
"o. c #865F40",
"O. c #8C6341",
"+. c #896844",
"@. c #946D43",
"#. c #8B7749",
"$. c #937345",
"%. c #977747",
"&. c #997B4D",
"*. c #836954",
"=. c #867854",
"-. c #977C52",
";. c #9B7C52",
":. c #7D863B",
">. c #7A8B4C",
",. c #8C891C",
"<. c #ACA71F",
"1. c #878729",
"2. c #908D2D",
"3. c #9A9729",
"4. c #88863B",
"5. c #8C9439",
"6. c #989738",
"7. c #A7933A",
"8. c #A1A22E",
"9. c #AAA437",
"0. c #BAB734",
"q. c #8A8949",
"w. c #9A8549",
"e. c #8D924A",
"r. c #9B9943",
"t. c #8A8758",
"y. c #9C8554",
"u. c #9B8A57",
"i. c #9B9759",
"p. c #A58749",
"a. c #A8974B",
"s. c #B29746",
"d. c #A48C53",
"f. c #A18C5B",
"g. c #A79858",
"h. c #BC9E56",
"j. c #9CA347",
"k. c #8DA150",
"l. c #9DA156",
"z. c #A9A84B",
"x. c #B5A74A",
"c. c #B9B647",
"v. c #AAA556",
"b. c #B6A855",
"n. c #ACB453",
"m. c #BBB85A",
"M. c #928D6D",
"N. c #A59A65",
"B. c #B29E65",
"V. c #9DA769",
"C. c #AAA766",
"Z. c #B3A865",
"A. c #A4BA6A",
"S. c #B6B363",
"D. c #BBBA67",
"F. c #A9A877",
"G. c #B9B478",
"H. c #C8B74D",
"J. c #C7AC58",
"K. c #C7BA58",
"L. c #C8BA66",
"P. c #C0BF73",
"I. c #BBC34D",
"U. c #B9C55A",
"Y. c #B3CC73",
"T. c #BAC778",
"R. c #CBC44A",
"E. c #D0D24E",
"W. c #CBC353",
"Q. c #C8C759",
"!. c #D5C757",
"~. c #D5D457",
"^. c #D9E44A",
"/. c #D8E759",
"(. c #E1E75D",
"). c #C8C866",
"_. c #C5C36E",
"`. c #D4C767",
"'. c #C9D669",
"]. c #D7D668",
"[. c #C7C977",
"{. c #CDCC7B",
"}. c #D3CA72",
"|. c #C9D777",
" X c #D7D678",
".X c #E2DB78",
"XX c #CEE066",
"oX c #DAEC64",
"OX c #D7E868",
"+X c #CCE77A",
"@X c #D7E777",
"#X c #D6F179",
"$X c #E3E669",
"%X c #E3E577",
"&X c #E4F170",
"*X c #B2B391",
"=X c #C4BCA8",
"-X c #BCC883",
";X c #C5CB87",
":X c #CCCE8E",
">X c #D9D784",
",X c #DBD898",
"<X c #E2DB87",
"1X c #E3DE97",
"2X c #CDE886",
"3X c #D9E987",
"4X c #DBE395",
"5X c #D3F090",
"6X c #E6E787",
"7X c #E4E38B",
"8X c #E6E594",
"9X c #E4E39D",
"0X c #EAE598",
"qX c #D8D5AB",
"wX c #E3DEA7",
"eX c #E4DCB4",
"rX c #DDE4A4",
"tX c #D7F4A2",
"yX c #E6E5A7",
"uX c #EDE5AD",
"iX c #ECE9AE",
"pX c #F1EFA4",
"aX c #E4E3B3",
"sX c #EBE6B5",
"dX c #E6E6BC",
"fX c #EBE6BB",
"gX c #F2E6B8",
"hX c #DFDFDA",
"jX c #EADFDA",
"kX c #ECE5C4",
"lX c #E6E8C7",
"zX c #E4E5CB",
"xX c #ECE5CC",
"cX c #E5E4D3",
"vX c #EBE4D5",
"bX c #E9E9D6",
"nX c #E5E4DD",
"mX c #EAE3DB",
"MX c #F1E3D2",
"NX c #E9DDE3",
"BX c #EBDEEB",
"VX c #EFDEEF",
"CX c #E6E4E3",
"ZX c #EAE3E4",
"AX c #E8E4E7",
"SX c #EBE2EB",
"DX c #F1E3F0",
/* pixels */
") ) ) ) c ( ( ) ( ( ( ) ) ) ) ) ( ) ( ) ) ) ) ( c ( ( c ( ( ( ( ) ) ) ) c c c c ( ( ( ( ( ( ( ) ) ) ( ( ) ( ) ) ( c c c ",
") ) ) B c c c c ( ( ( ( ) ) ) ( ) ) ) ) ) ) ) ( ) ( c c c c c c c ( ) ( ) ) ( ( c c x x c ( ( ) ) ( ) ) ) ) ) ( ( c c ( ",
") ) ) c c ( ( ( c c ( ( ) ) ) ) ( ( ( ( ) ( ( ( ( ( ( c x c c c x x x c c x x x x x x x c B ) ) ) ) ) ) ) ) ( ) ( ( ( ( ",
"c ) B c c ( ) ) ( ( ( ( ) ) ) ) ( ( c ( c c c c ( ( ( ( ( ( c c c x x x x x x x x x x c B ) ) ( ) ( ) ( ) ( ) ) ) ) ) ( ",
"B c x x c ( ) ) ) ) ( ) ) ( ) ) ( c c c ( ( c c c c c c ( ) ) ) ) Z c x x x c B c ( ( ( ( ( ( ( ) ) ) ` ) ) ) ) ( ( ( ( ",
"x x x x x c ( ) ) ) ) ) ) ) ) ) ( ( ( ( ( ( c c c c c c c c ( ) ) ) ) c x x B ) ( c c ( ( ( c B B _ @.i.` ( ( ( ( ( ( ( ",
"x x c c c ) ) ( ) ) ) ) ) ) ) ) ( ( ) ) ( ( ( ( c ( ( Y Z c Z B B ) Z x x C ` ` ( c x x c c c ( #.g.l.#.) B ( c c ( ( c ",
"c ( ) ( ( ( ( ( ( ( ) ) ) ( ) ) ( ( ) ) ( ( ( ) o.Y Y *.! ! ! _ ) Y S C N O.-.$.( ( c ( c ( ) %.N.i.&.) B x x c x x c x ",
"( ) B B B B c c B B B B B c ( ( ) B B B B B c Z Y U Q ^ ^ T U T Y Y l V C y.N.;.c c c c B ) +.N.u.o.x x x x x x x x c c ",
"( B x x c c c B B B ) ) ' ' ( c c B B B c c c _ Y d R Q U + > T U k k Z o.b.f.| x c c c C O.V.i.o.C B x x x c c c c ( ( ",
") B B B B ( ( ( ( ( ) @.a.a.' c c c x x c C Z *.=.U ~ Q > + + T ^ Q A E g.D.d.C x c ) ( +.g.g.[ ) ) B B ( ( ( ( ( ( ( ( ",
"` ) ( ( ( ( ( ( B B N _ w.n.a.) x x x c S +.*.! Q M.-X*X^ T ~ *X=X*Xt.r I I n B c ( ) c $.D.d.' ) ) ) ) ) ( ) ) ( ( ( ( ",
"( ( ( ( ( ( c c B B x x ` %.w.%.| C B C Y A l d l F.;X:X=X*X^ =XqXqXF.L 6 q y B ( ) c c $.m.y.) B B B ) ) ) ( ) ( ( ( ( ",
"c c c c ( ( B B ( ) ) B B ) ] w.a.&.| ] +.l - O 7 r.D.;X*X=.N.*X=X:XF.P = 9 H ' ( ( ( ( $.S.&.` c B B ) ) ( ) ( ( ( ( ( ",
"c x x x x c c c B ) ) ) ( ( ) ' v.U.v. .P d # . $ a U.G.u.G w.D.D.D.j.i a 2.r.+.) c c C &.Z.&.` ) ) B ) ) ( ( ( ( x x c ",
"B B c x x c c B B ) ) ) ( ( ) ) | z.Q.z.d % % O o * C.v.G q 3.3.s s / s n.c.7.} c c V @.f.N.` ) ) ) ) ) ) ( B c c x x x ",
") ( ) ( ) ) ( ( ) ( ) ) ) c B c ) x.Q.j.% % F F o # N.[.v.2.c.0.9.,.,.H.~.2.H n c ] g.C.y.` ) ) ) ) ) ) ( ( ( ( ( B c c ",
") ( ) ( ) ( ) ( ) ) ) ( ) c c c c } 6.2.& & t.C.G * e.{.'.Q.].].).K.W.].K.e < y ' a.d.-.O.( ) ) ( ) ) ) O.` ( ( ( ( ( ( ",
") ( ( ( ( ) ) ) ) ) ) ) ) ( c c ) e 0 H u = 4._.b.0 K K.%X%X6X7X1X1X7X X2.= @ 2 X.D.$.) ) ( c ( ) ) `  .;.O.( ( ) ) ( ) ",
") ) ( ) ) ) ) ( ) ( ) ) ) ) B B ] w & 0 6.a { m. X1.s n.<X8XyXuXgXuX0XU.0 O @ e 9.x.%._ c B ( _ [  .%.d.d.O.( ( ) ( ) ) ",
"( ( ) ( ) ( ) ) ) ) ) ) ) ) ) _ #.K 0 t s 9.z.P.6X].Q. X9XgXkXxXkXsX>Xr.= @ e 6.c.x.c.X.` ` | s.h.H.m.p.o.( ( B ) ( ) ) ",
"( ( ) ) ) ) ) ( c ) ( ( B B ) _ u t s c.c.'. X8XpX6X3X9XsXxXvXvXkXwX{.6.s 1.8.,./ 9.R.p. .%.x.W.H.s. ._ B B B B ( ( ( ) ",
"( ) ) ( ) ( ) ( c c c c B _ | i.1.p ,.Q.]. XyXsXkXsXaXlXbXmXmXvXfXwX_.6.c.R.0.<.<.<.E.K.J.K.K.W.a. .B B ) ( B B B B ) ) ",
") ) ) ) ) ) ) ( c c ( ) C ' $.v.5.1.z.'.6X9XaXbXbXcXbXCXZXAXmXvXdX1X X_.6X X!.R.R.0.R.`.`.~.x.p.' B c B ( ) ( ( ( ) ( ) ",
") ) ) ( ( ( ( ( ) ) ) ) _ O.$.:.G 4.Z.[.<XpXkXjXZXSXSXSXAXAXCXcXdXrXqXsXiX1X8X6X$X~.`.}.`.b.X.C c x c c c ( ) ) ) ) ) ) ",
"( ) ) ( ( ( ) ( ) ) ) ) O.&.y.L - % 9 4. X0XgXjXBXDXBXAXAXCXCXnXbXzXzXjXvXMXfXiX0X4X>X}.S.$.C x x x c c ( ( ) ) ( ) ) ( ",
"( ( ( ( ( ( ) ) ) ) ) &.B.G.F.L 6 q i 1.`.<XgXMXNXVXBXBXCXCXCXnXnXnXZXBXDXxXeXsXyX,XY.e.} Z c c c c ( ( ) ( ) ) ( ( ( ( ",
"c ( c ( ( ( ( ( ) _ O.F.:X;Xl.l.j.z.n.H.$X$X0XkXZXNXSXZXCXCXCXhXCXZXNXjXMXpX6X%X@X|.i.j : z C B ( ( ( ( ( B ( ( ( ( ( ( ",
") ) ( c c c c x c C | N.G.V.F J j.I.oX/.^.(.7XaXbXmXAXAXCXCXCXhXZXZXmXvXeX6X$X~.OX+Xv.d % & z v v x c c c c c c B B B B ",
"c c c x x x x x x C ] -.u.L $ = 1.E.oX/.^./. XyXlXnXCXAXCXCXCXAXZXCXZXvXeX<XOX/./.&X).:.q 1 f y w z z c B ( ) ) ) ( ( B ",
"c c c x c c x x B V O.#.#.F 7 i I.oX/.^.^./.3XrXlXnXCXnXmXCXCXAXCXmXmXbXeXsX3XOX/././.U.6...H < = = 3 x ) ) ( ( B c c x ",
"c c c c c ( c c _ D E L G G 5.U./.oXoXoX(.&X6XrXlXnXAXCXCXCXZXCXSXZXcXcXfXuX6X#X/./.OXU.5.9 # o o . # f B ) c c x c x x ",
"( c ( ( c B c V b w L E e.l.n.+X#X#XoXoX&X&X8XaXcXZXBXBXZXCXSXZXDXmXbXfXyX3X%XOXOX@X5XY.R X .       o 4 B ) B B B B B c ",
"c ( c c x x c M A b q 7 d j I '.+X+XXXoX$X%X1XaXvXDXVXBXZXZXZXZXZXjXlXyX3X@XOXOXOX#XtX-XU .         O 5 x B c c c c c B ",
"c c x x x x x g d d O X o & r A.Y.+X2X2X].<X1XkXvXVXVXBXAXZXCXnXvXeX,XT.@X@XoXoXoX#X2XA.h O $ X   X - g x x x x x x x x ",
"x x x x x x x 2 % o O O & < u >.>.A.5X5X@X8XsXkXjXNXBXSXAXCXZXbXfX1XU.j.'.@XOXoX/.XX'.5.r : A : O - d V x x x x x x x x ",
"x x c ( ( ( B z 3 : d 7 w q & O $ >.5X2X3X8XiXkXMXNXZXZXZXnXnXzXfX1X{.}.6X&X&XoXXXXXj.J r L N.t.W E L D c c c x x c c c ",
"x c ( ( ( c B M 3 # - 3 l d X . $ >.2X2X5X4X4XeXxXmXCXCXnXnXcXbXkXfX1X>X X#X&X#X2XY.>.7 O ; *.Y S S S Z N B c ( ( ( ( ( ",
"x c ( ( c x x x 4 > , k A d X X = k.+X+X#X3X4XyXfXbXbXcXzXbXlXzXkXgXuX0X%XOXOX+X-X-X>.+   + Y V Z ) ) ) ( ( ( ( ( ) ) ) ",
"x c ( ( ( ( ( B M z m V S z = h :.Y.+X#XoX@X6X0XsXlXkXeXaXdXlXaXwX1X6X0X6XOXXXY.Y.*XQ +   O k Z ) ) ) ) ( ( ) ( ( ) ) ( ",
"c B ( B ( B B B ) ) ) c C n J r.U.|.5X#X/./.%X0XuXgXeX,X,XyXeXeX XQ.Q.}. X@X'.|.-XF.W -   O l N ) ) ) ) ) ) ) ( ( ( ( ( ",
"c c B B ( B B B ) ) ) ) B } e.K 6.|.3X@X/.~.!..X<X0X<X.X<X1X,X>X`.3.p 5.[.|.'.|.2XG.>.: X + l C ) ) ) ) ` ) ) ( ( c B c ",
"( B B B c x x c c ) ) ) Z b r 6 ! ).%X).c.9.3.9.L.`.`..X}. X.X}.!.{ & q W u.d.Z.;X|.C.P 8 8 P _ ) ) ` @.;.O.) ( c ( ( ( ",
"c c x x x x x x c ) ) ) C f 7 = e.{.{.r.e p 2.s.!.!.J.`.}.L.].].~.7.e & 7 A +.+.q.&.w.b 8 0 w.g.d.g.B.B.B.B.@.) ( ( ( ( ",
"x x x x x c c c B ) ( c B 4 * = V.G.t.e < y 7.H.!.J.s.J.L.J.J.h.K.!.6.2 % 1 k S C N B 2 & = w.Z.P.B.g.d.;.;.@.( ( ( ( ( ",
"x x c c B B ) B B c c c N 4 * * t.t.d = y c s.E.!.X.[ h.J.h.h.@.s.!.m.P 1 : 3 m M x x 1 o # Y f.B.;.) ) ( _ ) ) ( ( ( ( ",
"x c ( ( ) ( ( ( B ( B c x 4 - O : : = z ( ) s.~.H.) ( h.!.!.H. . .x.Q.%._ m , , g v x ; o - V _ _ ) ( ( ( ( ( ( ( ( ( ( ",
"x B ( ( ( ) ( ) ( ) ( ( N M 3 o o ; f ( ) ' 9.H. .( c X.H.E.!. .) w.).L.[ Y A , ; 4 M 3 - ; N C ) ( ( c ( c ( c ( ( ( c ",
"x B ( ) ) ) ( ) ( ( ( ( ( c 5 - ; 4 N ) ) O.b.g.( x c ` s.E.b.` ) @.g.).%.' C m 3 > 5 - + 3 C B ) ) B ) c c x c ( ( ( ( ",
"B B ( ( ( ( ( ) ( ( o.c ( ( x 4 4 N ) ( _ d.v.p.c c ( ( %.s.@._ ) ) $.b.b. .) Z m , - + - z B ) ) ) ) ) ) c c B ( ) ( ( ",
"( ( ( ( c B B ( ( ( ( ( ( ( ( Y Z ) ) ( ` b.d.o.B B ( ( ] O.) ( ) B _ p.).d.[ ) C g ; # 1 N B ) ) ) ) ) ) B B ) ( ( c ( ",
"( ( ( c c c c B B ( ( ( ( ( ( ( ( ( ( _ $.Z.%.( B B ( ( ) ( ) ( c c c ] b.Z.%.) B C m m N B ) ) ) ) ) ) ) ) ) ) ( ( c ( ",
"B B B B c ( ( ( ( ( ( ( ( ( ( ( ( ( ( ` f.f.O.B c c c B B B ( B B B ) ) [ C.-.B ( ( C C ( ( ( ( ( ) ( ) ) ) ) ) ( ( c ( ",
"( B B B B ( ) ( ( ( ( ( ( ( ( ( c x ( ( [ ` ) ( B ( B B B ( B B c c C ) ) [ ` B ( ( ( ) ( ( ( c x c c c c B ) ) ( ( c ( ",
"c c x x c B ( ) ) ( ( ( ( ) ( ( ( x x x x c B c c B B B c c x x x x c ) ) ) C ) ) ) ) ) ( ( B c ( ( ) ( ( ( ) ) ( ( c ( ",
"x x x x x B ) ) ) ( ( ( ( ( ( ( ( ( c c x x x x x x x x x x x c x x B ) ) ) ) ) ) ( ) ( ) ) ( ( ) ) ) ) ) ) ) ) ( ( ( ( ",
"x c c c ( ( ) ( ( ( ( ( c x c B ( ( ( ( c c c c x x x x x c x c c ( ( ) ( ( ( ( ( ) ) ) ) ( ) ( ) ( ) ) ( ( ( ( ( ( ( ( ",
"( ( ( ( ( ( ( ( ( ( ( B x x x c x ( ( ( ( ( ( ) c x x x B ( ( ( ( ( ( ( B ( ( ( ( ( ( ( ( ( ) ) ) ) ( ( c c ( c c c c c ",
"( c c B c c c c c ( B B c c x x x x x x c ( ( ( ( x x c ( ( ( c c c c c c c c ( B ( ( c ( ( ( ( ( ( ( x x x x x x x x x ",
"( c c x c B c ( ( ( ( ( ( ( c c c c c c c c c ( c x x c ( ( c c x c c B ( ( ) ( ( ( ( B c c c c c c x x x c x x x x x x "
};
