/* XPM */
static char *result[] = {
/* columns rows colors chars-per-pixel */
"60 60 150 2 ",
"   c #040403",
".  c #0B0404",
"X  c #050A04",
"o  c #0A0B06",
"O  c #0B060A",
"+  c #060D09",
"@  c #0C0C0B",
"#  c #180A07",
"$  c #120708",
"%  c #120D0C",
"&  c #1A0E0D",
"*  c #081206",
"=  c #07100D",
"-  c #0D120B",
";  c #0E1C0E",
":  c #13120E",
">  c #1A140C",
",  c #13190D",
"<  c #1C1A0D",
"1  c #120E11",
"2  c #0D1211",
"3  c #0F1815",
"4  c #141413",
"5  c #1A1514",
"6  c #151A12",
"7  c #1B1A14",
"8  c #1D1719",
"9  c #151A1A",
"0  c #1C1C1A",
"q  c #20160E",
"w  c #231A0F",
"e  c #201614",
"r  c #231B14",
"t  c #2A1D13",
"y  c #231D1C",
"u  c #2B1C1B",
"i  c #1A210F",
"p  c #1E2314",
"a  c #1C2D17",
"s  c #1D221A",
"d  c #192819",
"f  c #232314",
"g  c #2D2215",
"h  c #212D15",
"j  c #2C2A16",
"k  c #23231C",
"l  c #2C241A",
"z  c #222B1B",
"x  c #2C2C18",
"c  c #332316",
"v  c #3A2517",
"b  c #342B17",
"n  c #33251A",
"m  c #3C2619",
"M  c #342B1B",
"N  c #3C2B1B",
"B  c #34311C",
"V  c #3C311C",
"C  c #221E21",
"Z  c #1E2321",
"A  c #252223",
"S  c #2A2323",
"D  c #2E2C23",
"F  c #272629",
"G  c #2D272A",
"H  c #252E29",
"J  c #322422",
"K  c #352D24",
"L  c #3F2D20",
"P  c #302B2E",
"I  c #2A332B",
"U  c #373221",
"Y  c #3C3322",
"T  c #3E3824",
"R  c #323129",
"E  c #3B3429",
"W  c #313231",
"Q  c #343837",
"!  c #3B3B3E",
"~  c #422719",
"^  c #442D1D",
"/  c #4B2D1E",
"(  c #43321D",
")  c #4B321E",
"_  c #52311F",
"`  c #442E21",
"'  c #4C2F21",
"]  c #453122",
"[  c #4C3322",
"{  c #4D3924",
"}  c #4C3A2C",
"|  c #543423",
" . c #5B3624",
".. c #543A24",
"X. c #5C3A25",
"o. c #563628",
"O. c #593629",
"+. c #543929",
"@. c #5D3A29",
"#. c #4D3D30",
"$. c #613724",
"%. c #633B26",
"&. c #643C29",
"*. c #6B3E2A",
"=. c #713F2B",
"-. c #524131",
";. c #66402B",
":. c #6C402B",
">. c #76412D",
",. c #7A432E",
"<. c #7E4630",
"1. c #444245",
"2. c #454A46",
"3. c #47534B",
"4. c #4A574D",
"5. c #4D4C50",
"6. c #524D52",
"7. c #555554",
"8. c #545954",
"9. c #5A575B",
"0. c #595B5C",
"q. c #5E5E61",
"w. c #625F63",
"e. c #5F6962",
"r. c #727175",
"t. c #804731",
"y. c #814832",
"u. c #88523E",
"i. c #7F837F",
"p. c #7F7D82",
"a. c #828483",
"s. c #828886",
"d. c #908D8F",
"f. c #8E918F",
"g. c #8D8E90",
"h. c #939794",
"j. c #959D98",
"k. c #9B9B9E",
"l. c #A09EA3",
"z. c #9FA6A2",
"x. c #A1A1A5",
"c. c #A6A8A7",
"v. c #AAA7AB",
"b. c #ACACB0",
"n. c #B3B1B5",
"m. c #BBBBBE",
"M. c #C2C4C4",
"N. c #C8C7C9",
"B. c #C6C8C8",
"V. c #C8C8CA",
/* pixels */
"y.y.y.t.t.,.t.t.t.t.t.y.y.y.y.y.y.y.y.y.t.t.t.t.t.t.<.,.t.t.t.t.t.y.y.t.t.<.,.<.<.t.<.<.t.t.t.y.t.y.t.y.y.y.y.y.t.<.,.t.",
"y.y.t.,.,.,.,.t.<.t.t.t.y.t.y.y.y.t.y.y.t.t.y.y.t.t.,.,.,.,.,.,.t.t.t.t.t.t.<.<.,.,.,.,.,.t.t.t.y.y.y.y.y.y.y.t.t.<.,.,.",
"t.y.t.,.,.t.t.<.<.<.t.t.y.y.y.y.t.t.t.t.t.t.t.t.t.t.t.<.,.,.,.,.,.=.,.,.=.,.=.,.,.,.=.,.,.t.t.t.y.y.y.y.t.y.y.y.t.t.t.t.",
"<.<.t.<.<.t.t.t.t.t.t.t.y.y.y.t.t.t.,.t.,.<.,.,.t.t.t.t.t.,.,.,.,.,.=.,.,.,.,.,.=.=.,.,.t.y.t.t.y.y.y.y.y.y.y.y.t.t.t.t.",
"<.t.,.,.,.t.t.t.y.y.y.y.y.y.t.t.t.,.<.<.<.<.,.=.=.,.,.t.t.t.y.y.y.t.=.=.=.,.,.,.,.<.<.t.t.t.<.t.t.t.t.t.y.t.t.t.t.t.t.t.",
"=.=.=.>.=.<.y.t.t.y.y.y.y.y.t.t.t.t.t.t.t.t.<.,.,.,.,.,.,.<.t.t.y.y.y.<.,.=.,.y.t.<.<.<.t.<.<.,.t.t.t.t.t.t.t.t.t.t.t.t.",
"=.t.,.,.,.t.y.y.y.y.y.y.y.y.t.t.t.t.t.y.t.t.t.t.<.<.,.,.,.<.<.<.t.t.t.<.=.,.t.t.t.,.,.,.,.,.,.<.<.<.t.<.,.,.t.t.,.<.t.<.",
",.t.t.y.t.y.y.y.t.t.y.y.y.t.t.t.t.t.y.y.t.t.t.t.<.<.t.<.,.,.,.,.t.=.<.=.t.=.,.t.<.,.,.<.<.t.t.t.t.t.t.,.,.,.,.,.>.>.,.,.",
"y.t.<.<.t.<.<.<.<.<.<.t.<.<.<.t.t.t.t.t.t.t.,.>.,.,.,.=.<.=.,.,.,.>.,.,.,.=.,.,.,.,.,.,.<.y.y.y.<.,.,.,.=.,.,.=.,.,.,.,.",
"y.<.=.=.<.=.=.<.<.<.t.<.<.<.<.,.,.t.t.t.,.,.>.>.,.,.,.=.=.,.,.=.>.>.=.=.=.,.,.=.>.,.,.,.,.,.,.,.<.,.,.,.,.<.,.,.,.,.,.<.",
"y.t.t.t.t.t.t.t.t.<.<.<.,.,.,.,.=.,.,.=.,.>.>.,.,.=.,.=.=. .$.$.^ ~ X.:.,.=.,.,.,.,.t.t.y.y.y.<.t.t.t.t.t.t.t.t.t.t.t.t.",
"u.y.t.t.t.t.t.t.<.<.,.=.,.,.=.=.,.=.,.=.,.t.<.>.$.$.*.*.| n v c < < v O.=.%.*.,.,.t.t.,.,.,.<.y.t.t.t.t.y.y.y.t.t.t.t.t.",
"y.t.t.t.y.t.,.,.t.<.<.=.,.,.,.,.,.t.,.t.t.t.y.:.V h B U d 6 * X   X 6 E -.x ) >.,.y.,.,.,.<.<.<.,.t.t.t.t.t.t.t.t.y.t.t.",
"t.=.,.t.t.t.,.<.t.t.t.t.<.<.<.t.t.t.t.t.t.,.t.:.( ; ; I 4.3.H = + 2 Q 8.7.d M X.>.y.y.<.<.y.<.<.t.,.t.t.y.t.t.t.t.t.,.t.",
"=.=.,.,.=.,.,.,.<.t.t.t.<.t.t.t.t.t.t.t.>.*.%.) w * H e.j.z.s.0.! e.g.c.h.8.D g ) %.>.>.<.<.y.y.t.t.t.t.y.t.t.t.t.,.,.,.",
"y.t.,.=.,.<.<.<.t.t.t.t.t.t.t.t.t.t.t.t.,.*._ g * * 2.f.B.M.m.k.r.x.m.V.M.i.R * f N $.>.,.<.y.y.t.t.t.t.y.t.t.<.,.,.=.,.",
"y.t.t.t.t.y.t.t.t.y.y.y.t.,.<.,.t.t.t.t.,.%.N 7 - : 2.d.N.v.b.l.p.b.v.b.M.a.W X - < | ,.,.y.y.y.y.y.y.y.y.t.t.t.t.,.,.,.",
"y.y.y.y.y.y.y.y.y.y.y.y.t.,.,.>.=.t.t.t.>.[ g , @ 8 P w.v.n.l.r.1.p.v.n.k.9.A O : j X.<.y.y.y.y.y.y.y.y.y.y.y.y.y.t.t.t.",
"y.y.y.y.y.y.y.y.y.y.y.y.t.t.<.,.t.t.t.$.' ] l > % $ 1 G 6.w.7.! A 1.9.q.5.F 1 @ , w | ,.t.<.<.,.t.y.y.y.y.t.y.y.y.y.y.y.",
"y.y.y.y.y.y.y.y.y.y.y.y.y.t.<.<.t.t.=._ f Y l : o .   O 1 C C C C C A A C 1 O 4 7 - c X.,.,.<.<.t.y.t.t.t.y.y.t.y.y.y.y.",
"t.t.y.y.y.y.y.y.y.t.t.y.y.y.<.<.t.t._ b < R A 4       O 1 9 C C y S S G C 5 O @ 0 - < ^ ,.,.t.y.y.t.<.,.<.t.t.t.y.t.y.y.",
"t.,.y.y.y.y.y.t.t.t.t.t.t.<.:.:.t.>.) t p k 0 % O O = = 9 9 4 1 8 y S l C C 1 @ 4 - 7 ` >.t.t.y.t.<.,.,.,.<.,.<.t.t.y.y.",
"t.t.y.y.y.y.y.,.,.,.,.<.<.,.>.:.$._ c # 7 7 4 @ O 3 = 2 2 @     $ 5 & 5 C C 1 @ -   6 M  .>.,.<.t.<.,.t.t.t.t.,.<.t.t.y.",
"y.y.y.y.y.y.t.<.,.<.t.t.<.<.>.:._ ~ q o @ @ O X 2 9 2 = 3 Z 2     $ $ $ & 1 O O : X 7 M | :.:.:.,.,.,.t.t.t.t.t.t.t.y.y.",
"y.y.y.y.y.y.y.t.t.y.y.y.t.<.%._ $./ t #   O   @ 9 9 2 = Z 2.Z     . . . . O O 1 8 5 r J  .o.[ ) >.>.>.,.y.y.y.y.y.y.y.y.",
"y.y.y.y.y.y.y.y.t.y.y.y.<.:.*._ _  ./ w o @ 9 5 4 =   + 9 0 2     $ & & 1 . 1 8 C C & & v | [ [ $.:.>.,.y.y.y.y.y.y.y.y.",
"t.t.t.t.t.t.y.y.y.y.y.<.,.%.%.$._ v t > % 7 A Z 9 @     @ 4 @   $ y y C C 1 1 8 C u & # c $.| | _ ,.<.y.y.y.y.y.y.y.y.y.",
"t.,.t.,.,.t.t.t.t.t.t.,.>.:.%._ ~ > @ @ 4 0 A C 1 O     @ 5 % @ 5 S S S C 9 1 1 8 e $ # c  .&.@.:.:.,.y.y.<.<.<.t.t.t.t.",
"t.t.t.t.,.,.,.,.,.,.>.>.=.*.$.m > o - > : 0 y 5 @       9 9 1 % 0 y S A Z 9 + X 1 7 O o t [ &.*.;.) ;.,.,.,.,.,.<.t.<.,.",
"t.t.,.=.>.>.>.>.,.>.>.%._ | v w - % w w @ % : @       4 0 4 1 5 y y y C 0 0 @     7 - X < _ &.&.) V _ >.<.<.y.y.y.t.t.<.",
"=.=.=.,.>.>.>.,.,.>.>._ V b c g t v / ~ & @ @ @     2 9 0 @ @ 4 0 y 0 0 2 2 X o < ( ^ c g _ >.&.( b ;.<.t.y.y.t.,.,.,.,.",
",.t.,.,.t.,.t.,.y.y.>.X.( N N m ~ /  ./ > > 5 @     4 0 - 5 - @ 4 0 7 6 - + > f j :.>.&._ ;.>.%.V b X.,.t.y.<.,.,.>.>.>.",
"t.t.,.t.t.,.,.t.t.,.*.%.%.%.( ~  .^ _ / r n m r .   - 2 - S : o : % @ > n - n { ] :.<.<.<.:.>.;.N N  .>.<.<.,.,.t.<.,.,.",
"t.,.t.,.,.>.>.,.,.,.:.;.$.>.:._ ^ N %.%.n ~ ' ' e O     - Y r % n o o r ] r N &.:.<.y.y.<.<.:...T | *.>.,.<.>.>.,.,.t.,.",
"=.,.=.,.>.>.,.:.%.<.>.X.) :.>._ N / &.:.| ' O.' n 7 - + @ ^ r > m o o c ;.} @.:.;.:.<.<.t.<.;.( h b _ $.$.>.*.*.>.,.>.>.",
",.,.,.=.,.,.:.;._ :.;.) ( X.:.:.| &.>.>.&.o.o.[ M N 7 = @ ` f t ' t t / >.:.>.>.;.{ ;.<.<.,. .V b b _ $._ >.$._ =.>.>.>.",
",.=.,.t.t.t.;.......[ ] ^ V O.>.<.<.>.;.X.+.O.| K ' r + 7 [ ` ` >.o.@.*.:.>.>.;.{ V _ >.>.>.%._ $.%.:.*.$.%.$._ $.>.,.,.",
",.,.t.t.t.,.:.) T +.@.{ Y B | :.,.,.%.( N :.:.o.N o.m 7 l X.@.&.,.>.>.*.#.@.;.@.( X.>.>.>.>.:.%._ %.:.$.~ v _ %.>.,.t.t.",
",.,.t.t.,.=.*._ T ( @.@.U ] &.>.>.>.&.| | *.:.&. .*. .[ ' @.O.&.=.&.@.@.o.} +.@.;.:.>.>.>.;.X._ ;.:.;...) _ %.:.>.,.y.y.",
"=.,.t.t.t.,.=.$.] g ..@.B T .... .*.*.%.| o.o.&.*.*.=.=.*.:.;.&.X.] o.@.o.} +.&.:.>.>.:.;._ ) X.>.:.;._ ) X.;.:.>.<.y.t.",
"t.,.t.t.<.<.>.*.X.f ) X.V a h B V :.*._ ( ^ ^ [ @.O.>.<.<.<.,.&.L M [ O.' +.;.>.,.,.,.;.( B ( _ >.,.>._ x V ;.<.t.t.t.t.",
",.,.,.<.<.<.:.*.:.| &.>.X.x a B ) :.:.$. ...X.| X.*.>.<.>.:.&.( s - l n 7 Y O.>.<.<.>._ V b _ ;.:.>.,.,.:.:.,.y.=.t.t.=.",
"t.t.,.>.:.&.%.&.*.&.>.<.,.) B V ;.<.>.:.*.*.X.| [ [ [ | @.] g 7 s z k 7 7 r ^ *.>.>.>.:.;.;.>.>.;.) ) ) ) ) ) ) =.t.t.t.",
",.,.>.>.X.) ( ( [ ..:.,.<.:.) ;.<.>.;.X.X.*._ N t l l l v f - * 0 R z 0 k - c  .:.>.>.,.<.<.<.<.;.b a i h j B ( =.t.t.t.",
">.>.,.>.;.b h p i B ..,.<.<.<.<.<.%...) N | L 6 o f k 7 : f 4 4 s A Z k S % r ^ %.*.>.,.y.y.y.,._ x i i j ~ _ $.t.t.t.t.",
",.>.,.,.<...b a j ..>.,.>.,.<.<.,.>.&.) l N ` g X o 6 l R z 6 p R z 4 @ : % r ^ %.%.;.>.<.<.<.<.;.;.;._ %.>.,.,.t.t.y.y.",
",.,.,.y.<.>.;._ ;.>.<.,.,.,.>.>.,.X.[ M x M N t X - - 6 6 - y E #.U : o 4 8 r c v v v ( ..>.<.<.<.>.>.>.,.<.t.t.t.y.t.t.",
",.,.y.t.y.y.y.y.y.y.y.<.<.y.<.:.| v k s k y r 7 @ 6 4 X X : J #.#.U 7 - y C y r 5 r i f b { ;.<.y.<.<.<.<.,.t.,.t.y.t.=.",
">.,.y.y.y.y.y.y.t.y.y.y.y.t.=.| e 4 0 s 7 6 : : 8 C C & % C K K D 4 6 0 y S C u C u C e 5 : V :.,.<.<.y.<.>.>.<.t.t.t.t.",
",.t.y.y.t.t.y.y.t.t.y.t.y.t.$.` y y A k 7 5 8 8 e 8 C u e e y e 0 4 5 e r y u u u J J J y 7 x ) ;.>.<.y.<.<.>.<.y.t.t.y.",
"y.y.y.,.,.,.t.t.t.t.t.t.y.t.=.$.o.o.O.o.| ' | |  .O.O. .o.' | ' [ ' ' ' |  .$. .$.@.O.$.o.o.X.;.;.<.<.y.y.<.<.y.t.t.t.t.",
"y.y.y.,.,.,.,.,.t.t.t.t.y.y.t.,.,.<.<.<.<.<.<.,.=.,.,.<.<.<.<.<.>.>.>.>.=.<.=.<.=.t.t.t.,.<.,.<.<.<.y.y.y.y.y.y.t.t.=.t.",
"t.t.t.t.,.t.y.t.t.<.<.t.y.t.t.t.t.t.t.y.t.t.t.<.,.,.,.,.<.<.t.<.t.,.y.y.y.t.,.t.t.t.y.y.t.t.t.<.t.t.t.t.y.<.y.y.y.t.=.t.",
"t.t.,.,.t.y.y.y.t.t.t.t.y.t.t.t.,.,.,.t.<.t.t.t.t.t.<.<.<.t.<.<.=.,.t.y.y.y.t.t.t.y.y.y.t.t.<.,.,.,.<.<.<.<.y.y.y.t.t.t.",
",.=.=.,.,.t.y.y.y.y.t.t.y.t.t.t.,.=.=.,.=.t.<.<.,.<.<.,.,.,.,.,.,.,.t.y.y.y.y.y.y.y.y.y.t.t.t.<.<.<.y.y.<.y.y.y.y.t.t.y.",
",.=.,.=.,.,.y.y.y.y.t.t.t.t.t.t.y.y.t.=.t.=.=.=.,.=.,.,.,.=.=.,.,.=.=.y.y.y.y.y.y.y.y.t.t.t.t.t.y.y.y.y.y.y.y.y.y.t.t.y.",
",.<.=.t.t.y.y.y.y.t.y.,.<.=.<.<.y.t.t.t.t.,.,.=.,.=.,.,.,.=.,.<.t.t.t.y.t.t.t.t.t.t.y.y.t.t.t.y.t.y.y.y.y.t.t.y.y.t.t.t.",
"y.y.y.t.y.y.y.t.t.t.t.t.<.=.=.<.<.t.t.t.t.t.y.t.,.,.,.=.<.t.t.t.t.t.t.y.t.t.t.t.t.t.t.t.t.t.y.y.y.y.t.t.,.,.,.,.,.,.,.,.",
"t.t.=.t.,.,.,.=.,.,.,.t.<.=.,.=.=.<.=.<.,.t.t.t.<.,.,.,.t.t.t.,.<.<.t.=.=.<.<.t.<.<.t.<.<.<.t.t.t.t.<.,.,.>.>.>.,.>.>.>.",
"t.t.,.=.,.,.t.t.y.y.y.t.t.t.t.,.<.=.,.,.,.,.,.t.<.,.=.,.t.t.<.=.=.=.<.t.t.t.t.t.t.t.t.<.,.<.=.<.,.,.,.>.>.,.>.,.=.>.>.>."
};
