/* XPM */
static char *result[] = {
/* columns rows colors chars-per-pixel */
"60 60 140 2 ",
"   c #070506",
".  c #0C0506",
"X  c #090A06",
"o  c #0B0508",
"O  c #0C0C0C",
"+  c #130C0B",
"@  c #0D110D",
"#  c #0C190C",
"$  c #12120E",
"%  c #18140F",
"&  c #131B0B",
"*  c #191B0C",
"=  c #0F0F11",
"-  c #130F12",
";  c #0E1310",
":  c #131413",
">  c #1B1513",
",  c #151B14",
"<  c #1C1B14",
"1  c #161B19",
"2  c #1D1C1A",
"3  c #231D14",
"4  c #2C1F15",
"5  c #241D1C",
"6  c #291D1E",
"7  c #19250E",
"8  c #19280F",
"9  c #142411",
"0  c #1C2315",
"q  c #1C2813",
"w  c #17221A",
"e  c #1C241B",
"r  c #23220F",
"t  c #232215",
"y  c #2B2415",
"u  c #272B14",
"i  c #292813",
"p  c #23231B",
"a  c #2C241B",
"s  c #232B1C",
"d  c #2D291D",
"f  c #362615",
"g  c #332B15",
"h  c #34261A",
"j  c #3A271B",
"k  c #342C1A",
"l  c #3B2C1B",
"z  c #3C311C",
"x  c #261C20",
"c  c #2B1E20",
"v  c #212422",
"b  c #2A2422",
"n  c #2C2D23",
"m  c #282D29",
"M  c #332C23",
"N  c #342C2C",
"B  c #3C2F28",
"V  c #253023",
"C  c #343224",
"Z  c #3B3123",
"A  c #3D332C",
"S  c #3D3D2D",
"D  c #432C1D",
"F  c #4B2E1E",
"G  c #43321D",
"H  c #4B331E",
"J  c #51331E",
"K  c #4B2F21",
"L  c #443322",
"P  c #4B3322",
"I  c #463A26",
"U  c #4E3925",
"Y  c #4A3629",
"T  c #47382E",
"R  c #4A3D2A",
"E  c #543422",
"W  c #5A3623",
"Q  c #543A25",
"!  c #5C3925",
"~  c #553728",
"^  c #563A28",
"/  c #5B3B29",
"(  c #443E33",
")  c #4D3D31",
"_  c #553E36",
"`  c #513F3C",
"'  c #603725",
"]  c #633B26",
"[  c #653D29",
"{  c #6B3E2A",
"}  c #713F2B",
"|  c #59412D",
" . c #44423D",
".. c #5E4333",
"X. c #52423D",
"o. c #5C453B",
"O. c #664127",
"+. c #66412B",
"@. c #6D412C",
"#. c #76412D",
"$. c #7A432E",
"%. c #644434",
"&. c #694230",
"*. c #604739",
"=. c #734531",
"-. c #7E4630",
";. c #7E4832",
":. c #714A3F",
">. c #4C3C40",
",. c #494447",
"<. c #534944",
"1. c #554C4B",
"2. c #594D4C",
"3. c #5A544D",
"4. c #564C52",
"5. c #644E47",
"6. c #6C4D42",
"7. c #704C40",
"8. c #7C4F44",
"9. c #6F524F",
"0. c #7B544B",
"q. c #6E5B56",
"w. c #6B5C5D",
"e. c #6D605A",
"r. c #7F6259",
"t. c #786264",
"y. c #76696F",
"u. c #804731",
"i. c #814832",
"p. c #805E57",
"a. c #856B66",
"s. c #816D6C",
"d. c #8B6E6B",
"f. c #897273",
"g. c #85757A",
"h. c #8F7A7F",
"j. c #9C7E7A",
"k. c #988587",
"l. c #9B8688",
"z. c #A28889",
/* pixels */
"i.i.i.u.u.$.u.u.u.u.u.i.i.i.i.i.i.i.i.i.u.i.i.u.u.u.-.$.u.u.u.u.u.u.u.u.u.-.$.-.u.u.u.$.u.u.u.i.i.u.u.i.i.i.i.i.u.$.$.u.",
"i.i.u.$.$.$.$.-.u.u.u.u.i.i.i.i.i.i.i.i.u.u.i.i.u.u.$.$.$.$.$.-.u.u.u.u.u.u.u.-.$.$.$.$.$.u.u.u.i.i.i.i.i.i.i.u.u.$.$.$.",
"u.i.u.$.$.u.u.u.$.$.u.u.i.i.i.i.u.u.u.u.u.u.u.-.u.u.u.-.$.} $.$.} $.} -.} $.$.$.$.} $.} $.u.i.i.i.i.i.i.i.i.i.i.u.u.u.u.",
"-.-.u.-.-.u.u.u.u.u.u.u.i.i.i.i.u.-.-.-.$.$.$.$.-.u.u.u.u.-.$.$.-.} -.} $.} $.} $.$.$.$.u.i.i.i.i.i.i.i.i.i.i.i.i.i.i.i.",
"$.-.$.#.$.-.u.u.i.i.i.i.i.i.i.i.u.$.-.-.-.-.$.$.$.$.$.u.u.u.i.i.i.u.} -.-.} } -.$.-.u.u.u.u.u.u.u.u.u.u.i.u.u.u.i.i.i.i.",
"$.} #.#.$.$.i.i.i.i.i.i.i.i.i.i.u.u.u.u.u.u.$.$.} $.$.$.-.$.u.i.u.u.i.} } } -.i.u.$.$.u.u.-.$.$.u.u.u.u.u.u.u.u.u.u.u.u.",
"} $.$.$.$.-.i.i.i.i.i.i.i.i.u.i.u.u.u.i.u.u.u.u.u.$.$.$.$.$.-.-.u.u.i.} } -.-.i.u.$.$.$.$.$.$.-.u.-.u.-.u.$.-.-.$.u.u.$.",
"-.u.i.i.i.u.i.i.u.u.i.i.i.u.u.u.u.u.i.i.u.u.u.u.u.u.-.-.$.$.$.-.-.-.u.u.} } -.-.u.$.$.-.-.u.u.u.u.u.u.$.$.$.$.} } $.$.$.",
"u.-.-.-.u.-.$.$.$.-.u.u.u.-.-.u.u.u.u.u.u.u.$.$.$.$.$.$.} $.} u.#.#.#.} $.} $.$.u.} } -.-.-.u.-.$.$.$.} } $.$.} $.$.$.$.",
"u.-.#.$.$.$.$.-.-.-.u.-.-.$.-.$.$.$.u.u.$.$.} #.} $.} $.$.} } } #.#.#.-.} $.#.#.} } $.$.-.-.-.-.u.$.$.$.$.$.$.$.$.$.$.u.",
"i.-.-.-.-.u.u.u.u.-.-.-.-.$.$.} } $.} u.$.} $.$.$.$.} @.} $.u.} #.#.@.@.} @.#.#.u.$.u.u.-.-.-.-.u.u.u.u.u.u.u.u.u.u.u.u.",
"p.u.-.-.u.u.u.u.-.-.$.} } $.$.$.$.} $.} $.u.-.i.u.} ] / &.=.-.} [ [ ..%.../ @.-.u.u.-.-.-.} -.-.u.u.i.i.i.i.u.u.i.i.i.i.",
"u.u.u.u.u.u.$.$.u.-.$.$.$.} } $.$.u.$.u.u.u.u.i.#.Q M ( o.*.) T A C ,.2.<.C Q #.u.u.u.} -.-.-.-.-.u.u.u.u.u.u.u.i.i.u.i.",
"$.} $.$.u.u.-.-.u.u.u.u.u.u.-.u.i.u.u.u.u.-.u.$.=._ ( *.6.7.5.<.1.e.s.s.e. .R / u.u.u.u.-.-.-.-.u.$.u.u.i.i.u.u.u.u.u.$.",
"$.$.} $.$.$.$.$.-.u.u.u.u.u.u.u.i.i.i.u.$.$.$.-.#..._ 7.8.p.p.w.y.k.z.j.a.3.S Q u.u.} u.-.-.i.i.u.u.u.i.i.u.u.u.$.$.$.$.",
"u.$.$.$.$.$.$.$.u.u.u.u.u.u.u.u.u.u.u.u.$.-.u.=.=.%.>.:.8.p.p.t.g.l.h.d.r.3.n j } $.} } -.;.i.i.u.u.i.i.i.u.u.-.$.$.} $.",
"i.u.u.u.u.u.u.u.u.i.i.u.u.u.u.$.$.$.u.u.u.u.u.u.} &.X.6.0.0.9.>.4.g.f.a.q.,.n L #.#.} $.$.u.i.i.i.i.i.u.i.u.u.u.u.$.$.$.",
"i.i.i.i.i.i.i.i.i.i.i.i.u.$.$.} $.u.i.i.u.u.} $.=.} _ 6.o._ ` N N ,.2.1.S m k ~ #.-.-.u.i.u.i.i.i.i.i.i.i.i.u.i.i.u.u.u.",
"i.i.i.i.i.i.i.i.i.i.u.i.u.u.u.$.u.u.i.u.u.u.u.} } } =.=.Y M B N 5 : v v v 1 L =.i.i.u.u.u.-.-.-.u.u.i.i.i.i.u.u.i.i.i.i.",
"i.i.i.i.i.i.i.i.i.i.u.u.u.u.u.u.u.u.u.u.u.u.u.u.-.} } } [ / [ ~ Z d M e e L @.-.u.} $.-.$.$.-.-.i.i.u.u.u.i.u.u.i.i.i.i.",
"u.u.u.u.i.i.i.i.i.u.u.i.u.i.i.i.u.u.i.$.u.i.i.u.-.-.-.$.} } } ~ U U U L L / @.;.u.-.$.-.-.u.u.u.i.u.u.$.$.u.u.u.i.u.i.i.",
"u.u.u.u.u.i.i.u.u.u.u.u.u.u.u.i.i.i.i.} u.u.i.i.i.i.i.-.} { { ! ^ [ { [ +.@.#.$.$.$.$.u.-.u.u.u.u.u.$.$.-.$.-.-.u.u.i.i.",
"i.i.u.u.u.u.u.$.$.$.u.$.u.$.u.u.i.i.u.$.u.u.u.i.i.i.i.-.| H ^ +.@.+.#.$.$.$.#.$.-.$.$.$.$.-.-.-.u.u.$.u.u.u.u.-.u.u.u.i.",
"u.i.i.i.u.u.u.u.$.u.u.u.u.u.u.i.i.i.u.u.u.u.i.i.i.i.-.-.O.Q [ #.#.#.#.$.$.+.@.#.-.{ $.-.-.u.-.-.$.u.} u.u.u.u.u.u.u.i.i.",
"i.i.u.u.u.u.u.u.u.u.i.i.i.i.u.i.u.u.u.u.;.#.O.-.i.=.+.@.{ / [ ! @.$.] +.[ U Q / } { } $.-.-.$.$.$.} } -.u.u.u.u.i.i.i.i.",
"i.i.u.u.u.u.u.u.u.u.i.i.i.u.u.u.u.u.u.u.i.O.Q $.#.| z ! [ ! H g P &.U ^ ~ C z E ] } } $.$.} $.} } $.$.$.u.u.i.u.i.i.i.i.",
"u.u.u.u.u.u.i.i.u.u.u.u.u.u.$.$.$.$.#.$.$.O.! #.J i * W U g q q L #./ [ @.L Y ~ ' } } $.} $.$.$.-.-.-.u.i.u.i.i.u.i.u.u.",
"u.u.u.u.u.u.u.u.u.u.u.u.$.$.} $.#.#.#.#.#.@.] } U u 0 W E k g z E } / [ { ~ / [ } } $.$.} $.u.u.u.u.u.u.u.u.u.u.u.u.u.u.",
"u.u.u.$.u.u.} u.$.$.$.$.} $.$.} $.#.#.#.$.} { } Z s k ' / J ! ! { } / W W W { } i.u.} } $.u.i.u.$.u.$.$.$.$.$.$.$.u.u.$.",
"u.$.$.$.} } } } $.} } $.u.} u.u.u.u.u.u.$.] W } P L / { @.} #.$.=.$.#.~ K F { $.u.u.$.$.} u.u.u.$.} $.u.u.u.u.u.u.u.u.u.",
"$.$.$.$.} $.$.$.$.$.u.$.u.u.} } } u.$.$.$.{ ] $.@.@.#.J ' #.#.#.{ ! ' K c j ] ] J } -.$.$.u.u.u.u.u.u.u.u.u.u.u.$.$.$.$.",
"$.$.$.$.$.$.u.$.u.u.$.$.u.u.u.u.$.$.} #.$.{ [ } { [ } W ' $.#.{ / / [ ~ Y K ] ' F } u.u.u.u.u.u.u.u.i.u.u.u.u.$.$.$.$.$.",
"$.u.$.u.$.-.$.$.u.u.$.$.u.u.u.u.u.u.#.$.$.#.{ } ' ' #.{ @.$.@.O.| $.;.#.@.] #.] J #.i.i.i.i.i.i.u.u.u.u.u.u.u.u.u.u.$.$.",
"u.$.$.$.$.$.$.$.$.$.} $.} $.$.u.u.i.u.i.i.$.#.#.} } #.#.$.#.! ] #.$.;.$.$.' @.$.$.-.i.i.i.i.i.i.u.u.u.u.u.u.$.$.$.$.u.$.",
"$.$.$.$.} $.$.} $.i.u.$.} $.$.$.$.$.u.u.i.i.$.#.#.$.u.i.#.! a j Q @.$.$.@.H @.$.$.#.$.;.i.i.i.i.u.} } $.} $.} } $.$.} $.",
"} $.} $.$.$.$.-.u.i.u.u.u.u.$.u.$.u.$.u.i.i.$.@.@.$.i.$./ l , 0 j / #.#.{ G @.-.-.{ #.$.$.$.$.$.u.} $.#.} $.$.$.} } $.$.",
"$.$.$.-.u.u.u.u.u.u.u.u.u.u.u.u.u.u.u.u.u.u.#.J ] #.-.#.H u p 0 y F { [ W ! #.$.#.' } } $.$.#.#.#.#.$.#.$.$.#.#.$.$.$.$.",
"} $.u.u.-.$.-.$.$.$.$.$.$.u.u.u.$.u.u.u.u.-.O.g J O.#.#.Q g p p l ] { E D W { #.} } } #.$.#.#.$.$.#.#.$.$.$.$.u.u.u.u.u.",
"$.$.u.u.$.$.$.$.$.$.u.u.u.u.u.u.u.$.$.$.-.#.{ G J #.#.O.! H D l E } } W H W ' ' { } $.#.$.$.$.$.u.$.u.u.u.u.u.u.u.u.u.i.",
"$.$.u.u.u.-.-.-.u.u.u.u.u.u.$.$.$.$.#.#.#.#.} ] #.$.#.#.[ ' { ] [ } } } { ] J H J } $.$.$.$.u.i.u.u.u.u.u.u.i.i.u.u.u.u.",
"$.u.u.u.i.i.i.$.u.u.u.u.} } $.$.} $.} } $.$.} $.$.$.-.-.{ ! #.#.#.#.' ' } } W W } u.} i.i.u.} u.$.i.i.i.i.i.u.u.u.-.u.u.",
"$.$.$.u.i.i.$.$.u.i.i.u.u.u.$.$.-.$.-.$.[ } $.$.#.[ ' [ W P K P K D j D E { ] [ } u.u.u.i.i.i.u.u.u.i.i.i.i.u.u.$.-.-.-.",
"u.u.$.$.$.$.$.$.u.i.i.i.u.u.u.u.u.-.-.} W ] } { W D f l L j 5 2 < > : < 4 D F J ' } } u.i.i.i.i.i.i.i.i.i.i.u.$.#.u.-.-.",
"$.$.#.$.#.#.#.#.$.i.i.u.u.i.i.u.-.} [ ' E ' { F j 3 X @ 2 v 1 : O O O X X + & 3 f ' } u.i.u.i.i.i.i.i.i.i.i.u.$.u.u.u.u.",
"$.$.} $.$.#.$.$.-.i.-.-.u.$.u.} W J D h y h h < * : @ , 1 1 ; O O - = O O O @ > j J { -.i.i.i.i.i.i.i.i.i.i.u.u.u.u.i.i.",
"$.} $.$.;.;.i.-.-.$.} ] ' W ' ' L 4 4 3 5 p p > < : : ; ; = O O = : O O O O @ < h j E [ ] ' { u.u.u.i.i.u.i.u.u.u.u.i.i.",
"#.$.u.u.$.$.$.$.} { W D y t 4 4 a 5 < 6 b b 5 2 2 : : O o o o - - - o   . O : 2 5 2 h l g y H } u.u.$.$.$.;.u.u.u.u.u.u.",
"$.$.u.$.#.#.' W D t * * & $ < 5 x 5 > 5 c 6 5 > > + + + - > 2 2 x x > + . + + > 5 : < t 0 0 h J O.O.O.] J O.#.$.u.u.u.#.",
"#.#.] H z g u r * & # , , , , : : : > x 5 5 5 5 < % % > > 5 p p c c 5 > % + $ $ < < , < 1 w p h k z l y u d G ' #.-.-.-.",
"-.{ G u 8 7 7 & & * 7 t p p < > % > 5 d a a a a p 3 3 y y a p V N M k a 4 < * * < t p 0 p s p a q p 0 9 9 7 u H ] #.-.;.",
"$.O.z g g g g f f l l f z k k l l D G L L G G D l D j D G L I | |  .U P G G f k k g l l z Z z z z z z z z z z z H ] $.u.",
";.$.O.[ ] ] ] ] { { O.@.@.{ { { @.@.@.@.@.@.@.@.{ [ } } @.@.@.=.+.+.@.] { O.] @.@.{ @.} @.{ { #.@.@.@.@.O.O.O.O.#.#.} u.",
"u.u.u.u.u.u.u.u.u.u.$.i.u.u.u.u.u.u.u.u.u.i.u.u.$.$.$.-.$.u.u.u.-.-.u.i.;.$.$.-.u.u.i.i.i.u.u.i.u.u.u.u.u.u.u.u.u.u.$.u.",
"u.u.$.$.$.u.u.u.u.u.u.u.u.u.u.u.$.$.$.u.u.u.u.u.u.u.-.-.u.u.u.u.$.$.u.i.;.u.i.i.i.i.i.i.i.u.u.$.$.$.u.u.u.u.u.u.u.u.$.u.",
"#.$.$.#.#.u.i.i.i.i.u.u.u.u.u.u.u.} } $.$.$.$.$.u.-.$.$.$.$.$.} $.$.$.i.i.i.i.i.u.i.i.i.i.u.$.$.u.u.i.i.u.u.u.u.u.u.u.u.",
"#.#.#.#.#.u.i.u.i.i.u.u.u.u.u.u.u.u.$.$.$.} $.$.} $.$.$.$.} $.} $.} $.i.i.i.i.i.i.i.i.i.i.u.u.u.u.u.i.i.i.u.u.u.u.u.u.u.",
"$.$.$.$.u.u.u.u.u.u.u.u.$.#.$.u.u.u.u.u.u.u.} u.} $.} $.} $.$.$.$.-.u.i.i.i.i.i.i.i.i.i.i.i.i.i.u.u.u.u.u.u.u.u.u.u.u.u.",
"u.u.u.u.u.u.u.u.u.u.u.$.$.#.#.$.$.u.u.u.i.i.i.i.} $.} $.$.u.i.i.u.u.u.u.i.i.i.u.u.u.u.u.u.u.i.i.u.u.u.u.$.u.u.$.$.#.#.$.",
"u.u.$.$.u.$.$.#.$.u.u.$.$.#.$.#.} $.$.} } u.u.u.u.$.$.$.u.i.u.$.$.u.-.$.$.} -.u.u.u.$.u.u.u.u.u.u.u.u.$.$.#.#.$.$.} #.#.",
"u.$.$.$.$.$.$.u.i.u.u.u.u.u.$.$.u.$.$.$.u.} $.u.$.$.} $.u.u.u.$.} } $.-.u.u.i.i.u.u.u.$.u.$.} $.$.$.$.#.#.$.#.#.$.$.} $."
};
