/* XPM */
static char *result[] = {
/* columns rows colors chars-per-pixel */
"60 60 108 2 ",
"   c #080D08",
".  c #130E0C",
"X  c #0A1305",
"o  c #0C140A",
"O  c #13140A",
"+  c #19170F",
"@  c #121A0E",
"#  c #1D1C0D",
"$  c #180F12",
"%  c #141511",
"&  c #1C1414",
"*  c #141C13",
"=  c #1B1B15",
"-  c #1F1718",
";  c #1D1B19",
":  c #261C0F",
">  c #211617",
",  c #221D14",
"<  c #2A1E13",
"1  c #23161A",
"2  c #251C1C",
"3  c #291D1F",
"4  c #1D220F",
"5  c #172117",
"6  c #1B2215",
"7  c #172219",
"8  c #1A231B",
"9  c #22210F",
"0  c #242313",
"q  c #2A2414",
"w  c #262915",
"e  c #2D2A12",
"r  c #23231C",
"t  c #2B221D",
"y  c #2C2A1A",
"u  c #352315",
"i  c #392617",
"p  c #312B14",
"a  c #3B2D16",
"s  c #32241A",
"d  c #382419",
"f  c #322A1C",
"g  c #3D2B19",
"h  c #383119",
"j  c #2A1E21",
"k  c #1F2420",
"l  c #2C2222",
"z  c #362D21",
"x  c #363122",
"c  c #3D3E2B",
"v  c #3B2832",
"b  c #442B1B",
"n  c #4A2F1D",
"m  c #502E1E",
"M  c #46331B",
"N  c #4B341E",
"B  c #51321F",
"V  c #502F20",
"C  c #473727",
"Z  c #4E3421",
"A  c #47352B",
"S  c #4C302B",
"D  c #453F2C",
"F  c #4B3A2C",
"G  c #543421",
"H  c #5C3523",
"J  c #533924",
"K  c #5C3B25",
"L  c #553D29",
"P  c #4D3D31",
"I  c #49363E",
"U  c #533632",
"Y  c #543D36",
"T  c #623B26",
"R  c #653F2A",
"E  c #6C3D29",
"W  c #713E2B",
"Q  c #5D422D",
"!  c #4A4132",
"~  c #514234",
"^  c #534439",
"/  c #5B473A",
"(  c #5A4A3B",
")  c #63412C",
"_  c #6D412C",
"`  c #77412D",
"'  c #7A432E",
"]  c #6C4A3D",
"[  c #714531",
"{  c #7E4630",
"}  c #5A4546",
"|  c #654D44",
" . c #684D47",
".. c #634849",
"X. c #714C42",
"o. c #7C4E40",
"O. c #67544E",
"+. c #715145",
"@. c #74534C",
"#. c #7C534C",
"$. c #7D5857",
"%. c #75555C",
"&. c #804731",
"*. c #814832",
"=. c #835A55",
"-. c #885A55",
";. c #845B5B",
":. c #885E5F",
/* pixels */
"*.*.*.&.&.' &.&.&.*.&.*.*.*.&.*.*.*.*.*.&.&.*.&.&.{ { { { &.&.&.&.&.*.&.&.{ &.' &.&.&.{ { *.*.*.*.*.&.*.*.*.*.*.&.{ ' { ",
"*.*.&.' ' ' ' &.&.&.&.*.*.*.*.*.*.*.*.*.&.&.&.*.&.&.&.W W { ' { &.&.&.&.&.&.&.&.' ' ' W ' *.*.*.*.*.*.*.*.*.*.*.{ { ' { ",
"&.*.&.' ' &.&.{ ' ' &.&.*.*.*.*.&.&.&.&.&.&.&.&.&.&.&.&.' W ' ' W { { W W W ' ' ' W ' W ' &.*.*.*.*.*.*.*.*.*.*.&.&.&.&.",
"{ { &.{ { &.&.&.&.&.&.&.*.*.*.*.&.{ { &.' { { ' { &.&.&.&.{ ' ' &.W W { W { ' W ' ' ' ' { *.*.&.*.*.*.*.*.*.&.*.&.&.&.&.",
"{ ' ' ` ' { &.&.*.*.*.*.*.*.*.&.&.' ' &.{ { ' W W ' ' &.&.&.*.*.*.{ { W ` ` ` { ' &.&.&.*.*.&.&.&.*.&.&.*.&.*.*.&.&.&.&.",
"` ` ` ` ' ' *.*.*.*.*.*.*.*.*.&.&.&.&.&.&.&.{ ' ' ' ' ' { { &.&.&.*.{ W ` W { *.&.&.&.&.&.{ ' ' { &.*.&.&.{ { &.&.&.&.&.",
"` W ' ' ' { *.*.*.*.*.*.*.*.&.&.&.&.*.&.&.&.&.&.&.' ' ' ' ' { { { &.&.{ ` ' { *.&.' W W ' ' ' { { { { { { { { { { { { { ",
"{ &.&.*.*.*.*.*.&.&.*.*.*.&.&.&.&.&.*.*.&.&.&.&.&.&.{ { ' ' ' { { ' { W ' W { { &.' &.{ { &.&.&.&.&.' { ' ' ' W ` ` ` ' ",
"&.{ { { &.&.' ' ' { &.&.&.{ { { &.&.&.&.&.' ' ` ' ' W W ' ' ' ' ` ` ` ` ' ` ' ` W { W &.{ { &.{ { ' ' W ' W ' W ' ' W { ",
"&.{ ` ' W ' ' &.&.&.&.{ { { { { ' ' &.&.' ' ' ` W ' &.W ' W ' W ` ` ` ` ` ` ` ` ' W &.W { { { { { { { ' ' ' ' ' ' { { &.",
"*.{ { { &.&.&.&.&.&.' &.' ' ' ' ` ' ` ' ' ' ' ' ' ' ' W _ ` ' W ` ` _ _ _ ` ` W W &.&.&.{ { { *.&.&.&.&.&.&.&.&.&.&.&.&.",
"-.*.{ { &.&.&.&.&.' ' W ' W ' W ` ` ` ' ' ' &.&.&.&.' E Q _ ' W ` _ ) Q R _ { { &.*.{ { { W { { &.&.&.&.*.*.&.*.&.&.&.&.",
"&.&.*.*.*.*.' ' &.{ ' W ' ' W ' ' ' &.&.&.&.&.*.&._ ) ~ ^ ^ ! F A P ~ U D Q [ { &.&.&.W { { { { { ' &.&.&.&.*.*.*.*.&.&.",
"` ` W &.&.&.&.' &.&.&.&.{ { &.&.&.&.&.&.&.&.&.' &.) ! | +.+. .} }  .| ] / ~ L ` &.&.*.&.{ { { { &.{ &.*.*.*.&.&.&.&.{ { ",
"` W W ' W &.' ' &.&.&.*.&.&.&.&.&.&.&.&.' ' ' ' ' Q c @.=.-.;.%.%.$.{ =.] ( C _ &.&.' W { { *.*.&.&.&.*.*.&.&.{ { ' W ' ",
"&.&.&.W &.W ' &.&.&.&.&.&.&.&.&.&.&.&.&.' &.&.{ { ) c @.;.:.$.%.%.$.@.o.] ( C W W W ' ' { { *.*.&.&.&.*.*.&.{ { ' ' ' ' ",
"*.*.*.&.&.*.&.&.*.*.*.*.&.' &.' ' ' &.&.&.&.&.' { ) ! O.@.#. .v I ..X.X./ P L E ` ` ` ` ' &.*.*.*.*.*.*.*.&.&.&.&.&.' ' ",
"*.&.*.*.*.*.&.*.&.*.*.&.&.&.` ` ' &.&.&.&.&.' ' ' _ Q / ~ ^ ^ S L Y P P P L ) ` ' { { *.*.&.*.*.*.*.*.*.*.*.*.*.&.&.&.&.",
"*.*.&.*.*.*.*.*.*.*.&.&.&.&.&.' &.&.&.&.&.&.' ' ` ` _ B F U L [ _ Q C N J R ` { *.*.{ *.&.&.{ { &.&.*.*.*.*.&.*.&.&.*.*.",
"*.*.*.*.*.*.*.*.*.*.&.&.&.&.&.&.&.&.&.&.&.&.&.&.' ' ` ` W W W { { { { ` _ ` { *.{ ' ' ' ' ' { { &.*.&.&.&.*.&.&.*.&.*.*.",
"&.&.&.&.*.*.*.&.*.&.&.*.&.&.&.*.&.&.&.' &.&.*.&.&.&.&.W ' ' W ' ` ' ' ` ` ` { &.&.{ ' ' { &.&.&.*.&.&.' { &.&.&.*.&.*.*.",
"&.&.&.&.*.*.*.&.&.&.&.&.&.&.&.*.*.&.&.' &.&.*.*.&.*.*.&.' W ' W ` ` ' ' ' ' ' { ' ' { &.&.&.&.&.&.{ ' ` ' ' ' &.&.&.*.*.",
"&.*.&.*.&.&.&.{ ' ' &.' &.' &.&.*.*.&.' &.&.&.*.*.*.*.&.&.&.' W ' ` ' ' ' &.&.&.{ { ' ' ' { { { &.&.' &.&.&.&.&.&.&.&.*.",
"*.*.*.*.&.&.&.&.' &.&.&.&.&.&.&.*.*.&.&.{ &.&.&.*.*.&.&.W W W &.` ` ` ' &.&.&.&.{ &.{ { { { { { { ' ' &.&.&.&.&.&.&.*.*.",
"*.*.&.*.*.*.*.&.&.*.*.*.*.&.&.&.&.&.&.&.&.&.&.&.*.*.&.' W W ' ' { ' ' ' ' ' ' ' ' ' ' ' ' ' ' ` ` ` ' ' &.&.&.&.*.&.*.*.",
"*.*.*.&.*.*.*.&.&.&.*.*.*.&.&.&.&.&.&.' &.&.&.' &.&.&.' ' ' ' { &.{ &.{ ` ` ' ' ' ' ' ' ' ` ` ` ` ` ' ' &.&.*.&.&.&.*.*.",
"&.&.&.&.&.&.*.*.&.&.&.&.&.&.' ' ' ' ' ` ' ' ' ' W ' ' ' W ' W { { { &.&.&.{ ' ' ' ` ` ` ' ` ' ' ' ' &.&.*.&.*.*.&.&.&.&.",
"&.' &.' ' &.&.&.&.&.&.' ' ' ' ' ' ' ` ` ` ' ' ` ' W ' W ' ' W ' ' ' { { &.&.*.*.&.' ` ` ` ' { &.&.&.&.&.*.{ &.&.&.&.&.&.",
"&.&.{ { { ' ' ` ' ' ' ` ` ` ' ' ' ' ' ' ' ' ' ` ` ` ` ` ' ' ' ` ' ' ' ' ' ' &.*.&.{ ' ` ' &.&.&.' ' { ' ' ' ' ' ' &.&.' ",
"{ ' ' ` ' ' ' W ` ' ' ` ' ' ' ' ' { ' ' ' ' ' ' ' ' ' ` ' W ` ' &.&.{ { { &.&.&.&.{ ' ` ' &.&.&.' ' ' ' { &.*.*.&.&.&.&.",
"' ` ' ` ` ' ' W ' ' ' ' ' &.' ' ' ' ' ' ' ' ' { { { { ' ` ` ` ' &.&.*.*.&.&.*.*.&.{ ' ' ' { *.&.{ { &.&.&.*.&.&.&.' ' ' ",
"' ' ' ' ' { ' { &.&.&.' &.&.' ' ' ' ' ' ` ' ' ' ` ` ` ` ` ` ` ` { *.*.*.&.&.*.&.&.&.&.{ &.&.*.&.&.&.*.*.*.*.{ ' ' ` ` ` ",
"' ' &.' &.{ ' &.&.{ ' ' &.&.&.&.&.&.W &.W W ' W ' ' ' W ' ' ' { *.*.*.*.*.*.*.*.*.*.*.*.*.*.*.*.&.&.&.&.&.&.&.&.&.&.' ' ",
"&.&.&.' ' ' ` ` ' ' ` ` ` ` ' &.&.&.*.*.*.*.' ' ' W ' *.*.*.*.&.*.*.*.*.&.&.&.&.&.&.*.*.*.*.*.*.&.&.&.&.&.' ' ' ` ' ' &.",
"' ' ' ` ` ` ` ` ' &.&.' ` ' ' ' W &.' &.*.*.&.W ' W *.*.' ' ' ' ' ' ' ' &.&.*.*.&.' *.*.&.&.&.&.&.' ' ` ` ` ` ` ` ` ` ' ",
"` ` ` ` ` ` ' { &.&.&.&.&.' { { &.' &.&.*.*.W ' ' { *.*.' ` ' ` ' ' { *.&.&.&.*.&.' &.W &.&.W &.` ` ` ` ` ` ` ` ` ` ` ` ",
"` ` ' &.&.&.&.&.&.&.&.&.&.&.&.&.&.&.&.&.*.&.' ' ' ' &.&.W T b N _ { *.&.&.&.&.W ' ' ' ' W W ' ' ` ` ` ` ' ' ' ' ' ' &.` ",
"` ' &.&.{ { &.' { ' ' ' { { { { &.' &.&.&.&.&.&.{ W ' W H d # q M E ' ' ' ' W &.W ' W W W &.W ' ` ` ` ` ' ' ' { &.&.&.&.",
"` ' &.&.' ` ` ` ' { &.&.&.{ &.&.&.&.&.&.' &.' ' ' ' W W u . + , q g K E W ' W W ' ' ' ' W ' &.&.{ { { &.{ { &.&.&.&.&.*.",
"` ' &.&.&.&.&.{ { &.&.&.&.{ ' ' &.W W W ' W ' W W ' W H < . . + * + : N E W ' ' ` ' W ' { &.{ &.&.&.*.*.*.*.*.*.&.&.&.&.",
"&.' &.*.*.*.{ { &.&.&.&.' ' W ' W ' W W ' W ' W T H b i 2 & % = & = = y V E ` { { ' { ' &.{ ' ' { { *.*.*.*.&.&.&.{ &.&.",
"' ' ' &.{ { { ' &.&.*.&.&.{ ' { ' ' &.{ ' ' E B b q q 2 - & $ - ; 2 r = t b G R W { { &.&.&.&.&.{ &.*.*.*.*.&.{ ' { { { ",
"&.&.' ' ' ' ` ' { &.&.*.&.&.&.&.&.{ ' ' W T V u # = r 2 & . $ 1 > 2 1 > @ + = d H W ` { *.*.&.*.*.*.*.*.*.*.&.' ' { { { ",
"' ' ' ' ` ` ` ` ' &.&.&.&.&.&.&.{ W T V d s t 2 2 2 2 - - 1 j j 1 1 $ > > - % . < m W ' *.*.*.*.*.*.*.&.*.*.&.{ &.&.*.{ ",
"` W ' ' ' ` ' ' *.*.' W H m m B V b d s f l l 2 , > > 2 2 j l j j j 1 j 1 1 ; % @ : b B T E ' &.{ *.*.{ *.*.*.*.*.*.*.*.",
"` ' ' ' *.' ' ` W B B M < > < u q , & > l l l 3 1 > > 2 j r l j j j j 1 j - ; k % o 4 = < b H E ' ' [ ' ' *.*.*.&.*.*.*.",
"` ` ' { ' ` W B n : @ @ @ @ % = ; ; = ; 2 2 2 2 2 3 t 2 2 2 r r 2 2 3 > ; ; = 8 k 8 * * X O 0 b B B N J T ` ' { &.&.&.{ ",
"` ' ` J a a p 9 O X X @ * * * o o o @ ; r r l l t 3 r , 0 0 r r l l r ; * %   * 7 8 7 5 5 6 6 , 9 4 4 4 e h M K ' &.{ ' ",
"' ` T a e e q 9 # # 9 w w w w 4 4 9 w y f z z z s s f s s f f x x x h f w w 4 0 w w w y y y f e e 0 0 w e e p M T { &.{ ",
"{ ' K M M N n n N B N N N M M M N N Z J J J J J Z Z J J J J J Q Q ~ J ! N N N M N M N Z N Z J N N N N N M M M N K { &.*.",
"*.{ { ' ' ' ` ' ' ' ' ' { { ' { ' { { { { { { { ` { { { ' { { { ` ' ` ' ' ' ' { { ' { { { { { { ' ' { { ' ' ' ' { &.{ &.",
"*.*.{ { ' ' ' ' ' &.&.&.*.*.{ *.*.*.{ *.{ { { { ' { { &.{ &.{ { ' ' ' ' ' { { { *.*.{ *.*.*.{ { *.*.*.*.*.*.*.{ &.{ ' { ",
"{ *.*.{ ' { *.*.&.' &.&.*.*.*.&.*.*.{ *.{ *.*.{ ' W &.{ { { &.&.{ { *.*.{ { { { &.*.*.&.*.*.&.&.*.{ *.{ { *.*.*.*.{ ' &.",
"{ { ' ' ' { *.*.&.&.&.&.*.*.*.&.' ' ' { { *.*.{ &.&.&.&.{ &.&.{ { { { { { *.{ { &.*.*.*.&.&.{ ' ' { ' { { { { *.*.&.' &.",
"' ' ` ` ' { *.*.*.*.&.&.&.*.*.*.' ' ` ` ' ' { { &.&.&.&.' ' ' W ` ' { { *.*.*.*.*.*.*.&.*.&.' ' { { *.*.*.*.*.*.*.&.{ &.",
"` ` ` ` ` { *.*.*.*.*.&.&.&.*.*.*.{ ' ' ` ` ` ` W ' W W ' W ` ` ` ' { *.*.*.*.*.*.*.*.*.*.*.&.&.*.*.*.*.*.*.*.*.*.{ { { ",
"' ` ' { { *.*.*.*.&.&.{ W &.{ *.*.*.*.*.' ' ' ' ' ' ` ` ` ' ` ' ' { { *.*.*.*.*.*.*.*.*.*.*.*.*.*.*.*.*.{ &.&.&.&.{ { &.",
"*.*.*.{ { { *.{ &.&.&.{ { W W W ' ' { &.&.*.*.*.' ` ` ` { &.&.*.{ { { *.{ { { *.{ *.*.*.*.*.*.*.*.*.*.{ { { { ' ' ' ' ' ",
"{ { { { { ' W { W { { { W ' { W ` ` ' ' ' &.*.*.' ` ` ' *.*.&.' ' ' { { { ' ' { { { ' { { &.*.*.&.{ { ' ` ` ` ' ` ` ' ` ",
"{ { ' W ' { { { *.*.*.&.&.{ { { ' ' ' ' ' ' ' ' ' ` ` ' &.&.{ ' ' ` ' { { { *.{ *.{ { { ' ' ' ' ' ' ' ' ` ` ` ' ` ` ` ` "
};
