/* XPM */
static char *result[] = {
/* columns rows colors chars-per-pixel */
"60 60 238 2 ",
"   c #020102",
".  c #090403",
"X  c #060905",
"o  c #0B0B06",
"O  c #03020A",
"+  c #0A050B",
"@  c #0C0D0B",
"#  c #110C09",
"$  c #0B100D",
"%  c #13130C",
"&  c #1C180D",
"*  c #0E0B15",
"=  c #111017",
"-  c #181716",
";  c #1A1B15",
":  c #201E0E",
">  c #231C17",
",  c #1D2219",
"<  c #24231C",
"1  c #28291B",
"2  c #353016",
"3  c #1D1B25",
"4  c #231D27",
"5  c #1C2023",
"6  c #242423",
"7  c #2A2928",
"8  c #322A2A",
"9  c #2E3226",
"0  c #393729",
"q  c #2E2A32",
"w  c #332E33",
"e  c #383636",
"r  c #453D14",
"t  c #413A2E",
"y  c #433C35",
"u  c #3F4337",
"i  c #4C4932",
"p  c #46473B",
"a  c #57533B",
"s  c #77412D",
"d  c #7A432E",
"f  c #7E4A2E",
"g  c #7E4630",
"h  c #7E4931",
"j  c #6E6E3C",
"k  c #3E3949",
"l  c #4A4846",
"z  c #534D46",
"x  c #595847",
"c  c #4C4E52",
"v  c #585655",
"b  c #615A4C",
"n  c #5E614E",
"m  c #6F6B4C",
"M  c #676658",
"N  c #726E56",
"B  c #75755C",
"V  c #5C5966",
"C  c #696866",
"Z  c #6F6A6E",
"A  c #787766",
"S  c #7B7A77",
"D  c #804E2E",
"F  c #84552F",
"G  c #804731",
"H  c #814932",
"J  c #855233",
"K  c #875737",
"L  c #895534",
"P  c #8B5B35",
"I  c #8B5C39",
"U  c #8D6234",
"Y  c #8E643B",
"T  c #926535",
"R  c #946B35",
"E  c #9C6F37",
"W  c #91643A",
"Q  c #936B3C",
"!  c #917034",
"~  c #9A7537",
"^  c #9C7A3B",
"/  c #A27C34",
"(  c #A17D3A",
")  c #8D6D45",
"_  c #9B7942",
"`  c #827D67",
"'  c #817F77",
"]  c #7D8074",
"[  c #9C803A",
"{  c #B4972D",
"}  c #A88835",
"|  c #A2823E",
" . c #B28C30",
".. c #AC9236",
"X. c #AD933A",
"o. c #B49737",
"O. c #BCAB2F",
"+. c #BAA838",
"@. c #BEB73A",
"#. c #C4AB2C",
"$. c #C8B82B",
"%. c #D4BC2A",
"&. c #C2AA38",
"*. c #C7B739",
"=. c #D4BC38",
"-. c #E2D91D",
";. c #CAC42B",
":. c #D5C929",
">. c #DBD827",
",. c #CCC63A",
"<. c #D5C938",
"1. c #D9D637",
"2. c #DCD53B",
"3. c #E4D827",
"4. c #E3DB2B",
"5. c #E2CC31",
"6. c #E3D735",
"7. c #E2DB3C",
"8. c #DCE236",
"9. c #E3E125",
"0. c #E5E338",
"q. c #9C8A49",
"w. c #A58742",
"e. c #A89446",
"r. c #B69B45",
"t. c #B9A943",
"y. c #BCB446",
"u. c #BDB153",
"i. c #8B8666",
"p. c #99956C",
"a. c #888779",
"s. c #918D70",
"d. c #999677",
"f. c #9F9E7A",
"g. c #A4A065",
"h. c #A9A67B",
"j. c #B4AB77",
"k. c #B8B278",
"l. c #C9AF4C",
"z. c #C6BB43",
"x. c #D2BD42",
"c. c #D8BE69",
"v. c #C8BD79",
"b. c #CAC548",
"n. c #DCCD43",
"m. c #D6CA49",
"M. c #DBD443",
"N. c #D6D847",
"B. c #DBD44C",
"V. c #DCDC4B",
"C. c #C9CA50",
"Z. c #D7C75A",
"A. c #DBDA57",
"S. c #E4CB4B",
"D. c #E3DB47",
"F. c #E3D54A",
"G. c #E5DA55",
"H. c #E2DB5C",
"J. c #DBE349",
"K. c #DBE558",
"L. c #E3E249",
"P. c #E2E257",
"I. c #CAC36A",
"U. c #DCDD63",
"Y. c #D9D26A",
"T. c #DCDC6C",
"R. c #D2CB72",
"E. c #D6CA79",
"W. c #DBD878",
"Q. c #E3DC65",
"!. c #E7D86B",
"~. c #E3DC6C",
"^. c #E4C870",
"/. c #E5DB75",
"(. c #E3DD7C",
"). c #CFE065",
"_. c #DCE467",
"`. c #DCE475",
"'. c #E4E264",
"]. c #E3E36A",
"[. c #E8E56D",
"{. c #E3E576",
"}. c #837B89",
"|. c #888586",
" X c #9C9887",
".X c #928C93",
"XX c #999898",
"oX c #A29A89",
"OX c #9AA182",
"+X c #A9A688",
"@X c #B0AF8D",
"#X c #B8B689",
"$X c #ABAA9A",
"%X c #B7B695",
"&X c #9B98A4",
"*X c #A39CA4",
"=X c #ABA9A8",
"-X c #B2AFAC",
";X c #B7B5A7",
":X c #B9B9B9",
">X c #C1BC8C",
",X c #C3BC98",
"<X c #C2BCAE",
"1X c #BDC198",
"2X c #BEC1A4",
"3X c #C8C589",
"4X c #D5CC86",
"5X c #DDDC84",
"6X c #D9D689",
"7X c #C9C697",
"8X c #D4CC9E",
"9X c #CAD09B",
"0X c #D8D797",
"qX c #E3DC84",
"wX c #E7DC8A",
"eX c #E3DD8C",
"rX c #E3DC93",
"tX c #E2DA9B",
"yX c #DCE387",
"uX c #DEE496",
"iX c #E6E387",
"pX c #E7E398",
"aX c #C9C8A8",
"sX c #D2CEAB",
"dX c #DAD8A8",
"fX c #C9C7B6",
"gX c #D9D7B6",
"hX c #E3DDA3",
"jX c #E4DEAC",
"kX c #E4DAB5",
"lX c #DBE2A5",
"zX c #E5E2A8",
"xX c #E2E1B8",
"cX c #BDB8C5",
"vX c #C5BDC9",
"bX c #CECBCE",
"nX c #DAD6C8",
"mX c #E6E2C2",
/* pixels */
"H H G G G d G G G G G H H G G H H H H H H H G G g g f d g g g G J H h H h g d d g H g g g g G H G H G H H H H G G d d d ",
"H G G d d d d G g g G G H H H H H H G H G h H H H h d s d g g g h h h H h h h h d d s d g g G G G H H G H H H G G s d G ",
"G H G d d G G g g g g G G H H H H G H H J J P J L P P J P J F F f f f f H f s s s s s s g g G G H H H H H H H H G G G G ",
"g g G g g G G G G G G G H G G H G g H ^ ~ ~ ..U ..+.O...O.@.&.z.+.o.! [ } f f s s d s d g H H G H H H H G H H H H G H H ",
"d g d s d g G H H G H H G H H G G g h +.;.$.;.$.,.1.<.:.1.2.2.D.m.M.*.;.;.O...U h g G G H G G G G G G G H G G G G G G H ",
"s s s s s d H G H G H H H H G H h H q.,.8.8.1.D.A.H.A.H.'.[.[.[.U.U.B.1.8.8.,.+.~ h g g G d d g g G G G G G G G G G G G ",
"s s d d d G H H G H H G H G H H H L e.<.8.8.J.Q.R.E.5XeX4XuXtX0X6XyXI.Z.J.8.1.,.e.J s d d d d g G g g g d G g d d G G G ",
"g g G H G G H H G G H H H G G h H K _ b.8.J.'.iXv.k.7XdX+X%X#X#XdX9Xk.I._.J.x.,.X.P h f g G G H G G G g d s s s s s s s ",
"g g g g g g s g g g g G h g g g h Y w.b.K.[.iXrX>Xi.` =XA A N B $X` ` >XpX/.A.2.,.r.Q H g g G g d d s s s s s s s s s s ",
"g g g s g s s g g g g g h h g g ) u.C.A.].iXpXuX>Xm l Z 9 < , u N z b +XkXrXY.V.<.o.P G g g g g G d g d s s d d d g G G ",
"H g s g g G G G G g g g d s s f ^ C.K.`.yX0XdX9Xf.N C |.c 7 7 c }.' Z ` ` w.l.B.2.+.J G g g G G G G G G G G G G G G G G ",
"K H g g G G G G g g s s d h h K w.Y.`.uX0X7X+Xf.N ' =X:XXXC Z XXvXvX}.z > r q.Z.S.%.P g s s g g G G G G H H H H G H H H ",
"H H H G H G d d g g s s g ) q.w.r.U.iXzX1X] i u x XXbX:X:XXXXX:XvXbX*Xk   : j b.F.=.( D g g g g g g G G G G H G H H G G ",
"s g s g G g g g G G G g K e.b.M.B.].yXuX@Xn o o w ] :X:X:XS }.-XcXcX}.k X & ) v.H.<.+.Q H h h h g g G G H H G G G G G G ",
"s s s s s g s s g G G H H ^ =.L.P.{.uXlXf.u X   $ k V C C u l C Z Z k -   & m v.W.N.x.^ J g H H G G G G H G G G d s s d ",
"g g s s s s g g G G H H I | ,.J._.yX0X+Xx ,     O $ 5 6 6 = - 5 6 4 * +   o i h.E.Z.m.+.R J H H G G G G G G G d d s s s ",
"H G G G H G G G h H H H ! @.J.A.yXtX+Xb >       O                     O .   & s.4X!.B.1.+.U H H G G G G H H G G G g d d ",
"H H H H H H G H H H H J ! z.N.`.uX>Xa : .       O               X           # B >XwX'.1.;.} H H G G G G G H G H G G G G ",
"G H H H G H G H H G H T u.N.K.{.8Xh.t #   . O                   X             0 d.hX{.D.1.o.P G G H G H H H H G G G H H ",
"H H G H H H H H G H H m t.N._.iX,XA : .         O       X               O O . - N ,XeXG.1.#.E H G G G G G H G G G G H G ",
"G G G G H G H G H H L Q t.A./.pX,Xz @                                     O O + y oXtX~.V.=.../ ( I H G g g G g H G H H ",
"g G G G G G H G G H Q e.z.B./.tXoXw +                 O                     O   4 M 8XqXK.,.;.$.&.E H g d g g g G G H H ",
"G G G H H h h h h I X.z.V.Q.wX>XZ = O             O O   O O X     X         O O + y oX0X`.J.9.9.%./ L G H G g g g G G H ",
"G H H H H H h h Q y.b.C.G.^.wXf.y +                 O                         O + > M <XuX[.0.9.:. .T D H G G G G G G H ",
"H H G G G H H H Y @.m.m._.iXtX` 7 X                     O O               X + = 3 3 w a.sXiXP.6.4.:.O.^ P D H H H H H H ",
"H H G G G H G L w.*.<.V.Q.iX8X` ; X $ X                                     X w V V 7 l $XzX{.A.L.0.<.+.o.^ R P H H H H ",
"G G G G H H H W y.b.N.P.[.zX>Xz o , u 7 $                                   o v &X=Xc 7 A 2XlXuX[.L.M.m.N.z.t.^ G G G G ",
"G g g g J J K ( @.N.V._.pXkX` 8 - x XX] e o     O                           % A fXnX=Xu e A <XkXqX/.~._.H.F.m.X.L G G G ",
"G G G G } ~ ! $.J.K._.uXjX<Xz - w  XfXbXS <                               o 9 d.nXxXgXM < 8 S aXdXjXzXjXtXc.Z.r.W G G g ",
"G d s D { $.$.1.J._.yXlXsX' q 7 C sXmXkX+Xp                               % x #XdXzXzX+X0 @ 6 l M a.oX<XkX^.^.l.T D G G ",
"s d d D  .%.7.J.`.uXdXaXoXl ; p +XjXjXzX9X` ;                   .       o 1 p.9X6XW.uX7Xy   . # - 9 l ' hX/.G.l.E D d s ",
"d d D E { <.G.T.3X;X+X` x 3 , B 9XrXwXwXtX+Xp @                 O O . . & a #X6X).U.`.9Xz #         & b ,X!.6.%./ G s s ",
"G G P #.5.F.!.4Xi.x 9 % o o u OXjX6X{./.wX7XB ;       O         O O O . 2 p.6X`._.J.U.9XB <         % a 3XK.3.%. .D G d ",
"G d P $.6.G.iX>Xx < X X   X n $XdXtX[.Q.wX8XoX1 o   O O     .         - x 1X_.J.J.J.U.9XB 6       . % x 3XG.3.#.R G d G ",
"s d F #.<./.0Xs.1 o       + 7 n f.4X].H.(.hX@X9 X O O O . .           7 ] 6X_.J.8.J.`.0Xn , $ $ . . > M R.G.4.#.T s s s ",
"s s D } ,.T.0Xs.1         + * 3 a g.T.T.wXhX,Xy $ O     . .         X l +XuX_.J.K.'.qX#Xp 5 e c 4 # y s.3XB.6.$.E G s s ",
"s s H / x.!.6X@X0 @ O O * O + O : j W.T.5XzXsXn ;                   % M 9XuX).K._.`.W.B , 5 V .Xv y ` ,X4Xm.1.=./ D G d ",
"s d L  .m.Q.6X7Xn ; O 3 k q * O % j W.W.6XjXgX] 6   X     . .     + , B dXyX`._.{.W.k.r o % c =X;X%X,XwX^.F.<.o.P G G H ",
"s d L o.S.!.wX4XN 9 q V &XV 3 O 9 p.5X/.qXjXgXS 6         .       @ p h.0X).`.`.`.E.j.u $ $ u $XdX6XW.K.V.2.l.| P H H H ",
"s d H R  .x.^.E.v.d.s.=XbXXXe - z #XqX/.rXjX<XC ,         . .     + v +XuX`.`.`.{.5Xk.0 X $ u 1XzX5XA.2.1.X.w._ W H H H ",
"d g h H  .m.G.A.U.Y.E.0XgX$Xu 7 A sXeX(.rXdXOXu $                 . t s.0XyX_.K.{.5Xj.0 o % i %XhXwXH.M.z.w.Q W K g G G ",
"d g g J X.*.<.2.7.2.A.`.yXf.e w a.gXeXqXrX%XN , ; ; ; ; ; ; ; ; % . > m ,XpXU.A.U.qXj.0 o o p %XhXwX!.x.e._ L g g g g g ",
"g g h J E ( X.M.:.<.N.P.`.h.u 9 |.nXhXhX#XN 9 1 z n n M M M n V l > % t i.7X`._.T.iX3Xi $ $ p #XrX(.Y.l.T J G d g g g G ",
"d d s g h H Y e.^ o.b.Q.5Xh.0 e }.nXnX%XB l V a.2XaXaXaXaXaXfXfX;Xa.p 1 0 i.4XyX5XtX9XM , $ u @X6XH.F.*.T H G G g g G G ",
"s s s s d s h I P t.B.Q.5X@Xt w }.nX-XC z C =XgXlXzXrXtXpXhXjXxXkXaX+Xx 1 0 i.3XlXlXsX] 6 $ p %XR.B.2.&.Q H G G g G H G ",
"s s d d g g H H Y t.m.'.yX+Xt 8 Z =XZ l C $XkXpXiX/.!.~.].U.T.`.pXzXdX+Xm i i p.aXmXgX X9 = c 2XY.M.=.X.L H G G G G H H ",
"s d g G H H h K w.t.C._.qXh.y 4 l C l M $XkXzX!.G.S.F.5.1.>.1.2.P.{.iX0X#Xs.i z s.fXnX.Xq 5 C lX~.M.=.| J G g g G G G G ",
"s g G H h h h f e.b.J._.yX#Xz - % 8 M @XjXpX/.S.6.3.<.&.$.:.>.4.0.G.K.W.iX9Xd.a z a.vX|.q e |.xXQ.M.<.r.K G g g g g g g ",
"s g G G G G H H P t.N.).).7X` 8 > m #X0XwX!.S.S.5.5.=. .} &.%.:.4.>.0.L.~.5XdXoXb p ' C 4 z $XzXQ.<. .W G d s d G G G g ",
"g g h G G G G H H w.y.J.U.4Xj.B m j.eXE.c.S.5.5.o.&.&.T L R } { $.:.>.6.M.'.eX8Xd.a 8 > 4 N 8XpXG.5.o.I G d g g G G G G ",
"h G G g g s G G H P [ y.N.Y.Z.u.l.Z.H.B.6.5.3.%./ ( w.H D H L R  .{ #.:.1.D.A.qX3Xp.a 1 y i.8XwXG.5.&.( K H g g G G g g ",
"G G G g s g g g g g U e.N.2.n.n.6.2.1.>.6.3.%.o.T K K h G G H J P J ~ O.:.:.1.L.!.4Xp.N ` j.E.!.7.&.e.( K H G G G g d g ",
"G g g g g g G G g g ~ t.*.*.2.2.1.<.;.O.$.*...T L h g g g g G G g g L ~ .. .>.>.V.Y.R.v.>Xc.c.F.6.o.R L G G G G G G g g ",
"g g g g g g G G H H Y _ T U z.t.^ ^ ! U I R U H G G h g g g g g d f H L T } >.-.6.M.B.U.G.m.=.6.6.&.e.) h g G G G G g g ",
"s s s s s g G G H H H L H H e.q.F f g s d g f f s g g g g s s s s s g H T o.#.:.$.&.1.D.D.6.=.$.<. .) I H H H H G G g G ",
"s s s s s h H G H H H H g h ) I f f g s s s s s s s s s s s s s s s d h P | ^ o.X.( +.l.r.&.*.} z.( J H G H H G G G g g ",
"s s g g g G H G H G G g s s g g f G G g g d d d s s s s s s s g g g G G H K H _ W K ) W I ( w.W w.W H H G G G g g G G G ",
"H H G g G G G G G G G g s s s s d f G G G H H G d s s s g G G G G G G G g g H H G G H H H H H H J H G h g g g g s s d d ",
"G g s g g g s s s g g g s g s s s s s d d G G G g s s d G G g d s g g d g s g g G d G G G G G G G G g g s s s s s s s s ",
"G g s s s s g G G H G G G g g s d d d s s d d G g s s d G g g s s s d g g G G G G G G g d d s g g s s s s s s s s s s s "
};
