/* XPM */
static char *result[] = {
/* columns rows colors chars-per-pixel */
"60 60 131 2 ",
"   c #0B130A",
".  c #0B180C",
"X  c #111807",
"o  c #13130D",
"O  c #1D110F",
"+  c #121C0D",
"@  c #1A1C0D",
"#  c #0E1711",
"$  c #0D1C11",
"%  c #161611",
"&  c #1C1412",
"*  c #141B14",
"=  c #1C1C15",
"-  c #1D1C19",
";  c #211D0E",
":  c #231314",
">  c #231C14",
",  c #2A1F11",
"<  c #251619",
"1  c #241C1B",
"2  c #2B1D1D",
"3  c #1C200D",
"4  c #152217",
"5  c #1B2315",
"6  c #16221A",
"7  c #1C251A",
"8  c #1B281A",
"9  c #22210D",
"0  c #242314",
"q  c #2B2414",
"w  c #272917",
"e  c #2E2A16",
"r  c #24221C",
"t  c #2C241C",
"y  c #212A1C",
"u  c #2C2C1B",
"i  c #322613",
"p  c #3A2516",
"a  c #332815",
"s  c #3C2C16",
"d  c #31231B",
"f  c #3B2719",
"g  c #332B1B",
"h  c #3D2C1A",
"j  c #36321F",
"k  c #2D1E21",
"l  c #311E20",
"z  c #242521",
"x  c #292323",
"c  c #2F2F20",
"v  c #352D21",
"b  c #382F24",
"n  c #313022",
"m  c #3B3324",
"M  c #3C2B31",
"N  c #442D1C",
"B  c #492F1C",
"V  c #47311C",
"C  c #4C321E",
"Z  c #51331F",
"A  c #4D3522",
"S  c #463922",
"D  c #4D3A22",
"F  c #49352C",
"G  c #47392C",
"H  c #4B3B2E",
"J  c #533521",
"K  c #5B3623",
"L  c #533A25",
"P  c #5D3924",
"I  c #59372D",
"U  c #553B2A",
"Y  c #5A3C2B",
"T  c #403436",
"R  c #4B3435",
"E  c #473B30",
"W  c #4C3B3C",
"Q  c #523E33",
"!  c #613724",
"~  c #643B26",
"^  c #693C27",
"/  c #653D29",
"(  c #6B3E29",
")  c #713F2B",
"_  c #603C30",
"`  c #57422E",
"'  c #5A402A",
"]  c #564132",
"[  c #5B4336",
"{  c #544834",
"}  c #5D433A",
"|  c #544A39",
" . c #594B3B",
".. c #66402B",
"X. c #6D402C",
"o. c #77412D",
"O. c #7A432E",
"+. c #614432",
"@. c #6B4330",
"#. c #63453B",
"$. c #68473E",
"%. c #734530",
"&. c #7E4630",
"*. c #543F42",
"=. c #5C4945",
"-. c #614C45",
";. c #6B4B42",
":. c #644E4A",
">. c #694D4F",
",. c #794E42",
"<. c #755048",
"1. c #7C544B",
"2. c #705B4D",
"3. c #614A51",
"4. c #684F51",
"5. c #6E5154",
"6. c #64515B",
"7. c #7D5450",
"8. c #7F5A55",
"9. c #77585B",
"0. c #7A595A",
"q. c #756053",
"w. c #7B6356",
"e. c #765B63",
"r. c #804731",
"t. c #814832",
"y. c #82574E",
"u. c #825B4E",
"i. c #815750",
"p. c #865C56",
"a. c #805F63",
/* pixels */
"t.t.t.r.r.O.r.r.t.t.t.t.t.t.t.t.t.t.t.r.t.t.t.r.r.&.O.&.r.r.r.r.t.t.t.r.r.r.O.&.r.t.r.r.r.r.r.t.t.t.r.t.t.r.t.t.r.O.O.O.",
"t.t.r.O.O.O.O.r.r.r.r.t.t.t.t.r.t.t.t.t.r.r.t.t.r.r.O.O.) O.O.r.t.t.t.r.r.r.r.r.O.) O.) O.r.t.t.t.t.t.t.t.t.t.r.r.O.O.r.",
"r.t.r.O.O.r.r.&.O.O.r.r.t.t.t.t.r.r.r.r.r.r.r.r.r.r.r.r.O.O.O.O.) ) ) &.) ) &.O.) O.O.O.O.r.t.r.t.t.t.t.t.t.t.t.r.r.r.r.",
"&.&.r.&.&.r.t.r.r.r.r.r.t.t.t.t.r.r.O.r.O.&.O.O.&.r.r.r.r.&.O.O.&.) O.) ) &.) O.O.O.) O.r.t.t.r.t.t.t.t.t.t.t.t.t.t.t.t.",
"O.&.o.O.O.r.r.r.t.t.t.t.t.t.t.t.r.O.O.r.r.O.) O.) O.O.&.r.r.r.t.t.r.&.O.o.o.o.&.&.&.r.r.r.r.r.r.r.r.r.r.t.r.r.t.t.t.t.t.",
") o.o.o.) &.t.r.t.t.t.t.t.t.t.r.r.r.r.r.r.r.&.O.O.O.O.O.O.&.r.r.r.r.&.) o.o.O.t.r.&.&.r.r.&.O.O.&.r.r.r.r.r.r.r.r.r.r.r.",
"O.O.O.O.O.r.t.t.r.t.t.t.t.t.r.r.r.r.t.t.r.r.r.r.&.O.O.&.O.r.&.&.&.r.&.O.o.o.&.t.&.O.) O.O.O.O.&.r.r.&.&.O.r.&.O.O.O.O.r.",
"&.&.r.t.t.r.t.t.r.r.t.t.t.r.r.r.r.r.t.t.t.t.r.r.r.r.r.O.O.O.O.O.&.O.&.o.o.o.&.&.r.&.O.&.&.r.r.r.r.&.&.r.O.) O.O.O.O.O.O.",
"r.&.&.&.r.r.O.) r.r.r.r.r.&.&.r.r.r.r.r.r.r.O.o.O.O.&.) ) ) &.) o.o.o.o.o.o.o.O.O.O.O.O.r.t.r.&.O.O.O.) O.) O.) O.O.O.O.",
"r.&.O.o.O.) O.r.r.r.&.&.&.r.&.O.O.r.O.O.O.O.O.o.) O.) ) ) &.&.) o.o.o.o.o.o.o.o.) ) O.&.&.) &.&.r.&.O.O.O.O.O.O.O.O.O.r.",
"t.&.&.&.r.r.r.r.r.r.&.&.O.O.O.O.O.O.O.O.O.O.o.o.O.O.O.) _ ) ) ) O.o.X./ / ..o.o.O.r.r.r.&.r.r.r.r.r.r.r.r.r.r.r.r.r.r.t.",
"y.r.&.&.r.r.r.r.&.&.O.) O.) O.) O.) O.O.O.O.&.r.r.r.) ( ;._ ;._ I I [ [ ] Y X.&.&.t.r.r.) O.&.r.r.r.t.t.t.t.t.t.r.t.t.t.",
"r.r.r.r.r.r.O.O.r.&.) &.) O.) O.O.O.r.O.r.r.r.r.&.%.+. .-.:.=.W T T *.=.=.Q _ ) r.r.&.O.) t.&.&.O.r.r.r.r.r.r.t.t.t.t.r.",
"O.O.O.r.r.r.&.r.r.r.r.r.r.r.&.r.r.r.r.r.&.&.r.r.O.D | q.7.y.p.e.6.4.<.,.;._ R ( &.r.r.&.r.r.t.r.&.r.r.r.t.t.r.r.r.r.O.r.",
"O.) ) O.) O.O.O.&.r.r.r.r.r.r.r.t.r.r.r.O.O.O.O.%.S | w.u.p.a.a.e.9.i.y.1.$.F ) &.&.O.) &.r.t.t.r.r.r.t.t.r.r.r.O.O.O.O.",
"r.O.r.) O.O.r.O.r.r.r.r.r.r.r.r.r.r.r.r.&.&.r.r.%.' { 2.1.8.0.5.3.>.1.7.1.#.R ) ) O.) O.&.t.t.t.r.r.t.t.t.r.r.O.O.O.) O.",
"t.r.t.r.t.t.r.r.r.t.r.r.r.O.O.O.r.O.r.r.r.r.r.O.O...`  .$.$.;.=.M R ;.;.;.} A ( %.) ) &.) t.t.t.t.t.t.t.t.r.r.r.r.r.o.r.",
"t.t.t.t.t.t.t.t.t.t.r.r.r.r.O.o.O.r.r.r.r.r.O.O.o.o.X.' ` G H Y Y L E G E U / o.&.&.&.r.t.r.t.t.t.t.t.t.t.t.r.t.r.r.r.r.",
"t.t.t.t.t.t.t.t.t.t.r.r.r.r.r.O.r.r.r.r.r.r.O.O.o.o.X...Y L Y @.&...' P U / o.&.t.t.r.r.r.r.&.O.r.r.t.t.t.t.t.t.r.r.t.t.",
"t.t.t.t.r.t.t.r.t.t.r.r.r.r.r.r.r.r.r.r.r.r.r.r.O.o.o.o.O.O.O.&.O.t.t.o.O.O.&.&.t.) &.) O.O.&.r.r.t.r.r.r.t.t.t.r.r.t.t.",
"r.r.r.r.r.r.r.r.t.r.r.t.r.r.r.r.r.r.r.O.O.t.t.r.r.&.&.&.) O.) O.O.O.O.o.o.O.&.r.r.) O.r.r.r.r.r.t.r.r.O.O.r.r.r.r.r.t.t.",
"r.r.r.r.r.r.r.r.r.r.r.r.r.r.r.r.t.t.r.O.r.r.t.t.r.r.r.r.O.) ) O.o.O.O.O.O.O.O.&.O.r.O.r.r.r.r.r.r.r.O.O.O.O.r.O.r.r.t.t.",
"r.r.r.t.r.r.r.r.O.O.r.r.r.r.r.r.t.t.r.O.r.r.r.t.r.r.t.r.&.&.O.) o.o.o.O.O.r.r.r.r.r.) O.O.&.O.r.r.r.O.r.r.r.r.r.r.r.r.t.",
"t.r.t.t.r.r.r.r.O.r.r.r.r.r.r.r.t.t.r.r.r.r.r.r.r.r.t.r.) ) ) r.o.o.o.O.r.r.r.r.r.r.t.r.O.r.r.r.r.O.O.O.r.r.r.r.r.r.t.t.",
"t.t.r.r.t.t.t.r.r.r.r.t.t.t.r.r.r.r.r.r.&.r.r.r.t.t.r.O.) ) O.O.&.&.O.O.O.O.O.O.O.r.O.r.O.r.O.o.O.o.O.O.r.r.r.t.r.r.r.t.",
"t.t.r.r.t.t.t.t.r.r.r.t.t.r.r.r.r.r.r.r.r.r.r.r.r.r.r.O.O.O.O.O.o.&.&.O.O.o.O.O.o.o.o.o.O.o.o.o.o.o.O.o.r.r.t.t.r.r.t.r.",
"r.r.r.r.r.r.t.t.r.r.r.r.r.O.r.O.O.O.o.o.O.O.O.O.) ) O.O.O.) ) ) ^ X.O.O.O.&.O.O.O.o.o.o.o.o.o.O.O.O.r.r.t.r.r.t.r.r.r.r.",
"r.r.r.O.r.r.r.r.r.r.r.r.r.o.o.o.o.O.o.o.o.o.o.o.O.O.O.) O.O.O.) X.o.^ V P O.t.t.r.O.o.o.o.O.r.r.r.r.r.r.r.r.r.r.r.r.r.r.",
"r.r.r.r.O.O.O.O.O.O.O.o.O.o.o.o.o.O.O.o.o.o.o.O.o.o.o.o.) O.) O.O.X.~ a Z o.r.r.r.r.O.o.o.r.t.r.O.O.O.O.o.o.O.O.r.r.o.r.",
"r.O.o.o.o.o.o.o.o.o.O.o.O.O.O.O.O.r.r.O.&.O.O.O.o.O.o.O.O.O.O.O.&.&.X.C Z o.O.r.r.r.o.o.o.r.t.r.O.o.O.&.r.r.t.t.r.r.r.r.",
"o.o.o.o.o.o.o.o.O.o.O.O.r.r.O.o.o.O.O.O.O.&.&.&.r.O.O.O.) O.) O.O.t.O.O...X.r.r.r.r.O.O.o.r.t.r.r.r.r.r.r.t.r.r.r.r.O.o.",
"O.O.O.r.O.r.O.O.r.r.r.O.r.r.r.O.O.O.o.O.o.O.o.O.o.O.o.O.O.O.) ) ~ o.t.t.O.o.r.r.r.r.r.r.r.r.t.t.r.r.t.t.t.r.r.O.o.o.o.o.",
"r.r.O.r.r.r.O.r.r.O.O.o.O.r.r.r.r.O.O.O.O.O.o.o.o.o.o.o.O.o.o.X.X.O.t.t.r.t.t.t.t.t.t.t.t.r.t.t.r.r.r.r.r.r.r.r.r.r.O.O.",
"r.O.r.O.o.o.o.O.r.O.o.O.O.O.O.O.r.r.t.t.t.&.o.o.o.o.O.O.r.X.~ ..o.r.t.t.r.t.t.r.r.r.t.t.t.t.t.t.r.r.O.r.r.r.O.O.o.O.O.r.",
"o.o.o.o.o.o.o.o.O.r.r.O.O.O.O.O.O.O.&.r.t.t.O.o.o.O.t.t.X.Z s s ..o.o.O.O.r.r.r.r.O.t.r.r.r.r.r.r.O.o.o.o.o.o.o.o.o.o.o.",
"o.o.o.o.O.O.O.O.r.r.r.r.r.r.O.r.r.O.&.&.t.t.O.o.P o.&.O.C 9 3 9 ~ &.&.t.r.r.O.r.r.O.r.O.O.r.O.O.o.o.o.o.o.o.o.o.o.o.o.o.",
"o.o.r.r.r.r.r.r.r.r.r.r.r.r.r.r.r.r.r.r.r.r.o.P C X.&.o.s 9 9 i ^ r.r.r.r.r.r.O.o.O.o.o.O.o.o.o.o.o.O.o.O.O.O.O.o.r.r.o.",
"o.O.r.r.r.O.r.O.&.O.O.O.O.r.r.O.r.O.r.r.r.&.~ C V ^ O.^ C V Z Z o.&.r.O.o.o.o.o.o.o.o.o.O.O.o.o.O.O.O.o.o.O.O.O.r.r.r.r.",
"o.O.r.r.O.o.o.o.O.&.r.r.r.r.r.r.&.O.O.O.O.O.( ~ ~ o.o.o.( ^ ( o.o.o.o.o.o.O.o.o.O.O.o.o.O.O.O.r.O.r.r.r.r.r.r.t.r.r.r.r.",
"o.O.r.r.r.r.r.r.r.r.r.r.r.O.O.O.O.O.O.o.O.O.X.o.o.o.o.o.X.^ ( ^ ~ Z V Z ^ o.o.O.o.o.o.O.O.O.r.r.r.r.r.t.t.t.t.t.r.r.r.r.",
"O.O.r.r.t.r.&.&.r.r.r.r.O.O.O.O.O.O.) ) O.O.O.O.o.o.X.! C C A C N e 3 q J ) O.&.r.O.O.r.r.O.O.O.r.t.t.t.t.t.t.t.t.&.t.&.",
"&.&.O.r.&.&.O.&.r.r.t.r.&.O.O.O.O.O.O.&.O.O.O.^ N N h e > 2 , : r 0 = @ q B / O.O.r.r.r.r.r.r.r.O.r.t.t.t.t.t.O.O.&.&.&.",
"r.r.r.O.&.o.O.O.r.r.r.t.r.r.r.r.r.r.r.r.O.) ~ V w r t r & & O O < 2 1 = @ ; g B ! ) O.r.t.t.r.r.t.t.t.t.t.t.O.O.O.&.&.t.",
"O.) ) O.o.o.o.o.O.r.t.r.r.r.r.r.O.O.O.^ ! K N d r > 1 2 & : : < , < > < % o + & p Z ) O.t.r.r.r.t.t.t.t.t.t.t.r.&.t.&.t.",
"O.) r.) O.o.O.O.&.t.O.O.O.O.) &.) / K N , q r 1 2 < < < < 2 l l 2 < : & - - *   o , K X.r.O.r.r.t.r.t.t.t.t.t.r.t.t.t.t.",
") O.) r.&.&.t.&.&.o.o.J B f N B N v l d d d l < < < < < 2 k l l l 2 2 < 1 1 - - % % e f N V X.r.t.r.t.t.t.t.t.r.t.t.t.t.",
") r.r.t.t.&.o.( P A N q > = : 2 r - & 1 k 2 k k 1 - 1 1 1 x k t 2 2 1 1 1 - - 1 - = > > ; 3 s Z ~ X.( ^ X.O.r.r.r.t.t.O.",
") ) r.) X./ K B i @ .   . * * - * % % < 1 < k z k - z z r r 1 > 1 1 1 1 < - & - 1 x 0 = +   . 9 V V V V V P ^ X.O.r.r.O.",
"r.) K p e 0 3 X     $ 4 4 4 * # #   * 1 z x x z z 8 7 7 6 7 y w u r y r 1 % o o * 7 = 5 8 5 8 8 y 5 3 . X 9 i p ^ O.&.&.",
"r.( A e e q 0 ; 9 > 0 u u u w > 0 2 t v b b b b n g c u g g j j m m m m g e 2 > q w 0 u u u u u e w w 9 9 q q i V ~ O.&.",
"r.^ K S V V V C C Z A J A A A S A L L L Y Y Y U U U I K L L ' ` ' ` ' U L L Z C D D D D C D ' L Z Z L L Z C C C C ~ o.r.",
"r.r.&.) o.o.o.O.o.O.O.r.&.%.&.&.&.&.&.&.&.&.&.%.) %.&.&.&.&.&.O.&.O.o.o.O.O.O.O.O.&.&.O.&.&.%.O.&.O.&.&.&.O.&.&.O.O.o.r.",
"&.t.t.&.O.t.t.t.r.) r.r.t.t.r.r.r.r.r.r.&.t.&.&.) O.O.O.O.r.t.t.&.&.t.t.t.&.O.&.r.r.t.t.t.t.r.r.t.&.t.&.t.&.t.t.t.r.o.r.",
"&.&.O.O.&.&.t.t.r.r.r.t.t.t.t.r.O.O.O.&.&.&.&.t.r.r.t.r.r.r.r.r.O.O.t.t.t.t.t.&.t.t.t.r.t.t.O.O.O.O.&.&.&.&.t.t.t.r.O.r.",
"O.O.o.O.O.&.t.t.t.t.r.r.t.t.r.r.&.O.) O.O.O.&.&.O.r.r.r.O.) O.) o.O.O.t.t.t.t.t.t.t.t.t.t.r.O.O.&.&.t.t.t.t.t.t.t.r.O.t.",
"o.o.o.o.o.O.t.t.t.t.t.r.r.r.r.t.r.O.&.O.o.o.O.%.O.O.) ) O.O.O.) o.O.O.t.t.t.t.t.t.t.t.t.t.t.r.r.t.t.t.t.t.t.t.t.t.t.r.O.",
"O.O.O.&.&.r.t.r.r.r.r.r.r.) r.r.r.r.r.r.r.O.O.O.O.o.o.o.) r.) r.O.&.&.t.t.t.t.t.t.r.t.t.t.t.t.t.t.t.t.t.t.t.t.t.t.r.r.r.",
"t.t.r.&.r.r.r.r.r.r.r.&.) ) ) O.O.&.r.r.t.t.t.t.O.o.) O.) r.t.t.r.r.t.t.&.&.r.r.r.r.r.r.t.t.t.t.t.t.t.&.O.r.O.O.O.O.O.O.",
"r.&.&.O.&.&.) &.&.&.&.&.) &.&.) ) O.O.O.O.O.r.r.r.) O.O.r.r.r.&.O.O.&.O.O.O.O.&.&.&.&.O.r.r.r.&.r.t.O.O.o.o.o.o.O.o.O.o.",
"r.O.o.o.) &.&.&.&.r.r.r.&.&.&.O.O.O.O.O.O.O.O.r.r.O.) O.r.r.&.) O.o.O.&.&.t.t.t.t.r.&.&.O.O.O.&.O.O.O.O.o.o.o.o.o.o.o.o."
};
