/* XPM */
static char *result[] = {
/* columns rows colors chars-per-pixel */
"60 60 113 2 ",
"   c #1B0C0D",
".  c #071309",
"X  c #0C130C",
"o  c #0D180C",
"O  c #111407",
"+  c #14140C",
"@  c #19150B",
"#  c #15180E",
"$  c #1C0D12",
"%  c #0E1910",
"&  c #161717",
"*  c #1C1413",
"=  c #131B14",
"-  c #1B1A14",
";  c #151E18",
":  c #1D1D19",
">  c #221D0C",
",  c #221515",
"<  c #221B15",
"1  c #2E1F16",
"2  c #241519",
"3  c #2A131F",
"4  c #241C1B",
"5  c #2B1D1E",
"6  c #13210E",
"7  c #19200D",
"8  c #152011",
"9  c #1B2313",
"0  c #162119",
"q  c #1B231C",
"w  c #1D281F",
"e  c #252213",
"r  c #2A2213",
"t  c #2C2A14",
"y  c #23221B",
"u  c #2B241A",
"i  c #2D2A1B",
"p  c #332415",
"a  c #3B2716",
"s  c #322B15",
"d  c #382B16",
"f  c #33261A",
"g  c #352A1B",
"h  c #3B2A1B",
"j  c #271D20",
"k  c #2B1D21",
"l  c #301F20",
"z  c #262421",
"x  c #2A2321",
"c  c #2F2729",
"v  c #302122",
"b  c #3B2520",
"n  c #302B21",
"m  c #3C2F20",
"M  c #3B242B",
"N  c #342E2B",
"B  c #392C2E",
"V  c #3E3523",
"C  c #452D1B",
"Z  c #502F1F",
"A  c #4B311E",
"S  c #53351F",
"D  c #51381F",
"F  c #403327",
"G  c #4E332C",
"H  c #4D3D2B",
"J  c #553522",
"K  c #5A3723",
"L  c #533822",
"P  c #5B3925",
"I  c #51352A",
"U  c #543E2C",
"Y  c #5D3D2A",
"T  c #442D37",
"R  c #503737",
"E  c #523B33",
"W  c #593B33",
"Q  c #633A26",
"!  c #643D2A",
"~  c #6B3E2A",
"^  c #713F2B",
"/  c #564434",
"(  c #5F473A",
")  c #65402C",
"_  c #6F412B",
"`  c #77412D",
"'  c #7A432E",
"]  c #6A443A",
"[  c #624C3D",
"{  c #6E4B3D",
"}  c #7E4630",
"|  c #72473B",
" . c #5D3F48",
".. c #524242",
"X. c #5E4747",
"o. c #5D4D44",
"O. c #664140",
"+. c #694D4A",
"@. c #764C45",
"#. c #7B4E43",
"$. c #745345",
"%. c #7B5245",
"&. c #76544C",
"*. c #785148",
"=. c #644E53",
"-. c #695555",
";. c #735053",
":. c #804731",
">. c #814832",
",. c #81574B",
"<. c #88645E",
"1. c #886362",
"2. c #886867",
/* pixels */
">.>.>.:.} } :.:.:.:.:.:.:.>.>.>.>.>.>.>.:.:.:.:.:.} } ' :.:.:.:.>.>.>.>.' ' ' ' :.:.:.' } :.:.>.>.>.:.>.>.>.:.>.:.' ' :.",
">.>.:.' ' ' ' } :.:.:.:.>.>.>.>.:.>.>.>.:.:.:.>.:.:.' ' ^ } } } >.' :.:.>.>.:.' ' ' ' ' } :.:.>.>.>.>.>.>.>.>.:.:.' :.' ",
":.>.:.' ' :.:.} ' } :.:.>.>.>.>.:.:.:.:.:.:.:.} :.:.:.} ' ' ^ ' ` ` ' ' ' ' ` ' ` ` ' ` ' } >.>.>.>.>.>.>.>.>.>.:.:.:.:.",
"} } :.} } :.:.:.:.:.:.:.>.>.>.>.:.} } :.} } ' } } :.:.:.:.} ' ' ' ` ` ` ' ` ` ` ` ` ' ' } >.>.>.>.>.>.>.>.>.>.>.>.>.>.:.",
"' } ` ` ' } :.:.>.>.>.>.>.>.:.:.:.' ' } } } ' ^ ^ ' ' } :.:.:.:.>.} ' ` ` ` ' ' ' ' >.>.>.>.>.:.:.:.:.:.>.:.>.>.:.:.:.:.",
"` ` ` ` ' ' >.>.>.>.>.>.>.>.>.:.:.:.:.:.:.:.} ' ' ' ' ' } } } :.>.>.} ' ` ` ' >.>.:.' :.:.' ' ' } :.:.:.:.:.} :.:.:.:.:.",
"` ' ' ' ' } >.>.>.>.>.>.>.>.:.:.:.:.>.>.:.:.:.:.} } ' } ' } } } :.:.' ' ` ' } >.:.' ' ' ' ' ' } } :.:.} } :.} ' :.:.:.:.",
"' } :.>.>.>.>.>.:.:.>.>.>.:.:.:.:.:.>.>.:.:.:.:.:.} } } ' ' ' ' } } ' ` ` ` ' } :.' ' ' :.:.>.>.:.} } ' ' ^ ' ' ' ^ ^ ' ",
">.} } } :.:.' ' ' :.:.:.} } } } :.:.:.:.} } ' ' ' ' ' ' ' ` ` ` ` ` ` ' ` ` ' ' ' ` ' } } } } } } ' ' ^ ` ` ` ^ ' ' ' ' ",
">.} ` ` ' ^ ' :.:.:.} } } } } } ' :.' ' } ' ^ ' ' ^ ^ ' ^ ' ` ` ` ` ` ` ` ` ` ' ` ` ' ' } } } } } } ' ' ' ' ' ' ' ' ' } ",
">.} } } :.:.>.>.:.:.} } ' ' ' ' ' ' ` ' ' ` ' ' ' ' ' ' ' ' ' ` ` ' ` ` ` ' ' ' ' ' >.:.} } } >.:.:.:.:.:.:.:.:.:.:.>.>.",
",.>.} } :.:.:.:.:.:.^ ^ ' ^ ' ^ ` ' ` ' ' ' } :.:.:.:.:.:.:.:.' ' } ' } ' ' ' ' } } } ' ' ' } } :.:.>.>.>.>.>.:.>.>.>.>.",
">.:.>.>.>.:.^ ' :.} } ^ ' ^ ^ } ' ' :.:.:.:.:.:.:.:.:.:.:.:.>.:.} } ' ' } } } :.:.:.} ' } } } } ' :.:.:.:.:.>.>.>.>.:.:.",
"' ' ' :.:.:.:.:.:.:.:.:.} } :.:.' :.:.:.:.:.} } :.:.:.:.:.:.:.:.:.:.} ' ' ' } ' } :.} } } } } } :.} :.:.>.>.:.:.:.:.:.:.",
"' ' ^ ^ ^ ^ :.' :.:.:.>.:.:.:.:.:.:.:.:.' ' ' } :.' ' ' ' ' :.:.>.} } } } >.} } } } ' ' } } >.>.:.:.:.>.>.:.:.} ' ' ^ ' ",
":.' ' ' ^ :.:.' } :.:.:.:.:.:.:.:.:.:.:.' } :.:.:.:.' ' ' ' ' ' ' ' ' ' } ' ' ' ` ` ` ` ' >.>.>.:.:.>.>.>.:.} } ' ' ' ^ ",
">.:.:.:.:.:.:.:.:.>.>.:.} } ' ' ' } :.:.:.:.:.' :.:.:.:.:.' ' ' ` ` ` ` ` ` ` ` ` ` ` ` ' } >.>.>.>.>.>.>.:.:.:.:.' ' ' ",
">.>.>.>.>.>.>.>.>.>.>.>.:.} ' ' ' :.:.:.:.:.' ' ' ' :.:.:.:.:.} } } ` ` ` ` ' ' ' } } } >.>.>.>.>.>.>.>.>.>.>.>.>.:.:.:.",
">.>.>.>.>.>.>.>.>.>.:.>.:.:.} ' :.:.:.:.:.:.' ' ^ ' ' ' } ' } :.>.>.} ` ` ` ' } >.} } >.} :.} } :.>.>.>.>.>.>.:.>.>.>.>.",
">.>.>.>.>.>.>.>.>.>.:.:.:.:.:.:.:.:.:.} :.:.:.:.' ' ' ^ ' ' ' ' } } } ' ` ' } >.} ' ` } ' ' } } :.:.:.:.:.>.:.:.>.>.>.>.",
":.:.:.:.>.>.>.>.>.:.:.>.:.:.:.>.:.:.:.' } :.>.>.:.} } ' ' ' ' ^ ' ' ' ` ` ' } } >.} ` ' } :.:.:.>.:.:.' } :.:.:.>.>.>.>.",
":.} :.:.>.>.>.:.:.:.:.:.:.:.:.:.>.:.:.' :.:.:.:.:.:.} } ' ^ ' ' ` ` ' ' ' ' } } } ' } } :.:.:.>.:.} ' ' } ' ' } :.:.>.>.",
":.:.>.>.:.:.:.} ' ' } } :.} :.:.>.>.:.} :.:.:.:.:.:.:.:.' ` ^ ' ` ` ' ' } } } } } } ` } ' } } } :.} ' :.:.:.} :.' :.:.>.",
">.>.>.>.:.:.:.} ' } :.} :.:.:.:.>.>.:.:.:.:.:.:.:.:.:.} ' ` ` ` ` ` ' ' } } } } } } } } } } } } } ' ' } :.:.:.:.>.:.>.>.",
">.>.:.:.:.>.>.:.:.:.>.>.>.:.:.:.:.:.:.:.:.:.:.:.:.>.} ' ' ' ' ' } } ' ' ' ' ' ' ' ' ' ' ' ' ' ` ' ` ` ' :.:.>.>.>.>.>.>.",
">.>.:.:.>.>.>.>.>.>.>.>.>.:.:.:.:.:.} :.:.:.:.} :.:.' ' ' ^ ' ' } } } } ' ` ' ' ' ' ' ` ' ` ` ` ` ` ' ' :.:.>.>.>.>.>.>.",
":.:.:.} :.:.>.>.:.:.:.:.:.' ' ' ' ' ` ` ' ' ' ' ' ' ' ' ' ^ ^ ' } } } } } } } } ' ` ' ` ` ` ' ' ' ' :.:.>.>.>.>.:.:.:.:.",
":.} } } } :.:.:.:.:.:.' :.' ' ' ' ' ` ` ` ' ` ` ' ' ^ ' ` ' ' ' ' ' } } } } >.>.>.' ` ` ` ' } :.:.:.:.:.>.} } :.:.:.:.:.",
":.:.:.' ' ' ' ' ' ' ' ` ` ` ` ` ` ' ` ` ' ' ^ ' ' ^ ' ^ ` ` ` ` } ' ' ' ' ' } >.:.} ' ` ' } :.:.' ' ' ' ' ' ' ' } :.' :.",
"} ' ' ' ' ^ ^ ' ` ` ` ' ' ' ' ' ' :.:.' } ' ' ' ' ' ' ' ` ` ' ' } } } } } :.} :.>.} ' ` ' :.>.:.' ' ' ' } } >.>.>.>.:.:.",
"' ^ ' ' ' ' ' ' ' ' ' } :.} ' ' ` ' ' ' ' ' ' ' ' } ' ' ' ^ ` ` } } >.} :.>.>.>.:.} ' ' ' } >.:.:.} :.:.>.>.:.:.' ' ' ` ",
"} ' ' ' ' ' ' ' :.:.} ' } :.:.' ' ` ' ' ' ' ' ' ' ' ^ ^ ^ ^ ^ ^ ` } ' _ ` } :.>.>.:.:.} :.:.>.:.>.>.>.>.>.>.} ' ' ' ` ` ",
"} } ' :.:.' ' ' :.} ^ ' } } :.:.:.' ' ' ' ^ ^ ' ' ' ^ Q V V / ) ! ! L g h ) ' } } } >.>.>.>.>.>.:.:.:.:.>.:.:.:.} } ' ' ",
"} } ' ' ' ' ' ' ' } ' ' ' ' } } :.:.>.>.>.:.' ' ^ ^ P H / ( / / b F Y / / I ) ' } >.>.} >.>.>.>.:.:.:.' } :.' ' ' ' :.' ",
"' ' ' ' ^ ' ' ^ ' :.} ' ' ^ ^ } ' ' :.:.>.>.} ^ ` ~ Y / { %.&.+.R W ] | | E I ^ } } } } } } } >.' ' ' ` ' ` ` ` ` ` ` ` ",
"^ ' ^ ' ' ' ' } :.>.:.:.:.} } } } :.' :.>.:.} ^ ` ) U [ %.*.1.1.;.@.#.#.#.R R ^ } } } } } } } } ` ` ` ` ` ` ` ` ` ` ` ` ",
"' ` ' :.:.:.:.:.:.:.:.} :.:.:.:.:.:.:.:.>.:.:.^ ' ! U o.$.<.2.1. .O.+.@.&.R G ^ ` ' ` ` ` ` ` ` ` ` ' ` ` ` ' ` ' ' ' ' ",
"^ ' >.:.} ' } ' } ' ' } } } } } ' } :.:.:.>.>.>.' ` ! / o.-.=.T k M  .X...R ! ^ ` ` ` ` ` ` ` ` ` ` ` ' ' ' } } :.:.:.:.",
"' ' :.:.' ' ' ' ' } :.:.:.} :.:.:.} } ' :.:.:.^ Q K J F N B M 2 $ 3 k c c I ~ ' ` ' ` ` ` } } } } } } } >.} >.>.:.>.>.>.",
"` ' :.:.:.:.' :.} } :.:.} } ' ' ' ' ^ ' ^ ^ ^ Q C s g n - @ $ $ 2 j j & ; f Z Q ~ ` ` ` ' } } } >.>.>.>.>.>.>.>.>.>.>.>.",
"' :.:.:.:.:.' ' :.:.:.} ' ^ ' ^ ` ` ` ^ ~ ~ Q C r 9 y u < $   , 5 2 : y & X @ a S ` ' ' >.} ' ' } } >.>.>.>.} } :.} :.:.",
"' ' ' :.:.:.:.:.:.:.:.} } } ' } ` ` Q Q C p r 4 e < y , , 2 5 l 5 2 * - - = X O > S ` :.} >.>.} } } >.>.>.>.} } } } } } ",
":.:.:.' ' ' ` ' :.:.:.:.^ K Z Z A A F f 1 1 5 u 4 , , , 5 5 5 v k 5 4 < < : - # @ r a A A _ } } } >.>.} >.>.} } ' } } :.",
"' ` ` ` ` ` ` _ ^ ^ Q J C 1 < > e y < * , l v x 4 , , < 5 l 5 k u 5 4 4 4 : : : : # - e > h K ) _ _ ` ` } >.>.} } } :.:.",
"` ` ` ` ^ ~ Q Q S C r # . . = = 0 ; & * 2 5 j j x x 4 j y x j 4 4 4 < - * - - : z ; ; 0 X o e h A A C D ) _ ` } :.:.:.:.",
"` ` ` ` Q d p e 7 o o = # o 0 0 % X X - 4 j x x x z y q 4 y y y x z x y : @ O + q z q 0 q w w 0 8 6 6 9 t s D ` } :.:.:.",
"' ' :._ D s s t r r e r e u i u r r r f f b b g g g f f f g g V V V V m g p r e u i i t i n i i t t t s t t d D ^ } :.:.",
"` ' :.` _ D D P D S K P P P Y L K K P Q P Y P K K J J K P K P ! ! ) ) ! Q Q K K P Y L L ) P P ) ) Q D D P D S Q ^ } } } ",
"' ' :.>.>.>.>.>.>.>.>.>.>.>.>.>.>.>.>.>.>.>.:.' ' ` ' >.>.} >.>.>.>.>.>.>.>.>.:.>.>.>.>.>.>.>.>.>.>.:.:.:.^ ' } :.:.:.} ",
"} :.>.>.:.:.:.>.>.>.>.>.>.:.>.>.:.>.>.>.>.>.>.:.' ' } >.>.>.>.>.>.>.} } >.>.>.>.>.>.>.:.>.>.>.>.>.>.>.>.:.} ' } :.:.:.:.",
":.>.:.:.} ' } :.>.>.>.>.>.>.>.>.>.>.>.:.:.:.>.:.} >.>.>.>.>.>.>.} } ^ } } :.} >.>.>.>.>.>.>.>.>.>.>.>.>.:.:.} :.:.:.} :.",
":.>.} ' ` ' ' } ' } :.>.>.>.>.:.>.>.>.>.>.:.:.:.' ' >.} >.>.>.>.} } } } } } } } :.>.>.>.>.>.>.>.>.>.>.>.:.:.:.:.:.} ' :.",
"} } :.} } } >.:.' ' >.:.>.>.>.>.:.:.:.:.>.:.>.:.' ' ' } ' :.>.>.} } >.>.} } } } :.:.>.>.:.:.} :.} :.:.:.:.:.:.:.:.:.' } ",
":.} } ' } } >.>.:.:.:.>.>.>.>.} ' ' ' ' :.:.:.:.>.>.} } >.>.' ' ^ } } } >.>.} } :.>.>.>.:.:.} ' ^ } } :.:.:.:.:.:.:.} } ",
"' ' ` ` ' ' >.>.>.>.>.>.>.>.>.>.' ' ' ` ' ' ' ' ' ' ' ' ' ' ` ` ^ } } } >.>.>.>.>.:.>.>.:.:.:.} :.:.>.>.:.>.>.>.:.:.} :.",
"` ` ` ` ' } >.>.>.>.>.>.:.' } >.:.:.' ` ` ' ' ' ' ' ' ` ` ' ` ` ^ ^ } >.:.>.>.>.>.>.>.>.:.:.:.:.:.:.>.>.:.>.:.>.:.:.} :.",
"` ' ' ' } >.>.>.>.>.} } ' ` ' } :.:.:.:.} ' ' ' ` ` ` ` ' ' ` ' :.:.>.>.:.:.:.:.>.>.>.:.:.>.>.>.:.>.>.>.:.:.:.:.:.} } :.",
":.>.>.:.>.>.>.} >.>.>.' ' ` ` ' ' :.:.:.:.>.>.>.' ` ` ` ' >.>.>.>.>.:.>.:.:.:.:.>.:.:.:.:.:.>.>.>.>.:.:.} } } ' ' ' ' ' ",
">.' ' ' ' ' ' ' ' } } ' ' ' ' ' ` ` ' ' ' } :.:.} ` ` ' >.>.' ' ^ } ^ :.^ } } } } } } } :.:.:.>.} } :.} ' ' ^ ' ^ ' ^ ' ",
">.' ' ' ' ' ' >.>.>.>.>.} } ' ' ' ' ' ' ' ' ' } } ` ` ' >.:.} ` } } ^ :.} :.:.>.:.:.} } ^ } } ^ } } ' ^ ^ ' ' ^ ' ' ^ ' "
};
