/* XPM */
static char *result[] = {
/* columns rows colors chars-per-pixel */
"60 60 171 2 ",
"   c #040505",
".  c #0A0604",
"X  c #050B05",
"o  c #0B0B06",
"O  c #050609",
"+  c #0B050A",
"@  c #050A0A",
"#  c #0B0C0C",
"$  c #110D06",
"%  c #120C0B",
"&  c #1A0E0C",
"*  c #0D1106",
"=  c #06160F",
"-  c #0D120C",
";  c #0B1A0D",
":  c #121007",
">  c #14130C",
",  c #1A140D",
"<  c #141A0C",
"1  c #1B1B0E",
"2  c #0D0E11",
"3  c #130E12",
"4  c #190F12",
"5  c #150F18",
"6  c #071412",
"7  c #0D1312",
"8  c #0E1914",
"9  c #0E1918",
"0  c #131413",
"q  c #1A1513",
"w  c #151B14",
"e  c #1B1A15",
"r  c #151519",
"t  c #1C161A",
"y  c #161B1A",
"u  c #1C1B1C",
"i  c #21160E",
"p  c #241A0E",
"a  c #291D0E",
"s  c #231612",
"d  c #241C14",
"f  c #2B1C13",
"g  c #21171C",
"h  c #231C1B",
"j  c #2B1E19",
"k  c #331E14",
"l  c #391E15",
"z  c #311F1A",
"x  c #15230F",
"c  c #1A220C",
"v  c #142314",
"b  c #1D2213",
"n  c #1B2817",
"m  c #16211E",
"M  c #1C221C",
"N  c #1C291F",
"B  c #22230E",
"V  c #232314",
"C  c #2B2314",
"Z  c #262A13",
"A  c #2B2A15",
"S  c #24231A",
"D  c #2B231B",
"F  c #272919",
"G  c #2D2A1B",
"H  c #342215",
"J  c #3B2416",
"K  c #332A16",
"L  c #3B2917",
"P  c #34241B",
"I  c #3A251A",
"U  c #34291A",
"Y  c #3C2C1B",
"T  c #3D301B",
"R  c #1C1C20",
"E  c #221D21",
"W  c #281F22",
"Q  c #1E2221",
"!  c #232222",
"~  c #2A2224",
"^  c #242C25",
"/  c #2C2920",
"(  c #262429",
")  c #2B262A",
"_  c #2D292D",
"`  c #342524",
"'  c #3D2720",
"]  c #3D2C20",
"[  c #2E332B",
"{  c #303723",
"}  c #3D3226",
"|  c #33372C",
" . c #392F34",
".. c #393F34",
"X. c #373338",
"o. c #3B393E",
"O. c #42271B",
"+. c #432C1C",
"@. c #4A2D1E",
"#. c #512F1F",
"$. c #44321D",
"%. c #4C321E",
"&. c #50321F",
"*. c #422D21",
"=. c #4B2E21",
"-. c #512E21",
";. c #433222",
":. c #4C3322",
">. c #463A27",
",. c #453429",
"<. c #493B2A",
"1. c #543422",
"2. c #5B3525",
"3. c #553923",
"4. c #5C3925",
"5. c #5D3628",
"6. c #5F3929",
"7. c #603725",
"8. c #633A26",
"9. c #683B27",
"0. c #643C29",
"q. c #6B3E2A",
"w. c #723F2B",
"e. c #3C413A",
"r. c #664028",
"t. c #6D402B",
"y. c #76412D",
"u. c #7A432E",
"i. c #754532",
"p. c #7E4630",
"a. c #7F4832",
"s. c #424342",
"d. c #4C4F45",
"f. c #4F4B4B",
"g. c #524F4E",
"h. c #5B5854",
"j. c #5F5558",
"k. c #5D625C",
"l. c #635F64",
"z. c #6B6866",
"x. c #6D656B",
"c. c #6E6B6F",
"v. c #726A69",
"b. c #777576",
"n. c #7D7B77",
"m. c #79777C",
"M. c #767B79",
"N. c #804731",
"B. c #814832",
"V. c #88523E",
"C. c #7A817D",
"Z. c #8A8489",
"A. c #8E888C",
"S. c #938D92",
"D. c #969193",
"F. c #989196",
"G. c #A19A97",
"H. c #A2979B",
"J. c #A2A1A3",
"K. c #A8A7A9",
"L. c #B5ABAD",
"P. c #AEACB0",
"I. c #B1ADB0",
"U. c #B6B1B6",
"Y. c #BBB2B2",
"T. c #B9B6BB",
"R. c #BDBBBF",
"E. c #C1B7BD",
"W. c #C5BBBE",
"Q. c #C1BFC2",
"!. c #C4C4C4",
/* pixels */
"B.B.B.N.N.u.N.N.N.B.B.B.B.B.B.B.B.N.B.B.N.N.B.N.p.N.p.u.p.N.N.N.B.B.N.N.N.u.w.N.N.N.N.N.N.N.N.B.B.B.N.B.B.B.B.B.N.p.u.u.",
"B.B.N.u.u.u.u.N.N.N.N.N.N.B.B.B.B.B.B.B.N.N.B.B.N.N.N.w.u.u.u.p.N.N.N.N.N.N.N.N.w.N.w.w.u.N.N.N.B.B.B.N.B.N.B.B.p.u.p.p.",
"N.B.N.u.u.N.N.p.u.u.N.N.B.B.B.N.N.N.N.N.N.N.N.N.N.N.N.N.u.u.u.w.w.u.y.u.y.u.w.N.w.u.u.u.u.N.N.N.N.B.B.B.B.B.B.B.N.N.N.N.",
"p.p.N.p.p.N.N.N.N.N.N.N.B.B.B.B.N.N.u.N.u.p.u.p.N.N.N.N.N.N.u.u.u.y.y.u.w.u.u.w.u.u.w.u.N.B.B.N.B.B.B.B.B.B.B.N.B.B.B.N.",
"p.u.y.u.u.N.N.N.N.B.B.B.B.B.B.B.N.u.u.N.N.p.u.w.u.u.p.N.N.N.N.B.B.p.u.w.u.y.y.u.p.N.N.N.N.N.N.N.N.N.N.N.B.N.N.N.N.N.N.N.",
"w.u.w.y.w.p.B.N.B.B.B.B.B.B.B.B.N.N.N.N.N.N.N.w.u.u.w.u.p.u.N.N.B.B.N.u.y.y.u.B.N.p.p.p.p.p.u.p.N.N.N.N.N.N.N.N.N.N.N.N.",
"u.w.u.u.u.N.B.B.N.B.B.B.B.B.N.B.N.N.N.B.N.N.N.N.p.p.u.u.u.u.N.u.N.N.N.y.y.u.p.B.N.u.w.u.u.u.u.p.N.N.N.u.p.p.N.p.p.p.p.p.",
"p.N.N.B.B.B.B.B.N.N.B.B.B.N.N.N.N.N.B.B.N.N.N.N.p.p.p.p.u.u.u.N.N.u.u.y.y.y.p.p.p.u.p.p.p.N.N.N.N.N.p.p.u.u.u.w.w.u.u.u.",
"B.N.p.p.N.N.p.p.u.N.N.N.N.N.p.N.N.N.N.N.N.p.u.u.u.u.u.w.u.u.u.w.y.y.u.y.u.y.u.u.N.w.u.u.p.N.N.N.u.u.w.u.u.w.u.w.u.w.u.u.",
"N.p.w.u.w.u.w.N.N.N.p.p.u.N.u.N.u.N.u.N.p.u.y.y.u.w.w.p.u.w.u.u.y.y.y.y.u.y.u.y.w.w.u.u.u.u.u.p.N.u.u.u.u.w.u.u.p.p.p.N.",
"B.N.p.p.N.N.N.N.N.N.p.p.u.u.u.u.u.u.u.u.y.y.u.y.u.u.u.w.w.q.9.7.4.0.t.y.y.y.9.9.w.N.N.N.N.N.N.N.N.N.N.N.N.N.N.N.N.N.N.N.",
"V.N.N.N.N.N.N.N.N.N.w.w.u.u.w.w.w.u.y.y.y.p.a.u.w.w.w.w.6.1.+.P G U 4.y.y.8.&.3.u.B.N.p.u.u.p.N.N.N.N.N.B.B.N.N.B.N.N.N.",
"B.B.N.N.N.N.u.u.N.p.w.p.w.u.w.u.u.u.u.N.N.N.u.4.Z $.;.K 1 < w e < - F <.>.B B $.u.N.u.u.i.N.p.u.N.N.N.N.N.B.N.N.B.B.N.N.",
"w.i.N.N.N.N.u.N.N.N.N.N.p.N.N.N.N.N.N.N.N.N.u.&.Z 1 F | ..^ S M m ^ e.d.e.x Z 3.u.N.N.N.p.p.N.N.N.u.N.B.B.N.N.N.N.N.p.p.",
"u.w.w.w.w.u.w.u.N.N.N.N.N.N.N.N.N.N.N.N.u.t.8.+.1 * [ k.n.z.g.s.e.k.M.C.k.^ D $.1.q.y.u.p.p.B.B.N.N.N.B.B.B.N.N.p.u.u.p.",
"B.N.N.w.u.u.N.N.N.N.N.N.N.N.N.N.N.N.N.N.y.4.L 1 X - h.G.Y.Y.D.b.b.K.!.!.J.s.< * 1 %.9.y.u.a.B.B.N.N.N.N.B.N.N.p.u.w.u.w.",
"B.N.N.N.N.N.N.N.N.B.N.B.N.u.u.u.N.u.N.N.t.A 1 -   e v.L.W.L.H.S.S.P.R.Q.I.f.q + e T 0.i.p.a.a.B.B.B.B.B.B.B.N.N.N.u.u.u.",
"B.B.B.B.B.B.B.B.B.B.B.B.N.N.u.u.u.N.N.y.4.V > - . q j.H.E.Y.A.x.c.J.T.U.F.o.4 % V Y 0.p.B.B.B.a.B.B.B.N.B.N.B.N.B.N.N.N.",
"B.B.B.B.B.B.B.B.B.B.B.B.B.N.u.u.p.p.y.9.Y b r q % +  .x.S.F.l.X.o.m.S.Z.l.W % & u U :.t.p.p.p.p.N.N.B.B.B.B.B.B.B.B.B.B.",
"B.B.B.B.B.B.B.B.B.B.B.B.B.B.B.B.u.y.&.L w w e q 4 + 4 W _ _ ) E R ( ) ) g % + . % q S ;.q.y.p.p.B.B.N.N.N.B.B.B.B.B.B.B.",
"N.N.B.B.B.B.B.N.B.N.N.B.N.N.B.u.t.L 1 < - r u g t E g q 3 3 t Q ! r 3 2 3 3 3 3 q 0 , G 5.y.p.a.B.N.N.u.u.B.B.N.B.B.B.B.",
"u.N.N.B.B.N.B.N.N.N.N.u.t.9.&.%.L 1 - - - # r t g W W h 3 q r y y 0 3 0 r r 0 2 0 # - e H 1.y.p.N.u.u.u.u.u.u.N.N.N.B.B.",
"B.N.B.B.B.B.N.N.y.y.w.8.%.+.V : * < w 7 O   3 t R E ~ ( u u r > @ # r R t u 9 7 @ @ O O . H 3.r.y.u.u.N.B.B.B.u.u.N.N.B.",
"B.B.B.B.B.N.N.N.u.u.8.K < > e e > 0 7 @   + r E E E R u e - 0 7 o q y Q y 2 @ @ @ O O O o , P ;.%.9.u.N.B.B.B.B.B.N.B.B.",
"B.B.B.B.B.B.B.N.N.N.t.L : < q q > s > O O + 2 r r 5 y y 0 X o # o o % 0 y 8 8 9 6 O , z j s S G Z &.9.u.N.B.B.B.B.B.B.B.",
"B.B.B.N.B.B.B.B.N.N.9.K : < d C P =.f % 2 2 2 2 7 2 8 y q q > , q > - 0 u y m y 6 X % z I d d D C &.y.u.B.B.B.B.B.B.B.B.",
"N.N.N.N.N.N.B.B.N.N.&.B < 1 I 1.7.w.J 4 r 0 7 2 6 6 9 9 h ~ h h / g q y M Q m 8 6 X . i O.k s q K 8.u.a.B.B.B.B.N.B.B.B.",
"N.u.N.u.u.N.N.N.N.u.$.1 < V 1.q.w.w.J % % 7 # @ @ 9 Q Q S h h j j h ~ ! M M w 7 w @ s =.2.-.k $ C 4.u.p.B.p.p.p.N.N.N.B.",
"N.N.N.N.u.u.u.u.u.8.H < , @.q.w.w.w.J > - e 7 # 0 R Q ! ! ! h h h u h u 0 0 r e y % k 2.-.7.@.e 1 %.9.u.u.u.u.u.p.p.u.u.",
"u.u.u.u.y.y.y.y.q.@.B 1 a 7.w.u.N.p.@., - w w 0 r E R t Q u y e q t u u 7 0 e h q % l 2.1.0.1.d < K 4.u.u.B.B.B.B.N.B.N.",
"y.u.u.w.u.u.y.y.9.H 1 i O.t.y.y.w.y.#.p X < 0 0 q t t t g y 0 % 3 3 t R y 0 q g & % l 7.4.y.1.H x V 3.B.a.B.B.B.u.u.u.u.",
"u.u.u.u.u.u.N.u.9.p 1 C %.y.N.N.u.u.8.J * o : > + q E ! u y 0 O O + 5 R 3 7 r t q f -.w.u.u.y.&.b < +.u.N.B.p.u.u.u.y.y.",
"N.N.u.N.N.u.u.y.%.1 , H 0.p.p.N.a.u.t.%.a $ . X   # q t % 7 2 @   + 5 R 7 9 r 0 r +.r.a.a.B.p.4.1 * H 8.u.B.p.p.N.u.u.u.",
"N.u.N.w.9.9.8.&.I s > H 8.2.q.p.p.a.r.%.+., .     o # + O 0 2 + O + 5 5 9 y 8 - e 1.u.a.u.t.t.1.> $ i O.1.w.y.u.u.u.u.N.",
"w.u.w.9.%.%.U A S e , f +.C %.q.u.y.$.T %.a $ . @ - # @ 3 r t 0 2 2 5 9 8 y * * H 0.p.u.0.:.$.P > & , , a @.8.w.w.w.u.u.",
"u.w.u.&.A K x v M w 0 , V M U 1.y.u.4.3.9.+.f :   7 w u R R t y 2 O 9 R 0 ; X , &.y.y.4.{ n v 1 . $ q g d h +.8.w.u.u.w.",
"u.w.N.&.1 B x e M r j I U M V P 3.p.y.t.0.:.I s   - u M y g M m 6 O 2 r 0 o o a 8.y.t.%.v ; b I k 4 q E M r b K 2.w.u.u.",
"w.N.B.&.B < w u e q =.2.*.D D U :.y.p.i.0.4.2.J o o q u 0 r u m r O . % : . i @.w.y.t.1.Z c Y 2.-.f g E u w 8 x %.y.N.N.",
"w.N.N.9.O.: , , > f 5.5.I Y ;.3.y.p.p.w.q.y.w.-.% . # # + - q e y O o o . . H 8.w.y.w.8.$.%.2.7.3.` u y y y < Z 0.u.B.N.",
"N.w.N.N.8.k f i % Y q.w.=.S w P 0.w.y.y.y.y.w.1.q , +   o U S u / j f q . $ +.y.y.u.y.8.K D d k 7.=.d # ! } ;.$.y.p.B.B.",
"u.N.N.N.9.+.+.J l 5.y.y.4.$.U +.t.t.0.r.y.t.q.5.J I h > - S D D *.U P D p a #.N.u.u.u.q.K b 1 k =.] P U ,.} >.0.w.N.N.N.",
"u.u.u.y.9.J @.&.&.0.p.p.u.t.0.0.r.3.$.:.0.3.1.=.I P D V v w S P J D G G f k &.N.N.N.u.w.$.Y +.%.+.A G ,.;.F T t.N.N.N.w.",
"N.N.N.y.7.C L @.%.1.y.B.B.p.p.u.r.A K T Y S e w 3 # > m Q N G j & q u e $ $ +.w.w.y.u.N.u.i.u.y.&.A < c > 1 $.t.w.N.N.N.",
"u.y.y.y.w.&.H K %.y.p.p.a.B.B.B.i.T T A n F G h 0 r - = = 8 - , P q > 0 q > a @.9.w.u.u.B.B.a.p.t.4.%.%.%.4.9.u.N.N.N.N.",
"w.w.u.w.y.w.1.1.q.B.u.N.u.u.B.B.u.t.3.$.U *.j 4 t r q - = 8 X # j e 0 e h q > p J 9.u.p.B.B.B.a.u.u.t.y.y.w.N.N.B.B.B.B.",
"u.u.w.N.p.p.B.N.u.u.u.u.u.u.u.N.N.B.r.4.1.1.f 4 t r d D M S , , I h j P P s $ o a 7.w.y.a.a.u.B.N.N.B.B.B.N.N.N.B.B.B.B.",
"w.w.B.B.N.N.N.N.B.a.u.u.y.y.u.u.u.u.t.4.8.0.J s g t *.2.] :.U U 7.5.2.2.:.j q s @.7.7.8.0.t.u.p.N.N.N.u.N.B.N.N.N.B.N.N.",
"N.N.B.B.N.N.B.B.B.B.N.N.B.B.B.u.t.:.A S D *.z t r r j :.6.q.6.4.i.q.=.j s 4 j ' ' I D S U G ;.y.N.N.N.N.u.N.N.u.N.N.N.w.",
"w.N.B.B.B.B.B.B.N.N.B.B.B.N.y.4.T B w w m S ! y R r q f :.w.i.t.w.:.C r 0 0 h ` W h t r u w F ;.u.a.a.B.p.y.y.u.N.N.N.N.",
"N.N.B.B.N.N.N.B.N.N.B.B.N.N.4.I x ; w u u Q R R R t 3 0 S 2.u.u.1.S r e q 0 t g t t R E Q w 8 V 0.p.B.B.p.u.u.p.N.B.N.B.",
"B.B.N.B.N.w.N.N.N.N.N.N.B.N.7.Y V V d h ! W ! h g j j g d +.t.t.+.S V S h d h h h g j h D M b F %.t.B.B.B.a.a.B.B.N.N.N.",
"B.B.N.w.w.N.w.N.p.N.N.N.B.N.w.q.4.4.4.7.7.0.7.5.5.7.7.7.6.q.u.u.8.1.2.2.2.2.5.7.5.5.5.8.6.6.4.6.t.u.B.B.B.B.B.B.N.N.w.N.",
"N.N.N.N.N.N.N.N.N.u.N.N.B.B.N.N.N.N.N.N.p.p.p.i.w.w.u.u.u.u.N.B.p.y.p.p.p.p.y.y.u.N.u.u.u.u.N.N.u.B.N.N.N.B.B.B.B.N.w.N.",
"N.N.u.u.N.N.B.N.N.N.N.N.B.N.N.N.w.w.u.N.p.B.N.N.N.N.B.N.N.N.N.N.u.p.p.B.a.p.a.a.N.B.B.B.B.N.N.w.u.u.u.u.u.a.B.B.B.N.N.N.",
"w.u.u.u.w.u.B.B.N.B.N.N.B.B.B.N.N.w.w.u.w.N.p.i.u.p.N.u.u.u.u.w.y.u.u.B.B.B.B.B.B.B.B.B.B.B.u.u.N.N.N.B.N.B.B.B.B.N.N.B.",
"w.u.w.u.u.N.B.B.B.N.N.N.N.N.N.B.N.N.u.N.w.u.w.w.u.u.w.u.u.w.u.w.y.y.u.B.B.B.B.B.B.B.B.B.B.B.N.N.B.B.B.B.B.B.B.B.B.N.N.B.",
"u.u.u.N.N.N.B.B.B.N.N.N.u.w.N.N.N.N.N.N.N.u.w.u.u.u.w.u.w.u.u.u.u.p.N.B.B.B.B.B.B.B.B.B.B.B.B.B.B.B.B.B.N.N.N.B.B.N.N.N.",
"N.B.N.N.N.N.B.N.N.N.N.p.u.u.w.u.u.N.N.N.N.N.B.B.u.w.w.u.u.N.B.B.N.N.N.N.B.B.B.N.N.N.N.N.N.B.B.B.B.B.N.N.u.N.u.u.u.u.u.y.",
"N.u.u.p.N.u.u.u.w.p.u.N.u.w.u.u.u.u.w.N.u.N.N.N.N.u.u.u.N.N.N.u.u.u.p.u.i.w.p.N.N.N.N.u.N.N.N.N.N.N.u.u.u.u.y.y.u.w.y.y.",
"N.p.u.w.w.u.p.N.B.B.N.N.N.N.u.u.u.w.u.u.u.u.u.N.u.u.w.u.N.N.N.u.w.u.u.p.p.N.B.B.N.N.N.u.N.u.w.u.u.u.u.y.y.y.u.y.w.u.y.y."
};
