/* XPM */
static char *result[] = {
/* columns rows colors chars-per-pixel */
"60 60 96 2 ",
"   c #1C0404",
".  c #170708",
"X  c #1C0B0C",
"o  c #0D150C",
"O  c #0C1C0C",
"+  c #12140D",
"@  c #1A130D",
"#  c #131A0D",
"$  c #1D0F10",
"%  c #141511",
"&  c #1D1414",
"*  c #141C14",
"=  c #1B1C14",
"-  c #1E1619",
";  c #1C1C1A",
":  c #230C0B",
">  c #320F09",
",  c #20180F",
"<  c #33150E",
"1  c #231415",
"2  c #2A1514",
"3  c #241D13",
"4  c #2A1F14",
"5  c #241619",
"6  c #241C1B",
"7  c #2A1D1D",
"8  c #361716",
"9  c #391614",
"0  c #341B14",
"q  c #381915",
"w  c #301F1A",
"e  c #0E250E",
"r  c #1F240D",
"t  c #162214",
"y  c #1B2317",
"u  c #192A10",
"i  c #1D231B",
"p  c #262113",
"a  c #2D2414",
"s  c #272C10",
"d  c #2E2A15",
"f  c #24241D",
"g  c #2B241E",
"h  c #2F2B19",
"j  c #332514",
"k  c #392514",
"l  c #342C16",
"z  c #3B2916",
"x  c #362618",
"c  c #3D2619",
"v  c #352C1A",
"b  c #3B2C1B",
"n  c #2F3215",
"m  c #393217",
"M  c #3C311D",
"N  c #261D20",
"B  c #2C1E22",
"V  c #252121",
"C  c #2D2222",
"Z  c #312525",
"A  c #3F3221",
"S  c #441E1B",
"D  c #491F1D",
"F  c #422716",
"G  c #452D17",
"H  c #44241C",
"J  c #4A241D",
"K  c #432B1A",
"L  c #4B2C1C",
"P  c #50221E",
"I  c #542D1E",
"U  c #45341C",
"Y  c #49351F",
"T  c #54331F",
"R  c #4C2421",
"E  c #4F2B23",
"W  c #502523",
"Q  c #532926",
"!  c #433222",
"~  c #4E3020",
"^  c #553420",
"/  c #5B3422",
"(  c #5B3A23",
")  c #643C26",
"_  c #6A3B27",
"`  c #663D29",
"'  c #6B3D29",
"]  c #713F2B",
"[  c #624027",
"{  c #6B412B",
"}  c #77412D",
"|  c #7A432E",
" . c #7E4630",
".. c #804731",
"X. c #814832",
"o. c #88523E",
/* pixels */
"X.X.X... . .......X.X.X.X.X.X.X.X.X.X.X.X.X.X..... ...| ..............X. . .| | ...... .......X.X.X...X.X.X.X.X...| | ..",
"X.X...| | | |  .......X.X.X.X.X.X.X.X.X.X...X.X.......] ]  . . . . . ... . ... .| | } | | ......X.X.X.X.X.X.X.....| | | ",
"..X...| | .... .] ......X.X.X.X...................X.....| | ] | | | | | | | | | } } } } | ..X.X.X.X.X.X.X.X.X.X.........",
" . ... . ...............X.X.X.X.......| |  .| ..| ........ .| | | | ] | ] | | ] } } } | ..X.X...X.X.X.X.X.X.X.X.X.X.X.X.",
"|  .} | |  .....X.X.X.X.X.X.X.X...| | | ....| ] ] | |  .......X.X...| ] | ] | ] | ....X.X...............X.......X.X.X.X.",
"} } } } | | X.X.X.X.X.X.X.X.X.X...............] | | | |  .| ........ .| | | | .... .| ......| | ........................",
"} | | } |  .X.X.X.X.X.X.X.X...X.....X.X......... . . .| | |  . .......| ] | ......| | | | | | .... . . . .....| | ....| ",
"|  ...X.X.X.X.X.....X.X.X...........X.X........... . . .| | |  . .|  .] | | ......| | | | ....X.......| | ] | | ] | | | ",
"X. . . . . . . . . . . ................. . .| } | | ] | | } } } | ] | | | ] | | | | |  . . ... . .| | ] ] | | ] | | | | ",
"X. .} } }  .]  . . . . ...X. .| | |  . . .| | } | ] | | ] | } } | ] | ] | | | | ] ] | |  .|  . . .|  .| | | | | | |  . .",
"X. . . . . ... . . . . ...]  .] | } } } } | | | | | | | | } | } ] ..] ] ] ] | ] | |  ... . . ...........................",
"o. . . .X..... . . . .] ] | ]  .} } } | | |  ................. .] .... .......| ..X. . .| |  . .........X...X.X.X.X.....",
"X.X. . .X. .| |  . .] ] ..] ] ] | | ............................ .| | |  .............|  . . . . . .......X.X...X.X.....",
"}  .}  . .X. . ...X.X. ................... . ....... . ............... .| | | | ......|  ... . .|  ...X.X.X.............",
"} } } } | | } |  .X.X.X.......X.........| | | | .. .| | | | .................. . .| | |  . .X.X...X.X.X...X... . .| | | ",
" . . .}  .}  . . .X.X.X.................|  ......... .| | } | | ] |  .]  . .| | | | ] | | X.X.X.......X.X... . .| ] | ] ",
"X.................X.X.....|  .|  .| ..........| ........ .| | } } } } } } } } } } } | } | X.X.X.X.X.X.X.X.......X.| | } ",
"X.X.X.X.X.X.X.X.X.X.X.X...| | | |  .........| | | | .......... ...| } } } } } } | | ....X.X.X.X.X.X.X.X.X.X.X.X.X.......",
"X.X.X.X.X.X.X.X.X.X.X.X..... .| ............| | } } | | | | ....X.X.| | } } | ..X.......X.....| ..X.X.X.X.X.X.X.X.X.X.X.",
"X.X.X.X.X.X.X.X.X.X.X.X.........................| } } | | | | | ......| } | ......| | | | | | ....X.......X.X.X.X.X.X.X.",
"........X.X.X.X.X.....X.......X.......|  ...X..... . .| | } ] | | | ..] } } ..X...| | | ........X.X...| | ..X...X.X.X.X.",
".. .....X...X......................... . ...X.X.........| | } | } } | | | | | | | | | ............| | | | | | ......X.X.",
"....X.X..... . .| |  . ... ........... .......X.........| } } } } } } | ..........| | | | | | ......| ..........| ....X.",
"X.X.X.X....... . . . . .......X......... .......X.......} } } } } | } | | ....X.................| | | ..........X.X.X.X.",
"X.X.....X.X.X.....X.X.X.X.......................X.....| | } } | | ..} | } | | | | | | ..| | | } | } } | ......X.X.X.X.X.",
"X.X.....X.X.X.X...X.X.X.X...........................| } } } | | ......| | } | } | } } } | } } } } } | | ..X.X.X.X.X.X.X.",
"...... .....X.X...X....... .| | | | } } | | | | | | } } } } | | ........X...| | | } } } } } } | | | ....X...X.X.X.X.X.X.",
".. . . . .............| | | | } } | } } } } } } | } } } } | ] | } | | ....X.X.X.X.| } } } |  ...........X. .............",
"......| | | | | | | | } } } } } } | } } | } } } | ] | | } } } | } } | } | |  .X.X...} } | ......| | | | | | | | | ....| ",
" .| | | | ] ] | | | } | | | | | | .. . ...| | | | | | ] } } } | ........| ......X...} } } ......| | | |  .X.X.X.........",
"| ] | | | | | | | | |  .....| } | | | | | |  ... .| | | | | } | ........X.X...X.....| | } ..............X.X.X.| | | | | ",
" .| | | | | | | ....| |  ... . .} } } | } } | ] | | ] _ I I _ _ { } _ T ) } ..X.X.X.........X.X.X.X.X.X.X.X.X.| | } } | ",
" . .| ....| |  ... .| | ............] ..] ]  .] | ] _ J k k L Q T T P k F T }  .X.X.X.X.X.X.X.X...X.................| | ",
" . .| | | | | | | | | ] ] |  ...X.X.X.X.X.X.]  .] ] K F K H F > > 9 J J H K T } ..X.X.X.X.X.X.X.......| ....| } } | | ..",
"} } | | ] | | ] | X...| | ] ]  .] |  ...X.X. .] ] _ k F E Q R D D D P P J G G }  . . .............} } } } } } } } } | | ",
"} | ] | | | | ....X....... . . . . . ...X.X. .] ] _ k F E Q R D J R W Q W K z ]  . . .| |  .| | } } } } } } } } } } } | ",
"} } | ..................................X. . . .] ] F H J J S 9 9 S D W R K I ' } | } } | | } } } } } } | | | } | | | | ",
"} | ......| |  . .| | |  . . . ...| ...... . . .] ] / H q 8 9 :   : 8 9 q H ' ] } } } } | } } } } | } | | | |  .| ......",
"} | ....| | | | |  ................. . . . . .] _ G F q 2 : : X X 2 w X < L _ ] } } | } | | | |  . . ...........X.X.X.X.",
"} | ........|  ......... . .| | | ] ] | ] ] ' ^ k 2 x 7 2 X . $ 5 7 5 1 1 0 F T _ } | | | | ..X.....X.X.....X.X...X.X.X.",
"| | ..........| ...... .] | ]  . .] ' _ ) / ~ c 3 & 7 N 1 $ $ 5 N 5 1 5 & @ @ 4 Y _ |  . .| | | | ..X.X.X...X...........",
" . .| ...... ......... . .] ] ] ' _ / E c p p 7 6 7 5 5 1 5 B Z B 5 5 - & - & o , F ` } |  . . .....X.X.X.X... . .|  .| ",
"....| | | | | | .. . . .) K c c b x 3 7 C Z Z C 5 1 & 5 N B Z B Z B N N 6 6 ; ; @ = j z U (  . .........X.X...| |  .....",
"| | | } } } | { _ _ J k a p = = p 6 5 - 5 N C 7 6 5 ; N N B N N B B N ; ; ; ; ; i = ; = = p M ( ` ` ' { | X...| ........",
"} } } { _ T T Y M l # o O * * * ; - - - - 5 6 g g g f ; i f 6 g N 7 7 ; * * % y i i i * O O y b K b M G T ) ' | ..X.X.X.",
"} } } _ U s s u e O O O * * i t % + % ; f g C g g f f i i i f C Z C V f t # + # t y i V f V f i y y t O r d U ) ] X.X.X.",
"} | ..( m n n d d d a h h h C h x a x A A b ! A b b b v m M ! ! ! ! ! M v l j a h h h v v A A b l l l l l l k K ] ..X...",
"} | X.} [ [ [ ) ) ) ` ` ` [ ` [ ) ` ` ' ` ` ` ` ` ( ) ) ` [ { { { { { { { ` ` ) ) ` ` ` ` ' { ` [ ` ) ) ) [ ) _ ] ....| ",
"| | X.X.X.X.X.X.X.X.X.X.X.X.X.X.X.X.X.X.X.X...| } | |  .X.X.X.X.X.X...X.X.X.X.X.X.X.X.X.X.X...X.X.X.......] | ..........",
" . . .X.X. .X.X.X.X.X.X.X.X.X.X.X.X.X.X.X.X.....| |  .X.X.X.X.X.X.X. . .X.X.X.X.X.X.X.X.X.X.X.X.X.X.X.X...] ] ....X...X.",
"X.X.X. .| |  .X. ...X.X.X.X.X.X.X.X...X.X.X.X... .X.X.X.X.X.X.X.X. .|  . . ...X.X.X.X.X.X.X.X.X.X.X.X.X.....X.X.........",
" .X. . .|  .| |  . ...X...X.X.X.X.X.X.X.X..... .|  . .X. .X.X... .| |  . . . .....X.X.X.X.X.X.X.X.X.X.X.X.X.X.X.....] ..",
" . . . . .X.X.X. .|  ...X.X.X.X...X...X.X.X.....| | |  . . ..... .| ..X. . .|  .......X.X...X.X.................X...| ..",
"X. . .| | X.X.X.......X.X.X.X. .| | | | ........ ... . . ... .|  . . .X.X.X. .X...X.X.X.X.....| ] | | ......X...X...| ..",
"| } } } }  .X.X.X.X.X...X.X.X.....| } } | | | | |  . .| | | } } ] |  ...X.X.X.X.X.X.X.X.X...| | X.X.X.X.....X.X.........",
"} } } } }  .X.X.X.X.X. . . .X. ...| | } } | | | } } | } } } } } ] | | X.X.X.X.X.X.X...X.X.X.....X.X.X.X.X.X.X.X.........",
"| } |  . .X.X.X.X.X.X. .| } |  .........| | | | | } } } | | | |  . ...X.......X.X.X.X.X.X.X.X.X.X.X.X.X.................",
"X.X.X. . . .X.X. .X. . .} | | } | ......X.X.X.X.| | } } | ..X.X.............................X.X.X.X.....| ....| | ] | | ",
"X. .|  .|  .| | |  . .| | | | } } } } } | ....X.| } | } X.X...| |  . .| ]  ..... . . . ...............| | | | ] | | ] | ",
" .| } } | | | X.X.X.X.X. . .| | | | | | } | | ..| } } | .... .| ] ] |  ...X.X.X..... . ...| ] | | | | ] | ] | | ] | ] | "
};
