/* XPM */
static char *result[] = {
/* columns rows colors chars-per-pixel */
"60 60 227 2 ",
"   c #77412D",
".  c #7A432E",
"X  c #764732",
"o  c #7E4630",
"O  c #744D36",
"+  c #7D4A33",
"@  c #7D4E38",
"#  c #6D5A3D",
"$  c #725337",
"%  c #7B5036",
"&  c #7D543A",
"*  c #78643D",
"=  c #6B5A43",
"-  c #7B5641",
";  c #725B45",
":  c #7C5C45",
">  c #765B4A",
",  c #695C52",
"<  c #735F54",
"1  c #755D5A",
"2  c #7A6343",
"3  c #796647",
"4  c #7D6549",
"5  c #71694F",
"6  c #7B6C4C",
"7  c #75734F",
"8  c #6B6654",
"9  c #796756",
"0  c #7C6454",
"q  c #766C55",
"w  c #72655D",
"e  c #746C5D",
"r  c #7C6D5B",
"t  c #7C7656",
"y  c #6E6867",
"u  c #746C64",
"i  c #7B6C63",
"p  c #75636A",
"a  c #72666A",
"s  c #7C6C6D",
"d  c #7E7365",
"f  c #797666",
"g  c #76716B",
"h  c #7C736C",
"j  c #7C6C73",
"k  c #796E75",
"l  c #7C7474",
"z  c #7A7876",
"x  c #7D7578",
"c  c #804731",
"v  c #814832",
"b  c #844E38",
"n  c #845336",
"m  c #885536",
"M  c #84553A",
"N  c #85593B",
"B  c #885838",
"V  c #8A5B3A",
"C  c #89653B",
"Z  c #8C633D",
"A  c #966A3A",
"S  c #946B3D",
"D  c #88763C",
"F  c #9A723C",
"G  c #A0783C",
"H  c #845B43",
"J  c #8C6443",
"K  c #8F6944",
"L  c #866549",
"P  c #946C43",
"I  c #966E46",
"U  c #897A48",
"Y  c #957144",
"T  c #987443",
"R  c #9D7C44",
"E  c #94764D",
"W  c #9A7B4A",
"Q  c #856A54",
"!  c #8B7B52",
"~  c #867659",
"^  c #84725C",
"/  c #937B54",
"(  c #A27D44",
")  c #A67D54",
"_  c #827363",
"`  c #887964",
"'  c #84736C",
"]  c #8B7369",
"[  c #857A6B",
"{  c #8C7C6B",
"}  c #937C68",
"|  c #856E75",
" . c #847373",
".. c #8B7574",
"X. c #847B74",
"o. c #8A7C74",
"O. c #897779",
"+. c #837B7B",
"@. c #8B7E7B",
"#. c #907975",
"$. c #AC953E",
"%. c #998546",
"&. c #9C834C",
"*. c #8C805E",
"=. c #9B8755",
"-. c #9B865A",
";. c #9D8B5B",
":. c #9F9A56",
">. c #A78946",
",. c #AA8A44",
"<. c #A3834C",
"1. c #A68B4B",
"2. c #AC9648",
"3. c #B29749",
"4. c #A58A56",
"5. c #A98C51",
"6. c #A7955A",
"7. c #B59956",
"8. c #BAA848",
"9. c #BCA849",
"0. c #ADA45A",
"q. c #B3A453",
"w. c #B4AA57",
"e. c #BBAC55",
"r. c #B3A35B",
"t. c #BCA55C",
"y. c #BAB856",
"u. c #968866",
"i. c #898479",
"p. c #8C837D",
"a. c #92847A",
"s. c #988979",
"d. c #A28F61",
"f. c #A79466",
"g. c #B39B65",
"h. c #AD9879",
"j. c #ABA464",
"k. c #AFA861",
"l. c #BEAF64",
"z. c #BAA368",
"x. c #B8B167",
"c. c #B7A379",
"v. c #C2A84A",
"b. c #C1B045",
"n. c #C2B34C",
"m. c #C2AF5D",
"M. c #C3B353",
"N. c #CFBF54",
"B. c #C4BC5D",
"V. c #C7AE6A",
"C. c #CAB566",
"Z. c #CCBF67",
"A. c #C7B568",
"S. c #D4B96A",
"D. c #C0AE78",
"F. c #C6B777",
"G. c #CDB57B",
"H. c #D2BF7A",
"J. c #CFC948",
"K. c #D4C94D",
"L. c #D5D14D",
"P. c #DDD54D",
"I. c #C8C856",
"U. c #D0C357",
"Y. c #DCD556",
"T. c #CBC869",
"R. c #D3C463",
"E. c #D4CD63",
"W. c #D1CB6B",
"Q. c #D8D665",
"!. c #C6C677",
"~. c #D8CC78",
"^. c #DBD672",
"/. c #E2DA67",
"(. c #847782",
"). c #847C81",
"_. c #8B7E83",
"`. c #927E85",
"'. c #848483",
"]. c #8B8384",
"[. c #8D8B86",
"{. c #86858A",
"}. c #8B858A",
"|. c #87888D",
" X c #8C8B8C",
".X c #938683",
"XX c #938B84",
"oX c #93848B",
"OX c #948C8C",
"+X c #998B8B",
"@X c #979285",
"#X c #92908D",
"$X c #9B938D",
"%X c #8D8A93",
"&X c #938C92",
"*X c #978995",
"=X c #9C8C93",
"-X c #949294",
";X c #9A9594",
":X c #939995",
">X c #9C9995",
",X c #94949A",
"<X c #9B949A",
"1X c #959C9D",
"2X c #9C9B9C",
"3X c #BA9D84",
"4X c #A29294",
"5X c #A39B94",
"6X c #A1959E",
"7X c #A29C9B",
"8X c #95A09E",
"9X c #9FA39D",
"0X c #A3A29D",
"qX c #9B9AA1",
"wX c #9D9CA1",
"eX c #A39CA1",
"rX c #A89BA6",
"tX c #A59CA9",
"yX c #9CA1A2",
"uX c #A3A2A2",
"iX c #A4A2AA",
"pX c #DABF83",
"aX c #DACB86",
"sX c #D7DD81",
"dX c #DDC495",
"fX c #E2D496",
"gX c #D4C5A6",
/* pixels */
"v v c c c . c c c c v v v v v v v v v v c c v c c o c . c c c c c c c c o o . . c c c o c v v v v v c v v v v v c . . . ",
"v v c . . . . c c c c c c v c v v c c v c c v c c c . . . . . . o o c c o o o o . .   . . v v c v v v v v v v c c   . c ",
"c v c . . c c o . o c c v v c v c c c c c c c c c v c c .   .   .     . . . .           . v v v v c v v v v v v c c c c ",
"o o c o o c c c c c c c v v v v c c . c c . . . . c c c c c . .   .                 . . . v v v v v v v v v v v v v v v ",
". o .   . o c c v v v v v v v v c . . o o o . .   . o c c c v b v o .         . . o v v v v c c c c v v v c c c c c c c ",
"        . . v v c v v c v v c v c c c c c c . .       . . . o c v v o .     . v c o . c c . c . c c c v c c c c c c c c ",
"    . . o o v v v v c v c v c v c v c v c c c c o o . . o . o . o o o .     o v o . . . . . . . . c c . c c . . c c . c ",
"o o o c c c v v c c v v v c c v c v v v c c c c c o c . . . . o o . o       o o c . . . . v v v c c c .       .         ",
"o o o o c . . . . c o c o o o c c c c c c . .   . .             .           . . .     o o o v o . . . .               . ",
"+ o .   . . . o c c o o o o . . . . c c . .   . v n . .                             . o o o o o c . . .   .   . . . c c ",
"v o o . c c v c c c o . . .       .   . . . . m ( 1.@ . . . . . .     .   .       . o o o o o o c c c c c c c c c c c v ",
"H v c o c c c c o . . .               . . . . Z 3.M.V v v c + . . . . . . o o . o c o o   . o o c c c c v v v v v c v v ",
"c c c c c c . . c o .       . . . . c . o o v m ,.I.,.m c v v c o o   . V Y J c c c o . o o o o . c c c c v v v c v c c ",
". . . . o c . c c c v o o o o o c c c c o o o n F L.n.Z v c c c c v o o %.0.W o o c o o o o o o . c c c v v c c c c c c ",
". .       . . . o c c v c c c c c c c c M M v c F L.L.%.v . . v o o o + q.y.R + o . . . o o v v c c c v v c c c . .   . ",
"c . . . . . . . c c v v c c c c c c c b =.5.F m G P.L.q.V . . . . + o V 9.n.F . .       o o v v v v v v v c c . .       ",
"v c c c c c c c c v v v o . o . . c c v W T.q.F $.K.Y.Z.S o   X % C n $.J.b.B .         o o v v c v v c v c c c c . . . ",
"v v v v v v v v v c v v c o .   . c v v V y.Y.7.5.E.Q.Q.4.N + V 1.e.A 9.P.3.+ o + + % @ v c v c v v v v v v c v v c c c ",
"v v v v v v v v v v v c v c o . c c v v + &.T.W.V.V.^.W.T.4.V R T.E.3.U./.7.N L ; = = - b o o o c v v v v c c v v v v v ",
"v v v v v v v v v c v v v c o c c v v % # * %.:.=.6.~.H.sXx.W 1.W.R.A.^.W.6.4 _ _ r e q ; @ o o c v c c c v c c v v v v ",
"c c v v v c v v v c c v v v v c v v @ ; 5 7 t t t -.F.aX!.j.*.D :.q.F.fXc.~ ' o.XX@XXX+.d ; b + v c c . . c c c v v v v ",
"c . c v v v v c c c c c c o c v c n : w X.XX@XXXX._ ;.D.d.! 5 3 * D c.gXs.s ].-X5X0X2X-Xz e > v c c . . . . . c c c v v ",
"c c v v c v c o . . . o o o o v c % 0 h XX7X7XeX<Xp.0 4 ~ { a.a.` 6 h.s.+._. X;X2X0XeX2X'.h 0 v c c . c c c c c . c c v ",
"v v v v v c c o . o o c c c c v c % > o.;XuX2X<X;XoX' ] { s.$X$X@Xt q w x ].XX[.#X;X<X-X).i L + . . . c c c c c c c v v ",
"v v v v v v c c c c v v v v v v + @ > a.5XuX9X-X).a s s k ).XXXXp.[ , w j l l z '.#X;X;X]._ 0 o . .   . v v v v v v v v ",
"v v v v v v v v c c c v c c + v v @ # o.eXeX-X]._.+.x ].}.].x s  .j | _.oXoX].+.+.XX&XXX[ 4 - X   . . . o v v v v v v v ",
"c c c c c c v v c c c c v n B C W &.# { =X<X#XOX$X;X#X-X&X*X_.j p p | *X4X<X*X'.l i.p.[ u.-.H o . . o v v v v v v v c c ",
"c . c . . c c c c c b Z F 2.$.8.C.l.6 [ ). X-X;X5X5X#X-X&X6XeX`.j p j `.+X<X2X%Xz z  .} c.D.7.4.<.G A n b v . o c c c c ",
"c c c c . .   . . . + %.2.8.9.b.M.0.U ' _.|.&X;X0X5XOXOX<XeXrXrX<X(.(.O.].-XyXwX{.+.9 3XdXaX~.W.W.I.q.%.C + . . o c o . ",
"c .                 . . o n % v B C * X.&X*X%X;X0X>X-X:XeXuXeXtXtXqX*X}.]. X1X1X|.x < 3XdXpXV.V.e.e.e.w.=.B v v c c c c ",
"                . . . o o o . . % 4 q XXeX*X%X&X>X@X:XwXyXuXuXyX1XqXwX*X}.}.,X,X{.+.r u.f.5.4.E Z m m n n v c o . . . . ",
". . . . c . c . + o o o o o c . O 5 [ 4XrX,X|.|.'.'. XyX0XuXyXyXiXiXeXXX_..X-X-X{.XX{ E L m m m v v v v v v o . .       ",
"c . c c c . . c c . .   . . c c & 8 [ +XeX,X&X_.x y x 1X9X9XuXiXuX2X[.h u O.&X%X&X$Xa.7 * n o v c c c v c c c c o o . . ",
". c . . . .   . c .   . . . . c @ : ^ @.=X&X&XoX).y y  X;X2X2XwX,Xp.f 8 e @.oX_..X.X[ q : m c v c c c . c c . . . . . . ",
"  .             . c c . . . . . @ K d.~ _ h  .`.oX+.g '.{.|.*X*X].g u e [ a.O.s  ...^ 3 & b c c . .                 . . ",
"          . . . c c c c o o o v K g.H.6.L ; w | `.<X{.'.x (.oX`._.z i.i.@XXXs < ] } =.K n . . .                         ",
"    . c c c c c c c c c c m B T r.~.H.G.d./ ....j *X&X*X%X&X*X=X=X5X5X2X2X@X .] c.z.G.V.Y . .       .   . . . .   . .   ",
"  . v c c . . c . . . o n W 7.B.T.R.A.j.! { .X].k k oXqXeXqX6X4X4X5X0XuXuX=X..^ z.H.C.S.7.n .         . . . . o c c c c ",
"  . c c .     . . o v V 5.t.Z.E.E.m.) U ^ a.;X;X'.k k }.*X-XOXa.a.a.$X>X$XXX[ 6 ) S.R.C.7.R . o o o o c o c c c c v v c ",
"  . c c c c c . c b A v.N.R.e.>.F Z % 2 { $X<XqX-X{.]._.].z d ^ ~ 6 u.u.` r 6 3 b P M.U.N.v.( v c c v c v c v c v v v c ",
". . c v v c o % F 2.v.K.v.>.S n   X X 4 #.=XeXwXqX:X&X].s _ s.3Xf.f.U * ! ! 2 % c v S >.n.N.3.b o o + v v v c c c c c c ",
"o . o o o v Z %.w.e.3.,.A b . . o o X 1 #.*XwXyX8X1X-X}.i } D.dXG.D.D D k.4.n o o c c b ( M.n.>.B o c c c v c o . o . c ",
"c o o . o . E 0.w.%.v v c c c c c c @ < j _.%X:X:X:X&X_.r Q g.pXA.V.T 7.F.7.b . .   . o n R I.I.%.m v v v v c . . c . c ",
". .         N C B v v c c c c c v c v - < u g +.[.'.+. .Q J ) V.A.t.N V r.g.J   .     . v B D y.y.Y b v v v c o c c c c ",
"        o   o o o v o . c o c c v v v + + = 8 h [.s.u 9 - b I t.C.q.n . K =.E .     . c b c n Z ;.6.L + v v v c c c v v ",
"    . . o o o o o . . . . . . o c v v c o X ; 8 f f r H b b H ) T.w.M   + B M .     . . . c c c V -.E N c v v c c c v v ",
". . o c c c c c c o o . . . . . o c v o o   X $ = 8 - + o c b W W.0.M . c b c c .   .   . c c c v V B v c c c c c c c c ",
"  . v v c c v v v v c o o o c c v v v v o o . . X O X o o . c I !.0.V . c c c c c c c c c c c c c c o c . . c . . c c . ",
". . c c c v v v v v c v v c v v c v v c v v c .     . o c v v J j.j.V v v v v v v v v v v v c v v v c c c     . c c c c ",
"o o c c c c c c v c v v v v v v v v v v v v c c . . c v v v v b K ;.B o c v v c v v v v v v v v c v c v c . . c c v c c ",
"v c v o . o c c c c v v v v v c v v v v c c v c o c v c v v c v b b . + o c c v v v v v c v v v v v c v c c c c c c . c ",
"+ c c o     o o o o c v v c v v c v v c v c c c . o c c c c v c .     . . o o o c v v v v v c v v v v v c v v c c c . c ",
"o o o o o c v c o . o c c v v c c c c c v v c c . . . o o . c c o . c v v o . o c c c v c c c c c c c c c c c c v c . c ",
"o o o o . c v v c c c c v v v o . . . o c c c c c c o o c c o o . o c v v v o v c v v v c c o . . . . o c o c v v c . c ",
".         o v v v v v v v v v c o       . . . c . o . . . .     . . . v v v v v v v v v v c . o c c c v c c v v v c . c ",
"        . o v c v c v c o o c o c c . .             .     .         . v v v v v v v v v v v c c c c v v v v v v v c c c ",
"  . . o o v v v v v c o .   o o c c c c c . . . .       . . . . . o c v c v v c v v v v c c v v v v v v c c c c c c c c ",
"v v c o c o v o c c c o         . . c c v v v c .       . c c c c c c c o o c c c c c c c c v v v v c c . c c . .     . ",
"c o . o o . . . . o o o . . .     . . . . . c c .     . c c . . . o o . o   . o o o o o o c c o c c c .                 ",
"o .       . o o c v c o c o . .   . . . . . . c o     . c c c       . o o o v c c o o o . . . o . .                     "
};
