/* XPM */
static char *result[] = {
/* columns rows colors chars-per-pixel */
"60 60 247 2 ",
"   c #040601",
".  c #0B0502",
"X  c #070A05",
"o  c #0B0B03",
"O  c #120401",
"+  c #160B03",
"@  c #0D1302",
"#  c #181706",
"$  c #1E1A12",
"%  c #231D05",
"&  c #231608",
"*  c #201916",
"=  c #1D2204",
"-  c #292808",
";  c #362C0C",
":  c #2B340A",
">  c #383608",
",  c #282516",
"<  c #372A17",
"1  c #2E3218",
"2  c #393516",
"3  c #3B3124",
"4  c #432C1E",
"5  c #4C2F1E",
"6  c #483819",
"7  c #533A1E",
"8  c #412B20",
"9  c #443828",
"0  c #573926",
"q  c #633E29",
"w  c #3D4213",
"e  c #3E4022",
"r  c #474809",
"t  c #58570B",
"y  c #494719",
"u  c #504E12",
"i  c #54471C",
"p  c #575D16",
"a  c #635C0A",
"s  c #644F1C",
"d  c #64581D",
"f  c #5D6519",
"g  c #666813",
"h  c #726C15",
"j  c #474622",
"k  c #594527",
"l  c #524B2E",
"z  c #575A24",
"x  c #5C5438",
"c  c #634728",
"v  c #6C422D",
"b  c #6C4B2C",
"n  c #77412D",
"m  c #7A432E",
"M  c #744A2E",
"N  c #7A4A2E",
"B  c #66582A",
"V  c #735A24",
"C  c #664B33",
"Z  c #754631",
"A  c #7E4630",
"S  c #744C32",
"D  c #7D4A32",
"F  c #764E39",
"G  c #675638",
"H  c #755437",
"J  c #7D5136",
"K  c #7C543A",
"L  c #5B6126",
"P  c #676828",
"I  c #716F2D",
"U  c #6B7426",
"Y  c #79782A",
"T  c #6D6937",
"R  c #7A6437",
"E  c #767635",
"W  c #715A45",
"Q  c #676542",
"!  c #756946",
"~  c #7A7945",
"^  c #804731",
"/  c #814832",
"(  c #844F38",
")  c #835236",
"_  c #845539",
"`  c #88543C",
"'  c #865B3B",
"]  c #895C3B",
"[  c #83682B",
"{  c #85792D",
"}  c #8C633D",
"|  c #87683A",
" . c #91683C",
".. c #877637",
"X. c #96773D",
"o. c #865E40",
"O. c #856242",
"+. c #8C6542",
"@. c #8C6C45",
"#. c #916B42",
"$. c #916C47",
"%. c #887847",
"&. c #957246",
"*. c #997644",
"=. c #987846",
"-. c #93734B",
";. c #967B4B",
":. c #9A7A4B",
">. c #887550",
",. c #957A51",
"<. c #7E8A38",
"1. c #8A8719",
"2. c #868628",
"3. c #908D2A",
"4. c #97992A",
"5. c #878535",
"6. c #968C38",
"7. c #8C9435",
"8. c #979739",
"9. c #A99B37",
"0. c #9AA32A",
"q. c #9DA23C",
"w. c #A1B138",
"e. c #B8B639",
"r. c #C6BB39",
"t. c #B9C63B",
"y. c #D0CC3A",
"u. c #878446",
"i. c #978744",
"p. c #9C824C",
"a. c #99994A",
"s. c #8D8C53",
"d. c #9A8657",
"f. c #989657",
"g. c #A2874C",
"h. c #A8984A",
"j. c #A48A55",
"k. c #AB9353",
"l. c #AC9954",
"z. c #A59458",
"x. c #AD9D5C",
"c. c #B39E52",
"v. c #9CA548",
"b. c #A7A74B",
"n. c #B6A94A",
"m. c #ABB24A",
"M. c #B6B649",
"N. c #A9A558",
"B. c #ACA45C",
"V. c #B5AA56",
"C. c #B3A35B",
"Z. c #B4AC5D",
"A. c #ACB857",
"S. c #BBB659",
"D. c #8D856F",
"F. c #998C69",
"G. c #9C9463",
"H. c #A59964",
"J. c #B19F62",
"K. c #A8A465",
"L. c #B6AB65",
"P. c #B8B666",
"I. c #BBBB66",
"U. c #B1AB76",
"Y. c #B7BB75",
"T. c #C3BB4C",
"R. c #C4BB56",
"E. c #C5BB65",
"W. c #C1B476",
"Q. c #B4C557",
"!. c #B4CA58",
"~. c #BCC267",
"^. c #C7C647",
"/. c #C9D44D",
"(. c #DADC4C",
"). c #C9C759",
"_. c #DCCD57",
"`. c #CDD258",
"'. c #D7D857",
"]. c #E5DF59",
"[. c #D5E64F",
"{. c #DBE45E",
"}. c #D4E85B",
"|. c #E2E85C",
" X c #CCCA64",
".X c #C6C768",
"XX c #D4CA69",
"oX c #CAD86A",
"OX c #D8D869",
"+X c #CAC775",
"@X c #D0CB74",
"#X c #CBD573",
"$X c #D7D97A",
"%X c #E7D869",
"&X c #E3CF78",
"*X c #E4DB73",
"=X c #E2DD7B",
"-X c #C9E567",
";X c #D7E568",
":X c #D3ED6F",
">X c #DAE576",
",X c #D9F178",
"<X c #E3E463",
"1X c #E2E26B",
"2X c #E7E57A",
"3X c #C3B493",
"4X c #CCC78F",
"5X c #DAD789",
"6X c #E7DC86",
"7X c #E3DC8C",
"8X c #E3DD94",
"9X c #E6DC99",
"0X c #D5E586",
"qX c #DFE397",
"wX c #E4E483",
"eX c #E6E48C",
"rX c #F3EE89",
"tX c #E8E597",
"yX c #E2E29A",
"uX c #ECE99B",
"iX c #DFD9A7",
"pX c #E7DDA9",
"aX c #E9DEB5",
"sX c #E4E3A2",
"dX c #E9E6A7",
"fX c #EDE5AD",
"gX c #EBE3B2",
"hX c #E8E5B6",
"jX c #EAE4BC",
"kX c #F1EAB3",
"lX c #E6DFCE",
"zX c #E7E6C6",
"xX c #EAE4C3",
"cX c #EBE4CC",
"vX c #F0E7C3",
"bX c #E6E5D6",
"nX c #EBE5D4",
"mX c #E5E4DC",
"MX c #EAE4DB",
"NX c #E1E8D8",
"BX c #E5DFE4",
"VX c #E5E4E4",
"CX c #E9E3E4",
"ZX c #E8E9E4",
"AX c #E6E3EA",
"SX c #E9E2EB",
"DX c #E8E0F1",
/* pixels */
"/ / / / m ^ ^ / ^ ^ ^ ^ ^ ^ / / / / / / / / / ^ ^ ^ ^ ^ ^ ^ ^ ^ ^ ^ ^ ^ ^ m m m ^ ^ ^ A A ^ ^ ^ ^ ^ ^ / / / / / ^ ^ m ^ ",
"/ / / A m m m m ^ ^ ^ ^ ^ ^ / / / / / ^ ^ / ^ / ^ ^ ^ q n m m ^ ^ ^ ^ ^ ^ ^ ^ m m A n m A ^ ^ ^ ^ ^ / / / / / ^ ^ m m m ",
"/ / / m q ^ ^ ^ m ^ ^ ^ ^ / / / ^ ^ ^ ^ ^ ^ ^ / ^ / ^ ^ m n n n m m m A m ^ m n n n n n A ^ / ^ ^ / / / / / / / ^ ^ ^ ^ ",
"m / A m / ^ / / ^ ^ ^ ^ / / / / ^ ^ ^ ^ m ^ m m m ^ ^ ^ ^ ^ m m ^ q m ^ m q m m n n n m ^ / / ^ ^ ^ / / ^ / / / ^ ^ ^ ^ ",
"^ m m n ^ ^ / / / / ^ / / ^ ^ ^ ^ m q / / ^ ^ m m ^ m A ^ ^ ^ / ^ A q q n n ^ q m ^ m ^ ^ ^ ^ ^ ^ ^ ^ ^ / ^ ^ ^ ^ ^ ^ ^ ",
"n ^ q m q / / / / / / / / ^ ^ ^ ^ ^ ^ / / / / q m q m Z m m ^ ^ ^ A ( A m n ^ ^ ^ A A ^ ^ ^ m m ^ ^ ^ ^ ^ ^ ^ ^ ^ ^ ^ ^ ",
"n m m m A ^ / / / / / / / / ^ ^ ^ ^ ( +.$.( / / / / A Z Z D / ^ / o.` o.o.m ^ ^ ^ m m m m A m m ^ m m ^ A ^ ^ ^ m ^ m ^ ",
"m ^ ^ ^ ^ / / / ^ ^ / / / ^ ^ ^ ^ ^ ] g.z.` ( ` _ W S F Z F D A F ! o.,.d.^ ^ / ^ m m m m ^ ^ ^ ^ ^ A m m n n m n m m n ",
"^ ^ ^ ^ ^ m m m / m / / ^ ^ m ^ ^ ^ ' d.L.&.D J G G C C k l C F Q Q >.G.G.J m m m m m A A ^ ^ ^ m m A m m n n n n n m m ",
"^ m n n m m m m A / A A ^ m ^ m m ^ m =.~.Z.' F l 3 x j : % 3 W e x F.U.%.S m ^ q m m ^ m m m A ^ m m m m ^ m m m m m ^ ",
"^ ^ m A m / ^ ^ / / A m ^ m m m n n m J %.N.#.| G x F.~ T l x ,.D.Q s.<.B M q q ^ ^ ^ ^ ^ ^ ^ ^ ^ ^ ^ ^ ^ ^ ^ ^ ^ ^ ^ ^ ",
"` ^ ^ ^ ^ / ^ ^ A m m m ^ q m m n n m S R a.N.Y u.U.4X~.h.D.D.3X4XU.f.L - s ^ ^ ^ ^ ^ / q m A ^ ^ ^ ^ ^ / ^ ^ ^ ^ ^ ^ ^ ",
"^ ^ ^ ^ ^ ^ m m ^ m m q ^ m q ^ m m ^ N V I b.<.f.4XyX>X).P.3X3X9X4XN.j = 6 m A ^ ^ ^ A A ^ m A A A ^ ^ ^ ^ ^ ^ ^ ^ ^ ^ ",
"m m m m ^ ^ ^ m ( ` / / ^ ^ ^ ^ ^ ^ ^ J c > Y 5.a.L.5XOX>X+XW.W.5X$Xa.e @ 6 M ( ^ / ^ A / / / ^ A A ^ ^ ^ ^ ^ ^ ^ ^ ^ ^ ",
"m m m A ^ / ) ' #.:.} ( ^ ^ ^ / / / N M 5 % > { 6.Y h.#X=XK.,.j.XX@XP # @ 6 K &.*.} n m / / / / ^ ^ ^ ^ ^ ^ ^ ^ ^ m n m ",
"^ m A o.,.-.K.P.Z.V.Z.g.] ( ( / / / M 6 & O & ;.c.{ U +X7X..u { oX Xu @ @ 2 @.E.I.:.n m q ^ / / ^ ^ ^ ^ ^ ^ ^ m m m n n ",
"/ / / +.H.K.j.:.$.#.p.B.Z.l.j.p.p...i # o . + s l.W.L.5XeXa.{ ^.OX3.r > w g b.@Xx.} J O./ ^ / / / / / / / ^ ^ ^ ^ ^ m ^ ",
"/ / / _ -.:.o.( / / ' =.p.h.l.V.S.h.Y z j # + 6 z.eX8XdXyXE.R.*X*X8.4.8.4.1.3.h.j.:.k.d.` / / / ^ / ^ / / / ^ ^ ^ ^ ^ ^ ",
"/ / / / / / / / / / / / D } X.g.V.8.8.b.f.P B Y P.tXdXfXpX5X5XrX7X@XOXOXQ.1.t ..l.S.I.f.` ^ A A ^ / / ^ ^ / ^ ^ ^ ^ / / ",
"/ / / / / / / ^ / / / / / A ^ ) V a 2.~.>X#XOXOX$XyXfXkXaXpXsXkXfXdXwXXX4.t r 8..X XS.} ( q A A ^ / ^ ^ ^ / ^ ^ ^ ^ / ^ ",
"A A / / / ^ / / / / / / / / / N s r Y S.>X2X2XwXqXsXjXcXxXxXxXxXvXgX+X6.h h i.8.b.k.*./ ^ ^ / ^ / ^ ^ m m ^ ^ ^ ^ ^ ^ ^ ",
"A A / / / / / ^ / / / / / A / M > % z i..X=XwXuXdXcXnXMXMXmXnXnXcXaX5X@X X XV.y B  .` ` ( / / / ^ ^ m m A A m A ^ ^ ^ / ",
"A / / / / ^ / / q _ f.d.#.} | V ; % - u B 6.@X8XjXnXCXAXAXCXBXCXnXjXdXeX2X.XY - ; M ] #.&.&.j.d.^ A m ^ ^ ^ ^ ^ ^ ^ ^ / ",
"/ / / / / / / / / o.d.H.L.V.n.9.3.5.Y p r a b.$XhXMXCXAXVXAXSXCXMXzXfXuX$X8.> = > I h.Z.W.j.d.,.^ m A ^ ^ ^ ^ ^ ^ ^ / / ",
"/ / / / / / / ^ / A ) d.Z.R.^.M.T.(.`.M.1.Y v.+XgXbXZXVXmXAXAXZXMXcXgXtX.X{ y p U 7.m.@XE.:.] _ ^ q m A ^ ^ / ^ ^ ^ ^ / ",
"/ / ^ / ^ / / ^ / / / _  .X.{ a 1.e._.<X;X#X$X9XjXbXZXMXmXVXAXAXMXcXpX9X@Xb.v.Q.Q.7.g 6.:.:.;.;.+./ ^ q ^ ^ / / ^ ^ / / ",
"/ A ^ A ^ ^ / / / / / _ ] | d - [ 4.T.%XwXtXfXxXbXmXmXMXNXVXAXAXVXnXpX7X6X#X~.#X!.<.p v.E.+X+XU.,.( ^ ^ / ^ / / ^ ^ ^ ^ ",
"A A A A m A ^ ^ / A ( ' =.{ t r 9._.*X2X7XkXvXMXVXVXCXMXMXVXAXAXCXcXfXeX).q.Q.-X-X!.v.v.z.z.d.$.o./ ^ ^ ^ ^ ^ ^ ^ ^ ^ ^ ",
"^ ^ ^ ^ m m m ( K ] x.L.I.M.q.v.).OX2XrXdXgXnXCXSXAXSXCXCXVXVXVXnXjX9XOX!.0.!.}.:X#XK.z w l x G W W m m m q ^ ^ ^ ^ m m ",
"^ m n A q ^ q J K +.L.~.m.7.7.!.OX}.<X2XsXjXMXCXDXDXSXSXVXVXZXMXcXgX7X%X/.t.[.:X:X~.s.= X # , 1 8 9 q m ^ ^ ^ ^ ^ ^ ^ ^ ",
"n n q ^ ^ q ^ A D K ! %.u - r w.;X{.;X$XiXcXVXAXSXDXSXSXAXVXVXmXnXaXrX1X|.[.|.,X,X~.! : @ X     . * q m ^ ^ ^ ^ m A m m ",
"A m m m ^ m ^ F G x 9 ; @ - P oX}.}.%X8XxXnXVXVXVXVXVXCXAXAXVXVXMXxX9X2X].(.[.}.-XoXv.f : # # o   $ 0 A ^ ^ ^ A m n n m ",
"A A m ^ ^ m m C 9 # X . . 2 f.#X>X2XtXkXnXmXmXMXZXZXmXCXSXBXAXAXMXnXgXtX2X<X|.{.}.-X+Xv.T z e 1 . $ 0 q o.^ ^ ^ ^ ^ m m ",
"A A ^ n n n n 6 % .   X , ~ 4XqXtXfXkXxXbXnXnXzXbXNXVXCXCXBXBXAXmXbXvXsX7X0XE.V.k.g.;.T 1 : $ $ . * 0 q ^ ^ m m n m m m ",
"n n n n n n n < + . . - E Y.qXtXyXfXhXjXlXzXhXdXjXmXVXSXCXVXVXVXNXNXzXgXsX0X+XJ.:.] M 2 * 3 * X O 3 q q m m n n n n m m ",
"n n n n n n n 5 & @ - U Y.5X#X#X5X5X8XqXsXqX0XeXaXMXSXCXVXCXCXBXNXNXjXfXtX2X$X.XC.@.k 2 * 9 3 , , q q m q ^ n m n n n n ",
"n m m ^ ^ ^ ^ v i y U ~.~.A.q.4.t.'.'.;X,X2XOX$XpXmXBXSXCXMXMXbXNXzXdXwXOX<X'.OX~.s.j 3 * 9 0 l q q q m m m m m m m m m ",
"m m ^ ^ ^ ^ / ' i.A.oX#Xv.L r 0.t.(.[.[.}.:X;X2XpXnXCXCXbXxXhXjXzXhXeX<X].[./.c.i.B 1 X X 3 v Z q m / ^ m m m ^ ^ ^ ^ ^ ",
"q m ^ ^ ^ / ] c..XXX Xx.i.P t 2.0./.:X:X,X0X>XtXkXnXMXcXjX9X$X$XuXeX2X%X'.).'.S.u.C 3 X X 8 v Z ^ m ^ ^ m ^ ^ ^ ^ ^ ^ ^ ",
"m ^ ^ ^ ( j.c.c.c.g.:.} } B u g m.-X-X~.,X0X0XuXkXxXvXgX9XXXm.8.OX=X).`._.S.k.g.O.c 3 . . 8 v ^ ^ ^ ^ ^ ^ ^ ^ ^ ^ ^ ^ ^ ",
"A A ^ o.:.J.j.*.} ( ( N J c r p I..XL.P.@X>XeXuXuXuX9X6X&X_.3.h n.XXE.S.R.T.X.' ) k < . . 4 q A ^ ^ ^ ^ / / ^ ^ ^ ^ ^ ^ ",
"m A / +.j.*.` ^ / ^ / / ) k u Y K.z.z.L.oX$XwX2X*X%X%X].%XE.6.a 6.E..XB.b.).h.] A v < . O 4 q ^ ^ / / / ^ / ^ ^ m m ^ m ",
"^ ^ / ` o./ A m ^ / / / ' %.~ <.p.;.p.V.`.<X*XOX_.].]._._.R.k.X.[ C.v.5.{ m..X*.D v 4 O O 4 Z / / ^ / / / / ^ m m ^ ^ ^ ",
"^ q ^ / / q ^ q m / / ` F.! w j K ' { q.;X'.).(.^.r.y.g.k.k.g.) /  .| z y Y S.Z.#.M 0 + O 5 q / / / ^ / / / ^ ^ ^ ^ ^ ^ ",
"m q ^ m Z q ^ A A / ` H.G.x - 2 M s Y m.`.T.)./.n.9.y.*.] h.T.X.N N J i > r 5.I.p.N 0 # + 5 q ( ^ ^ ^ ^ ^ ^ ^ ^ ^ ^ ^ ^ ",
"m m m m A A / / A Z _ Y.d.k # $ 4 > I b.h.c.`.h. .X.c. ./ k.R.n.) n J b 7 6 y u.f.>.c & # 0 ^ / ^ ^ ^ ^ ^ ^ ^ ^ ^ ^ / / ",
"n m ^ ^ ^ ^ ^ ^ ^ A _ Y.d.k - . % 2 K :.*.c.R. .^ ` $./ ^ *.c.T.] N N N M k ; j ~ ,.G - ; q ^ ^ ^ ^ ^ ^ ^ ^ ^ ^ ^ ^ ^ ^ ",
"n ^ ^ ^ ^ ^ / / / / ' I.:.H 9 # ; v ) $.k.C. ./ q q m ^ ^ ^  .k.] ^ ^ ^ / Z k 1 2 W ! i c / ^ / ^ ^ ^ ^ m ^ ^ m ^ ^ ^ m ",
"m m ^ ^ ^ ^ ^ ^ / /  .E.*.( b 6 b D ] z.~.=.) m n n m ^ ^ ^ ( o.$.) / / / ^ m q 4 % > T s.] / / / / A / m m n m ^ ^ ^ ^ ",
"^ ^ ^ ^ ^ ^ ^ ^ ( ` k.J.#./ D S A A ;.K.N.' / / m m m ^ ^ ^ / / ) / / / / / N m q ; - 2 V ) / / / / / / / m m A ^ ^ ^ ^ ",
"^ ^ ^ ^ m m ^ / $.J.J.$.( / / / A / f.K. ./ / / A ^ ^ ^ ^ ^ ^ / / m m / A / / / m q 7 q A A / / / / / / / A A / ^ ^ m ^ ",
"^ ^ ^ m m ^ o.$.z.J.*.( / / / / / / H.G./ / ^ m A ^ ^ ^ ^ ^ ^ ^ m m m m m A m / ^ ^ m ^ A / / / / / / / / / / / ^ ^ m ^ ",
"^ ^ ^ ^ ^ ` ,.J.J.:./ / ^ ^ ^ ^ / ( -.:./ / / m m m m A ^ m ^ ^ ^ m ^ / / A m A ^ ^ / / ^ ^ ^ ^ ^ / ^ ^ / / / / ^ ^ m ^ ",
"A ^ ^ ^ ^ o.H.J.:./ / / ^ ^ ^ ^ ^ q ^ / / / / / ^ ^ m ^ ^ ^ ^ m m m ^ / / / / / / / / / ^ ^ m m q m m m m A / / ^ ^ m ^ ",
"q ^ q ^ Z / ` ` / / ^ ^ ^ ^ ^ ^ A m m m m m m m m ^ m m m m n n q ^ m / / / / / / ^ ^ / ^ ^ ^ ^ / / / / ^ ^ / / ^ ^ m ^ ",
"n m m ^ q ^ / ^ ^ ^ ^ ^ ^ ^ ^ ^ ^ ^ ^ ^ q ^ q m n n m n n n n m q m m / / / / / / / / ^ ^ ^ ^ ^ / / / / / / / / ^ ^ ^ ^ ",
"m m m m ^ ^ / / / ^ ^ ^ m m m ^ ^ ^ ^ ^ ^ m m m m ^ m m m m m m / ^ ^ / ^ ^ ^ ^ ^ ^ / ^ / / / / / / / / ^ ^ ^ ^ ^ ^ ^ ^ ",
"^ ^ ^ ^ ^ ^ ^ ^ ^ ^ ^ A ^ q m m m A ^ ^ ^ ^ ^ ^ m q m m ^ ^ ^ ^ / / ^ / A A ^ ^ ^ ^ ^ ^ ^ ^ / / / / / / ^ m m m m m m n ",
"^ m m ^ m m m m m ^ A m m m m m m n q ^ m ^ ^ ^ A n q A ^ ^ m m m A ^ m m m A A ^ ^ ^ ^ ^ ^ ^ ^ ^ ^ ^ m m m n n m m m m ",
"^ m m m m m m ^ ^ / ^ ^ ^ A m m m m ^ m m m m m A n n A ^ ^ m n n n m A ^ ^ ^ ^ ^ ^ ^ m ^ q m m ^ ^ q m n n n m n m m q "
};
