/* XPM */
static char *result[] = {
/* columns rows colors chars-per-pixel */
"60 60 256 2 ",
"   c #3B2C28",
".  c #561611",
"X  c #6B0808",
"o  c #770B07",
"O  c #69150B",
"+  c #781406",
"@  c #6D1616",
"#  c #542B0E",
"$  c #46241A",
"%  c #562919",
"&  c #59371C",
"*  c #642B19",
"=  c #6B3516",
"-  c #431D22",
";  c #472827",
":  c #4C2B25",
">  c #542B23",
",  c #552825",
"<  c #542B2B",
"1  c #4A3327",
"2  c #583628",
"3  c #582B30",
"4  c #4A3836",
"5  c #583A34",
"6  c #6F3124",
"7  c #653925",
"8  c #633D36",
"9  c #6A441C",
"0  c #77491B",
"q  c #5C412A",
"w  c #554D31",
"e  c #594438",
"r  c #674727",
"t  c #77412D",
"y  c #7A432E",
"u  c #7A4928",
"i  c #6F5B2D",
"p  c #77572D",
"a  c #644737",
"s  c #7E4630",
"d  c #734B36",
"f  c #7E4A31",
"g  c #6A5437",
"h  c #76583A",
"j  c #7A673A",
"k  c #4F3F46",
"l  c #633D41",
"z  c #594642",
"x  c #5F5447",
"c  c #644745",
"v  c #7A4944",
"b  c #6A5548",
"n  c #735344",
"m  c #785A48",
"M  c #695856",
"N  c #795956",
"B  c #7A6647",
"V  c #7A6755",
"C  c #736954",
"Z  c #696363",
"A  c #786965",
"S  c #831808",
"D  c #862909",
"F  c #902E2B",
"G  c #8F4C2E",
"H  c #84542C",
"J  c #804731",
"K  c #8B4736",
"L  c #814832",
"P  c #855334",
"I  c #895535",
"U  c #8B5B36",
"Y  c #855639",
"T  c #8B5C39",
"R  c #A65224",
"E  c #8E6A2E",
"W  c #8D6235",
"Q  c #8B643A",
"!  c #936B35",
"~  c #956839",
"^  c #946B3C",
"/  c #987738",
"(  c #9A733C",
")  c #A8692D",
"_  c #A27A39",
"`  c #89574A",
"'  c #A54A47",
"]  c #866B47",
"[  c #956A45",
"{  c #8B764A",
"}  c #997847",
"|  c #876B57",
" . c #887656",
".. c #987B57",
"X. c #A67B47",
"o. c #A87450",
"O. c #876B64",
"+. c #8B7A64",
"@. c #957A67",
"#. c #8C7575",
"$. c #BC7463",
"%. c #C97A70",
"&. c #B6952E",
"*. c #A8853A",
"=. c #AB9538",
"-. c #B49838",
";. c #B9A636",
":. c #BAA931",
">. c #C9B62A",
",. c #C3AA39",
"<. c #C6B637",
"1. c #C9B231",
"2. c #D7C529",
"3. c #DCD529",
"4. c #CECD35",
"5. c #CCC53A",
"6. c #D5C937",
"7. c #DAD636",
"8. c #DCD33B",
"9. c #E0CF2A",
"0. c #E3D62B",
"q. c #E3CE3A",
"w. c #E3DB33",
"e. c #E2D83A",
"r. c #DCE02C",
"t. c #D8E33B",
"y. c #E2E238",
"u. c #9A844A",
"i. c #918E56",
"p. c #988659",
"a. c #A88744",
"s. c #B48949",
"d. c #A99647",
"f. c #B69746",
"g. c #A88857",
"h. c #B68758",
"j. c #AB9557",
"k. c #BC955C",
"l. c #B7A845",
"z. c #BEB348",
"x. c #B3A955",
"c. c #938E6B",
"v. c #998869",
"b. c #988874",
"n. c #A88B65",
"m. c #AA956B",
"M. c #B49365",
"N. c #B18A72",
"B. c #A69675",
"V. c #B89874",
"C. c #B4AC6E",
"Z. c #B7A77A",
"A. c #CD9157",
"S. c #C79C5B",
"D. c #C8B946",
"F. c #C9A65B",
"G. c #CCB152",
"H. c #E0A45E",
"J. c #CC8B6C",
"K. c #C49968",
"L. c #C79973",
"P. c #CCA96D",
"I. c #D6A769",
"U. c #CBB969",
"Y. c #D6B667",
"T. c #C7B77B",
"R. c #D9B976",
"E. c #E3B168",
"W. c #E6BB74",
"Q. c #CBC646",
"!. c #D6C846",
"~. c #DCD443",
"^. c #DDDA43",
"/. c #D9D849",
"(. c #CBC959",
"). c #D7C856",
"_. c #CCD655",
"`. c #DAD856",
"'. c #E2CB45",
"]. c #E3D845",
"[. c #E3DD4D",
"{. c #E4DD52",
"}. c #E5DB5A",
"|. c #D8E44A",
" X c #D9E454",
".X c #DBE25A",
"XX c #E4E349",
"oX c #E4E25A",
"OX c #CCC76B",
"+X c #D8C667",
"@X c #DADA67",
"#X c #CCC87C",
"$X c #D7C879",
"%X c #DBD978",
"&X c #E5DC67",
"*X c #E7C47B",
"=X c #F1C279",
"-X c #E5DE73",
";X c #E5D977",
":X c #DCE364",
">X c #DBE86B",
",X c #DDF16D",
"<X c #DAE375",
"1X c #E3E569",
"2X c #E2E374",
"3X c #E6E47B",
"4X c #F2E770",
"5X c #937C82",
"6X c #A37D85",
"7X c #988B88",
"8X c #989694",
"9X c #A79886",
"0X c #AA938F",
"qX c #B49688",
"wX c #B9A885",
"eX c #B1A78B",
"rX c #BCB588",
"tX c #B9A897",
"yX c #B79DA1",
"uX c #B6ADAF",
"iX c #D8A887",
"pX c #C5B788",
"aX c #D0B48E",
"sX c #C6B999",
"dX c #E6BD86",
"fX c #C7B9A5",
"gX c #C8B6B6",
"hX c #CBC488",
"jX c #D7C688",
"kX c #CFD681",
"lX c #DBD686",
"zX c #DCDC8B",
"xX c #CDC59A",
"cX c #D7C997",
"vX c #DBD596",
"bX c #E6C888",
"nX c #EFD08E",
"mX c #E5D989",
"MX c #E6D796",
"NX c #E2DB95",
"BX c #F2D99A",
"VX c #DDE388",
"CX c #DCE094",
"ZX c #E6E389",
"AX c #E8E398",
"SX c #F1E19A",
"DX c #D8C9A5",
"FX c #DBD5A4",
"GX c #D4CCB0",
"HX c #E1CDAD",
"JX c #E6DAA6",
"KX c #E6D7B8",
"LX c #EAE3A4",
"PX c #D0BFC9",
"IX c #D4C3C9",
"UX c #D2C9D0",
/* pixels */
"L L L J J J J J J J L J L L J K f L L L L L L f y L L y L y L L f L f L f y L y L L J y s J J K f J J L L L J L J y y y ",
"J L J y t t y s s s J L L J L L L J L L L H I L L U H u H P I I P P L L P L L L y y y y s J J J L L J L J L L J J t y J ",
"J L J y y J J s s s s s L L J J L f P [ p / *.L ! :.-.*.:.=.:.;.-.=.U E / U y 6 t t t t t J L L J J L L L L J K J J J J ",
"s s J s s J L J J J f s J L L L s s U *.&.:.>.;.:.4.4.5.r.4.~.8.6.2.:.1.>.:.=.E H y t y s L L L L L L J J J L f L L J L ",
"s s t t t J J J J L L f L L L L J s Q l.2.3.w.7.~.8./.`. X@X1X&X}.[.~.q.7.w.6.,./ T L L L J L J J J L J L L L L L J L L ",
"t t t t t y L L L L J K J L J J s P / Q.7.w.e.}.+XOX$XlXkXvXvXvXmX%XG.(.!.].8.~.D.( y f J y y y s J J J s s s s J J L J ",
"t t t t t s K L L J J L L L L L f P ^ D.7.y.oX3XOXu.C.rXc.eXc.eXGXhXd.x.(.`.!.~.-.W f y t t y J s s J s s s s s y J s s ",
"y s L L L s L f J J L L J J J J L T X.D./.oX3XZXZ.j B v.C b e A 9Xc.i i.#X%X}.`.<.l.u.H J J L L J J J y t t t t t t t t ",
"K f s s L y y t s J J J f s s f { d.x._.:X3XZXvXrXg 5 c e     z M M w c.rXkX@X`./.<./ L s L L s s t t t t t t t t t y y ",
"f y t t y t y J J s s s y s s s d.(._.>X<XCXCXFX9Xb M A x k 4 k M Z x A c.i.U.@XXX:.W f y y y s s s y t t t y y y y J J ",
"L s s y y L L L J s s s y f p h d._.@X<XzXhXeX9XA A yXuX8XZ Z 5XuXgX9XA w w u.).{.D./ L s J J J J J L J J J J J J J J J ",
"` L s L J J J L s s t t t Y u.Q d.(.>XVXrXp.g e w 0XUXUXuX8X8XuXIXIXgX@.C B i OX}.6.;.U y y s s J J L L L L L J L L J L ",
"J J J J J J y y s s s 6 f } z.Q._.@X3XzXwXv.V B a 6XgXIXPX8X5XuXIXIXyX| a i j kX-X).D.=.U s s s y J J J J J L L L L L J ",
"y y y J J J J y J J J s f / Q.|. X2XZXvXn.B ] { r ] #.0X7XZ Z Z 8X7XO.d 2 2 h Z.%X&X).z.W f s s J s s J L L J J J J s s ",
"y t t t y f y y s L L L I *.Q./.:X3XNXpXB q r Q 9 p m V C w k x b 5 2 d d r q m.jXZX`.Q.( P L L J J J L J J J J y f y s ",
"y y y t y 6 y L J J J L ( z.^. X2XzXpX] 9 9 Q u.g.h.M.M.v.C w x b & 7 ..M.] q +.xXAX2X/.;.! K J J L J L L J J y y 6 t t ",
"L s L s L J J J J L L L ^ =./.:XZXZ.{ r 0 _ K.W.bXdXdXdXaXN.n 1 $ & ^ C.L...r g wXJX;X~.4.=.U L L L L L L J s J J s t t ",
"L L L f L L L J L L L Q d.Q.|.3XAXV.q 9 ( F.*XnXR.P.K.L.qXV.@.] m [ { } } o.P r n.sXmX{.w.;.W L L L L L L L L L J J L J ",
"L L J K J L L L L L L Q l.|..XZXcXv.7 9 X.E.=XE.s.W ^ n.qXqXN.@.| ..} r p o.( = ` Z.SX}.y.<.*.f J L L L J L L J L J L L ",
"L J L L J L J L L L f j l.|.,XCXZ.` 7 = _ F.+XF.E = P N.qXqX@.` 7 P ~ & 7 o.s.H r ..MX&X[.^.;.W T T L J J L L s L L J L ",
"J J J J J L L L L L P X.z.`.<XLXB.n 6 6 ) S.H.f.X.= 7 ` F s O.K . 6 F . 6 h.S.H 9 ] L.mX2XXXQ.-.l.d.] y s s f s L J J L ",
"s s J L L L J J J P W z._..X%XcXO.8 = # 0 s.Y.I.S.u * * @ . . @ . X O . H h.H.! 9 7 ..cXZX&X7.4.<.l./ y s s s s J J J L ",
"J J L J J J f f Q d.l._. X@XlXpXV 2 * O # X.I.W.S.G O O O X X . X X X + G A.I.) 0 & m rXFXZX X7.7.:./ L I L s s s J J L ",
"L J L L f f s f ! Q.Q.|..X<XlXB.n > % . # ) I.W.A.R S o S X X X X o X X G $.H.) = & a #.xXCX:X7.r.2.;./ ^ L L J J J J L ",
"L J L L J J L P ( ;.5.|.,XZXMX| a % $ # % [ K.W.H.R S + S + o X X o X X F L.I.W u a 4 z 7XxXZXoXt.r.r.Q.=.! W P L L L L ",
"L L J L L L L [ f.D.^.|.<XAXDXm 2 # $ % % y h.W.H.R D o o o o o @ F @ @ K J.I.H ..#.z z | sXJXmXXXy.7.8.!.z.l.} I L L J ",
"J J J J s s L ( l.6.|.oXZXFXB.g & a N n , 7 } W.E.R D + + F F F ' %.' 6 ` L.L.u m.fX9Xc z O.tXJX4XoXXX`.}.`._.l.} L L L ",
"s s s L I W ~ -.4.e.oX3XMXsX| 5 : m qXqXm a [ Y.W.A.R R ' %.J.$.$.J.o.` $.L.L...wXKXDX#.8 l O.wXMXZXZXAXZX3X4XG.a.P J L ",
"L L J p / =.=.4.XXoX2XBXHXqXe 5 5 b.KXKX9Xg j K.W.E.X.X.L.iXiXL.N.h.h.J.iXiXv.B.aXAXJXsXn 3 8 | eXeXrXxXJXSXmXY.f.T s s ",
"s y t Q d.4.t.|..X2XmXFXsX@.e 2 v.sXKXKXsX .p s.W.W.E.k.h.h.n.h.M.R.dXdXdXV.] Z.#XZXMXDXO.5 < 8 q e z C GXJX;X).l.~ L s ",
"t t y Y =.8./.@XlXNXDXN.N 8 5 g Z.vXNXLXJXc.p _ W.W.bXbXjXjXbXbXW.W.W.W.F.( B kX<X`.3XJX@.5 > > > 2 1 x sXNX&X).<.^ f t ",
"s y ^ f.D.].}.x.{ | V c 5 3 2 c.hXVXVXVXvXpXu.W E.W.bXbXbXjXR.Y.G.A.=.*./ E j.<X:X|.@XMX@.a , , , 2 1 w i.@XoX].5.! f t ",
"s s a.D.].}.;Xd.a 5 : : < , < eXkXVX<X<XkXFXg.0 C.W.jXR.T.S.f.f.f.-.f.X.E u.OX>X|.t..XNX+.a > , , , : w i.@X|.7.<.^ f y ",
"s y a.G.).).W.u.r 2 , , < ; : @.rX#X<X>XkXvXn.r M.R.$XY.F.s.s.f.I.Y.R.k.g.j.@X/.t.t..XvX+.8 , $ - , ; w C.@X|.4.-.Q L y ",
"y y / f.A.G.C.^ 2 : < , , < $ 2 j C.3X<XVXvXC.h N.dXnX*X*XW.*X*XmXnXbXp.p.T.<X Xt.|.>XvX+.5 : ; - , $ x rX>X|.4.;.W f t ",
"y 6 P *.D.+XU.{ 2 > , - < < $ 1 & i.mX%XkXAXjX..[ R.nXnXBXBXBXBXnXmXaXp.c.LX<X>X X X<XZ.n : 5 c 1 ; ; C hXOXQ.3.>.E f t ",
"t t P *.D.+XR.p.e ; - - ; ; - % % { NXmX%XAXaXn.n K.bXnXbXBXSXBXmXbXC.p.Z.JX<X>X>X>X#XQ q < 5 b @.B V B.lX+X].q.1.H s t ",
"t y ^ f.D.}.+Xg.g ; ; 4 l l - : % } MXmXVXZXhX@.d o.P.dXbXnXmX*XjXR.u.v.rXCX<X,X>X<XOXi 5 2 5 b aXZ.C.%X2X{.e.6.&.G J f ",
"t y { f.D.).Y.j.B w 4 C 7X5X; : 2 ..mXmXVXAXpX| & H X.I.dXbX*X*XR.S.W j.hXzX>X,X>X@XU.r 2 < < n cXZX2X.XXX~.<.,.*.L K L ",
"y y L W _ !.!.Y.x.i.i.eXuX7X; : d M.mXlXCXJXwXd & * G s.P.R.$XR.S.~ = u.hXzX>X>X:X-XR.r < < < n cXZX@X/.4.D._ *.a.I f L ",
"s s J U *.8.e.8.`.(.OXzXDX9X; ; | iXZXmXLXHXv.2 > % 6 7 [ } g.a.^ u % d V.SX@X X`.2XOXr > , , n DXMX%X/._.l.^ T T L J J ",
"t t s Q d.,.<.4.7.^.`.<XkXb.1 : O.aXSXnXDXqXm : % % $ % & q r 9 & * % 8 ..jX2XoX`.2X$XQ 2 , < v DXMX%X).l.( I y y s y s ",
"J J s T X./ *.;.<.<.`.@XkXb.; ; O.aXKXxXB.N e e n m m ] B B j B h a 5 2 h n.$X2X-X-XlXp.5 % < n cXMX%X!.d.P J y y J J J ",
"t t t y s t I Q ( d.`.>XkXB.  ; O.gXKX9Xb k M #.sXDXDXvXcXvXFXGXfXb.C q 2 g m.jXlXmXNXZ.e : , h cXmX:X_.l.P J J J J J L ",
"t t t t 6 J s f ~ f.`.@XjXB.1 ; #.yX0XM 4 A tXKXFXNXZXZX3XmXZXSXFXFXxX .2 2 h m.cXJXFXqXe ; 2 n bX;X.XQ.d.T L J L L L L ",
"t t t s J J L I [ f.D.@X#Xc.; 3 N O.M 5 C tXJXSX%X&X&X{.e.w.{.}.3XAXLXpXp.r q g b.DXKX0Xa ; c m.$X&X`.D./ L L L L J L J ",
"t t J J J J K T *.D.!.@X#XB.1 ; 5 8 e V eXFXSXZX}.[.e.w.9.2.0.0.[.1X3XmX#Xm.] q b 7XgXyXl ; b pX;X/./.<.( I J J J J J J ",
"t s L J J J L T *.D.~.`.$XZ.z ; $ 5 B wXMXmX4XoXXXe.w.3.>.&.2.0.w.q.{.&X;XmXwXB e N 6X6Xl ; b pX2X[.!.D.u.P y y J J J t ",
"t s J J L L J L W =.<./.$XwXO.q 1 j m.MXmX&XoX].q.q.6.,._ _ &.9.9.9.w.e.{.4XMXpXV 5 c N < 1 | cX-X[.D.} L y t y J J J y ",
"s J J J J J J L L ~ ,.!.).P.M.p Q j.Y.Y.).].e.0.;.,.-._ P G W *.1.>.2.2.q.{.;XMXT.] > > : c b.AX&X^.!.f.U y t s J J J L ",
"J L J s s s s J J L ! -.D.).G.f.z.!.!.q.w.0.w.2.-.a.^ P L L L W _ _ &.>.2.w.{.&X%XC.Q 1 $ C rXlX&X].Q.l.u.P L L L J J L ",
"J J J s 6 t s s J L U -.<.q.q.'.~.8.0.9.0.9.>.-.d.^ P J L L L L J J E &.:.1.6.].}.@XC.{ B B.jX%X[.D.-.X.[ P L L J J t y ",
"s s f s f s L J J L Q f.,.1.<.6.1.1.>.:.,.:.*.W } I y s s s J J L y L / / ! >.3.].}.@XU.$X*X;X}.].;.X.Q L L L L J s t J ",
"s s s s f L L L L L Q [ T ! G.D./ / =.I G H U P L L y f s s s s y J L T T ~ 1.3.q.~.~.{./.'.D.q.8.<.l.a.P s L J L J s J ",
"t t t t t s L L L L P L K W d.} P L P t y s J y s s y s y y t t t t s L U [ *.<.5.<.,.8.8.8.q.,.8.-.} T L L L J L J s J ",
"t t s 6 s s L J L J L J L L ] I L y y y t y s 6 t t t t t t t t t t y L P T Q *.d._ / D.*.,.,.*.D.X.T L L J L L J J J L ",
"s s 8 L s L L J L J J s s t s s L L L y J y y y y y y y t t t t y J J K L L L T T P I } T ( _ ~ ( W P K J J J J J L L L ",
"s f L L J L L J J J J s t t t t y J L L L L L L y 6 t t y J K f L L s f J L L L L L L L L L L L J J J s s s s y t t t t ",
"J s 6 K s t t t t y s y t t t t t t y y y y J J f t t y L L y y y y y y t t y f s s f s J J L L L J y 6 t t t t t t t t ",
"s s y y t s s f f K L J f s s y t y y y y y y J y t t y J L f t t t y y s f L K J J f s y y t y t s s s t t t t t t t t "
};
