/* XPM */
static char *result[] = {
/* columns rows colors chars-per-pixel */
"60 60 167 2 ",
"   c #090505",
".  c #030A03",
"X  c #0B0C06",
"o  c #070D08",
"O  c #0C0B0A",
"+  c #110607",
"@  c #110907",
"#  c #130C0C",
"$  c #190E0F",
"%  c #0C1106",
"&  c #0C120A",
"*  c #111305",
"=  c #13130D",
"-  c #1C160D",
";  c #121A0F",
":  c #191A0E",
">  c #130F11",
",  c #1B0F12",
"<  c #151512",
"1  c #1B1414",
"2  c #161B12",
"3  c #1A1B15",
"4  c #1B1619",
"5  c #151F1A",
"6  c #1D1B1B",
"7  c #231A0F",
"8  c #231D14",
"9  c #291D12",
"0  c #241719",
"q  c #231B1B",
"w  c #2A1E18",
"e  c #1E260E",
"r  c #172016",
"t  c #1B2311",
"y  c #16251C",
"u  c #1C231B",
"i  c #242414",
"p  c #2B2315",
"a  c #242C16",
"s  c #2A2A15",
"d  c #24231B",
"f  c #2B231C",
"g  c #2B2A1B",
"h  c #332315",
"j  c #322C15",
"k  c #3A2E16",
"l  c #33241C",
"z  c #3A261B",
"x  c #332B1B",
"c  c #3C2C1C",
"v  c #2D311A",
"b  c #33331D",
"n  c #3B321D",
"m  c #36381C",
"M  c #1F1B20",
"N  c #231D22",
"B  c #242421",
"V  c #2C2322",
"C  c #252921",
"Z  c #2C2C22",
"A  c #2B2629",
"S  c #2C2B2B",
"D  c #302422",
"F  c #352D23",
"G  c #3A2E23",
"H  c #31272F",
"J  c #352F2B",
"K  c #333223",
"L  c #3B3323",
"P  c #3A3A25",
"I  c #34312B",
"U  c #3B332C",
"Y  c #323A2C",
"T  c #3A392B",
"R  c #362D34",
"E  c #353133",
"W  c #3A3335",
"Q  c #313830",
"!  c #3B3B33",
"~  c #373038",
"^  c #3F3C3D",
"/  c #432D1C",
"(  c #4C2E1E",
")  c #45321C",
"_  c #4B331E",
"`  c #51331F",
"'  c #422D21",
"]  c #4C2F21",
"[  c #443423",
"{  c #4C3422",
"}  c #433C24",
"|  c #4C3A23",
" . c #403128",
".. c #4C3529",
"X. c #4E392A",
"o. c #533523",
"O. c #5B3624",
"+. c #543925",
"@. c #5C3A25",
"#. c #553528",
"$. c #563C2A",
"%. c #5C3C29",
"&. c #4F3E33",
"*. c #413A3B",
"=. c #623A26",
"-. c #693C27",
";. c #643D29",
":. c #6B3E2A",
">. c #713F2B",
",. c #3E402E",
"<. c #3E4639",
"1. c #4B402E",
"2. c #54442F",
"3. c #5D422C",
"4. c #65412C",
"5. c #6D412B",
"6. c #76412D",
"7. c #7A432E",
"8. c #7E4630",
"9. c #7F4832",
"0. c #463D43",
"q. c #454341",
"w. c #4D4A4C",
"e. c #534845",
"r. c #554D4D",
"t. c #5E4C51",
"y. c #5A5556",
"u. c #654D46",
"i. c #74554F",
"p. c #5B615A",
"a. c #656061",
"s. c #676369",
"d. c #696968",
"f. c #7E6665",
"g. c #766E73",
"h. c #78757A",
"j. c #7D7B7E",
"k. c #804731",
"l. c #814832",
"z. c #88523E",
"x. c #83665F",
"c. c #8D6F69",
"v. c #927169",
"b. c #8E7977",
"n. c #897C7B",
"m. c #927A75",
"M. c #83877E",
"N. c #868488",
"B. c #888688",
"V. c #8C888A",
"C. c #908181",
"Z. c #9C8682",
"A. c #948D8C",
"S. c #928D91",
"D. c #939194",
"F. c #9A9092",
"G. c #9C9A95",
"H. c #A19495",
"J. c #A79E9E",
"K. c #A6A4A7",
"L. c #AFABAC",
"P. c #B4AEAE",
"I. c #AFB1AD",
"U. c #B9B7B9",
"Y. c #BEBCBD",
"T. c #C1BFBD",
"R. c #C8C5C6",
/* pixels */
"l.l.l.k.k.7.k.k.k.k.k.k.l.l.l.l.k.l.l.l.k.k.k.k.k.k.8.7.k.k.k.k.l.l.k.k.k.7.7.7.k.k.k.8.8.k.k.l.l.l.k.l.l.l.l.l.k.k.7.k.",
"l.l.k.7.7.7.7.k.k.8.k.k.l.l.l.l.l.l.l.l.k.k.k.k.k.k.7.7.7.7.7.8.k.l.k.k.k.k.k.k.7.7.7.>.8.k.k.k.l.l.l.k.l.l.l.k.k.7.7.7.",
"k.l.k.7.7.k.k.8.8.8.k.k.l.l.k.l.k.k.k.k.k.k.k.k.k.k.k.8.7.>.7.7.7.7.>.k.>.k.7.7.7.>.7.>.7.k.k.k.l.l.l.l.l.l.l.l.k.k.k.k.",
"8.8.k.8.8.k.k.k.k.k.k.k.l.l.l.l.k.k.7.k.8.7.7.7.8.k.k.k.k.8.7.7.>.7.7.>.7.>.>.7.7.7.7.8.k.l.l.k.l.l.l.l.l.l.l.l.l.k.k.k.",
"7.8.7.7.7.k.k.k.l.l.l.l.l.l.k.k.k.7.7.k.8.k.7.7.7.7.7.k.k.k.k.l.k.k.>.7.6.6.7.7.7.8.k.k.k.k.k.k.k.k.k.k.l.k.k.l.k.k.k.k.",
">.7.>.>.>.8.l.l.l.l.l.l.l.l.l.k.k.k.k.k.k.k.7.7.6.7.7.7.8.7.k.k.k.k.l.>.7.7.7.l.k.8.7.k.k.k.7.7.k.k.k.k.k.k.k.k.k.k.k.k.",
"7.>.7.7.7.k.l.l.l.l.l.l.k.l.k.k.k.k.k.l.k.k.k.k.7.8.7.7.7.7.k.8.k.k.l.7.>.7.l.l.8.7.7.7.7.7.7.8.8.8.8.8.8.7.8.7.7.k.k.k.",
"k.l.k.l.l.k.l.l.k.k.l.l.l.k.k.k.k.k.l.l.k.k.k.k.k.k.k.8.7.7.7.8.k.k.7.>.7.>.7.7.k.7.7.7.8.k.k.k.k.k.k.7.7.7.7.7.6.6.6.7.",
"l.k.8.8.k.8.7.7.8.8.8.k.8.8.8.k.k.k.k.k.k.7.7.7.7.7.>.>.8.>.>.:.5.;.5.6.6.6.7.7.7.7.7.8.k.l.k.k.8.7.7.>.7.>.7.7.>.7.7.7.",
"l.8.>.>.8.>.7.8.8.8.k.8.8.8.8.7.k.7.k.k.7.7.6.6.6.6.>.>.:.=.$.} m m | ;.6.>.6.6.7.>.7.7.8.>.8.8.8.8.7.7.7.7.7.7.7.7.7.k.",
"l.k.k.k.8.k.k.k.k.8.8.8.7.7.7.7.>.>.>.7.7.7.7.7.7.7.>.#.n g F g u t i ' %.;.;.5.>.8.k.k.8.k.k.k.k.k.k.k.k.k.k.k.k.k.k.k.",
"z.l.k.k.k.k.k.k.8.8.7.>.7.7.>.>.>.7.7.7.7.7.8.l.8.>.=.G Y Q S B 6 6 M U &.[ ..@.8.k.k.k.>.7.8.k.k.k.k.k.l.l.l.l.k.k.k.k.",
"l.k.k.k.k.k.7.7.k.8.8.>.7.7.7.7.k.7.k.k.k.k.l.l.8.%.P <.p.d.w.~ H R 0.r.e.J V { 7.k.k.>.>.l.8.8.8.k.k.k.k.k.k.k.k.l.k.k.",
"k.>.8.k.k.k.8.8.k.k.k.k.8.8.8.k.k.k.k.k.l.8.7.7.4.[ ! M.I.Y.K.h.s.g.C.m.x.u.U ] >.k.k.k.k.k.l.k.k.7.k.k.l.l.k.k.k.k.7.k.",
">.>.>.>.>.7.7.7.8.k.k.k.8.k.k.k.k.k.k.k.7.7.5.o.h i ! G.T.R.U.D.N.S.H.Z.v.i.G h =.>.7.7.k.l.l.l.k.k.k.l.k.k.k.k.k.7.7.7.",
"l.k.k.7.7.7.8.8.k.k.k.k.k.k.k.k.k.k.k.k.8.7.-.h * * Q A.P.U.L.B.j.V.F.Z.c.i.l $ / >.7.>.>.k.l.l.k.k.k.k.l.k.k.8.7.7.>.7.",
"l.k.l.k.l.k.k.k.k.l.l.l.7.k.7.7.7.k.k.k.8.l.4.p * X N a.A.J.A.r.^ y.n.b.f.t.N 1 f =.6.7.k.k.l.l.l.l.l.l.k.k.k.k.k.k.7.k.",
"l.l.l.l.l.l.l.l.l.l.k.l.k.k.7.7.7.k.k.k.l.8.-./ - X < A *.w.q.S u A ! *.W H N 1 8 =.7.8.l.l.l.k.l.l.l.l.k.k.k.k.k.k.k.k.",
"l.l.l.l.l.l.l.l.l.l.l.l.k.k.7.7.k.k.k.k.8.6.=.#.q 4 q M 4 3 C g g u y 6 4 4 N 4 q =.6.8.l.l.k.>.k.k.l.l.l.l.k.k.k.k.l.l.",
"k.l.l.l.l.l.l.l.l.l.l.l.l.k.k.k.k.k.k.k.8.;.{ { D S W E 6 5 T ,.T P P V 6 6 N M 8 o.-.6.>.7.k.k.k.l.k.k.k.l.k.k.k.k.l.l.",
"k.k.k.k.l.l.l.l.l.k.k.l.k.k.k.k.k.k.k.6.4.k p ' 0 N W W I K 1.2.3.3.4. .B M B q 8 =.>.k.k.k.k.k.l.k.k.7.k.k.k.k.k.k.k.l.",
"k.k.k.k.l.l.l.k.k.k.k.k.k.k.k.k.k.k.k.5._ v g F 1 4 A U X.%.4.4.4.6.6...u 6 M q z -.k.l.k.k.k.k.k.k.k.>.>.k.k.k.k.k.l.l.",
"k.k.k.l.k.k.k.k.7.7.7.k.k.k.k.k.k.l.k.6.m m b f 1 1 q  .;.6.8.6.6.6.8.{ a < < i ] >.>.>.>.k.7.k.k.k.k.k.k.k.k.k.k.k.l.l.",
"l.l.l.l.k.k.k.k.7.7.k.k.k.k.k.l.k.l.l.6.,.} } f 1 8 J ..;.>.6.6.6.6.6.;.U 3 & 7 O.:.>.7.k.k.k.k.>.k.>.k.k.k.k.k.k.l.k.l.",
"l.l.l.l.l.l.l.k.k.l.l.l.l.l.k.k.l.9.l.5.} } ..G 3 2 Z ..o.%.>.6.5.3.6.%.P Z ; 7 ` -.>.7.k.k.k.7.7.>.>.7.k.k.l.l.k.k.k.k.",
"l.l.l.l.l.l.l.l.l.l.l.k.l.k.k.k.k.9.8.5.1.P n o.p 3 q ' { #.>.@._ L 4.4.+.L i s ` >.>.7.>.>.>.>.7.7.7.7.k.l.l.l.k.k.l.l.",
"k.k.k.k.k.k.k.l.k.l.k.k.k.7.k.7.7.7.5.$._ m b %.c 3 : / o.=.=.x t i ) 3.4...x n =.>.>.7.>.7.>.7.7.7.k.k.l.k.l.l.k.k.k.k.",
"k.7.k.7.7.k.k.k.k.k.k.7.7.7.>.7.6.6.5.+.[ n ..=.o.9 * / =.=./ 8 2 t : k +.{ [ $.7.7.7.7.>.7.k.k.k.k.k.k.k.k.k.k.k.k.k.k.",
"l.k.k.k.7.7.6.6.7.7.7.7.6.6.7.6.7.6.5.` s x o.=.` z 9 { =.O.l < 2 u % p _ ` ` 6.k.k.6.6.6.k.k.k.8.8.7.7.7.7.>.8.k.k.7.7.",
"k.7.7.>.7.7.>.7.7.7.>.7.7.7.7.7.7.7.5.+.i x o.+.o.o.o.O.O...d < 3 V % p ` 4.7.k.k.k.7.>.6.k.k.k.7.>.7.k.k.k.k.k.k.k.k.k.",
">.7.7.7.>.>.7.>.7.7.7.k.k.7.7.6.6.@.$.;.@.+.+.@.>.6.:.[ ] ' q 1 w { * 9 O.6.k.k.k.k.k.>.7.7.>.k.7.k.k.k.k.k.k.k.k.7.7.k.",
"7.8.>.k.k.7.k.k.k.l.7.7.k.k.k.6.4.@.@.5.:.-.;.-.>.7.:.' ' c 1 3 c $.h / 4.8.k.l.l.k.k.k.k.7.7.>.k.k.k.k.k.k.k.8.7.6.6.>.",
"8.8.8.8.7.7.7.8.k.8.7.7.7.8.7.>.+.O.;.6.6.5.:.:.6.6.:.{ c x f l ] ;.G #.5.6.8.9.l.l.8.9.9.8.6.5.7.k.k.k.k.k.k.k.k.k.7.7.",
"8.8.8.7.7.7.7.7.7.7.7.7.7.7.>.O.b +.6.9.8.5.;.-.6.6.6.@.) n { { { %.{ =.6.%.5.8.l.8.8.6.6.6.5.4.6.k.k.k.k.7.7.7.7.7.k.7.",
"7.7.7.>.>.7.7.7.7.k.k.7.k.>.>.=.) =.7.5.| @.5.6.6.7.k.7.o._ -.` { o.{ o.@.x %.7.8.6.@.c x c { ;.6.7.7.6.6.7.6.6.>.7.>.>.",
"7.>.7.7.7.7.7.7.k.k.k.k.k.>.-.=.4.5.7.5.;.5.6.5.;.5.8.l.:.=.:.) / =.;.%.{ x =.k.8.5.} a t g _ @.>.6.6.6.6.6.7.6.7.7.>.7.",
">.7.7.k.k.k.k.k.k.k.k.8.8.>.@.$.8.8.8.7.k.l.7.>.@.@.7.8.6.5.-.) { 5.6.;.| +.>.7.6.-._ v i / O.O.-.6.7.6.6.7.7.7.7.7.k.7.",
"7.7.k.k.7.7.k.7.7.7.7.5.=.o._ @.7.8.6.4.7.8.8.7.-.@.@.6.-.` ` =.:.>.;.;.5.:.>.>.6.6.5.=.=.-.-.O.@.-.5.-.6.7.7.8.k.k.k.k.",
">.7.k.k.7.7.7.7.7.7.7.-.` 5.5.6.8.7.@.k O.@.;.>.O.) k -.5.-.:.>.6.>.:.>.6.7.>.7.6.7.6.>.6.7.-.( ) @.6.5.6.8.k.l.k.k.k.l.",
"7.7.k.k.k.k.7.k.8.8.5.3.` 6.7.7.7.6._ e j _ =.>.=._ _ 5.k.7.k.7.7.6.7.7.7.>.7.>.7.6.6.6.7.7.5.` ` 4.7.6.8.k.l.k.k.k.k.k.",
"8.8.k.l.l.k.l.>.8.6.` ` 6.7.7.6.6.>.o.t e _ >.8.7.6.>.8.7.6.6.6.:.:.6.6.7.7.7.k.7.7.7.k.k.7.6.6.6.8.8.k.l.l.k.k.k.8.k.k.",
"8.>.8.8.k.k.k.k.8.6.5.6.k.7.7.7.6.8.O.s g +.>.8.7.@.( -.O.) / z h h { =.:.-.6.7.k.7.7.k.k.k.7.7.8.8.l.l.l.l.8.8.7.8.8.8.",
"8.8.l.l.>.>.k.8.7.6.3.=.6.7.6.5.8.8.-.[ ) =.>.;.O./ 9 p 9 7 p d f g p p h h c ` 6.-.>.k.k.5.-.;.7.6.-.5.7.9.8.7.7.8.8.k.",
">.7.>.k.>.k.>.>.6.5.) ) | @.=.-.8.8.;.{ _ -.:.] z p : O # - q q B B < % X . ; z ;.` :.k.l.6.@.;.6.=.` ` 6.9.8.8.k.k.k.k.",
"7.7.7.>.>.>.>.>.:.;.J C d g o.6.>.;.' 8 h ] ] w 4 6 6 6 q 0 0 0 q 6 < 4 1 X & p O.;.:.8.8.6.6.5.5._ ) 5.7.7.7.k.k.k.l.l.",
"7.>.7.8.9.9.l.>.;.#...G C c @.6.>.] w > # 7 0 6 q q N 6 1 , # # = < < $ O o ; q / ' ] o.@.+.+.-.6.5.-.7.7.6.6.7.k.k.l.l.",
"7.>.k.k.9.6.8.6.;...#. .V ] o.%...l 1 >   > 4 6 4 4 4 , , , $ , 4 0 4 #     , w l w f f x f g { 6.7.7.5.5.5.5.k.k.k.k.k.",
">.8.l.>.;.%.>.6.%.G X.L B G ' z V 4 , 4 1 4 6 6 < > # # , q q N D w 0 $ + + # 1 0 q M u r 5 r f ` =.@.` _ _ @.5.7.8.8.7.",
"7.>.=.) g a k c b Z K Z g 3 = * = X = 3 u B C u 2 3 6 q 6 3 d f N D f f 6 1 @ # = < 2 y r y y u v s s a t e g k @.7.k.8.",
"l.>._ j a s j b x b b L ..c p : 8 i d g Z K K Z g d g g g x x F G G G K x p 7 7 9 i 8 d g g v g v s s a i p h j _ ` 7.k.",
"l.>.] _ ) ) | _ _ } _ O.5.4.` ) ) | | | | 1.| | { ..] ` o.+.+.2.%.$.X.| { | _ _ [ ) ) ) ) } _ _ | _ _ _ _ ) _ ) ) ` 6.k.",
"l.k.>.>.5.6.6.6.6.6.7.7.8.8.7.7.7.8.6.8.8.7.7.8.8.>.8.>.7.7.7.7.6.6.6.6.6.6.6.6.6.8.7.7.8.7.7.7.6.8.7.7.8.7.8.7.7.7.6.k.",
"k.l.l.7.7.k.l.l.k.7.k.k.l.l.k.k.k.l.l.l.8.l.8.8.7.7.7.8.7.7.k.k.l.7.l.l.8.8.7.8.k.k.k.l.l.k.l.l.k.k.k.8.9.8.9.l.k.k.7.k.",
"k.l.7.7.8.k.l.l.k.k.k.k.l.l.k.k.7.7.7.7.8.l.l.l.k.k.k.k.k.k.k.k.7.7.l.l.l.l.l.8.k.k.l.l.l.k.k.7.7.7.8.8.8.8.9.l.k.k.7.k.",
"7.7.6.6.7.7.l.l.l.l.k.k.l.l.l.k.7.7.7.6.7.7.8.7.8.7.k.7.7.7.7.7.7.7.7.l.l.l.l.l.l.l.l.l.l.k.7.7.8.k.l.l.k.k.l.l.k.k.k.k.",
"7.>.7.6.7.7.l.l.l.l.l.k.k.k.k.l.k.k.7.7.6.7.6.6.7.7.>.7.7.>.7.>.6.6.7.l.l.l.l.l.l.l.l.l.l.l.k.k.l.k.l.l.l.l.l.l.k.k.k.k.",
"7.7.7.8.k.l.l.l.l.k.k.k.k.>.k.k.k.k.l.l.7.7.7.7.7.>.7.>.>.7.7.7.7.8.k.l.k.k.k.l.l.l.l.l.l.l.l.l.l.l.l.l.k.k.k.k.k.k.k.k.",
"k.k.k.8.k.l.l.k.k.k.k.k.>.7.>.7.7.7.k.k.k.k.l.l.7.7.>.7.7.k.l.l.k.k.k.l.k.8.k.k.k.k.k.k.l.l.l.l.l.l.k.8.7.k.7.7.7.7.7.7.",
"k.k.7.8.k.>.k.>.>.k.>.k.>.7.8.>.>.7.7.7.7.k.k.k.l.>.7.7.l.l.k.k.7.7.7.7.7.7.7.8.8.8.8.7.7.k.k.k.k.8.8.7.7.7.6.6.7.7.6.6.",
"k.k.>.>.8.>.8.k.l.l.l.k.k.8.8.k.7.7.7.7.7.7.7.k.k.7.>.7.k.k.7.>.7.7.7.8.k.k.l.k.k.k.k.8.7.7.7.8.7.7.7.7.6.6.6.6.>.>.7.6."
};
