/* XPM */
static char *result[] = {
/* columns rows colors chars-per-pixel */
"60 60 216 2 ",
"   c #140F15",
".  c #1B0C1D",
"X  c #1A1315",
"o  c #1A1518",
"O  c #28091B",
"+  c #330418",
"@  c #23141E",
"#  c #29161E",
"$  c #271B1E",
"%  c #33191F",
"&  c #1F1523",
"*  c #1F1D23",
"=  c #220F21",
"-  c #231523",
";  c #2A1422",
":  c #241A25",
">  c #2D1D25",
",  c #291628",
"<  c #261B29",
"1  c #2B1C2C",
"2  c #331927",
"3  c #2D1F30",
"4  c #321F30",
"5  c #2C2225",
"6  c #282526",
"7  c #2C232C",
"8  c #3D2325",
"9  c #33242C",
"0  c #342C2C",
"q  c #392829",
"w  c #37322E",
"e  c #2D2231",
"r  c #2E2B38",
"t  c #322434",
"y  c #332A34",
"u  c #352638",
"i  c #352B3A",
"p  c #3A2D3C",
"a  c #3B3235",
"s  c #353138",
"d  c #3C333C",
"f  c #442A2A",
"g  c #512D29",
"h  c #4E322F",
"j  c #55332C",
"k  c #5B342D",
"l  c #5E392D",
"z  c #402F38",
"x  c #473837",
"c  c #543632",
"v  c #553B37",
"b  c #64392E",
"n  c #6F3E2E",
"m  c #643E33",
"M  c #6C3E30",
"N  c #4C433E",
"B  c #56413E",
"V  c #77412D",
"C  c #7A432E",
"Z  c #6A4338",
"A  c #734333",
"S  c #7E4631",
"D  c #7E4834",
"F  c #73493B",
"G  c #7D4B3A",
"H  c #3C2F40",
"J  c #3D3341",
"K  c #3E3941",
"L  c #7F1D4C",
"P  c #4A2A42",
"I  c #542A44",
"U  c #423543",
"Y  c #433B44",
"T  c #443749",
"R  c #453C4A",
"E  c #483D4E",
"W  c #692A4B",
"Q  c #6A3252",
"!  c #464142",
"~  c #4D4544",
"^  c #46424B",
"/  c #4B444C",
"(  c #4C4A4D",
")  c #564A48",
"_  c #57524E",
"`  c #4B4452",
"'  c #4D4A53",
"]  c #4F4C59",
"[  c #524B54",
"{  c #534958",
"}  c #524D59",
"|  c #545154",
" . c #5C5452",
".. c #55525C",
"X. c #5A555D",
"o. c #5A585F",
"O. c #704F44",
"+. c #64524D",
"@. c #795247",
"#. c #645858",
"$. c #785D53",
"%. c #65635D",
"&. c #555561",
"*. c #5A5662",
"=. c #565864",
"-. c #5B5A64",
";. c #5D5E69",
":. c #635C64",
">. c #645E6A",
",. c #5E616B",
"<. c #646563",
"1. c #6A6365",
"2. c #62636C",
"3. c #69636A",
"4. c #6C6A6B",
"5. c #726A6C",
"6. c #787266",
"7. c #72706C",
"8. c #6B6671",
"9. c #716C74",
"0. c #737174",
"q. c #797573",
"w. c #7A757B",
"e. c #804731",
"r. c #814832",
"t. c #844D3A",
"y. c #8B4B38",
"u. c #85523E",
"i. c #8C533C",
"p. c #97553C",
"a. c #AD5738",
"s. c #B15E3D",
"d. c #C86C2F",
"f. c #CB6635",
"g. c #D97835",
"h. c #E87A3A",
"j. c #8A174A",
"k. c #90144B",
"l. c #864F40",
"z. c #845442",
"x. c #8A5444",
"c. c #8B5946",
"v. c #8D564D",
"b. c #865A49",
"n. c #8C5C4C",
"m. c #955B49",
"M. c #875E53",
"N. c #955C58",
"B. c #9B6C4C",
"V. c #8D6551",
"C. c #976557",
"Z. c #9A7459",
"A. c #AB674D",
"S. c #B8664B",
"D. c #A46A54",
"F. c #B76356",
"G. c #AD7652",
"H. c #BB7756",
"J. c #827E77",
"K. c #A86760",
"L. c #A37965",
"P. c #C14F46",
"I. c #C16A44",
"U. c #C9724B",
"Y. c #E98734",
"T. c #ED9537",
"R. c #F39836",
"E. c #F8AA2C",
"W. c #F7A635",
"Q. c #ECB235",
"!. c #AA875B",
"~. c #B4885A",
"^. c #84827A",
"/. c #AA9566",
"(. c #AD906A",
"). c #DB8147",
"_. c #D49852",
"`. c #ED8E47",
"'. c #CFA752",
"]. c #ECBF43",
"[. c #CCA762",
"{. c #CFB064",
"}. c #D4B469",
"|. c #C7B577",
" X c #F5C646",
".X c #F5D24D",
"XX c #F1CD5B",
"oX c #F5E05F",
"OX c #F1CC63",
"+X c #F2E174",
"@X c #FBF078",
"#X c #7F7B82",
"$X c #817D85",
"%X c #8E898F",
"&X c #8F8992",
"*X c #999599",
"=X c #9F99A2",
"-X c #A19CA3",
";X c #A9A7AA",
":X c #B2AEB5",
">X c #BAB6BF",
",X c #F2E588",
"<X c #EFE597",
"1X c #C2BDC3",
"2X c #CAC5CB",
"3X c #D1CAD4",
"4X c #DAD6DC",
"5X c #DFDBE3",
"6X c #E3E1E4",
"7X c #E7E3EB",
"8X c #EAE7ED",
"9X c #EDE9EE",
"0X c #F1EBEF",
"qX c #EDECF1",
"wX c #F1EEF3",
"eX c #F7F2F5",
/* pixels */
"r.r.r.e.e.C e.e.e.e.e.r.r.r.r.r.r.r.e.r.e.e.e.e.e.e.e.C e.e.e.e.e.e.e.e.e.C C C e.e.e.e.e.e.e.r.r.r.e.e.r.r.r.r.e.e.C C ",
"r.r.e.C C C C e.e.e.e.r.r.r.r.r.r.r.r.r.e.e.e.e.e.e.C C V C C e.e.e.e.e.e.e.e.e.C C V n C e.e.e.e.r.r.r.r.r.r.e.e.C C e.",
"e.r.e.C C e.e.S V e.e.e.r.e.r.r.e.e.e.e.e.e.e.e.e.e.e.C C V V V C n V C C C C C e.n V V C e.e.e.r.r.r.r.r.r.r.r.e.e.e.e.",
"S S e.S S e.r.e.e.e.e.e.r.r.r.r.e.e.V e.C e.C C e.e.e.e.e.e.C C V C V C C n C n n C n e.e.r.r.e.r.r.e.r.r.r.r.r.r.e.e.e.",
"C e.C n C e.r.r.r.r.r.r.r.r.e.e.e.V C e.e.e.C V V C S S e.e.r.r.r.e.S n n C n C e.e.e.e.e.e.e.e.e.e.e.e.r.e.e.e.e.e.e.e.",
"V n C C n C r.r.r.r.r.r.r.r.e.e.e.e.e.e.e.e.C V V C z.V.C e.e.r.r.r.r.S c.u.e.e.e.e.e.e.e.C C C e.e.e.e.e.e.e.e.e.e.e.e.",
"V V C C C e.r.r.r.r.r.r.r.r.e.e.r.r.r.r.e.e.e.e.S C u.C.S e.C C r.C.c.u.L.i.S e.e.n C C C V C e.e.C e.e.e.e.e.e.V e.e.e.",
"C e.e.r.r.r.r.r.e.e.r.r.e.e.e.e.r.r.r.r.e.e.e.e.e.e.t.C.D S C e.m.D.u.n.b.S e.e.e.C C e.e.e.e.e.e.e.e.C V V V V V V V V ",
"r.r.e.e.e.C C C S e.S e.e.e.e.e.e.r.e.e.S S D S C C C u.S V V D S.U.t.S C V n S C C C C S e.e.S e.n C V V V V V V V V V ",
"e.C C C C C C S e.S S S e.e.V e.C C e.e.S V z.x.C V C C G D C m.U.I.D A n S S n n C C C C C S S C e.e.C C C C V C e.e.e.",
"r.e.C C C r.r.r.e.S S S e.V n C n e.n C V V m.F.i.C C S A.i.p.g.R.I.e.V D v.M.S C C S e.S e.e.e.e.e.e.e.e.e.e.e.e.e.e.e.",
"i.e.e.e.e.e.r.r.S C C C n C C n C n D G S S u.H.I.p.t.p.U.g.g.R.E.f.r.e.t.v.t.S e.e.e.S C C S S e.e.e.e.e.e.e.e.e.e.e.e.",
"r.C e.e.r.C C C e.S S n C C C C C e.y.N.v.r.r.S.`.h.d.Y.W.].]..X XY.s.i.y.t.u.D e.e.e.C S S S S C e.e.e.e.e.e.e.e.e.e.e.",
"C C C C e.r.e.C e.e.e.S C C e.e.e.e.y.m.N.l.r.A.Y.E.W.E. X+X+X@XoXW.R.).F.L.Z.C.B.B.i.C S e.S S e.e.e.e.e.e.e.e.e.e.e.e.",
"C C V V C C C C S r.r.r.r.e.e.r.e.e.e.e.r.G m.F.h.E. X.XOX}.}.}.,XXXW.g.p.c.!.(.~.!.n.C S S r.r.e.e.e.e.e.e.e.e.e.V V C ",
"r.C C C C C C C S r.r.e.e.e.e.e.e.e.e.e.S z.K.P.h.Q..X}.[.[.[.|.<X.XT.s.r.e.D D D C C C C S r.r.e.e.e.e.e.e.e.e.C V V V ",
"r.r.e.e.r.r.e.e.e.r.r.r.S C S C S S S e.c.v.t.y.a.f._.'.[.[.,X,X+X.XR.s.r.C V V V V V V C r.r.r.r.r.r.r.r.e.e.e.r.C C V ",
"e.r.r.r.e.r.e.r.r.r.r.r.e.S C V S S e.e.z.i.t.G C.D.G./.!./.|.{.'.Q.Q.S.u.S G C C S S S r.r.r.r.r.r.r.r.r.r.r.r.r.e.e.e.",
"r.r.r.r.r.r.r.r.r.r.r.e.e.e.S C D e.e.e.u.@.B x ! _ #.<.7.6.6.6.M.Z.~.H.C.G N.v.t.r.r.S r.e.S S e.e.r.r.r.r.r.r.r.r.r.r.",
"r.r.r.e.r.r.r.r.r.r.r.r.r.r.e.S e.e.e.S G x @ 7 K / #.4.7.7.7.%.[ z @.u.c.S z.N.r.C C C C C C S e.r.e.e.e.r.r.r.r.r.r.r.",
"e.e.e.e.r.e.r.r.r.e.r.r.r.r.r.r.e.e.e.S @.$ q ) %.4.q.J.^.^.^.0.} p v z.z.C S r.e.C C C e.e.e.e.r.r.e.C C r.r.e.r.r.r.r.",
"S e.e.e.r.r.r.e.S e.e.e.e.e.e.r.r.e.D D $.#.1.#. ._ _ [ | | %.2.9.#.~ G z.S C C S C C e.e.e.e.e.e.C C C C C C e.e.e.r.r.",
"r.e.r.r.r.r.e.S C C C S S S S r.r.u.b.@.#.( E [ :.#.1.5.1.<.X./ / _ %.M.u.r.r.S S C C C C S S S e.e.C e.e.e.e.e.C e.e.r.",
"r.r.r.r.r.e.e.S C S S e.e.e.D r.z.M. ./ ( } X.:.:.-.:.1.3.1.:.X.[ ) ~ ) $.b.S S S e.r.e.S e.S S C C V e.e.e.e.e.e.e.r.r.",
"r.r.e.r.r.r.r.e.e.r.r.e.r.r.t.z.#.N N ~ ( | X.*.*.X.X.o.o.X.X.} [ ~ ~ N x ) G S C e.C e.e.C C V C V V C e.r.r.r.r.r.r.r.",
"r.e.e.e.r.r.r.r.r.r.r.r.r.r.n.+.N w w w 6 N o.-.;.-.-.-.-.*.X.X.( 7 w q 0 w N F V V V V V V V V V V V C e.r.r.r.r.r.r.r.",
"e.e.e.e.e.e.r.r.r.r.r.S r.u.+.a 6 @ X   o ) o.;.;.;.;.;.-.-.-...| 6 X X X 5 0 x C V V V V V V V C C e.r.r.r.r.r.r.r.r.e.",
"e.S S C C e.e.e.e.S r.S D ) d 7 @ 0 d ^ | o.-.,.;.;.2.;.;.;.-.-.*.[ ! d 9 < < a B C V V V V e.r.r.e.e.e.r.C e.e.e.e.e.e.",
"e.e.e.C C C C V C C C C O.! R K ^ / ( } ..o.,.,.,.,.,.,.,.;.;.-...] ` / E R H U w Z V V V e.r.e.C C C C C V C C C e.e.C ",
"S C C V C C V V V C C F ~ K K ^ ^ ! ! ( | o.-.,.,.,.8.,.,.;.-.&.{ ` ^ Y x R T U d x Z V V e.r.e.C C C C e.e.r.r.r.r.e.e.",
"C C C C C C V V C C C F a U R ^ K K / ..-...=.=.,.,.,.,.,.=.&.&.{ ..X.( a p T J J a j V V e.r.e.e.e.e.e.e.e.e.e.e.C C V ",
"C C C C C C C C S S S v d U R K s K o.3.-.` &.=.;.,.;.;.=.&.&.} `  .>.X.U i J J J p w V e.e.r.r.r.r.r.r.e.e.e.C C V V V ",
"C C e.S S C C S S S A x a z Y d K ;X6XqX6X=X( =.=.=.,.=.=.&.&.K #X4XqX8X1X[ t U d p 9 Z r.r.r.r.e.e.e.r.e.e.e.e.e.e.C C ",
"e.S C C C V C C S C m a d U K 7 :XwXwX7X;X*X0.| =.=.o.=.&.&.] ,.-X*X4XeXeX2Xa p a p y v D r.r.r.e.e.e.C C e.C V V C e.C ",
"V C C C V V V V C r.Z a d U r o.7XqX8X*X6 0 w.' o.=.=...&...] 0.~ o q.8X0X9Xw.7 U p t f r.r.e.e.C C V C C V V V V V V V ",
"V V V C C V C S e.r.j s U K 6 #X8X7X5X3.6 4.*X( ..=.......] ( %X*Xo ( 2XwX9X-X: p p t q D C C C V V V V C V V V V V V V ",
"V V C S e.e.e.e.e.S c p d J 7 $X5X7X5X[ o 6 s ( | ..] &.] ] ^ ! w o a 1X9X7X-X< p p u 5 Z C V V V V C V C C C C C C C V ",
"V C e.e.S C S C C A h i H J 7 9.2X5X5X9.o o | ` | ] ] ] ' ' ( =.*   ..4X5X3X&X< d i t 5 Z C n C V C V V C C C e.e.e.e.e.",
"V C e.e.S C V C C S h i H J e [ :X>X2X2X%X%X#XK ] ' ' ] ' ^ ^ ,.*X$X>X3X1X>X8.1 p u 7 > A C e.C S S S e.S e.e.e.e.r.r.r.",
"V C e.e.e.S S S S e.j e p J p e 3.3.>.3.9.$X' ^ ' ' ' ^ ^ ' ^ K w.4.2.2.>.>.t e i u 1 8 A e.e.e.e.e.e.e.e.e.e.e.r.r.r.r.",
"e.C e.e.r.e.e.C e.r.l 7 i d d J { o.:.:.X.} ' ^ ^ / / / ^ R R ^ { { *.:.:.{ J i u u 1 f D S C S S S r.r.r.r.e.e.e.e.e.e.",
"C C C e.e.e.C e.e.r.A 9 e i p R ` { { ` { R e K K K K d K K s r E E { { E E R i t 4 1 j S S S S e.e.r.r.r.e.e.S C e.C C ",
"e.e.e.C C C n C S r.S f < e p J R E ` E / R i Y ;.9.0.9.3...s i T E E E T T J u t 1 > M r.r.S r.r.r.r.r.r.r.e.C C e.S e.",
"e.n C C n C C V S r.r.c < e u p U T T T T T K i o 6 s y 6 * s J J J H T H H u 4 1 - 8 n r.r.r.r.r.r.r.r.r.r.e.S e.e.e.e.",
"n n C C C C V C S r.S F 7 < 1 u u H H H J J J J 2 + + + + 4 H H H p p i i t 1 1 - @ j S r.r.r.r.r.e.r.r.r.r.r.e.e.r.e.r.",
"n e.C C S D e.S S C V A h < : 7 e u r r i p J H W L k.j.L I P H p p u t 3 1 , , @ 8 V C r.r.r.r.r.r.r.r.e.r.r.r.r.r.r.r.",
"C n e.r.e.e.e.e.S S S S A 9 & < e e u 4 t u r r I Q Q W Q P u u 3 3 3 3 1 1 - @ $ b C C C C r.S r.r.S S e.e.e.e.e.e.e.e.",
"C e.r.r.e.e.r.r.r.r.r.S r.Z 5 & - , 3 e 4 3 e 3 < 1 e 3 4 1 3 3 e 3 3 1 1 - - # l r.S r.r.r.r.r.e.e.S S S S C e.C e.S C ",
"n e.e.e.e.e.e.e.e.e.e.e.e.e.Z % $ * , < 1 3 3 1 7 < - - 1 4 4 3 1 1 1 , - @ # g r.r.r.r.r.r.r.r.r.e.e.e.C C C C e.e.e.e.",
"e.e.e.e.e.e.e.e.e.e.e.e.r.r.C V 8 o - , < - 1 < < > 6 1 1 < , 1 , ; = - = # k e.e.r.r.r.r.r.r.r.r.r.r.r.e.C C C e.r.e.e.",
"e.e.e.e.n e.e.e.e.e.e.e.r.r.r.e.A f > - & . - & & & & @ & & - - = = = O % b e.e.r.r.r.r.r.r.r.e.r.r.r.r.r.e.r.r.e.e.C e.",
"e.e.e.e.e.C C e.e.e.e.e.r.r.r.r.r.S b f @ . . . . . .   . . & . . . ; g n S S S r.r.e.r.e.r.r.r.r.r.r.r.r.r.r.r.e.e.C e.",
"e.e.e.e.e.e.e.e.e.e.e.e.e.e.e.e.r.r.e.n b q $ @ . . . O   O O O 2 g n e.e.S S S e.r.r.r.r.e.e.e.e.r.e.e.e.r.r.r.r.e.C e.",
"e.e.C e.C e.e.e.e.e.e.e.e.e.e.e.e.n e.e.S D M k g g 8 8 f f k n V D e.e.e.e.e.S e.r.e.r.r.e.e.C C C C C C r.r.r.e.e.C e.",
"V V V V n e.e.e.e.e.e.e.e.e.e.e.e.n n e.C C C S e.n n e.n n C C V V S e.r.r.e.e.r.r.e.r.r.e.C C e.e.r.e.e.e.r.r.r.e.C e.",
"V V V V C e.r.e.e.e.e.e.e.e.e.e.e.e.e.C n C n C C n e.n C n C n n C C r.r.r.r.r.r.r.r.r.r.e.e.e.r.e.r.r.r.r.r.r.r.r.e.C ",
"V n e.C e.e.e.e.e.e.e.e.V V e.e.e.e.e.e.e.C V C n V V V V C V C C e.e.r.e.e.r.r.r.r.r.r.r.r.r.e.r.r.r.r.e.e.e.r.e.e.e.e.",
"e.e.e.e.e.e.e.e.e.e.e.e.V V V V C e.e.e.e.e.e.e.e.V V V C e.e.e.e.e.e.r.e.S e.e.e.e.e.e.r.r.r.r.r.e.e.e.C C C C C C C C ",
"e.e.e.C C e.C n V e.e.C V V V e.V V n e.C e.e.e.e.V V V e.e.C C C C C C C C C S S S C C e.e.e.r.e.e.e.C V C V V V V C V ",
"e.C V V C C e.e.e.e.e.e.e.e.e.n C C C C C C C e.e.V V C e.e.e.V C C C S e.e.r.r.r.e.e.e.C C C C C C V C V V V C V V V V "
};
