/* XPM */
static char *result[] = {
/* columns rows colors chars-per-pixel */
"60 60 224 2 ",
"   c #0A0709",
".  c #18090B",
"X  c #1B160E",
"o  c #1A0715",
"O  c #140B14",
"+  c #1B0916",
"@  c #1B0C1B",
"#  c #181417",
"$  c #1D141C",
"%  c #290B1C",
"&  c #3A0619",
"*  c #21161B",
"=  c #29211C",
"-  c #1F0E20",
";  c #1C1321",
":  c #1E1923",
">  c #220E20",
",  c #2F0D23",
"<  c #340820",
"1  c #251525",
"2  c #241A25",
"3  c #2A1B26",
"4  c #291628",
"5  c #251B29",
"6  c #2B1C2B",
"7  c #341D25",
"8  c #331D2C",
"9  c #311E31",
"0  c #262125",
"q  c #2C2625",
"w  c #27242B",
"e  c #2B222D",
"r  c #392127",
"t  c #32222B",
"y  c #3A262C",
"u  c #35292A",
"i  c #2E2231",
"p  c #2F2A30",
"a  c #2E2B38",
"s  c #322434",
"d  c #342B35",
"f  c #3A2935",
"g  c #342739",
"h  c #3A263A",
"j  c #362B39",
"k  c #3A2C3C",
"l  c #373233",
"z  c #36323B",
"x  c #3A323C",
"c  c #3D3A3C",
"v  c #4A0B29",
"b  c #5E0E33",
"n  c #640732",
"m  c #7B0A3C",
"M  c #462B2C",
"N  c #502F2E",
"B  c #47302E",
"V  c #52322D",
"C  c #5C362E",
"Z  c #4B2F33",
"A  c #453637",
"S  c #4D3435",
"D  c #433A3B",
"F  c #563831",
"G  c #5C3B35",
"H  c #6B3C2D",
"J  c #703F2D",
"K  c #633C33",
"L  c #6A3E31",
"P  c #643F38",
"I  c #49423D",
"U  c #58453A",
"Y  c #77412D",
"T  c #7A432E",
"R  c #6E4134",
"E  c #63443A",
"W  c #694438",
"Q  c #744232",
"!  c #7E4631",
"~  c #7D4935",
"^  c #73483A",
"/  c #7D4C3A",
"(  c #3A2E41",
")  c #3D3342",
"_  c #3E3A43",
"`  c #3F3D4A",
"'  c #442C40",
"]  c #423644",
"[  c #433C44",
"{  c #443D4A",
"}  c #493E4C",
"|  c #464045",
" . c #494343",
".. c #4C4947",
"X. c #46434D",
"o. c #4A444D",
"O. c #4B494D",
"+. c #534747",
"@. c #534A4B",
"#. c #5B4C4B",
"$. c #5D504B",
"%. c #464451",
"&. c #4B4452",
"*. c #4C4954",
"=. c #4E4C59",
"-. c #504751",
";. c #534D55",
":. c #534D59",
">. c #545254",
",. c #55525B",
"<. c #5A575A",
"1. c #5A555C",
"2. c #5B595F",
"3. c #67564B",
"4. c #7C5345",
"5. c #71564F",
"6. c #79564A",
"7. c #66595A",
"8. c #736652",
"9. c #79625C",
"0. c #565462",
"q. c #5A5662",
"w. c #565860",
"e. c #5C5B64",
"r. c #5F5E69",
"t. c #625E65",
"y. c #645F6A",
"u. c #5D6066",
"i. c #5F6169",
"p. c #636265",
"a. c #686567",
"s. c #63626B",
"d. c #6E6C6B",
"f. c #6D726A",
"g. c #757569",
"h. c #656370",
"j. c #6D6B72",
"k. c #706E78",
"l. c #737274",
"z. c #7B7677",
"x. c #757279",
"c. c #804731",
"v. c #814832",
"b. c #834E3A",
"n. c #8A4E38",
"m. c #87523C",
"M. c #8A523D",
"N. c #B15C39",
"B. c #DA742E",
"V. c #C06432",
"C. c #D6743A",
"Z. c #E47E31",
"A. c #8F0F44",
"S. c #A20E4B",
"D. c #855442",
"F. c #895643",
"G. c #8B5947",
"H. c #8E5B4A",
"J. c #955C47",
"K. c #935D4A",
"L. c #8F5D54",
"P. c #935D52",
"I. c #9A6645",
"U. c #92624C",
"Y. c #9C784D",
"T. c #896B51",
"R. c #996757",
"E. c #9B7157",
"W. c #AA6B48",
"Q. c #B56746",
"!. c #BB7346",
"~. c #A36B54",
"^. c #B86A53",
"/. c #A67A57",
"(. c #BD7856",
"). c #9B6865",
"_. c #86736B",
"`. c #827D7C",
"'. c #A87966",
"]. c #AB716E",
"[. c #C36746",
"{. c #CD7D44",
"}. c #C26854",
"|. c #E7893A",
" X c #EA9531",
".X c #F79A39",
"XX c #F2A12C",
"oX c #ECAF3B",
"OX c #F2B539",
"+X c #A88653",
"@X c #B69558",
"#X c #878674",
"$X c #A9846A",
"%X c #B79A75",
"&X c #D59649",
"*X c #CC875B",
"=X c #E38F43",
"-X c #D4AC4E",
";X c #EAAF4D",
":X c #C89B61",
">X c #C8A969",
",X c #DCB166",
"<X c #E4C45A",
"1X c #F4CF55",
"2X c #F9DE75",
"3X c #7B7380",
"4X c #7E7D82",
"5X c #817E83",
"6X c #898887",
"7X c #858189",
"8X c #949295",
"9X c #A29CA6",
"0X c #A9A5AA",
"qX c #BAB8BB",
"wX c #F8E583",
"eX c #FEF4AC",
"rX c #C9C7CA",
"tX c #CDCAD0",
"yX c #D5D2D7",
"uX c #E0DBE2",
"iX c #E8E4EA",
"pX c #F1EEF3",
"aX c #F6F3F7",
"sX c #FDFBFC",
/* pixels */
"v.v.v.c.c.c.c.c.c.v.v.v.c.v.v.v.c.v.v.v.c.v.v.c.T c.c.T c.c.c.c.c.c.c.c.c.T T ! ! c.c.! ! v.v.v.v.v.c.c.v.v.v.v.c.! T ! ",
"v.v.c.T Y Y T T c.c.c.v.v.v.v.v.v.v.v.v.v.c.v.v.v.c.T Y Y T T c.! c.c.c.c.c.! ! T T Y Y ! v.v.v.v.v.v.v.v.c.v.c.c.T T T ",
"c.v.c.T T c.v.c.T T c.c.v.c.v.v.c.c.c.c.c.c.c.c.c.v.c.c.T Y Y T Y Y T T T T Y Y Y Y Y Y J v.v.v.v.v.v.v.v.v.v.v.c.c.c.c.",
"! ! c.! c.c.v.c.c.c.c.c.v.v.v.v.c.c.T c.c.T T T T c.c.c.c.c.T T T T J T Y Y Y Y Y Y T Y c.v.v.v.v.v.v.v.v.v.c.v.v.v.v.v.",
"c.T Y Y Y c.c.v.v.c.v.c.v.v.v.v.c.T T T c.c.T Y Y T c.c.c.v.v.v.c.c.T J Y Y J ! ! ! ! c.c.v.c.c.c.c.v.c.c.c.c.v.c.c.c.c.",
"Y Y Y Y Y T v.v.v.v.v.v.v.v.v.v.c.c.c.c.c.c.T T Y Y Y T T T c.v.c.c.c.T Y T ! c.c.c.F.! ! ! c.J ! c.c.c.c.c.c.c.c.c.c.c.",
"Y Y Y Y Y c.v.v.v.v.v.v.v.v.v.v.c.c.v.v.c.v.c.c.c.T T T T c.c.T c.c.! T Y Y ! c.c.J.).! J T ! ! c.! ! ! ! ! ! ! ! ! c.c.",
"T c.v.v.v.c.v.v.c.c.v.v.v.c.v.v.c.c.v.v.c.c.c.c.c.c.c.T T T T T c.T T Y Y Y ! c.J.J.).c.c.v.c.n.P.D.c.v.F.! T J J T T J ",
"v.v.! ! c.c.T T c.c.! c.c.c.c.v.c.c.c.c.c.c.T Y T T c.J J T J T T J T T T Y T ! $XE.).b.F.v.v.I.].D.! ).).J J ! J J ! J ",
"v.T T Y Y Y Y T c.! ! ! T c.T T c.T c.T T T Y Y J T J J T T J T T T T J Y Y Y Y E./.H.P.'.b.M.(.}.D.R.].G.J n.P.G.! c.v.",
"v.! ! T c.c.v.v.v.v.! ! T Y Y Y Y Y Y T Y Y Y Y T T c.T T Y T T T J J T Y T Y Y G.$Xn.~.*XW.W.=X[.J.P.].H.J.).R.n.v.v.v.",
"M.v.v.v.c.c.c.v.c.T T J Y Y Y Y Y Y Y Y T T c.c.c.c.c.c.c.c.c.c.T ! ! c.T T T c.~ G.F.Q.=XB.B..XC.~.M.G.b.P.P.v.c.v.v.v.",
"v.~ v.v.v.c.T T c.T Y Y Y Y T T T T T c.c.c.c.c.c.c.c.c.c.c.c.c.J c.T J c.v.c.c.m.'.}.C.XXOXOXOX X!.I.W.I.R.v.v.c.v.c.c.",
"Y Y T T c.c.T c.c.c.c.c.! c.T c.c.c.c.c.c.c.c.c.c.c.c.c.c.c.c.c.c.c.c.c.T T J c.~ R.[.|.oX1XwXwX1X<X&X=X(.J.c.c.c.c.c.c.",
"T Y Y Y Y T T T c.v.v.c.c.c.c.c.c.c.c.c.T T T T T c.T T T T c.c.v.c.c.v.v.v.v.c.c.R.*X;X-X<XwXeX2XOX X!.G.c.c.c.! T J T ",
"v.! Y Y Y Y T c.c.c.v.v.c.c.c.c.c.c.c.c.T c.c.c.c.c.c.T T Y T T Q b.b.c.v.J J c.E.%X,X-X&X-X,X2XOXXXV.n.c.c.! ! J T T T ",
"v.c.v.c.v.c.c.c.v.c.v.c.c.c.c.c.c.c.c.c.c.c.! ! ! c.~ c.T T T ~ 6._.9.9.6.~ T T.>X:X@XY.W. XOX X X.X[.n.v.v.c.c.c.c.Y c.",
"v.v.v.v.v.v.v.v.v.v.v.v.c.v.J J T c.c.c.v.c.Y Y Y T ! ! v.v.~ W B z.a.<.7.9.E.@X>XY.M.v.F.{.Z.N.N.V.^.n.n.v.v.v.c.c.c.c.",
"c.v.v.v.v.v.v.v.v.v.v.v.v.c.! J c.c.c.c.c.c.T Y Y ! ! Q ! ! E y u <.`.p.O.U +X@X+XM.c.v.U./.Q.M.b.b.I.m.v.v.c.v.c.c.v.v.",
"v.v.c.v.v.v.v.v.v.c.v.c.v.v.! ! c.c.c.c.c.m.m.4.4.4.6.4.4.W t d D ..p.7X>.U Y.+XT.~ T b.$XE.F.m.K.R.n.c.c.v.c.c.c.c.v.v.",
"c.c.c.c.v.v.v.v.v.c.c.v.v.v.v.v.c.c.! 4.6.5.$.@... .|  .A 6 s x } #.<.d.#Xg.8.^ U 7.^ m.%XI.v.U.E.P.P.! ! c.c.c.c.c.v.v.",
"c.c.c.c.v.v.c.c.c.c.c.c.c.! c.v.v.v.6.#.| | }  .o.o.o.[ 6 8 A [ -.1.t.a.g.#X#X3...,.9.G.%XE.v.b.D.b.L.b.T T T c.c.c.v.v.",
"c.c.c.v.c.c.c.! ! J J c.! ! c.c./ #. .{  .D D o.e.e.1.%.j k ] } :.t.a.f.f.f.f.`.5Xl.f.9.H.m.! ! c.c.v.v.c.c.c.c.c.c.c.c.",
"v.v.v.v.c.c.c.! ! c.c.c.v.v.v.3.I o.-.[ D I q l 2.p.y.0.} ] } -.>.e.s.d.u.u.;.X.;.a.g._./ ~ ! ! ! c.J ~ c.c.c.c.c.c.v.v.",
"c.v.c.c.v.v.v.c.c.c.v.v.v.F.#.[ o.| d 0 = X   c 1.p.h.r.=.%.&.=.<.u.p.a.2.:.&.` j u 7 #.! T T J J J T T c.v.v.v.c.c.c.c.",
"v.v.c.c.v.v.v.v.v.c.v.v.m.+.` &.o.2 # # : q | ,.w.e.r.e.0.0.&.=.2.u.p.2.,.;.{ ) j y y J Y Y T T J ! T J c.v.v.v.c.c.c.v.",
"c.c.c.c.c.c.c.v.c.c.c.~ U [  .&.%._ o.>.2.2.e.q.e.e.0.e.e.0.=.*.<.u.2.,.;.&.] ( g i N J Y Y T T ! ! ! v.v.v.v.v.c.c.c.c.",
"c.c.T c.T c.c.c.c.c.c.^ D } &.*.,.d.l.x.x.p.e.e.e.e.r.0.0.w.>.o. ...>.>.&.{ ' g s 6 H T Y T c.c.v.v.v.c.v.T c.c.c.c.c.c.",
"c.c.c.! c.T J T T ! Q S [ &.%.o.z j _ c O.e.u.e.r.u.r.e.e.<.l D I I D I [ ( g i 6 y Q Y T c.c.c.T c.! T T J T c.c.c.Y c.",
"c.T T T J T T T Y Y K c { &.{ p j.qXtXqXl.*.e.p.i.i.r.r.e.o.X * * q u u j j i 9 1 f L Y J c.c.c.T J T T c.c.v.c.c.c.c.c.",
"T T T J T T J T Y T S x } o.d 7XpXsXsXsXpX4X,.i.s.i.r.r.u.o.0 q q 3 # # 0 x g 9 6 t C Q T c.v.c.c.c.c.c.c.v.c.c.Y c.c.Y ",
"T T T T T c.T T v.Q A x  .] @.uXsXsXiX0X0XqX1.p.u.i.i.i.e.w.>.,.1.,.X.d i ) k k f s B ! c.c.c.c.c.c.v.v.c.c.c.T T T Y Y ",
"T T c.c.T T T T c.J l x [ j 7XpXsXpX6X0 # z.i.u.u.u.u.e.w.w.w.r.h.h.3X0.{ ) ( ( h f y Q v.v.v.v.c.c.c.c.c.c.c.c.c.c.c.Y ",
"c.T T T T T T T c.C d j x x 9XiXaXyX>.# f.8X<.2.u.2.e.e.w.0.0.h.i.k.4Xr.*.( ( k k h t L v.v.v.v.c.c.c.c.c.c.Y T Y Y Y c.",
"Y T T T T T T T T S d j k ) 0XyXaXrXl   z.8X..=.0.w.w.0.0.` =.i.r.k.4Xr.*.) j k k h u G c.c.v.~ c.Y Y Y Y Y Y Y Y Y Y Y ",
"Y T J T J T T T c.S s f k ( 9XtXiXyXc   # c O.*.:.*.*.=.=.a =.0.%.%.=.=.;.[ j k k h i V T c.T Y Y Y Y Y Y Y Y Y Y Y Y Y ",
"Y Y T c.c.c.c.c.~ B s d j a 3X9X8X0X`.p c a.o.*.*.*.%.*.%.w a w w w 5 1 e i s g h d e V Y Y Y Y Y Y Y Y Y Y T Y T Y c.Y ",
"Y T c.c.T T c.T ~ M d d g j e w w d x *.5Xt.X.%.%.o.%.%.%.a ` *.0.q.q.} a 5 g g k g 6 N Y Y T Y T Y Y Y T T c.c.c.c.c.c.",
"Y T c.c.T T T T Q B e d g k ( o.,.:.| | [ [ X.%.%.%.%.%.%.%.*.%.%.=.&.} ] ( g g k s 6 N T T c.T c.T c.c.c.c.c.c.c.c.c.c.",
"Y T c.c.c.c.T c.~ F e i s k ] ] [ _ _ o.| X.%.&.%.%.%.X.` ` ` ` { { { ] ) g s g d 6 6 K T T c.c.c.c.c.c.c.c.c.c.c.c.c.c.",
"T T c.c.c.c.! ! ~ K e i s i j j j 0 %.y.:.O.&.} &.%.X.%.%.` a ; : e j ( ( g i h g 6 6 Q ~ ! Y ! c.c.c.v.v.v.c.c.c.c.c.c.",
"! T ! c.c.c.T c.~ Y y i s g g j i # z 1.t.q.1.:.;.;.=.*.%._ ) : i 5 i g s 9 s h 8 6 M ! v.c.v.! c.c.c.v.c.v.c.c.T c.c.J ",
"c.c.c.T Y Y Y T T ~ V e i s g s d 6 $ 5 x [ &.&.-.o.*.*.e.4X*.w g k g s 9 g 9 9 6 8 C ! v.v.v.v.v.v.v.c.v.v.c.T T c.c.c.",
"T Y T Y Y Y Y Y T v.R q 9 i i s g d d p j.7Xz.x.4X8X0X0X4Xz $ p g a s 9 i 9 9 6 4 7 H T v.v.v.v.v.c.v.c.v.v.c.c.c.c.c.c.",
"Y Y Y Y Y Y Y T c.v.! B 6 i i i g f g d [ e.5X6X6Xz.#.w O   w d a s i 9 9 9 6 6 3 V T v.v.v.v.v.c.c.c.c.c.c.c.c.c.c.c.c.",
"Y Y Y T ! c.v.c.! Q Y H t 6 6 i 9 s s g 8 o & & & & & .   $ u g s 9 9 6 6 6 6 4 r Y Y T ! v.v.v.c.c.c.c.c.c.c.c.c.c.c.c.",
"Y T c.v.c.c.c.c.c.! ! Y F 6 6 6 9 9 6 1 , b A.A.S.S.A.v % 0 t s 9 9 9 6 6 5 5 t K T Y Y T T v.c.c.c.c.T c.c.c.c.c.c.c.c.",
"Y T v.v.c.c.v.v.v.c.c.c.~ S 5 5 6 6 5 1 4 v n m A.m n & 6 e e 6 6 9 6 6 2 3 6 G ~ ~ c.c.v.c.v.v.c.c.c.c.c.c.c.T c.c.c.T ",
"Y ! c.v.v.v.v.v.c.c.v.v.v.v.S q 4 4 4 8 h ' 8 < % % , 4 e 5 6 6 4 4 4 1 1 3 G v.v.v.v.v.v.v.v.v.v.v.c.c.c.T J T c.c.c.c.",
"c.c.v.v.c.c.c.v.c.c.v.v.v.v.~ K t 2 2 4 6 9 9 9 9 6 4 6 5 5 2 1 4 4 1 6 y P ~ c.v.v.v.v.v.v.v.v.v.v.v.v.c.T T c.c.c.c.c.",
"c.v.c.c.! ! ! c.c.c.c.c.v.v.v.v.R M 6 2 1 - > > - > $ * 1 $ @ @ @ 1 6 Z ^ v.c.c.v.v.v.v.v.v.v.v.v.v.v.c.c.c.c.c.c.c.c.c.",
"c.v.c.Y Y Y Y ! c.c.c.c.v.v.v.v.v.~ R N 8 1 ; - @ O o @ + @ @ 1 7 N L Q ! ! ! c.c.v.v.v.v.v.v.v.v.v.v.v.c.v.v.c.c.c.Y c.",
"c.c.c.! T c.v.c.c.! T c.v.c.c.c.c.c.c.c.Q C N M 7 7 7 v 7 M N H Q Q c.v.~ ! ! ! c.c.c.v.c.c.c.c.c.c.c.c.c.c.c.c.c.c.c.c.",
"c.c.T T ! c.v.v.c.c.c.c.v.c.c.! T T T c.! ! c.Q ! J J J J c.T c.T ! c.v.c.c.c.! c.v.c.v.c.c.c.T T T c.c.c.c.c.c.c.c.T c.",
"Y Y Y Y Y ! v.v.v.v.c.c.v.c.c.c.T T J T T Y ! T T T c.T J c.c.J J c.! c.v.v.c.c.v.v.v.v.c.c.c.T c.c.v.v.c.c.c.c.c.c.T c.",
"Y Y Y Y Y ! v.v.v.v.c.c.c.c.c.c.c.c.! Y Y Y Y Y T T J T T J J J J J Y v.v.v.v.c.v.v.v.v.c.c.c.c.c.c.v.v.v.v.v.v.c.c.c.c.",
"Y Q T c.c.v.v.c.v.c.c.c.T T T ! c.v.c.c.T T T T Y Y Y Y J T T T c.c.c.v.c.c.c.c.c.v.v.v.c.c.c.v.c.c.c.c.c.c.c.c.c.c.c.c.",
"v.v.v.c.c.c.c.c.c.c.c.c.T J T T T T c.c.v.v.v.v.T Y Y Y ! c.v.v.v.c.c.v.c.c.c.c.c.c.c.c.c.c.c.c.c.c.c.c.c.T T T T T T T ",
"v.c.T T c.T T J T c.c.J J ! T J Y Y Y T T c.c.c.c.Y Y Y v.v.c.! T T c.J J ! T c.c.c.c.c.c.c.c.c.c.c.c.T Y Y T T Y Y Y Y ",
"c.c.T J T J c.c.c.v.v.v.c.c.c.T T T T T Y T T c.T Y Y T v.c.T Y T T T c.c.c.v.c.c.c.c.T T T ! J T c.T J Y Y T J Y Y Y Y "
};
