/* XPM */
static char *result[] = {
/* columns rows colors chars-per-pixel */
"60 60 206 2 ",
"   c #070505",
".  c #15120C",
"X  c #120C12",
"o  c #1C0E1B",
"O  c #141112",
"+  c #17151B",
"@  c #1F111E",
"#  c #1C191C",
"$  c #220E1D",
"%  c #21131E",
"&  c #231E1E",
"*  c #28191B",
"=  c #301B1E",
"-  c #1F1520",
";  c #1E1921",
":  c #220F21",
">  c #221423",
",  c #291621",
"<  c #241A25",
"1  c #2C1B22",
"2  c #271729",
"3  c #261929",
"4  c #2A1D2B",
"5  c #311B28",
"6  c #2E1F31",
"7  c #301D31",
"8  c #282427",
"9  c #2B222C",
"0  c #2D292D",
"q  c #3A262B",
"w  c #362828",
"e  c #3C2A2B",
"r  c #2E2231",
"t  c #2E2A31",
"y  c #312434",
"u  c #342B35",
"i  c #342638",
"p  c #362B39",
"a  c #392D3C",
"s  c #343136",
"d  c #3C3533",
"f  c #363239",
"g  c #3B323E",
"h  c #3C393D",
"j  c #4E2A26",
"k  c #432828",
"l  c #4B2D29",
"z  c #4B2C2C",
"x  c #49332C",
"c  c #55322C",
"v  c #5C352A",
"b  c #4C3433",
"n  c #493734",
"m  c #573832",
"M  c #63382C",
"N  c #6B3B2D",
"B  c #723F2D",
"V  c #613D33",
"C  c #44403F",
"Z  c #5F4132",
"A  c #77412D",
"S  c #7A432E",
"D  c #6E4233",
"F  c #62443A",
"G  c #734333",
"H  c #7E4631",
"J  c #744837",
"K  c #7E4935",
"L  c #764A38",
"P  c #7C4C3A",
"I  c #382F41",
"U  c #3D3442",
"Y  c #3E3B42",
"T  c #413644",
"R  c #423B45",
"E  c #443D4A",
"W  c #493D4A",
"Q  c #444144",
"!  c #46424D",
"~  c #49444E",
"^  c #4D4A4D",
"/  c #5B4A44",
"(  c #52504B",
")  c #585148",
"_  c #464350",
"`  c #4A4551",
"'  c #4D4953",
"]  c #4F4C59",
"[  c #504551",
"{  c #534C54",
"}  c #524D5B",
"|  c #555155",
" . c #5F5551",
".. c #5C5A55",
"X. c #55535C",
"o. c #5B555D",
"O. c #5C595B",
"+. c #624E43",
"@. c #64534D",
"#. c #665855",
"$. c #615C5E",
"%. c #715B51",
"&. c #7B5E51",
"*. c #726359",
"=. c #565461",
"-. c #5A5561",
";. c #5E5B62",
":. c #625B64",
">. c #6C6B64",
",. c #6A6469",
"<. c #6B696C",
"1. c #736F6E",
"2. c #72716D",
"3. c #6D6B70",
"4. c #726B72",
"5. c #797775",
"6. c #804731",
"7. c #814832",
"8. c #844E39",
"9. c #86513C",
"0. c #89533D",
"q. c #8C5B3F",
"w. c #8B5642",
"e. c #8B5844",
"r. c #885B4A",
"t. c #955E4A",
"y. c #936446",
"u. c #96674B",
"i. c #9C644E",
"p. c #9B704B",
"a. c #8B6C5B",
"s. c #9A6757",
"d. c #AC794E",
"f. c #A06352",
"g. c #A27F54",
"h. c #B97858",
"j. c #9E7466",
"k. c #807C7D",
"l. c #A87669",
"z. c #B37765",
"x. c #C87747",
"c. c #D27E53",
"v. c #A7825C",
"b. c #AE8B59",
"n. c #B88657",
"m. c #AE9557",
"M. c #B4945B",
"N. c #BD995C",
"B. c #938568",
"V. c #AD8A69",
"C. c #BC8270",
"Z. c #BEA162",
"A. c #C68A4C",
"S. c #DB874A",
"D. c #C78756",
"F. c #D09356",
"G. c #DFB44D",
"H. c #E7AC49",
"J. c #EBB54D",
"K. c #E7A854",
"L. c #E6B554",
"P. c #C49464",
"I. c #C4AA64",
"U. c #C3A769",
"Y. c #D8B26F",
"T. c #F0C859",
"R. c #E3C966",
"E. c #F5D367",
"W. c #817D84",
"Q. c #868485",
"!. c #8B878B",
"~. c #8C8A90",
"^. c #928D93",
"/. c #97959A",
"(. c #999499",
"). c #B38885",
"_. c #A0979F",
"`. c #9F9CA1",
"'. c #A39CA4",
"]. c #A6A3A9",
"[. c #A9A3AB",
"{. c #A8A7A9",
"}. c #ABA8B1",
"|. c #B4ADB4",
" X c #B4B2B4",
".X c #B8B2B9",
"XX c #BEBABE",
"oX c #C0BBBF",
"OX c #C2BEC2",
"+X c #C5C3C4",
"@X c #C9C4C9",
"#X c #CCCACC",
"$X c #CFCFD1",
"%X c #D2CED5",
"&X c #D7D5D5",
"*X c #DBD6DB",
"=X c #DDDBDD",
"-X c #DDDAE2",
";X c #E5E4E6",
":X c #E6E3E8",
">X c #ECEBEC",
",X c #F0F0EF",
"<X c #F1EFF2",
"1X c #F4F3F4",
"2X c #F8F7F8",
"3X c #FBFAFB",
/* pixels */
"7.7.7.6.6.6.6.6.7.7.7.7.7.7.7.7.7.7.7.7.7.7.7.6.S 6.6.S 6.6.6.6.7.7.6.6.6.S S 6.6.6.6.S 6.7.7.7.7.7.6.7.7.7.7.7.7.S S S ",
"7.7.6.S A A S S 6.6.6.6.7.6.7.7.7.7.7.7.7.7.7.7.7.6.S S A S 6.S S 6.6.6.6.6.6.S S S A A S 7.7.7.7.7.7.7.7.7.7.6.S S 6.S ",
"6.7.6.S S 6.7.6.S S S K 7.7.7.7.6.6.6.6.7.6.6.6.6.7.7.6.S S A A A A A S S A A A A A A A S 7.7.7.7.7.7.7.6.7.7.7.6.6.6.6.",
"H H 6.H 6.6.7.6.7.6.6.7.7.7.7.7.6.6.6.S S S S S S 6.6.6.6.6.S S S A A A S A A A A A S S S 7.7.6.7.7.7.7.7.7.7.7.7.7.7.7.",
"H S S A A 6.6.7.7.6.7.e.8.6.6.6.6.S S S 6.6.S S S S S 6.6.6.7.7.8.S S A A A S S S 6.6.6.7.6.6.6.6.6.6.6.7.6.6.6.7.7.7.7.",
"A A A A A S 7.7.7.7.8.j.j.w.7.w.0.6.6.6.6.6.S S S S S S S S 6.7.6.6.6.S S A S 7.6.6.S 6.6.6.S S S 6.6.6.6.6.6.6.6.6.6.6.",
"A A A A A 6.7.7.6.7.s.l.l.i.w.z.e.6.7.7.6.6.6.6.S S S S S S S S 6.6.S S A A H 6.6.S S S S S S 6.6.6.6.6.S 6.S 6.S S S 6.",
"S 6.7.7.7.7.7.7.K K s.C.s.w.h.h.0.6.7.7.6.6.6.6.6.6.6.6.S S S 6.H H S A A A S H 6.S S S S 6.6.7.6.6.6.S S B S S S S S S ",
"7.6.H H 7.S 7.r.r.6.i.c.D.d.S.h.8.8.0.0.6.6.S S S S S B A A A A A A A A S A S S S S S S H 6.6.H S S S S S A A A A A S S ",
"7.H A A A S K s.).l.z.S.L.G.J.A.t.t.l.r.S S A A A A A S A A A A A S A A A A A S S S S S S S H H 6.S S S S S S S S S 6.S ",
"7.H H S S 7.7.8.l.c.c.K.T.E.E.H.A.z.z.w.A S A S S S S S S A A A S A S S A S A S A S 6.6.H 6.6.6.6.6.6.6.6.6.6.6.6.6.6.6.",
"0.7.7.7.6.6.6.9.V.Y.K.K.G.R.E.J.F.D.t.6.S S S 6.6.6.6.6.6.6.6.6.S S S H S S S S S 6.6.S S S H 7.6.6.6.6.7.7.7.7.7.7.7.6.",
"7.6.6.6.7.6.K v.U.Z.P.F.K.J.H.n.q.7.7.7.6.6.6.6.6.6.6.6.7.7.7.6.S H S S 6.6.H 6.6.6.H S S H S S S 6.6.6.6.7.7.7.7.7.7.7.",
"H A A H 6.7.y.Z.V.s.s.i.x.x.c.h.8.6.7.7.6.6.6.6.6.6.6.6.6.6.6.6.6.6.S H S S S S 6.6.6.H H 6.7.7.6.S 6.7.7.6.7.7.6.6.S S ",
"A A A A A K b.I.u.7.7.7.s.f.i.l.q.7.7.6.S S S S 6.S S S S S 6.6.6.6.6.6.6.K H H H S S S H 6.7.7.6.6.7.7.7.6.6.7.S S S S ",
"H H A A A w.U.N.q.7.7.7.0.8.6.w.0.6.7.6.S 6.6.6.6.6.6.S S A A A S S S S S S S S S A A A S 6.7.7.6.7.6.7.7.6.S S S S A A ",
"7.7.7.6.S y.P.M.9.7.6.7.6.S S S S S 6.6.6.7.H S H 6.7.7.H S S A S S A A A A A A A A S A S 6.7.7.7.7.7.7.7.6.6.6.7.S S S ",
"7.7.7.7.7.0.m.I.p.9.7.7.6.K S A S H 7.7.7.6.S A S S H H H 7.7.H S S A A A A A S S S H H 7.7.7.7.7.6.7.7.7.7.7.7.7.6.6.6.",
"6.7.7.7.7.7.p.m.N.n.u.9.6.6.K H 8.8.6.6.7.H S A A A S S S H H H 8.6.S A A A S 6.8.6.6.6.7.6.H H 6.6.7.6.7.7.7.7.7.7.6.7.",
"7.7.7.7.7.7.8.q.d.I.I.g.8.0.r.a.&.P 7.H H 9.9.P P J J S S S S H H 6.6.A A S H 6.S S S S S S S S 7.7.6.6.6.7.7.7.7.7.7.7.",
"6.6.7.7.7.7.7.7.0.v.m.m.a.*.%.5.>.) r.r.&.*. .#.@.| ) / Z Z +.P J S H A S S H 6.6.S S S 6.6.6.6.7.6.6.S S 7.7.7.7.6.7.7.",
"S 6.6.7.7.7.7.7.6.q.B.B.$.| :.| 2.2.>...( ( O.,.<.<.<.O.' ' ^ u w x x D S S S S S S S 6.6.6.6.6.6.S S S S S S 6.6.6.6.7.",
"7.6.7.7.7.7.7.S S r.#.( ^ ~ | 5.>.| ( O...| O.;.;.;.o.| { { ^ f # & # n 8.H 6.6.6.S S S S S H 6.6.6.S 6.7.6.6.S 6.6.7.7.",
"7.7.7.7.7.7.7.S P #.R ! ~ ..2...( ^ | | ^ ^ { | } X.| } } } ' ^ ! Q h h Z H 6.6.6.6.6.6.H 6.6.6.S S S 6.6.7.6.6.6.6.7.7.",
"6.7.7.7.7.7.7.8.+.g I U O.2.^ ! ' ' ( ( C 0 f X.o.=.=.} } ] } ` ! Q Y s 0 n J S S S S S S S S S A A A S 6.7.7.7.7.7.7.7.",
"7.7.7.6.7.7.K D d f u ^ >.~ E ! _ ' Q d & . 0 X.=.-.=.} =.} } ` _ ! t | 2...x D S S S A S A A S A A A S 6.7.7.7.7.6.6.7.",
"6.6.6.6.7.H L e 9 y n ,.W R W ! _ _ h O & C ' X.-.-.=.=.} } ] ] ' Y <.;X,X-X!.n A A A A A A S S S 6.S 7.7.7.7.7.6.7.6.6.",
"6.S 6.S S K Z & < r :.W R W ~ ! ' Y + # ( ....=.=.=.=.=.=.=.] ] ' Y ].2X<X>X*XX.Z S A A A S S 6.7.6.7.6.7.S 6.6.6.6.6.6.",
"6.6.H H S S Z & > T [ a E ! _ _ ' Y + Q X.X.X.O.=.O.=.X.=.=.} ] ' Q ].!.].:X-XW.0 F J A S 6.6.6.S S H S S S S S 6.6.S 6.",
"H S S A S A A e & { u g Y Q _ _ ` ' _ X._ h h Y h ~ X.X.=.} } ] ' ! 3.t h XX-X^.0 n G A S 6.7.6.S S S S 6.6.7.6.7.6.6.6.",
"S S S A A S A Z d E 9 U Y _ _ ` ' ' | h Q `.#X$X X=.Y X.=.=.=.} ' ` ' h X W.[.o.8 u Z A S S 7.6.H 6.6.6.6.6.6.6.S S S A ",
"S S S S S H S K @.t 0 I Y _ _ _ ' ' Q | #X2X3X3X2X=XO.! X.=.} } ' ` R ' 0 | 0 p Y p n K 6.6.7.7.6.6.7.7.7.6.6.S S S A A ",
"H H H H K H S K / 8 r U Y E E ` ' ^ f OX3X3X3X3X3X3XXXC O.X.] ] ' ` R :./.p U o.{ T q J K 7.6.7.6.6.6.6.6.6.6.6.6.6.S S ",
"H S H S S A A H b 8 r U U E Y _ ` Y 3.,X,X+X&X2X2X2X,X$._ X.] ' _ _ R R { a E T T a i V 7.7.7.7.6.6.6.6.6.S S S A S 6.S ",
"A A S A A A A A e 9 y I U Y Y Y ! h ^.>X5.# C {.,X<X1X~.Y ' ' _ _ _ R U a U U a i 7 7 b 7.6.6.6.S S A A A A A A A A A A ",
"A A A A S A S A e 4 r a U E Y E ! U `.@Xh Q O Q #X<X,X].Y ` ` _ E E W E W R 4 9 i 7 i z H H 6.B A A A A A A A A A A A A ",
"A A S H 6.6.8.J q 8 6 I U U E E E U ~.|.$.oX8   Q.>X;X}.E ! _ _ ` W ` ~ { W > y i 7 7 q G G B A A A S A S S S S S S S S ",
"A S 6.6.H S S D w 4 4 i U U U U R g <..XC k.&   <.;X%X}._ ! Y _ _ ` ~ { :.w { T y y 6 q B B B S S S A S S S S 6.6.6.6.6.",
"A S 6.6.H S S A q 4 6 6 I U U U T U W |.$..     ^.$X.X[.] _ _ _ _ W } o.9 :.|.a y 7 6 q G S 7.6.H S H 6.6.6.6.6.6.6.6.7.",
"A S 6.6.6.H S H q < 2 7 I I U U h U p W.[.| r T ,.! ! { ! Y _ _ ` ] ` t :.=XXXu y 7 6 k H S 6.6.6.6.7.6.6.6.6.7.6.6.7.7.",
"6.S 6.7.7.6.H K e 8 4 4 r p a U g T g ~ [.'.-.T g E E Y Y Y _ ! ^ s 0 k.;X3XXXp y 7 7 b 7.H B H 6.6.6.7.7.7.7.6.7.7.6.6.",
"S S S 6.H H H 7.b ; < < 9 t p a U a T a 4.$.T -.| E R Y Y ! R s 8 (  X,X3X3XXXu 6 7 7 m 6.7.7.6.6.7.6.7.7.7.6.S 6.S S S ",
"6.6.6.S S A A S Z ; 3 3 3 r i a a T g T y I :.-.R ; t f u 9 4 ~ (.>X3X3X3X3X@Xp 2 2 5 B 7.7.6.7.7.6.7.6.6.7.6.S S S 6.6.",
"S A A A A A A A J w < < 3 4 r i a a a U n W [ W r X ; 8 g ,.'.;X3X3X;X>X3X2X'.> o : k H 7.7.7.7.7.7.7.7.7.7.6.6.6.6.6.6.",
"A A A A A S A S J m < < 3 3 3 y i i I a U T R g 9 4 9 u ^.OX*X>X*X+X=X2X>X(.n 3 : , N 7.8.6.6.6.6.7.6.7.7.7.7.7.7.7.7.7.",
"A A A S S 6.7.6.S D w < < 3 3 3 6 p i a a U a p p u p r a !.(._.OX>X2X#X4.u y 3 $ k B B H 6.7.7.6.6.7.7.7.7.6.7.7.7.7.6.",
"A S 7.7.6.6.6.6.7.K m < 3 ; ; 3 3 r i i i i p u u p u u 9 u _.@X*XXX1.s 9 9 < @ 1 N B H B 6.6.6.6.6.6.6.6.6.6.6.6.6.6.6.",
"A S 7.7.6.6.7.7.7.7.P z ; 3 ; 3 2 3 3 y y y t y y y i r y < [ :.R 8 < 4 4 < > % c K 6.6.6.6.7.7.6.6.6.S 6.S S S 6.6.6.A ",
"A H 6.7.7.7.7.7.6.6.6.H q % < > > < < 3 4 r r r 6 y y 7 y 6 - - < 3 4 3 2 % % l 6.7.7.7.7.7.7.7.7.7.7.6.6.S B S 6.6.6.6.",
"6.6.7.7.6.6.6.7.6.6.6.6.G w > # @ - > > 3 3 3 r 6 6 6 6 6 r 4 4 3 3 > o o @ k G 7.6.7.7.7.6.7.7.7.6.6.7.6.S S 6.6.6.6.6.",
"7.7.6.6.S H S 7.6.6.6.6.7.G e % @ @ % > > - ; 3 2 2 2 5 2 2 3 2 > % o o @ l K K 7.7.7.7.7.7.7.7.7.7.6.7.6.6.6.6.6.6.6.6.",
"7.6.H S A S A H 6.6.6.6.7.K K v 1 @ @ % : : @ - : : : : @ : > : $ @ o 1 v H 6.S 6.7.7.7.7.7.7.7.7.7.7.7.6.7.7.6.6.6.A 6.",
"6.6.6.6.H 7.7.6.6.6.6.6.6.6.6.6.B j = * : $ : : $ $ $ $ $ $ $ $ % = l J 7.K S S 6.6.7.7.7.6.6.6.6.7.6.7.6.6.7.7.6.6.A 6.",
"6.6.S S S 7.7.7.6.6.6.6.7.6.6.6.H B N v q 1 $ $ $ $ $ $ $ $ = j c A 6.7.7.7.7.7.6.7.7.6.7.6.6.S S S S S S 6.7.7.6.6.S 6.",
"A A A A A H 7.7.7.7.6.6.7.7.6.6.H B B B B B M v j j j j v M N B S B S 7.7.7.7.7.7.7.7.7.7.6.S S 6.6.7.7.6.6.7.7.6.6.6.6.",
"A A A A A H 7.7.7.6.6.6.6.6.6.6.6.6.6.S B B B B A B S B A B S B B S S 7.7.7.7.7.7.7.6.7.7.7.6.6.6.6.7.7.7.7.7.7.6.6.6.6.",
"A H B 6.6.7.7.7.7.6.6.6.S B 6.6.6.7.7.6.6.S B S B B S B B S S S 6.6.6.7.6.6.6.7.7.7.7.7.7.6.7.7.7.7.7.7.6.6.6.6.6.6.6.6.",
"7.7.6.6.6.6.7.6.6.6.6.6.S B B S B 6.6.6.7.7.7.7.S S S S H 7.6.7.6.6.6.6.6.6.6.6.6.6.6.6.7.7.7.7.7.7.6.6.6.6.S S S S A S ",
"6.6.S H 6.S 6.B B S S 6.6.B B B B S B 6.S 6.6.6.6.B B S 6.6.6.S S S S S A S S 6.S 6.S 6.6.6.6.7.6.6.6.S S B B S A A A A ",
"6.6.B B B S S 6.7.7.6.6.6.6.6.6.H B 6.B S S S 6.H S S S 6.6.H B S S S S 6.6.7.7.7.6.6.S S S S S S S S B A A A S A A A A "
};
