/* XPM */
static char *result[] = {
/* columns rows colors chars-per-pixel */
"60 60 207 2 ",
"   c #1D0D1C",
".  c #151112",
"X  c #1B1413",
"o  c #1E121D",
"O  c #1D191B",
"+  c #210F1E",
"@  c #20111E",
"#  c #221B1D",
"$  c #1F1121",
"%  c #231323",
"&  c #281725",
"*  c #261B24",
"=  c #2B1C26",
"-  c #271729",
";  c #261B29",
":  c #2B1B2C",
">  c #311E2D",
",  c #381E28",
"<  c #2D1E30",
"1  c #311F31",
"2  c #272327",
"3  c #2D222D",
"4  c #2E292D",
"5  c #32232B",
"6  c #3C272C",
"7  c #3A2B2B",
"8  c #3A332B",
"9  c #2E2232",
"0  c #322434",
"q  c #3A2537",
"w  c #332B33",
"e  c #3B2934",
"r  c #342B3A",
"t  c #392C3B",
"y  c #383234",
"u  c #363339",
"i  c #3B343C",
"p  c #4D1E33",
"a  c #432C2D",
"s  c #4A2D29",
"d  c #48312F",
"f  c #5D372E",
"g  c #432C31",
"h  c #4F2A3C",
"j  c #4C3132",
"k  c #42363C",
"l  c #463839",
"z  c #543633",
"x  c #563935",
"c  c #613A2E",
"v  c #6A3D2E",
"b  c #703F2E",
"n  c #643D33",
"m  c #6A3E30",
"M  c #47403D",
"N  c #55403D",
"B  c #77412D",
"V  c #7A432E",
"C  c #6C4134",
"Z  c #674238",
"A  c #744433",
"S  c #7E4631",
"D  c #7E4935",
"F  c #764739",
"G  c #764939",
"H  c #7E4C3A",
"J  c #392B40",
"K  c #3D3541",
"L  c #3E3B43",
"P  c #5A2D46",
"I  c #423646",
"U  c #423C44",
"Y  c #4B3A45",
"T  c #453D4A",
"R  c #652E46",
"E  c #454145",
"W  c #4A4346",
"Q  c #4E4947",
"!  c #46424A",
"~  c #4A444D",
"^  c #4C494E",
"/  c #564947",
"(  c #524C4A",
")  c #5B544F",
"_  c #4B4750",
"`  c #4E4B52",
"'  c #524C54",
"]  c #584954",
"[  c #514D59",
"{  c #555254",
"}  c #5B5353",
"|  c #55535B",
" . c #5A545C",
".. c #57585D",
"X. c #5E5B5E",
"o. c #674D44",
"O. c #68554B",
"+. c #785548",
"@. c #6A5F53",
"#. c #635B5C",
"$. c #745C52",
"%. c #65635F",
"&. c #7A6558",
"*. c #575661",
"=. c #595662",
"-. c #575863",
";. c #5C5B64",
":. c #5D5F69",
">. c #615C64",
",. c #635D6A",
"<. c #5E616A",
"1. c #646266",
"2. c #63636C",
"3. c #6B646C",
"4. c #6C6869",
"5. c #746A65",
"6. c #786B66",
"7. c #666972",
"8. c #696871",
"9. c #746C78",
"0. c #747076",
"q. c #804731",
"w. c #814832",
"e. c #824D3B",
"r. c #85513D",
"t. c #88523E",
"y. c #94563B",
"u. c #9E6136",
"i. c #B16D3A",
"p. c #C86B37",
"a. c #883D5B",
"s. c #845343",
"d. c #8B5543",
"f. c #8B5B46",
"g. c #8C554A",
"h. c #85594A",
"j. c #8C5B4A",
"k. c #935948",
"l. c #874F57",
"z. c #925952",
"x. c #99634D",
"c. c #8A6555",
"v. c #8E6C57",
"b. c #9B6758",
"n. c #99645B",
"m. c #A36A47",
"M. c #BB7647",
"N. c #A46B57",
"B. c #AB7556",
"V. c #BD7553",
"C. c #994A69",
"Z. c #AB4F72",
"A. c #927267",
"S. c #A77365",
"D. c #C97648",
"F. c #C37A60",
"G. c #D68B3B",
"H. c #D9943E",
"J. c #E19337",
"K. c #CAA13D",
"L. c #EDA73E",
"P. c #D9C23E",
"I. c #8A8168",
"U. c #B48E6C",
"Y. c #CD8B4D",
"T. c #C89C5B",
"R. c #E1964D",
"E. c #D4B154",
"W. c #EFAD42",
"Q. c #E9B848",
"!. c #F0C74B",
"~. c #E8C753",
"^. c #EECF53",
"/. c #F5CC59",
"(. c #7E7384",
"). c #847C8A",
"_. c #C85B83",
"`. c #88868A",
"'. c #968F98",
"]. c #99969C",
"[. c #9D97A3",
"{. c #A09FA1",
"}. c #A8A4AC",
"|. c #ADACB3",
" X c #B7B4B8",
".X c #BFBCC0",
"XX c #C0BEC2",
"oX c #C7C5C8",
"OX c #CDC7D1",
"+X c #D1CDD3",
"@X c #D4CFDA",
"#X c #D8D7D9",
"$X c #D9D3DC",
"%X c #DDD7E2",
"&X c #DEDBE3",
"*X c #E3DDE8",
"=X c #E7E6E9",
"-X c #E5E3EC",
";X c #EAE5EE",
":X c #EAE7F1",
">X c #EBEAF5",
",X c #EDECF4",
"<X c #F0EFF1",
"1X c #F3F3F6",
"2X c #F5F4FA",
"3X c #F9F7FA",
"4X c #FAF9FB",
/* pixels */
"w.w.w.q.q.V q.q.q.q.q.q.q.q.w.w.w.w.w.w.q.q.w.q.q.q.V V q.q.q.q.q.q.q.q.q.V V V q.q.q.q.q.q.q.q.w.w.q.w.w.w.w.w.q.S V V ",
"w.w.q.V V V V q.q.q.q.q.w.q.w.q.w.w.w.q.q.q.q.w.q.q.q.V B V V q.S q.q.q.q.q.q.q.V V B B V q.q.q.w.w.w.w.w.w.w.q.q.V V q.",
"q.w.q.V V q.q.S q.V q.q.w.w.w.w.q.q.q.q.q.q.q.q.q.q.q.V q.b B B V V V q.V V V B B B B B V q.q.q.q.w.w.w.w.w.w.w.q.q.q.q.",
"S S q.S S q.q.q.q.q.q.q.w.w.w.w.q.q.q.q.V V q.V q.q.q.q.q.q.V V V V b b b V b B B V B B q.w.w.q.w.w.q.w.w.w.w.w.q.q.q.q.",
"V V B V V S q.q.w.w.w.w.w.w.q.q.q.q.V q.q.q.B B B V S S q.q.q.w.q.q.b b V F s.q.V q.q.q.q.q.q.q.q.q.q.q.w.q.q.q.q.q.q.q.",
"V B B B V V w.w.w.w.w.w.w.q.q.q.q.q.q.q.q.q.V B B B S S q.B q.q.q.q.t.q.B l.z.t.q.q.S q.S S V S S q.q.q.q.q.q.q.q.q.q.q.",
"B V V B V q.w.w.w.w.w.w.w.w.q.q.q.q.q.q.q.q.q.q.S S g.d.V V q.V q.k.n.e.D c.s.q.q.V V V V V V S S q.q.S V q.S S V q.q.q.",
"V S q.w.w.q.w.w.q.q.w.w.w.q.q.q.q.q.q.q.q.q.q.q.w.S d.x.e.y.q.q.d.V.x.S e.j.e.q.q.e.e.q.S q.q.q.q.S S S V V V b B B B B ",
"w.S S S S V V V V q.S q.q.q.V q.q.q.q.q.q.V V V V V H j.H f.D r.D.D.e.b e.g.q.s.g.z.d.S S q.q.S S V V b V V b B B B B B ",
"w.V V V V V V S q.q.S S q.q.q.V q.q.q.q.V V V b B B S D V A D m.J.p.d.t.t.t.w.q.F S V V V V S S S S V V V V B V V q.q.q.",
"w.S S V q.q.w.w.q.S S S q.b b V b V V b V V V V V S j.z.D G u.G.Q.J.p.D.S.n.e.b b q.q.q.q.q.q.q.q.q.q.q.q.q.q.q.q.q.q.q.",
"d.w.w.S q.q.w.w.S V V V V b q.b V b b V V V q.w.w.w.k.F.M.Y.H.W./.Q.W.Y.k.w.q.S q.q.V S V V S S q.q.q.q.w.w.q.q.q.q.q.q.",
"S w.w.w.w.S V V q.S S b V b b V V V q.q.S S q.j.v.x.d.Y.L.!.~.Q.^.^.L.u.S S S S q.q.V V V S S S q.q.q.q.q.q.q.q.q.q.q.q.",
"V V V V S q.V S q.q.q.S q.q.q.q.q.q.q.q.S S r.b.U.S.k.i.W.~.E.E.P./.R.w.S S S D q.q.q.V S w.q.S q.V q.q.w.q.q.q.q.q.q.q.",
"B B B B V V V V S w.w.w.q.q.q.q.q.q.q.q.S S j.n.b.n.N.V.Y.E.E.K.Q.Q.R.F.d.r.r.w.q.q.V V S S w.w.q.q.q.q.w.q.q.q.q.B B V ",
"S S V B V V V V q.q.q.w.q.q.q.q.q.q.q.q.S S w.e.w.d.x.i.I.T.T.Y.R.i.m.N.b.b.n.z.w.b V b V S w.w.q.q.q.q.w.q.q.S V B B B ",
"w.q.w.q.q.w.q.q.w.w.w.w.V q.V V V q.q.q.q.w.S S S D e.t.B.T.U.v.B.D V D D D D s.G B B B V w.w.w.w.w.w.w.w.q.q.q.q.q.V V ",
"w.w.w.q.w.w.w.w.w.w.w.w.w.V V V V q.q.q.q.q.V S F G G &.6.I.I.j.t.H h.D V V B V S S S S w.w.w.w.q.w.w.w.w.w.w.w.q.q.q.q.",
"w.w.w.w.w.w.q.w.w.w.w.w.w.w.V V q.q.q.q.q.q.S +./ l i Y ~ ( 6.v.6.f.j.H B B V S w.S w.w.w.q.V S q.w.w.w.w.w.q.w.q.q.w.w.",
"w.q.w.w.q.w.w.w.w.w.w.w.w.w.w.S q.q.q.q.q.w.h.&.W ( (  . .} ;.{ { O.+.V B V D S w.V V V V V S S q.w.q.q.q.q.q.q.w.q.w.w.",
"q.q.w.w.w.w.w.w.w.q.w.q.w.w.w.w.q.q.D G +.&.$.} ) } ) #.#.5.4.5.%.( ) D V V V w.S V V V q.w.q.q.w.q.q.V S q.q.q.w.q.w.w.",
"V q.w.w.w.w.w.q.q.q.q.q.q.w.q.w.r.t.$.) ^ ^ [ ] ;.}  .>.#.#.) ( 4.5.&.s.V V V V S V V q.q.q.q.q.q.q.V V V V V q.q.q.w.w.",
"w.q.q.w.w.w.q.q.V V V V V w.w.h.+.( Q { '  .,.,.2.,.3.0.0.9.>.~ M ( @.&.c.w.w.S S V V V V V S q.q.q.V q.q.q.q.q.q.q.q.w.",
"w.w.w.w.w.w.q.q.V V q.w.w.r.$./ i y M M y E ;.,.,.>.;.,.1.1.>.i 2 8 8 8 O.v.s.D q.q.w.S S q.q.S q.V V V q.q.q.q.q.q.w.q.",
"w.w.w.w.q.w.w.q.w.w.w.w.r.+.W L 4 O O X . i >.1.1.2.2.,.2.<.>.i . . . X O ( A.s.S V S V S V V V V B B V q.q.q.q.q.q.q.w.",
"q.w.w.q.w.w.w.q.w.w.w.r.O.i W 4 . X * w U | 1.2.2.2.2.<.2.2.,.*.^ M 8 O . 4 { A.D B B B B B B B B B V V q.q.w.q.q.q.q.w.",
"q.q.q.q.q.q.w.w.w.w.e.o.M ! ~ i w T } ;.1.1.2.2.3.3.7.7.2.7.1.:.<.X.{ ^ i E E ( c.B B B B B V V V V S q.w.q.w.w.q.q.q.q.",
"q.V q.V V q.q.q.w.w.F l ! ! ! ^ ' ' [ X.;.1.2.8.7.7.7.7.7.2.2.,.-.| { ` ^ ^ ! U ) H B B B V S q.q.q.q.q.q.S q.q.q.q.q.q.",
"q.q.q.V V V V V V F N T ! ! ^ ^ E ~ ` | ;.<.1.2.7.7.7.7.<.7.:.-...{ ^ L L T ! ! M G G B V S q.q.V V S V S V V V q.q.V q.",
"V V V B V V B B V Z k W _ ! E L L E ' | ..;.;.;.<.<.2.7.<.<.-.-.| ..` ^ ! ! L ! M M C B V q.q.q.V V V S S S q.q.q.q.q.q.",
"V V V V V V B B F l I T T _ W ` | | { | ..-.;.;.<.<.<.<.<.;.-.*.| ` ` { | ` W ^ M y Z V V q.q.q.S S q.q.q.q.q.q.V V V B ",
"V V V V V V V V C t T T T _ `.|.oX X`.` { ;.;.;.:.1.<.:.-.;.=.*.` %.}.XX.X}.8.! Q M M G q.q.w.q.q.q.w.q.q.q.q.V V V B B ",
"V V q.q.V V V V x i I U ] |.<X4X4X4X<X X` ..;.;.;.;.:.-.-.=.=.` _ `.#X4X4X4X&X`.T i k B S S w.w.q.q.q.q.q.q.q.q.q.q.V V ",
"q.q.V V V V V B y t I I {.1X3X3X4X4X4X1X].` *.*.;.;.;.-.-.-.*.~ 3.u X.<X4X4X4X=X8.i u C S w.w.w.q.q.q.q.V q.V V V V q.V ",
"V B V V B B B v e t I =.$X3X3X3X4X4X+X X.X| ....*.*.*.-.*.-.|  ..X( 4 oX3X3X2X3X|.I w z w.w.w.w.q.B B B B B B B B B B B ",
"b B V B B V V C e t K (.;X2X2X2X2X&X^ # %.X.` .. ... .*...-.! 4.Y # k +X2X3X2X2XOXW w d S V V V B B B B B B B B B B B B ",
"B B V q.q.q.w.v < J K ).,X2X2X1X1X X2 E `.` ^ | [ | [ | | | E '. .# 4.=X1X2X1X,X@X_ 4 d S B B B B B V B V V V B B V q.V ",
"B V q.q.q.V V c < J J (.;X,X,X>X,X|.2 { ].~ ^ [ [ [ [ [ [ [ L ].+X}.+X,X,X,X,X,XOXI 4 a A B B B B B B V V V V q.q.q.q.q.",
"B V q.q.V V V c : 9 0 =.@X:X>X:X>X+XE O ^ U ` ` ' ' ` ' ' [ L 8.&X=X=X=X:X>X-X:X}.4 0 a A V V S q.V q.q.q.q.q.q.q.q.q.q.",
"B V q.q.q.V V v : 9 < J [.-X-X*X-X:X.X].8.L ^ _ _ _ ~ _ ! ! ~ E |.#X=X*X*X-X-X+X>.3 4 j V S S w.q.q.q.q.q.q.q.q.q.q.q.q.",
"b q.q.q.q.q.S m 5 : 0 0 T [.@X&X&X%XOX[.K r r ! ] T T ^ W w i K [ .X@X&X&X&XOX9.q 3 3 z q.V V V q.q.q.q.w.w.q.q.q.q.q.q.",
"q.q.b q.q.q.S b 6 ; > 0 0 t ,.'.}.[.2.r K u u L ] ] ] ' P h k U J L (.}.}.).[ r 0 3 ; n q.w.w.w.q.q.q.q.w.w.q.q.q.b q.V ",
"q.q.q.q.V V V B s * = 0 9 9 9 9 r < 2 r K K L r J ] ' k R C.a.I J 9 2 9 9 9 9 9 9 : 5 C w.w.w.w.w.w.w.w.w.w.q.V V q.q.q.",
"V b V b V b B B c = & : < 9 9 0 0 0 r r r r t r < ; ; = a._.Z.P r r J 9 J 9 9 9 : * d V w.w.w.w.q.w.w.w.w.w.q.q.q.q.q.q.",
"V V B B V V V V S 6 % & : 3 3 0 0 0 r r r r r J J r t t p a.C.P r 0 q 0 0 < < : = 2 n V w.w.w.w.q.q.q.w.q.q.q.q.q.q.q.q.",
"b V V V S q.q.S S f # @ : : : 1 9 0 0 0 0 r 0 r r r t q 5 q P q r 0 0 0 1 < : = * 7 B V w.w.w.w.q.q.q.q.q.q.q.q.q.q.q.q.",
"b V q.q.q.q.q.q.S A s o % & : : < < 0 0 0 0 0 0 9 q q 0 0 9 0 0 0 1 > > : : : # 5 n V V V V q.q.q.q.q.q.q.q.q.q.q.q.q.q.",
"V q.q.q.q.q.w.q.q.q.v = % % & & : < < < 9 9 0 9 0 0 0 0 0 1 0 < 1 1 > : : & % * z D q.q.w.q.w.w.q.q.q.q.B q.q.B q.q.q.q.",
"V V q.q.q.q.q.q.q.q.q.c # + % % - < 1 < < < < < 1 1 < < < < < < 1 : - - - % & g q.q.q.q.q.w.w.w.w.w.q.q.q.b V V q.q.q.q.",
"q.q.q.q.q.q.q.q.q.q.q.w.f # $ % % % - - < : < < < > < < : < : - : : & % % : g G q.w.q.q.w.w.w.w.w.w.w.w.q.q.V q.q.q.q.q.",
"q.q.q.q.q.q.q.q.q.q.q.q.w.n : $ % $ % % - - - - - - - - - - - - % & % $ = j G w.w.w.w.w.q.w.w.w.w.w.w.w.q.q.q.q.q.q.q.q.",
"q.q.q.V b b q.q.q.q.q.q.w.w.n 6 % $ $ % + % % % % % % % % % % $ $   $ 5 x F S S q.w.w.w.w.w.w.w.w.w.w.w.q.q.q.q.q.q.B q.",
"q.q.q.q.q.q.q.q.q.q.q.q.q.q.q.q.z 5 %     + + + + + + + + +     # : g C D V q.V q.q.w.w.w.q.q.q.q.q.q.q.q.q.q.q.q.q.B q.",
"q.q.V V V q.q.q.q.q.q.q.q.q.q.q.S m z q & % + + + +     @ % - , j n D w.q.q.w.w.q.w.q.w.w.q.V V V V q.q.q.q.q.q.q.q.V q.",
"B B V B b q.w.w.q.w.q.q.q.q.q.q.S b S b n n h a q 6 q g j z v b b S V w.w.w.w.w.w.w.w.w.w.q.q.V q.q.w.w.q.q.q.q.q.q.q.q.",
"B B b V V q.w.w.q.q.q.q.q.q.q.q.q.q.b D b b S b A A A A A b B B b b V w.w.w.w.w.w.w.w.q.w.w.q.q.q.q.w.w.w.w.w.q.q.q.q.q.",
"V V V V q.q.q.q.q.q.q.q.V V V q.q.q.q.q.q.q.b q.b b V V B B V V q.q.q.q.q.q.w.w.w.w.w.w.w.w.w.w.q.q.q.w.q.q.q.q.q.q.q.q.",
"q.q.q.q.q.q.q.q.q.q.q.q.V V b V V q.q.q.q.q.w.w.V V B B q.q.q.q.q.q.q.q.q.q.q.q.q.q.q.q.q.w.w.w.q.q.q.q.q.V q.b V V V V ",
"q.V V V q.V V V V q.q.V V b V b b V b V b q.q.q.V B B V q.q.q.V V q.q.b V b S q.q.q.q.q.q.q.q.q.q.q.q.q.B B B B B B B B ",
"q.V V V V V V q.q.q.q.q.q.q.q.V q.V V V q.b V q.q.V b V q.q.V B b b q.q.q.q.q.q.q.q.q.V V b V V q.q.b b B B B B B B B B "
};
