/* XPM */
static char *result[] = {
/* columns rows colors chars-per-pixel */
"60 60 64 1 ",
"  c #77412D",
". c #78412D",
"X c #78422D",
"o c #79422D",
"O c #78422E",
"+ c #79422E",
"@ c #79432E",
"# c #79432F",
"$ c #7A432E",
"% c #7B432E",
"& c #7A432F",
"* c #7B432F",
"= c #7A442F",
"- c #7B442F",
"; c #7C442F",
": c #7C452F",
"> c #7D452F",
", c #7B4430",
"< c #7C4430",
"1 c #7C4530",
"2 c #7D4530",
"3 c #7D4531",
"4 c #7E4530",
"5 c #7D4630",
"6 c #7D4631",
"7 c #7E4630",
"8 c #7F4630",
"9 c #7E4631",
"0 c #7F4631",
"q c #7E4731",
"w c #7F4731",
"e c #7E4632",
"r c #7E4732",
"t c #7F4732",
"y c #7F4833",
"u c #804731",
"i c #814731",
"p c #804732",
"a c #804832",
"s c #814832",
"d c #804833",
"f c #814833",
"g c #814933",
"h c #824832",
"j c #824833",
"k c #824933",
"l c #834933",
"z c #814934",
"x c #824934",
"c c #834934",
"v c #814A35",
"b c #834A34",
"n c #834A35",
"m c #844A34",
"M c #844A35",
"N c #844B35",
"B c #854B35",
"V c #864B35",
"C c #844B36",
"Z c #854B36",
"A c #854C36",
"S c #864C36",
"D c #844E3A",
"F c #8C5844",
/* pixels */
"ssssu4ssssssssssssssssss+97;usssssap9*-;0su0usslfsussssss2-2",
"ssp$X $0asssssssssssssssMk-  &27upsssssw1@  &sssssssssss2 $;",
"sss;.fk1 @>ussssssssssspsss7+      XXX       elsssssssssu0ss",
"2ss00sshkfpusssss0-::;;.;ssskt              ,bmsssssssssssss",
"7&  Xwsssssssssss .<90   +2uskSSNt      1tfbksssssssssssssss",
"     XBssssssssss7asss:.   .:-;usbf   &Ab77uu2%$2ussu70sssss",
"    @rSsssssssssssssssssu4;;--1-uss   fs0     @9eee9507;27w7",
"#tfblsssssssssssssssssssssu2$$:7w;1   7ss2;7wkbhssw2$       ",
"Bp2ws7-@-8asu82ssssssu*  .          X @+X X-2usu:X         +",
"s@     1eeee6902;4002.                    @;*&-272-X   X$<us",
"su-29sckssu7-O         .$;; ++.          -ssusssssssssssssss",
"Fsssssss9$          $2ussssfcss0$7292;2;4su2.+wsssssssssssss",
"pssssuoXp9     .+-7psssssssksss0;2 *wsssss7 &t&$*5usssssssss",
"O@$;ssp7sskt4;wsssssp9u00su0ssssss92 ++*wsswwsks922ssssssw0u",
"    .$.$asssssssssssX .-32o +2wssssskffsw;+ 2ssssssssssa2  +",
"s1.   -29jssssssssss-wssssu$    X+$&;-$X     fsssssssu;+    ",
"ssksxkssssss7;2;&-ssssw$wssst+               tNsssssspssk2. ",
"sssssssssssss0  Oussss   -wssbxt3O       ,pxNmssssssssssssks",
"ssssssssssssss< psssss$    $049kmS9   XbSbsssw2;psssssssssss",
"ssssssssssssssatsss>uss0+ XXXX.*usk   gk0  +X$29ssssssssssss",
"ussssssssssssssksss 2ssssw0$.. .X&7   7ss&+;wsssssw+;sssssss",
"<2ssssssupsssssssss wssssssuX     #Oo+@&$+7ssssss- +,+-2usss",
"sssssss4. O-;-2ssss+jsssssss-      $wsss0-.+&*-usa-plk91<2ss",
"sssssss2-wsssssssss6qssssssuX   .. >ussssslp9ssu7-&wssssssss",
"sssssssssssssssssssk3ssssss+   Xu7X  .$--:222:$    .ssssssss",
"ssssssssssssssssssu0bsssusw   Xussi9                dkssssss",
"ssssssssssssa1;;-+   X$X       @0sssN9&         .1tbSsssssss",
"-;;-;0sssss0+                    O2subBSB+    dMmssss0wsssss",
"bckw:@ X+&+                  . ..    .7ssd   nl7o@;&   O-2;*",
"2$         X--@-usu02;*&+O  ...-ssspuu0us0   ssu. X-6gbMbbbs",
"        X -7u0X  $-227wupu7-X   0ssssssssw-. 0ssuusssssu2$X ",
"--$-222$cN6*usu1                 Assssssssssusssssssss7X    ",
"2290s0:9s9 .7sssk<            @rxVssssssssssssssssssssssss2;",
"ww7-X   2-   +1asbSSN1     enBmssssssssssssssssssu90w7=.X$>2",
"         N-+   X+X:ssm$  .Sb2-27;+ +1ww7;;ssssss0o          ",
"      @9kBssa0777229ss-  ,ss*   O1ddfttak0;-:72&            ",
"   exbksssssssssssssss-  +sau-7usssssw2$          . XXX X$+ ",
" .Zl2-27;+ +;774;;sssssu;X.    &2up2+         .     +-20ssss",
" ,ss-   +1fxfddag7;*;22&            X. ...  .-7222wsssssssss",
" +sss20ussssp7;@         X$w077-X$+.        $wssssssssssssss",
"22usss1-ssu:          @2wssssss7  ;9www07-&ff= $2pssssssssss",
"&&<2ss00sshs02-*&*--;$:::;0sssssaa9,&17su0usskksuasssss7-1;;",
"ssu7&  Xwsssssssssss .<92  $:7wusssssu2$  +pssssssssssw +200",
"XX      XBssssssssss7apssw$      .XX.      &Bssssssssss7ssss",
"       @rS0>0sssssss7O$psssfX          . .=dSsssssssssssssss",
"   &tfbp<     -ussss+  .;ussSSCf+   .O     $0sssssssssssssss",
"  xBp0uuss7+    7uss7O    ;--uskM X2uss0$    ;uussu77ssssss8",
" ,ks0sssssssfpkssssssu>$X  -;$2us0ssssssskpgjssssu0::21-2s7 ",
" $sssssssssssssssssssss$  -sssDvssssssssssssssssssss1  +uss9",
"ywssssssssssssssssssssss @sssssssssssssssssssssssssssX.pssss",
"sssu2+wsssssssssssssssss3jsssssss9+7sssssssssssssssss9gsss2s",
"ssa  &O-29sssssssssssss1-wssssss+ @+$17assssssssssssslkssw u",
"9ssw;kMf,-;wsssssssssss9+ +-:2ssu-kmx1--9ssssssssssssssssw a",
"sw1-7sssssssssswo.2ussssskwtwsu2*2psssssssssss2.X+$$;9ssss+s",
"+    2ksssssssss;   X$-;1272;@    &kssssssssss*&whkkspssss&f",
"      Ssssssu7sssw&                nsssssssssssssssssssssspt",
"   1txNssss0  -usskz1&          -rfBsssssssssssssssssssssusm",
"nBmssssuuss2    @7ssmBSn    OzNMksssuusssssssssssssu222;@  X",
"h-+-2&.  $22$.O   X @0ss9   Sk2+%:-X  +222--usssss0o        ",
"s;  X=6fkmcffw:@o$-%o.;w2  Ohs4  .&2pkbbfsp2$X$--$          "
};
