/* XPM */
static char *b2a6d5ea61b5428dbe72a4e19d98aff3sOYoRxSpJP9VhMBA[] = {
/* columns rows colors chars-per-pixel */
"40 40 101 2 ",
"   c #362D13",
".  c #392F15",
"X  c #363016",
"o  c #3D3416",
"O  c #3E3A17",
"+  c #3E3518",
"@  c #3D3A19",
"#  c #413616",
"$  c #443A17",
"%  c #4A3D17",
"&  c #413719",
"*  c #443C1A",
"=  c #4A3E1A",
"-  c #3F401A",
";  c #46421C",
":  c #4C431D",
">  c #47491E",
",  c #4D4A1E",
"<  c #52451D",
"1  c #544A1E",
"2  c #5A4C1E",
"3  c #4E501F",
"4  c #53511F",
"5  c #5C501F",
"6  c #4D4620",
"7  c #4E4B21",
"8  c #524620",
"9  c #544C21",
"0  c #5A4D22",
"q  c #4E5021",
"w  c #555322",
"e  c #565025",
"r  c #565225",
"t  c #5C5121",
"y  c #585421",
"u  c #585523",
"i  c #5D5422",
"p  c #5A5025",
"a  c #5E5224",
"s  c #5A5724",
"d  c #5F5726",
"f  c #565825",
"g  c #595925",
"h  c #5C5A25",
"j  c #5F5926",
"k  c #5D5529",
"l  c #5F5D28",
"z  c #605423",
"x  c #635523",
"c  c #605124",
"v  c #605325",
"b  c #655526",
"n  c #695724",
"m  c #685727",
"M  c #675A23",
"N  c #625824",
"B  c #635925",
"V  c #635B25",
"C  c #615827",
"Z  c #665926",
"A  c #6A5B25",
"S  c #6B5A27",
"D  c #615628",
"F  c #675729",
"G  c #645829",
"H  c #635D28",
"J  c #665D29",
"K  c #695D28",
"L  c #6C5E29",
"P  c #5D6125",
"I  c #5F6029",
"U  c #626127",
"Y  c #6B6126",
"T  c #676129",
"R  c #646529",
"E  c #69602A",
"W  c #6B622B",
"Q  c #6F642A",
"!  c #6A6A2A",
"~  c #726226",
"^  c #736A27",
"/  c #73652A",
"(  c #70672C",
")  c #79672B",
"_  c #72692B",
"`  c #746A2B",
"'  c #74692E",
"]  c #716F2F",
"[  c #7B6D2D",
"{  c #796C2E",
"}  c #7F712E",
"|  c #716630",
" . c #736930",
".. c #746C30",
"X. c #776D32",
"o. c #6F7131",
"O. c #777030",
"+. c #7A7034",
"@. c #897736",
"#. c #877932",
"$. c #887932",
/* pixels */
", : , : 6 6 : 6 6 7 7 9 6 > > : , 9 > , 6 6 , * , 9 9 > 6 6 7 > 7 9 e 9 9 p > , ",
", >   * : * ; @ @ * o & : * o o o , t , $ 0 ; & = a : * w ; * ; ; ; * $ : > * w ",
"7 : : m b < $ 1 c a = # 0 F 0 = # < Z 9 : : p * * 0 c 9 = & 0 S K 0 = 8 c a : 9 ",
"e 1 Z B K a 2 ( O.T 9 : _ ' [ Z # , i l 9 Q 9 * 7 9 J d B < M H ] | < S Q S 0 k ",
"e p < 1 1 0 2 E s e 9 t i 1 K z % : B e w +.u 9 f 0 9 , t < 0 j 7 G < z u B z 0 ",
", 9 1 1 0 0 < Z t t 1 : B 0 z 9 = : 1 g 7 ..e 9 q 9 e u d # : t 1 9 = 0 t B 9 z ",
"e t < 0 0 $ o 1  .K : + = a 0 : o = 9 8 : G a & * & 9 0 =   o , , * o = 0 < & 0 ",
", t , B ; * : 0 Z Z = & , t t D $ $ 1 > * E 1 = # : c S <   o 1 , , & c ) S < B ",
", 9 1 , 4 a Z / i 1 1 0 H w 7  .= ; t 1 > H B < , b i e K = < i 9 , < m i B t a ",
": < < ; e 9 Z J , 1 < Y i ; 7 z * ; i i 7 E j 0 : t j 9 E : < , , 1 < z , , 0 < ",
"6 : = < 7 * : , t t = : * 1 : < o @ : 9 ; 9 , 9 $ 1 1 9 9 = # & : : & : : = : 9 ",
"6 : # < < # $ * 0 1 $ o $ : : $   # 2 2 = 0 u 9 + $ 2 < : . # = < % . $ : 1 : 9 ",
"7 9 0 t z 1 z H ..Q d 2 [ H t 2 $ : } #.S z g : < t [ [ S = 1 2 u S : / B E s 8 ",
"; 1 1 , , 0 z d u 9 9 0 5 , < c : < ' Y t S t : 0 Z 9 B t 1 2 1 1 0 < H l e d 9 ",
"; , 1 1 1 < 1 e , p , 0 2 , : 0 $ < B 1 M b : = 9 t 1 9 1 = < 2 < 9 % u > B e 8 ",
"; * : < = = < = = = $ : 2 0 1 = # < 0 1 1 8 6 9 6 : < 1 = $ $ < : = o : 0 2 8 p ",
"> > o : < 2 < : 0 < : = < 0 , t 1 = < = : p f * @ o z 1 < , , 9 1 , : , t 0 = 9 ",
"6 * < @.) m ~ [ S K M 1 2 m S z 2 S b 0 2 < * , , < m 0 z z m ) [ L K K b 0 = 1 ",
"* * z [ [ M Y R R R j ~ ~ ^ $.) 5 M ` ~ ) 0 , , 1 z } ' Y 2 M / Y L ) _ j j U 1 ",
"* : z 1 z z M g l g e z S u _ M M 9 J / Z z 1 O : 2 t B t 2 c 1 1 K b j ! j l 1 ",
"; 9 1 1 1 0 1 e u u 1 1 2 z b S 2 * e 1 1 K > ; 2 < , 4 9 < t S i B 1 u u , , 9 ",
"9 0 $ < < = # $ = = = # = < < : $ $ = % $ 9 ; , 1 $ < < = % z z 0 < = : : = # t ",
"1 9 $ 2 2 5 2 < z c 0 1 B H 9 : = 1 2 t 2 9 - > * = t 9 t < c b z 2 1 S ) z 2 0 ",
"e , $ < < 2 2 5 z 1 < < 1 > , < = 0 < 1 < 0 ; : : & 1 1 c : < c 2 z < < 1 1 < , ",
", 1 & 0 c < < 0 0 c < % 0 c c < $ 2 c K 1 9 ; * : # 0 c < $ : < t 0 $ 1 b S : 9 ",
", 9 > B E c 0 s 7 e 1 t 1 1 t S : : p ..! a , * : < t z t $ 1 b Z S < 5 j I f e ",
"9 * , , 7 b 9 f ; 6 z z , , t S : : d p B d > 9 9 < 1 9 b : S 9 9 S t i e 1 w 9 ",
"> : > , , t 9 7 ; 7 1 0 t t 0 Z : = 1 ; t d j 9 & = : , t < 1 9 0 c 1 , , , 1 u ",
": * o : , * $ ; * ; : = = : : 9 + $ 1 < = p , 9 : # & : : # : : = = # $ * & o t ",
"; ; o , : & o & * * o o & = * $ o & : , $ 9 > < : & : : & . & , : o o + * : o p ",
"> : , w g B t o.l j d : u w , , , , R ! g , @ : < : u J t $ , u u 9 1 l g R 9 e ",
"7 : u u j T j u w 9 9 a u 7 , e 1 u g R f e : p a & : 9 i : 9 > , B Z j j w 7 0 ",
": 8 9 g j l t , , w 9 9 , , , g > 7 u P w B ; , 9 @ ; w B = 1 ; ; u t w 3 7 7 a ",
": * ; w 7 , , , > > * : , 7 , 4 * , f w , a : : 1 o 6 7 ; & > 9 > ; : ; 7 7 > 0 ",
"7 : & , < : $ < < : & # = , : & + : , , $ 9 , , : o * : & o = < 8 % $ = < 9 $ k ",
"; * O , u 2 2 z 1 1 1 < z 2 z z = < 1 1 1 < , 9 9 : g f w $ 2 z m 2 1 m i t < 9 ",
"; : o ; 9 > < < < < 9 < : , , 0 < < 1 = : 8 < 9 6 & , , 6 = < 1 < < < < 1 , = 9 ",
"> ; & : 9 1 : 1 , 9 9 0 < 9 0 z 8 : 9 9 , = * 9 : # 0 : : : 9 z 1 0 9 7 * & & s ",
"& + & 6 ; : : ; * : * & * : : : * = * * : = > , & + * = 6 6 ; * : , , 9 6 * o , ",
"q 6 + , 9 > ; > > ; : * > : , ; 9 , : * > o * ; ; X ; * > * 9 > > & * > * ; : s "
};
