/* XPM */
static char *fdf5aa0f9d3b492692566bddfff5b4b9Oo6lWycmomPb79i1[] = {
/* columns rows colors chars-per-pixel */
"40 40 189 2 ",
"   c #362E16",
".  c #392E14",
"X  c #373013",
"o  c #3C3316",
"O  c #3E3A17",
"+  c #3D3418",
"@  c #3D3B19",
"#  c #4A2F1F",
"$  c #413516",
"%  c #433917",
"&  c #483A17",
"*  c #413619",
"=  c #443C1A",
"-  c #493E1B",
";  c #572923",
":  c #4D3421",
">  c #4C3E20",
",  c #5D3426",
"<  c #593825",
"1  c #5C3B24",
"2  c #732D29",
"3  c #7F2E2B",
"4  c #643526",
"5  c #663A27",
"6  c #6C3B2D",
"7  c #46421C",
"8  c #4B431D",
"9  c #47481B",
"0  c #4C4A1E",
"q  c #52451D",
"w  c #544A1E",
"e  c #594C1E",
"r  c #53501F",
"t  c #5D501F",
"y  c #60511F",
"u  c #4C4520",
"i  c #4E4B21",
"p  c #534621",
"a  c #544C21",
"s  c #5A4E21",
"d  c #574829",
"f  c #5C4D2C",
"g  c #4E5121",
"h  c #555322",
"j  c #555124",
"k  c #5A5222",
"l  c #5D5222",
"z  c #5C5323",
"x  c #595124",
"c  c #5E5526",
"v  c #575A24",
"b  c #5C5B25",
"n  c #5E5629",
"m  c #5C4B34",
"M  c #624A27",
"N  c #625423",
"B  c #625525",
"V  c #685722",
"C  c #625926",
"Z  c #665926",
"A  c #645B26",
"S  c #6B5C26",
"D  c #64552A",
"F  c #645C29",
"G  c #6B5F29",
"H  c #604D38",
"J  c #635234",
"K  c #66563B",
"L  c #68573A",
"P  c #6E5B3E",
"I  c #5E6026",
"U  c #636226",
"Y  c #6D6127",
"T  c #64642B",
"R  c #6E632A",
"E  c #6D6C2D",
"W  c #73652A",
"Q  c #78672A",
"!  c #746C2E",
"~  c #6F6D30",
"^  c #736A31",
"/  c #7A6F31",
"(  c #7B7232",
")  c #6A5542",
"_  c #6B5848",
"`  c #736044",
"'  c #7A6B51",
"]  c #7D6B5B",
"[  c #822A2B",
"{  c #902D2F",
"}  c #9E2E2F",
"|  c #89302B",
" . c #9E312E",
".. c #942D30",
"X. c #9A2E30",
"o. c #833737",
"O. c #933030",
"+. c #AD2F2C",
"@. c #AC312F",
"#. c #B2302D",
"$. c #BA322F",
"%. c #A42F30",
"&. c #A33331",
"*. c #AC3030",
"=. c #B53331",
"-. c #BA3331",
";. c #BC3937",
":. c #D7363C",
">. c #D8373C",
",. c #D7383D",
"<. c #82463C",
"1. c #8E403D",
"2. c #98403E",
"3. c #917F37",
"4. c #D73C40",
"5. c #D83F43",
"6. c #894741",
"7. c #944E49",
"8. c #96504E",
"9. c #9A5E5B",
"0. c #BD4947",
"q. c #9A615E",
"w. c #88735C",
"e. c #957A6D",
"r. c #8E7D72",
"t. c #A2706C",
"y. c #D84247",
"u. c #D84548",
"i. c #D9494D",
"p. c #C55956",
"a. c #DB5B57",
"s. c #DC5A5C",
"d. c #CB6A68",
"f. c #DF6161",
"g. c #DC6468",
"h. c #C57C79",
"j. c #DE7275",
"k. c #D17A78",
"l. c #E06564",
"z. c #E26D6B",
"x. c #E2776F",
"c. c #E27473",
"v. c #E37F71",
"b. c #E27B7B",
"n. c #9B8A6E",
"m. c #A38879",
"M. c #A39279",
"N. c #E58D7D",
"B. c #E07F82",
"V. c #B98F8A",
"C. c #A79685",
"Z. c #B9918D",
"A. c #AE9690",
"S. c #D68C8B",
"D. c #C49B96",
"F. c #D79290",
"G. c #E48887",
"H. c #E98E88",
"J. c #EA928B",
"K. c #EA9590",
"L. c #EC9C95",
"P. c #EB9F99",
"I. c #C6A29B",
"U. c #C0B195",
"Y. c #E7A68E",
"T. c #ECA695",
"R. c #EFA79E",
"E. c #CDABA5",
"W. c #D2ABA5",
"Q. c #D6AFA8",
"!. c #DBB5AD",
"~. c #D3B9B4",
"^. c #F0AEA5",
"/. c #F1B4AA",
"(. c #F2B5AA",
"). c #E9BFB7",
"_. c #F3BCB2",
"`. c #D2C097",
"'. c #D9C8A2",
"]. c #E2D2AB",
"[. c #E4C3BD",
"{. c #ECC3BC",
"}. c #F3C5BC",
"|. c #E4D4B1",
" X c #EADBB6",
".X c #EFE0B7",
"XX c #F4E5BF",
"oX c #EACAC3",
"OX c #F3CAC2",
/* pixels */
"0 8 8 8 i u 8 8 u i u a 8 8 8 8 8 8 8 u 8 p 8 8 a a u 8 i a u u a a a a x 8 8 7 ",
"0 7 X = 8 = 7 O O = O @ 8 O O O % w j * % x 7 $ w a 7 i 0 = 7 0 7 = % 7 8 7 a 7 ",
"a 8 q S Z 8 & s Z c * = Z Z a - % l Z a = c a O p N c q * e S W B 8 q N N q j 7 ",
"a w Z B G l w / ! Z 8 c R ! W l + w U a i R 8 8 a Z Z Z q N Z ~ R e S W Y s n - ",
"j x q 8 s s s R h c q G 8 k Z l % j b i h / r j j c 8 k q s x h c w N k Z B c 8 ",
"0 s w w s w q Z c Z 8 a k k k 8 - 8 v i h ^ a i 0 k b Z * = a a a - w l Z w Z a ",
"k l q s w + o a R c * + 8 B a * o q p 8 8 Z p * * = a 8 . . = = * o * q q * x 8 ",
"0 l 8 c 7 8 q Z Z B * 8 q c a k O 8 8 7 7 R a o q s C l * $ q q 8 = l W S e F a ",
"0 a q 0 a B B R w e 8 R r j x c = 8 l i @ ( a - s Z b Z s q k w q w y k k k s a ",
"8 8 q 8 j q c c j w q W 7 u p 5 6 <.7.7.6.<.6 : 8 Y j Z c 8 8 8 a f c 8 8 s q = ",
"i 8 % q 8 * * 8 q 8 * : 2  .0.F.S.k.d.p.p.p.0.h.| 1 8 8 * o o = M. Xw.- - % a = ",
"u q 8 s s % 8 a f e.I.W.D.7.=.;.$.$.-.-.-.-.-.-.-.@.4 s $ = q m  X|.C.a B q a 8 ",
"8 a e q s s Z K !._.^.^._.{.9.=.-.-.-.-.-.-.-.-.-.-.@.M > K n.|.XX].' Z Z Z q - ",
"8 a w 8 8 s f W./.x.4.4.z./.).2.-.-.-.-.-.-.-.-.-.-.-.[ U..X].`.'.XXn.0 l c a - ",
"7 8 8 w q = e._.b.i.,.,.,.z._.Z.@.-.-.-.-.-.-.-.-.-.-.} w.n.P d L '.M.8 B 0 8 = ",
"8 8 - e q M Q.T.j.,.,.,.,.4.J.OX1.-.-.-.-.-.-.-.-.-.-.%., - s p p d d N Z p x u ",
"u 7 = s B P ).H.j.>.,.,.,.,.f.}.t.-.-.-.-.-.-.-.-.-.-.X.< e l a q l q a 8 = a = ",
"7 7 l 3.W ` }.K.g.,.,.,.,.,.i./.V.#.-.-.-.-.-.-.-.-.=.X.1 N Q / W S / R Z s q = ",
"= = Z Z R L {.K.b.,.>.v.N.,.5.^.D.+.-.-.-.-.-.-.-.-.%.[ w N G Z B R Z b U T a = ",
"= a t w k D ~.R.G.,.,.v.Y.a.,.K.!. .-.-.-.-.-.-.-.@.X., e s q w Z l v U v h s 8 ",
"8 k - q 8 - C._.c.j.,.:.T.v.>.l.}.8.-.-.-.-.-.-.*.X.3 - - s W Z c 8 8 8 8 = s 8 ",
"a a - s l e m [.^.f.,.,.u.i.,.,.R.D.&.-.-.-.=.%.X.{ 1 w q e N N e q N Z s q x 8 ",
"h i - w w t y ] oX/.H.s.g.y.,.,.s.}.q.=.=.*.X.X..., w V s q S B N e q S t e j = ",
"a 8 = q q w - q ) ~.}.^.H.B.y.,.,.L.E.O.X.X.X.X.; - s 8 - & q q s q q e e - 8 = ",
"8 e - Z R s c Z a d r.[._.L.G.s.i.J.{.o.X.X.{ , + a B Z - q s Z R - w l E j k 8 ",
"a 8 0 h h Z a h 7 x q J A.{.^.P.L./.{.o.X.3 # 8 = c a Z w Z l k Z N Z b h h a - ",
"a = 8 0 0 l k h 7 a a Z 8 ] E.{.}.OXm.2 4 x 8 F * w 8 s e l w q N l q 0 0 r j 8 ",
"8 = 7 w a 8 8 0 7 a 8 8 q q p H _ ) p p 8 F 8 x o 8 = q 8 q s q s - 8 8 7 7 a = ",
"8 = o - = o o o * O + O = - = * o * - = + F = a o = = = . o = * + . o * * o c 8 ",
"8 8 7 h x k j T b T 8 8 h i 0 8 8 h E b 0 u o a * Z c B = = w x w 8 h l T w x 7 ",
"0 8 h h b Z Z b i h q c i i 0 h 0 v T T h 0 = Z * q 0 b q j 0 8 h Z F b v a s 8 ",
"8 8 h I b Z a 0 0 h 8 c 9 r 0 h 7 h b v h x = l O 7 0 b q 8 0 7 j B h g 0 i s 8 ",
"7 - 7 h g a 8 0 8 0 = 0 7 i 0 r 7 i v h 8 Z = l o 8 i i = 8 i 7 8 q 0 0 i i x 8 ",
"i 8 * 8 8 - * 8 8 8 + * 7 8 = * O 8 0 8 * b = x   = = = o $ 8 8 = * = u a = n u ",
"8 = @ 0 l e s B w w q q V s N N % e w q 8 k = x O v h h = w V V y w V B l q a 7 ",
"7 8 O 7 i 8 8 q q a q 8 q 8 q s - q 8 8 - s 8 n + 8 8 8 - q w q q q 8 8 8 - a = ",
"8 7 * 8 a q 8 q q q a s q c s c q w a u = q = a o w q 8 8 a c w l a a = = * x = ",
"= * * u 8 8 8 7 = 8 = = = u 8 - - = 8 7 = 8 = 8 o = 8 u a 8 8 8 8 8 a u = * p * ",
"h 8 * 8 a 8 = 8 8 7 8 7 8 0 8 8 0 8 = 8 = = + g   7 = 7 7 0 i 8 = = 8 = 7 8 x u ",
"= = u u a u 8 8 u u 8 = 7 u 8 7 u a i 7 8 @ + = * a = = = u a u u 8 8 p a = 8 = "
};
