/* XPM */
static char *result[] = {
/* columns rows colors chars-per-pixel */
"60 60 248 2 ",
"   c #050404",
".  c #090704",
"X  c #0F0F0C",
"o  c #120E07",
"O  c #17130A",
"+  c #171714",
"@  c #1C1B14",
"#  c #251B09",
"$  c #291C12",
"%  c #1D200F",
"&  c #3B2909",
"*  c #272519",
"=  c #24241D",
"-  c #392517",
";  c #2A3216",
":  c #2C2B28",
">  c #392D21",
",  c #383529",
"<  c #3E3D35",
"1  c #3A3A3A",
"2  c #442E0A",
"3  c #48330E",
"4  c #4B340C",
"5  c #53390B",
"6  c #5B3D0C",
"7  c #442A16",
"8  c #522D1F",
"9  c #493418",
"0  c #563816",
"q  c #5C3C13",
"w  c #5A351C",
"e  c #603F0F",
"r  c #633B1C",
"t  c #493826",
"y  c #553926",
"u  c #413F37",
"i  c #403F38",
"p  c #513F30",
"a  c #613624",
"s  c #643A24",
"d  c #693B26",
"f  c #6E3E2A",
"g  c #713F2B",
"h  c #7E2A3D",
"j  c #37511D",
"k  c #3B4826",
"l  c #524513",
"z  c #594319",
"x  c #485C15",
"c  c #55581A",
"v  c #63430C",
"b  c #69470D",
"n  c #6D4A0D",
"m  c #734E0E",
"M  c #77510E",
"N  c #7C540F",
"B  c #634311",
"V  c #684716",
"C  c #6B4B13",
"Z  c #714E12",
"A  c #765215",
"S  c #426312",
"D  c #466C14",
"F  c #496818",
"G  c #53691C",
"H  c #497017",
"J  c #4D741A",
"K  c #4D452D",
"L  c #594528",
"P  c #475A27",
"I  c #555726",
"U  c #43423A",
"Y  c #494538",
"T  c #544839",
"R  c #4A523A",
"E  c #58583D",
"W  c #674A26",
"Q  c #77412D",
"!  c #7A432E",
"~  c #77492C",
"^  c #685726",
"/  c #75552A",
"(  c #664B37",
")  c #7E4630",
"_  c #744936",
"`  c #7D4932",
"'  c #6A5539",
"]  c #75583A",
"[  c #496729",
"{  c #5C6824",
"}  c #557A25",
"|  c #4D6733",
" . c #556A38",
".. c #587536",
"X. c #66692C",
"o. c #746E3A",
"O. c #63783A",
"+. c #4C4B43",
"@. c gray30",
"#. c #524D44",
"$. c #5B4B40",
"%. c #4F5146",
"&. c #575546",
"*. c #55544A",
"=. c #5A5B4D",
"-. c #5D5C52",
";. c #7E484E",
":. c #695844",
">. c #64594C",
",. c #765C46",
"<. c #615F54",
"1. c #5A6745",
"2. c #5F6A4B",
"3. c #68654B",
"4. c #776449",
"5. c #657847",
"6. c #626257",
"7. c #6A6752",
"8. c #65645A",
"9. c #69665B",
"0. c #6B6A5E",
"q. c #776856",
"w. c #727B55",
"e. c #6B6A62",
"r. c #7F6565",
"t. c #716E63",
"y. c #737266",
"u. c #797864",
"i. c #757369",
"p. c #79766B",
"a. c #7B796D",
"s. c #7C7B71",
"d. c #7A7A7A",
"f. c #8C1A37",
"g. c #9A1B3B",
"h. c #AA1436",
"j. c #8F213D",
"k. c #DC123F",
"l. c #81570F",
"z. c #82580F",
"x. c #815710",
"c. c #825810",
"v. c #804731",
"b. c #814832",
"n. c #824E39",
"m. c #84503B",
"M. c #80673E",
"N. c #A41F41",
"B. c #952F48",
"V. c #A52143",
"C. c #AA2345",
"Z. c #B7324F",
"A. c #CB1D42",
"S. c #D51942",
"D. c #EA1746",
"F. c #EC1746",
"G. c #CD2B4D",
"H. c #885945",
"J. c #9D465D",
"K. c #83664B",
"L. c #886A55",
"P. c #89735A",
"I. c #8F7C58",
"U. c #985261",
"Y. c #867966",
"T. c #947D66",
"R. c #996E72",
"E. c #817F74",
"W. c #8B7C70",
"Q. c #A9767D",
"!. c #CA536D",
"~. c #5A852A",
"^. c #5D8831",
"/. c #618D33",
"(. c #678639",
"). c #689539",
"_. c #6C9438",
"`. c #5B8A57",
"'. c #6B8549",
"]. c #738D45",
"[. c #749645",
"{. c #758856",
"}. c #738C59",
"|. c #7C8668",
" X c #7E8072",
".X c #81924F",
"XX c #99866B",
"oX c #8A9868",
"OX c #848376",
"+X c #8A8777",
"@X c #86857B",
"#X c #8D8B7E",
"$X c #928D7E",
"%X c #9A8A78",
"&X c #889174",
"*X c #969B78",
"=X c #A58F75",
"-X c #93A571",
";X c #A67C87",
":X c #8E8C81",
">X c #8B8B8B",
",X c #938B83",
"<X c #959182",
"1X c #9A9485",
"2X c #919881",
"3X c #979589",
"4X c #99968B",
"5X c #9B998D",
"6X c #9D8D91",
"7X c #949494",
"8X c #9D9C91",
"9X c #AF928C",
"0X c #A69B8A",
"qX c #A29D93",
"wX c #9DA289",
"eX c #A3A295",
"rX c #ACA393",
"tX c #A6A499",
"yX c #ADA999",
"uX c #B7AE94",
"iX c #B8AA97",
"pX c #B4AC9C",
"aX c #ADABA1",
"sX c #B8ABA9",
"dX c #B9B4A7",
"fX c #B9B8B8",
"gX c #CA8393",
"hX c #C1B19B",
"jX c #C3B5A3",
"kX c #C7BAA7",
"lX c #CCBEAA",
"zX c #C4BCB5",
"xX c #D1C2AE",
"cX c #CBC7B8",
"vX c #D4C5B1",
"bX c #D5C6B3",
"nX c #D7C9B5",
"mX c #D9CAB5",
"MX c #D2CDBF",
"NX c #DFCFBA",
"BX c #E0CFBA",
"VX c #E0D0BB",
"CX c #D5D1D1",
"ZX c #E0D5D7",
"AX c #DFDFE0",
"SX c #ECEBEB",
"DX c #EFF3F3",
"FX c #FAFAFA",
/* pixels */
"b.b.b.b.v.! b.b.b.b.b.v.b.g f v.v.a r Q v.v.v.v.v.v.v.v.v.b.b.b.v.b.b.v.v.! ! ! v.^ X.G X.^ G / m.b.v.b.b.b.b.b.v.! ! ! ",
"b.b.v.! ! Q ! v.v.b.b.b.b.e M w d m z.e v.v.v.b.b.v.v.g g g v.v.v.v.b.v.b.v.` / J ~././.^.^./.X./ b.b.v.b.v.b.v.v.Q ! v.",
"v.v.b.! ! b.b.) g v.g v.b.e x.n 6 N l.M g v.b.b.v.v.v.v.g v.g v.Q Q Q ! ! W F D ~./._./.).).).~.X./ b.v.v.b.b.b.v.v.b.b.",
") b.b.) v.b.v.b.b.b.r e g e b l.b 0 M n g v.v.g v.v.v.b.b.v.g g Q Q Q Q Q W l S J } } /.~.^.).^._./.{ v.v.b.v.b.v.b.b.v.",
"v.v.g ! ! v.v.v.v.v.b l.e n b 6 e f e 0 v.v.g v.g v.v.v.b.v.b.b.b.v.! Q W Q Q x D H D D J J J J D G ^ ~ v.v.v.v.b.v.b.b.",
"g g ! ! g ! b.v.v.f M m z.6 n l.r r w g v.v.v.g g g v.g v.v.v.b.v.b.v.X.~.} } H S c c z x D D D H c / b.v.v.v.v.b.v.b.b.",
"g v.! g ! v.m.b.v.v.M e z.e l.l.a w l.r v.b.b.b.v.v.v.g g v.v.v.v.X.} ~.).).[./.~.G V d ] W x D F D J { ^ { / v.! v.v.v.",
"g v.b.b.b.b.b.b.v.v.n l.v m l.l.r g n m g b.b.v.v.v.v.v.v.v.g v.W G } ~.~.~.^.~.~.S x s I F D J /./._./.~.~.X.Q Q Q Q Q ",
"m.v.v.v.v.v.v.v.g v.r l.l.l.l.l.n r e e g b.g a g v.Q ` L.q.K.;.' I D H H D F D D x Q a L x D ~././._._.[.).~.^ ~ Q Q ! ",
"b.v.g g g v.g v.v.v.g e l.l.l.l.l.z.r g v.g v.0 g H.W.$.s.s.d.-.*.&.R [ P &.=.&.P z ( d y o.S H H J ~.~./._.).).{ ~ v.b.",
"v.v.v.v.v.v.b.v.v.v.v.r l.l.z.e z.e g g g b.y 6 <.p.#.t W & U , T =.-.=.-.-.-.*.i u p ( 9 ' F S x S S H J J J J J c b.b.",
"H.v.v.v.b.v.v.v.v.g a w e l.M 2 e d v.H.,XqXI M W :.b Z v 6 n & 3 *.-.-.-.-.+.k u i i t y 9 L.4.L X.0 x D H D x ~ ~ b.b.",
"v.b.v.v.g a 5 2 2 6 e n e 7 8 d v.n.%X@Xy.a.' N N 6 l.l.b & 5 & - : < -.-.+.U U i i u < t T ( P.4.] s ! x x c x / b.b.b.",
"g v.v.a e l.l.l.l.l.8 v.v.v.b.b.H.9XT 4 m T &.v l.N v b n v b & @ X 1 =.U i < +.-.-.#.i t ( y K.L.4.W b.v.W W v.v.v.v.v.",
"v.g d 2 l.l.l.l.m w v.v.v.v.v.H.0XOXT rXXXC > v l.M N l.z.N M   cXd.4 , u U *.-.-.-.-.*.U y L.] L.L._ b.r M l.f v.Q Q Q ",
"v.v.g 6 l.l.m 6 7 v.v.v.v.v.b.9X@X<.rXBXBXY.n M 2 . . O 4 N 2 e.FXuXK.W.< *.-.-.-.-.-.-.$.9 ,.,.K.L. .I 6 M z.r Q Q Q Q ",
"v.b.v.w b x.l.l.M 0 d ) ) ` %Xy.<.5 / lXNXkXn N b O @.fX7X: O sXfXqXhXr.=.+.-.-.-.-.-.*.z N N ^ ] 4.L N 6 z.N g b.v.g v.",
"b.b.v.) a 6 x.x.z.z.m C B C n M N x.z./ P.T P.XX^ o CXFXFX>Xd.7X6.e.,XiXmX9.>.-.-.-.-.z z.z.n ] L 5 N C 4 v s b.v.b.b.b.",
"b.v.b.v.b.g 5 M l.l.x.z.x.z.z.c.x.x.z.m XXhXxXVXBXiX1XSXFX@.: 7X>XX 0XbXiXlXu -.-.-.-.z x.v L ] B N C 4.4.T V e e b.b.b.",
"b.b.v.v.v.v.v.y 0 N l.z.c.x.c.c.x.x.x.q kXBXVXVXVXBXBXiX7X. : 7X1   ,XbX9XpXt -.-.-.<.u 6 z.z.z.x.x.N C B N v N n b.b.b.",
"v.v.v.b.b.b.v.) v.w b x.c.c.c.c.c.x.x.XXVXVXVXlXH.rXBXkXiX.       =.BXlX1XkXU +.-.-.-.#.y l z.z.x.N N l.v 9 B x.c o.n.b.",
") ) b.v.v.,.X.L.K.H.( q c.c.c.c.c.x.Z lXVXVXVX9Xf.lXmXkXVXiX9.9.,XdXjX0XjXxX+.+.*.-.-.*.I } N z.x.v z.l.> 9 - 4 ' ..M.b.",
"b.b.L.%X8X-X^.3XtXtX8X@X0 N z.c.c.z.o.VXVXVXVXU.f.r.kXlXNXBXlXL.SX6XFXzXNXrX, -.#.*.-.=.[ %.M z.N M l.l.M q z 9 9 | o.b.",
"b.b.9XqXtXwX^.&X4X3X3X4X+X0 x.c.c.z.=XBXVXVXBXh N.j.lXsXlXsXsXU.sXQ.SXjXNXT.9 =.-.*.-...L T N M x.z.l.C V q b N > I .Xb.",
"b.b.R.tXtX5X].`.5X5X3X:X#X&.c.z.l.l.uXVXVXVXkXg.g.B.CXU.SX9XJ.V.N.sXdXBXNXW M Y -.*.=.(.t B B 9 z 0 K -.-.u m M , _..Xb.",
"b.b.] 5X5XqX}.|.aXdXdXaXeX0.N z.l.N hXVXVXVX9Xh.N.N.V.U.DXJ.V.V.N.0XBXBXiXm z.z +.=.1.I n V T ( P.*.*.+.+.1 n z { w.I.b.",
"v.) v.H.3XeX-X}.tXtXtXtXeXOXm l.l.N hXVXVXBXQ.C.N.N.N.Z.;XV.V.V.B.NXNXBXXXz.N z.B , 9 N N K T ,.I.>.9.6.*.U , { {.L.T.( ",
") ) ) ) 4.*X[.[.eXtXtXtXeX4Xv l.z.N hXVXBXBXR.g.h.j.N.C.f.V.V.C.R.BXNXvXK v c.z.z.z x.N n *.L 4.P.<.OXE.6.-.#.[ U U L.,.",
"b.b.b.b.] ].OXoX&XwXtXtXtXeXv z.z.N uXVXVXVXZ.F.F.h.F.F.S.g.N.N.9XNXNXuX5.%.L N z.l.l.N K &.K ' L.9.@X@Xs.-.3. .&.< T Y.",
"b.v.g g o...0.{./.2XeXeXtXeXL z.z.z.rXBXVXVXG.F.F.D.F.F.F.N.N.N.rXBXNX .*.=.*.z z.l.M 7 [ R T ( L.p.@X@XOXy.w.5.=.+.< T.",
"g v.g b.oX`.u.9...&X8X5X5XtX' z.z.z.XXBXBXmXA.F.F.S.S.F.F.D.g.N.,XBX0X .*.6.*.-.L V l u *.| X.' Y.s.@X@X@X+X1._.=.*.i Y.",
"v.g g %X*X}.a.0.5.; , U %.p.4.z.z.z.K.BXCXzXS.F.F.!.gXF.F.F.g.f.AXpX3.5.-.OXy.*.&.&.$.=.-.1.X.' Y.OX@X@X+X+Xw.].-.-.U P.",
"v.v.P.qXoX}.a.u.5.P : = + X O z.z.z.] VXVXnXS.F.F.Q.ZXD.G.G.,XR.FX:X>.1.5.@X@X<.@.+.-.-.-.E I ' Y.@X+X@X@X@Xa.(.<.-.+.q.",
"v.n.qXtX*X}.a.u.]...; = = = @ N z.z./ VXNXNXG.G.k.zXDXZ.ZX;XZXfXAX>XT  .0.@X:Xa.*.k U -.6.| t 4.t.@X@X@X@X@X:X1...-.@.4.",
"g L.tXtXeX].{.p.0.I k = * , P v l.z.] VXnXhX%XDXB.FXFX;XaXjXnXNXbXxXP.1.e.@X@X@Xe.+.1 +.....p L.e.@X@X@X@X@X@Xt.| 1.2.q.",
"v.W.qXtX4X'.+Xp.y.P 5 = % j j 5 l.l.P.BXnXdXjXDX8XSXdXvXBXNXBXBXVXVX%X..e.:X:X@Xe.@.U i  .&.( L.-.@X@X>X@X:X@Xs.<._.=.*.",
"g ,XtXqX:X5.#XOXt.5.l 7 = j ; 3 l.l.XXBXnXjXNXkXqXcXBXBXxXrX$XlXVXmXq. .y.8X@X@Xs.-.U k  .T :.q.-.a.:X X@X@X@X@X<.| +.*.",
"<.4XtX8X&X}.#X#Xy.8.l n P k X 3 l.N 0XBXNXjXNXVXCXVXBXiXhXlX<XT.4.OX:.O.w.aX@X@X@X6.+.| *.p ] q.-.e.E.:X@X@X@X@X9.| < U ",
"-.4XtX,X&X].#X+Xa.0.0 l.x % + 5 l.N uXNXVXjXVXVXBXbXiXbXBXi.rX=X:.:Xq.5.e.sX>X@X@X8.| O.&.y ( u.-.-.p.:X@X:X@X@X{.} 1 < ",
"-.3XqX:X&X].a.a.u.t.L x.4 @ + n l.N lXVXVXkXiXxXhXiXBXBXp.*.tX9X] @Xu.O.-.eX8X@XOX0. .U +.y y P.8.-.8. X@X@X@X@Xt.| i < ",
"a.:XeX|.5.|.#X$X4X$X' c.M % @ N x.A xXNXNXNXbXkXmXBXNX0XX 6.tXrXK.a.q. .-. XdX@X|.} =.*.u :.$.' T.-.-.i.@X@X@X@Xs. .i i ",
"s.:X2XyX}.cXMXMXcXyXq.x.N 3 $ x.z.A xXNXVXNXVXVXBXBX0XC # 8.tXtXI.4.0.7.-.8.dX>X@XO.-.=.y 7.*.T K.q.-.6. X@X@X:Xs...Y i ",
"0.3XcXuX-XMXCXxXyXpXOXZ z.N & N c.N hXVXNXNXVXNXNX=Xm N N q ,.u.P.q.a.@Xe.-.3XeX X2.<.*.( <.t.9.( Y.-.-.e.@X@X@X X..k i ",
"e.cXMXMX-XcXjX$X#XrXyXl N b 6 z.c.z./ uXbXNXbXhXo.N l.x.z.z.x.x.e :.:X:X X6.t.aX|.'.1.p K.<.@Xs.T 4.*.-.-.s.@X@Xu. .< u ",
"dXCXMXMXoX*X1X1X<X$X*X: $ 2 z.z.c.z.z.N b ^ A N l.l.l.l.l.x.l.l.e q.$X:X#Xt.-.4X|.O.=.y q.a.@X@X:.:.1 -.-.8.+X|...1.1 1 ",
"MXMXaX*X'.1X1X1X1X<X-.= # N z.z.c.z.z.N N N m v 6 5 5 6 N l.l.m 9 rX%X:X$Xa.-.i.|.3.#.T t.@X@X@Xq.>.u +.-.-.y.OX(.-.< < ",
"pX<X1X1X}.1X1X1X1Xt.= $ M z.z.z.z.N N v ; O X X X . ; ; v l.q 7.,XtX=X%X:XOX8.-.w.2.$.( a.:X@X@Xp.>.U < *.-.-. Xw.-.< < ",
"pX0X1XoX'.1X1X$X&.= @ m z.c.z.N N 2 * = @ o X X X . # b b # :.#X4X8X=XXX:X@Xe.-.2.-.T q.E.@X@X@Xs.3.+.< +.-.=.6.'.2.< u ",
"#XqX1X2X5.OXu.8.<., @ b N N N C * = = = X X X X X # N b . . > 5X4X:Xu.:.p.u.>.-.-.-.T Y.OXOX@X@XOX7.+.u < -.-.=.5.-.k 1 ",
"9.1X<X$X..7.9.t.p.y.@ B c.c.N # = = @ @ X X X X o Z N x.m 6 V A Z C N N Z L &.-.-.=.T Y.@X@X@X@XE.=.+.u < *.<.&.3.-.+.1 ",
"p.#X:X#X'.t.u.OX#X#X< & N z.z.3 = = + O X X X X X . . ; K W C z.x.x.c.z.N m L dXdX$X>.7.i.OX@X@X@X<.@.i < +.2.=.7.-.i i ",
"5XtX8X5X{.p.OX#X:X#X*.= ; v N N n 4 & O X X X X X . . @.E.e.a.' Z x.z.z.N n N L.nXCXrXrXs.9.s.@XOX<.#.u < 1 -.-.-.<.U i ",
"eX8XtXeX[.OX+X#X:Xd.0.= : = + # 2 M n @ X X X X X . = E.E.*.7XtXa.' M z.N N b Z dXcXdXpXtXW.<.e.E.-.#.u k i -.-.-.-.U i ",
"d.OXd. X&XOX+XOX' q z 7 & 2 b x.M 7 X X + X X X X . : e.-.+.E.3X@XOXs.E ^ A V 9.$X<X$XpXsXs.-.-.-.-.*.u i i @.-.-.<.+.i ",
"y.y.e.e.-.&X0.C z.l.z.x.z.l.x.5 $ @ X X X X X X X . + e.-.*.8.s.s.s.y.8. X$X<X3X1X1X$X0X1X-.<.-.-.-.*.i i i +.-.<.<.#.u ",
"+.+.+.*.i.4X5 b N M x.z.z.M 7 8 y t - 7 > - - - - $ $ #.-.*.*.+.+.+.+.6.#X1X1X1X1X1X<XE.<.-.>.>.-.-.-.u i i Y >.>.>.p p ",
"#.#.#.( H.( b m v l.l.l.m w g v.) b.b.b.v.g v.g v.g g v.h Q ( $.$.#.$._ b.H.L.L.L.L.H.b.v.v.v.v.b.b.b.v.b.b.b.v.v.v.v.b.",
"n.b.n.` v.w l.5 l.l.l.e s g g v.g b.b.b.b.b.b.b.g v.g g v.v.b.b.b.b.b.b.v.v.v.v.b.b.b.b.v.v.v.v.v.b.b.v.v.b.v.v.g v.v.g ",
"b.g g ) b.r c.4 l.n 0 f ! g ! g v.g g g v.v.b.b.v.g v.g v.v.v.v.g ) ` ) g v.v.v.v.v.v.v.v.v.v.v.b.b.v.g g g g g g g g g ",
"b.) ) g g g d g s g v.v.v.v.v.! g g b.v.v.g v.b.v.v.g v.v.v.v.g g g ) ) v.v.v.m.v.v.v.v.v.g v.g ) v.g ! v.g v.g v.v.g v."
};
