/* XPM */
static char *result[] = {
/* columns rows colors chars-per-pixel */
"60 60 186 2 ",
"   c #020202",
".  c #090602",
"X  c #0B0B0A",
"o  c #150D02",
"O  c #1B1304",
"+  c #171716",
"@  c #201604",
"#  c #2B1811",
"$  c #3E2A07",
"%  c #39250A",
"&  c gray18",
"*  c #383531",
"=  c #442D09",
"-  c #462D0A",
";  c #4C320B",
":  c #53360D",
">  c #55390B",
",  c #5B3C0C",
"<  c #452912",
"1  c #4B2D15",
"2  c #452718",
"3  c #4C2B19",
"4  c #512D1E",
"5  c #4D3011",
"6  c #553513",
"7  c #5A3716",
"8  c #573812",
"9  c #5D3B13",
"0  c #563319",
"q  c #5B351C",
"w  c #5E391B",
"e  c #613F0F",
"r  c #623E13",
"t  c #633B1C",
"y  c #452B20",
"u  c #493127",
"i  c #5C3422",
"p  c #5A3725",
"a  c #623624",
"s  c #653924",
"d  c #693B26",
"f  c #643A2A",
"g  c #6D3C29",
"h  c #713F2B",
"j  c #7E2A3D",
"k  c #5F400B",
"l  c #594119",
"z  c #64430D",
"x  c #69460D",
"c  c #6D4A0E",
"v  c #734D0E",
"b  c #77500E",
"n  c #7C540F",
"m  c #654211",
"M  c #6A4512",
"N  c #6C4912",
"B  c #6A421A",
"V  c #68471B",
"C  c #714C11",
"Z  c #755112",
"A  c #7D5410",
"S  c #765318",
"D  c #52402C",
"F  c #4F4539",
"G  c #694524",
"H  c #724226",
"J  c #77412D",
"K  c #7A432E",
"L  c #6D5328",
"P  c #785926",
"I  c #6F4332",
"U  c #7E4631",
"Y  c #7C4935",
"T  c #774E3C",
"R  c #765D34",
"E  c #79633F",
"W  c gray30",
"Q  c #5F5950",
"!  c #735748",
"~  c #6A6258",
"^  c #77665E",
"/  c gray39",
"(  c #686460",
")  c #7E6963",
"_  c #7A7A7A",
"`  c #8C1A37",
"'  c #9D1636",
"]  c #941C3A",
"[  c #9D1D3E",
"{  c #A51435",
"}  c #8F213D",
"|  c #DC123F",
" . c #81570F",
".. c #82580F",
"X. c #815710",
"o. c #825810",
"O. c #804731",
"+. c #814832",
"@. c #844E3A",
"#. c #80673E",
"$. c #A41F41",
"%. c #9E2745",
"&. c #883145",
"*. c #9E3F54",
"=. c #AA2345",
"-. c #B7324F",
";. c #D81741",
":. c #D31B43",
">. c #E51744",
",. c #EC1746",
"<. c #ED1847",
"1. c #C52848",
"2. c #D12E52",
"3. c #875B49",
"4. c #AE4354",
"5. c #856C45",
"6. c #876756",
"7. c #847153",
"8. c #87765B",
"9. c #9A4D61",
"0. c #965662",
"q. c #A24D63",
"w. c #99666D",
"e. c #887B67",
"r. c #927D6C",
"t. c #A7787C",
"y. c #B0727F",
"u. c #CA536D",
"i. c #988567",
"p. c #9C896D",
"a. c #8F837D",
"s. c #97897A",
"d. c #A28C75",
"f. c #A67C87",
"g. c gray52",
"h. c #8E8E8E",
"j. c #988584",
"k. c #9A9287",
"l. c #9D8D91",
"z. c #949494",
"x. c #A89987",
"c. c #AB9C8D",
"v. c #B2988B",
"b. c #A39895",
"n. c #B49099",
"m. c #B3A289",
"M. c #AFA191",
"N. c #B2A594",
"B. c #B8A790",
"V. c #BCAC96",
"C. c #B4A698",
"Z. c #B5A999",
"A. c #BBAD9B",
"S. c #BFB19E",
"D. c #BAAAAA",
"F. c #BFB4A3",
"G. c #BAB3A9",
"H. c #B4B3B2",
"J. c #BCBCBC",
"K. c #CA8393",
"L. c #C0AE96",
"P. c #C2B29D",
"I. c #C3B5A3",
"U. c #C6B8A6",
"Y. c #C9BBA7",
"T. c #C4BAAC",
"R. c #CCBEAA",
"E. c #C4BCB5",
"W. c #CEC0AD",
"Q. c #D1C1AE",
"!. c #D4C5B1",
"~. c #D7C9B5",
"^. c #D9CAB5",
"/. c #DFCFBA",
"(. c #DFD0BB",
"). c #E0CFBA",
"_. c #E0D0BB",
"`. c #CDC7C9",
"'. c #DCDBDA",
"]. c #E0D5D7",
"[. c #DFDFE0",
"{. c #E4E4E3",
"}. c #EEEDED",
"|. c #EFF3F3",
" X c #F6F5F6",
".X c #FCFCFC",
/* pixels */
"+.+.+.+.O.K +.+.O.O.+.+.+.H H K +.s B J +.+.+.+.K O.K K +.O.+.O.+.+.O.O.O.K O.} P U +.U O.+.+.+.@.O.O.+.+.+.O.+.+.K K O.",
"+.+.O.K K J K O.Y U +.O.O.m b w d v A 9 K O.+.+.@.+.K K K K K O.+.+.+.+.+.O.+.+.K K K H K O.O.+.O.O.O.+.+.+.+.+.K K K K ",
"+.+.+.K K +.+.U J U U O.+.9 ..c , A A b J +.O.O.O.O.+.O.K K K K h K h K h O.h h J J K H K O.@.+.+.O.+.+.+.+.+.+.O.O.+.+.",
"K +.+.O.O.+.+.+.+.O.t 9 J 8 x n c : n c h K K J K +.+.+.O.O.h K K h K K K h h O.J J K K K +.+.+.+.+.+.+.+.+.O.+.+.O.+.O.",
"O.O.K K K O.O.O.+.U x ..z c x , m d 9 8 U U K J h K O.O.O.+.@.@.@.O.K h K J J K U U +.+.+.+.+.+.+.+.+.+.+.O.O.O.+.+.O.+.",
"h K h h h K @.O.+.h b v  ., v X.w a 0 K +.+.K K K J h K K K O.O.+.+.O.K J J K @.+.U U U +.U K K O.O.O.+.O.O.O.+.+.+.+.+.",
"h h h K K O.+.+.O.K v z ..z n  .s w n t +.+.+.+.O.O.K K K K K K O.+.O.J J J +.+.+.J J J J K K U K O.O.K K O.O.K K O.+.K ",
"O.+.+.@.+.+.+.+.O.O.C n z c  . .t H c v J Y +.+.O.O.O.O.K K O.O.+.K K J J J K +.+.U U U U +.+.+.+.O.O.O.K K h K J J K K ",
"+.O.O.O.+.O.K K K U t o. .o. . .c q e c h O.K d h K h h } J J J h h O.L K K K K K K K K O.O.+.+.K K J J J J J J J J J K ",
"+.O.h h K h K K O.O.h c  .X. . .o.o.r h U h K 5 g h h 3 V H J d h h h } K H J K h K K K K K K K O.O.K K J J J K K K O.+.",
"+.O.O.O.O.O.+.+.O.O.O.q  . .X.z X.r h h h K 4 > q g 0 - 8 % 2 1 t h K h J K K K K K +.+.O.O.+.+.O.+.O.O.+.+.+.+.O.+.+.O.",
"3.+.O.O.+.+.+.O.U g a q z n v = e d K h K U r C 6 t x c k , x $ ; h O.O.K K K K O.O.O.K K K Y +.+.+.+.+.O.+.+.+.+.+.+.+.",
"O.O.+.+.h t 6 - 5 > x M r 2 4 d h O.O.h G h B X.n k ..n x = ; $ % # u K O.O.+.+.O.O.O.K K +.K K K K +.+.+.+.+.+.+.+.+.+.",
"L } K q e .. ... .n 6 U U K O.O.+.O.1 ; c 0 s z n n x c c z c % + + y O.h K K K O.O.+.K U +.+.+.O.O.K O.O.d h O.+.K O.K ",
"H K s ; .... ...v q U +.O.O.+.+.+.U p N.s.N - x ..b n A ..n v . W._ ; d +.+.+.+.O.K K K K +.+.O.+.+.+.O.q b  .H O.J J K ",
"+.O.h , .. .v > 1 U O.+.O.O.+.+.U i c././.e.x n $ . . O ; n ; / .XC.5.r.K O.K K h K K h J g d U +.+.O.q z b ..t J K J J ",
"+.+.U q x  . .X.b 6 d O.U K h d i > L Q./.Y.c n x @ W J.z.* O H.J.M.V.) ! p K h K h K g M b n B O.U q n , ..b h +.K K K ",
"+.+.+.K a , X.X.o...v M M N v b b A ..P 8.F 8.i.L o `..X.Xg._ z./ ( s.A.^.~ g K h O.+.r ....c t U r  .m > x t +.+.O.O.+.",
"+.+.O.+.+.g 6 b  . .X. . . .X.o.......c p.S.Q._./.N.k.}..XW & h.h.X k.!.A.Q.u @.@.+.+.e ..z 0 t M X.c h J i t m r +.+.O.",
"+.+.+.+.+.+.O.i 8 n  . .X.X.o.o.......l U./.)._._._./.Z.z.. & h.*   k.!.x.Z.f +.+.h h a r X.o...n X.n M x b z n x O.+.+.",
"O.O.O.+.+.+.+.O.O.q x  .X.o.X.o... ...p.(.(._.R.3.c.).U.S..       Q (.R.k.R.I +.+.O.K K K r ..o...b .. .M q z  .B Y O.+.",
"U U +.+.O.O.+.+.O.O.f , X.X.o.o... .C W._.(._.v.` R.^.I./.M.~ ^ j.G.I.M.I.R.F h P } O.+.+.d  .o. .z ....s K q w J O.+.+.",
"+.+.+.O.O.O.O.U U h K d ; X. .o.o. .E _.(._._.0.` ^ Y.Q.).).Q.) }.l..XT./.c.y O.K U H K K s b o. .b  . .C z r r J K +.+.",
"O.+.+.+.O.O.O.U U O.O.O.d :  .o.o. .d._._.(.(.j $.&.E.F.R.C.H.9.D.t.{.Y.(.r.; K O.O.+.+.U d  .b  . . .N M r x  .s +.+.O.",
"+.+.+.+.O.+.+.+.+.+.+.O.O.q o.o...A B._._.).P.[ [ %.`.9. Xn.9.$.$.I.D.)./.G v a U U U U d m c 1 9 8 t h +.a b b g +.+.+.",
"+.+.+.+.+.+.O.+.O.+.+.+.O.q  .X...n P._._._.v.$.$.$.$.q. X*.=.$.$.c././.Z.b  .z a h h 6 C x d J K h h h +.h v t +.+.+.+.",
"+.+.+.+.+.+.+.+.+.+.+.+.O.a v  ...n P._._.).t.=.$.$.$.*.f.$.$.=.&._.).).i..... .x 3 5 n X.q K K h O.O.+.@.+.h K +.+.+.+.",
"K K K U K U +.+.+.+.+.O.K g z X...n P.).).).w.{ { ] $.=.` =.$.=.w.).).^.D z .. . .e  . .c d +.+.@.+.+.+.+.O.O.+.+.+.+.+.",
"@.+.+.K K K J K K K K h J J >  .o.n V.(._._.4.<.,.{ <.<.;.] $.$.x.).).v.h g 9  . . . .n 7 +.+.Y h O.O.K h h K K K +.K K ",
"K K K K K K J J J J h K K K 6  .o...m.(._._.1.<.,.>.,.<.<.{ $.$.M.).).! O.O.K r  . .v 0 J +.+.+.} h h K O.+.+.+.+.+.+.+.",
"K h K J K K J J K K K K +.U 7 X.o. .p._.`./.:.<.,.:.:.<.<.>.] $.j.).x.O.+.+.+.K t C , a H O.+.+.P +.+.+.+.+.+.+.K K K J ",
"O.K K K K K K K +.@.+.K O.+.t ..o.o.5._./.!.:.<.<.u.K.,.<.<.' } [.C.T O.+.+.+.+.+.h h O.O.O.+.+.+.+.+.+.+.+.+.K J J J J ",
"K O.K O.O.K K K +.O.J K U Y s ..o.o.R _._.!.| >.<.y.].>.2.1.j.w..Xs.O.+.+.+.+.+.+.+.+.+.O.+.+.+.+.+.O.+.O.+.O.O.+.O.K K ",
"O.O.O.K K J K K K K J J J K d b o...R _.(.~.1.2.;.J. X-.'.f.'.H.'.g.h +.+.+.+.+.+.+.+.+.+.+.+.O.O.O.U O.+.K K K K K O.K ",
"h K K K J J K K J t h K K h g z  ...E _.~.S.t.|.*..X Xj.A.I.^.^.~.Y.6.U U U +.K K K +.+.+.+.+.+.U K J J K J J J J J K K ",
"K h K h J J K Y +.q 9 J O.O.U ,  ...7._.~.F.F. Xl.}.G.~./.)._./.).).x.O.+.O.O.+.+.O.K U K O.K K J J J J K J J J J J J J ",
"K h h +.+.@.+.+.+.U m t O.O.O.9  . .i._.~.I./.T.b.W.(.(.~.M.a.W.).^.6.+.+.U K K h K h K K J J J K J K J K K K K K K K J ",
"h K +.+.} O.U K K K 6 C g U U :  . .x._.).I./._.(.(.(.N.I.R.I I T Y U U K J K h K h K h K J K J K H J J K K K O.O.O.O.+.",
"K O.O.+.P H K J K U : o.q U K , ..n V./._.I._.).(.^.N.^./.3.J J h h } K J K J K K h J K K K K K U U O.O.O.O.+.+.+.O.+.+.",
"h O.+.+.U U U +.+.U B ..9 U g v n A Y.)./.Y.Z.Q.Z.A.(.(.d.K U U h O.P H J J J J h K J K K +.+.+.+.+.+.+.O.O.+.+.+.+.+.+.",
"U U O.O.+.O.U K +.Y t ..v a a n o.Z Q._./.(.~.Y.^._._.x.Y +.+.K J J K O.O.O.O.O.+.O.K +.+.U H K O.O.O.+.+.+.O.+.+.+.+.+.",
"K K U U O.O.U U O.O.t ...., s o.o.Z W._._._._._.)._.x.N w J +.+.+.+.O.K K K K O.O.O.O.O.O.+.+.+.O.O.O.O.+.O.O.K K K K K ",
"O.O.O.U U J J K O.+.a v  . .$  .o.b S._./.)._._./.d.v A .., w s J Y O.O.+.O.K K h h } O.+.+.+.+.+.+.+.+.+.O.O.K K O.O.O.",
"J K J J J J J K K +.O.6 n c >  .....P V.!./.!.L.#.n  ....... . ., s J K K K J J h O.L U +.+.+.+.+.+.O.+.+.+.+.O.+.+.+.+.",
"h h K h K J J K K @.U K 4 = .. .o.....b V V S  .....A ....o...X.z q h h K J J K J K K O.@.+.+.+.+.+.+.+.+.+.+.+.+.+.+.+.",
"K K h U O.O.+.O.K J J J < n  ...o... . ...A v x z k z m b ....v % K K K K K J J J J J K +.+.+.+.+.+.O.+.+.O.+.+.+.+.+.+.",
"h h @.+.O.O.O.O.+.+.K < b  .........n z t H g g g J K H C ..9 d O.h K O.O.+.O.O.K J K K K K O.O.O.+.O.O.K +.+.+.+.+.+.O.",
"O.O.+.+.O.+.+.+.+.+.2 v  ... . .n 9 d K O.Y K K K J i N c w J O.+.O.O.O.O.+.O.O.O.O.O.+.+.+.+.+.+.O.O.K K O.O.K K +.K K ",
"h O.+.+.+.+.+.O.+.+.i x ..o...x t U +.+.+.+.O.K J 0 n c i O.@.+.O.h a a h O.+.+.+.+.+.+.+.+.+.O.+.+.+.O.K K K K O.+.+.K ",
"O.O.+.+.+.+.+.+.+.+.i m  .o.A 4 +.+.+.+.+.+.+.+.a v n  .v x x M N v b n v r h +.+.+.+.+.+.+.+.+.O.+.+.+.+.K K K +.+.+.+.",
"+.O.+.+.O.h O.+.+.+.+.- n o...7 d U +.+.+.+.+.+.K s i t t r C  ... .o. . .v 6 U +.+.+.+.+.+.+.+.+.O.+.O.+.+.+.+.+.+.K +.",
"+.+.+.h h O.h K U U +.K 0 x b  .c , t H +.+.U U K Y +.+.U O.d t v .. . .b c n 7 K +.+.O.+.O.+.O.+.+.+.+.+.+.+.+.+.U K O.",
"U +.+.U O.+.+.+.K K K +.+.K i % = b v d +.+.+.U K K K K U U O.+.d r v .. ...x c h +.+.+.+.O.O.O.O.+.+.+.+.+.+.+.O.O.K U ",
"+.U U K O.+.+.h t 9 8 8 : 6 z o.v 9 J O.+.+.+.+.O.O.U O.U +.O.U U K h q r C e i O.+.+.+.+.+.U K K K K K K O.+.+.+.+.K O.",
"K H L K h h h M ...... .o.o.A , s J J J J K K K K U U K U H L K h h K +.O.K K +.+.+.+.+.+.+.K K K +.+.+.+.O.+.O.+.+.K +.",
"K K } h O.h : c b b o. .X.A 1 K +.U K J J J J K J J K J K K } h h K h @.+.+.+.+.O.+.+.+.O.+.+.O.+.+.+.+.+.+.+.+.+.+.+.K ",
"J K J K U i x b z ....A c 0 K U +.+.+.+.+.K K K J J K h h O.h O.O.+.+.@.+.+.+.+.+.+.+.+.+.+.+.+.+.+.+.+.+.+.+.+.+.O.O.+.",
"+.@.+.O.+.w ..> ..A ..z s J J J K K +.+.+.+.@.+.J J h K h +.+.+.+.+.+.O.+.+.+.+.+.+.+.O.+.+.+.+.+.+.O.O.K K O.K K K K K ",
"+.K K K K 7 ..; A z 6 H K J K J J K K K K O.+.+.O.K K h @.+.O.K K P O.h H K K U U K K K O.+.+.+.O.O.O.K J J J K K J J J ",
"+.K K K K h t J f J +.+.+.+.K K K K K K K K K K O.h K K +.O.O.h K } h O.+.+.+.+.+.+.+.U K K K K K K J K J J J K J J J J "
};
