/* XPM */
static char *result[] = {
/* columns rows colors chars-per-pixel */
"40 40 177 2 ",
"   c #0E0E0E",
".  c #120D05",
"X  c #19150A",
"o  c #1D1D1C",
"O  c #2E2005",
"+  c #372D14",
"@  c #392E14",
"#  c #373314",
"$  c #3C3315",
"%  c #3D3B17",
"&  c #3D3519",
"*  c #3E391A",
"=  c #242220",
"-  c #383125",
";  c #422D08",
":  c #47350E",
">  c #49350E",
",  c #4C390F",
"<  c #543C0D",
"1  c #593E0C",
"2  c #433614",
"3  c #4A3610",
"4  c #443A16",
"5  c #4C3C14",
"6  c #423719",
"7  c #443C1A",
"8  c #4A3E1A",
"9  c #513D12",
"0  c #413F3D",
"q  c #5E410D",
"w  c #4E4217",
"e  c #46421C",
"r  c #4B431D",
"t  c #4C4A1D",
"y  c #544214",
"u  c #5B4513",
"i  c #554917",
"p  c #5B4915",
"a  c #52451D",
"s  c #58471A",
"d  c #544A1E",
"f  c #5A4C1D",
"g  c #53501F",
"h  c #5D501F",
"j  c #63450D",
"k  c #66480F",
"l  c #6C4A0E",
"z  c #724E0D",
"x  c #76510E",
"c  c #7C540E",
"v  c #624611",
"b  c #644A12",
"n  c #6A4C11",
"m  c #674C1C",
"M  c #6A5017",
"N  c #61521F",
"B  c #765210",
"V  c #7C5513",
"C  c #7D581A",
"Z  c #4C4520",
"A  c #4E4B21",
"S  c #514720",
"D  c #534C21",
"F  c #5A4D21",
"G  c #4E5121",
"H  c #555223",
"J  c #5C5223",
"K  c #5C5B24",
"L  c #5F5629",
"P  c #5D5D28",
"I  c #4A453E",
"U  c #604F21",
"Y  c #625423",
"T  c #645A25",
"R  c #6B5C26",
"E  c #625C29",
"W  c #6A5E29",
"Q  c #645836",
"!  c #5E6026",
"~  c #636226",
"^  c #6D6227",
"/  c #646129",
"(  c #6E622A",
")  c #6E6A2E",
"_  c #72642A",
"`  c #75692A",
"'  c #786C2D",
"]  c #6F6D30",
"[  c #766634",
"{  c #7B6F32",
"}  c #434343",
"|  c #524C44",
" . c #575553",
".. c #696145",
"X. c #777048",
"o. c #7D6F5C",
"O. c #6F6D67",
"+. c #9C1B39",
"@. c #A2193B",
"#. c #B8163B",
"$. c #C9153D",
"%. c #81570F",
"&. c #82580F",
"*. c #825810",
"=. c #80602B",
"-. c #917F37",
";. c #A11F40",
":. c #923649",
">. c #9E3A52",
",. c #A42243",
"<. c #EB1645",
"1. c #E31F4A",
"2. c #D8234B",
"3. c #DB2F55",
"4. c #CE3E5E",
"5. c #9A515C",
"6. c #8A6F43",
"7. c #8C7143",
"8. c #87714E",
"9. c #957D56",
"0. c #967E5A",
"q. c #A65166",
"w. c #A65D6A",
"e. c #AA5D71",
"r. c #897E6B",
"t. c #867D77",
"y. c #AB6073",
"u. c #8E836E",
"i. c #998669",
"p. c #988B79",
"a. c #9F937E",
"s. c #A48E6D",
"d. c #A5906F",
"f. c #A59273",
"g. c #A67B86",
"h. c #8A8886",
"j. c #948E83",
"k. c #999489",
"l. c gray61",
"z. c #A48380",
"x. c #B2838C",
"c. c #AA9E86",
"v. c #A99D8C",
"b. c #B29E81",
"n. c #AB9A9A",
"m. c #B19098",
"M. c #B4A58D",
"N. c #B8A78B",
"B. c #B3A89A",
"V. c #BDAD9D",
"C. c #BEAAA9",
"Z. c #BBB3A8",
"A. c #C0828F",
"S. c #C79E95",
"D. c #C1AE93",
"F. c #C5A89B",
"G. c #C4B39B",
"H. c #CFA5AF",
"J. c #C4B6A3",
"K. c #C6B8A5",
"L. c #CAB8A5",
"P. c #C4BAAD",
"I. c #CCBDAA",
"U. c #C6AAB1",
"Y. c #D2C2AF",
"T. c #D4C5B2",
"R. c #D7C8B4",
"E. c #DACBB6",
"W. c #DECEB9",
"Q. c #E0D0BB",
"!. c #C4C4C3",
"~. c #CCC7C3",
"^. c #D5C2C6",
"/. c #D6D2CC",
"(. c #E1DFDB",
"). c #ECEBEB",
"_. c #F9F9F9",
/* pixels */
"t r r r S Z r Z r u r r 9 r r r t t r Z r S Z 8 D D Z Z Z D Z Z A H D D H Z Z e ",
"t e # 7 r 7 e & # c 1 n c 3 $ # 4 d H 7 7 H 7 6 a D 7 A t 7 e t r 7 7 e r e A Z ",
"D r a R R 8 4 u 5 z l 1 l f F 8 4 J T a 7 L A * D Y F S 6 s T ( Y 8 S Y J S D 8 ",
"D d T Y R J p x l z l a i _ _ J $ g / D A ) r r D E E T a J E ] ( f R ( ^ F E 7 ",
"H F d t F F f z l l z f l f T J 4 H K A H { D J H J Z H a F H D L S Y J T Y J 8 ",
"r H s d F F y z c &.c 9 v u J w 7 r K t D ] D A Z J K Y 6 8 H D F 8 f J E F E S ",
"H J a F d 2 $ 9 &.&.c c 9 J D 2 $ w 2 2 7 D S 6 6 7 d w + + 8 7 7 @ 7 9 8 7 F Z ",
"t J a J 7 7 8 a l z j y D Y t 1 : , j < < > a $ a J T J 6 2 d d S 8 U ' R f E D ",
"t D w y v n k u y a 4 ^ a w t k x z z 1 < O X $ f R K R F a J d d d J h J h F D ",
"r 8 1 %.&.x y J g d a ^ H i.m , c z c x j 0 O.2 r ( D E H a r r d a N 5 k d S 7 ",
"S r 1 V z 1 $ r d r $ @ p.E.u.c ; . - 2 ; !.Z.i.6 a r a 6 $ 5 9 8 $ 3 j c 4 D 7 ",
"Z a 4 j c &.l q y j j l V s.o.7.M  ._.!. .u.h.v.v.Q T J 2 q &.k a < l j n d D r ",
"r D f r 5 z &.&.&.&.&.%.&.8.K.E.W.V./.h.} l.= J.J.r.( [ r j l u n &.p s u n 8 8 ",
"r H f r r a u x &.&.*.%.V M.Q.E.z.I.I.|   o I I.B.u.D Y a d v &.&.c &.j 1 x S r ",
"7 e r d a 8 8 3 z &.&.&.7.E.Q.Y.:.K.I.I.j.t.B.P.V.r.8 S 7 8 y B %.z V y s 8 Z 8 ",
"r r 8 d a Y f a 5 z &.&.d.Q.Q.y.+.g.J.I.C.g.m./.R.Q U U F 8 s x &.&.z n k n D Z ",
"Z 7 4 F T h f d f j &.V D.Q.Q.w.;.q.x.^.>.,.x.T.J.C 3 8 a r j p u f w a n 1 D 7 ",
"e e Y -.` h ' ' ~ u &.*.D.Q.Q.>.,.,.e.e.,.,.J.Q.s.V V 9 y z n ' _ R { R d D t 7 ",
"7 e T ~ ^ Y T K ~ p &.*.D.E.E.@.#.@.,.@.;.:.W.T.Q n %.z c B Y T E ^ E K ~ / D 7 ",
"7 D h d h N K H H i *.*.f.W.L.<.<.<.<.$.;.5.W.M.F a v %.c y d d R h K ~ K H J r ",
"r F 8 a 8 w 7 e t 4 V &.s.Q.F.<.<.4.<.<.+.w.I.X.8 r 8 3 , F _ R F 8 a r r 7 D r ",
"D A 8 f N f y S f y x %.9.W.S.<.1.H.3.2.q.U.k.Z 6 f U F r f Y f f a U T F a F r ",
"D d 8 d f f N F F Y l &.9.E.V.4.4.).A.n.Z.!.j.D 6 a s R F a R Y U f a R f f H 7 ",
"H r 8 a a a > s f a j &.i.E.K.~.C.(.P.E.W.W.E...@ a F 8 7 7 y s F a w f f r t 7 ",
"r D 7 R ( F a v D E j &.f.W.I.T.P.R.R.K.u.c.a.Q 6 S Y T 8 a F R ( 8 a J ) H h r ",
"d r G g H T r z 4 H j c N.Q.K.W.W.Y.I.M.L T $ r 8 Y F T a T J F R Y T T K g D r ",
"A e r t t J t x < t l V G.Q.I.I.J.Y.L.Q J K r E 2 d r F f J d D J F t t t g g r ",
"r 7 e d D r r l z r x V G.Q.Q.W.W.I.[ 8 r T r H $ r 7 D r a F a F 8 w r e e g 7 ",
"r 7 $ e 8 $ $ , c 1 &.c b.W.Q.E.G.=.&.x 1 s 6 F @ 8 7 7 @ $ 7 6 $ # & 6 7 $ J Z ",
"r t e g K J H K u j &.c V 6.0.-.V c &.&.&.c $ D 6 T J Y 4 7 t K d r H H E D H Z ",
"t e H H P T T H 1 &.&.&.%.x n p i p p c x < 4 W 6 d r K a g t t H T ! K K A H 8 ",
"r Z G ! P ~ t , c &.&.n y r t H e g b k r H 7 J & e t K d t t e H L H G A A F r ",
"e 7 e H G D r < c &.1 r e A t G 7 n l i w h 5 u 3 e A A 8 r A r r r A A D A F e ",
"A r 6 Z w r 6 : c c > $ e r e 7 $ 9 y q l c &.c V q 6 7 $ 6 8 Z 7 6 7 Z D 7 L Z ",
"r e % t H f f J w j j j q f Y h 2 f s a 8 u x &.c z p H 8 a Y R N f Y Y H S D Z ",
"e r % e d 8 9 y y u j k y r a F 8 a r r 8 F 4 i q n 3 t 8 a s a a a r r Z r D 7 ",
"Z e 6 r y x &.&.%.x 9 D r J F L a D F Z 7 a 7 A $ r Z 8 8 F J D J d D 7 e 6 L * ",
"7 & 6 7 j k c *.n 2 7 7 7 S Z 8 7 e 8 e 7 Z e A & 7 Z Z Z Z Z 7 Z r S A e 6 Z * ",
"G t 7 8 x z c q 7 e r e r r r r A r 7 r 7 7 & G + e 7 e e Z A r 7 7 r 7 e e H Z ",
"7 - e r p 5 7 r r Z Z 7 Z Z Z r Z Z A e A & & 7 6 D 7 7 7 Z S Z Z r r A D 7 Z 7 "
};
