/* XPM */
static char *result[] = {
/* columns rows colors chars-per-pixel */
"60 60 185 2 ",
"   c #341A13",
".  c #3C1F17",
"X  c #3D231B",
"o  c #44241B",
"O  c #4D2A1E",
"+  c #43251A",
"@  c #472B21",
"#  c #4D2C21",
"$  c #512E23",
"%  c #4E3126",
"&  c #533126",
"*  c #5B3427",
"=  c #5A3629",
"-  c #5D392C",
";  c #533329",
":  c #5F3D30",
">  c #623B2C",
",  c #653827",
"<  c #7A3E26",
"1  c #743E2A",
"2  c #7B3F28",
"3  c #643D30",
"4  c #693F30",
"5  c #59413A",
"6  c #77412D",
"7  c #7B432E",
"8  c #664234",
"9  c #6C4334",
"0  c #6E4638",
"q  c #6E493A",
"w  c #714536",
"e  c #7E4631",
"r  c #7D4A35",
"t  c #714738",
"y  c #744A3B",
"u  c #794D3D",
"i  c #744937",
"p  c #7D513E",
"a  c #714E40",
"s  c #7A4F40",
"d  c #6C5147",
"f  c #7D5242",
"g  c #78584E",
"h  c #775C51",
"j  c #7F6257",
"k  c #796158",
"l  c #80452E",
"z  c #804731",
"x  c #814832",
"c  c #834E39",
"v  c #85513D",
"b  c #8A533D",
"n  c #825544",
"m  c #8A5743",
"M  c #845846",
"N  c #8D5A44",
"B  c #865A49",
"V  c #8A5D4B",
"C  c #905A45",
"Z  c #935F4A",
"A  c #8E614E",
"S  c #916047",
"D  c #92634E",
"F  c #98644F",
"G  c #8D6351",
"H  c #8D6A5C",
"J  c #846559",
"K  c #936552",
"L  c #966955",
"P  c #9A6A56",
"I  c #946B5B",
"U  c #9C6D5A",
"Y  c #986652",
"T  c #9F715C",
"R  c #9A7157",
"E  c #A06F59",
"W  c #A2735D",
"Q  c #856D64",
"!  c #8D6F63",
"~  c #936E60",
"^  c #8C746A",
"/  c #84756F",
"(  c #937366",
")  c #9A7464",
"_  c #957569",
"`  c #9C7B6B",
"'  c #93786E",
"]  c #897770",
"[  c #8B7A74",
"{  c #857975",
"}  c #947C73",
"|  c #9C7D71",
" . c #A57661",
".. c #A87760",
"X. c #A77863",
"o. c #AA7A65",
"O. c #AE7E69",
"+. c #B17F6A",
"@. c #94827C",
"#. c #9A8279",
"$. c #AF816B",
"%. c #B2836D",
"&. c #B18264",
"*. c #AF8570",
"=. c #A3867A",
"-. c #A3897E",
";. c #A38477",
":. c #B68670",
">. c #B88772",
",. c #B68973",
"<. c #BB8C75",
"1. c #BD8F78",
"2. c #BE917A",
"3. c #BD9370",
"4. c #C1947D",
"5. c #C9997F",
"6. c #C4987F",
"7. c #908782",
"8. c #978A85",
"9. c #9B8C85",
"0. c #958D8A",
"q. c #9B918D",
"w. c #979696",
"e. c #9C9A99",
"r. c #A48C81",
"t. c #A79087",
"y. c #AB9387",
"u. c #A4948E",
"i. c #AB948B",
"p. c #A39691",
"a. c #A59995",
"s. c #AC9B94",
"d. c #A69E9B",
"f. c #AB9E99",
"g. c #AAA09B",
"h. c #B2A29C",
"j. c #A6ACAE",
"k. c #AAABAB",
"l. c #A6A5A5",
"z. c #B1A6A2",
"x. c #B4AAA6",
"c. c #B4ADAB",
"v. c #B9AFAA",
"b. c #B9B1AE",
"n. c #B5B4B3",
"m. c #B9B6B5",
"M. c #BCB9B7",
"N. c #B4B7B8",
"B. c #BDBCBC",
"V. c #B6BBBD",
"C. c #C39780",
"Z. c #C59A83",
"A. c #CA9D85",
"S. c #C79E88",
"D. c #C89F89",
"F. c #CEA186",
"G. c #C7A08B",
"H. c #CCA28B",
"J. c #D0A58B",
"K. c #D3AA8F",
"L. c #CCA691",
"P. c #D3AA92",
"I. c #DAAD94",
"U. c #D3A791",
"Y. c #DDB59C",
"T. c #DFB89F",
"R. c #E1B69E",
"E. c #E3B89F",
"W. c #C0BFBF",
"Q. c #E2BBA2",
"!. c #C1C0BF",
"~. c #E5C3AB",
"^. c #E9C8AF",
"/. c #E5C0A6",
"(. c #F1CAAF",
"). c #EFCCB2",
"_. c #F1CBB0",
"`. c #BFBFC0",
"'. c #BEC1C2",
"]. c #C2C3C3",
"[. c #C5C7C8",
"{. c #C6C9CA",
"}. c #C9CCCD",
"|. c #CACED0",
" X c #CFD3D5",
/* pixels */
"x x x x 7 7 x x x x x x x z x z x x x x z x x x e e e 7 e x x x x x x x z 7 7 e x x 7 e x x x x x x x z x x x z x 6 7 e ",
"z x x 7 6 6 7 e z x z x x x x x x z x z x x x z x x 7 6 6 6 7 e 7 e z z x z z e 7 7 6 6 6 x x x z x x z x z z x 7 6 7 e ",
"z x x e e x x e 6 6 7 z z x z z x x x x x x x z x x x e 6 6 6 6 6 6 6 6 7 6 7 6 6 7 6 6 6 7 c e x x x x x z x x l x x z ",
"e x x 7 e x x x x x x z x x x x x e 6 7 e 6 e 6 7 x x x x x 6 6 6 6 6 6 6 6 6 6 6 6 7 7 x x x x x z z x x x x z x x x x ",
"e 7 6 6 6 x x x x l x x x z x z x 6 6 e x e 6 6 1 1 e r c b C b c e 6 6 7 6 6 7 e x c x x x x x x x x x z x x x x x x x ",
"6 6 6 6 6 6 x x x x x x x x x x x x x x x x e e c m K P U U Y W %.W b 6 1 6 l c x e 7 7 e l 6 6 7 e e e 7 l e x x x x x ",
"6 6 6 e e x c x x x x x z x z x x x x x l c D K P ) W T W U P O.2.G.2.W b 1 2 z x 6 6 6 7 6 x x x e x e x e 7 7 e e 7 e ",
"e x x x x x x x x x z z x x x x x z l e x D L U W W W  . . .U O.2.S.C.2.F.:.E c 7 6 7 x x x x x x x e e 7 6 7 7 6 6 6 6 ",
"x x e e l 7 7 6 7 e e e e e e x x c x c Z K U  . ...X.X.X. . .,.4.4.6.C.Z.A.H.Z.o.N 6 1 e z z z e 7 6 6 6 6 6 6 6 6 7 e ",
"x 7 1 6 6 6 7 x e e x x e x e e 2 2 c V G K W  .X.o.o.o.o.o.o.C.y.1.6.A.Z.C.4.C.Z.C.&.E r 1 e e e e 7 7 7 7 7 7 e e x e ",
"c x e e z x x x c x x e 7 6 6 6 1 x V V A L ..X.o.O.O.O.O.o.:.L.Z.,.4.Z.4.Z.4.4.4.1.<.A.:.m z x x x x x x x x x x x x x ",
"b z x z x x x x 7 6 6 6 6 6 6 6 e B V A K U X.X.o.+.%.%.O.o.1.G.S.2.C.C.Z.C.C.4.4.4.%.<.%.X.N e x x x x x x x x x e x x ",
"z x x x x e 6 6 x 7 7 6 6 7 7 7 n B V V K ) ..o.O.*.:.O.:.O.C.L.Z.C.S.Z.C.Z.6.4.4.1.%.<.%.U X.Z 7 7 x x x x x x x x x x ",
"7 6 7 e x x x x x x x x 7 7 6 c s n V A G  .X.o.O.+.+.:.$.*.D.D.S.S.Z.Z.Z.C.6.4.4.1.:.<.:.P E  .P v 7 x x x x x x 7 e e ",
"6 6 6 6 6 7 6 7 x x x 7 z b F K B n B V A K U X.o.O.+.*.o.,.L.D.D.S.D.Z.Z.C.4.4.4.<.>.4.%.L P P T U C x x x x x e 6 6 7 ",
"x 7 7 6 6 6 e 7 x z x C W %.&.o.E Z.:.) P L Y U )  .o.X.o.S.G.S.D.A.Z.Z.Z.C.4.4.<.%.<.<.O.K I L L P T K x 7 7 7 6 7 6 7 ",
"x x x x x x z x z m o.,.+.+.o. .4.J.C.Z.4.:.1.1.4.<.<.4.A.F.5.A.F.G.6.Z.2.1.1.4.4.3.4.2.:.o.o.X.W T U L x z e x x e 7 6 ",
"x x z x x z x 7 b o.:.+.+.O.X. .4.1.<.Z.4.:.4.4.1.4.<.>.F.A.F.F.J.J.J.F.6.5.5.K.5.1.1.<.%.o.o.X.X.T U U v z x x x x x x ",
"z x x z x x l b ..+.O.O.O.o. .X.<.4.4.C.4.>.4.1.4.4.%.>.5.F.F.J.J.J.K.Z.%.4.4.,.&.%.<.<.$.X.O.X. .T T I A e x x x x e x ",
"x x z z z z b  .+.o.o.O.X. .W >.4.4.C.C.4.1.4.4.1.4.:.<.F.F.F.F.F.H.H.<.:.:.&.&.%.>.<.<.o.W o.X.X.T R I J 7 x z x x x x ",
"z z z x e b )  .X.X.E X. .W 4.C.4.C.C.C.C.6.4.4.4.<.4.J.A.6.6.4.4.<.<.>.<.O. .%.<.%.>.<.o.P  . .W  .D ] Q 7 x x e x x x ",
"e e x z m P  .E X. .P W  .C.S.Z.C.1.C.C.C.4.4.4.1.4.U.D.A.A.6.4.2.>.<.<.<.O.o.%.<.<.<.>.O.L U  .T T V [ ] 6 e e e x x x ",
"x x z c K U U P ) U E ,.Z.D.Z.Z.4.C.C.C.4.4.4.4.4.J.H.C.C.Z.6.4.4.<.%.<.%.o.%.<.<.<.<.<.o.L D W W U A h j v 7 e e e l x ",
"z z x u B P U  .$.<.<.D.S.S.A.Z.Z.Z.C.C.C.4.4.C.U.D.D.C.Z.C.C.4.4.<.%.%.<.%.<.<.>.:.%.<. .U V K W V a = i S x x x x x x ",
"x x r t f U 1.y.L.S.>.C.G.S.S.Z.C.5.5.4.4.4.4.5.U.S.S.S.Z.C.2.4.1.:.:.:.:.:.:.>.:.:.:.:. .L V n n s 3 $ t V M c e x x x ",
"x x 9 t n L 6.U.D.S.>.C.S.S.A.S.C.5.5.4.4.4.4.&.H.G.A.S.Z.%.:.4.1.O.O.%.:.%.%.:.%.%.:.:. .K V s y s > > i B M B v e x x ",
"x w 4 u n K o.D.L.D.S.A.S.S.S.Z.A.C.4.4.+.4.4.+.H.G.H.S.S.2.4.C.>.O.O.%.%.%.%.:.%.+.%.+.U K V s t u * w p B M M A A c x ",
"x 8 w n V U W o.C.D.C.A.D.S.C.4.>.4.&.4.4.&.+.4.D.H.D.S.Z.Z.6.4.,.o.O.+.+.O.&.+.%.$.+.+.L A V i t 3 = y p M n V L T A x ",
"n 0 t n K U U W o.4.A.A.5.>.4.&.4.4.>.4.+.4.4.+.A.F.Z.A.Z.Z.4.4.%.X.X.o.O.o.O.O.O.O.o.o.K V V y w - = p M A D R Y F ( r ",
"H 9 t s V U U o.....+.4.&.4.>.4.>.>.4.>.4.4.+.4.4.y.Z.D.Z.Z.4.2.o.U X.X.X.o.o.o.X.X.o.X.V B B u 9 O 8 v A T K L D Y R r ",
"8.h 4 u p L T W ..W ..4.4.4.4.+.4.+.+.4.4.&.>.4.4.4.D.Z.Z.C.6.4. .U  .X.X.X. . .,.S.O.V V B f p 8 X % 9 X.,.T K D D Y p ",
"[ e.y w u V U U E W +.+.>.>.4.+.4.4.+.4.>.4.>.>.4.>.C.D.Z.C.6.4. .E E  .X. .X.Z.T.Q.I.:.n f n f - & + - K $.&.P A A K v ",
"n e.@.y t f K U P  .O.+.%.<.1.<.<.4.>.<.4.>.4.>.>.4...4.S.Z.4.1.P L K L Y +.U.R.R.Y.T.Q.Z.f t : = q y 8 u V U W A D Y V ",
"x u 8 g w t n P K U +.o.+.&.>.<.<.>.<.<.<.<.>.4.4.>.O.E X.<.Z.2.D V V L >.I.Q.Y.Y.R.Y.Y.).|   % u K L I i i f n D S ` 8.",
"r S u a J w y n M K  .) ) U P X.4.>.<.<.4.4.>.>.4.4.W W U L X.:.V n V P.R.Y.Y.Y.R.Y.Q.Y.U.+.: M U  .X.O.X.= w f m H e.0.",
"v r , > } i 0 0 f B V A V A B M U <.<.<.>.>.4.>.>.>.W W I K A G n y $.).Y.I.Y.Y.Y.Q.U.,.>.I y L O.X.o.O.<.n o > u w.j.! ",
"8.h d { #.u 0 0 n M M M M n M B f G O.1.<.<.<.<.4.E Y U L V V n y u Y.Q.P.Y.Y.Q.R.1.+.+.C.I B o.$.o.o.%.:.O.# O 8.j.q.e ",
"^ j.u.l.i.U a 8 n s s s n n M s f V V U <.<.<.4.O.Z L L V M n s * I _.Q.Y.~.Q.Y.o.W +.>.1.G E +.,.%.&.:.:.&.G 7.j.g.B l ",
"6 c x 9.i.O.L u s y s y s s s s n V V V K o.2.%.Z V V n s 4 8   X I.).~.^.Q.P. .L  .o.+.+.A  .o.<.1.:.<.:.o. .g.j.I 7 x ",
"6 6 c d.X.W T P f : s y y s s y t V K K L P K f u i 8 # o 8 P D n O.H.Q.G.1.<.,.+.+.+.>. .A  . .4.4.<.1.,.o.P -.q.7 x z ",
"e 1 c k.p.) Y P G V 0 y s s s 9 > y B V D f 3 % & O O O , b W &.E t F o.+.+.>.+.+.<.+.T ~ ..+.+.4.4.<.<.>.W P L c z z z ",
"e e e a.N.k.r.L y m K 0 3 a s 9 8 i p u 3 & # = 8 q 9 8 + 9 9 p 1.I o K +.+.+.+.+. .s V  .+.+.+.:.<.<.<.<.W Y V c 7 e e ",
"z x l m k.N.n.d.} ^ n g % X : : $ > w p n 9 8 6 w w i = + 8 p 9 p t o @ n  . .~ s = s E X.O.+.+.%.<.<.<.<.o.T K A r z e ",
"e 1 1 1 n u.N.N.`.m.:   @ . @ % $ = P W P W P B p S S * 8 * - w - & 4 s # $ = o @ a n ~  . .O.O.%.<.<.<.%.W U U =.m l x ",
"1 e 1 w 1 1 ( c.c.B.e.  @ * = 3 8 w W W R W W &.&.W &.A 9 & O O = 8 = 6 3 & 3 a 3 t C ~ U  . . .%.1.<.%.o.W L -.n.v z z ",
"e 1 1 6 r x 7 c r d.]./ o * > 4 i M U W W W W W R R W A p p 9 w p 8 & # & - , 4 3 4 A L L U T  .<.<.%.o.X.W ) B.f.7 z x ",
"6 1 x c x z z z 2 _ `.V.Q 4 8 4 r M S R W W W W W W W p M A n p w w 9 > - 3 Q g 3 s B L T T  .O.$.o.o.X. .P t.'.I 7 x z ",
"6 z x x z z x z z c z.`.B.m.m.p.' B B b S F P E &.W W w i u f A A A H ' } a.[.} > s n L T  .X.U T  . .W T Y h.z.l x e 6 ",
"6 7 x x x x z x x l V m.B.B.B.].].m.z.t.r.I B B n D D 0 B @.a.m.n.M.V.!.'.'.V.].u.s u V U W L V L P U K K ;.[.| 2 c z z ",
"z z z x z x x x x x 2 L ].].`.`.`.`.'.].[.B.M.n.d.i.s.v.B.].].'.'.!.!.!.!.B.B.B.].v.~ u K  .V n V V m ) z.`.'.I 2 x x x ",
"x x z x z 6 z x x z x 7 ~ h.M.B.`.[.{.].'.].'.'.[.[.[.].!.!.].[.'.!.!.].!.!.].!.W.].].` y P V y y n t.`.'.[.M.c z x e x ",
"x x z 6 6 6 e 7 e l x x 7 l c m K | r.f.M.].{.}.[.[.[.{.}.].M.h.v.{.'.!.].!.].].[.].].[.u.B t > H x.{.].[.M.I l x x 1 x ",
"e e e e e x x x 7 e 7 z x z z z 7 7 7 x v K =.i.s.z.b.s.r.~ v x x | ].}.{.}.{.M.v.W.{.].}.v.V | [.[.[.|.h.N l z x e 1 x ",
"x e e e z z z x x x x x x z z z 6 7 l e z 7 < 7 e x x 7 2 2 z e 7 < K s.h.i.U c x m s.|.[.{.].}.|.}.v._ e 2 x z z r e x ",
"e 1 1 e 1 z x x z x z x x x x z 7 6 6 6 7 7 z l e e e r e e 6 6 6 7 < l x 7 7 z x l l | ]. X X}.v.) x 2 x z x x x x e x ",
"6 6 e 6 1 7 c x x x x z z e x x x l e 6 6 1 6 6 6 6 1 1 e 1 6 6 6 6 6 c x x x x x x x l Z =.-.I x 2 x x x x x x x x e x ",
"6 6 6 e r x x x x z x e 6 6 e x x x x x z 7 7 7 6 6 6 7 6 1 e e e e x c x x e x x x x x 7 7 < l x x x x x x x z z e r x ",
"x c x x x z x z z x z e 6 6 1 6 7 l x x x c c x 6 6 6 6 6 z x x x x x x x x x x x z x x x x x x x x x x e x e e 2 e e 1 ",
"x e e e e 6 e 1 6 e z e 6 7 6 6 6 6 7 6 7 z x x e 2 6 6 x b e 6 7 e 7 6 6 6 7 x e e e e z x x e x x z 2 w 1 1 e e 1 1 1 ",
"r e 6 1 1 e e z x x x z r e e e 7 7 7 7 6 6 e x e 6 6 7 x x e 6 6 6 7 7 x x x x x z e 7 e 6 6 e x 1 e 1 1 e 1 1 1 w 1 e "
};
