/* XPM */
static char *e19e9da07c2f4318f781f5772fae8fd8WNRu8mXiV4e2QUQA[] = {
/* columns rows colors chars-per-pixel */
"40 40 233 2 ",
"   c #06060D",
".  c #08080E",
"X  c #0B0C0D",
"o  c #100F0F",
"O  c #0F120C",
"+  c #12140E",
"@  c #171D0B",
"#  c #131A0D",
"$  c #070711",
"%  c #0C0C14",
"&  c #0E0E19",
"*  c #120D15",
"=  c #180C14",
"-  c #140C19",
";  c #1C0D1B",
":  c #0E1214",
">  c #0E121A",
",  c #0E1A1A",
"<  c #131414",
"1  c #1A1415",
"2  c #141914",
"3  c #1A1B14",
"4  c #13141A",
"5  c #1C131A",
"6  c #141C1C",
"7  c #1B1C1A",
"8  c #211B0F",
"9  c #210F16",
"0  c #210F1E",
"q  c #221516",
"w  c #2C1715",
"e  c #231D15",
"r  c #2A1A16",
"t  c #23151C",
"y  c #29141C",
"u  c #241B1B",
"i  c #2B1A1B",
"p  c #341E14",
"a  c #321D1C",
"s  c #391C1B",
"d  c #17270B",
"f  c #1D3109",
"g  c #172413",
"h  c #1C2314",
"j  c #1C2A15",
"k  c #15211D",
"l  c #1A221D",
"z  c #1D2C1A",
"x  c #1E3018",
"c  c #25270F",
"v  c #252A0E",
"b  c #37290E",
"n  c #27370D",
"m  c #34390E",
"M  c #222313",
"N  c #2C2313",
"B  c #242B14",
"V  c #2A2D14",
"C  c #22221D",
"Z  c #2A231B",
"A  c #232B1B",
"S  c #2B2D1A",
"D  c #312515",
"F  c #342B13",
"G  c #3B2B15",
"H  c #3B271B",
"J  c #332A1B",
"K  c #233316",
"L  c #2C3314",
"P  c #23341B",
"I  c #2C331A",
"U  c #263918",
"Y  c #2D3B1A",
"T  c #333515",
"R  c #333A14",
"E  c #3B3B14",
"W  c #33341B",
"Q  c #3D3718",
"!  c #323A1B",
"~  c #171A21",
"^  c #240F20",
"/  c #251122",
"(  c #2B1323",
")  c #271A21",
"_  c #2D1B22",
"`  c #341B25",
"'  c #391B23",
"]  c #34162A",
"[  c #381629",
"{  c #351B2A",
"}  c #3A1B2B",
"|  c #3D1B30",
" . c #152422",
".. c #1B2422",
"X. c #172A26",
"o. c #1C2A23",
"O. c #1D3424",
"+. c #1D332C",
"@. c #292822",
"#. c #352726",
"$. c #3E2324",
"%. c #3C222B",
"&. c #233725",
"*. c #22362B",
"=. c #243D2D",
"-. c #411E1C",
";. c #47290E",
":. c #463D0C",
">. c #452817",
",. c #442C15",
"<. c #4C241B",
"1. c #572C14",
"2. c #433414",
"3. c #463716",
"4. c #4B3E13",
"5. c #5A3415",
"6. c #543B16",
"7. c #693916",
"8. c #7A3518",
"9. c #471D2F",
"0. c #431C34",
"q. c #442423",
"w. c #492727",
"e. c #44232D",
"r. c #55272A",
"t. c #473724",
"y. c #50322D",
"u. c #442432",
"i. c #4C2433",
"p. c #4C2A35",
"a. c #522535",
"s. c #562A38",
"d. c #553236",
"f. c #6E362B",
"g. c #67343D",
"h. c #773332",
"j. c #2A430D",
"k. c #2D4B0D",
"l. c #2E5209",
"z. c #35580D",
"x. c #2D4517",
"c. c #2D4B1B",
"v. c #364417",
"b. c #324D12",
"n. c #3A431B",
"m. c #314B1E",
"M. c #3C4D1A",
"N. c #345313",
"B. c #3B5C13",
"V. c #385719",
"C. c #3B670D",
"Z. c #3D6413",
"A. c #3F6515",
"S. c #264127",
"D. c #364622",
"F. c #334920",
"G. c #3A5523",
"H. c #274332",
"J. c #444B14",
"K. c #47471A",
"L. c #524715",
"P. c #4E5312",
"I. c #46571B",
"U. c #6D4515",
"Y. c #764115",
"T. c #745613",
"R. c #456C15",
"E. c #496D17",
"W. c #47681A",
"Q. c #4D7B16",
"!. c #497518",
"~. c #57771E",
"^. c #527C1C",
"/. c #7D651C",
"(. c #554923",
"). c #5B5D25",
"_. c #4B6523",
"`. c #4C6324",
"'. c #556724",
"]. c #526D23",
"[. c #547223",
"{. c #5C7223",
"}. c #597927",
"|. c #686B2B",
" X c #776124",
".X c #637727",
"XX c #72762C",
"oX c #777A2D",
"OX c #6D7331",
"+X c #592B42",
"@X c #632D43",
"#X c #6D3C43",
"$X c #733745",
"%X c #7C3452",
"&X c #863C1D",
"*X c #833834",
"=X c #884719",
"-X c #914D1A",
";X c #965616",
":X c #AE571B",
">X c #886A1B",
",X c #954728",
"<X c #AE5726",
"1X c #BA6B24",
"2X c #BF7025",
"3X c #C66716",
"4X c #CA6B24",
"5X c #D67A27",
"6X c #803151",
"7X c #4E8316",
"8X c #538718",
"9X c #5B9719",
"0X c #619C1A",
"qX c #5D8821",
"wX c #69862B",
"eX c #72822D",
"rX c #699A26",
"tX c #658431",
"yX c #778632",
"uX c #6DA329",
"iX c #74AB2C",
"pX c #7CAC35",
"aX c #848236",
"sX c #E49436",
"dX c #EFA733",
"fX c #EEAD48",
"gX c #F2BB57",
"hX c #F4C35C",
"jX c #F1C365",
"kX c #F9D86E",
"lX c #FADD84",
"zX c #FAE486",
"xX c #F8E191",
/* pixels */
"+., 6 > > &.F.F.m.M.M.M.F.F.G.l > > X.X. . .6 6 > 6 m.m.m.D.I.K.D.F.F.l > X.X. .",
" . . .6 6 k.A.A.Q.Q.7X9X9X8XB.: k ,  .6 k  . . . .z Z.Q.E.V.!.7X9X0XR.6 6 6 k k ",
"O.*.*.=.*.# 2 + < + v f j.# # o.H.=.*.o.=.o.=.H.X.X.d f + < 2 # f l.# *.*.*.*.=.",
", 6 6 6 6 < o + < + e u 1 5 1 2 6 k 6 6  .6 6 k 2 6 * 5 1 * 1 q i 5 1 2 6 6 6 k ",
"% : % % ) ) % < o 1 q ' * ) t * % % % % % % < < % % t _ * 5 y <.s = ( 5 $ % % : ",
"j # 3 % @.@.% $ $ % $ $ 4 @.7 2 j 2 < % 4 C Z Z 5 % { { % * * % . * u.) : h h U ",
"M M 3 < ) _ * 4 ~ > % % 4 W W e G N 3 * 4 Z u u 5 % ` ` - % & & $ * e._ 4 M L M ",
"7.G N 5 i.u.4 4 6 6 4 % M W J G =X<.Z < u q.$._ ) % i.i.5 & ~ 4 % 4 s.%.u J G Y.",
"2X5.,.e t.t.4 % > 6 > & A T T <.4X&XH = u y.w.$.5 % y.d.5 & 4 6 4 4 t.2.7 3.7.2X",
"hX-X,.3 K.H * % > 6 4 : M T 2.-XhX<X<.5 t q.<.f.a % t.y.5 4 6 ~ > 4 K.Q e 7.-XjX",
"kX1X>.M 3.H < < l l ..6 h n.U.sXzXsX<.5 u q.,X<Xa 4 J w.5 4 ....4 6 R Q D =XfXzX",
" XT.F 3 K.K.< 4 l Z.h 6 3 K.L./. X>X:.+ c :.4.4.E 3 Q (.u 4 6 ..4 < I T L L./. X",
"P.m v 2 K.Q : < 6 6 l 2 : L m P.E P.c 3 M R P.P.c + Q 3.1 4 G.l 7 < B v.L m J.:.",
"I.B M 2 T T : 6 *.*.o.l < B R R E T M 2 3 V J.J.3 + S K.3 4 ....6 < j B V L m v.",
"v.L V 3 W V < k o.@.l 6 2 V K.V T c S < M T n.R B 2 S T 1 < 7 6 6 < I M.! L R R ",
"J.I.n.2 h L < 2 6 6 6 < < B V R '.K.J.< B I.R M B 7 h B 3 < l 6 6 < g B Y I v.I.",
"I.n.V 2 B B < k o.o.o.l 2 I I B L L B h _.I.B c B 7 3 L h k o.o...6 j j B h B `.",
"!.C.V.A L ! < 6 k l l l h A A I Y G.uXrX8XC.E.n.! l 7 ! 3 : 6 ..6 2 I A _.iXuX8X",
"E.N.8XuX}.I l C A @.t.@.J S S ].pXqXl.z.R.E.A.uXtXS 3 S Z ,.J #.@.A Y wX8Xk.z.R.",
"P l P j V.}.`.`.].W.`.`.].`.[.W.@ X < g B P z A N.[._.}.[.].~.[.].].wXn 2 X + j ",
"c.c.c.c.j.L B.N.b.N.A.7X9XQ.v K x.V.P G.U F.S.P l U N.b.W.B.R.7X7XR.3 m.U c.m.m.",
"P &.P h g 1 X O 3 X X @ n 3 2 C j P x Y g j P P A 3 X X + 3 + f f 3 7 A K j P K ",
"P j z 7 #.{ 5 3 e 1 i a } t _ %.u z j P P g g z K v.S e e 3 i a } t ` #.z j P z ",
"V M 2 % { ` % % t i >.-./   | } ; * V F F F T 3 5 #.) $ y t s q.* = } ( % M M V ",
"F c M 5 p.i.% - q.( ( ; % $ +X+X5 4 J 5.;.b F 7 5 p.u.* 9.( y ; - ; @Xe.1 F F F ",
"7.F N 5 u.%.% - ( } ] 0 - $ u.s.( 1 ,.5.7.5.,.e t %.{ - ; ( / ( / ( a.` 1 ,.1.Y.",
"3X1.G 5 d.e.* - ( ] ] / % % p.d.u 5 >.7.=X4X7.a t d.%.* ] } 0.0.( t d.e.q G 5.:X",
"5X1.p i #Xd.* - ( 0 / / - * %.i.t q ;.7.1XdX8.H t $Xs.- / [ / / / t q.' u H 7.sX",
"jX&Xs ( g.d.% / ] } 0.] ; * g.i.( q <.8.gXlX4X-.y g.i.; } [ } ] / ( $X9.i <.:XlX",
"kX4Xw ( a.e.* ^ ] } ] / ; 5 a.i.t p >.<XgXzX5X<.y a.' ( ( { { ( ^ ` i.e.r 7.fXxX",
";X7.r 0 %X+X= ] ] W._ / ; - %X$X; r p U.;X=XU.p y %Xa.0 [ n.v.] ( | 6Xa.w 6.-X=X",
"2.G N = $.p.; / ( { | ] ; = ' q.y t G b 6.2.2.8 = q.} ; 0.0.] [ ; / s w.q F 3.2.",
"Q Q Q 1 } s.; ^ 0.] 0.] / = ] @X/ r 2.6.4.L.L.D q a.i.= [ ] [ | 0 = s.i.r 3.4.2.",
"N N H f.i.h.9 = ; ] } w.r.' 9.*Xq.,Xq D r D F 1 a a.h.y 0 / 0./ w.9.g.r.f.>.N e ",
"'..XwXeXeXyX.X{.~.~._.).|.|.OXaXoXoX{.{.{.rXiX.XyXtXoXwX[..X~.].).XXXXXXXXXX.X.X",
"E.C.Z.z.j.k.b.R.^.^.^.R.Q.B.z.j.b.B.W.^.R.B.Z.C.k.k.k.N.Q.^.^.!.!.!.R.N.n j.k.R.",
"< 2 # # < O 7 2 7 + e 1 3 e # : < : < < < 2 2 3 < < 4 7 3 2 7 < < 3 M 2 X : < < ",
"6 6 : 6 : X % < 4 4 q i 1 % 4 6 6 k k  .6 6 : 6 : % % % 4 4 4 q t = . < < 6 6 6 ",
"&.o.: % > 6 .     . .       $ 6 6 =.S.6 X.6 : .   6  .%     . .         : 6 O.O.",
"X.+. .~ % % 4 < = = * 5 4 4 %  .+.X.+.6 +.+.6 4 % > 4 > 4 < q = 1 < 4 > > +.+.o."
};
