/* XPM */
static char *result[] = {
/* columns rows colors chars-per-pixel */
"60 60 223 2 ",
"   c #060605",
".  c #070905",
"X  c #090906",
"o  c #0E0E0B",
"O  c #0F1309",
"+  c #11120D",
"@  c #121A0A",
"#  c #161612",
"$  c #1A1A15",
"%  c #1F1F19",
"&  c #2A1D16",
"*  c #19270C",
"=  c #1D2711",
"-  c #25251E",
";  c #262B1A",
":  c #3B241A",
">  c #283617",
",  c #2A2A24",
"<  c #332F21",
"1  c #333529",
"2  c #393935",
"3  c #3E3D35",
"4  c #4B311D",
"5  c #4D3C1F",
"6  c #4C3426",
"7  c #493A29",
"8  c #533A25",
"9  c #533D29",
"0  c #593F2A",
"q  c #403F37",
"w  c #643B25",
"e  c #683C27",
"r  c #2D4119",
"t  c #34491B",
"y  c #3B551E",
"u  c #3D4A27",
"i  c #4C4B1E",
"p  c #475D15",
"a  c #55591B",
"s  c #426312",
"d  c #466C14",
"f  c #496818",
"g  c #54631C",
"h  c #497017",
"j  c #4D741A",
"k  c #50791E",
"l  c #4A4B28",
"z  c #5C422C",
"x  c #53482A",
"c  c #455926",
"v  c #575725",
"b  c #414236",
"n  c #43423A",
"m  c #494639",
"M  c #49463C",
"N  c #524233",
"B  c #554A3C",
"V  c #594838",
"C  c #4D543B",
"Z  c #565C3A",
"A  c #6B4A27",
"S  c #77412D",
"D  c #7A432E",
"F  c #784A2D",
"G  c #665A25",
"H  c #73532B",
"J  c #644A34",
"K  c #6A4B37",
"L  c #634C3C",
"P  c #7E4631",
"I  c #744936",
"U  c #7D4932",
"Y  c #655735",
"T  c #6C523B",
"R  c #7E5937",
"E  c #71563E",
"W  c #496629",
"Q  c #5A6825",
"!  c #547D23",
"~  c #58762A",
"^  c #4C6633",
"/  c #4F6933",
"(  c #546938",
")  c #587635",
"_  c #66692C",
"`  c #696B35",
"'  c #627A3B",
"]  c #667839",
"[  c #78763E",
"{  c #464541",
"}  c #4C4B43",
"|  c #534D43",
" . c #5B4B40",
".. c #4F5146",
"X. c #525146",
"o. c #5A5245",
"O. c #565A45",
"+. c #55544B",
"@. c #5A574C",
"#. c #5A5B4D",
"$. c #5D5C52",
"%. c #6A5846",
"&. c #645A4C",
"*. c #755B44",
"=. c #755947",
"-. c #795E45",
";. c #615F54",
":. c #5B6C43",
">. c #5A634A",
",. c #5F6351",
"<. c #68654A",
"1. c #766448",
"2. c #7D634A",
"3. c #637D44",
"4. c #687945",
"5. c #64724D",
"6. c #7A7447",
"7. c #626156",
"8. c #6A6853",
"9. c #65645A",
"0. c #69675C",
"q. c #6B695E",
"w. c #726553",
"e. c #7C6451",
"r. c #786B56",
"t. c #736B5B",
"y. c #6A7A53",
"u. c #757A5B",
"i. c #6D6C62",
"p. c #706F63",
"a. c #737266",
"s. c #797863",
"d. c #747369",
"f. c #78776B",
"g. c #7B796D",
"h. c #7D7C72",
"j. c #804731",
"k. c #814832",
"l. c #824E39",
"z. c #875945",
"x. c #82644C",
"c. c #86674E",
"v. c #846D54",
"b. c #896856",
"n. c #8A6E54",
"m. c #8A7653",
"M. c #8C7157",
"N. c #847659",
"B. c #8E745A",
"V. c #91755A",
"C. c #967A5F",
"Z. c #857561",
"A. c #8B7A65",
"S. c #877B6A",
"D. c #977B65",
"F. c #957D64",
"G. c #817F74",
"H. c #578126",
"J. c #588227",
"K. c #5B852B",
"L. c #5E892E",
"P. c #5D8834",
"I. c #618D33",
"U. c #688539",
"Y. c #649136",
"T. c #6A9035",
"R. c #69963A",
"E. c #5B8A57",
"W. c #6B8545",
"Q. c #6A8748",
"!. c #738D44",
"~. c #748B4A",
"^. c #759644",
"/. c #6C8851",
"(. c #768757",
"). c #79935A",
"_. c #7B8865",
"`. c #7E836C",
"'. c #7E8072",
"]. c #818E50",
"[. c #8A856E",
"{. c #9A8468",
"}. c #899867",
"|. c #848376",
" X c #8B8774",
".X c #87867B",
"XX c #89877B",
"oX c #8D8B7E",
"OX c #978876",
"+X c #938D7D",
"@X c #899376",
"#X c #969B78",
"$X c #A1896E",
"%X c #A28C73",
"&X c #A4927C",
"*X c #93A571",
"=X c #8E8D80",
"-X c #918F82",
";X c #959183",
":X c #9A9585",
">X c #949983",
",X c #979589",
"<X c #99978B",
"1X c #9C998D",
"2X c #9E9C91",
"3X c #A38F81",
"4X c #A59A8A",
"5X c #A29E93",
"6X c #9CA187",
"7X c #A3A195",
"8X c #ABA495",
"9X c #A6A499",
"0X c #A8A69B",
"qX c #ACA99B",
"wX c #B3AE9E",
"eX c #B0B891",
"rX c #ADABA1",
"tX c #B0AFA5",
"yX c #B5B1A4",
"uX c #B8B5A9",
"iX c #C2BAAB",
"pX c #CBC6B8",
"aX c #D2CDBF",
/* pixels */
"k.k.k.k.j.D k.k.k.k.k.k.j.k.k.k.j.k.j.k.k.k.k.k.D j.j.D j.j.k.j.k.k.k.j.D D D D j.H _ g G G g H k.k.k.k.k.k.k.k.j.D D D ",
"k.k.j.D D S D j.j.k.j.k.k.k.k.j.k.k.k.k.j.j.k.j.k.k.D S S D j.j.j.j.k.k.k.k.j.G j ! I.I.L.L.I.] k.k.k.k.k.k.k.k.j.S D j.",
"k.k.k.D D k.k.P S D j.j.j.k.j.k.j.j.j.k.j.j.k.k.k.k.k.j.D S e D S S S S D A f d H.I.T.Y.R.R.R.L._ H k.k.k.k.k.k.j.j.k.k.",
"D k.k.j.P k.j.k.k.j.j.j.k.k.k.k.j.j.D j.j.D P P j.j.k.k.k.j.D D S S D S D A i s k H.H.L.K.L.R.L.R.L.g k.k.k.k.k.k.j.k.k.",
"j.j.j.e D j.k.k.k.k.k.k.k.k.k.k.k.S D j.j.j.j.e S D D j.k.k.k.k.k.j.D S A S S p d d d d j j j j h g a j.k.k.k.k.k.k.k.k.",
"e j.e j.e j.k.k.j.k.j.k.k.j.k.k.j.j.k.k.j.j.k.e S S D D D D k.k.j.k.U _ J.~ ! h s a a i p d d s h a H j.k.j.j.j.k.j.k.j.",
"j.D P e P k.k.k.k.k.k.k.k.k.k.j.j.k.j.j.j.k.k.k.j.P D D D D j.D U _ ~ L.R.Y.^.I.H.g A e R G p s f d H.Q G g H F D j.j.j.",
"D j.k.k.k.k.k.k.k.j.k.k.k.j.k.j.k.k.k.k.j.j.k.j.k.j.j.j.D D j.j.H g k H.L.J.K.J.H.d p w v p d k I.T.T.L.L.K._ S S S S S ",
"k.j.P j.k.j.D S D j.j.j.j.j.D j.j.j.l.P j.j.P S S S S k.b.z.b.=.L v f h h d d d f p S w x f d J.L.T.T.R.R.R.L.G S S S S ",
"k.P P e S S S j.j.j.j.j.j.j.j.D P P P P P S S S P b..X.X.X.X.X7.$.#.Z c W O.O.O.i i I e 8 1.s d h j H.H.I.T.Y.R._ F j.j.",
"j.j.j.P j.j.k.k.j.j.j.D j.S S S S S S S S P b.-X3X.X.X.X.X.Xi.$.$.$.$.$.$.$.$.+.b b 7 J 4 J f s p f s h j k h j j g j.k.",
"z.j.j.j.k.k.k.j.j.D S S S S S S S S S z.3X5X.X.X.X.X.X.Xh.i.$.$.$.$.$.$.$.$.} 3 u 3 b 7 z 4 x.6.A G i p d h d g F F k.k.",
"j.k.k.k.k.k.S S j.j.e j.D S S S S l.3X2X.X.X.X.Xh.i.9.$.$.$.$.i.d.d.$.$.$.{ q q { n 2 q 6 J z B.-.T e F p p a p H j.j.j.",
"D P D j.k.k.j.j.j.j.k.k.j.j.j.j.z.5X.X.X.Xh.9.7.$.$.$.$.9.d..X.Xh.9.$.$.{ q q } $.@.} { 7 J z x.n.e.e k.k.k.F F j.j.j.j.",
"e D D e D D S D j.k.k.j.j.j.k.z.5X.X.X.Xh.$.$.$.$.$.7.h..X.X.Xh.$.$.$.q q q +.$.$.$.$.+.b 8 n.E n.v.I k.k.k.k.k.D S S D ",
"k.k.D D S S D j.j.k.k.k.j.j.z.3X.X.X.X.X7.$.$.$.$.i.-X.X.X.Xh.7.$.+.n q q @.$.$.$.$.$.$.B 0 V.1.x.M./ !.k.k.D D S S S S ",
"k.k.k.k.k.k.k.k.k.k.j.j.P P :X=X.X.Xd.@.$.$.$.$.h.1X.X.X.Xh.+.$.i.0.+.2 } #.$.$.$.$.$.$.9 T M.M.E =.] ^.K P k.j.k.j.S S ",
"k.k.k.k.k.U k.k.j.k.j.j.j.D..Xd.0.$.+.$.$.$.$.h.7X.X.X.Xh.$.9.G..Xi.%.X.q #.&.$.$.$.$.o.8 E v.C.0 l 4.W.q P k.j.j.k.k.k.",
"k.k.k.k.k.k.k.k.k.k.j.j.=.a.$.+.+.+.$.$.$.$.h.0X.X.X.Xh.$.9..X.XS.=.*.#.} B &.$.$.$.$.B J K M.{.4 l P.N.M.%.j.j.k.k.k.k.",
"k.j.k.k.k.k.k.k.k.k.j.j.&.&.i.0.+.$.$.$.$.h.9X.X.X.XG.7.9.S.d..XD.B.6.( ;.T V $.$.$.$.B z z n.m.( ~ Y -.b.b.c.[ [ k.k.j.",
"j.j.j.k.U k.k.U k.j.k.=.0.h..Xh.@.+.$.$.i.<X.X.X.Xh.;.$.S.D.=.oXM.{.[ ) %.#.+.{ $.$.$.X.5 v 4.^.U.4 4 4 9 %.-.` ~ [ U k.",
"P P j.k.P R _ c.b.z.z.i.d.f.f.i.$.+.$.7.G.h.h.d.i.$.@.f.OXD.e.B.M.c.-.' >.$.$.X.+.$.$.#.v T.` c.4 z #.N 6 6 4 0 1.P.R k.",
"j.j.b.OX7X*XP.>XrX5X1X,XoX Xg.a.0.+.$.;.$.$.$.$.$.$.i..X.XD.x.b.n.-.Z U.>.$.$.$.| $.$.#.W >.9 x.0 B $.$...3 3 7 6 ^ [ k.",
"k.j.4X0X9X1XP.oX,X,X,X,X8X4X&X+X3Xh.f.i.7.$.$.$.$.;.G.G.d.$XB.V.b.*.@.Q.>.$.$.$.$.+.$.( x #.N E T B $.$.@.{ u 3 3 v ].k.",
"k.k.A.5X0X1XQ.E.1X1X,X-X+XoX XOXOX].OX%XOXZ.n.D.b.i.#.5.u.F.V.C.M.R #.5.] #.$.$.$.+.#.W.N $.B K 2.| $.$.$.+.b q u ^.].k.",
"k.k.z.4X5X5X)._.tXtXtXtX7X,X=XoX+X~.:X;XG.|.S.e.b.B.{.^.6.n.V.C.M.x.o.,.( $.$.$.$.@.:.!.x $.B T B.o.#.{ { M q ^ / 6.V.j.",
"j.k.k.z.>X7X}.).9X9X9X9X7X2X2X<X-X~.).-X:X;X.XoXS.n.$X) 6.n.V.C.C.c.J >.:.$.$.$.$.$.' 5.N #.V *.C.#.0.$.X.n q Q ].n.F.I ",
"P e k.j.x.+X).^.7X9X9X9X7XqX0X<XXX(.oX=X=X=X-X|.h.G.r.W.N.-.n.V.C.M.0 4.:.$.$.$.$.$.U.] N $.N 2.M.$.XX|.;.$. .W b q v.w.",
"l.k.l.k.R Q.@X).@X6X9X9X0X9X9X0X}.}.-X=X-XoX-X-X=Xh.OXU.x.%.b.M.-.2.z 4.4.$.$.$.$.$.$.~ C #.N K r.i..X.Xh.$.<.( X.2 B Z.",
"k.j.e e R ) p.(.I.6X5X5X9X0X9X6X!.@X9X5X<XoXv.Z.S.D.].!.<.f.A.{.E K V ) +.$.$.$.$.$.$.7 W C N Y v.d..X.X.Xp.(.5.;.{ q F.",
"D e S U }.E.d.q.) =X2X1X1X9X0X9XQ.2X9X9X9X,X5X,X=XG.XX)._.a.[.{.J &.Z ( +.9.+.$.$.$.+.B +./ _ T Z.h..X.X.XD.:.T.#.@.q A.",
"j.k.P OX#X/.f.p.) > 1 { ..d.-XoXQ.9X9X9X9X5X5X1X1X1X-X(.4. XOXM.L r.<.3.$.XXi.+.#.$.@.#.$.:._ T A.|..X.X=XXXy.~.$.$.q Z.",
"j.j.V.5X}.).f.f.5.c , - $ + + r ~ X.$.i..X7X9X9X5X,X=X_._.i.S.M.%.p.%.:.5.=X'.7...} $.$.$.O.l T Z.=XG..X.X.X'.U.,.$.} t.",
"j.k.5X0X*X/.g.s.!.) ; - - - = W # + + o   X # , 2 2 { Z C M @.V.%.s.%.( 9..X=Xd.+.{ { $.,.^ 7 2.p..X=X.X.X.X'.#.) $.X.w.",
"e b.5X0X9X~.(.f.i.^.u - ; 1 W < - - - $ o o o o     O ~ @   - C.*. XL :.i..X=Xh.$.{ 3 { ' / 9 M.i..X.X.X.X=X.Xi./ <.#.r.",
"j.S.5X0X1XW. Xf.a.!.> - - t y , - - - # o o o X       ) ; X &.D.*.XXY ) i.=X=X=Xp.+.n n ( O.J v.$..X.X.X.X.X.Xh.#.R.>.+.",
"e 1X5X5X-X5.oX|.q.y.t = - t , = # - - # o o o       @ y . = .X$X%. XL / a.1X=X'.h.$.q u ( B *.r.$.f.=X=X.X.X=XG.,.^ } +.",
";.1X9X5XoX(.oXoXs.0.( W ~ t o o # - - $ o o   o     = *   2 0X%X=.oX%.' u.qX.X.XG.;...^ +.N %.w.$.i.h.=X.X.X.X.X0.^ 2 { ",
"@.<X9X-X[.^.oXXXg.0.| l L.$ # o $ - - % o o o o   O W @   { rX%X%.oXr.5.i.tX=X.X=Xi.^ ] O.6 J N.$.$.f.=X.X.X.X=Xu.~ u 2 ",
";.,X9X.X@X!.h.f.f.a.q < - $ $ o & - - % o o o o     > @   +.5X4X*.XXu.4.$.7X2X=X|.,.( M } 8 9 B.i.$.$.h.=X.X.X.Xa./ n 2 ",
"f.=X6X|.y.u.+X+X>X;XS.u , % # + ; - , - + # o o     @ >   ;.qX5Xx.f.w.:.$.h.uX=X_.) #.X.b T o.T F.$.$.d.|..X.X.Xh.) 3 3 ",
"h.=X;X8X).aXaXaXpX8XwXa.- - # # - - - - % # o o .   * t   i.0X5XV.w.t.8.$.7.uX-XXX' $.$.9 w.X.B c.a.$.;..X.X.X.Xh.) m n ",
"i.,XpXeX*XpXaXpXqXwXwXa., % o $ - , - , - # + o X   > O   d.0X0XF.e.h..Xi.$.-X9X'.:.$.+.T ;.i.0.J N.$.$.i..X.X.Xh.~ b q ",
"i.pXaXaX*XaXuX+X+X8XwX#., % o - - - - - - + o o X @ u X   d.0X4X2.2.=X-Xh.$.i.tX`.W.,.9 e.$..Xh.V w.+.$.$.f..X.Xa.:.2 q ",
"uXaXaXaX}.#X:X:X;X+X;X, % # + , , - - - - + o o X X t     ;.0XB.w.$X+X-XoXi.$.<X_.] @.8 r.f..X.X%.%.2 $.$.9..X_.) >.2 u ",
"aXaXyX<X/.#X:X:X:X;X$., % o # , - - - - - + o o X X > O   { 3X%.5X8XOX-X=Xg.$.d.(.,.o.J t..X.X.Xt.&.2 M $.$.d.|.U.$.3 3 ",
"wX-X:X:X(.:X:X;X:Xt., - # o $ , - - - - - o o + O . > r   - Z.Z.1X8X$X+X=XG.i.$.y.,.B L f..X.X.Xs.w.n 2 +.$.$.'.y.$.2 3 ",
"wX4X:X}.(.:X;X+X| , , % o o $ % - - - - # o o o + . * @   X %.XX<X5X&X[.=X.Xi.$.5.$.B w..X=X.X.Xh.w.{ 3 } $.,.7.~.$.3 q ",
"+X4X:X:X4.|.a.9.;.1 - - - $ # , - - - % o o o o o X t ; .   < 4X1X5X4XF.XXd.;.#.$.$.9 Z..X.X=XG.h.;.} 3 q $.$.$.4.$.3 q ",
"0.:X;XoX) 8.0.t.f.p., - - - $ - , - % $ o o o o o   o >   , ;.9X,X5X5XB.a.p.7.$.$.&.| S.=X.X.X.XG.;.} q 2 +.$.O.5.$.q q ",
"f.=X=X=XQ.q.f.|.=X=X2 , - - - % - - # o o # + o o     1 { d.S.rX,X1X0XD. X5XyXiXyX:X&.w.p..X=X=XG.$.| q 3 } $.#.7.&.{ q ",
"2X7X2X1X_.s.|.oX=X=X+.& , - - & % , o o o o o o o     } '.i.<XrX,X5X0XiXaXaXaXaXaXaX8X8Xg.9.d.G.=X;...q 3 n $.$.$.;.q q ",
"7X2X9X7X^.|.oXoX=XG.i., - , - - - - o o o o o o o   - h.G.$.2X9X:X7XqXuXpXaXaXaXaXiXyXwX5XXX$.i.G.$.| q 3 2 $.$.$.$.{ q ",
".Xh.h..X@X_.XX+XG.h.d., - - - , - - o o o o o o o   2 i.$.{ h.,X=X|.-X1X-X:X;X+X;X;X:XwXwXg.$.$.$.$.+.q u n +.$.$.$.{ q ",
"i.i.0.0.$.@X|.XXh.h.G.p.q - & , - % o o o o + o o o # 9.$.| 9.f.h.h.d.9.S.:X:X:X:X:X=X5X4X;.;.$.$.$.@.q q q { $.$.$.| q ",
"....} +.d.9XXXa.+.} { +. .6 6 6 6 6 : 4 : : : : : & &  .7.+.+.| } } } 7.oX:X:X:X:X:X;XS.;.$.&.&.$.$.;.q q q q ;.&.&. .0 ",
"} } | L z.b.z.z. .K  .K e j.P P P k.k.k.k.D D D D P D e D S L  .| |  .I k.z.b.b.b.b.z.k.j.j.k.j.j.j.l.j.k.k.k.j.k.j.j.k.",
"l.l.j.j.j.j.k.k.k.k.j.P D P D D e k.k.k.k.k.k.k.e P D P P k.k.l.k.k.k.k.j.j.j.j.k.k.k.k.j.j.k.k.j.j.j.j.j.j.j.D D D D D ",
"k.j.e k.j.j.D D e P P P D e D D j.e P e D k.k.k.P S S S k.k.P D j.k.P e D D P k.P P j.P j.j.j.j.k.k.j.e e D P e S S e D ",
"k.k.e P e D j.k.k.k.k.j.k.j.P j.D P j.k.j.e P j.P S S D j.j.P S e e j.k.k.k.k.l.j.j.j.P D D D P j.j.e j.D D D D S S D D "
};
