/* XPM */
static char *result[] = {
/* columns rows colors chars-per-pixel */
"60 60 238 2 ",
"   c #5E1C15",
".  c #652A0B",
"X  c #743D0C",
"o  c #7A3B0B",
"O  c #682917",
"+  c #63241B",
"@  c #65291B",
"#  c #6E3113",
"$  c #6C3515",
"%  c #743512",
"&  c #733B14",
"*  c #793B13",
"=  c #763B1C",
"-  c #78381C",
";  c #692E21",
":  c #773A23",
">  c #7B4315",
",  c #7B431B",
"<  c #77412D",
"1  c #7A432E",
"2  c #7C4829",
"3  c #7D512F",
"4  c #7E4630",
"5  c #7D4A34",
"6  c #7E4E39",
"7  c #7E533D",
"8  c #7F5B3F",
"9  c #7F5741",
"0  c #7F5842",
"q  c #854613",
"w  c #864A18",
"e  c #864B1B",
"r  c #87501B",
"t  c #8D531B",
"y  c #94521C",
"u  c #854D26",
"i  c #874A29",
"p  c #8B5728",
"a  c #935422",
"s  c #925626",
"d  c #9B5923",
"f  c #965A2B",
"g  c #9A5C2C",
"h  c #804731",
"j  c #814832",
"k  c #8A4A35",
"l  c #834F38",
"z  c #875738",
"x  c #83533C",
"c  c #965734",
"v  c #925C3C",
"b  c #9A632C",
"n  c #8B6435",
"m  c #9C6333",
"M  c #996739",
"N  c #9B6C39",
"B  c #9D713C",
"V  c #A5642A",
"C  c #A26936",
"Z  c #A46939",
"A  c #A8733C",
"S  c #B3733C",
"D  c #845A43",
"F  c #835B45",
"G  c #8A5D42",
"H  c #8A6445",
"J  c #8F6B40",
"K  c #85644C",
"L  c #8B654B",
"P  c #8B6A4E",
"I  c #986B44",
"U  c #936C4D",
"Y  c #8D724B",
"T  c #947442",
"R  c #99764A",
"E  c #896651",
"W  c #8B6B51",
"Q  c #896955",
"!  c #926C51",
"~  c #8D735B",
"^  c #8C7658",
"/  c #957353",
"(  c #947A53",
")  c #9D7B55",
"_  c #92755C",
"`  c #97795A",
"'  c #A26E44",
"]  c #AD7441",
"[  c #A97847",
"{  c #A3744B",
"}  c #AC7C4B",
"|  c #B47C43",
" . c #B67A49",
".. c #A37A51",
"X. c #AC7D53",
"o. c #A57758",
"O. c #8E7562",
"+. c #8C7E64",
"@. c #937B62",
"#. c #967962",
"$. c #937E6B",
"%. c #A27F67",
"&. c #BA833E",
"*. c #9C8154",
"=. c #948259",
"-. c #9B845B",
";. c #B78549",
":. c #B3834D",
">. c #A48556",
",. c #AD8353",
"<. c #A4865C",
"1. c #AD8B5C",
"2. c #B48552",
"3. c #B2835B",
"4. c #B58E5C",
"5. c #BA895A",
"6. c #AB925D",
"7. c #B6905C",
"8. c #8F8F6B",
"9. c #9B8664",
"0. c #958B62",
"q. c #9A8B63",
"w. c #958469",
"e. c #99836A",
"r. c #948A6C",
"t. c #9D8A6A",
"y. c #9B9268",
"u. c #958C73",
"i. c #978A7A",
"p. c #9D937A",
"a. c #989579",
"s. c #A38562",
"d. c #A48B63",
"f. c #AA8B64",
"g. c #A68669",
"h. c #A58E6C",
"j. c #AD8C6B",
"k. c #B38C62",
"l. c #B28866",
"z. c #A5936D",
"x. c #A9956A",
"c. c #AC926D",
"v. c #B39265",
"b. c #B3946C",
"n. c #BA9668",
"m. c #B3996D",
"M. c #A48D72",
"N. c #A78D79",
"B. c #B38E73",
"V. c #A19376",
"C. c #AB9274",
"Z. c #A79C77",
"A. c #A3947A",
"S. c #AD957D",
"D. c #AC997B",
"F. c #B49173",
"G. c #B29B72",
"H. c #BA9875",
"J. c #BB9B74",
"K. c #B3947B",
"L. c #B49B7D",
"P. c #A9A17A",
"I. c #BAA279",
"U. c #C2894B",
"Y. c #C19A70",
"T. c #C0A577",
"R. c #C4A37D",
"E. c #9B9983",
"W. c #9E9D91",
"Q. c #A89683",
"!. c #AC9B84",
"~. c #A69C8B",
"^. c #A99D8C",
"/. c #B39C82",
"(. c #B39885",
"). c #BB9E81",
"_. c #A49E94",
"`. c #AB9E92",
"'. c #A59B9A",
"]. c #B09F93",
"[. c #96A58B",
"{. c #9DAA94",
"}. c #ABA385",
"|. c #A7A18E",
" X c #A8A689",
".X c #ABA48D",
"XX c #BBA585",
"oX c #BCAA84",
"OX c #B6A788",
"+X c #B6A58C",
"@X c #BCAC8A",
"#X c #BDB18B",
"$X c #A6A696",
"%X c #ABA493",
"&X c #ABA59A",
"*X c #B5A796",
"=X c #B4AA96",
"-X c #BAAB93",
";X c #BBAD9C",
":X c #BAB397",
">X c #BEB49C",
",X c #A9A6A3",
"<X c #ABAAA2",
"1X c #AEADA9",
"2X c #B2ACA4",
"3X c #B8AEA3",
"4X c #B9B6A4",
"5X c #BCB1AA",
"6X c #B1BBAA",
"7X c #C8A886",
"8X c #CAB28C",
"9X c #C2AC96",
"0X c #C6B294",
"qX c #CBB894",
"wX c #C4B59D",
"eX c #CBBB9B",
"rX c #D2BA9B",
"tX c #C0AEA2",
"yX c #C4B3A2",
"uX c #C4BBA4",
"iX c #CBBBA7",
"pX c #C6BAAC",
"aX c #D0BCAA",
"sX c #C5BCB3",
"dX c #B4C0B1",
"fX c #CCC59C",
"gX c #CBC3AB",
"hX c #D8C3A6",
"jX c #D4C4AB",
"kX c #D4CDAB",
"lX c #DCD6AF",
"zX c #CAC5B5",
"xX c #D5C6B2",
"cX c #DAC9B9",
"vX c #D8D4B9",
"bX c #E0D1AF",
"nX c #E3CEB2",
"mX c #D5D0C3",
/* pixels */
"j j j h h h h h j j j j j j h h k k h j j j j 4 4 4 4 : j j j j 9 5 : 4 4 4 : 6 4 4 4 4 h h h j j j j j j j j j j 4 4 4 ",
"j j h 1 < < 1 1 h j h h k j k 6 : 6 j j j j j j j 4 4 1 1 1 1 5 : 5 D 4 4 4 4 4 1 < 5 : 1 h j j j j j j j j j h j : < 4 ",
"h j h 1 1 h j h : h : h 4 6 h 6 h h h h j j j j h j 4 4 1 < < < : 5 : 1 : : 6 5 < < < < < h j j j j j j j j j j 4 h h h ",
"4 4 h 4 4 h j j h 4 D h h h k : h h 6 : 1 5 1 1 4 4 4 j h h 1 < 5 : 5 1 : 5 : 4 < 1 < 1 h j j j j j j j j j j j j j j j ",
"1 4 < < < h h j j j j j j j k 6 h : : 6 4 4 : 1 < 1 4 4 h j j k j 4 4 1 < < < < 1 6 h j h h j h h h h h j j j h h j j j ",
"< < < < < 1 j h j h j j j h h : k 6 k 6 h h 6 : < < < 1 4 1 5 h j j 4 : < < 4 5 4 4 1 5 4 4 1 1 4 h h h 4 4 4 h h h h j ",
"< < < < 1 4 k j j j j j j h h k h 6 h : h j h h 4 4 1 1 4 1 1 5 j j 5 < < < 5 4 4 : 1 < 1 1 1 4 h 4 h 4 4 h 4 4 4 4 4 4 ",
"4 4 j j j 4 j h h h j j j h k 6 h h h k h h h h h 4 4 5 h 6 6 E ~ F K 6 4 < 1 3 4 4 5 4 4 h j j h h 4 4 < 1 < : < < < < ",
"j j 4 4 h h 1 4 1 h h h : 9 : 6 j j 5 5 4 5 4 1 1 h 6 l F E O.$.i.$.O.E 9 1 < < : 5 : 4 4 4 j 4 4 < < < < < < < < : 1 1 ",
"j 1 < < < < < 4 4 4 4 4 5 5 6 : 5 j : 5 6 5 1 4 6 Q O.$.r.i.E.W.W.{.E.O.E 9 7 < 5 : 4 4 4 4 4 4 4 4 1 < < < < 1 1 4 h 5 ",
"j 4 4 1 4 h h h 4 4 4 4 : 5 5 : : : : 5 9 9 F F O.$.$.i.V.p.~.'.1X1X1X|.i.w.0 0 5 : 4 j 4 4 j 4 h h h h h h h h h h j j ",
"x j j j h h h h 4 4 4 : : 9 : 5 : 9 5 9 F Q #.$.$.N.N.j.g.h.A.~.&X&X&X:X|.a.a.W 5 9 4 4 4 : 4 4 h h j j j j j j j j j j ",
"k 4 j j j 4 1 1 4 4 : 4 : 5 : : : : F Q O.#.g.M.h.f.7.7.7.v.j.(.].`.^.}.P.Z.y./ D l h : 4 4 4 4 1 h h h h j j j j j j j ",
"< 4 < 4 4 h h 4 j 5 j 4 : 5 5 h 9 D Q $.g.g.B.l.3.5.:.;.:.4.j./.%X'..X!.P.Z.y.t.Q G D j 4 4 4 4 1 h h h j j j j h h h j ",
"< < < < < 1 < 1 j j j j 6 h h h l G O.g.f.X. .] A C s b N { ` A.2X2XpXiXgXqX@X(.A.e.Q 6 4 4 j j j h h j j h h h 1 < < < ",
"4 4 < < < 1 4 4 4 j j j j 5 h h l _ e.f.X.V e o o q g A } k.).pXsXdXmXlXbXbXhXwX!.N.$.F 4 h j j j j j j j h h < < < < < ",
"j h h h h h h h h j j j h 1 h 1 l _ g.,.C a q r t b ;.7.7.v.L.tX5X5X4X#X#XoXL./.(.C.h.~ D 4 j h j h j j j h h h h 4 5 : ",
"j j j j j j j j j j j h h h < < 4 L 9.>.[ C C S &.;.;.7.7.v.L.wXpX5XyX@X@XOX(.!.K.h.h.t.P j j h j j j j j j j j h h h 4 ",
"j j j j j j j j j h j j j h 1 < 4 x L ! ) >.:.U.&.&.;.:.l.v.7XxXxXcXxXxXxXxXaX0X7Xc.z.r.L 5 4 4 h j j j j j j h j j j j ",
"j j j j j j j j j j j j j j h h h j x U =.>.[ A V t r p p J s.h.D.+X;X9X;XuXyX+XOXD.Z.r.K 4 4 4 h j h h h h j h j j j j ",
"h j j j j j j j j h h j j j j j j j z =.*.T f * % . . , N R *.d.g.D.}.}.}.OXOX X X Xp.u.D h h j j h 4 < h h h h j h j j ",
"h 1 h j j j j h h h h h h j h j h x P *.R f a = - : = M 2.n.R.8X0XaXxXjXlXlXkXeX=X%XE.~ l h 4 j h 4 < 4 < h < h h h j j ",
"h h j j j j h h 1 1 1 1 h 1 1 j j l ! <.B V y f q s Z 2.v.8XhXnXcXcXsXpX4X:X:X*X%X%X~.+.x 4 4 4 h 4 4 4 j 5 4 4 4 h h j ",
"j j j j j j h 1 1 h h j h j j j j l G / :.S S | m c b [ v.I.wXxXjXpXsXzXzXgXwX;X0X=X Xi.E j 4 4 4 4 < 4 4 h h h h h j j ",
"j j j j j j j i h j j j j j j j j h l H ) { f k i y C :.m.0XuXvXvXvXvXmXpX:X=X-X9X7XK.i.O.9 1 6 : 1 < 1 j j j j j j j j ",
"j j j j j j h h j j j h j h j j h j x L U 5 . $ * y | v.XXwXgXzXvXcXzXzX2X|.Q.S.K.B.j.p.$.F 1 : < < < < 4 j j j j j j j ",
"h h h h h h h h j j j j 1 4 1 1 1 6 K W z $ & p q t | f.P.$X<X,X2X2X&X&X|.!.!.(.K.K.N.E.E.0 : 4 1 h h 4 j h j j j j j j ",
"h 1 h 1 1 1 h h j 4 j 4 1 < < 1 1 D W H u w w X % y ] 1.D.$X<X<X,X'.'._.|.|.D.S.K.K.Q.E.$.9 h h j 4 h h h h h 5 h h h h ",
"j 4 4 4 1 1 < 1 1 4 < < < < < < 5 F ` T w o % # > t C 1.P.}. X=X].'.`.`.&X*X`.(.(.K.A.u.E h h h 1 1 1 1 1 1 < 1 1 h h 1 ",
"4 4 < < 1 < < < < < < < 1 1 1 1 4 D ( >.N p u i u p A 4.I.kXkXgXaXaXyX3X3X2X`.A.C.j.z.9.E k h h 1 1 1 4 h h h h j j h h ",
"4 : : 4 < < < < 1 1 4 1 4 5 1 < < 6 z ( ( I { I g a [ H.8XfXfX@X).9X*X].`.'.~.}.G.6.6.z.O.D h h h h h h h j h h 4 1 1 < ",
"1 4 1 h 1 1 h 1 4 4 4 4 4 4 4 4 1 1 1 7 D G R ,.]  .5.J.J.m.m.m.B.B.(.!.^.%X=XeXqXT.P.OXi.F j h h h j j j h 4 1 1 < < < ",
"4 4 4 4 6 : 6 6 4 4 < 1 4 h 4 j 4 4 5 4 5 7 J X. . .} X.,.,.2.5.X.l.K.S.p.Z.>XyXyXyXwX.Xe.D j j j j j 4 j h h 5 4 h 4 1 ",
"4 4 4 < 1 < : 1 4 4 < < < 1 1 h 4 l l l x H ( { f w o & e y d d M ..G.G.G.oXjXzX5X2X1X|._ l j j h 4 4 4 4 4 4 < : 4 < 4 ",
"< < < < 5 < 6 : : j 4 < < < < 4 4 4 x L ! ) J > % o q a y y V S | ,.v.b.m.I.I.+X4XzX6X{.@.l j h 4 1 1 < : < < < < < < < ",
"< < < < : 6 : : 6 j j h h 1 4 4 1 x K _ e.*.n 2 u f s g a a b  .v.x.c.v.v.v.x.D.%X6XdX6Xu.6 4 4 < < < < 4 < < < < < < < ",
": 1 : 6 5 h h 4 h h h h h 4 h h j x W @.w.9.o...v u # % z M ..R.rXeX0XoXJ.n.F.L.~.{.{.[.w.5 < < < < < < 1 : 1 : < 1 1 < ",
"1 1 j j 4 4 D : 1 1 1 1 4 4 h 4 1 6 z W ! U U ..{ v : : 4 v s.L.OX-X+X7XH.b.B.B.p.E.u.+.7 < < < 5 : < < 1 1 6 4 h j h h ",
"< 1 5 j : : 5 : 1 4 h h h h h h 4 4 5 D L W U I - O @ @ @ @ 3 H Y d.C.T.B.B.B.C.p.@.0 6 < 4 1 1 4 4 4 6 j j h j j j j j ",
"1 1 5 4 j 6 : D h h j 4 5 4 4 < < < 5 E _ q./ z #       @ : z R f.m.I.R.7X8X).B.@.D 5 < < 4 4 5 4 4 4 j j j j h j j j j ",
"h < h h h h 4 4 4 j h 4 : < < < < < 5 K ^ -.J k ; + + O : : I o.m.G.n.Y.n.I.C.t.P j 4 4 4 4 4 < 4 h j j j j j h h 4 h h ",
"< 4 < 4 h h 4 h h j j h j h 1 5 1 1 4 6 F _ o.o.k + ; $ c X.R.qX8X).b.l.4.6.y.8.W 5 4 4 j j 5 4 h j j h h j h 6 4 4 4 4 ",
"h h h 4 < < < 1 4 j j j h h h h i 1 j 4 5 D / o.h @ O # I R.eXgXpX+XB.j.f.q.0.^ 8 4 < 4 j j j j h j j h j j h : : h 4 4 ",
"< < < < < < < < 1 j j j h j j h j j j h 4 6 H P : 1 h c l.L.@X=X`.Q.M.%.` ^ 8 6 < < < 4 k j j j j j j j j j h 4 h h j h ",
"< < < < < < < < 4 j 5 h 4 h 4 h j j j h 1 1 5 H 8 z = , v l.K.).S.C.h.` L 9 1 < < < 1 4 j j j j j j h j j j h h j j j j ",
"< < < 4 h h j h 4 4 < : < 1 1 4 j j j j 1 < 1 7 P z & & ' k.c.h.z.q.9.W 6 4 < < < < < 1 4 4 j j h h j j j j j h j j j j ",
"< < h h h h h h h h 4 1 : 1 1 1 1 j j j 4 1 < 5 P Y z p N 3.l.g.r.=.H l 4 j h 4 1 1 < < 1 1 h h 4 h 4 4 4 h h h h h h h ",
"< 4 j j h h j j j 5 j j 6 4 h j j j j j j 4 1 1 7 K Y B T ) ! E L D l 4 j j j j j j h h j h j j k 4 4 4 4 4 4 1 h h h < ",
"< h h j j j j j j j j j j j j j j h j j j j h 4 4 9 E E E D F D l j j j j j j j j j j j j j j j j j h h : 5 : 5 4 h h 4 ",
"h h h j h h h j 4 h j j j j j j j j j j h j h h < 4 h j k h : k j h h j j j j j j j j j j j j j j j j j k : : 5 j h j j ",
"h h h h h 1 h h h h j j j j j j j j j j h h h h h h h h 4 k 4 h h 1 1 h h h h j j j j j j j j j j j j j h 4 D : j h 4 h ",
"h h h < < 1 < 4 4 h h 4 j j h j j j h j j h h h < h h h 4 4 h 4 1 < 1 1 1 1 h h h j j j j j j j j j j j h h 4 D j 4 1 4 ",
"h h h h 4 h j h h 1 h h j j h h h h h h j j h h < < < h < h h h h 1 j j j 1 1 h 5 h h j j h h h h h 4 D h k 4 4 j 4 1 4 ",
"h h 1 1 1 h j j h h h h j h h h 4 < 4 4 h h h h h h h h h h h h 1 1 h j j j j j h j h j j h 4 5 : 1 1 : 4 4 : k j h 1 h ",
"< < < < 1 1 j h j j h h j j h h 4 : < < < < < h < h 4 4 < 4 < < 1 < 1 j j j j j h j j j j h 4 : k h 4 4 4 k D 4 h h 4 h ",
"< < < < 1 4 j j j j h h h h h h h h h < < < < < < < < < < < < < : 1 < j j j j j j j j j j h h h h h k h 4 h h h h 4 5 6 ",
"< 1 1 4 4 k 6 h h h h h 1 1 1 h h h h h 4 1 < < < < < < < < < < 4 4 j j j j j j j j j j j j j j h j j j 6 4 4 6 k 6 4 j ",
"h h h 4 4 4 4 4 h h h 4 < < < < 1 h h h j j k 5 < < < < 4 h 5 h j j j j 5 5 h h h h h h j j j h h j h h < 5 4 : : 1 : 1 ",
"h 4 4 1 1 1 < 4 < 4 4 4 1 1 1 < < < < < 1 h h h h < < < j j h 4 4 4 4 4 4 : 4 4 4 4 4 4 4 5 h 4 j j h : 5 < : 5 < < 1 < ",
"h 1 < < < 4 4 4 h h h h 4 h 1 1 1 1 1 < < < 4 h 1 < < 1 j h 1 < : < : 4 4 4 5 6 h 4 4 4 4 4 : 4 4 : 9 : < < < : < < < < "
};
