/* XPM */
static char *result[] = {
/* columns rows colors chars-per-pixel */
"60 60 225 2 ",
"   c #511D1C",
".  c #54200B",
"X  c #5A240B",
"o  c #532512",
"O  c #5C2313",
"+  c #5B241D",
"@  c #583515",
"#  c #662C0D",
"$  c #632B14",
"%  c #692C19",
"&  c #742E1A",
"*  c #6C3316",
"=  c #6E321C",
"-  c #6A341E",
";  c #74371A",
":  c #7A3D1B",
">  c #5A2724",
",  c #693A27",
"<  c #733323",
"1  c #7D3A22",
"2  c #733C28",
"3  c #7B441C",
"4  c #6E4126",
"5  c #7C4423",
"6  c #77412D",
"7  c #7A432E",
"8  c #6F4A30",
"9  c #7E4630",
"0  c #7D4A34",
"q  c #7D4E39",
"w  c #7B5936",
"e  c #7F523C",
"r  c #765C47",
"t  c #813820",
"y  c #84461E",
"u  c #834B1C",
"i  c #824321",
"p  c #86492A",
"a  c #85552E",
"s  c #8C552C",
"d  c #955927",
"f  c #804731",
"g  c #814832",
"h  c #8D4A30",
"j  c #834E38",
"k  c #8B5434",
"l  c #83533C",
"z  c #87593E",
"x  c #985B34",
"c  c #9C6235",
"v  c #93623A",
"b  c #9B633B",
"n  c #98693A",
"m  c #A06029",
"M  c #A26B3A",
"N  c #B1753E",
"B  c #875945",
"V  c #855C44",
"C  c #8A5C43",
"Z  c #865F4A",
"A  c #955A46",
"S  c #8D6046",
"D  c #86644B",
"F  c #8A664C",
"G  c #8D694D",
"H  c #946B44",
"J  c #916B4B",
"K  c #987245",
"L  c #99724E",
"P  c #8D6652",
"I  c #856A53",
"U  c #8C6C52",
"Y  c #8D6E58",
"T  c #916E54",
"R  c #847252",
"E  c #8E7054",
"W  c #8C745A",
"Q  c #937355",
"!  c #93745B",
"~  c #9E7758",
"^  c #937C5C",
"/  c #9B7D5C",
"(  c #A36D42",
")  c #A66D48",
"_  c #A57445",
"`  c #A5734A",
"'  c #A87348",
"]  c #A27A49",
"[  c #AC7B4D",
"{  c #B97C4A",
"}  c #A87B57",
"|  c #8F7E68",
" . c #927764",
".. c #937D62",
"X. c #9C7E61",
"o. c #A27C60",
"O. c #998D5F",
"+. c #96915C",
"@. c #AC8549",
"#. c #A98557",
"$. c #AD8D5D",
"%. c #B88658",
"&. c #B28B5D",
"*. c #A7925C",
"=. c #B2915D",
"-. c #8F8268",
";. c #948364",
":. c #9B8364",
">. c #9C8A65",
",. c #948D6E",
"<. c #9B8C6B",
"1. c #9C936A",
"2. c #948E72",
"3. c #9B8A77",
"4. c #9B8D75",
"5. c #9C9475",
"6. c #96957A",
"7. c #9D937D",
"8. c #A58767",
"9. c #AB8C63",
"0. c #B48D63",
"q. c #BA8964",
"w. c #A49266",
"e. c #AD9163",
"r. c #A5936B",
"t. c #AB946C",
"y. c #AC996D",
"u. c #B69467",
"i. c #BB9263",
"p. c #B3946B",
"a. c #B69A6D",
"s. c #BA9B6D",
"d. c #A58B77",
"f. c #A49473",
"g. c #AB9474",
"h. c #A59975",
"j. c #AB9A76",
"k. c #A2927E",
"l. c #AC967C",
"z. c #A49D7B",
"x. c #AB997D",
"c. c #B49473",
"v. c #B29A76",
"b. c #BB9875",
"n. c #B2957A",
"m. c #B8967D",
"M. c #B39C79",
"N. c #B99E7C",
"B. c #AFA17B",
"V. c #B1A07D",
"C. c #BAA27D",
"Z. c #C29B6E",
"A. c #C49873",
"S. c #C2A574",
"D. c #C8A67C",
"F. c #979784",
"G. c #AC9584",
"H. c #A59884",
"J. c #AB9C83",
"K. c #A29E8B",
"L. c #AA9C8B",
"P. c #B49D87",
"I. c #A49D95",
"U. c #AC9D94",
"Y. c #9DA48D",
"T. c #9FA693",
"R. c #ACA483",
"E. c #A7A38B",
"W. c #ADA28D",
"Q. c #B2A284",
"!. c #BCA384",
"~. c #B4A58D",
"^. c #BDAA8B",
"/. c #B8A88E",
"(. c #ABA494",
"). c #ACAA93",
"_. c #ACA59C",
"`. c #A5A898",
"'. c #B4A593",
"]. c #B7A594",
"[. c #BBAD93",
"{. c #B3A69A",
"}. c #B2AA9C",
"|. c #BCAB9B",
" X c #B7B298",
".X c #BCB49B",
"XX c #ACAFA4",
"oX c #B4AFA4",
"OX c #BBAEA2",
"+X c #B8AFA9",
"@X c #B4B4A2",
"#X c #BCB4A4",
"$X c #B7B9A6",
"%X c #BDB4AB",
"&X c #BDBCAB",
"*X c #C3A484",
"=X c #C5AB84",
"-X c #C9AC80",
";X c #C2AC8B",
":X c #D0B48A",
">X c #C2AC98",
",X c #C4B49D",
"<X c #C6B89A",
"1X c #DCBE93",
"2X c #C5B6A4",
"3X c #C6B6A6",
"4X c #C3BCA4",
"5X c #CABBA5",
"6X c #C3BBB2",
"7X c #CABEB5",
"8X c #B8C6B3",
"9X c #CAC3A7",
"0X c #C6C3AD",
"qX c #CBC3AB",
"wX c #D4CAAE",
"eX c #C8C6B6",
"rX c #CCC4B4",
"tX c #D2C3B2",
"yX c #D9CEB1",
"uX c #D2CBBA",
"iX c #D4D1BD",
"pX c #DCD1B8",
"aX c #E2CFBA",
"sX c #CFCBC0",
"dX c #DAD3C5",
/* pixels */
"g g g f 9 7 f f g g g g g g g g g g f g g g g g 9 9 9 9 9 g g g 9 g 9 g 9 9 9 9 9 9 9 9 9 9 g g g g 9 g g g g g g 9 9 9 ",
"g g f 7 7 7 7 f g g g g g g f g g g g g g g g g g 9 9 2 2 9 9 9 9 9 9 g 9 9 9 9 6 6 7 7 9 9 g g g g g g g g g f f 2 2 f ",
"f g f 7 7 f f 9 2 9 9 9 g g g g g g f f g g g 9 f g f 9 9 2 2 2 6 9 6 9 9 9 6 6 6 6 2 9 9 9 g g g g g g f g g g 9 f f f ",
"9 9 f 9 9 f g f g g 9 f g g g g g g 2 9 9 2 9 9 9 9 f f 0 9 9 9 6 6 6 6 2 6 6 6 6 6 6 6 9 g g 9 g g g g g g g g g g g f ",
"7 9 6 6 7 9 f f g g g g g g g g g 2 2 g f f 9 2 9 2 9 0 g f g g g 9 9 2 6 6 2 9 9 9 9 9 g g 9 9 f g g 9 g f g g g g g g ",
"6 6 6 6 7 7 g f g g g f g g g g g g f g f f 9 2 2 9 2 2 9 9 9 g g 9 9 6 6 6 9 g 9 9 9 9 9 9 9 9 9 9 g 9 f 9 9 f g g g g ",
"6 6 7 7 7 f g g g g g g g g g g g g g g f g f f 0 9 9 9 9 9 9 9 9 9 9 6 6 6 9 0 9 9 2 6 9 2 9 9 9 9 9 9 9 9 9 9 9 0 g 0 ",
"9 9 f f g g g g f g g g g 9 9 9 g g g g g g f f g g 9 9 2 9 2 9 9 9 9 6 6 6 9 9 9 9 9 9 9 9 g g g 9 9 9 9 9 2 2 2 9 2 2 ",
"g 9 9 9 0 9 9 6 9 9 9 9 0 9 9 9 f 9 g 9 9 9 9 6 2 9 2 0 2 2 0 2 7 2 9 2 6 6 6 9 6 9 2 9 9 9 f 9 9 2 9 2 2 9 2 2 6 2 6 7 ",
"9 9 6 7 9 9 6 9 9 9 9 9 9 9 9 9 9 9 9 9 9 9 2 6 9 2 7 2 0 2 0 2 6 6 6 6 6 6 6 6 6 2 9 9 9 9 9 9 9 9 9 9 9 2 9 9 9 9 9 9 ",
"g 9 9 8 q 9 9 9 9 9 9 9 9 7 2 9 2 9 2 9 2 9 7 7 9 9 2 9 9 2 2 0 6 6 2 7 6 6 6 2 6 9 g f 9 9 9 9 g g 9 9 g f g g g 9 g g ",
"B g f 0 j 9 g 9 9 9 6 6 7 2 9 2 6 2 6 6 6 9 9 9 9 9 g g j g j 2 7 9 9 9 9 9 9 9 9 9 f 9 2 7 9 9 9 9 g g g g g g g g g g ",
"f f g g g 9 6 9 9 9 9 2 9 2 2 9 9 9 9 9 9 9 f g f f g g g t B 2 7 7 7 7 9 9 9 9 9 g 9 9 9 9 9 9 9 9 9 g g g g g g g 0 g ",
"7 7 2 9 9 9 9 9 g g g 9 9 9 9 9 9 9 9 j j j g j l j j g g j g j f 9 f 9 7 9 9 9 9 f 9 9 9 9 9 9 9 9 9 f f g g g g 9 9 9 ",
"7 2 7 9 9 9 2 9 9 g g g 9 g g g g 9 j P Y Y U Y ....! F Z Z Z B B j j 9 9 9 9 9 9 9 6 6 9 9 g g 9 g f g g f f g 9 6 2 9 ",
"9 9 9 2 2 9 9 9 9 g g g 9 0 g f 0 l P ,.3.3.7.k.7.7.F.3.F.F.6.3...W D e 9 9 7 6 6 6 6 6 9 9 g g g g g g g f 9 2 2 9 9 2 ",
"g f f f g f f f g f g g 9 9 7 9 j U :.r.g.G.G.G.G.G.G.K.I.T.Y.z.5.5.5.;.D e 7 6 6 6 6 6 7 f g g g g g g g f f f 9 9 7 7 ",
"g g g g g g f g g g g f 9 9 7 0 F :.O.$.i.p.n.P.3X|.{.{._._. X[.;X[.R.5.,...D 0 6 9 9 0 g f g g g g f g g g g g f f f f ",
"g g g g g f g g g f g g j j z C L ] M d c n 8.g.P.{.#X.X%XrXpXaXaXaX9XR.z.1.>.U l 0 9 f f 9 9 9 f g g g g f g f g g g g ",
"g g g g g g g f g g g j F Q ! J a d d m N [ 9.j..X%XrXuXuXrXrXtX7X4X/.Q.j.t.f.:.G 9 7 7 7 7 9 9 f g f f f g f f f g g f ",
"f f g g g g f g g g g C ^ ^ 8 , 5 u { %.%.%.w.z. X$X8X0XeXsX6X7X2X'.x.M.v.c.r.h.<.z 7 9 9 f f f f f 9 7 7 9 9 9 g f g g ",
"7 f f g g g g f 7 g 0 S ! P 2 2 * : M ( [ i.t.B..X0XiXrXuXdXdXsXrX5X[.!.C.M.g.h.,.V 7 f 9 f f f f 9 7 7 9 9 9 9 f f g g ",
"f f g g g f g 9 7 7 7 l T X.9 < 1 y x ( _ n K 9.=X<X^.~.P.].{.'.W./.R.R.Q.Q.H.H.5.l 7 7 7 9 9 9 f f 7 f g g 9 9 9 f f g ",
"g g g g g g g 9 7 9 9 0 Z o.A % < : p d s s n ~ a.v.M.V.M.~.[.[. X[./.[.[.W.W.K...g f 9 9 f 9 9 9 7 7 9 f f f f f f g f ",
"g g g g g g g f f g g g C o.A >   O # y x ) q.c.>X<X9X9X9XwXyXyXwX4X9X4X4X'.(.E. .0 9 9 9 9 9 9 7 2 9 6 9 g g g g g g g ",
"g g g g g g g g g f g g S o.Z >   O = ( q.q.P.2XrXuX0X$X X8X9X9XqX$X0X4X#X|._.E.| q 6 6 2 6 2 2 6 7 2 9 9 g g g f g g g ",
"f f f f f f g g g g f l T / e + $ % k K q.m.>X2X$X8X#X&X6XiXpXdXdXrXqX.X[.].L.K.2.r 6 6 6 6 7 6 7 9 9 g g g g g g g g g ",
"f 7 f 7 7 f f f f f g V O.^ , X O % 5 n 0.N.,XwXrXuXpXdXsXsXeX6X#X'.U.J.l.l.d.7.6.D 7 6 2 9 9 g f f 9 f g 9 9 9 f f f 9 ",
"f f 9 9 7 7 7 7 9 6 q U ;.z * * 1 h 5 ] s.;X,X#X%XOX3X6X+XXX_._.U.L.G.l.n.g.g.f.4.F 7 2 2 g g f 7 9 6 9 9 9 6 9 9 9 9 9 ",
"9 7 7 7 5 6 7 2 6 6 V ..R @ * p i i x [ 9.x.H.).}.OX,X7X%XXX_.I.I.U.G.k.v.g.x.g.>.G 7 7 7 f g f 2 6 6 9 9 9 9 9 g f 9 9 ",
"7 6 6 6 6 6 6 6 7 9 Z <.O.2 * = p d c c ` M.R.$XeX6X%X%X#XXXXX_._.{.J.x.g.v.v.f.! l 9 7 7 9 g f g f g f 9 g g 9 9 7 7 7 ",
"7 7 7 7 7 9 7 9 g g B :.8.J 7 ; ; y x ' s.!.<X6XeX7X5X5X9X4X(._.}.}.W.G.l.g.r.r.~ z 9 9 f f g g g g g g g 9 9 9 7 6 6 6 ",
"9 9 9 9 9 9 9 9 9 9 0 D Y ^ U 0 5 s x } P.<X;X[.[.;X!.b.b.M.x.J.W.|.oX}.|.[.j.r.1.F g g g g g g g g 9 g g 9 9 9 9 9 7 9 ",
"9 9 7 7 6 6 2 9 9 9 6 9 l  .>.H i H &.0.c.m.d.o.O.} #.' @.u.a.M.J.'.{.%X$X0X4XB.1.F g g g g g g 9 9 9 9 9 9 6 9 9 9 7 6 ",
"6 7 7 2 6 6 6 6 6 0 9 9 0 U r.$.{ [ ' ) A x h g 3 n [ @.@.i.Z.A.A.P./..X@X8X8X`.;.B 0 f f f f f 9 9 9 2 9 6 6 6 6 6 6 6 ",
"6 6 6 7 6 6 9 9 9 g g 9 j Y :.$.' s k & t t h t u d @.@.%.&.&.0.u.p.c.P.).XX8XT.E j 7 7 7 f 7 7 6 6 2 9 2 6 6 6 6 6 9 2 ",
"6 6 9 9 9 9 9 9 f f f 9 g G ;.J 3 X # % & h x b _ @.u.s.s.Z.Z.s.p.0.e.t.x.`.`.F.Y 6 6 6 7 6 6 6 6 6 6 2 6 2 6 5 6 9 7 6 ",
"6 7 g f 9 9 9 9 7 7 7 9 9 V ;.z X   O < < t i s i.S.-X:X1X1X:XD.a.$.=.$.y.E.Y.6.r 6 6 6 5 6 2 9 7 6 6 7 9 9 9 f 9 9 f f ",
"6 9 9 9 9 2 9 6 7 9 f f 0 q F G , % $ = t h x q.A.D.=X=XC.C.M.C.e.9.=.$.>.5.-.D q 7 6 6 6 9 9 9 9 9 9 9 9 9 f f f g g g ",
"7 7 9 f 9 9 9 9 9 f f f f 9 z Q Z , . % * * : s L c.g.n.y.g.M.*XD.S.S.a.w.U V 7 9 7 2 6 9 9 9 9 9 g g g g g g f f g g g ",
"7 7 f f g f 9 9 f g f 7 7 7 0 V R 4 o - * 3 3 H o.G.G.G.G.g.v.b.p.a.j.w.Q l 0 9 7 7 9 9 9 9 6 9 7 g g g g g g f f 9 f f ",
"9 7 9 f 9 9 7 9 f f g f f 7 7 B -.r o O : s v L n.].].|.,X^.v.p.e.y.1.2.W j 9 9 9 9 9 9 g g 9 9 f f g g g g f f 7 9 9 9 ",
"f f 7 7 9 6 7 7 9 g g g f f f j D r @ X 3 x } b.;X<X4X5X>XP.v.e.y.h.,.W B 9 9 6 2 9 6 9 g g g g g g g g g g f 7 7 9 9 f ",
"7 7 7 6 6 6 6 6 7 g g g f g g g z D w a b } b.*X*X;X~./.Q.G.l.v.h.;.D q 9 2 6 6 9 2 6 9 g g g g f g g g g f f 7 9 f f g ",
"2 6 6 6 7 7 6 7 9 g f 7 7 f f g j z G H v ' %.q.s.s.t.V.J.l.l.J.5.W q 6 6 6 6 6 2 9 9 9 j g g f g g g g f g f f f g f g ",
"7 6 6 9 9 9 g 9 9 7 7 7 7 7 7 7 g g z / J L &.=.i.0.*.y.l.l.J.7.1.I 7 6 2 9 9 6 6 6 2 9 9 f g g g g g f g g g f f g g g ",
"6 6 9 g f f f f f 9 7 7 6 7 7 7 7 g j G ^ ..8.e.*.*.*.w.g.H.k.3.U 0 7 7 9 g 9 9 9 6 7 2 7 9 f f g g f f f f f f f f f f ",
"6 9 g f f f g g g g f g 9 f g g g g g j C U Q >.1.+.>.>... .P C g 9 9 0 g g g g 9 9 f f f f g f g f 9 f 7 7 9 7 f f 9 7 ",
"7 9 f f g g f g g g g g f g g g g g g g g j j B R R R G B l j g g g f f f f g g g g f g g g g g g g f f 7 7 2 9 f f f 9 ",
"9 9 f f f f f g f g g g g g f g g g g g g g g g 9 0 q g g g g g g f 9 9 g g g g g g g g g g g g g g g g f 7 7 f f f f f ",
"9 f g 9 9 7 9 f f f g g g f g g f g g g g g g f 9 9 9 9 g f g g 9 9 7 9 9 f f g g f g g g g g g g g g g f f f f f f 9 f ",
"0 f f 9 2 9 7 9 9 9 f f g g g g g g g g f g g 9 9 9 9 9 0 f g f 9 7 7 9 9 9 9 f g g f g g g g g g g g g g g g f f 9 7 9 ",
"9 9 9 9 9 g g g 9 9 9 9 g g f f g 9 g 9 g g g 9 9 6 9 9 9 9 g 9 9 7 f g 9 9 9 9 f f g g g g f g g g f f f g f g f 9 9 9 ",
"9 9 9 9 9 9 g g f f f f f g g 9 9 6 9 9 9 f f f 0 9 9 9 9 9 9 9 7 9 f g g f 9 9 g g g f g f 9 2 9 2 9 9 9 9 g g f f 7 f ",
"9 6 6 6 2 9 g g g f g f g g g f 9 2 6 6 9 9 9 7 9 9 9 9 9 6 6 6 7 2 7 g g g g g g g g g f f 9 9 9 f g g f f f g g f 9 9 ",
"6 6 6 2 9 9 g f g g g f 9 f 0 9 9 9 9 6 2 2 9 2 2 9 2 6 6 6 6 2 2 9 7 g g g g g f g g f g g f f f f f g g g g g g 0 9 9 ",
"6 6 9 9 9 g g g g g f 9 2 9 9 0 g 9 9 9 9 7 7 6 6 2 6 6 6 6 6 9 9 9 g g g g g g g g g g g g g g f f g g 9 9 g 9 9 9 9 g ",
"g g 9 9 9 0 g 9 f g 9 9 9 2 2 9 9 9 9 g f g g g 9 6 6 6 9 9 g g g 9 g g 9 g g g 9 g 9 g f g f g g g f f 9 9 9 9 9 6 6 9 ",
"9 9 9 9 9 9 9 2 2 9 9 9 2 9 9 2 6 6 9 6 7 9 f 9 9 6 6 6 g g 9 6 9 9 9 9 9 2 9 9 9 9 9 9 9 f f 9 f f 9 7 9 2 2 9 6 6 6 6 ",
"9 9 6 2 2 9 9 0 g g g f 0 9 9 9 7 7 7 7 7 7 9 9 9 6 6 9 g 9 9 6 2 6 2 9 9 9 g 0 9 9 9 9 9 2 9 9 9 7 9 2 6 6 6 2 6 6 6 6 "
};
