/* XPM */
static char *result[] = {
/* columns rows colors chars-per-pixel */
"60 60 236 2 ",
"   c #313E24",
".  c #5A1E0A",
"X  c #5C2612",
"o  c #572D19",
"O  c #49381D",
"+  c #55301D",
"@  c #63280B",
"#  c #6D300D",
"$  c #76340C",
"%  c #642C13",
"&  c #672C16",
"*  c #6B3517",
"=  c #753814",
"-  c #7A3C15",
";  c #72341A",
":  c #4A3729",
">  c #563524",
",  c #5E3D2A",
"<  c #533F30",
"1  c #6A3223",
"2  c #693926",
"3  c #65342B",
"4  c #743A25",
"5  c #3B462A",
"6  c #7C4018",
"7  c #454A28",
"8  c #56432A",
"9  c #494833",
"0  c #564536",
"q  c #514E31",
"w  c #5B5234",
"e  c #67422D",
"r  c #77412D",
"t  c #7A432E",
"y  c #7E4C2B",
"u  c #7A5528",
"i  c #674933",
"p  c #6E4F3A",
"a  c #7E4630",
"s  c #774C37",
"d  c #7C4A34",
"f  c #7D4E3A",
"g  c #6C523B",
"h  c #75573A",
"j  c #7D533C",
"k  c #6C5F46",
"l  c #755942",
"z  c #7B5D46",
"x  c #7B6449",
"c  c #84450D",
"v  c #874A18",
"b  c #925918",
"n  c #854924",
"m  c #8B5322",
"M  c #88542B",
"N  c #8B5C2D",
"B  c #965827",
"V  c #804731",
"C  c #814832",
"Z  c #824F39",
"A  c #83543C",
"S  c #875A39",
"D  c #8C5A3B",
"F  c #935C36",
"G  c #9A632F",
"H  c #99652C",
"J  c #8C6438",
"K  c #976636",
"L  c #936B37",
"P  c #9B633A",
"I  c #9B6B3B",
"U  c #A46629",
"Y  c #A76A36",
"T  c #A46C34",
"R  c #A57136",
"E  c #AC723B",
"W  c #AE7B3D",
"Q  c #B27335",
"!  c #B87B38",
"~  c #845640",
"^  c #855A42",
"/  c #855D49",
"(  c #945945",
")  c #856245",
"_  c #85634C",
"`  c #8A644B",
"'  c #8D6D4D",
"]  c #966647",
"[  c #9C6942",
"{  c #9A7446",
"}  c #94754E",
"|  c #876551",
" . c #8C6B53",
".. c #896A55",
"X. c #926E52",
"o. c #8B7756",
"O. c #8D725B",
"+. c #947553",
"@. c #967B57",
"#. c #A36C44",
"$. c #A26D4C",
"%. c #A57B4C",
"&. c #AA7948",
"*. c #B47E46",
"=. c #A57955",
"-. c #B47E56",
";. c #8D7661",
":. c #8D7B66",
">. c #9B7767",
",. c #917B63",
"<. c #937D6B",
"1. c #947E72",
"2. c #BD873B",
"3. c #C08C39",
"4. c #8F8156",
"5. c #9C8453",
"6. c #998656",
"7. c #92835A",
"8. c #9D835C",
"9. c #AA864B",
"0. c #AC844C",
"q. c #B58444",
"w. c #BB8346",
"e. c #B4844A",
"r. c #B48B4C",
"t. c #BA8948",
"y. c #A88755",
"u. c #A38B54",
"i. c #AC855C",
"p. c #AC8D5C",
"a. c #B58254",
"s. c #BA8555",
"d. c #B38B54",
"f. c #BD8C53",
"g. c #B5855A",
"h. c #B38C59",
"j. c #BB8C5B",
"k. c #A99055",
"l. c #B79256",
"z. c #96826C",
"x. c #98876A",
"c. c #938A6A",
"v. c #8F8571",
"b. c #948273",
"n. c #928774",
"m. c #9B8575",
"M. c #9C8C75",
"N. c #9D8C7B",
"B. c #9C927B",
"V. c #99957C",
"C. c #AD8865",
"Z. c #A38C6D",
"A. c #AB8D6B",
"S. c #B38D64",
"D. c #BC8E64",
"F. c #B68968",
"G. c #AC9264",
"H. c #A6936B",
"J. c #AE936B",
"K. c #BB9563",
"L. c #B89565",
"P. c #B49569",
"I. c #B2996D",
"U. c #BA9D6C",
"Y. c #A68A75",
"T. c #A48C74",
"R. c #A59374",
"E. c #AC9573",
"W. c #AC9975",
"Q. c #A4957D",
"!. c #AA947B",
"~. c #A4997B",
"^. c #AC9B7D",
"/. c #B39572",
"(. c #B39C74",
"). c #BB9A73",
"_. c #B2967C",
"`. c #B6987A",
"'. c #B4A07E",
"]. c #BCA47A",
"[. c #C18750",
"{. c #C2925D",
"}. c #C39566",
"|. c #C49569",
" X c #C49C6C",
".X c #C99B6A",
"XX c #C49978",
"oX c #C5A57B",
"OX c #D2A777",
"+X c #D2B27C",
"@X c #9D9A86",
"#X c #9E968B",
"$X c #A29484",
"%X c #A69A82",
"&X c #AA9B85",
"*X c #AB9C8B",
"=X c #B49C83",
"-X c #BA9883",
";X c #B19C8A",
":X c #9CA58C",
">X c #9FAD99",
",X c #A7A18A",
"<X c #B2A384",
"1X c #BEA685",
"2X c #B8A88A",
"3X c #A7A496",
"4X c #B5A997",
"5X c #BBAD92",
"6X c #B0B296",
"7X c #B3B597",
"8X c #BDB59C",
"9X c #B9ADA8",
"0X c #A8B5A1",
"qX c #CAAA86",
"wX c #D1A78A",
"eX c #C8B186",
"rX c #D3B48D",
"tX c #D8B789",
"yX c #D5AD90",
"uX c #C4B593",
"iX c #C9B698",
"pX c #C4BA9C",
"aX c #D9B994",
"sX c #D5B799",
"dX c #C4ACA2",
"fX c #CAB9A7",
"gX c #D5BAA3",
"hX c #C4B8B5",
"jX c #B3C4B0",
"kX c #CEC4AF",
"lX c #D0C9AF",
"zX c #CDC4B2",
"xX c #D5CBBA",
"cX c #E3C3B1",
"vX c #D3CEC8",
"bX c #D8D6C8",
/* pixels */
"C C C V V V V V C C C C C C C C C C C C C C C C a a a a a C V V C C C V a a a t a f V a V V V Z V V V C C C C V V t t a ",
"C C V t r r t t C a C C C C C C C C C C C C C C C C a 4 4 V 4 a V V a C a a V V a 4 t 4 t V V V C C C C C C C V a t a t ",
"V C V t t V C V 4 a V V C C C C C C V V C C C ~ C C C a C 4 a 4 r r t a r r r r r 4 t t t V V V C C C C C C C C V V V C ",
"a a V a V V C V V V V V C C C C C a C 4 4 a a 4 a a C a f Z 4 f t a 4 4 r r r r r t r t a C C V C C C C C V C C C C C f ",
"t a r r r V V V C C C V C C C C C 4 4 C C a 4 d 4 r f C V V C C C f 4 a t t a 4 V a V V V V V V V V V V C V V V V V V V ",
"r r r r r t C C C C C C C C C C C C a C C C C 4 a a 4 4 a a a C C C f 4 r 4 a C f a a a V a t a a V V V V V V V V V V V ",
"r r r r t V C C C C C C C C C C C C C C C C C a f 4 a t C 4 a a V V f r r t a V a r t r r t t V a a V a V V a a a a a a ",
"t V V C C V C C V C C C C C C C C C C C C a C a C f a a a a V 4 a V 4 r r r a f a a t a a V V V V V a a r r r 4 r r r t ",
"C V a a C a a 4 C C C C C V V C V V a a a a a r t t r r r 4 r r C 4 d l 4 V a a a a a 4 a a V a a r r r r r r t t r r t ",
"C a r r d 4 4 d C d Z 4 C C V 4 a a a a a a r r f C f f f f a f 4 4 4 4 4 4 4 a 4 4 a a 4 a a a a a a r t t t 4 t V V V ",
"C a a a a a C d C C C 4 l 4 4 d 4 a r d d f z | 1.1.1.1.1.1.1.| z l d d C 4 4 4 t d V V C C V V V V V V V V V V V V V V ",
"A C C a V C C a C C 4 d 4 d 4 4 4 d f _ :.b.M.N.N.#X#X$X#XN.m.1.:.;...| ~ l C a a d V d 4 a a V V V V V C C C V f V V V ",
"C C a a C a 4 a 4 ~ 4 4 4 ~ 4 d l ..<.m.N.$X~.R.R.(.(.E.Y.Y.Y.Y.Y.m.b.1.1...Z C a V a 4 a a 4 a a a V V V V V V V C V V ",
"r a a d a a a a V V V V ~ 4 C ~ ,.N.$X$X@X%X~.R.W.H.J.J.A.A.C.C.A.Y.Y.Y.M.1.;./ Z d C C a a Z V a a V V C C V V V V a V ",
"r 4 a r 4 a 4 a V V C V V a ~ ;.B.%X*XQ.%X<X4XpXpXpX5X<XE.A.C.S.h.h.h.P.E.T.x.,.| a a 4 a a C C V V V C C V V a a t r t ",
"V a a 4 a a d a V V C C V ~ ( m.$X^.^.<X7XkXxXbXvXzX4X2X_.E.P.L.l.d.r.d.p.G.T.m.<.z f d a V C C V V V C C V V a 4 t r r ",
"C V V V C V V V a C C C C A @.T.E.(.1XpXxXbXbXvXhX9X<X;X*X;X^.(.P.L.k.l.l.k.G.Z.M.z.| d t V C C C C C C C V V V V t t t ",
"C C C C V C C C C C C C Z ) x.S.a.i.G.'.4XpX8X4X4X;X_.^.;X;X^.W.E.W.U.+X+XU.I.A.R.B.V.,.A V C V V C V C C C C C C V V V ",
"C C C C C C V C C C C C A ' 5.I m B R j.XXI.I.J./.P.p.H.^.5XpXpXiXqXG.I.].].1X_.!.Q.%XV.' V a a V C C C C C V C C C C C ",
"C C C C C C C C C C C a Z ] } N v v Y s.K.U.K.h.K.j.r.l.U.].oXtXaXaXqXqX`.^.=X=X_.^.,XV.o.d t a V C V V V C V V C C C V ",
"V V C C V C C V C C C C C D +.] F [ g.XXyXwX+X.X{.s.W E *.s.t.f.{.OXaXrXiX<X!.!.qX8X0X:Xo.A V V C V t t V V V V C V V C ",
"t V V C C C C V V a V V C Z ' Z.Y./.XXwXwXF.=.] F B c c v B U U Q e.j.).`.`.=X^.2XlXzX0Xn.A V V V V t t t t t V V V C C ",
"V V C C C C C V t t t t t C / <.Y.-X).F.=.D y - ; ; $ $ $ = $ v b E W e.h.J.^.<X3X0XjX0Xv.f t V V V t V C V t V V V V C ",
"C C C C C C C t t a V C C C ~ ;.Y.Y.-.] S F F D ( ( #.&.$.] K G N H R &.h.P.W.,X@X>X>X:X:.d V a t t t V V C C V V V V C ",
"C C C C C C C V V C V C C C A ` z.H.{ L 0.y.h.S.|.`.].].XX).oXL.C.C.J./.].(.W.^.@X,X@X,.j a a r t r r t V C C C C C C C ",
"C C C C C C C V C C C C C V a A o.c.4.p.).OX+X+X+XwXrXrXrXqXtXoXoXqX5X<X^.'.5X6X3X3Xz.f r a 4 r r r r t V V C C V C C C ",
"V V V V V V C C C C C C t t V Z o.V.~.<XiXqX Xh.d.-.a.a.s.-.{.D.qXsXcXfX8X4X3X3X3X3Xb.d 4 t 4 a t t V C C C C C C C C C ",
"V t V t t V V V V V V V t r r a _ B.%X=X`.S.[ K M - - 6 6 n Y [ [ =.P.1XfXkXfX9X9X:X1.l r a V C C V V V C t V V V V V C ",
"V V V V t t r t t t t r r r r t ..R.E.S.%.K n % X X X * @ # = - v m K { C.-XsXdX3X#X:.f t V C V t t a r t r t t V V t t ",
"V t r r r r r r r r r r t t t f O.M.A.%.m c = & % * e ; - n F B T R H m M ( X.>.$X1./ 4 r C C V t r r a V V C C C C C V ",
"r r r r r r r r t t t t a a t j o.n.A.i.=.#.P - ; * % * n E *.w.t.q.*.T n n Z e p ../ 4 4 V C V V V V V V V C V t t t t ",
"t t t t V t V t C C a t V C C f _ 7.M.Z.A.F.C.$.$.` y C F B Q *.t.f.f.e.G = ; 2 3 p | Z V V C C C C C C V V V t t r r r ",
"V t V V V t t t C C r t t C C C Z ` c.n.N.&X;X-X-X-XY.T.6.{ R Y w.f.{.f.q.N # % + , g ^ C C C C C C C V V V C V a V t t ",
"V t t t t r t t t t t r t t a t C Z A  .B.4XfXxXcXgXuXuXeXoXD.s.f.s.a.0.T T B * o + e p ~ C C C a a a a a a t r r t V t ",
"r r t r r r r r t C t t r r r t t t a  .%X9XfXgXwXoX XU.U.P.S.D.|.}.h.g.I m G I S > + 0 z C C V a a r r r r r r r r r r ",
"r r r r r t t t C C C C C a a a t a Z  .B.;XY.( [ &.0.0.0.{ J N I &.*.a.g.R N I } ' h 8 0 p z a r r r r r r r r r r r r ",
"r r t V V V C V C C V C V C V V C C C ^ +.x.) M #.D./.D.h.g.q.E U b b B s.j.y.5.;.| l l > < 8 j 4 a r r t t t r r t t r ",
"4 t C C t t V t t t r t t V C t t t C C ^ @.5.=.-.-.-.=.] K G T Q Q Q Q G I 8.+./ f 4 l + 3 8 h s a r r t t t t V V V V ",
"t t V V t r r r t a a V C C C V a y t t Z } u.y.$.] ~ 3 * * = = m m B Y B H 5.' C 4 l s + 4 2 e z z j Z V V V V C C C V ",
"t t V C C V V V V V C V a a t r t r r r j @.5.S 4 & X & 4 n F P P P B v v u o.' ~ 4 4 l + 1 3 3 0 9 w A C C C C C C C C ",
"t V V V C V t t V C V t t r t r r r r t ) 4.h * @ . % v L 2.9.d.D.g.e.&.I J O.~ d a h g O > > : : 9 9 k Z a C C V V V V ",
"t t t V V V V V V C C V V t t t t r t C ) 4.u @ @ * M &.q.r.l.d.g.j.{.j.i.@.` C V f k 7 O i h : 0 k 5 q A C C t t V t t ",
"V V V t r r r t V C C C V V C C V V C C ) +.J v - M -.}. XU..X.Xj.e.q.h.J.x./ a 4 s 0 7 w ) k   q ..x z A C t t t V V V ",
"r t t r r r r r t C C V V C C C C C C C A +.+.F B Q f.f.}.|..XOX.Xt.e.y.z.;.z r 4 l l l A j k   q ) Z Z C C C V V V C C ",
"r r r r r r r t V C V V V V V C C C C V d D +.{ Y ! 3.2.2.t.[.{.j.p.y.7.o.z d r r t a Z Z Z A h j C C C C C C C V C C C ",
"r r t t a V C V t r r t r r t V V C V V r a ) } &.w.2.3.2.2.2.e.k.6.' ~ f a 4 a r r r t t C C C C V C V V C C C V C C V ",
"r t V C V V V V C C t t r r r t a V V V a a d ) 5.k.q.q.t.t.q.9.u.} j a a C C a t r r r t t V V V V V V V V V V V V V V ",
"r t C C V V C C C C V V V V V V V C C C V a t s S } 5.k.k.9.u.u.} A C C C C C a C a V V C V C C V V V V t t t t V V V r ",
"r t V C C C C C C C C C C C C C C C C C V C V V d ~ ..;.@.o.7.+.S C C C C C C V C V C V C C C C C C V V V t 4 t V V V t ",
"V V C C V V V C C C C C C C C C C C C C C C V V r t ~ ~ A A A A C a C C C C C C C C C C C C C V C V C C V t t C V C V C ",
"C C V V t a t C C C V V C C C C C C C C V V V V a a V C C C C C a t t C C C V C V C V C C C C C C C C C V V V C V V V V ",
"C C V r r t t a 4 V V V C C C C C C C C V V V V a a V V C C C C t t t t t t t V C C C C V C C C C C C C C C C C V V r V ",
"a a a a a V C C V a a V C C V V C C C f C C V V r t a a t V V f V t V C C t V t V C C C C V V V V V V C V V C C C V r V ",
"a a a d t V C C V V V V C V C V 4 4 a C V V V V V a a a V V t a t t V C C C C C V C V C C V V t r V t t V t C C C V t V ",
"a 4 4 r r a C C C C V V V C C V Z 4 4 C 4 d 4 a a a V C t t r r r t t C C C C C C V C V V V t t V V C C V V C C C V t V ",
"4 a a a 4 a C C C V C V V V V C C Z 4 ~ 4 C 4 4 r r r 4 a 4 r r r r t C C C C C C C C C C C V V V V C C C C C C C C V C ",
"t 4 a d V C C C C C V a 4 4 ~ ~ C C C V a 4 a 4 a a t r a a r r t V V C V C C C C C C C C C C C C C V C V V V V V V V V ",
"f C C V V ~ V V a V Z 4 ~ 4 4 4 4 C V C C f Z C r 4 r r 4 a C C C C V V V V V V V V V V C C C C C C V V t V t V t r r r ",
"C a 4 d C 4 4 4 4 a V V 4 4 4 d d 4 4 a a a V C d r r t C C C C t t t t r r t V V V t V V V V V C C V 4 t r r r r r r r ",
"C a d 4 4 d Z C C C C V V V ~ 4 4 t t a a 4 a f a r r t V C a 3 t r t a V V C C V V V t t t r t t t r t r r r r r r r r "
};
