/* XPM */
static char *result[] = {
/* columns rows colors chars-per-pixel */
"60 60 227 2 ",
"   c #571816",
".  c #601F13",
"X  c #5C2D0B",
"o  c #5A2A13",
"O  c #59241B",
"+  c #62280C",
"@  c #6F350C",
"#  c #652B13",
"$  c #672917",
"%  c #6C3314",
"&  c #693419",
"*  c #6C391E",
"=  c #733413",
"-  c #723A19",
";  c #7A3A1A",
":  c #5F3524",
">  c #6C2A22",
",  c #6B3224",
"<  c #733D21",
"1  c #7C3C23",
"2  c #72362B",
"3  c #7F431D",
"4  c #6B472C",
"5  c #6E4C2B",
"6  c #754323",
"7  c #7A4C24",
"8  c #77412D",
"9  c #7A432E",
"0  c #7E4630",
"q  c #7D4A34",
"w  c #7D4E39",
"e  c #7F523C",
"r  c #7A5B3E",
"t  c #7E5741",
"y  c #863D1A",
"u  c #863F22",
"i  c #844A0F",
"p  c #83481A",
"a  c #8C581F",
"s  c #97591D",
"d  c #834325",
"f  c #844B27",
"g  c #884A2B",
"h  c #934D20",
"j  c #8D5328",
"k  c #975826",
"l  c #804731",
"z  c #864737",
"x  c #814832",
"c  c #834F38",
"v  c #855639",
"b  c #83533C",
"n  c #855C3C",
"m  c #955431",
"M  c #955B34",
"N  c #996228",
"B  c #826534",
"V  c #8F643C",
"C  c #946334",
"Z  c #9F6233",
"A  c #92633B",
"S  c #9C6839",
"D  c #A56A2B",
"F  c #A36939",
"G  c #A37035",
"H  c #A97332",
"J  c #A4753C",
"K  c #AB753C",
"L  c #B27A35",
"P  c #835742",
"I  c #855B43",
"U  c #8A5C44",
"Y  c #845F49",
"T  c #876449",
"R  c #8B644B",
"E  c #8C6B4B",
"W  c #926447",
"Q  c #946D4B",
"!  c #8D7144",
"~  c #977142",
"^  c #96744D",
"/  c #8B6B53",
"(  c #8E6D59",
")  c #946B51",
"_  c #8E7254",
"`  c #8D745B",
"'  c #8D795C",
"]  c #937354",
"[  c #967A54",
"{  c #9A7855",
"}  c #91775F",
"|  c #937C5C",
" . c #A77649",
".. c #B57D45",
"X. c #B17C4B",
"o. c #AA7350",
"O. c #AC7C53",
"+. c #A57C59",
"@. c #8C7662",
"#. c #937A66",
"$. c #927D64",
"%. c #99845C",
"&. c #AC864C",
"*. c #B7864C",
"=. c #AA885A",
"-. c #B88A57",
";. c #BA905C",
":. c #8D836B",
">. c #948364",
",. c #9F8461",
"<. c #988A65",
"1. c #97836A",
"2. c #9A856C",
"3. c #93886F",
"4. c #99946F",
"5. c #8E8D74",
"6. c #948D73",
"7. c #9A8C7B",
"8. c #96947B",
"9. c #9D937B",
"0. c #A98765",
"q. c #A58D66",
"w. c #AB8B63",
"e. c #A48F6C",
"r. c #B48C65",
"t. c #BC8E63",
"y. c #B58C69",
"u. c #A5916D",
"i. c #AB9468",
"p. c #AC936D",
"a. c #B59164",
"s. c #B4926C",
"d. c #BF916E",
"f. c #A48D76",
"g. c #A88D70",
"h. c #AD9374",
"j. c #AC9874",
"k. c #A4947B",
"l. c #AC937C",
"z. c #AC997C",
"x. c #B29475",
"c. c #B49B73",
"v. c #BA9976",
"b. c #B2947C",
"n. c #BB957B",
"m. c #B59B7A",
"M. c #BAA57B",
"N. c #9C9484",
"B. c #9E9A84",
"V. c #999788",
"C. c #9E9B90",
"Z. c #A38981",
"A. c #A29383",
"S. c #AA9583",
"D. c #AD9C83",
"F. c #AA978A",
"G. c #A39889",
"H. c #A49C8C",
"J. c #AC9B89",
"K. c #B29585",
"L. c #B39B8B",
"P. c #B69B89",
"I. c #A49F96",
"U. c #AB9C92",
"Y. c #B39B9A",
"T. c #9BA18A",
"R. c #A8A288",
"E. c #B3A382",
"W. c #BAA484",
"Q. c #B5A38C",
"!. c #BAA98A",
"~. c #A5A193",
"^. c #AAA297",
"/. c #B6A994",
"(. c #BBAC95",
"). c #B3AB9A",
"_. c #BCAB9A",
"`. c #A9B09C",
"'. c #BCB394",
"]. c #BAB79A",
"[. c #ACA4A2",
"{. c #A9AAA4",
"}. c #B3ABA3",
"|. c #BAAFA3",
" X c #ACB2A0",
".X c #BBB4A5",
"XX c #B8B5A7",
"oX c #BEBAA4",
"OX c #B5B5AC",
"+X c #BBB9B1",
"@X c #C3A385",
"#X c #C5AA88",
"$X c #C3AB99",
"%X c #C4B394",
"&X c #C4B29A",
"*X c #C7B89A",
"=X c #C3AEAC",
"-X c #C4B2A3",
";X c #C3BAA4",
":X c #C8B7A8",
">X c #C4BBAD",
",X c #D0B4A3",
"<X c #C8BDB0",
"1X c #BFC09C",
"2X c #BFC1AC",
"3X c #C8C09E",
"4X c #C8C3A7",
"5X c #CAC1AC",
"6X c #D4C7AC",
"7X c #DFD0AF",
"8X c #CFC6B0",
"9X c #C8C6B6",
"0X c #CCCBBB",
"qX c #D7C9B7",
"wX c #D3CCBB",
"eX c #D6D5B7",
"rX c #D7D6BA",
"tX c #DBD3BC",
"yX c #E7D9AF",
"uX c #E4D7B5",
"iX c #CCCFC1",
"pX c #D6CCC2",
"aX c #CED1C1",
"sX c #D3D5C4",
"dX c #DAD6C3",
"fX c #DEDBCD",
"gX c #E4D6C0",
/* pixels */
"x x x l 0 9 l l x x x x x x x x x x x x x x x l 9 f 9 9 l l l l x x x x 0 9 9 9 l x l l 0 x l x x x l l x x x x l 0 0 0 ",
"x x l 9 9 9 9 l l l l x x l x x x x x x x x x x l l 0 9 9 9 9 0 9 9 x x l l l 9 9 9 1 9 0 0 x x x x x x x x x l 0 9 9 9 ",
"l x l 9 9 l l 0 9 9 9 l x l x x l l l l x l l l l l l 0 9 9 1 9 8 9 8 9 9 9 8 8 8 8 8 8 8 0 x x x x x x x x x x 0 l l l ",
"0 0 l 0 0 l x l x x l l x x x x l l l 9 9 9 9 9 0 l l l 0 q 9 9 8 9 8 8 9 8 8 8 8 8 8 9 0 x z l x x x x x x x l x x x x ",
"9 9 9 8 9 0 l l x x x x x x x x l 9 9 9 l l 9 9 8 9 0 0 0 0 z x x 0 9 8 8 8 8 9 0 0 0 l x l 0 l l x x x x x x x l x x l ",
"9 8 8 8 9 9 x x x l x x x x x x x 9 l l l l 9 9 8 8 8 8 0 0 0 0 x x 0 9 8 8 9 c q 0 0 0 0 0 9 0 0 l l l l 0 0 l l l x x ",
"8 8 9 9 9 0 z x x x x x x x x x x l x x l x l l 0 0 0 8 9 9 0 0 x l 9 9 8 8 0 0 0 8 8 8 9 9 0 0 0 0 l l 9 9 9 9 0 0 l 9 ",
"9 0 0 x x 0 x x l l x x x l x x x x x x l l l l 0 0 0 0 9 0 8 0 x 9 9 8 8 8 9 q 0 0 0 0 0 0 0 l l l 9 l 9 9 9 9 < 9 9 9 ",
"x x 0 0 0 0 9 9 9 0 l l x 9 l x l l l 0 0 q 9 8 9 9 9 8 8 8 8 8 9 8 8 8 8 8 9 9 9 9 9 9 0 0 l 0 0 9 9 8 8 8 8 8 8 9 8 9 ",
"x 9 9 9 9 9 9 0 0 0 0 0 0 9 0 9 9 0 0 0 0 0 2 9 8 8 8 8 8 8 8 8 8 8 8 8 8 8 8 8 2 8 9 0 9 0 0 0 0 9 9 9 9 9 8 9 9 9 l 9 ",
"c 0 9 0 l l l l 0 0 0 0 9 8 9 8 9 1 9 8 8 8 1 0 9 0 9 9 9 9 9 8 2 9 8 8 8 9 9 9 9 9 0 l 0 0 0 x l l l l l l l l l l x x ",
"b x 0 0 l l l l 0 0 8 9 8 8 8 9 8 9 8 8 8 0 l l 0 x q x x x q 0 0 0 0 0 9 9 9 9 0 x 9 0 9 0 0 0 l l x x x x x x l x x x ",
"x l l l x l 9 9 0 0 0 2 0 8 9 9 9 q 0 0 l x c b b n U U U U T I n b q 0 0 x x 0 x x 0 9 0 0 0 0 9 9 l l l x x x x x l x ",
"9 9 9 9 0 l 0 0 l l l 0 0 0 9 0 0 0 l w P T ] $.$.>.$.>.2.1.2.2.>.| T e 9 9 9 9 0 l 0 0 0 0 0 0 l l 0 l x x x l l l l 9 ",
"9 8 8 8 9 9 9 9 0 l x x 0 x x l l c I ( @.` ,.w.w.e.e.e.p.e.p.h.u.4.<.] v x 0 0 0 9 9 9 0 0 x x x l l x x l l l 9 9 8 9 ",
"0 0 9 8 9 9 9 9 l l x x 0 0 0 c P ( #.7.7.f.g.p.p.c.c.m.m.x.x.s.i.=.q.%.Q n 0 9 8 8 8 8 9 x x x x x x x x l 0 9 9 9 8 8 ",
"x l x l x x l l l x x q 0 0 q I #.7.F.G.A.k.m.W.).].&X&X_.J.f.0.-.&.&.&.&.^ e 0 8 8 9 8 9 0 x x x x l x x l l l 0 0 9 9 ",
"x x x x x x x l x x l x 0 0 e @.N.I.U.F.S.Q.&XtXsXdXtX0X>XU.f.[ K H G D F ~ E T r 0 0 0 x x x x x x x x x l x x l l l l ",
"l x x x x x x x x x x x x b ` 8.A.S.F.L.P.(.*XtXsX0X9XeX9X_.j.=.-.*...K S f 5 r %.R x x x l 9 0 l x x x x x x x x x x x ",
"x x x l x x x x x x x x x U 3.B.F.K.K.K.D.P./.qX0XXX2XoX=X_.z.;.*...X.F 3 X o 4 E ] e 9 9 9 0 0 l x l l l x l 0 x x x x ",
"l l l x x x x x x l x x x T 6.H.J.l.x.x.z.(.-XpXsXaXpX9XpX6XW.;.*.F m ; % $ $ 0 n { b 9 0 x l l x l 0 9 0 0 0 0 l l x x ",
"0 0 l l l x x l l 0 l l l b ` 9.f.h.x.m.E.%X*X;X2X5XXX.X).P.h. . .F f g l 0 z U +.) c l 0 x l x l 0 9 9 0 0 0 0 l l x x ",
"l l x x x x l 0 9 9 9 0 l l U #.k.h.b.v.!.%X%X3X1X].].'.7.1.| ~ S y % + > > , W 0.R 9 9 9 0 0 0 0 0 0 0 x l 0 0 0 0 l x ",
"x x x x x l l 0 9 0 0 l x c R 1.k.b.P.,X4X7XyXyXrXrXeXeX:X!.m.w.O.j = +   O $ r ,.U l l 0 l 0 0 0 9 0 0 l l l l l l x x ",
"x x x x x x x l 0 x x x x b $.9.Z.K.P.Q.'.3XuXtXrXrX9XwXtXqX,Xn.r. .Z g $ + o 5 [ I 0 0 0 0 0 0 2 9 8 9 0 x x x x x x x ",
"x x x l x x x x x x x x x b @.N.A.F.L._.oX:X7XuXdXfXiX0XqX6X=X@Xa. .k p - & o 4 [ R 9 8 8 8 2 < 8 8 9 9 x x x x x x x l ",
"l l l l l l x x x x x 0 l q E $.N.F.H.~.)./.'.4X0XgXdXrXtXgXqX,Xv.;.H s @ + + < n [ I 8 8 8 9 9 9 0 0 x c x x x x x x l ",
"0 0 0 9 9 l l l x x 0 0 9 9 w T :.7.V.~.~.B.N.H.XX+X2XoX-X-X|._.c.=.L L F u & # - E ' 9 8 8 l l x 0 x 0 l 0 0 0 l l l l ",
"x 0 0 0 9 9 9 9 9 9 9 8 8 8 8 9 w t #.V.C.I.I.Y.[.^.`.).:X.X}.^.z.=.H D k 1 u ; % r ` q 9 9 x l 9 9 0 9 9 9 9 9 0 0 0 0 ",
"0 9 9 8 9 9 0 < 8 8 8 9 9 9 9 9 q q P ( G.[.[.[.}.}.}.oX8X5X+X XR.s.J s h m m $ 3 [ ' w 9 l x l 9 8 9 0 9 l x l l l 0 0 ",
"9 8 8 8 8 8 2 9 9 9 0 9 q q 9 9 2 0 t @.I.[.[.OX<X<X5X6XqXtXsXiX].l.o.k u u 1 * e %._ q 9 l x l 0 9 l l l x l l 0 9 9 9 ",
"0 9 8 0 9 9 0 0 x 0 0 9 0 0 0 0 0 t $.V.{.OXOX-X/.W.!.W.%X6X8X8X:X@XX.M g y ; ~ %.W v 0 l l x x x x x x x l 0 9 8 0 < 9 ",
"0 9 0 0 0 0 9 0 0 0 8 9 0 0 l l w ` 8.`.9XOX`.~.c.s.y.r.s.d.b.m.x.s.-.O.M 7 W 0.] c x x x x x x x x q l l l 0 0 l 9 9 9 ",
"0 0 9 9 9 8 8 9 9 0 8 8 8 8 0 0 b ` 6.`.).C.R.R.m.t.t.-.X.Z C C A C  . .O.O.=.p.| c x x x x x x 0 0 0 0 0 0 9 9 9 9 9 l ",
"8 9 9 8 8 8 8 8 9 x 0 0 9 2 8 0 0 e 1.T.~.J.R.z.n.d.;.K H D s i 3 @ $ d M +.y.u.` 0 x x x x x x 0 9 < 9 9 8 8 8 8 8 9 9 ",
"8 8 8 8 9 8 9 0 0 x x 0 0 0 0 0 0 0 Y 6.B.G.j.e.0.r.a.-.*.H D D Z u . . # 6 Q <.E 0 9 9 9 9 9 9 0 2 0 8 8 8 8 8 8 8 8 8 ",
"8 8 9 0 0 x 0 0 l l l x 0 0 x x 0 0 c R 2.2.f.f.s.v.!.%X#Xs. .p ; ; >     O r $.n 9 8 8 9 9 8 8 8 8 8 8 9 9 9 9 9 9 9 9 ",
"8 9 x x 0 0 0 0 9 9 9 9 0 0 0 0 0 9 0 c b U #.h.c.#X%X*X$X@XO.h 1 m z O O : / _ q 8 8 8 9 8 8 8 8 8 9 8 9 9 9 l 9 l l l ",
"8 9 l l 9 9 8 9 9 9 0 x 0 0 0 0 0 0 0 0 0 0 T 9.s.i.j.q.{ W 6 $ > 2 2 * & E >.E 8 8 8 8 9 9 9 9 0 0 f l 9 l l l x x x x ",
"8 9 l x 0 0 0 0 x x c x 0 0 9 0 8 8 8 9 2 0 Y N.M.M.M.c.w. .g z 2   o X 7 ! _ q 8 8 8 9 9 0 l x x x 0 x x x x x x x x x ",
"l 9 l x x x 9 0 x x x 9 9 9 9 9 9 8 8 9 8 q / 9.R.!.*X'.!.v.O.W x 1 % % V ^ n 0 9 0 9 0 l 0 9 0 9 x x x x x x l l l x x ",
"9 9 9 l 0 x 0 9 l x x x l 9 9 9 9 9 9 9 9 w 1.B.R._.;X;X:X&X@X=.C p = 7 ^ ] x 0 9 0 0 x x x 0 0 l l x x x x l 9 9 l 9 9 ",
"l l 9 9 9 9 9 9 9 x x x x l l l l l l 0 9 q @.C.U.Q.Q./.=X=X$Xn.X.j j A ) v 9 9 9 9 9 0 x x x x x x x x x x l 9 9 l 9 x ",
"9 9 8 9 8 8 8 9 9 x x x x l x x x x x l 9 c / V.F.S.h.l.Y.Y.Z.R N a C { b 9 8 8 8 8 9 9 x x x x x x x x x x l l l l x x ",
"9 8 8 8 9 8 9 9 0 x l 9 9 l l l x x x l 9 q r 8.z.s.w.s.K.K.b.+.G a ^ Q 9 9 8 9 8 8 9 0 z x x x x x x x x x x x x x x x ",
"8 8 9 9 0 x x 9 0 9 9 9 9 9 9 9 x x x 0 8 q t 4.j.w.w.p.l.K.b.=.~ B ] n 9 9 8 8 8 8 9 9 0 0 x x x x x l x x x x x x x l ",
"9 9 0 l x x l x x 0 9 9 9 9 9 9 0 x x 0 q 8 w >.u.i.E.F.F.S.f.e.>./ P 0 0 l x 9 9 8 9 8 9 9 x x x l l l l l x l l x l l ",
"8 9 l x 9 x x x x x l l 0 l x l x x x 0 0 q q T %.4.~.C.C.N.f.$.' b q 0 x x x x 0 x x x x 0 x x x l 9 l 9 9 9 9 l l 9 9 ",
"8 9 x x x x x x x x x x x l x x x x x x x x l 0 T ' 5.5.$.} ) b e 0 x x x x x x x x x x x x x x x x l l 9 9 9 9 l x l 9 ",
"0 l 0 x x 0 x x x x x x x x x x x x x x x x l l q q r P b c c x x 0 x x x x x x x x l x x x x x x x x x l 9 9 l l x l x ",
"x x 0 0 0 9 0 l l x x l x x x x x x x x x x l l 0 x 0 c l l l x x 9 9 0 x x l x x l x l x x x x x x x x x l 9 l x l 9 l ",
"x x 0 0 8 0 9 9 9 0 l l x x x x x x x x x l l 0 9 0 0 0 l l x l 9 9 9 9 9 9 9 l x x x x x x x x x x x x x x x x x l 9 l ",
"0 x x 0 9 l x l l 9 l l x x x x l l l x x l l l 9 9 0 0 0 0 l 0 l 9 x x x 9 0 0 l l x x x l l x x x l x l x x x x 9 9 x ",
"l 0 9 9 0 l x x l l l l x x x 9 9 9 9 0 l l l l 0 0 0 0 0 0 0 0 9 9 l x x x x x l x x x x l l 9 9 9 9 9 9 l x x x x 9 x ",
"9 9 8 8 8 0 x x x x x x x x x l 9 9 9 8 9 9 9 0 9 0 0 9 0 9 8 8 9 9 9 x x x x x x x x l l l 9 9 l l x x l l x x x 0 9 x ",
"8 8 8 8 8 9 z x x x x l 9 l x x l 0 9 8 6 9 8 9 8 8 8 9 9 2 8 8 < 9 9 x x x x x x x x x x x l x l l x x x l x x x x x 0 ",
"8 8 9 0 0 q c l x l l 9 9 8 9 9 l x x x l 9 9 9 9 8 8 8 8 8 8 9 0 0 0 c x x x x x x x x x x x x x x x x x l l 0 x 9 x x ",
"x x x 0 0 0 l l l l l l 9 9 8 9 9 9 l l x x x x 9 8 8 8 0 l x x l l l l 0 0 x l l l l l x x x x x x l l 0 9 9 0 9 9 9 9 ",
"l 0 0 9 9 0 2 0 9 9 9 l 9 9 9 9 8 8 9 9 9 9 x x 0 8 8 8 x x 0 9 0 q 0 1 9 9 9 9 x 9 9 9 9 x l x 0 x l 9 8 9 8 8 8 8 8 8 ",
"l 9 8 8 9 0 0 0 x x x x x 9 9 9 9 9 9 9 9 9 9 9 9 8 8 9 l l 0 9 2 2 0 q 0 x x c x x x 0 9 9 9 9 9 9 8 1 8 8 8 9 8 8 8 8 "
};
