/* XPM */
static char *result[] = {
/* columns rows colors chars-per-pixel */
"60 60 236 2 ",
"   c #57240C",
".  c #5A230C",
"X  c #492C1E",
"o  c #5A2514",
"O  c #5B2A12",
"+  c #592A1A",
"@  c #67280D",
"#  c #71370F",
"$  c #642617",
"%  c #632D13",
"&  c #6C2C15",
"*  c #6A2E18",
"=  c #693419",
"-  c #7A3718",
";  c #723C1A",
":  c #4A2F25",
">  c #592D25",
",  c #483724",
"<  c #533425",
"1  c #523927",
"2  c #5A3729",
"3  c #712F20",
"4  c #663827",
"5  c #763827",
"6  c #7A3B22",
"7  c #683730",
"8  c #394529",
"9  c #47432A",
"0  c #55452B",
"q  c #4A4630",
"w  c #534D34",
"e  c #594833",
"r  c #4D5536",
"t  c #7D4325",
"y  c #77412D",
"u  c #7A432E",
"i  c #6C4D38",
"p  c #7E4630",
"a  c #734935",
"s  c #7D4A35",
"d  c #7D4E39",
"f  c #6B543F",
"g  c #69563E",
"h  c #76513A",
"j  c #7D543D",
"k  c #654C42",
"l  c #6C5746",
"z  c #765A42",
"x  c #795A45",
"c  c #7A6147",
"v  c #766554",
"b  c #843C1E",
"n  c #84431B",
"m  c #834525",
"M  c #864A28",
"N  c #8A4A2C",
"B  c #904B24",
"V  c #8C5229",
"C  c #925424",
"Z  c #97582F",
"A  c #804731",
"S  c #814832",
"D  c #8B4E31",
"F  c #824F39",
"G  c #885637",
"H  c #8C5A34",
"J  c #83533C",
"K  c #965937",
"L  c #9C5B33",
"P  c #88633B",
"I  c #9D623B",
"U  c #9A653B",
"Y  c #A4673A",
"T  c #A3713C",
"R  c #AC763E",
"E  c #845640",
"W  c #845B43",
"Q  c #8A5D44",
"!  c #895D48",
"~  c #876348",
"^  c #85634B",
"/  c #8A634B",
"(  c #8C694E",
")  c #956A47",
"_  c #9C734C",
"`  c #876853",
"'  c #8C6B54",
"]  c #936C55",
"[  c #8B7155",
"{  c #8D745A",
"}  c #8E7A5E",
"|  c #957758",
" . c #93755C",
".. c #927B5C",
"X. c #A66A47",
"o. c #AA7244",
"O. c #AC774C",
"+. c #A47A4A",
"@. c #B3794A",
"#. c #A57B55",
"$. c #AA7854",
"%. c #B27D51",
"&. c #8E7F65",
"*. c #977B66",
"=. c #9B7D63",
"-. c #A07E64",
";. c #99815D",
":. c #B3854D",
">. c #AD8B53",
",. c #A3825C",
"<. c #AA8759",
"1. c #B68659",
"2. c #B48B5C",
"3. c #AD945E",
"4. c #B69056",
"5. c #938263",
"6. c #9C8A66",
"7. c #95856B",
"8. c #988969",
"9. c #968D75",
"0. c #9A8C74",
"q. c #9B9373",
"w. c #9C927A",
"e. c #999979",
"r. c #A48663",
"t. c #AB8765",
"y. c #A58D62",
"u. c #AB8C64",
"i. c #A38C6C",
"p. c #B48D65",
"a. c #B98D67",
"s. c #B28D6C",
"d. c #A49265",
"f. c #A6926C",
"g. c #AD9569",
"h. c #AC926D",
"j. c #B49464",
"k. c #B3926C",
"l. c #B99768",
"z. c #BA966A",
"x. c #B29A6E",
"c. c #AE8D73",
"v. c #B08F71",
"b. c #A39472",
"n. c #AC9473",
"m. c #AC9973",
"M. c #A2957A",
"N. c #AC957C",
"B. c #A4997C",
"V. c #AB9A7B",
"C. c #B29674",
"Z. c #BB9574",
"A. c #B39C73",
"S. c #BC9B72",
"D. c #B5967B",
"F. c #B29B7E",
"G. c #9BA17D",
"H. c #BDA16F",
"J. c #B7A277",
"K. c #B5A27B",
"L. c #C2946A",
"P. c #C29E79",
"I. c #CBA474",
"U. c #C5A478",
"Y. c #9B9B83",
"T. c #A39683",
"R. c #AC9583",
"E. c #A49A83",
"W. c #AC9B85",
"Q. c #A59C8B",
"!. c #AB9C8B",
"~. c #B39B82",
"^. c #B79D87",
"/. c #AB9F94",
"(. c #9DA180",
"). c #ACA188",
"_. c #B4A284",
"`. c #BCA483",
"'. c #B3A28C",
"]. c #BAA48B",
"[. c #BEA98A",
"{. c #A5A494",
"}. c #ADA293",
"|. c #ACA69B",
" X c #ADA89A",
".X c #B3A592",
"XX c #BAA691",
"oX c #B3A996",
"OX c #BCAC93",
"+X c #B4A699",
"@X c #BCAB9C",
"#X c #AAB59D",
"$X c #BBB397",
"%X c #B4B29F",
"&X c #B5AAA1",
"*X c #BBADA1",
"=X c #B5B1A3",
"-X c #BBB8A4",
";X c #BBBCA5",
":X c #B7B3AB",
">X c #BCB5AA",
",X c #C3AC8D",
"<X c #CAAC88",
"1X c #C9B38D",
"2X c #C2AC93",
"3X c #C4AC97",
"4X c #C7B394",
"5X c #C4B29A",
"6X c #D1BD98",
"7X c #C0AEA1",
"8X c #C2B4A4",
"9X c #CBBBA4",
"0X c #C1B6AA",
"qX c #C3B9AB",
"wX c #CBBDAA",
"eX c #D0BAA7",
"rX c #C4BBB3",
"tX c #C9BDB3",
"yX c #C6BBB9",
"uX c #BCC1A9",
"iX c #D4C49D",
"pX c #C4C2AC",
"aX c #C9C3A8",
"sX c #D2C7A6",
"dX c #C5C3B4",
"fX c #CDC4B4",
"gX c #C6CAB4",
"hX c #CAC8B9",
"jX c #CDCBBA",
"kX c #D4CBBB",
"lX c #D9C8B8",
"zX c #D5D0BC",
"xX c #DBD2BF",
"cX c #CDD0C2",
"vX c #D9D3C3",
"bX c #DBD5C4",
/* pixels */
"S S S A p u A A p S S S S S A S S S S A S S S A u A A u A A A A s S A A p p u u A S A u p p A S S S A A S S A S S u u u ",
"S S A u u u u A p p A S S S S S S S S S S A S S S A u y y u u A p p p S p p A u u u u u p p A A S S S S S S A S u y A u ",
"A S A u u A A A p p p p S S A S S S A A A A A A A S S A u u 5 u 5 p y u u u u y y y u 5 p p S S S S S A S S S S A A A A ",
"p p A p p A A A S S p S S S S S A A u u A u u u u A A A A S u u y u y y y y y y y y u u p S S S S S S S S S S S A S A S ",
"p p y y u p A A S S S S A S S A A u u u A u u y y u u A A S S F S p u y y y y u p p p S S p p p S S S p S A A A S S S S ",
"5 y y y u u S A S S S S S S S S A A A A A S u u y y y u u u A A S S p u y y u S p p p p p p u p p p S p A A A A A S S A ",
"a 5 5 p p s F s s S A S S S S S A S S S S S A A A A u u u u u u p A p y y u p S p u y y u u p p p p p p p p p u u A A u ",
"s s s S F ^ l k x E S S S A S S S S S A S A A A A A A A u u u A p p u y y y p p p p p p p A p S S p p p p 5 u u y y y u ",
"S p p s ` v v e : h F p p A p S A A s p p s p y y y u y y y y y u y y y y y u u y u u u p S S S p u y y y y y y y y y u ",
"S p p x 8 8 w : : i E s p u u p u u p p p u 5 y y y y y y y 5 y y y y y y y y y y u u u u u u u p p u y u u y y u u A S ",
"S A p c r 9 , > > 2 z x s y y y u u 5 p y y u u u u u y u y u u u y y y y u y y y u A A p S S S A A S p A A A A A A A S ",
"J S A x c c i 2 > 7 < 0 i u y y p 5 u u u u p S A A S A S A A A u u u p u u u p u S S u u u p p A S S S S S S S S S S S ",
"S A p S J c 0 2 7 7 > , h d u u y p p p A A A S S S S p A S S S p p u u p A S S S S A y u p p p u p A A A A S S S S S S ",
"u p u s x w 9 , < < < , w z j S p S p p p s S S s J S F S S S S S S p p u u u u A A S u p S p p u p A A S S A S A A A u ",
"u 5 y u 9 8 w h x W W l w q f J S S S p d W ^ / / { {  .' / / / W J J S S S S p A u u u u S S S S S S S A A A A u u u u ",
"p p p y 0 r h d S F F E k q , f E S J E [ 5.7.9.9.w.0.w.M.w.w.w.9.7.{ ' E s u u y y y y u S S S S S S S S A p u u 5 u y ",
"S A S S s s A A A S S S x e 1 , l j / | 6.d.h.V.M.M.b.E.E.Q././.Q.T.w.q.5.( W d y y u y u p S S S S S S A A A A p p u t ",
"A S S S S S S S S S S S F z 1 2 < g ..,.u.2.p.k.V.OXOXOXoX X+X+X*X3XOXOXV.0.5.[ j p p p S S S S S S S S S S S S A A A A ",
"S S S A S S S S S S S S A E 0 X 2 0 ( +.Z I Y #.i.!.oX%X%X=X>XcXzXxXxXlX4XV.b.q...Q S S S A p u A A S A S S A S A A S S ",
"S S S S S S S S S S S S A Q ^ 4 y y d K L Y @.#.r.XX-XrXhXcXcXhXgXpXiX$X]._.m.f.f.[ j s u u p p A S A A A S A A S S S S ",
"A A S S S S S S S A A S A ! -.p $ 5 3 X.@.:.4.3.n.,X7XtXdXdXdXuXdXpX$X_.K.D.D.n.b.q.^ s p p S S S A A u u p p p S A S S ",
"u A A A S S S A A A A A A !  .J 5 5 & Z Y T >.3.u.`.eXlXkXfXbXbXzXsXsX,X_.`.].V.w.e.[ S p p p S A p u u p p p p A A A S ",
"A A S S S S A A u u u u p E *.! 3 3 5 L Y R T U #.P.<X4X2X^..XXX^.'.[.K.J.`.~.W.B.e.[ s p u p S A p u A S S p p p A A S ",
"S S S S S S A u u A A S A S ] ' u * 5 m C C C Z ) t.C.F.~.W.'.2X2X5X[.,X2XOX}.}.{.0.W S p p p p p u u p A A A A A A S S ",
"A S S S A S S A A S S S A S ' *.y . . . # Z Y $.c.!.$XpXaXaXsXzXlXvXtXtXtX0X=X|.{.0.W p p u p u u 5 y y p S S S S S S S ",
"S S S S S S S S S S S S S S ] *.=   . % D @.%.L.2XqXjXgX;X#X;XpXfXfXyXyXyXyX>X|.{.w.` s y y y 5 y u y p p S S S S S S S ",
"A A A A A A A S S S S p S J *.] = O   u K %.L.`.5X-X;X;X;X;XjXzXvXvXkXfX0X@XXX^.E.9.[ a y y u u p p p S S S S S S S S A ",
"u A u A u A A A A A p p p ` *.! %     ; H $.z.2XwXfXfXxXvXkXkXhXdX0X@X.XW.R.V.n.b.e.} d y y p A p p p S S p p S A A A A ",
"S A A A u u y u u p y y E | ] 5 * ; u t U ,.J.5X8X8X8X0XrX>X=X|.|.|.Q.E.V.V.m.h.d.q.} d u p A A u u u p u p y p u A A u ",
"A u y u y y y y y y y s ` | S & A 6 m V T ,.m.W.!.+X@X&X>XyX:X&X|.{.Q.Y.b.V.n.z.C.b.{ d u A A A u y y p p p S p S A A A ",
"y y u y y y y y u u u F ] u.P ; & - B L L ) c.W.@XqXtX0X0X0X:X&X|.|.+X/.).F.C.z.x.i.^ u u p S A p A p A S S p p A u u y ",
"u u u u u u A u p S p s ` r._ H 4 - b B Y t.F.@XwXfXfXwX9XwXwX*X+X+X+X|.Q.R.n.k.g.i./ p A A S A A A S S S p p p u y y y ",
"A u A A p u u p p p u u J ~ ] | P t N D X.n.3X5X@XOX2X,XH.z.Z.D.~.W.+X=X X=X5X`.n.q...J S S S S S S p S S p S u S A u u ",
"u A u u u u u u p u y y y s ~ ;.;.J D O.1.p.Z.c.6. .#.<.+.+.1.j.Z.~._.oX-X>XqX9XOXe.[ G S S S S S p p p S u u y u u u u ",
"y u y y y y y y u S p u y u d 5.h.#.#.@.X.Y K Z G V M o.:.:.4.3.H.J.K._.$X=X=XgX;Xe.( S A S A A p u y y u y y y y y u y ",
"y y y y y u u p A S p S A A J 6.i.t.~ H - b - m M n n +.:.>.>.3.3.g.h.f.V.). XuX#X8.J p u u u u u y y y y y y y y y y y ",
"y y u u S S S S A A A S A A Q =.=.j % % @ @ b K I o.Y >.l.x.J.J.S.k.k.Z.c.D.). X{.&.d u u y y y y y u y u u u u u u u y ",
"5 u S S p u p u u u u u u A F  ...4     & 3 - m m +.L.U.1X6XiX6X<XP.a.a.u.c.B.).Y.[ s y y y y y u u 5 u u u u m A S A A ",
"u u S A u u u u u p p A S S S Q  .h = O % 6 m M $.L.<X<X<X~.K.A.H.l.2.4.p.3.q.9.[ j u y y u A u u p u S p p S A S S S S ",
"u u S S S p u p A S S A p p u s ' ' s O O & # & m H -.Z.~.N.f.x.U.I.I.I.H.d.;.^ s u y y u A A A S S S S S S S S S S S S ",
"u u A A A A p p A S S u u u u u J { h + + ; - ; H X.s.D.N.~.n.x.S.z.S.Z.x.6./ S p p p p p p u p u S S S S S S A A A A A ",
"p u p A A p p u A S S S A u u u p ' { 7 + * N H P r.F.].XX4X4X^.C.v.v.f.q.8.W S p p p s A S p p A A S S S S S u u p p u ",
"A A u u u u y u u S S S A A S A A Q ..i o & D ) u.`.5X9X9X9XXXR.N.R.W.M.8.` s u 5 y u p S S s A S S S S S S A y u p p A ",
"u u u y y y y u u S S S A S S S A S Q W h K X.a.H.[.XX^.XXXX'.R.R.!.E.5.^ s u y u y y s S A A A S S S S S S A A A A S S ",
"5 y y y u u y u A S u A u A A S S S S ~ ] ) I 1.j.C.F.V.~.~.R.B.T.(.e.[ s y y y y y p p S S S S S S S S S S S S S S A S ",
"u y y p p A A p p u u u u u u u S S S J | ..) _ 2.j.k.h.h.D.W.W.Y.G.8.W p u y y y y y u A S S S A A S A A S S S S S S S ",
"y y p S A A A A A p u u y y u u p S S S ~ [ 8.d.g.k.p.<.u.m.T.Y.e.5.~ s p A A p u y u u 5 A A A A A A A A A S A A S A A ",
"y p S S A A S S S S A A S A S S S S S s S G ( 5.6.y.3.y.d.0.0.7.[ J s p S S A A A p S S S A S S A A A A u u u u A A u u ",
"y p A S S S S S S S A S S S S S S S S S S S F G W [ } ..../ / G F s A A S A S S S S S S S S S S S S A A p 5 p u A S A u ",
"p p S S A A A S S S S S A S S S S S S S S S S S p s j F F F S S S S p p S S A S S S S S S S S S S S S S A u p p A S A A ",
"s S p A p u p A S A S S S S S S S S S S S S S S p p S s S S S S p s p p p A S S S S S S S S S S S S m S A A p p S A u A ",
"S S p u y p u u A u A S S S A S S S S S S S p p p p A p p A S A p 5 u p p p p p A S S S S S S S S S A S S A S s S A u A ",
"p s p p u A S A u u A A S S S A A S A S S S S p y u u p p p A A p p A S s p u p A A A S A A A S A A A A A A S S S p u p ",
"p p p p p A A S A A A S S S S p u u u u S p A S p p p p p p p p 5 p A A A A A A A S A S S A A u u u p p p p S A S A u A ",
"u u y y u p S S S S S S A S A A u u u y u u u u p p p u u u y y p 5 p A S S A A S S S S S A u u p A A S A S S S S S p S ",
"y y y y 5 p S S S S S A p p A A A A u y y u y u p 5 u y y y y y y p u S S S S A S S S S S S A A A A S S A S S A S p p p ",
"u y p p p s S S S A A p u u u p A S S S u u u u u y y y u u u u p p s S A S A S S S S S S S S S A A S S p p A S p p p S ",
"A S p p p s S A A A A p y y y y u u A A S S S S u u y y u A A A s p A A p p A A A A A A S S S S A S A A p p p u u u u u ",
"s p p p p u 5 p u p p u u y u u y y y y u A A A u y y u S S A u u p p u p y p p p p p u u S A A p p A u y u y y y y y y ",
"p p y 5 5 p s p A S S A p p p u u u u u u y u A u y y u S S u u 5 p 5 p p A s s A A p p u u u p p u p 5 y y y y y y y y "
};
