/* XPM */
static char *result[] = {
/* columns rows colors chars-per-pixel */
"60 60 242 2 ",
"   c #572B1F",
".  c #4E301D",
"X  c #6D3516",
"o  c #723A13",
"O  c #522F24",
"+  c #5C2F22",
"@  c #4A3A24",
"#  c #533324",
"$  c #563C2B",
"%  c #642C23",
"&  c #643428",
"*  c #7D491A",
"=  c #4C4428",
"-  c #4C492C",
";  c #54432C",
":  c #5C432F",
">  c #574635",
",  c #5C4D32",
"<  c #5E543E",
"1  c #61402C",
"2  c #77412D",
"3  c #7A432E",
"4  c #664B37",
"5  c #7E4631",
"6  c #764C35",
"7  c #7D4A34",
"8  c #7D4E38",
"9  c #655339",
"0  c #665739",
"q  c #6B523B",
"w  c #77563E",
"e  c #7D523B",
"r  c #675B47",
"t  c #7F5740",
"y  c #745C42",
"u  c #7B5B42",
"i  c #6D6544",
"p  c #746345",
"a  c #874D1E",
"s  c #9C5E1D",
"d  c #9E621F",
"f  c #8A5924",
"g  c #945C26",
"h  c #804731",
"j  c #814832",
"k  c #814E38",
"l  c #8C5536",
"z  c #82533C",
"x  c #9B622A",
"c  c #9A662A",
"v  c #89643B",
"b  c #996638",
"n  c #9A7035",
"m  c #A66829",
"M  c #AC7227",
"N  c #B0742F",
"B  c #A06635",
"V  c #AD7435",
"C  c #AB7838",
"Z  c #B37C39",
"A  c #845A44",
"S  c #855A45",
"D  c #885D46",
"F  c #8A6145",
"G  c #86624C",
"H  c #89634C",
"J  c #8E694D",
"K  c #996E45",
"L  c #9C784A",
"P  c #856652",
"I  c #8A6653",
"U  c #856C56",
"Y  c #8B6B55",
"T  c #906A59",
"R  c #8A7055",
"E  c #8E745B",
"W  c #8E7E5F",
"Q  c #947757",
"!  c #93745B",
"~  c #A57346",
"^  c #A97A4C",
"/  c #B77E4B",
"(  c #A67C52",
")  c #B07D5A",
"_  c #8D7661",
"`  c #8D7C64",
"'  c #8F7B69",
"]  c #927B64",
"[  c #947A67",
"{  c #BA8539",
"}  c #C18A39",
"|  c #99835D",
" . c #A9844A",
".. c #AF8C4A",
"X. c #B58745",
"o. c #B98345",
"O. c #B1824D",
"+. c #BA8549",
"@. c #BA8A4D",
"#. c #B4924C",
"$. c #AD8B55",
"%. c #A2855C",
"&. c #A88859",
"*. c #AD8C5C",
"=. c #B38351",
"-. c #BA8651",
";. c #B48B53",
":. c #BB8D53",
">. c #B3865D",
",. c #B28C5D",
"<. c #BA8D5B",
"1. c #AE9152",
"2. c #AE925A",
"3. c #B4915B",
"4. c #BC925B",
"5. c #88846B",
"6. c #978865",
"7. c #93846A",
"8. c #9B856B",
"9. c #9B896A",
"0. c #9F9368",
"q. c #8D8872",
"w. c #9A8473",
"e. c #968C73",
"r. c #9B8C74",
"t. c #958C7A",
"y. c #9A8E7D",
"u. c #96927F",
"i. c #9B937C",
"p. c #A38B63",
"a. c #AB8C64",
"s. c #A68A69",
"d. c #AB8D6C",
"f. c #B48B64",
"g. c #AB9364",
"h. c #A79368",
"j. c #A3926C",
"k. c #AC946B",
"l. c #B39363",
"z. c #BB9465",
"x. c #B49965",
"c. c #B2936A",
"v. c #BB946A",
"b. c #B59A6B",
"n. c #BB996B",
"m. c #A98B77",
"M. c #AC8D74",
"N. c #A38E7B",
"B. c #A29677",
"V. c #AC9374",
"C. c #AC9975",
"Z. c #A49479",
"A. c #AB947B",
"S. c #AD9C7C",
"D. c #B39574",
"F. c #BA9775",
"G. c #B39A74",
"H. c #B29479",
"J. c #B49B7A",
"K. c #BA9B7C",
"L. c #ADA077",
"P. c #B9A178",
"I. c #C18749",
"U. c #C08E53",
"Y. c #C79158",
"T. c #C59466",
"R. c #D29762",
"E. c #C19C76",
"W. c #C4A37C",
"Q. c #C9A778",
"!. c #9D8F81",
"~. c #979886",
"^. c #9C9A85",
"/. c #9C9E91",
"(. c #A59783",
"). c #AB9484",
"_. c #A39B85",
"`. c #AB9D82",
"'. c #A6968B",
"]. c #A39B8D",
"[. c #AC9B8B",
"{. c #B29782",
"}. c #B29C84",
"|. c #B29C8C",
" X c #BA9E88",
".X c #AC9D93",
"XX c #A99E9C",
"oX c #B99F96",
"OX c #97A28D",
"+X c #9AA28C",
"@X c #9DA393",
"#X c #9AA996",
"$X c #9DA19A",
"%X c #ABA383",
"&X c #A3A28A",
"*X c #A8A38B",
"=X c #B3A384",
"-X c #BAA383",
";X c #B4A38B",
":X c #BAA788",
">X c #BEAC8D",
",X c #A5A494",
"<X c #ABA393",
"1X c #A2A39B",
"2X c #A9A29A",
"3X c #A5A89A",
"4X c #ACAA9D",
"5X c #B7A897",
"6X c #B4AA9B",
"7X c #A4B094",
"8X c #BBB496",
"9X c #BEB49D",
"0X c #AEADA3",
"qX c #B6ACA3",
"wX c #BCB2A4",
"eX c #BAB6A7",
"rX c #BBBBA6",
"tX c #C5AA85",
"yX c #C5AC8D",
"uX c #D4AE80",
"iX c #C8B289",
"pX c #C2AF98",
"aX c #C2B196",
"sX c #CCB496",
"dX c #C2B59C",
"fX c #D3B999",
"gX c #C5BBA5",
"hX c #C6B9AA",
"jX c #D1BDA1",
"kX c #C5BEB3",
"lX c #C9BCB1",
"zX c #B9C1A6",
"xX c #D7C59D",
"cX c #D5C8AB",
"vX c #C2C1B2",
"bX c #C9C6B7",
"nX c #D6CAB7",
"mX c #D7D3BA",
"MX c #CCCFC1",
"NX c #D3D3C2",
"BX c #DCD2C1",
"VX c #DADACB",
/* pixels */
"j j j h h h h h h h h h j j j j j j j j j j j h 5 5 j 5 h 5 5 h j j j j h h & j j h h h h h h j j j h h j h j j h 5 3 5 ",
"j j h 3 2 2 3 3 3 h h j j j h j j j j j h h h j h h j & 3 5 5 5 j j j j h h j 5 h 5 h & 3 h h h j j j j j j j j 5 3 3 5 ",
"h j h 3 3 h j h 5 5 h h h j h j h h h h h h j l h h h 5 3 3 & h 3 & 2 3 3 h 3 5 5 h 3 & 5 h h h j j j j j h h j h h h h ",
"5 5 h 5 3 h j j h h h h j j j j h 5 5 h 5 5 h & 5 h h h h 5 3 h h j & 3 & h o 5 & o h j h j j h j h j h j j j j j j h j ",
"3 5 2 2 3 h j j h j j j j j j j h 5 5 5 5 5 o 5 h j j j h h j j j 5 5 h h & & 5 k j j j j j h h h j j j j h h h j j j j ",
"2 2 2 2 2 3 j j j j j h j h j j 5 5 h h h h 5 5 3 & 5 & h 3 5 j j j 5 & 3 5 j j j j j j h j 5 h 5 h h h h h h h j j j j ",
"2 3 2 2 3 h j j h j j h j h j j h h h j h h h j h h 5 j h 5 j j k j 5 2 2 2 5 j j j h & 3 & j h 5 5 5 5 j j h 5 j j j j ",
"3 h h j j h j j h h j j j j j j h h h j h h h j k S T T T T T H D S z 7 5 5 5 5 j & 5 5 h j j j h h h h j & 5 o & 5 5 & ",
"j j 5 5 j j 5 j h h h h h h h h j 5 j 5 7 7 z Y ! [ u.u.Z.N.N.[ [ [ ] Y G A 7 7 3 2 3 3 3 j j j 5 & j 5 5 & j & h & j 5 ",
"j 3 2 2 j & & j h h & h h j 3 3 5 5 5 5 z G _ t.i.(.%XL.C.V.H.M.M.M.s.9.7.' Y u 7 3 3 3 3 3 3 3 5 5 j & o 3 h 5 5 5 5 j ",
"j 5 5 5 5 j j j j j j j j 5 j & & h 7 A ' t.!.(.C.h.2.1.$.,.f.>.>.>.3.h.j.9.e.e.I e j h j h j j j j j j h h h h h h j j ",
"z j h h j j j j j j & h & 3 5 5 5 7 U ' t.'.A.k.$...#.#.1.l.f.T.E.T.x.l.p.B._.^.t.] S 5 3 3 5 j j j j j j j j h j j j j ",
"j j h h h h o 7 j j & h 5 o & j 5 A ' i.Z.k.4.X.X.@.3.n.G.=X;X8XaXyXiXP.J.V.A._.&Xi.E 8 3 5 5 3 h h h h h j j j j j j j ",
"2 5 3 h h h h h j j j h j j j j A ! r.B.k.,.@.X.X.;.c.J.5XwXkXNXNXmXmXcXyXJ.M.Z.`.&Xr.H j h j 5 h h h 5 j j h h h h 5 5 ",
"2 & h 3 & 3 3 3 h j j h j j k H ! 8.0.k.c.z.T.f.<.c.H.}.9XlXMXMXbXbXcXjXaXK.k.J.S.+X~.E A 7 j j h h h j j h h h h h 3 5 ",
"h 5 3 3 h h 3 h h j j j j j H [ Z.j.h.g.Q.Q.Q.v.v.K.K.;X;XgXkXrXrXlXhX:XD.k.s.d.=X&X+Xq.A j h j h h h h j h h 3 & h o 5 ",
"h j h h h h h h h j j j 7 7 E r.'.V.d.n.Q.E.3.l.E.Q.iX:XiXxXcXmXBXBXcXdX:X Xd.M.A.&X~.5.7 j k j j j j j j h h h h 5 3 3 ",
"j j j j j h j j j j j j j z ] ^.*X-Xc.f.c.P.Q.uXQ.E.x.k.h.b.G.:X;X;X;X;X`.J.J.V.A.&Xe.A j j j h j j j j j j j j h h h h ",
"j j j j j j j j j j j j j z 7.&X8XaXV.F.-XsXfXQ.:.;.;.$.g.G.k.P.P.P.>XdX5X=X=X{.Z.(.8.A j h 3 h h h j j j h h h h j j j ",
"j h j j j j j j j j j j j z 7.7XzX9X:X-XtX-Xg.L ^ $.f.n.tXfXfXxXxXcXnXmXnX9X;X}.[._.e.Y 7 3 h 3 h j h h h j h h h j j h ",
"h h h h j j j j j h j j h k 6.,XrXwXpXF.c.g.%.%.d.H.;X5XgXcXcXcXgXrXvXrXrX5X[.[.[.^.i.Y 7 5 h h j h h 3 3 5 h 5 j h j j ",
"h h h h j j j h h h h h h k J r.,X<X}.D.a.x.x.G.).XXqX0XqXbXmXmXMXVXNXzXeX6X[.[.'./.t.Y j 7 h j h h 3 3 5 5 5 5 h h j j ",
"h h j h j j h h 3 2 3 3 3 h k T +X&X). XE.G.J.;X.X2XqXkXbXvXMXNXBXnXhX6X6X<X.X.X/.~.q.A 3 3 3 h h 5 3 5 h j 5 5 5 h h j ",
"j j j j h h h h 3 h h h h h j D r.6X<X XK.F.tX8X5XhXqXhXhXqXwXwX5X2X.X.X^.'.<X*Xy.E S 7 7 h j h 5 5 3 5 j h h h h h h j ",
"j j j j j j j h h j j j j j k E ~.3X<X;XtXiXiXiXyX X{.{.pXpXqXoX.XXXXXXX$XOX^.7.D j h 3 3 3 3 3 o 5 5 5 5 j j j j j j j ",
"j j j h h j j j j j h j j j z ` ~./.6X>XK.n.$.L F F D D J s.H. X}..X2XXX$X$X' A h 3 3 2 3 2 2 3 j & j & 5 j j j j h j j ",
"h h h h h h j j j j j j h 3 k G Y e.i.g.L n g * o X X X o a g V #.*.B.<X$X@Xw.A 5 & 3 3 3 2 3 3 h 5 h j j j j j h j h h ",
"h 3 h 3 3 h h h h h h h 3 2 2 7 z W 6. .c m m x b b l B B m m M { $.j.<X1X$X/.t.H k 3 h & 3 j j j j h h j 5 5 h h h h h ",
"h h h h 3 3 2 3 3 3 3 2 2 2 2 5 H | ..m M V C o./ -.=.=./ ) / Z #.x.S.[.XX0X3X+Xr.H 5 2 & j j j h j 3 3 3 3 3 3 5 h 3 5 ",
"h 3 2 3 3 2 2 2 2 2 2 2 3 3 3 e Q a.O.Z V Z I.Y.+.:.Y.;.-.Y.U.U.3.D.=X[.XX0X4X#X/.7.e 2 3 h j j 5 & 3 5 5 h j j h h h 5 ",
"2 2 3 2 2 2 2 2 2 3 3 h 7 3 3 z E %.$.@.X.-.+./ I.@.;.$.;.;.@.<.f.F.{.{.|..X3X#XOXq.A 2 3 5 j h h h h h h j h 5 5 3 3 5 ",
"3 3 3 3 3 3 h 3 j j 3 3 h j 7 z R | *.O.C b b / R.Y.<.2.3.z.z.f.f.M.).)..X.X,X+X~._ z 5 h h j j j h j j j j 5 3 3 3 3 h ",
"h 3 h h 5 5 3 5 5 5 2 3 5 5 5 k J Q &.^ l K &.T.Y.^ ~ ~ %.K.tXK.H.m.)..X2X1X+Xr.H z j j j j j j h h h h h h 5 h 5 h 5 3 ",
"h 3 3 3 3 3 2 2 3 5 3 2 2 3 5 j z Q p.( ) c.( ~ b g b ~ f.tXsXfXsXpX*X].,X3Xi.D j h j h j j j j 5 5 5 5 5 5 3 3 3 3 3 5 ",
"2 2 3 2 2 2 2 3 3 j 5 3 2 2 2 3 j H 8.f.f.( b f g B / o.;.x.P.P.L.=X*X<X0X7X] z h 5 h h h j h h 5 5 & 5 & 3 & 3 & 5 o 5 ",
"2 2 2 2 2 3 3 5 j j j 5 5 5 5 5 3 z T s.K f g g V C C { ..2.k.S.%X:X5X5X4X#Xe.z j 5 5 2 3 3 5 3 5 5 j o 5 5 h 5 h 5 j & ",
"2 2 3 h h h k j j j j j h h h h j j I %.b s s s x d c  .3.k.V.%X%X%X|.2X3X,X' 8 5 h h & 3 2 2 2 h & h 3 j & h & 5 5 3 & ",
"& 3 j j h 3 w w p p i e 5 5 5 5 5 7 D Q v x M Z { I.:.l.J.aXpXhXwX;X[.'./.u.P 5 2 & 5 5 2 2 & 3 h & h 3 5 h h h 5 5 h h ",
"h 3 h h 3 8 0 : 4 1 : , 8 5 5 j j 5 A I Q  ./ } } { ;.G.dXBXlXwXwXoX|.'.t.P 7 3 3 & o 5 & h j j 5 5 5 h j j j j j j j j ",
"h 3 h h j w = # & X 1 - u 5 3 3 5 & t r _ a.@.{ N X.z.>XgXlXjX;X|.}.).N.P 5 & h h j 3 h j h h j h h j j j j j j j j j j ",
"3 h h h j e 0 # + % & $ 4 5 2 2 2 6 < > U s.>.;.T.Q.yX9X9X:XJ.V.G.h.h.j.A 5 5 5 h 3 & k k j 5 5 h h 5 j h j j j h 5 h h ",
"3 3 3 h 7 7 w 4 . + & $ : w 7 3 7 w @ $ 4 P s.c.W.W.:XS.S.d.c.g.k.g.p.Q j 5 5 5 h h j j j j j 5 h h j j j j j j 5 5 5 5 ",
"h h h 3 2 2 5 8 4 #   + $ 9 7 k e , ; ; 4 D ' 8.k.2.;.=.>.J.}.J.k.0.6.Q j 5 5 5 & 3 3 j j j j j j j h j j h h o 3 5 5 5 ",
"2 3 3 2 2 2 h & 7 4 #   # = A z y - ; , 8 8 S ! 6.2.:.=.>.A._.(.B.6.T S h & 5 o h 3 o j j j j j j j j j j j h h 5 5 j 5 ",
"2 2 2 2 & j 5 5 5 t 9 O # $ y y = - w e 7 3 5 z Q | 2.a.M.).'.i.i.E A 6 3 & h 3 5 5 5 j j j j j h j j j h j h h h j h j ",
"2 2 3 3 5 5 j j 5 7 6 4 # # O # , p 8 h 3 2 2 5 z i | r.N.r.w.] R e 3 2 3 3 5 3 & h & h j 5 j j j j j j j h h h h h j j ",
"2 3 h j j j j 5 5 5 5 t 4 O O > u k j h 5 2 2 5 i @ r U J H F z k 5 3 3 5 h h 5 h 5 & j o h j 5 h 5 h h h h 5 h h h h h ",
"2 3 j j 5 j j j j j 7 7 8 4 $ q k j j j h 5 3 6 i - p 8 j 3 7 j j 5 5 j j h h h h h j j k j j j h h h h 3 h 5 5 h h 5 3 ",
"2 5 h j j j j j j j j j j j p z j j j j j j h 7 p p 8 j h j j j j j h j j j j j j j j h j j j h j j h h h 3 o j 5 j h 5 ",
"5 h j j h h h h j j j j j j j j j j j j j j j h 7 7 7 h j j j j h 7 h h j j j j j h j j j j j j j j j j h 3 5 j j j h j ",
"h j h h 5 2 h h h h j j j j j j j j j j j j j j 3 j j j j j j j h h 3 h h h h j j j j j j h j j j j j j j j 5 5 j 5 h j ",
"h j h 2 2 5 2 5 h j j j j j j j j j j j j j j 3 3 h h h 5 h j h 3 2 2 3 3 3 h h h j j j j j j j j h j j j j j j h 5 5 j ",
"h h j h 5 h j h h & j j j j j j h h h h j j h h 3 3 3 3 h 3 j j h 3 j j j 3 h 3 h h j h j h j j j j j j 5 j j j j 5 & j ",
"h h 3 3 3 h j j h h j j j j j j 3 3 3 h h h h h h h 7 h h h h 3 3 3 h j j h h h h j j j j h h 3 & j j & 5 5 j j h h j j ",
"2 2 3 2 2 5 j j j j j j j j j j h 2 3 2 3 3 3 3 3 h 3 3 3 3 2 2 3 2 3 j j j j j j j j j h h 3 3 j j j j 5 j j j j h j j ",
"2 2 3 h & 5 j j j j j j j j j j h h 3 2 2 2 2 2 2 2 3 2 2 2 2 2 2 3 3 j j j j j h j j j j j h h j j j j j j j j j j j j ",
"3 2 3 5 h h j j j h h h & j j j h j j h 3 3 3 3 3 2 2 2 2 3 2 3 3 h h j j j j j j j j j j j j j j j j j 5 j 5 j h h 5 j ",
"j j h h h h j h h h h 3 j o 5 & 2 3 h h h h j j 3 3 2 2 3 j j j j h h j h h h h h h h h h h j j j j j j 5 5 5 3 3 3 & 3 ",
"j h 5 3 3 3 j & & h h 3 3 3 h & 2 2 3 2 3 h h h 3 2 2 3 j j 3 3 3 3 3 3 2 2 3 h 3 h 3 h h h j j j l j h 3 3 5 j & 5 h 3 ",
"h h h & 3 h j h l j j j h h h h 3 3 3 3 3 3 3 h 5 2 2 3 h h h 2 3 3 3 3 h j j j j h h 3 3 3 3 3 h & j o 5 j & & j o 5 3 "
};
