/* XPM */
static char *result[] = {
/* columns rows colors chars-per-pixel */
"60 60 236 2 ",
"   c #3B200A",
".  c #39261A",
"X  c #3F3930",
"o  c #541F0B",
"O  c #57220D",
"+  c #4B2B16",
"@  c #5C2414",
"#  c #533615",
"$  c #672E0F",
"%  c #6F320F",
"&  c #622C14",
"*  c #682B1A",
"=  c #673417",
"-  c #6A331B",
";  c #773917",
":  c #482D24",
">  c #44322B",
",  c #4A3429",
"<  c #53362C",
"1  c #563A2A",
"2  c #4A3737",
"3  c #763724",
"4  c #7D481C",
"5  c #564325",
"6  c #5C4738",
"7  c #77412D",
"8  c #784728",
"9  c #7A432E",
"0  c #704F2E",
"q  c #644A37",
"w  c #7E4630",
"e  c #724E34",
"r  c #7D4A35",
"t  c #7E4F39",
"y  c #7E533D",
"u  c #78583A",
"i  c #524C47",
"p  c #664E44",
"a  c #6C5548",
"s  c #775743",
"d  c #7D5641",
"f  c #6B5953",
"g  c #7C6A56",
"h  c #844415",
"j  c #84441C",
"k  c #844B1C",
"l  c #924C18",
"z  c #8F5117",
"x  c #946017",
"c  c #814422",
"v  c #854C20",
"b  c #884B27",
"n  c #934E22",
"m  c #8A5325",
"M  c #8A552A",
"N  c #925323",
"B  c #925429",
"V  c #995B2B",
"C  c #804731",
"Z  c #814832",
"A  c #824E38",
"S  c #8C5D32",
"D  c #83533C",
"F  c #87583A",
"G  c #A15C31",
"H  c #98632B",
"J  c #8A653B",
"K  c #946331",
"L  c #9F6434",
"P  c #9D693A",
"I  c #9E703B",
"U  c #A7672A",
"Y  c #A2652C",
"T  c #A8722F",
"R  c #A56A34",
"E  c #A96835",
"W  c #A16439",
"Q  c #A36A3A",
"!  c #A4723B",
"~  c #AA7A3A",
"^  c #B5783C",
"/  c #855741",
"(  c #855B44",
")  c #895D44",
"_  c #855F49",
"`  c #866045",
"'  c #86634D",
"]  c #88674A",
"[  c #8B654C",
"{  c #946C48",
"}  c #9C7243",
"|  c #977549",
" . c #8A6651",
".. c #866A55",
"X. c #8C6C53",
"o. c #876C59",
"O. c #916E55",
"+. c #8E7351",
"@. c #8D735C",
"#. c #927253",
"$. c #9A7757",
"%. c #9C7C55",
"&. c #93745A",
"*. c #957A5D",
"=. c #9A7A5C",
"-. c #A37344",
";. c #AA7343",
":. c #AC7A44",
">. c #A2774A",
",. c #AA784B",
"<. c #AB7D4C",
"1. c #B47E46",
"2. c #B77D4C",
"3. c #A47B56",
"4. c #A37E5B",
"5. c #B07F52",
"6. c #8F7561",
"7. c #8B7963",
"8. c #937B63",
"9. c #9C7D63",
"0. c #947C6B",
"q. c #947D73",
"w. c #A57D64",
"e. c #BB853E",
"r. c #8F8058",
"t. c #9D8459",
"y. c #AC834B",
"u. c #BA8545",
"i. c #B5834B",
"p. c #B5884B",
"a. c #B98C4F",
"s. c #BD924B",
"d. c #A68254",
"f. c #AD8354",
"g. c #A48259",
"h. c #AA845A",
"j. c #AC8C5D",
"k. c #BC8652",
"l. c #B38A54",
"z. c #B68A58",
"x. c #B38C5D",
"c. c #AD905A",
"v. c #B7925B",
"b. c #BB945C",
"n. c #9B8767",
"m. c #95836B",
"M. c #9E936F",
"N. c #8D8578",
"B. c #958573",
"V. c #948A75",
"C. c #9A8973",
"Z. c #96857A",
"A. c #958D7C",
"S. c #9C8B7A",
"D. c #95917C",
"F. c #9A937C",
"G. c #A68565",
"H. c #A38B65",
"J. c #AD8C62",
"K. c #A28C6D",
"L. c #AC8F6B",
"P. c #B48F62",
"I. c #AC9265",
"U. c #AC926C",
"Y. c #B59164",
"T. c #BB9463",
"R. c #B3936B",
"E. c #BA986C",
"W. c #A48C76",
"Q. c #AB9472",
"!. c #A6967B",
"~. c #AC967D",
"^. c #AC9B7A",
"/. c #B39571",
"(. c #B49A74",
"). c #B89A73",
"_. c #B3967A",
"`. c #B39B7B",
"'. c #BA9E7C",
"]. c #B6A174",
"[. c #BBA37B",
"{. c #C28F4B",
"}. c #CB9B4C",
"|. c #C59957",
" X c #C8A05C",
".X c #C59965",
"XX c #C19E73",
"oX c #C6A478",
"OX c #D1AA74",
"+X c #8C8482",
"@X c #978A86",
"#X c #999483",
"$X c #9B9A85",
"%X c #9D9D8A",
"&X c #A39584",
"*X c #AA9684",
"=X c #A59B84",
"-X c #AC9A83",
";X c #A6968D",
":X c #AA968B",
">X c #A49C8B",
",X c #AB9B8C",
"<X c #B39D83",
"1X c #B29D8D",
"2X c #A89991",
"3X c #9AA18C",
"4X c #A4A18B",
"5X c #AFA18D",
"6X c #B6A787",
"7X c #BCA485",
"8X c #B4A38D",
"9X c #BBA68B",
"0X c #A3A493",
"qX c #ADA292",
"wX c #A8A699",
"eX c #ABAB9A",
"rX c #B4A492",
"tX c #B9A794",
"yX c #B4A897",
"uX c #BCAB94",
"iX c #B4AA9B",
"pX c #BCAC9D",
"aX c #BCB195",
"sX c #B5B1A2",
"dX c #C7A688",
"fX c #C3AC8C",
"gX c #D5B68B",
"hX c #C4B496",
"jX c #CAB896",
"kX c #D0B692",
"lX c #C5BCA3",
"zX c #C8B8A7",
"xX c #D2C3AA",
"cX c #C8CAB6",
"vX c #DACAB6",
"bX c #E3CFB4",
/* pixels */
"Z Z Z C C C C C Z Z Z Z Z Z Z Z Z Z Z Z Z Z Z C 9 C C 9 C C C C r C w Z w w w 9 C C C C w w C Z Z Z C Z Z Z Z Z C 9 9 9 ",
"Z Z C 9 7 7 9 9 w C C Z Z Z Z Z C Z Z Z Z C C Z Z Z 9 7 9 9 9 9 w w w Z w w C C 9 7 7 7 w C C C Z Z C Z Z Z Z C 9 9 9 C ",
"C Z C 9 9 C Z C 7 w w C Z Z Z Z Z C C C C C C C C Z C C 9 7 9 9 7 7 9 9 7 7 7 7 7 7 7 7 w w Z C Z Z Z Z Z Z Z Z C C C Z ",
"w w C w C C Z C C C C C Z Z C Z Z C 9 9 C 9 9 9 9 C C C C C 7 9 9 7 7 9 7 7 7 7 7 7 7 7 w Z Z C Z Z Z Z Z Z Z Z Z Z Z Z ",
"9 w 7 7 7 C C Z C Z Z Z Z C Z Z C 9 9 9 C C 7 7 3 9 w r C C Z Z Z r 7 w 7 7 7 w C w C C C C C C C C C r Z C C C Z Z Z Z ",
"7 7 7 7 7 9 Z Z Z Z Z Z Z Z Z Z C C C C C C C 7 r r 3 3 9 C C Z Z Z C 3 7 3 w Z C w C C C w 7 w w w C w C C C C Z Z Z Z ",
"7 9 7 7 7 C Z Z Z Z Z Z Z Z Z C C Z Z Z C Z C C r w w w w w w w w w 9 7 7 9 w w C 9 7 7 7 7 w w w r w w w w w 9 r 9 9 C ",
"9 C Z Z Z C Z Z C C C Z Z C C w Z Z Z C C Z Z A / / ( ( ( ( ( / / y t r r 7 w w C 7 w 9 C C C C C C w w 7 w w 3 3 9 9 7 ",
"Z w w w w w 7 w w w w C w w w w C Z C A A (  .6.0.q.q.Z.Z.S.S.W.S.C.B.0.' y r w 9 9 7 9 C Z C Z 9 9 7 3 7 7 7 7 7 7 7 7 ",
"Z w 7 7 w 7 7 w w w w w w r w w w r D ' 6.B.@X&X&X&X*X1XyXiXpXcXcXcXcXsX%XN.o.t 7 7 9 9 9 9 9 9 C 9 w w 7 7 7 9 9 C C C ",
"Z w w w w C C C r r w w 9 9 3 r / ..m.A.#X;X=X-X_././.'.7X`.7XhXzXzXcXvXcXeXA...r 9 C C C C C C C C Z C C C C C C C Z Z ",
"D Z Z w Z C C C w w w 3 9 r s 7.D.#X$X4X,X*X*XU.R.J.J.R.R.).dXkXvXbXbXvXxXzX5Xm.( Z C C 7 9 C C C C Z Z C Z Z Z Z Z C Z ",
"Z Z w r w w 9 9 w w w w d o.V.$X%X4X,X^.Q.U.I.U._._._.7XdXdXdXdXdXdX:Xw.' e o.m.X.A C 7 7 9 C 9 w w w Z C Z C Z Z Z C C ",
"7 w 9 w C w C w C w Z D o.#X0XwX>X=X~.^._.(.[.aXzX1Xo.q 6 u s (  ._ / < + + < g 8.) Z w C C Z C w w w C Z Z C C C C C C ",
"7 3 w 7 7 7 w 7 C Z Z [ V.0XwX2X;X;X,X8XhXhXfXtX:Xq.a , : : : < < < : . > > > f 0.X.r 9 9 C Z Z w C C Z Z C C w 9 7 7 9 ",
"C w 9 9 w 7 7 w w C / 6.$XeXeX2X2X1XyXzXuX<X<XW.9. .1 p W.q.p > > > 2 f ;X@Xp a 6.[ r 7 9 r Z Z C Z Z Z Z C w w 9 7 7 7 ",
"Z C C C C C C C C Z ( 0.4XeXqX*X1XtXrX,X`.R.f.} { $.e q ~.zXq.@XN.N.@X+XsX@Xq d t.+.t 7 9 Z Z Z Z Z Z Z Z C C C C 9 9 9 ",
"Z Z Z Z Z Z Z Z Z Z D @.%X0X4X*X1X7X<X`.U.3.} 5.z.b.| I U.fXtX;X+X+X+X@X*X9.| h.j.r.( w Z Z Z Z Z Z Z Z Z Z Z Z Z C C C ",
"Z Z Z Z Z Z Z Z Z Z Z &.$X0XeXyX9X(.I.J.j.R././.Y.l.s.|.b.b.t.6 X i X 5 ] g.b..Xj.t.) Z Z C 9 C C C Z Z Z Z Z Z Z Z Z Z ",
"Z Z Z Z Z Z Z Z C Z Z _ m.0XeX8X-XL.j.x.J.)._.U.Y.l.s.}.}. Xc.5 . >     J z.u.p.g.*.( w 9 9 C 9 C Z C C C C Z Z Z Z Z Z ",
"C C Z Z Z Z Z Z Z Z Z A X.S.4X=X*X~.`.'.(.E.x.j.j.b.b.|. X|.v.] # + # u p.{.e.y.4.O.D w r w C C Z Z C 9 9 Z Z C Z C Z Z ",
"C 9 Z Z Z Z Z C 9 Z C C D 8.$X4X8XuX9X^.L.Y..XT.T.T.x.l.y.I K I y.>.>.<.p.e.^ d.G.O.F r w Z C Z C 9 9 9 9 9 9 C C C C Z ",
"C C Z Z Z Z C 9 9 9 7 9 9 D m.eXpXyX^.Q.R.E.x.z.z.x.P.4.g.x.f.:.Q Q W m 4 h v J &.@.( r 9 9 9 C C C 9 C C C C C 9 C C Z ",
"Z Z Z Z Z Z C C 9 C Z Z C A 7.3X0X=XQ.I.j.J.R.T..XoXXXXXR.f.! K N N z m v V I %.*.' Z Z w r Z C 9 9 9 C C C C C Z C Z Z ",
"Z Z Z Z Z Z Z C C Z Z Z C A @.F.4X^.R.I.j._.7XfXgXgXOX.Xy.I I ! ;.E B h ; m } H.X.D w 9 w w 9 9 9 9 7 7 Z Z Z Z Z Z Z C ",
"Z Z Z Z Z Z Z Z Z Z Z Z C C ` m.F.^.(.(.[.fXuX6X).T.v.a.u.e.! :.;.W B j z P d.n.] w 7 7 7 9 3 9 9 3 7 7 Z Z Z Z Z Z Z Z ",
"C C C C C C Z Z Z Z Z Z C 9 r ( n.=X^.<X<X<X^._.U.J.P.z.a.p.! ! ;.W K v v K y.t.' w 7 7 7 7 9 7 9 9 C Z Z Z Z Z Z Z Z Z ",
"C 9 C 9 9 C C C C C C C 9 9 7 w ] V.>X*X~._.^./.).).E.T.x.l.:.i.k.2.,.P M S t.M...w 7 7 7 7 9 C Z r Z C Z Z 9 Z C C Z Z ",
"Z Z Z 9 9 9 9 9 9 9 9 7 7 7 7 7  .A.%X$X<X_./.R.E.].].kXgXOX.Xk.2.W m M w D 9.n.] r 7 7 9 C C C 9 9 w 9 7 7 7 9 9 Z 9 9 ",
"9 9 9 9 3 9 7 9 7 7 7 7 7 w 9 9 ` V.%X&X-X`.(.oXOXgXkXjXfXR.h.;.L G W ;.3.w.G.=.` Z 7 7 9 C C C 9 7 7 9 C C Z Z Z Z Z Z ",
"9 9 9 7 9 9 7 7 7 9 9 9 w w 7 7 t 8.$X>X8XuXhXhXfX9X[.`.H.%.} S m m k j S $.G.9.[ D r 9 7 C Z C C C C C C Z Z C 9 9 9 9 ",
"7 9 9 9 9 9 9 9 Z Z Z 9 w Z w w 7 ( B.qXiXpX6X5X-X!.^.(.j.g.z.,.I B j 4 k { K.C.*.X.` A C C Z Z Z Z Z Z Z Z C 9 9 7 7 7 ",
"9 C 9 C C 9 9 w Z w 9 7 C Z Z C C r X.&X;X,X4XqXiXpXaX[.x.;.Q W H K K -.f.G.H.8.X.F A C Z Z Z Z Z Z r C Z C r 9 Z w 9 9 ",
"Z 9 C 9 9 7 9 9 9 9 7 7 7 7 w w Z r ) C.,XrXpXxXzXlX6Xd.I R R ~ 1.2.f.x.Y.K.8.) A Z Z Z C Z Z Z Z Z 9 C C 9 9 9 7 9 Z 9 ",
"3 9 9 9 7 7 7 7 9 Z w 7 7 7 7 7 7 w ` C.yXsXxXaX9X).c.p.p.e.^ E R Q <.J.H.8.' r w w w C C C C C w 7 9 3 9 9 9 7 7 7 9 9 ",
"9 7 7 7 7 9 9 9 Z Z Z Z C w w w w D [ C.qXrX6X(.T.z.k.y.:.U V h ; M >.H.#.D Z r Z w 9 w 9 C 9 7 7 7 9 9 9 3 7 7 7 7 7 7 ",
"9 7 7 w r C Z C C C C w C Z C C r Z ( 0.=XQ.I.x.i.E n l h ; % $ 4 F %.9.` C 9 9 9 7 7 7 7 9 9 9 7 7 7 9 9 7 7 7 9 9 9 9 ",
"7 9 Z Z 9 9 C 9 w 9 7 w 9 C w C w D @.m.!.U.c.y.Y l l h h j C 7 ( *.9.X.D 7 9 9 7 7 7 7 7 7 3 9 7 7 7 9 9 9 9 w Z 9 C C ",
"7 9 r Z C 9 7 7 7 w w C C Z C w y ..N.A.W.j.k.T x x U E G W c ; { w.@./ w 7 7 9 7 7 7 7 9 9 r 9 9 C 9 C Z Z b w Z Z Z Z ",
"7 9 w Z C 9 C C C C Z Z w w 9 9 9 d 7.B.K.x.u.T H U Y l j c 3 ; A #. .r 7 7 7 3 7 7 7 7 9 9 C Z Z Z Z Z Z Z Z Z Z Z Z Z ",
"9 C C C C C C 9 C Z Z 9 9 9 7 7 9 9 t ..n.f.1.Y B b ; * - & = 8 ) X.) Z 9 Z C 9 C 9 9 C Z w 7 9 9 Z Z Z Z Z Z Z C C C C ",
"9 9 9 9 C C w C C Z Z Z C 9 9 9 9 9 9 F &.<.Y n c 3 * & O @ 0 ( O. .D 9 9 w 9 r 9 C 9 C Z Z Z Z C C Z Z Z Z Z 9 9 C 9 9 ",
"C C C C 7 7 7 9 9 Z Z Z Z Z Z Z Z Z Z A #.d.R l c Z - o o = J &.&.( Z Z Z Z 9 9 9 7 9 C Z Z Z Z Z C Z Z Z Z C 9 9 C C C ",
"9 9 7 7 7 7 7 7 9 Z Z Z C Z Z Z Z Z Z Z ` g.;.B ; * O O = 8 #.*.( w 9 7 7 7 7 7 9 9 9 7 Z Z Z Z Z Z Z Z Z Z C 9 C C Z Z ",
"7 7 7 7 7 7 7 7 Z Z C 9 C 9 C Z Z Z Z Z D %.3.A * * @ o = 8 #.*.d 7 7 7 3 9 9 7 7 7 9 9 Z Z Z Z Z Z Z C Z Z Z Z C Z Z Z ",
"7 7 7 9 w C Z C w 9 7 9 9 9 9 C Z Z Z w r X.G.[ Z * - 3 F | &.[ r 7 7 7 9 9 9 7 7 7 7 9 Z Z Z Z Z Z Z Z Z Z Z Z Z Z C Z ",
"7 9 C Z C C C C C C 9 9 9 9 9 9 w Z Z Z w D X.=.J 8 M S u ] [ A Z 7 7 w C C C C 9 9 9 9 9 9 C C Z C C C C C Z C C Z C C ",
"7 9 Z Z C C Z Z Z Z C Z 9 C C C w Z Z Z w w A { { } | | | ` A C Z w w C C Z C C Z Z C C Z C Z Z Z C C C 9 9 9 9 C C 9 9 ",
"9 w Z Z Z Z Z Z Z Z Z Z Z Z C Z Z Z Z Z Z Z C A ` +.r.+.F D A Z Z Z C Z Z Z Z Z Z Z Z Z Z Z Z Z Z Z C C 9 3 9 9 C C C 9 ",
"w C Z Z C C C Z Z Z Z Z Z Z Z Z Z Z Z Z Z Z C C w t D D Z Z Z Z Z C C C Z C Z Z Z Z Z Z Z Z Z Z Z Z Z Z C 9 7 Z C Z C Z ",
"C Z C C 9 w w C C C Z Z Z Z Z Z Z Z Z Z Z Z C C w Z Z C Z Z Z Z C w 7 w C C C Z Z Z Z Z Z Z Z Z Z Z Z Z C Z Z Z Z C 9 C ",
"Z Z w 7 7 7 w 9 C 9 C Z C Z Z Z Z Z Z Z Z Z Z 9 9 w C C Z r Z Z w 7 7 w 9 9 C C C Z Z Z Z Z Z Z Z Z Z Z Z Z Z Z Z C 9 C ",
"C C C w w C Z C 9 w w C Z Z C C Z Z C Z Z Z C C 7 7 9 w 9 C C C C 9 Z Z Z w 9 w C C C Z C C C Z C Z C Z C C Z Z Z 9 9 Z ",
"C w 9 w 9 Z Z Z C C C C Z Z Z C 9 7 9 r C C C C C Z Z C C C 9 C 9 w C Z Z Z C Z C Z C Z Z C C 9 9 9 9 9 9 Z Z Z Z C 9 Z ",
"7 3 7 7 7 w Z Z Z Z C Z C Z C C 9 9 9 7 9 9 9 9 9 C 9 w 9 9 7 7 7 7 9 Z Z Z Z Z Z Z Z Z Z C 9 9 C C Z C C C Z Z Z Z 9 Z ",
"9 w 7 7 7 w Z Z Z Z Z C w C C C Z 9 9 9 3 9 9 9 7 7 9 7 7 7 7 7 7 7 7 Z C Z Z Z Z Z Z Z Z Z C C Z Z Z Z Z Z Z Z Z Z Z 9 ",
"9 9 9 w w r Z C C C C C 7 7 w w Z C Z C C 9 9 9 9 7 7 7 7 7 7 9 9 C C Z C C Z Z Z Z C Z Z Z Z Z Z Z C Z r C C Z Z C Z Z ",
"r Z r w w r C C C C C 9 7 7 7 7 9 C 9 C Z Z Z Z 9 7 7 7 9 Z Z Z Z C C C w w C C C C C C Z Z Z Z Z Z C C w w 9 9 9 7 9 9 ",
"w w w 3 r w r 3 3 w C w 7 7 r 3 9 9 9 9 9 9 Z Z 9 7 7 7 Z Z Z 9 9 w w 7 w 7 w C w w w w C Z C Z C C 9 9 7 7 3 9 7 7 7 7 ",
"w r 9 9 3 w w r A Z C C r w w w 9 9 9 9 9 9 9 9 9 7 7 9 Z Z 9 9 3 7 9 w w w Z A C C w w 9 7 9 7 9 9 9 9 7 7 9 9 7 7 7 7 "
};
