/* XPM */
static char *result[] = {
/* columns rows colors chars-per-pixel */
"60 60 241 2 ",
"   c #2C180C",
".  c #392A17",
"X  c #3A2823",
"o  c #3E3127",
"O  c #492A18",
"+  c #572515",
"@  c #5E2513",
"#  c #42301E",
"$  c #5A3A16",
"%  c #642C0E",
"&  c #773B0D",
"*  c #622213",
"=  c #622B16",
"-  c #6E2B14",
";  c #693719",
":  c #743717",
">  c #7B3C13",
",  c #472C28",
"<  c #593828",
"1  c #463736",
"2  c #5C3D32",
"3  c #6F2F21",
"4  c #6B3523",
"5  c #773925",
"6  c #7C461C",
"7  c #574326",
"8  c #774826",
"9  c #77412D",
"0  c #7A432E",
"q  c #68502B",
"w  c #6D4632",
"e  c #7E4630",
"r  c #7D4A34",
"t  c #7E4E38",
"y  c #775636",
"u  c #7E523B",
"i  c #4F4A49",
"p  c #544B46",
"a  c #644C46",
"s  c #6E5543",
"d  c #7F5740",
"f  c #7D5B43",
"g  c #705653",
"h  c #7C684B",
"j  c #726158",
"k  c #864918",
"l  c #8D531E",
"z  c #98591C",
"x  c #9D601E",
"c  c #844B27",
"v  c #835325",
"b  c #895325",
"n  c #86552A",
"m  c #8B542D",
"M  c #935A22",
"N  c #945928",
"B  c #804731",
"V  c #814832",
"C  c #8C4B32",
"Z  c #834F38",
"A  c #835935",
"S  c #86563A",
"D  c #82543C",
"F  c #945B32",
"G  c #965A37",
"H  c #9A642A",
"J  c #926333",
"K  c #936B37",
"L  c #986A38",
"P  c #A5692B",
"I  c #A36B39",
"U  c #A9743A",
"Y  c #B0773A",
"T  c #825741",
"R  c #845B43",
"E  c #895B42",
"W  c #875E49",
"Q  c #856146",
"!  c #8B6146",
"~  c #85634B",
"^  c #8C644A",
"/  c #86694C",
"(  c #8C6B4D",
")  c #986749",
"_  c #8E7148",
"`  c #98784A",
"'  c #876C54",
"]  c #8B6B52",
"[  c #89695A",
"{  c #936C51",
"}  c #9C6D50",
"|  c #8C7255",
" . c #8C7B54",
".. c #8C735C",
"X. c #8C7E5E",
"o. c #937353",
"O. c #957A56",
"+. c #9C7C53",
"@. c #93755A",
"#. c #9C7458",
"$. c #947C5C",
"%. c #A67647",
"&. c #A47C49",
"*. c #B37A43",
"=. c #B47E4B",
"-. c #A57757",
";. c #A37B55",
":. c #AC7D54",
">. c #B17C55",
",. c #876862",
"<. c #8D7A64",
"1. c #9B7A69",
"2. c #877D77",
"3. c #997D70",
"4. c #A27C63",
"5. c #958458",
"6. c #99855E",
"7. c #9B8C5E",
"8. c #B3844D",
"9. c #AA8352",
"0. c #A6865A",
"q. c #AB835C",
"w. c #B68254",
"e. c #B6895A",
"r. c #B3905E",
"t. c #8D8668",
"y. c #958464",
"u. c #9B8565",
"i. c #948B62",
"p. c #92856A",
"a. c #998968",
"s. c #9E8C6B",
"d. c #979169",
"f. c #948B72",
"g. c #9C8876",
"h. c #939373",
"j. c #9D9474",
"k. c #94937C",
"l. c #9A937D",
"z. c #A68666",
"x. c #A68D64",
"c. c #AA8C6B",
"v. c #B68B67",
"b. c #B48C64",
"n. c #A59265",
"m. c #A89466",
"M. c #A59469",
"N. c #AB946C",
"B. c #AB996B",
"V. c #B49365",
"C. c #B3946C",
"Z. c #BC9468",
"A. c #B0996D",
"S. c #A38B77",
"D. c #AC8D75",
"F. c #AB8D7A",
"G. c #B48D73",
"H. c #A59474",
"J. c #AC9674",
"K. c #A49B73",
"L. c #AE9B73",
"P. c #A2947E",
"I. c #AD947B",
"U. c #A49A7B",
"Y. c #A99C7C",
"T. c #B49372",
"R. c #BC9575",
"E. c #B49A74",
"W. c #B2947A",
"Q. c #B39B7C",
"!. c #BA9B7A",
"~. c #A7A17F",
"^. c #BAA175",
"/. c #B6A07E",
"(. c #C39C6B",
"). c #C1987A",
"_. c #CDAA7B",
"`. c #998883",
"'. c #9A9685",
"]. c #9C9B89",
"[. c #908C91",
"{. c #A79887",
"}. c #A49B86",
"|. c #AC9D85",
" X c #AB958A",
".X c #AC9C8B",
"XX c #B29C83",
"oX c #BB9B88",
"OX c #A49D95",
"+X c #AA9C93",
"@X c #99A48C",
"#X c #A7A188",
"$X c #ADA28C",
"%X c #B5A385",
"&X c #BCA884",
"*X c #B3A38B",
"=X c #BBA48B",
"-X c #BDAC8C",
";X c #A5A493",
":X c #ADA493",
">X c #ADA49B",
",X c #A9AA98",
"<X c #ABAA9C",
"1X c #B2A595",
"2X c #B7A797",
"3X c #B4A992",
"4X c #BBAB92",
"5X c #B1AA9B",
"6X c #BBAD9B",
"7X c #BAB39D",
"8X c #BDACA3",
"9X c #B2ADA8",
"0X c #BDB3A4",
"qX c #B4B3AA",
"wX c #B6B9AB",
"eX c #BBBDB3",
"rX c #C4AA89",
"tX c #CAAB8B",
"yX c #CCB38F",
"uX c #C3AB95",
"iX c #C9B696",
"pX c #C4B59B",
"aX c #C9B59A",
"sX c #C7BA9B",
"dX c #D4BD9D",
"fX c #CAADA0",
"gX c #C6B9A8",
"hX c #D3BBA6",
"jX c #C6BBB3",
"kX c #CCC3AC",
"lX c #D9C7A7",
"zX c #D5C3AC",
"xX c #DCCAAD",
"cX c #C9C6B7",
"vX c #D1C3B1",
"bX c #D7C8B8",
"nX c #C9D0BC",
"mX c #D7D3B7",
"MX c #D9D4BB",
"NX c #C9C5C0",
"BX c #D4D9C3",
/* pixels */
"V V V B B B B B V V B V V V V V V V V V V V V B 5 Z e 5 Z r B B V V V B e e e 5 r r e e T B B V V V B V V V V V V r 5 e ",
"V V B 0 9 9 0 0 r V B V V V V B V V V V V V V V V V t 5 5 r 5 e e r r B e e r r e e 9 5 5 V B V V V V V V V V B V 5 V e ",
"B V B 0 0 B V B 5 r e B V V V V V V B B r B r e B V B e 5 5 r 5 9 9 9 r 5 e 9 9 9 9 9 9 r V V B V V V V V V V V e e e e ",
"e e B e B B V B V B B B B V V V V V 5 e e r 5 r e e B B T d 5 r 9 9 9 9 e 5 9 9 9 9 5 e 5 V V B V V V V V V V V V V V V ",
"0 e 0 9 9 B B B V V V B V V V V V e 5 r B e e 5 5 5 5 T B V V T V e 5 5 9 9 5 e r r e V V r Z e V V V V V B B B V V V V ",
"9 9 9 9 9 0 V V V V V V V V V V B e e B B V e 5 r d 5 5 5 Z 5 e V V V e 9 9 e V r e e Z Z 5 r 5 e e B B B B B B V t V V ",
"9 9 9 9 9 B V V V B V V B V V V V V V V V V B B 5 T 5 r 5 V B 5 r r r 9 9 9 e e e 5 r 5 5 5 r e e e T e 5 d 5 V d 5 r V ",
"0 B B V V V V V B B V V V B e V V B V V V V V r B B B r T 5 T T Z t r 9 9 9 e r e e 5 t Z V Z e V e 5 T 5 5 r 5 5 e 5 5 ",
"V B e e r e 5 e 5 e B B e e e e B V r r V V u u T T T W [ ' <.....' f t r 9 e 9 9 e 5 e e e B e e B 5 5 5 d 5 5 5 d 5 5 ",
"V e 9 9 r 5 r e t e r e r r e e 0 B 0 t T W <.k.'.`.k.k.'.'.'.'.k.<.[ ~ d t 9 9 5 9 e 0 9 e e e e 5 5 d 5 5 5 d r 5 5 T ",
"V e e 0 e e V r r Z e e e 5 e 9 9 e u ' f.'.#X*X:X.X|.{.].[.;X<X<X{.P.j.p.| u e 9 e B B e B e B B B T e B B B B B B T e ",
"S V V V B V e r e 5 r 5 e w 5 5 r ~ f.k.}.+X|.|.XXG.c.S.F.{.OXOX>X5X:X}.l.y.R r r r B e 9 0 e e B e V V B V V V B V V V ",
"V V r r V e 5 e e e 5 5 d 5 5 r h t.k.}.XXF.G.G.b.v.Z.v.D.F. X X X.X|.~.U.n.^ S V V r e e e e e e e B B V B V V V V T V ",
"5 e e e B r e e B V V e d 5 B E <.k.P.g.3.1.-.;.=.=.>.e.-.[ ,.,.l.|.#XY.H.j.y.| R V e e e e e e e e e B V V V B B e 5 r ",
"e 5 9 9 5 r 9 e e B V V B B T [ 3.S.S.,.a 2 w 8 v n F S 2 < , 1 2.0XkXsXuX/.U.h.y.R e 9 e e V V e B B V V B B B e r 5 r ",
"r e 9 9 e 5 e e B V V V B V V [ g.3.1.T , , # O $ ; < + O X , 1 j gXmXmXxXdX-XK.t. .d 9 e B V V V V V B V B e 0 5 5 r 5 ",
"V B B B B B B B B V B B B B r ~ f.u.&.t 2 `.`.a X # X X i 2.OXi s S.4X-X%XXXE.B.M.7.' r e e V V V V V V V B B B B 0 0 0 ",
"V V V V V V V V V V V B B 0 0 u X.6.` A 4 3.jX`.p.2.j [.2.OX8Xg f z.*X-X*XW.E.B.m.n.5.D V V V V V V V V V V V V V B B B ",
"V V V V V V V V V V Z B B B 0 e D W ) { A ;.rXuX+X].[.[.`.$Xg.' %XhXvXbXhXaXaXE.N.N.y.R V B e e B V V V V V B V V V V V ",
"V V V V V V V V V V V B B B B B Z E @.x.(.e.v.z.h o i 1 o h o.T.&X*X6XgXgX2XuXQ.Q.P.p.u 0 9 e e B V B B B V B B V V V V ",
"B B V V V V V V V B V B V V V B Z { 7.5.U &.%.q.q . p o   q Z.^.E.Q.%X3X3X$X#X|.$X'...t e B B B V V B 0 B B B B V B V V ",
"0 B B V V V V B c e B B B B B Z R O.5.K H H L %.K 7 . . 7 n.tXyXdXlXlXxXmXzX7X,X;XP.W V B B B B B 0 0 0 0 0 0 B B B V V ",
"B B V V V V B e 0 9 e e 0 B 0 Z ( O.` P P x z z H 9.+.a.%XlXlXbXbXgXpXsXsX7X#X,X;X].( e 9 e e e B B 0 B V B 0 B 0 B B V ",
"V V V V B B B B 0 e e e B V V V W ` :.8.8.U P P x U q.J.4XkXcXjXjXvXkXsXaXpX6X6X;X].t.D B B e e 0 0 9 B B V V B V B V V ",
"V V V V V V V B B V B V V B B V V E #.q.) c k k x *.v.oXgXnXBXBXMXmXvXgX%X=XpX4X.X}.f.D e e 0 9 0 9 9 0 B V V V V V V V ",
"V V V V V V V V V V V V V B r V Z E @./ : % & 6 P 8.).fXjXcXnXnXmXkX0X:XXXI.D.F.S.P.f.~ e 9 9 9 9 9 9 9 B V V V V V V V ",
"B B B B B B V V V V V V B 0 0 r W | _ 6 6 8 8 c U w.T.oX5X<X<X,X1X1X;X.X|.W.Q.W.W.U.h.' r 9 9 9 0 e B B V B V V V V V V ",
"B 0 B 0 0 B B B V V V 0 0 0 e Q |  .y v 8 6 = c ) e.C.%X:X5X<X>X+X+XOX+XXXI.I.E.J.K.h.~ r 9 e V V B B B V e B B B B V V ",
"V V V B 0 0 0 0 0 0 0 9 9 9 r Q  .5.v k & - - n J 9.C.XX*X3X<X+X+X+X<X<X+X|.%XL.B.K.6.u e e V B e 9 e 9 9 9 9 e 0 B 0 0 ",
"0 0 9 9 5 9 9 9 9 9 9 9 9 e 9 D | 7.&.N l b k v J 9.!.aXlXlXzXzXgX0XqX9X>X}.H.M.m.L.$.u 9 V V e 9 9 9 e B B V V V V V V ",
"9 0 9 9 9 9 9 9 0 9 e 0 r 0 9 0 r ^ O.+.` %.J v J r.tXdXdXyXrX%X3X+X+X>XOX.XY.M.n.m.u.Q e e V B B B B B B B B B B 0 0 9 ",
"0 0 0 e 0 0 e 0 V V e 0 B V r e 9 r D E ) 9.%.8.8.Z.).!.Z.V.V.G.W. X X+X>X0XsXiX/.&X~.@.V B V V B B V V B B e e 0 9 9 9 ",
"B B 0 B B e 0 B B e e 9 e B B B B 0 0 V ! 0.8.8.Y =.>.>.8.8.w.b.G.W.G.I.3X7XgXgX8X6X}.@.Z V V V B V B B V B r e B B 0 0 ",
"B 0 B 0 0 0 9 9 0 e 9 9 9 9 e B B V Z S o.+.L k & & > l z H H I z.T.!.&XiXkXgX8X9X9X}.~ V V V V B B B 0 0 B e 0 9 0 B 0 ",
"9 9 9 9 9 9 9 9 9 V e 9 9 9 9 9 0 u Q | ` y 6 & & l l z H P Y *.V.B.A.E.%X|.2XjXNXwX]./ V B r B B 0 9 0 0 9 9 9 9 9 9 9 ",
"9 9 9 9 9 9 9 B B V B B B e e e t / y.i.` 6 6 M N m N N H U e.b.A.m.B.T.N.I.1X<XeXwX@X~ e e 9 e 9 9 9 9 0 5 9 9 9 9 5 0 ",
"9 9 0 e B B B B B e B e B B B B Z | f.p.u.;.} G : - B G } v.yXdXsX&X^.A.N.Q.|.#X,X@Xk.f e 9 9 9 9 9 9 9 0 0 9 0 0 e 9 9 ",
"9 0 V V e e e 0 e e 9 e e e e e e T { ( { -.-.) e 5 C C -.v.oXuX4X-X^.V.C.c.U.].'.p.f 9 9 9 9 9 9 9 9 9 0 0 0 B r e B B ",
"9 0 B B 0 9 9 9 9 e B V B e B B r D ( { } +.Z 4 = @ * - : Z { 3.I.!.A.V.A.T.j.h.h t e 9 9 e 0 e e 0 e B c e B B V B V V ",
"9 0 B V B e e B e B V B e e e 9 e W @.u.6.G 5 + O + * - C ) 4.F.oXtX_._.tXE.s.] t 9 9 9 9 e B e B B V V V B V V V V V V ",
"0 0 B B B B e e B B B 0 0 0 9 9 9 / <.i._ F 5 * @ = - > S o.D.XX!.Z.Z.(.!.J.<.T r e 5 V r e e e 0 V V V V V V B B B B B ",
"e 0 e B B B e B B B V B B 0 0 e e D Q | +.:.) 3 @ - c ) C.rXaXuX!.V.e.r.7.d.$.W e e r r V V r e B B V V V V B 0 0 e 0 B ",
"B B B 0 9 9 9 9 B V V V B B B B V V V ^ { $.) 4 * % n e.yXkXhXuXW.c.0.d.d.5.~ t 5 9 e e V B B V V V V V V V B 0 0 B 0 B ",
"0 9 9 9 9 9 9 9 9 V V V B V V V V V V V S | u 4 V C :.V.&X&XoXoXW.c.6. .Q u d 5 9 9 9 e V V V V V V V V V V B B B B V V ",
"9 9 9 9 9 9 9 0 V V 0 B B B B V V V V B r R ~ u Z : m %.A.E.R.G.D.u.] D r 5 w r 5 r 5 r V V V V V V V V V B V V V V V B ",
"9 9 9 0 e B V B e 0 9 0 9 9 0 B B V V B e r d R 8 > F :.x.N.T.c.u.@.D e r 5 e 5 r 5 w r B V V V V V V B V V V V V V V V ",
"9 0 B V B B B B B B 0 0 9 9 9 0 e B V B e 9 d / K n N %.x.n.s.u.@.u e e e B e e r 5 e 5 5 e B B V B B B B B B B B B B B ",
"9 0 V V B B V V V V B B V B B B B V V B r e r R ( K _ ` O.] ^ W D r e e V V V B e t V V V B V V V B 0 B 0 0 0 B 0 B B 9 ",
"9 e B V B V V V V B V V B V V V V V V V V V B B g W ] W E Z C V V V V V V V V V V V V V V V V V V V B B 0 5 0 0 B B B 0 ",
"B B V V B B B V V V V V V V V V V V V V V V B B e e V V V V V V V V e V V V V V V V V V V V V V V V V V B 0 9 B B V B V ",
"B V V B e 9 B B B B V V V B B V V V V V V V B B e V V V V V V V V e 0 e V V B V V V V V V V V V V V V V B B V V V B 0 B ",
"B B B 9 9 e 9 e e e B V B Z B B V V V V V V Z 5 9 e V e V B V B 0 0 0 0 0 e 0 B B V V V V V V V V V V V V V V V V B 0 B ",
"e e r e e B V B e 5 Z e V V V V B T 5 r V V B B 9 9 e e e e V V B 0 V V V 0 0 e B B B V B B B V V V B V B B V V V 0 0 V ",
"e e e e 0 B V V B B B V V B V e 5 5 r d B B B B r e e V e e e e 0 0 B V V V V V B V B V V B B 0 0 0 0 0 e e V V V B 0 V ",
"e 5 9 9 9 e B V V V V B V B V B r 5 5 5 r 5 e 5 e e e e e 5 9 9 9 0 0 V V V V V V V V V V B 0 0 B B B V B B B V V B 0 V ",
"9 9 9 e 5 e V V V V B B e e V V B T r r 5 r 5 r w 0 5 9 0 0 9 e 9 9 9 V V V V V V V V V V V B B V B V V V V V V V V B V ",
"9 9 e e e r V V V B B e 5 r r r B B V V 5 V 5 5 5 5 r 5 5 5 r 5 0 B B V B B B V V V V V V V V V V V V V B B B B B V V V ",
"V V r r V r B B B B B e r 5 5 w 5 r 5 B V V T V d 5 2 r 0 B Z V V B B B e e B B B B B B V V V V B V B B e e 0 e 9 9 9 9 ",
"r e 5 r r 9 r 5 e 5 e e r 5 5 r 5 5 r 5 T B T 5 d 5 B 5 B B T 5 0 0 e 9 9 e 0 B B e e 0 B B B B V V B 0 9 9 9 9 9 9 9 9 ",
"e e e 5 5 e e r Z V B B e r r 5 r d 5 r 5 5 5 d 5 5 5 d B T 5 r 0 9 0 e B B V V B B B e 0 0 0 9 0 0 0 5 9 9 9 9 9 9 9 9 "
};
