/* XPM */
static char *result[] = {
/* columns rows colors chars-per-pixel */
"60 60 237 2 ",
"   c #59240D",
".  c #5A2611",
"X  c #662A0E",
"o  c #712B0B",
"O  c #74330D",
"+  c #7B380E",
"@  c #672B18",
"#  c #6A3315",
"$  c #673619",
"%  c #763616",
"&  c #743926",
"*  c #7A4315",
"=  c #77431C",
"-  c #7D421B",
";  c #774722",
":  c #77412D",
">  c #7A432E",
",  c #7E4630",
"<  c #7C4934",
"1  c #7C4E3A",
"2  c #7C5131",
"3  c #7E523D",
"4  c #7F6339",
"5  c #7F5640",
"6  c #833F20",
"7  c #854518",
"8  c #844B1C",
"9  c #905418",
"0  c #834522",
"q  c #884A26",
"w  c #8A5627",
"e  c #8D5C24",
"r  c #975827",
"t  c #92562B",
"y  c #804731",
"u  c #814832",
"i  c #824F38",
"p  c #84533C",
"a  c #88563B",
"s  c #945C34",
"d  c #9C5D30",
"f  c #995A3A",
"g  c #8F602B",
"h  c #9B6224",
"j  c #9C6729",
"k  c #8B6335",
"l  c #946334",
"z  c #9B6335",
"x  c #94633B",
"c  c #9A6939",
"v  c #9C713D",
"b  c #A56729",
"n  c #A26534",
"m  c #A56B36",
"M  c #AA7535",
"N  c #A4743A",
"B  c #AC723B",
"V  c #AC793F",
"C  c #B67936",
"Z  c #815641",
"A  c #855B43",
"S  c #885D46",
"D  c #865F49",
"F  c #8A5F49",
"G  c #8B6146",
"H  c #85624C",
"J  c #8B654C",
"K  c #88694A",
"L  c #946844",
"P  c #9D6E45",
"I  c #98744A",
"U  c #8B6C53",
"Y  c #886F5A",
"T  c #936E52",
"R  c #936F58",
"E  c #8C7152",
"W  c #8E7955",
"Q  c #8B725C",
"!  c #947254",
"~  c #957B54",
"^  c #9B7B56",
"/  c #91735C",
"(  c #A66B46",
")  c #A37343",
"_  c #A87746",
"`  c #A2794C",
"'  c #A97B4B",
"]  c #B57D48",
"[  c #A67C53",
"{  c #A47E5B",
"}  c #B47B56",
"|  c #8D7B65",
" . c #8C7967",
".. c #947D64",
"X. c #9A7D61",
"o. c #A57C61",
"O. c #B5853C",
"+. c #BA883A",
"@. c #C28338",
"#. c #948154",
"$. c #91875C",
"%. c #9C855B",
"&. c #AB834D",
"*. c #A9894A",
"=. c #B38445",
"-. c #B48A42",
";. c #BB8940",
":. c #B6844B",
">. c #BA834B",
",. c #B48D4B",
"<. c #BA8D4B",
"1. c #BC954A",
"2. c #A48454",
"3. c #AB8557",
"4. c #A58E55",
"5. c #AB8A53",
"6. c #AB8A5E",
"7. c #B38254",
"8. c #BA8752",
"9. c #B38B54",
"0. c #BB8C54",
"q. c #B4855B",
"w. c #BA855A",
"e. c #B38C5B",
"r. c #BB8D5C",
"t. c #B7945A",
"y. c #8E8469",
"u. c #998664",
"i. c #92846D",
"p. c #9D946F",
"a. c #8E8677",
"s. c #958775",
"d. c #958D77",
"f. c #998A74",
"g. c #948D7B",
"h. c #9B9578",
"j. c #9B937C",
"k. c #A38463",
"l. c #A88566",
"z. c #A38B66",
"x. c #AB8D65",
"c. c #A48D6A",
"v. c #AB8D6B",
"b. c #B38D63",
"n. c #BC8B63",
"m. c #B28D6C",
"M. c #A7966B",
"N. c #AE936C",
"B. c #B49163",
"V. c #BB9363",
"C. c #B4926A",
"Z. c #BC936C",
"A. c #B99968",
"S. c #BD9B6C",
"D. c #A48B74",
"F. c #B48A70",
"G. c #A59475",
"H. c #AC9474",
"J. c #AD9872",
"K. c #A3937A",
"L. c #AA947A",
"P. c #A5997C",
"I. c #AD997B",
"U. c #B19673",
"Y. c #B69577",
"T. c #B49974",
"R. c #BC9A74",
"E. c #B39B7B",
"W. c #BA9C7B",
"Q. c #C28845",
"!. c #C08C4B",
"~. c #C08C53",
"^. c #C28C5C",
"/. c #C39152",
"(. c #C4945D",
"). c #C08F63",
"_. c #C39769",
"`. c #C29D74",
"'. c #C2A36A",
"]. c #C4A374",
"[. c #C8A678",
"{. c #CAA67C",
"}. c #D2AE7A",
"|. c #D2B17E",
" X c #8F8880",
".X c #968F83",
"XX c #9A9481",
"oX c #9A9B84",
"OX c #9E968C",
"+X c #9E9C8A",
"@X c #A69784",
"#X c #A59B85",
"$X c #AC9A83",
"%X c #A8968A",
"&X c #A39C8A",
"*X c #AC9D8D",
"=X c #BA9585",
"-X c #B29B83",
";X c #B29E8A",
":X c #A99B92",
">X c #B89D93",
",X c #9FA386",
"<X c #9CA48A",
"1X c #9CA893",
"2X c #A6A387",
"3X c #BBA686",
"4X c #B2A38C",
"5X c #A4A593",
"6X c #AEA998",
"7X c #B8A892",
"8X c #B9B198",
"9X c #BCB39C",
"0X c #A8A5A1",
"qX c #ADB8A6",
"wX c #BBB5A1",
"eX c #B7B3B2",
"rX c #C7A987",
"tX c #D0AE84",
"yX c #D2AE8D",
"uX c #C8B38C",
"iX c #D3B789",
"pX c #CCAB96",
"aX c #D1AF90",
"sX c #C3B295",
"dX c #C8B594",
"fX c #CABB93",
"gX c #C4B599",
"hX c #D6B893",
"jX c #D1B99C",
"kX c #CABBA7",
"lX c #D1BCA5",
"zX c #C5BDB2",
"xX c #CCC4AF",
"cX c #DBC4A9",
"vX c #D9C9B5",
"bX c #DCD3BD",
"nX c #D4D6C6",
/* pixels */
"u u u y y y y y y u u u u u u u u u u u u u u y > y y > y y y y u u u y y , , , , , , , , , y u u u y u u u u u y > > y ",
"u u y > : : > > y y y u u u u y u u u u u u u u u y > : > > > > , < < y y , , < , : : : , y y y u u u u u u u y y : > > ",
"y u y > > y u y , : , y y u u u y y y y y y y y y u u y > : > > & : : : : , : : : : : : , , u y u u u u u u u u , y y y ",
", , y , y y u y y y y y u u u u y y y > > y > > > y y y y y : > , : : : & , & : : : : : , u u y u u u u u u u u u u u u ",
"> , > : : y y y u u u u u y u u y : > > y y > : : > > y y y u u u , , , : : : , , , y y y y y y y y y y u y y y u u u u ",
": : : : : > u u u u u u u u u y y y y y y y > : : > : > > y y u y < , & : & , u y , , y y , : , , y y y y y y y y u u u ",
": : : : : y u u u u u u u u y y y u u u y y y y y > > > > > > > , , < : : : , u y : : : : : , , , < < , , , , > , , y y ",
"> y y u u u u u y y y u u y y , y u u u y y y y y y y y > > > y , , , : : : , , y , , : y y y y y y < , & , , & : : & : ",
"u y , , y y > , > y y y , < , , u , u u , , > : > > : : , & : : : : : : : : : : > & > > y u u u , & , : : : : : : : : > ",
"u , : : : : : , , , , , , , , , > , , < , < < 3 3 3 5 1 1 1 < < > : : : : : : : : > > > > > > > , > , : : : : > , > y y ",
"u , , , , y y y < , , , , : : : > < p 3 5 5  . .a. X X Xs.s. .5 Z 3 < : : : : : > > y y y y y y y y y y y y y y y y y u ",
"Z u y , y y y y , , , & : : : < 3 Q g.g.g..XXX+XOXOX:X%X#XoXXXg. ...Y Z < , , , > u y y : > y u y y y y u y u u u y u u ",
"u u y y u y > > , , , & , < 5 Q i.XX+X&X2X#X2X$XI.I.E.E.I.P.K.j..X.X.X .H p u y u u > > > y > > , y y y y y y u u u y y ",
"> > : , y y y , y y y y < D i.oX+X5X#X#XP.P.G.M.J.C.v.v.x.x.z.H.-X$X%XXXf.| H < u u u , > < u u , , y y u u y y y y y y ",
": & , : : , : : , y y u A ..j.+X&X@X@X$X7XsXsXsXsX3XE.N.C.e.9.e.b.v.J.I.P.j...F i > > : > u u u y y y u y y y , > : : > ",
"y , : : : : , , y y y p U f.K.I.P.;X7XkXvXbXbXvX9X4X$X$XT.B.r.0.9.9.e.C.H.L.f.Q p > : : > u u u y y y u u y y , > : : : ",
"u y y y y y y y y y u F X.u.x.U.3XdXxXbXnXnXxXgX>X*X*X:X-XY.Z.A.t.t.6.9.e.m.L.D.Q 1 , , > u u u u u u u u y y y y > > > ",
"u u u u u u u u u y i J X.l.q.3.x.T.3X8XgX8X7X4X$XI.-X:X-XL.T.U.T.}.}.].S.C.H.@X.X| Z , u u u u u u u u u u u y y y y y ",
"u u u u u u u u u u p / c.I e w z w._.R.T.U.N.x.x.C.W.rXfXfXfX3XC.R.R.].rXE.K.h.,XoXQ i y y > y y y u u u u u u u u u u ",
"u u u u u u u u u u i J u.P * * n ] n.Z.`.Z.A.V.B.).B.A.}.iXiXhXhXuXW.J.E.$X@X2X,X<Xy.5 > > y > y u i y y u u y u u u u ",
"y y u u u u u u u y u S ^ ~ k c &.A.{.yXyX{.B.w.] B V C O.-.1.].iXjXsX3XU.H.;XwXqX1Xd.H < > y y u u i > , y y y u y u u ",
"> y y u u u u y y y y i T c.z.N.C.[.tXW.o.L l z q + 9 h j j M 7.B.T.W.E.E.U.*XzXnXqXh.K , y y y y > > > > > > y y y u u ",
"y y u u y y y y : : , , D s.%X;XW.B.&.l w = # O O o 6 o + 7 q c _ -.5.b.U.;X:XeXeXqXj.H > > < y u y > y y y y y > y y u ",
"u u u u y y y , , , y < F s.OX%Xv.I e e l l s s ( _ ( ( f z s z N N *.B.H.$X:X6X0X1Xa.A , , y y > > > y y y y y u y u u ",
"u u u u u u u y y u u u a  .j.h.~ v ) &.0.B.Z.Y.`.`.].`.`.Z.b.w.m.m.Y.R.E.$X#X5X<Xi.H < y > > : : : : : y u u u u u u u ",
"u u u u u u u u u u u u u F u.p.$.k.S.[.|.tXtXrXyXhXiXtXiXtX{.rXrXrXE.-X3XsX4X6Xs.5 , : > : : : : : , : y u u u u u u u ",
"y y y y y y u u u u u y u 1 E h.#X>XpXaX[.9.5.' } 7.w.} w.Z.`.aXcXkXdX7X4X7X5X1Xs.Z : : & : : : > , , y u u u u u u u u ",
"y > y > > y y y y y y y > , D f.*X>X=Xm.` v e = 7 6 7 0 t n ( o.v.W.fXcXlXgX6X1Xg.H , : : > y y u u y y u , , y y y y y ",
"u y y y > > : > > , : : : > A f.L.F.} ( t $ .   X % @ o O % + q s ) q.W.rXgX8X5Xs.D : : : y u y : : , , : : , , , , , > ",
"> > : > & > : : : : : : : 1 U f.D.[ d 8 = @ . @ & & % 0 t t n B b r e k I %.P.K.Q i : : : y u y > : : , , y y y u u < y ",
"> : > : : : : : : : , > , p Q p.c.6.' ) P q # & @ @ 6 n ] >.>.:.=.C M b j z 2.v.! u > > : y u y y y y y y y y , , > > > ",
"> > > > > > y > , u , > , p U y.p.M.N.N.b.{ ! G < p t z m V =.0./.!.@.@.C C _ 2.^ a y y y y u u y y y u y , , , : > & > ",
"y y , , , , , , , , , : , y p J u.h.h.2X4X;X=XY.L.H.k.` ( N _ !././.<.Q.@.@.O.*.%.G u u u u u u y u y u y y y , y y > > ",
"y > > > : , : : , , : : : : , < Z / #X6XzXvXcXlXdXsXyXrXZ.0.>.~.~.] N M O.C C 5.2.J u y u u u u y y y > > y , > : > > , ",
"> : > : & : : : : < , : : : : : < K ,XwXxXlXpXrX].S.).).n.C._.(.0.9.P e h C =.3.X.F u , u u u u y > : : > > : : : : : : ",
": : : : , : : , , u y y y , , , < H h.4XK.R L ` ` &.&.` I k l B V :.n.` g j &.x.! Z > , > > , : : : : : & : : : : : : : ",
": : : , y u , y y u y , y y y y u a ! X.T a L 3.b.V.6.e.7._ n h 9 e ' b.3.*.4.#.A , : : : : : : : : : : > > : > > > > > ",
"& > u u , , , , , : : , , , , , > y p T { _ } n.b.^ L x x m B M M M f ( b.6.~ a , : : : : : : > > > : ; > > > y y y y y ",
", , y y , : : : > , y y u u y y > > < K 6.} ` x 2 : & % % % 0 8 r b d f { u.K < : : : : > > y > , > y y y y y y u y u u ",
": : y u , , , , y y u y , , > : > > < K %.x = #   . # q f f z l z r 6 0 E u.H > : : : > > > y y y y y y y y u u u u u u ",
"> y y y y y , , y y y > > : > : : : 3 W K $ .   X - d B >.8.r.B.} } ( G E K u y , > , , , , : , > y u u u u u y y y y y ",
"> > > y y y , y y y u y y > > > > > a #.4 $   X > B ] -.<.0.0.0.^.^.F.z.R i y y , , , y u y u y y y u u u u y > > y > > ",
"y y y > : : : : , u u u y u u u u u p I v * * r _ ^._.'.].'.t.+.+.>.B.D.U u > > : : > y u u u u u u u u u u y > > y y y ",
": > : : : : : : > u u u y u u u u < p I #.c 9 b Q.~.(.A.'.].'.1.+.*.u...5 , : : : : : , u u u y u u u u u u y y y y u u ",
": : : : : : : > u u > y y y y y y u u a ! ' N M @.;.+.+.<.t.t.V.6.u.W D < : : : : : > u u u u u u u u u u u u y y u u u ",
": : > > , y u y , > : > : : > y y y u i Z ! 2.=.;.;.+.+.O.-.9.x.%.J 3 < : : : : : : : > y u u u u y u y y u u u u u y u ",
": > y u y y y y y y > > > > : > , y u u i A ~ 2.5.,.;.!.;.-.4.6.J < : , , y y , > : : : > > y y y y y y y y u u y u y y ",
": > u u y y u u u u y u > y y u y u u y y i A I %.4.4.5.*.*.#.G p , , < u u u y u u y y y y u u y y y y > > > > y y > > ",
": , y u u y u u u u u u u u u y u u u u u u u a K $.$.$.$.~ G i u u u u u u u u u u u u u u u u u u y y > > & > y y y > ",
", y y y y y y u u y u y u u u u u u u u u u y u < 1 a Z p p u y u u y u u u u u u u u u u u u u u u u u y > > y u y y u ",
"y u y , , : , y y y u y u u u u u u u u u y u y , < u u < u y u y > > y y y y u u u u u u u u u u u u u y y y u u y > y ",
"u y y , : , : , , , y y u y u u u u u u u u y , , , y , y y u y > : > > > > y y y u u u u u u u u u u u u u u u u y > y ",
"y y y , , y u y , , , y u u y y y y y u u y y y , : : , , , , < y > u u u > > u y y y u u u y y y y y y y u u u u > > u ",
", , > , > y u u y y y y u y y y , : , < < y y y , < < , , , , , > > y u u u y u y u u u u u > > : y > > > y u u u y > u ",
": : : : : , u u u u u y u u y y : : & : : , , > , , , , , : , : : > > u u u u u u u u u u u > > y y u u y y u u u u > u ",
": : : : : , u u u y u y , y < < y , , : : : , & : : & : , & : & : > : u u u u u u u u u u u y y u y u u y u u u u u u > ",
": , & < , y u y y y y y & > , , y y u y > > > > > & : : : : : , > y y u y u u y u u u u u u u u u u u u u u y u u y y y ",
"u u u y < , y y y y y , , : : : : y , y u u i u : > : : , y u y y y y y , , y y y y y y u u u u u u y y y > > > > > > > ",
", , , , < , , & & , , , & , , & : : : : > y u u , : : : y y , , > y > > , : , u , , , > y u y , y u y > : : : : : : : : ",
"< , , & & , < , i y y y < , , , > > > > > : > y > : : , y y , : & : : y , u u u y y , , > > : , > > > & : : : : : : : : "
};
