/* XPM */
static char *result[] = {
/* columns rows colors chars-per-pixel */
"60 60 234 2 ",
"   c #3D3620",
".  c #571913",
"X  c #46291B",
"o  c #5D2316",
"O  c #59271A",
"+  c #6C2B0B",
"@  c #742E0E",
"#  c #6B340B",
"$  c #622314",
"%  c #672A15",
"&  c #6B2B13",
"*  c #64251D",
"=  c #632A1B",
"-  c #6C3717",
";  c #6D361C",
":  c #763818",
">  c #4F2D22",
",  c #453A27",
"<  c #4D3B25",
"1  c #4C3928",
"2  c #523629",
"3  c #503B2A",
"4  c #6E3425",
"5  c #773623",
"6  c #743A24",
"7  c #773A32",
"8  c #2E4625",
"9  c #3A462A",
"0  c #794319",
"q  c #7D431B",
"w  c #46442A",
"e  c #52432C",
"r  c #4C4834",
"t  c #554634",
"y  c #784727",
"u  c #77412D",
"i  c #7A432E",
"p  c #7B502F",
"a  c #644C39",
"s  c #7E4630",
"d  c #7D4934",
"f  c #7C4E38",
"g  c #65543C",
"h  c #6C543C",
"j  c #73553C",
"k  c #7D523C",
"l  c #5A5346",
"z  c #645946",
"x  c #6E5B42",
"c  c #745C44",
"v  c #7C5A42",
"b  c #7B5A47",
"n  c #6E6245",
"m  c #706349",
"M  c #7B634C",
"N  c #786955",
"B  c #833C1C",
"V  c #823E25",
"C  c #82481A",
"Z  c #8C511F",
"A  c #94571E",
"S  c #834225",
"D  c #854A26",
"F  c #85432C",
"G  c #8D4E2A",
"H  c #914E2C",
"J  c #8B5729",
"K  c #975725",
"L  c #935F2C",
"P  c #804731",
"I  c #814832",
"U  c #824E38",
"Y  c #83533C",
"T  c #895839",
"R  c #955836",
"E  c #A35F33",
"W  c #996027",
"Q  c #88643C",
"!  c #93623C",
"~  c #986839",
"^  c #95713E",
"/  c #A66C2B",
"(  c #A66935",
")  c #A77336",
"_  c #AB733C",
"`  c #B67A3B",
"'  c #845741",
"]  c #855B43",
"[  c #895D44",
"{  c #885E49",
"}  c #8B6145",
"|  c #886B46",
" . c #84614B",
".. c #89654C",
"X. c #8C6A4E",
"o. c #956946",
"O. c #8D774B",
"+. c #98744B",
"@. c #8C6650",
"#. c #8C6C53",
"$. c #976A51",
"%. c #8D735B",
"&. c #8C7659",
"*. c #917254",
"=. c #9D7555",
"-. c #9A7B54",
";. c #95755B",
":. c #92785D",
">. c #9A7C5D",
",. c #A36A42",
"<. c #A77A48",
"1. c #B87A49",
"2. c #AD7A55",
"3. c #A37958",
"4. c #8E7E63",
"5. c #947E64",
"6. c #987D65",
"7. c #AA7E62",
"8. c #8D815E",
"9. c #9C8459",
"0. c #AF8548",
"q. c #B5874B",
"w. c #A9895B",
"e. c #B58957",
"r. c #B79258",
"t. c #8D846C",
"y. c #958265",
"u. c #988564",
"i. c #998A65",
"p. c #94846B",
"a. c #99846A",
"s. c #95896D",
"d. c #9C8A6C",
"f. c #998471",
"g. c #948D72",
"h. c #948A76",
"j. c #9C8B73",
"k. c #919072",
"l. c #9D9477",
"z. c #9D937A",
"x. c #98957A",
"c. c #A78963",
"v. c #A48E6B",
"b. c #AD8A6A",
"n. c #B38C64",
"m. c #B58E6C",
"M. c #AA9264",
"N. c #A5916B",
"B. c #AB916E",
"V. c #B39364",
"C. c #B7946B",
"Z. c #A68B75",
"A. c #A29375",
"S. c #AC9273",
"D. c #A4967C",
"F. c #AC947C",
"G. c #AD9A7A",
"H. c #B49473",
"J. c #B49A74",
"K. c #BB9876",
"L. c #B4947B",
"P. c #B39B7C",
"I. c #9EA074",
"U. c #A7A07F",
"Y. c #B7A27D",
"T. c #C08550",
"R. c #C99D74",
"E. c #9B9583",
"W. c #9A9B82",
"Q. c #9B9C8A",
"!. c #A49482",
"~. c #AB9682",
"^. c #A39B85",
"/. c #AB9A83",
"(. c #A7998A",
"). c #A49B8B",
"_. c #B29A82",
"`. c #B49C8C",
"'. c #A69C93",
"]. c #AC9D91",
"[. c #B19C96",
"{. c #9AA086",
"}. c #AAA388",
"|. c #B5A183",
" X c #BCA484",
".X c #B5A38B",
"XX c #BDAB8B",
"oX c #ADA393",
"OX c #A8A995",
"+X c #ADA39D",
"@X c #B5A494",
"#X c #B5AB95",
"$X c #BCAC93",
"%X c #B8A99A",
"&X c #AFB29D",
"*X c #B8B399",
"=X c #BEB39A",
"-X c #AAA6A1",
";X c #B3ABA5",
":X c #B9A9A4",
">X c #AEB7A1",
",X c #BBB5A5",
"<X c #BCB2AA",
"1X c #B9BEAB",
"2X c #BCB9B3",
"3X c #C29E83",
"4X c #C8AB8C",
"5X c #D0AF93",
"6X c #C2B696",
"7X c #C9B39B",
"8X c #C4B89B",
"9X c #C3B4A7",
"0X c #C4BAA3",
"qX c #C9BEA3",
"wX c #C3BCAB",
"eX c #CAB9A8",
"rX c #D0BFA1",
"tX c #C6B9B3",
"yX c #B9C3AC",
"uX c #CAC1A9",
"iX c #D5C4AB",
"pX c #CBC6B3",
"aX c #CECBBB",
"sX c #D7CAB4",
"dX c #D3C6BA",
"fX c #D4CDBC",
"gX c #DED2B5",
"hX c #D6D2BB",
"jX c #D8D0BA",
"kX c #E3D8B8",
"lX c #D8CEC1",
"zX c #D6D1C2",
"xX c #D6D6C5",
"cX c #E3D8C4",
/* pixels */
"I I I P P P P P I I I I I I I I I I I I I I I s i s s i s s I d I I d P s i i i I I i P P P P I I P P I I I I I d i i i ",
"I I P i u u i i I I I I I I I I I I I I I I I I I I i u i i i s F P d P P P d F i i u u s P P P I I I I I I I P F u i d ",
"P I P i i P I P i i s s I I F I I I i I I I I s I I I s u i i u i u u u u i u u u u u u u P I I I I I I I I I I i I I d ",
"s s P s s P I P d I s F I I d I I I i i s i i i i I I F I s i i u i u u u u u u u u u i P I I I I I I I I I I I I I I I ",
"i s u u u P I P I I I I I I I I I u i i s s i u u u i I I I I I I s u u u u u u P s P I I P P P P I P P I s I I I I I F ",
"u u u u u i I I I I I I I I I I s F s I I I i i u u i i i i I I I I P u u u i I I i s P P s i i s P I P P F s P I I I d ",
"u i u u i P I I I I I I I I I I I I I I I I I s I i i i i i i s I P I i u u P I I u u i u u i P s s s P f d s i d i I i ",
"i P P I I P I I I I I I I i I I I I I I I I F s I I I s i i s i P i i u u u i d P i s i s P I U I U I b M l l z ] i u u ",
"I s s s I i i i i P I P I F s d P P P P I s s u u u u u u u u u u u u u i u i i i u u s d I Y  . .b b l 3 l l M f s i i ",
"I s u u u u i I P s s s I i s i i i P P i u u u u u i i u u u u u u u u u u u i u u i s d k g w r r > O 2 N N N c c d d ",
"I s s i i I I I P I s s i i u u u i u i u u u u i i i i i u i u i i u u u i u i u y d I Y x , w , , > > X , 9 9 8 w Y I ",
"Y I I I P I I I s i u u u u u u u u u u i P d I I I I I I I I I i i i s i i i i i I d k h < w c h 1 2 X X t N m n b I I ",
"I I I I I F i i s s u u u u 7 u i i I U Y [ [ [ [ [ } [ } [ [ Y d d u i s s s s I I k h < < a k d k x e   r M T k I I I ",
"u s i i d d i d P P P s s s P P U [ #.:.:.y.y.9.u.a.i.a.d.d.u.y.#.Y s i u s i s U k n e < a T I s s U v g 9 g U I d s s ",
"u 7 u u u i i i P I I I P I U ' #.f.f.f.d.v.c.M.M.N.v.B.S.B.S.N.i.&.T U P P I Y k a < < h Y I I s I d I Y v v I i i u i ",
"P s i u u u i F s I I I P U @.a.D.!.!.!.S.B.B.J.J.P.J.H.H.m.C.M.M.9.*.Y d d j n t 2 < h f I I I I I P P I f d i i u u u ",
"I P I F P P P P P I P P f @.h.).'.(.!.F.~.@X$X8X6X6X%X/.S.7.e.q.q.e.9.O.[ M z 3 > 3 a f s s I I P I I I P P P P s s u y ",
"I I I I I I I I P I I I { t.'.).(.~.F..X0XzXzXxXhXpXwX].Z.<._ ( ( ( ^ +.*.j a 2 3 a k d I I I I I I I P I I I I I I F P ",
"I I I I I I I I I I P [ p.E.).(.`.`..X$X8XzXhXaXaXhXpX#XL.w.e.T.1._ ~ y y ' ;.b c Y P P I P s s P I I I I I I I I I P I ",
"I I I I I I I I I I U ..g.)./.F.P.F./.|.#XaXaX1X,XwX1X%XP.V.e.1.1.E C + + i $.;.] s u u i i i s P I P P P I P I I I I I ",
"s P I P I I I I I P U ..g.W./.F.S.P.Y.$X0XfXhXhXhXdXdXuXY.V.e.) Z B @ @ @ S o.9.] u i i P I P P I I F s u s P s I I I I ",
"s s P I I I I P P P I ' :.z.A.A.S.P.|.4X=XwXqXuXeX:X@X.XN.+.<.~ G H V F P R 3.*.Y i i P P P P P P i u u s s s s s P I I ",
"P P I I I I P s i u u I [ 6.A.A.F.|.XX6X6XqX8X6X6X.XZ.f.>.+.Q 0 & $ % = ; o.w.| s i i u i s i P d s s s P I s s s s P I ",
"P I I I P P P P i s P Y #.a.A.D. X7XuXgXkXkXkXkXgXgXeX%XP.w._ J : o o O O Q 9.} P P I P s P P s i u s s P P P P P P I I ",
"I I I I I P I P P I I Y a.z.!.~._.$X$XqXkXkXjXjXiXdXzXaX7XK.e._ L C % O O p -...i i s P i s i u u u u i P I I I I I I I ",
"I I P I I I I I I I I [ a.z.E.E./.#X8XiXjXkXcXcXaXlXzXyX9X|.w._ A A : = O y =.@.d u u u u u u u u u u u P I I I I I I P ",
"P P P P I I I I I I I Y 5.t.x.E.).).oX*X6XeXsXcXzXxXxXxXhX7XR.e.( A @ * * 5 } =.[ u u u u u u u i s s P I I I I I I I I ",
"s s s i i i P P P P I U ] %.t.h.E.Q.).).!.(.<X2X2X2XyX>X&X.XH.e.` ` ( V 5 & 6 ;.;.d u u u u s I I I P P I s P P P I I I ",
"I I d s i i i i i s u u i d v M 4.E.E.(.oXoX+X+X-X&XyX>X&XoXS.w._ / K B 5 5 - } >.Y u u u P I I s u u s u u s u s s s i ",
"i i u u u u u u u u u u i s 7 s v @.6.'.+X+X;X;X;X1XpXpX1X#X Xm.~ K A H H # u >.;.Y u u u P I F u u u s s P I I I I I s ",
"u u u u u i u u u u i s s s 7 s b %.Q.+X;X<XwXuXpXpXlXjXlXjX7XL.3.J C 0 0 - Q >.*.U i i u P I P P P P P P P P P i i i u ",
"i i i s i F i i P d s s s s s { 4.Q.-X;X<X<X$X XY.4X5XrXiXrX7X3X3.! D 0 0 +.=.} U I I d P P I I P P I I P P s s i u u u ",
"P P s i P s i s P s u i P P Y 4.W.OXwX9X:X[./.C.r.r.V.J.K.K.H.C.n.0.L q ! b.#.I I I I I I P I I I I I I I I I I i I i i ",
"P i P i i i u u i s u u u u U %.x.OX+X[.[.`.P.r.r.q.0.^ ! ! ! ! ,.<.<.e.M.N.*.I I I I I I I I I I i i I s i i i i i F i ",
"i u u u u u u u i I s u u u i ] t.{.}.)./.P.J.V.r.) / W K C : ; ; 6 o.2.b.d.*.s s s P I I d P P F i u u u u u u u u u u ",
"u u u u u u u s P I I P I i s d  .k.W.E.D.v.c.M.V.e.q.) ` ( R V $ $ % i *.s.| s s s i i i F i i i u u u u u u u u u u u ",
"u u i s P P I P P P P P P I P P k #.k.s.j.Z.B.Y. X4X4XT.( C : : & . . $ b 4.Y s i u u u u u u u u u i u i i i u i i i i ",
"u i I I s i P i s i i u i P s s s s f ] ;.Z._.XX4X5X5XR.2.G V H I * o ; X.X.i u u u u u u u u u u u u i i i i i I s s I ",
"u i I P s u u u i s P P d s P s s s s s { j.G.J.J.c.=.R y + & 5 7 4 4 ~ -. .u u u u u u i i i P i i I i I I I I I I I I ",
"u i P I P s s s P P P P P s s i u u 7 i ] z..X|. XP.b.=.I D ; $ * * p ^ o.f u u i u u u i i P I I I I I I I I I I I I I ",
"i s s d I P i s P P P i i u i u i u u s | k.U.$XeX9X@XF.c.~ D S # - | O.T d F P F s i s d s u s i I I I I I I s P I P P ",
"s i s s s P s P P I I P P i i i i i i k 8.I.}.:X9XtXtX7X_.w.L 0 # y O.*.d i d I s s s s I I I s I d I I I I d s i i s i ",
"s s P F u u u i s I I I P I I I s I I Y &.l..X@X[.:X<X,X4XV.<.J J | *.T s s i i u u i s I I I I I I I I I I i i i P P P ",
"u u u u u u u u i I I P P I I I I I I I X.l.G.F.~.`.oXoXl.Q L G Q &.Y i u u u u u u u s I P I I F I I I I I I F P P I I ",
"u u u u u u u i d I s d F d I I I I I I ..l.L.C.b.m.D.(.F.2.,.R -...i u u u u u u u i I I I I I I I I I I I I I I I I P ",
"u u u i s P I P s i u u u u i i I I I s [ s.S.V.n.b.G./.F.7.o.[ >.] u u u u u u u u u i P I I I I I I I P I I I I I I I ",
"u u I I P P P P s s s u u u i i s I I I Y y.A.L.P.G.^.x.!.Z.6.#.[ s u s s P d F i u u u i i P P I I I I i I I I P I P F ",
"u s I I P P I I I I F I I P I I s I I I f ..g.z.(.}.{.x.g.5.#.U I i d d I I I P I I P P I P I P I I i I i i s i i P d u ",
"u s I I I I I I I P I I I P I I I I I I I U ..y.k.k.4.4...U U U I I I I I I I I I I I I I I I I I I P P i u u i i I I i ",
"s P I I P P P P I I I I I I I I I I I I I I U k v ' U U I I I I I I d s P I I I I I I P I I I I I I I I I u u I P I I I ",
"I I P P i s s P d d I P I F I I I I I I I I s I d I P P I I I I F s i s I I P P I I I I I I I I I I I I I P I I I P F I ",
"I I s u u i u s s s F I I I I I I I I I I I I i i s P P d P I P s u u s i s i P P I I I I I F I I I I I I I I I d d i i ",
"P P P s s P I P s i s d I I I d P I P I I I P s u u s s P i P P P i I I I i i d i I I I I I I I I I P P P P I I I s u I ",
"P s i s i I I I d F I I I I I F i i i P s P P P P P s s P P s s i i d I I P F I P I I I I P s i i i i i i P I I I d i I ",
"u 7 u u u s I I I I I I I I I P i i i u i i i i i P P i i u u u u u i I I I I I I I I I I P i i F d I I P P I I I F i I ",
"u u u u u s I I I I I I s i I I d F i u u u u u u u u u u u u u u u i I I I I I I P I I I I I F I I I P I I I I I I P I ",
"i u i i s I I I I I P i i u i I I I I I i i i i u u u u u u u s i P P I P I I I P I I I I I I I I I I I d P P I I I I I ",
"I I I I P I I P s P d F i u u u i i i I I I I I i u u u i I I I I P P I P P P P P P P P I I I P I I I i s F i i u u u u ",
"I P i i s i u u i i s s u u u u u i i i i I I I s u u i I I I i i s i i u u i P s s s i P I P I I I P u u i u u u u u u ",
"I i u u u i P P I I I d P s s i u i i u u u i I i u u i I I i u u u i s P P I I P P P s i u i i i i u u u u u u u u u u "
};
